<svg width="253" height="297" viewBox="0 0 253 297" fill="none" xmlns="http://www.w3.org/2000/svg">
<g clip-path="url(#clip0_88_8087)">
<g clip-path="url(#clip1_88_8087)">
<path d="M19.9403 76.645V87.0376H10.4902V76.645H19.9403ZM12.0603 81.0365H18.3402V78.1055H12.0603V81.0365ZM12.0603 82.4872V85.5572H18.3402V82.4872H12.0603Z" fill="#617462"/>
<path d="M57.6401 86.1733C57.6401 87.0675 57.0201 87.3557 56.5101 87.3557H53.9601L53.7201 85.7958H55.7101C55.9901 85.7958 56.0901 85.6567 56.0901 85.4182V83.5702H50.4901C50.3201 84.9612 49.8801 86.3124 49.0001 87.3954L47.6401 86.3025C48.1901 85.5374 49.0302 84.3749 49.0302 81.5433V76.5854H57.6301V86.1733H57.6401ZM50.5901 78.0262V79.3476H56.0901V78.0262H50.5901ZM50.5901 80.7187V82.1692H56.0901V80.7187H50.5901Z" fill="#617462"/>
<path d="M90.3798 76.1482H91.9697V79.3275C91.9697 81.722 93.2297 83.2621 93.4797 83.5701C94.5497 84.8716 96.1498 85.5374 96.9498 85.8553L95.9797 87.3059C92.6297 85.7758 91.7098 83.9377 91.1898 82.2586C90.9598 83.133 90.3297 85.5671 86.4897 87.3059L85.5498 85.8653C87.6398 85.0207 90.3698 83.4608 90.3698 79.3375V76.1482H90.3798ZM87.4797 81.9605C87.1697 80.7682 86.5798 79.2879 85.8198 78.2744L87.2097 77.6782C87.9097 78.5724 88.6097 80.0827 88.9797 81.3843L87.4697 81.9605H87.4797ZM93.5098 81.3544C94.3598 80.1622 94.8698 78.3141 95.0098 77.5789L96.6097 78.1154C96.1697 79.7051 95.8798 80.4801 94.9098 82.0102L93.5198 81.3544H93.5098Z" fill="#617462"/>
<path d="M123.63 78.8505H127.91V80.3309C127.65 81.9902 126.87 84.6529 124.25 86.3022L123.4 84.8814C125.23 83.6891 126.11 82.3478 126.46 80.3309H123.63V78.8505ZM129.97 77.4993C129.97 77.5688 129.97 77.6582 129.98 77.7278C130 77.8868 130.73 80.2217 130.75 80.2515C132.38 78.9698 133.17 77.9861 133.52 77.5489L134.86 78.5524C133.85 79.7049 132.69 80.6488 131.44 81.5331C131.97 82.3577 132.89 83.6693 135.01 84.9609L134.1 86.4115C132.25 85.1696 130.63 83.4011 129.96 81.4934V86.0339C129.96 87.1567 129.36 87.3356 128.77 87.3356H126.6L126.29 85.8253H128.1C128.33 85.8253 128.45 85.716 128.45 85.5073V76.1282H129.96V77.5092L129.97 77.4993Z" fill="#617462"/>
<path d="M161.38 84.613C164.23 82.7749 165.77 80.1717 166.06 79.6749H161.6V78.2343H166.46V76.1379H167.97V78.2343H172.85V79.6749H168.4C169.66 81.9105 171.07 83.222 173.07 84.5534L172.1 86.0238C171.3 85.4873 169.52 84.2155 167.97 81.4037V87.375H166.46V81.4535C165.45 83.2717 164.04 84.8415 162.32 86.0437L161.38 84.623V84.613Z" fill="#617462"/>
<path d="M201.73 79.8936C201.09 80.2314 200.64 80.4301 200.21 80.6189L199.43 79.1981C201.32 78.5324 203.03 77.6581 204.49 76.1379H205.93C207.97 78.0853 210.13 78.91 211.01 79.2378L210.23 80.6884C209.92 80.5493 209.58 80.3903 208.73 79.9333V80.6884H205.95V81.7615H210.4V83.1028H205.95V85.6562H206.85C207.22 84.7819 207.38 84.3248 207.68 83.2915L209.2 83.689C209.02 84.2156 208.82 84.8018 208.4 85.6562H210.67V87.0174H199.78V85.6562H201.94C201.75 84.9905 201.54 84.5038 201.18 83.7487L202.64 83.3214C203.14 84.2951 203.48 85.5569 203.5 85.6562H204.48V83.1028H200.02V81.7615H204.48V80.6884H201.72V79.8936H201.73ZM207.71 79.3571C207.15 78.9994 206.43 78.5324 205.18 77.3699C204.08 78.4629 203.15 79.0789 202.68 79.3571H207.71Z" fill="#617462"/>
<path d="M242.45 76.1482H244.01V79.268H248.2V80.7683H244.01V85.4678H248.83V86.9978H237.6V85.4678H242.45V80.7683H238.32V79.268H242.45V76.1482Z" fill="#617462"/>
<path d="M90.9801 108.141H92.2401V117.589H90.8002V109.691L89.0201 110.903L88.8301 109.581L90.9801 108.141Z" fill="#617462"/>
<path d="M132.65 116.298V117.58H125.65C126.69 116.546 127.8 115.424 129.02 113.993C130.47 112.304 130.82 111.598 130.82 110.804C130.82 109.87 130.17 109.234 129.2 109.234C127.78 109.234 127.08 110.486 126.85 110.863L126.25 109.442C126.99 108.469 128 107.942 129.24 107.942C130.6 107.942 132.25 108.717 132.25 110.764C132.25 112.115 131.69 113.148 128.72 116.298H132.65Z" fill="#617462"/>
<path d="M164.21 115.741C164.98 116.258 165.9 116.486 166.83 116.486C168.53 116.486 169.14 115.552 169.14 114.748C169.14 113.943 168.44 113.198 166.87 113.198H165.92V111.956H166.83C168.12 111.956 168.59 111.181 168.59 110.545C168.59 109.641 167.79 109.223 167.01 109.223C166.11 109.223 165.27 109.651 164.67 110.316L164.15 109.045C165.06 108.25 166.11 107.932 167.02 107.932C168.59 107.932 169.98 108.846 169.98 110.446C169.98 111.777 169.03 112.264 168.68 112.443C169.17 112.631 170.55 113.158 170.55 114.857C170.55 116.129 169.59 117.758 166.81 117.758C165.56 117.758 164.64 117.46 163.79 117.003L164.2 115.721L164.21 115.741Z" fill="#617462"/>
<path d="M206.06 117.589V115.563H201.74V114.36L206.02 108.141H207.47V114.311H208.72V115.563H207.47V117.589H206.05H206.06ZM203.18 114.311H206.06V110.068L203.18 114.311Z" fill="#617462"/>
<path d="M245.77 109.422H241.8V111.837C242.1 111.727 242.48 111.598 243.17 111.598C245.21 111.598 246.53 112.95 246.53 114.639C246.53 116.129 245.45 117.768 242.78 117.768C241.73 117.768 240.8 117.53 239.87 117.033L240.27 115.732C241.04 116.248 241.85 116.477 242.78 116.477C244.61 116.477 245.12 115.404 245.12 114.619C245.12 113.506 244.21 112.84 243.09 112.84C242.6 112.84 242.09 112.97 241.72 113.297H240.48V108.121H245.78V109.413L245.77 109.422Z" fill="#617462"/>
<path d="M56.6398 139.736V141.068L51.8898 149.185H50.2898L55.1097 141.028H49.7998V139.736H56.6398Z" fill="#617462"/>
<path d="M94.5999 146.413C94.5999 148.152 93.0598 149.384 91.2198 149.384C89.3798 149.384 87.8398 148.152 87.8398 146.413C87.8398 145.112 88.6599 144.297 89.4099 143.919C88.6999 143.492 88.3699 142.727 88.3699 142.002C88.3699 140.591 89.4898 139.548 91.2198 139.548C92.9498 139.548 94.0699 140.591 94.0699 142.002C94.0699 142.727 93.7299 143.492 93.0299 143.919C93.7899 144.287 94.5999 145.112 94.5999 146.413ZM93.1699 146.393C93.1699 145.698 92.6898 144.704 91.2098 144.704C89.7298 144.704 89.2499 145.698 89.2499 146.393C89.2499 147.337 90.0698 148.092 91.2098 148.092C92.3498 148.092 93.1699 147.327 93.1699 146.393ZM92.6899 142.061C92.6899 141.177 91.9798 140.74 91.2198 140.74C90.4598 140.74 89.7399 141.197 89.7399 142.051C89.7399 142.628 90.0798 143.373 91.2198 143.373C92.3598 143.373 92.6899 142.618 92.6899 142.061Z" fill="#617462"/>
<path d="M126.8 147.833C127.23 148.012 127.66 148.092 128.13 148.092C130.09 148.092 130.94 146.661 131.18 144.843C130.84 145.19 130.2 145.856 128.9 145.856C127.26 145.856 125.81 144.674 125.81 142.796C125.81 140.918 127.21 139.557 129.13 139.557C130.17 139.557 132.63 140.014 132.63 143.869C132.63 147.108 130.97 149.383 128.18 149.383C127.41 149.383 127.01 149.224 126.8 149.145V147.833ZM129.1 144.604C130.16 144.604 131.13 143.869 131.13 142.746C131.13 141.733 130.36 140.839 129.15 140.839C127.82 140.839 127.23 141.912 127.23 142.746C127.23 144.028 128.18 144.604 129.1 144.604Z" fill="#617462"/>
<path d="M163.02 139.738H164.28V149.187H162.84V141.288L161.06 142.5L160.87 141.178L163.02 139.738Z" fill="#617462"/>
<path d="M167.82 144.456C167.82 143.542 167.82 139.548 171.18 139.548C174.54 139.548 174.54 143.552 174.54 144.456C174.54 145.36 174.54 149.374 171.18 149.374C167.82 149.374 167.82 145.37 167.82 144.456ZM173.11 144.456C173.11 142.638 172.76 140.829 171.18 140.829C169.6 140.829 169.25 142.638 169.25 144.456C169.25 146.373 169.65 148.092 171.18 148.092C172.71 148.092 173.11 146.254 173.11 144.456Z" fill="#617462"/>
<path d="M201.02 139.736H202.28V149.185H200.84V141.286L199.06 142.498L198.87 141.177L201.02 139.736Z" fill="#617462"/>
<path d="M208.94 139.736H210.2V149.185H208.76V141.286L206.98 142.498L206.79 141.177L208.94 139.736Z" fill="#617462"/>
<path d="M239.02 139.738H240.28V149.187H238.84V141.288L237.06 142.5L236.87 141.178L239.02 139.738Z" fill="#617462"/>
<path d="M250.61 147.903V149.185H243.61C244.65 148.152 245.76 147.029 246.98 145.598C248.43 143.909 248.78 143.204 248.78 142.409C248.78 141.475 248.13 140.839 247.16 140.839C245.74 140.839 245.04 142.091 244.81 142.469L244.21 141.048C244.95 140.074 245.96 139.548 247.2 139.548C248.56 139.548 250.21 140.323 250.21 142.369C250.21 143.721 249.65 144.754 246.68 147.903H250.61Z" fill="#617462"/>
<path d="M49.0201 171.341H50.2802V180.79H48.8401V172.891L47.0602 174.103L46.8701 172.782L49.0201 171.341Z" fill="#617462"/>
<path d="M58.0201 180.79V178.763H53.7002V177.561L57.9801 171.341H59.4302V177.511H60.6802V178.763H59.4302V180.79H58.0101H58.0201ZM55.1401 177.511H58.0201V173.269L55.1401 177.511Z" fill="#617462"/>
<path d="M87.0201 171.342H88.2802V180.79H86.8401V172.892L85.0602 174.104L84.8701 172.782L87.0201 171.342Z" fill="#617462"/>
<path d="M97.7301 172.633H93.7601V175.047C94.0601 174.938 94.4401 174.809 95.1301 174.809C97.1701 174.809 98.4901 176.16 98.4901 177.849C98.4901 179.34 97.4101 180.979 94.7401 180.979C93.6901 180.979 92.7601 180.741 91.8301 180.244L92.2301 178.942C93.0001 179.459 93.8101 179.687 94.7401 179.687C96.5701 179.687 97.0801 178.614 97.0801 177.829C97.0801 176.717 96.1702 176.051 95.0502 176.051C94.5602 176.051 94.0502 176.18 93.6802 176.508H92.4402V171.332H97.7401V172.623L97.7301 172.633Z" fill="#617462"/>
<path d="M125.02 171.342H126.28V180.791H124.84V172.892L123.06 174.104L122.87 172.783L125.02 171.342Z" fill="#617462"/>
<path d="M135.03 172.464C134.75 172.454 134.73 172.444 134.61 172.444C132.6 172.444 131.6 173.835 131.22 175.683C131.7 175.156 132.42 174.669 133.5 174.669C135.1 174.669 136.61 175.832 136.61 177.759C136.61 179.687 135.13 180.988 133.31 180.988C131.79 180.988 129.77 180.025 129.77 176.726C129.77 174.113 131.23 171.162 134.56 171.162C134.73 171.162 134.84 171.162 135.04 171.182V172.474L135.03 172.464ZM133.3 175.931C132.38 175.931 131.24 176.517 131.24 177.71C131.24 178.703 132.02 179.697 133.27 179.697C134.52 179.697 135.18 178.793 135.18 177.819C135.18 176.15 133.83 175.931 133.31 175.931H133.3Z" fill="#617462"/>
<path d="M163.02 171.341H164.28V180.79H162.84V172.891L161.06 174.103L160.87 172.782L163.02 171.341Z" fill="#617462"/>
<path d="M174.6 171.341V172.673L169.85 180.79H168.25L173.07 172.633H167.76V171.341H174.6Z" fill="#617462"/>
<path d="M201.02 171.342H202.28V180.791H200.84V172.892L199.06 174.104L198.87 172.783L201.02 171.342Z" fill="#617462"/>
<path d="M212.56 178.018C212.56 179.756 211.02 180.988 209.18 180.988C207.34 180.988 205.8 179.756 205.8 178.018C205.8 176.716 206.62 175.901 207.37 175.524C206.66 175.097 206.33 174.331 206.33 173.606C206.33 172.195 207.45 171.152 209.18 171.152C210.91 171.152 212.03 172.195 212.03 173.606C212.03 174.331 211.69 175.097 210.99 175.524C211.75 175.891 212.56 176.716 212.56 178.018ZM211.13 177.988C211.13 177.292 210.65 176.299 209.17 176.299C207.69 176.299 207.21 177.292 207.21 177.988C207.21 178.932 208.03 179.687 209.17 179.687C210.31 179.687 211.13 178.922 211.13 177.988ZM210.65 173.666C210.65 172.782 209.94 172.344 209.18 172.344C208.42 172.344 207.7 172.801 207.7 173.656C207.7 174.232 208.04 174.977 209.18 174.977C210.32 174.977 210.65 174.222 210.65 173.666Z" fill="#617462"/>
<path d="M239.02 171.342H240.28V180.791H238.84V172.892L237.06 174.104L236.87 172.783L239.02 171.342Z" fill="#617462"/>
<path d="M244.76 179.428C245.19 179.607 245.62 179.687 246.09 179.687C248.05 179.687 248.9 178.256 249.14 176.438C248.8 176.786 248.16 177.451 246.86 177.451C245.22 177.451 243.77 176.269 243.77 174.391C243.77 172.513 245.17 171.152 247.09 171.152C248.13 171.152 250.59 171.609 250.59 175.464C250.59 178.703 248.93 180.978 246.14 180.978C245.37 180.978 244.97 180.819 244.76 180.74V179.428ZM247.06 176.199C248.12 176.199 249.09 175.464 249.09 174.341C249.09 173.328 248.32 172.434 247.11 172.434C245.78 172.434 245.19 173.507 245.19 174.341C245.19 175.623 246.14 176.199 247.06 176.199Z" fill="#617462"/>
<path d="M90.6899 211.103V212.385H83.6899C84.7299 211.352 85.8399 210.229 87.0599 208.798C88.5099 207.109 88.8599 206.404 88.8599 205.609C88.8599 204.675 88.2099 204.039 87.2399 204.039C85.8199 204.039 85.1199 205.291 84.8899 205.669L84.2899 204.248C85.0299 203.274 86.0399 202.748 87.2799 202.748C88.6399 202.748 90.2899 203.523 90.2899 205.569C90.2899 206.921 89.7299 207.954 86.7599 211.103H90.6899Z" fill="#617462"/>
<path d="M98.6099 211.103V212.385H91.6099C92.6499 211.352 93.7599 210.229 94.9799 208.798C96.4299 207.109 96.7799 206.404 96.7799 205.609C96.7799 204.675 96.1299 204.039 95.1599 204.039C93.7399 204.039 93.0399 205.291 92.8099 205.669L92.2098 204.248C92.9498 203.274 93.96 202.748 95.2 202.748C96.56 202.748 98.2098 203.523 98.2098 205.569C98.2098 206.921 97.6499 207.954 94.6799 211.103H98.6099Z" fill="#617462"/>
<path d="M128.69 211.104V212.385H121.69C122.73 211.352 123.84 210.229 125.06 208.799C126.51 207.11 126.86 206.404 126.86 205.609C126.86 204.675 126.21 204.039 125.24 204.039C123.82 204.039 123.12 205.291 122.89 205.669L122.29 204.248C123.03 203.274 124.04 202.748 125.28 202.748C126.64 202.748 128.29 203.523 128.29 205.57C128.29 206.921 127.73 207.954 124.76 211.104H128.69Z" fill="#617462"/>
<path d="M130.17 210.547C130.94 211.064 131.86 211.292 132.79 211.292C134.49 211.292 135.1 210.359 135.1 209.554C135.1 208.749 134.4 208.004 132.83 208.004H131.88V206.762H132.79C134.08 206.762 134.55 205.987 134.55 205.351C134.55 204.447 133.75 204.029 132.97 204.029C132.07 204.029 131.23 204.457 130.63 205.122L130.11 203.851C131.02 203.056 132.07 202.738 132.98 202.738C134.55 202.738 135.94 203.652 135.94 205.252C135.94 206.583 134.99 207.07 134.64 207.249C135.13 207.437 136.51 207.964 136.51 209.663C136.51 210.935 135.55 212.564 132.77 212.564C131.52 212.564 130.6 212.266 129.75 211.809L130.16 210.527L130.17 210.547Z" fill="#617462"/>
<path d="M166.69 211.103V212.385H159.69C160.73 211.352 161.84 210.229 163.06 208.798C164.51 207.109 164.86 206.404 164.86 205.609C164.86 204.675 164.21 204.039 163.24 204.039C161.82 204.039 161.12 205.291 160.89 205.669L160.29 204.248C161.03 203.274 162.04 202.748 163.28 202.748C164.64 202.748 166.29 203.523 166.29 205.569C166.29 206.921 165.73 207.954 162.76 211.103H166.69Z" fill="#617462"/>
<path d="M172.02 212.397V210.37H167.7V209.167L171.98 202.948H173.43V209.118H174.68V210.37H173.43V212.397H172.01H172.02ZM169.14 209.118H172.02V204.875L169.14 209.118Z" fill="#617462"/>
<path d="M204.69 211.103V212.385H197.69C198.73 211.352 199.84 210.229 201.06 208.798C202.51 207.109 202.86 206.404 202.86 205.609C202.86 204.675 202.21 204.039 201.24 204.039C199.82 204.039 199.12 205.291 198.89 205.669L198.29 204.248C199.03 203.274 200.04 202.748 201.28 202.748C202.64 202.748 204.29 203.523 204.29 205.569C204.29 206.921 203.73 207.954 200.76 211.103H204.69Z" fill="#617462"/>
<path d="M211.73 204.229H207.76V206.644C208.06 206.534 208.44 206.405 209.13 206.405C211.17 206.405 212.49 207.756 212.49 209.445C212.49 210.936 211.41 212.575 208.74 212.575C207.69 212.575 206.76 212.337 205.83 211.84L206.23 210.538C207 211.055 207.81 211.284 208.74 211.284C210.57 211.284 211.08 210.211 211.08 209.426C211.08 208.313 210.17 207.647 209.05 207.647C208.56 207.647 208.05 207.776 207.68 208.104H206.44V202.928H211.74V204.219L211.73 204.229Z" fill="#617462"/>
<path d="M242.69 211.103V212.385H235.69C236.73 211.352 237.84 210.229 239.06 208.798C240.51 207.109 240.86 206.404 240.86 205.609C240.86 204.675 240.21 204.039 239.24 204.039C237.82 204.039 237.12 205.291 236.89 205.669L236.29 204.248C237.03 203.274 238.04 202.748 239.28 202.748C240.64 202.748 242.29 203.523 242.29 205.569C242.29 206.921 241.73 207.954 238.76 211.103H242.69Z" fill="#617462"/>
<path d="M249.03 204.059C248.75 204.049 248.73 204.039 248.61 204.039C246.6 204.039 245.6 205.43 245.22 207.278C245.7 206.752 246.42 206.265 247.5 206.265C249.1 206.265 250.61 207.427 250.61 209.355C250.61 211.282 249.13 212.584 247.31 212.584C245.79 212.584 243.77 211.62 243.77 208.322C243.77 205.709 245.23 202.758 248.56 202.758C248.73 202.758 248.84 202.758 249.04 202.777V204.069L249.03 204.059ZM247.3 207.527C246.38 207.527 245.24 208.113 245.24 209.305C245.24 210.299 246.02 211.292 247.27 211.292C248.52 211.292 249.18 210.388 249.18 209.414C249.18 207.745 247.83 207.527 247.31 207.527H247.3Z" fill="#617462"/>
<path d="M52.6899 242.709V243.99H45.6899C46.7299 242.957 47.8399 241.834 49.0599 240.404C50.5099 238.714 50.8599 238.009 50.8599 237.214C50.8599 236.28 50.2099 235.644 49.2399 235.644C47.8199 235.644 47.1199 236.896 46.8899 237.274L46.2899 235.853C47.0299 234.879 48.0399 234.353 49.2799 234.353C50.6399 234.353 52.2899 235.128 52.2899 237.174C52.2899 238.526 51.7299 239.559 48.7599 242.709H52.6899Z" fill="#617462"/>
<path d="M60.5598 241.218C60.5598 242.957 59.0198 244.189 57.1798 244.189C55.3398 244.189 53.7998 242.957 53.7998 241.218C53.7998 239.917 54.6198 239.102 55.3698 238.724C54.6598 238.297 54.3297 237.532 54.3297 236.807C54.3297 235.396 55.4498 234.353 57.1798 234.353C58.9098 234.353 60.0298 235.396 60.0298 236.807C60.0298 237.532 59.6897 238.297 58.9897 238.724C59.7497 239.092 60.5598 239.917 60.5598 241.218ZM59.1298 241.198C59.1298 240.503 58.6498 239.509 57.1698 239.509C55.6898 239.509 55.2097 240.503 55.2097 241.198C55.2097 242.142 56.0298 242.897 57.1698 242.897C58.3098 242.897 59.1298 242.132 59.1298 241.198ZM58.6498 236.867C58.6498 235.982 57.9398 235.545 57.1798 235.545C56.4198 235.545 55.6998 236.002 55.6998 236.857C55.6998 237.433 56.0398 238.178 57.1798 238.178C58.3198 238.178 58.6498 237.423 58.6498 236.867Z" fill="#617462"/>
<path d="M90.6899 242.709V243.99H83.6899C84.7299 242.957 85.8399 241.834 87.0599 240.404C88.5099 238.714 88.8599 238.009 88.8599 237.214C88.8599 236.28 88.2099 235.644 87.2399 235.644C85.8199 235.644 85.1199 236.896 84.8899 237.274L84.2899 235.853C85.0299 234.879 86.0399 234.353 87.2799 234.353C88.6399 234.353 90.2899 235.128 90.2899 237.174C90.2899 238.526 89.7299 239.559 86.7599 242.709H90.6899Z" fill="#617462"/>
<path d="M92.76 242.639C93.19 242.818 93.62 242.897 94.09 242.897C96.05 242.897 96.9 241.467 97.14 239.648C96.8 239.996 96.16 240.662 94.86 240.662C93.22 240.662 91.77 239.48 91.77 237.602C91.77 235.724 93.17 234.363 95.09 234.363C96.13 234.363 98.59 234.82 98.59 238.675C98.59 241.914 96.93 244.189 94.14 244.189C93.37 244.189 92.97 244.03 92.76 243.951V242.639ZM95.0601 239.41C96.1201 239.41 97.09 238.675 97.09 237.552C97.09 236.539 96.32 235.645 95.11 235.645C93.78 235.645 93.1901 236.717 93.1901 237.552C93.1901 238.834 94.1401 239.41 95.0601 239.41Z" fill="#617462"/>
<path d="M122.25 242.152C123.02 242.669 123.94 242.897 124.87 242.897C126.57 242.897 127.18 241.963 127.18 241.158C127.18 240.354 126.48 239.608 124.91 239.608H123.96V238.366H124.87C126.16 238.366 126.63 237.591 126.63 236.956C126.63 236.051 125.83 235.634 125.05 235.634C124.15 235.634 123.31 236.061 122.71 236.727L122.19 235.455C123.1 234.66 124.15 234.343 125.06 234.343C126.63 234.343 128.02 235.257 128.02 236.856C128.02 238.188 127.07 238.674 126.72 238.853C127.21 239.042 128.59 239.569 128.59 241.268C128.59 242.539 127.63 244.169 124.85 244.169C123.6 244.169 122.68 243.871 121.83 243.414L122.24 242.132L122.25 242.152Z" fill="#617462"/>
<path d="M129.82 239.261C129.82 238.347 129.82 234.353 133.18 234.353C136.54 234.353 136.54 238.357 136.54 239.261C136.54 240.165 136.54 244.179 133.18 244.179C129.82 244.179 129.82 240.175 129.82 239.261ZM135.11 239.261C135.11 237.442 134.76 235.634 133.18 235.634C131.6 235.634 131.25 237.442 131.25 239.261C131.25 241.178 131.65 242.897 133.18 242.897C134.71 242.897 135.11 241.059 135.11 239.261Z" fill="#617462"/>
<path d="M160.25 242.152C161.02 242.669 161.94 242.897 162.87 242.897C164.57 242.897 165.18 241.963 165.18 241.158C165.18 240.354 164.48 239.608 162.91 239.608H161.96V238.366H162.87C164.16 238.366 164.63 237.591 164.63 236.956C164.63 236.051 163.83 235.634 163.05 235.634C162.15 235.634 161.31 236.061 160.71 236.727L160.19 235.455C161.1 234.66 162.15 234.343 163.06 234.343C164.63 234.343 166.02 235.257 166.02 236.856C166.02 238.188 165.07 238.674 164.72 238.853C165.21 239.042 166.59 239.569 166.59 241.268C166.59 242.539 165.63 244.169 162.85 244.169C161.6 244.169 160.68 243.871 159.83 243.414L160.24 242.132L160.25 242.152Z" fill="#617462"/>
<path d="M170.94 234.542H172.2V243.991H170.76V236.092L168.98 237.305L168.79 235.983L170.94 234.542Z" fill="#617462"/>
<path d="M15.22 155.206C21.1073 155.206 25.88 150.464 25.88 144.615C25.88 138.765 21.1073 134.023 15.22 134.023C9.33262 134.023 4.56006 138.765 4.56006 144.615C4.56006 150.464 9.33262 155.206 15.22 155.206Z" fill="#F2D6CD"/>
<path d="M11.4003 290.201C15.1724 290.201 18.2302 287.163 18.2302 283.415C18.2302 279.668 15.1724 276.629 11.4003 276.629C7.62816 276.629 4.57031 279.668 4.57031 283.415C4.57031 287.163 7.62816 290.201 11.4003 290.201Z" fill="#F2D6CD"/>
<path d="M15.22 186.91C21.1073 186.91 25.88 182.168 25.88 176.319C25.88 170.469 21.1073 165.728 15.22 165.728C9.33262 165.728 4.56006 170.469 4.56006 176.319C4.56006 182.168 9.33262 186.91 15.22 186.91Z" fill="#F2D6CD"/>
<path d="M15.22 218.605C21.1073 218.605 25.88 213.863 25.88 208.014C25.88 202.164 21.1073 197.422 15.22 197.422C9.33262 197.422 4.56006 202.164 4.56006 208.014C4.56006 213.863 9.33262 218.605 15.22 218.605Z" fill="#F2D6CD"/>
<path d="M53.22 218.605C59.1073 218.605 63.88 213.863 63.88 208.014C63.88 202.164 59.1073 197.422 53.22 197.422C47.3326 197.422 42.5601 202.164 42.5601 208.014C42.5601 213.863 47.3326 218.605 53.22 218.605Z" fill="#F2D6CD"/>
<path d="M15.22 250.309C21.1073 250.309 25.88 245.568 25.88 239.718C25.88 233.869 21.1073 229.127 15.22 229.127C9.33262 229.127 4.56006 233.869 4.56006 239.718C4.56006 245.568 9.33262 250.309 15.22 250.309Z" fill="#F2D6CD"/>
<path d="M17.0701 140.859C16.7901 140.849 16.77 140.839 16.65 140.839C14.64 140.839 13.64 142.23 13.26 144.078C13.74 143.551 14.46 143.064 15.54 143.064C17.14 143.064 18.65 144.227 18.65 146.154C18.65 148.082 17.17 149.383 15.35 149.383C13.83 149.383 11.8101 148.419 11.8101 145.121C11.8101 142.508 13.27 139.557 16.6 139.557C16.77 139.557 16.88 139.557 17.08 139.577V140.868L17.0701 140.859ZM15.34 144.326C14.42 144.326 13.28 144.912 13.28 146.104C13.28 147.098 14.0601 148.092 15.3101 148.092C16.5601 148.092 17.22 147.187 17.22 146.214C17.22 144.545 15.86 144.326 15.35 144.326H15.34Z" fill="#C82828"/>
<path d="M11.0201 171.343H12.2802V180.792H10.8401V172.893L9.06018 174.105L8.87012 172.784L11.0201 171.343Z" fill="#C82828"/>
<path d="M16.17 178.942C16.94 179.459 17.86 179.687 18.79 179.687C20.49 179.687 21.1 178.753 21.1 177.949C21.1 177.144 20.4 176.399 18.83 176.399H17.88V175.157H18.79C20.08 175.157 20.55 174.382 20.55 173.746C20.55 172.842 19.75 172.424 18.97 172.424C18.07 172.424 17.23 172.852 16.63 173.517L16.11 172.246C17.02 171.451 18.07 171.133 18.98 171.133C20.55 171.133 21.9401 172.047 21.9401 173.647C21.9401 174.978 20.99 175.465 20.64 175.644C21.13 175.832 22.51 176.359 22.51 178.058C22.51 179.33 21.55 180.959 18.77 180.959C17.52 180.959 16.6 180.661 15.75 180.204L16.16 178.922L16.17 178.942Z" fill="#C82828"/>
<path d="M14.6899 211.103V212.385H7.68994C8.72994 211.352 9.83994 210.229 11.0599 208.798C12.5099 207.109 12.8599 206.404 12.8599 205.609C12.8599 204.675 12.2099 204.039 11.2399 204.039C9.81987 204.039 9.11989 205.291 8.88989 205.669L8.28992 204.248C9.02992 203.274 10.0399 202.748 11.2799 202.748C12.6399 202.748 14.2899 203.523 14.2899 205.569C14.2899 206.921 13.7299 207.954 10.7599 211.103H14.6899Z" fill="#C82828"/>
<path d="M15.8198 207.666C15.8198 206.752 15.8198 202.758 19.1798 202.758C22.5398 202.758 22.5398 206.762 22.5398 207.666C22.5398 208.57 22.5398 212.584 19.1798 212.584C15.8198 212.584 15.8198 208.58 15.8198 207.666ZM21.1097 207.666C21.1097 205.848 20.7598 204.039 19.1798 204.039C17.5998 204.039 17.2498 205.848 17.2498 207.666C17.2498 209.583 17.6498 211.302 19.1798 211.302C20.7098 211.302 21.1097 209.464 21.1097 207.666Z" fill="#C82828"/>
<path d="M14.6899 242.709V243.99H7.68994C8.72994 242.957 9.83994 241.834 11.0599 240.404C12.5099 238.714 12.8599 238.009 12.8599 237.214C12.8599 236.28 12.2099 235.644 11.2399 235.644C9.81987 235.644 9.11989 236.896 8.88989 237.274L8.28992 235.853C9.02992 234.879 10.0399 234.353 11.2799 234.353C12.6399 234.353 14.2899 235.128 14.2899 237.174C14.2899 238.526 13.7299 239.559 10.7599 242.709H14.6899Z" fill="#C82828"/>
<path d="M22.5997 234.543V235.874L17.8497 243.992H16.2498L21.0698 235.834H15.7598V234.543H22.5997Z" fill="#C82828"/>
<path d="M52.6899 211.103V212.385H45.6899C46.7299 211.352 47.8399 210.229 49.0599 208.798C50.5099 207.109 50.8599 206.404 50.8599 205.609C50.8599 204.675 50.2099 204.039 49.2399 204.039C47.8199 204.039 47.1199 205.291 46.8899 205.669L46.2899 204.248C47.0299 203.274 48.0399 202.748 49.2799 202.748C50.6399 202.748 52.2899 203.523 52.2899 205.569C52.2899 206.921 51.7299 207.954 48.7599 211.103H52.6899Z" fill="#C82828"/>
<path d="M56.9401 202.948H58.2001V212.397H56.76V204.498L54.98 205.71L54.79 204.388L56.9401 202.948Z" fill="#C82828"/>
<path d="M28.1099 282.212H24.8499V281.278H32.3899V282.212H29.0999V284.269H32.9598V285.173H29.0999V287.687C29.3999 287.726 29.7499 287.746 30.0699 287.746H34.3199L34.1299 288.7H29.8499C26.9999 288.7 25.8299 287.031 25.3799 286.385C24.8499 287.498 24.4198 288.173 23.5798 288.909L22.9199 288.064C24.1799 286.971 25.0099 285.143 25.3499 283.086L26.3298 283.225C26.1998 284.13 26.0399 284.676 25.7799 285.431C26.2999 286.335 27.0999 287.12 28.1099 287.458V282.202V282.212ZM29.1299 277.91V278.943H33.9598V281.596H32.9598V279.867H24.2699V281.596H23.2899V278.943H28.0898V277.91H29.1299Z" fill="#C82828"/>
<path d="M37.4698 288.988H36.4698V282.659C35.9498 283.424 35.6999 283.682 35.3999 283.981L34.8999 282.858C36.3399 281.358 37.0799 279.341 37.3699 277.91L38.3799 278.089C38.1899 278.993 37.9498 279.758 37.4698 280.801V288.978V288.988ZM37.8099 286.286C39.3899 284.915 40.5898 283.166 41.3398 281.209H38.2V280.255H41.6299V277.92H42.6499V280.255H46.1599V281.209H42.9099C43.3399 282.58 44.3899 284.557 46.3799 286.266L45.7299 287.259C44.3499 286.007 43.3099 284.438 42.6499 282.709V288.998H41.6299V282.649C40.8899 284.448 39.8999 285.938 38.5099 287.239L37.8099 286.296V286.286Z" fill="#C82828"/>
<path d="M56.9996 278.49V288.714H47.8896V278.49H56.9996ZM48.9297 283.06H55.9497V279.464H48.9297V283.06ZM48.9297 284.014V287.77H55.9497V284.014H48.9297Z" fill="#C82828"/>
</g>
<path d="M2.27983 58V56.9134L6.3608 52.446C6.83973 51.9228 7.23414 51.468 7.54403 51.0817C7.85393 50.6913 8.08333 50.325 8.23224 49.983C8.38518 49.6368 8.46165 49.2746 8.46165 48.8963C8.46165 48.4616 8.35701 48.0853 8.14773 47.7674C7.94247 47.4495 7.66075 47.204 7.30256 47.0309C6.94437 46.8578 6.5419 46.7713 6.09517 46.7713C5.62027 46.7713 5.20573 46.8699 4.85156 47.0671C4.50142 47.2603 4.22976 47.532 4.03658 47.8821C3.84742 48.2322 3.75284 48.6428 3.75284 49.1136H2.32812C2.32812 48.3892 2.49515 47.7533 2.82919 47.206C3.16323 46.6586 3.61802 46.232 4.19354 45.9261C4.77308 45.6203 5.42306 45.4673 6.14347 45.4673C6.8679 45.4673 7.50983 45.6203 8.06925 45.9261C8.62867 46.232 9.06735 46.6445 9.3853 47.1637C9.70324 47.6829 9.86222 48.2604 9.86222 48.8963C9.86222 49.3511 9.77971 49.7958 9.6147 50.2305C9.45372 50.6611 9.17199 51.142 8.76953 51.6733C8.37109 52.2005 7.81771 52.8445 7.10938 53.6051L4.33239 56.5753V56.6719H10.0795V58H2.27983ZM16.6055 58.169C15.6959 58.169 14.9212 57.9215 14.2812 57.4265C13.6413 56.9274 13.1523 56.205 12.8143 55.2592C12.4762 54.3094 12.3072 53.1624 12.3072 51.8182C12.3072 50.482 12.4762 49.341 12.8143 48.3952C13.1564 47.4454 13.6474 46.721 14.2873 46.2219C14.9312 45.7189 15.704 45.4673 16.6055 45.4673C17.507 45.4673 18.2777 45.7189 18.9176 46.2219C19.5616 46.721 20.0526 47.4454 20.3906 48.3952C20.7327 49.341 20.9038 50.482 20.9038 51.8182C20.9038 53.1624 20.7347 54.3094 20.3967 55.2592C20.0586 56.205 19.5696 56.9274 18.9297 57.4265C18.2898 57.9215 17.515 58.169 16.6055 58.169ZM16.6055 56.8409C17.507 56.8409 18.2073 56.4062 18.7063 55.5369C19.2054 54.6676 19.4549 53.428 19.4549 51.8182C19.4549 50.7476 19.3402 49.8361 19.1108 49.0835C18.8854 48.3308 18.5594 47.7573 18.1328 47.3629C17.7102 46.9685 17.2011 46.7713 16.6055 46.7713C15.712 46.7713 15.0137 47.212 14.5107 48.0934C14.0076 48.9708 13.756 50.2124 13.756 51.8182C13.756 52.8887 13.8687 53.7983 14.0941 54.5469C14.3195 55.2955 14.6435 55.8649 15.0661 56.2553C15.4927 56.6457 16.0058 56.8409 16.6055 56.8409ZM23.1978 58V56.9134L27.2788 52.446C27.7577 51.9228 28.1521 51.468 28.462 51.0817C28.7719 50.6913 29.0013 50.325 29.1502 49.983C29.3031 49.6368 29.3796 49.2746 29.3796 48.8963C29.3796 48.4616 29.275 48.0853 29.0657 47.7674C28.8604 47.4495 28.5787 47.204 28.2205 47.0309C27.8623 46.8578 27.4599 46.7713 27.0131 46.7713C26.5382 46.7713 26.1237 46.8699 25.7695 47.0671C25.4194 47.2603 25.1477 47.532 24.9545 47.8821C24.7654 48.2322 24.6708 48.6428 24.6708 49.1136H23.2461C23.2461 48.3892 23.4131 47.7533 23.7472 47.206C24.0812 46.6586 24.536 46.232 25.1115 45.9261C25.6911 45.6203 26.341 45.4673 27.0614 45.4673C27.7859 45.4673 28.4278 45.6203 28.9872 45.9261C29.5466 46.232 29.9853 46.6445 30.3033 47.1637C30.6212 47.6829 30.7802 48.2604 30.7802 48.8963C30.7802 49.3511 30.6977 49.7958 30.5327 50.2305C30.3717 50.6611 30.09 51.142 29.6875 51.6733C29.2891 52.2005 28.7357 52.8445 28.0273 53.6051L25.2504 56.5753V56.6719H30.9975V58H23.1978ZM37.3544 58.169C36.6461 58.169 36.0082 58.0282 35.4407 57.7464C34.8732 57.4647 34.4184 57.0784 34.0763 56.5874C33.7343 56.0964 33.5471 55.5369 33.5149 54.9091H34.9638C35.0201 55.4685 35.2737 55.9313 35.7244 56.2976C36.1792 56.6598 36.7225 56.8409 37.3544 56.8409C37.8615 56.8409 38.3123 56.7222 38.7067 56.4847C39.1051 56.2473 39.417 55.9213 39.6424 55.5067C39.8718 55.0882 39.9865 54.6153 39.9865 54.0881C39.9865 53.5488 39.8678 53.0678 39.6303 52.6452C39.3969 52.2186 39.0749 51.8826 38.6644 51.6371C38.2539 51.3916 37.785 51.2668 37.2578 51.2628C36.8795 51.2588 36.4911 51.3171 36.0927 51.4379C35.6942 51.5546 35.3662 51.7055 35.1087 51.8906L33.7081 51.7216L34.4567 45.6364H40.88V46.9645H35.7124L35.2777 50.6108H35.3501C35.6037 50.4096 35.9216 50.2425 36.304 50.1097C36.6863 49.9769 37.0848 49.9105 37.4993 49.9105C38.2559 49.9105 38.93 50.0916 39.5217 50.4538C40.1173 50.812 40.5842 51.303 40.9222 51.9268C41.2643 52.5507 41.4354 53.263 41.4354 54.0639C41.4354 54.8527 41.2583 55.5571 40.9041 56.1768C40.554 56.7926 40.071 57.2796 39.4553 57.6378C38.8395 57.992 38.1392 58.169 37.3544 58.169ZM47.2627 43.652L48.5547 43.992C48.2374 44.8193 47.8634 45.6297 47.4327 46.423C47.0134 47.205 46.5544 47.936 46.0557 48.616C45.557 49.2847 45.0414 49.874 44.5087 50.384C44.4294 50.316 44.3217 50.231 44.1857 50.129C44.061 50.0157 43.925 49.908 43.7777 49.806C43.6417 49.704 43.517 49.6247 43.4037 49.568C43.9477 49.092 44.4577 48.548 44.9337 47.936C45.421 47.3127 45.863 46.6383 46.2597 45.913C46.6564 45.1763 46.9907 44.4227 47.2627 43.652ZM47.0077 45.777H57.9727V47.001H46.3787L47.0077 45.777ZM46.1747 49.619H57.5817V50.826H47.4497V54.838H46.1747V49.619ZM43.3697 54.209H58.7717V55.433H43.3697V54.209ZM51.2577 46.423H52.5667V59.36H51.2577V46.423ZM61.2199 58L66.7497 47.0611V46.9645H60.3747V45.6364H68.2952V47.0369L62.7895 58H61.2199ZM73.5836 44.621H82.4406V45.862H73.5836V44.621ZM73.5836 48.718H82.5256V49.925H73.5836V48.718ZM73.4476 52.815H82.4406V54.056H73.4476V52.815ZM72.7846 44.621H74.0766V49.857C74.0766 50.5937 74.037 51.3813 73.9576 52.22C73.8896 53.0587 73.7423 53.9087 73.5156 54.77C73.289 55.62 72.949 56.4417 72.4956 57.235C72.0536 58.0283 71.4643 58.7423 70.7276 59.377C70.671 59.2863 70.5803 59.1787 70.4556 59.054C70.3423 58.9293 70.2233 58.8103 70.0986 58.697C69.974 58.595 69.8606 58.5157 69.7586 58.459C70.45 57.847 70.994 57.1897 71.3906 56.487C71.7986 55.773 72.099 55.0363 72.2916 54.277C72.4956 53.5177 72.626 52.764 72.6826 52.016C72.7506 51.2567 72.7846 50.537 72.7846 49.857V44.621ZM81.8796 44.621H83.2226V57.473C83.2226 57.9263 83.1546 58.272 83.0186 58.51C82.8826 58.748 82.656 58.9237 82.3386 59.037C82.01 59.1503 81.551 59.2183 80.9616 59.241C80.3723 59.275 79.6243 59.292 78.7176 59.292C78.695 59.156 78.6496 59.0087 78.5816 58.85C78.525 58.6913 78.457 58.527 78.3776 58.357C78.3096 58.1983 78.2416 58.0623 78.1736 57.949C78.6496 57.9603 79.103 57.9717 79.5336 57.983C79.9756 57.983 80.3553 57.983 80.6726 57.983C81.0013 57.9717 81.228 57.966 81.3526 57.966C81.5566 57.9547 81.6926 57.915 81.7606 57.847C81.84 57.7677 81.8796 57.6373 81.8796 57.456V44.621Z" fill="#617462"/>
<path d="M5.287 7.823V9.778H11.866V7.823H5.287ZM4.08 6.82H13.107V10.764H4.08V6.82ZM7.684 10.288L9.095 10.424C8.93633 10.8433 8.772 11.2627 8.602 11.682C8.44333 12.1013 8.296 12.464 8.16 12.77L7.038 12.583C7.15133 12.2543 7.27033 11.8747 7.395 11.444C7.531 11.002 7.62733 10.6167 7.684 10.288ZM2.89 12.141H14.45V17.36H13.192V13.263H4.114V17.377H2.89V12.141ZM3.536 15.592H13.753V16.714H3.536V15.592ZM1.564 4.406H15.657V7.772H14.416V5.528H2.737V7.772H1.564V4.406ZM13.311 1.856L14.62 2.315C14.28 2.77967 13.9173 3.25567 13.532 3.743C13.1467 4.219 12.784 4.627 12.444 4.967L11.441 4.542C11.645 4.29267 11.8603 4.015 12.087 3.709C12.325 3.403 12.5517 3.08567 12.767 2.757C12.9823 2.42833 13.1637 2.128 13.311 1.856ZM2.584 2.434L3.672 1.958C3.978 2.28667 4.284 2.66067 4.59 3.08C4.896 3.49933 5.117 3.86767 5.253 4.185L4.114 4.729C3.978 4.41167 3.76267 4.03767 3.468 3.607C3.17333 3.165 2.87867 2.774 2.584 2.434ZM6.817 2.094L7.922 1.686C8.194 2.04867 8.46033 2.45667 8.721 2.91C8.98167 3.36333 9.16867 3.75433 9.282 4.083L8.126 4.542C8.024 4.202 7.84833 3.79967 7.599 3.335C7.34967 2.87033 7.089 2.45667 6.817 2.094ZM18.088 12.209H32.98V13.297H18.088V12.209ZM18.139 4.746H32.912V5.834H18.139V4.746ZM18.836 7.67H32.3V8.724H18.836V7.67ZM19.686 9.965H31.467V10.951H19.686V9.965ZM24.837 8.163H26.112V17.36H24.837V8.163ZM23.273 1.703H24.48V5.273H23.273V1.703ZM26.503 1.703H27.727V5.205H26.503V1.703ZM24.429 12.651L25.449 13.127C24.9277 13.705 24.2817 14.2547 23.511 14.776C22.7403 15.286 21.9187 15.7337 21.046 16.119C20.1733 16.5157 19.312 16.833 18.462 17.071C18.4053 16.9577 18.326 16.833 18.224 16.697C18.1333 16.5723 18.037 16.442 17.935 16.306C17.833 16.1813 17.731 16.0793 17.629 16C18.4677 15.8073 19.3177 15.541 20.179 15.201C21.0403 14.861 21.845 14.47 22.593 14.028C23.341 13.586 23.953 13.127 24.429 12.651ZM26.503 12.617C26.8657 12.991 27.302 13.3537 27.812 13.705C28.3333 14.0563 28.9 14.3793 29.512 14.674C30.1353 14.9687 30.7757 15.2293 31.433 15.456C32.0903 15.6713 32.742 15.8527 33.388 16C33.2973 16.0907 33.1953 16.1983 33.082 16.323C32.98 16.459 32.878 16.595 32.776 16.731C32.674 16.8783 32.5947 17.0087 32.538 17.122C31.892 16.9407 31.2347 16.714 30.566 16.442C29.9087 16.17 29.2683 15.8583 28.645 15.507C28.033 15.1557 27.455 14.7703 26.911 14.351C26.3783 13.9317 25.9137 13.4953 25.517 13.042L26.503 12.617ZM30.447 1.924L31.756 2.281C31.5067 2.73433 31.2403 3.199 30.957 3.675C30.6737 4.13967 30.413 4.542 30.175 4.882L29.138 4.525C29.2967 4.287 29.4553 4.015 29.614 3.709C29.784 3.403 29.9427 3.09133 30.09 2.774C30.2373 2.45667 30.3563 2.17333 30.447 1.924ZM28.169 5.511L29.478 5.851C29.274 6.225 29.0643 6.599 28.849 6.973C28.6337 7.33567 28.4297 7.65867 28.237 7.942L27.183 7.619C27.353 7.313 27.5287 6.96167 27.71 6.565C27.9027 6.16833 28.0557 5.817 28.169 5.511ZM19.516 2.264L20.604 1.89C20.8987 2.264 21.182 2.689 21.454 3.165C21.7373 3.641 21.9413 4.05467 22.066 4.406L20.91 4.848C20.7967 4.49667 20.604 4.07733 20.332 3.59C20.0713 3.10267 19.7993 2.66067 19.516 2.264ZM21.743 5.953L22.95 5.732C23.1427 6.004 23.324 6.31567 23.494 6.667C23.6753 7.007 23.8 7.30733 23.868 7.568L22.61 7.823C22.542 7.57367 22.423 7.27333 22.253 6.922C22.0943 6.55933 21.9243 6.23633 21.743 5.953ZM36.992 2.876H48.144V17.088H46.784V4.151H38.301V17.173H36.992V2.876ZM37.876 8.758H47.362V10.016H37.876V8.758ZM37.842 14.793H47.379V16.068H37.842V14.793ZM59.636 2.621C59.6133 2.81367 59.5907 3.046 59.568 3.318C59.5567 3.57867 59.5453 3.811 59.534 4.015C59.4887 5.749 59.3357 7.26767 59.075 8.571C58.8143 9.863 58.4517 10.9963 57.987 11.971C57.5337 12.9343 56.9783 13.7787 56.321 14.504C55.675 15.2293 54.9327 15.881 54.094 16.459L52.853 15.456C53.125 15.3087 53.4197 15.1217 53.737 14.895C54.0543 14.6683 54.3433 14.436 54.604 14.198C55.1367 13.722 55.6127 13.1723 56.032 12.549C56.4627 11.9257 56.831 11.2117 57.137 10.407C57.4543 9.60233 57.698 8.67867 57.868 7.636C58.0493 6.582 58.1457 5.38067 58.157 4.032C58.157 3.90733 58.1513 3.76 58.14 3.59C58.1287 3.42 58.1117 3.25 58.089 3.08C58.0777 2.91 58.0607 2.757 58.038 2.621H59.636ZM65.535 6.157C65.5123 6.30433 65.4897 6.45167 65.467 6.599C65.4557 6.74633 65.45 6.87667 65.45 6.99C65.4387 7.30733 65.416 7.74367 65.382 8.299C65.3593 8.85433 65.3197 9.46067 65.263 10.118C65.2177 10.764 65.1553 11.4157 65.076 12.073C65.008 12.7303 64.9173 13.3367 64.804 13.892C64.6907 14.436 64.5603 14.8723 64.413 15.201C64.243 15.5523 64.0107 15.813 63.716 15.983C63.4327 16.153 63.0587 16.238 62.594 16.238C62.1633 16.238 61.71 16.221 61.234 16.187C60.758 16.1643 60.299 16.1417 59.857 16.119L59.687 14.708C60.1517 14.7647 60.5993 14.81 61.03 14.844C61.472 14.878 61.8687 14.895 62.22 14.895C62.4693 14.895 62.6733 14.8553 62.832 14.776C62.9907 14.6967 63.1153 14.5493 63.206 14.334C63.342 14.0733 63.4553 13.7163 63.546 13.263C63.6367 12.8097 63.716 12.2997 63.784 11.733C63.852 11.1663 63.9087 10.594 63.954 10.016C63.9993 9.438 64.0277 8.88833 64.039 8.367C64.0617 7.84567 64.073 7.40367 64.073 7.041H55.114C54.774 7.041 54.4397 7.04667 54.111 7.058C53.7823 7.058 53.465 7.075 53.159 7.109V5.664C53.4537 5.698 53.771 5.72633 54.111 5.749C54.451 5.76033 54.7797 5.766 55.097 5.766H63.495C63.7217 5.766 63.92 5.76033 64.09 5.749C64.2713 5.72633 64.4357 5.70367 64.583 5.681L65.535 6.157ZM71.774 15.456C71.842 15.32 71.8873 15.1897 71.91 15.065C71.9327 14.9403 71.944 14.793 71.944 14.623C71.944 14.453 71.944 14.1357 71.944 13.671C71.944 13.2063 71.944 12.651 71.944 12.005C71.944 11.359 71.944 10.6847 71.944 9.982C71.944 9.268 71.944 8.57667 71.944 7.908C71.944 7.228 71.944 6.62733 71.944 6.106C71.944 5.57333 71.944 5.171 71.944 4.899C71.944 4.75167 71.9327 4.576 71.91 4.372C71.8987 4.168 71.8817 3.97533 71.859 3.794C71.8477 3.61267 71.825 3.46533 71.791 3.352H73.474C73.44 3.556 73.4117 3.80533 73.389 4.1C73.3663 4.38333 73.355 4.64967 73.355 4.899C73.355 5.12567 73.355 5.45433 73.355 5.885C73.355 6.31567 73.355 6.80867 73.355 7.364C73.355 7.908 73.355 8.486 73.355 9.098C73.355 9.71 73.355 10.3107 73.355 10.9C73.355 11.4893 73.355 12.039 73.355 12.549C73.355 13.0477 73.355 13.4727 73.355 13.824C73.355 14.1753 73.355 14.4133 73.355 14.538C74.171 14.334 75.0097 14.045 75.871 13.671C76.7437 13.297 77.5937 12.8607 78.421 12.362C79.2597 11.852 80.0417 11.2967 80.767 10.696C81.5037 10.084 82.1327 9.43233 82.654 8.741L83.419 9.931C82.3197 11.3023 80.9143 12.5037 79.203 13.535C77.503 14.5663 75.5933 15.388 73.474 16C73.3833 16.0227 73.2757 16.0567 73.151 16.102C73.0263 16.1587 72.896 16.2267 72.76 16.306L71.774 15.456ZM88.859 3.539C89.165 3.743 89.5163 3.998 89.913 4.304C90.3097 4.59867 90.712 4.916 91.12 5.256C91.5393 5.58467 91.9303 5.90767 92.293 6.225C92.6557 6.54233 92.956 6.82 93.194 7.058L92.123 8.129C91.9077 7.91367 91.63 7.64733 91.29 7.33C90.95 7.01267 90.576 6.684 90.168 6.344C89.76 5.99267 89.3577 5.664 88.961 5.358C88.5643 5.04067 88.2073 4.78 87.89 4.576L88.859 3.539ZM87.397 14.929C88.3943 14.7817 89.301 14.5777 90.117 14.317C90.9443 14.0563 91.698 13.7617 92.378 13.433C93.058 13.1043 93.6643 12.7757 94.197 12.447C95.0697 11.903 95.8743 11.2797 96.611 10.577C97.3477 9.863 97.9937 9.12633 98.549 8.367C99.1043 7.60767 99.5463 6.88233 99.875 6.191L100.691 7.636C100.306 8.33867 99.8297 9.05267 99.263 9.778C98.6963 10.5033 98.056 11.2003 97.342 11.869C96.628 12.5377 95.8403 13.144 94.979 13.688C94.4123 14.0393 93.789 14.385 93.109 14.725C92.4403 15.065 91.7037 15.3767 90.899 15.66C90.1057 15.932 89.2387 16.153 88.298 16.323L87.397 14.929ZM115.005 2.298C115.152 2.49067 115.311 2.72867 115.481 3.012C115.651 3.284 115.815 3.56167 115.974 3.845C116.133 4.12833 116.274 4.389 116.399 4.627L115.481 5.035C115.311 4.695 115.096 4.29833 114.835 3.845C114.574 3.39167 114.331 3.00633 114.104 2.689L115.005 2.298ZM116.875 1.618C117.022 1.822 117.181 2.06567 117.351 2.349C117.532 2.63233 117.708 2.91567 117.878 3.199C118.048 3.471 118.19 3.71467 118.303 3.93L117.385 4.338C117.204 3.964 116.983 3.56167 116.722 3.131C116.461 2.689 116.212 2.30933 115.974 1.992L116.875 1.618ZM108.511 8.605C109.066 8.92233 109.639 9.27367 110.228 9.659C110.829 10.0443 111.429 10.4467 112.03 10.866C112.631 11.2853 113.197 11.6933 113.73 12.09C114.274 12.4867 114.756 12.855 115.175 13.195L114.172 14.368C113.787 14.0167 113.328 13.6313 112.795 13.212C112.262 12.7813 111.69 12.3507 111.078 11.92C110.477 11.478 109.877 11.0587 109.276 10.662C108.675 10.254 108.114 9.88567 107.593 9.557L108.511 8.605ZM116.297 5.511C116.218 5.62433 116.144 5.77167 116.076 5.953C116.008 6.123 115.951 6.276 115.906 6.412C115.736 6.99 115.504 7.61333 115.209 8.282C114.926 8.95067 114.58 9.625 114.172 10.305C113.775 10.985 113.328 11.631 112.829 12.243C112.058 13.195 111.101 14.1017 109.956 14.963C108.823 15.8243 107.451 16.5553 105.842 17.156L104.618 16.085C105.683 15.7677 106.647 15.3653 107.508 14.878C108.369 14.3907 109.146 13.858 109.837 13.28C110.528 12.702 111.129 12.1127 111.639 11.512C112.081 10.9793 112.483 10.407 112.846 9.795C113.22 9.17167 113.543 8.54833 113.815 7.925C114.087 7.30167 114.285 6.72933 114.41 6.208H108.103L108.664 4.984H114.053C114.28 4.984 114.489 4.97267 114.682 4.95C114.875 4.916 115.039 4.87633 115.175 4.831L116.297 5.511ZM110.568 3.046C110.421 3.27267 110.279 3.51633 110.143 3.777C110.007 4.02633 109.894 4.23033 109.803 4.389C109.463 5.001 109.027 5.681 108.494 6.429C107.961 7.177 107.332 7.91933 106.607 8.656C105.882 9.39267 105.066 10.0727 104.159 10.696L103.02 9.829C103.995 9.217 104.839 8.554 105.553 7.84C106.278 7.11467 106.879 6.40633 107.355 5.715C107.842 5.02367 108.216 4.41733 108.477 3.896C108.568 3.74867 108.67 3.54467 108.783 3.284C108.896 3.02333 108.976 2.77967 109.021 2.553L110.568 3.046ZM120.734 8.639C120.904 8.65033 121.114 8.66733 121.363 8.69C121.612 8.70133 121.884 8.71267 122.179 8.724C122.485 8.724 122.791 8.724 123.097 8.724C123.278 8.724 123.556 8.724 123.93 8.724C124.315 8.724 124.763 8.724 125.273 8.724C125.783 8.724 126.321 8.724 126.888 8.724C127.466 8.724 128.038 8.724 128.605 8.724C129.183 8.724 129.727 8.724 130.237 8.724C130.758 8.724 131.206 8.724 131.58 8.724C131.954 8.724 132.232 8.724 132.413 8.724C132.844 8.724 133.212 8.71267 133.518 8.69C133.824 8.66733 134.068 8.65033 134.249 8.639V10.305C134.079 10.2937 133.824 10.2767 133.484 10.254C133.155 10.2313 132.804 10.22 132.43 10.22C132.249 10.22 131.965 10.22 131.58 10.22C131.195 10.22 130.747 10.22 130.237 10.22C129.738 10.22 129.2 10.22 128.622 10.22C128.044 10.22 127.466 10.22 126.888 10.22C126.321 10.22 125.783 10.22 125.273 10.22C124.774 10.22 124.332 10.22 123.947 10.22C123.562 10.22 123.278 10.22 123.097 10.22C122.632 10.22 122.19 10.2313 121.771 10.254C121.352 10.2653 121.006 10.2823 120.734 10.305V8.639Z" fill="#617462"/>
</g>
<defs>
<clipPath id="clip0_88_8087">
<rect width="253" height="297" fill="white"/>
</clipPath>
<clipPath id="clip1_88_8087">
<rect width="247" height="215" fill="white" transform="translate(4 76)"/>
</clipPath>
</defs>
</svg>
