<svg width="394" height="559" viewBox="0 0 394 559" fill="none" xmlns="http://www.w3.org/2000/svg">
<path d="M392.31 3.45996H2.71997V556.77H392.31V3.45996Z" fill="white"/>
<path d="M391.81 3.95996V556.27H3.21997V3.95996H391.81ZM392.81 2.95996H2.21997V557.27H392.81V2.95996Z" fill="#99A893"/>
<path d="M324.45 185.16V180.01H324.43L323.49 180.55L323.34 180.07L324.53 179.4H325.07V185.15H324.45V185.16Z" fill="#617462"/>
<path d="M327.17 179.41H330.54V179.82L328.14 185.16H327.49L329.89 179.96V179.94H327.17V179.41Z" fill="#617462"/>
<path d="M331.23 182.3C331.23 180.29 332.01 179.31 333.09 179.31C334.17 179.31 334.85 180.34 334.85 182.22C334.85 184.22 334.15 185.24 333.01 185.24C331.97 185.24 331.24 184.21 331.24 182.29L331.23 182.3ZM334.2 182.26C334.2 180.83 333.85 179.84 333.05 179.84C332.37 179.84 331.88 180.75 331.88 182.26C331.88 183.77 332.3 184.73 333.02 184.73C333.87 184.73 334.19 183.62 334.19 182.26H334.2Z" fill="#617462"/>
<path d="M338.61 185.01C338.43 185.1 338.01 185.25 337.47 185.25C336.27 185.25 335.48 184.4 335.48 183.12C335.48 181.84 336.33 180.89 337.62 180.89C338.09 180.89 338.46 181.03 338.63 181.11L338.47 181.62C338.29 181.52 338.02 181.41 337.61 181.41C336.64 181.41 336.14 182.18 336.14 183.08C336.14 184.09 336.75 184.73 337.59 184.73C338.01 184.73 338.29 184.61 338.5 184.52L338.62 185.01H338.61Z" fill="#617462"/>
<path d="M345.19 185.16H344.56V182.74C344.56 181.93 344.27 181.41 343.64 181.41C343.13 181.41 342.66 181.89 342.66 182.53V185.16H342.03V182.58C342.03 181.91 341.75 181.41 341.15 181.41C340.61 181.41 340.12 181.95 340.12 182.6V185.16H339.49V182.05C339.49 181.62 339.47 181.31 339.46 180.97H340.02L340.06 181.64H340.08C340.31 181.23 340.69 180.87 341.35 180.87C341.89 180.87 342.32 181.21 342.49 181.71H342.5C342.78 181.21 343.2 180.87 343.84 180.87C344.35 180.87 345.17 181.2 345.17 182.64V185.16H345.19Z" fill="#617462"/>
<path d="M307.08 182.34V423.46" stroke="#899284" stroke-width="0.96" stroke-miterlimit="10"/>
<path d="M243.91 182.34H318.57" stroke="#899284" stroke-width="0.96" stroke-miterlimit="10"/>
<path d="M302.34 423.46H318.57" stroke="#899284" stroke-width="0.96" stroke-miterlimit="10"/>
<path d="M223.07 62.79H101.87V63.6997H223.07V62.79Z" fill="white"/>
<path d="M222.82 63.0498V63.4399H102.13V63.0498H222.82ZM223.33 62.5298H101.61V63.9497H223.33V62.5298Z" fill="#96BBA0"/>
<path d="M114.48 60.8799H111.8V423.2H114.48V60.8799Z" fill="white"/>
<path d="M114.23 61.1396V422.95H112.06V61.1396H114.23ZM114.74 60.6299H111.55V423.46H114.74V60.6299Z" fill="#96BBA0"/>
<path d="M208.14 68.0698H121.06V329.31H208.14V68.0698Z" fill="#96BBA0"/>
<path d="M125.07 61.6997H121.32V71.2197H125.07V61.6997Z" fill="white"/>
<path d="M124.81 61.9497V70.96H121.57V61.9497H124.81ZM125.33 61.4399H121.07V71.48H125.33V61.4399Z" fill="#96BBA0"/>
<path d="M125.07 68.3198H110.56V72.0698H125.07V68.3198Z" fill="white"/>
<path d="M124.81 68.5801V71.8198H110.81V68.5801H124.81ZM125.33 68.0698H110.31V72.3301H125.33V68.0698Z" fill="#96BBA0"/>
<path d="M125.07 132.57H110.56V136.32H125.07V132.57Z" fill="white"/>
<path d="M124.81 132.82V136.06H110.81V132.82H124.81ZM125.33 132.31H110.31V136.57H125.33V132.31Z" fill="#96BBA0"/>
<path d="M125.07 196.81H110.56V200.56H125.07V196.81Z" fill="white"/>
<path d="M124.81 197.07V200.31H110.81V197.07H124.81ZM125.33 196.55H110.31V200.81H125.33V196.55Z" fill="#96BBA0"/>
<path d="M125.07 261.05H110.56V264.8H125.07V261.05Z" fill="white"/>
<path d="M124.81 261.31V264.55H110.81V261.31H124.81ZM125.33 260.8H110.31V265.06H125.33V260.8Z" fill="#96BBA0"/>
<path d="M125.07 325.3H110.56V329.05H125.07V325.3Z" fill="white"/>
<path d="M124.81 325.55V328.79H110.81V325.55H124.81ZM125.33 325.04H110.31V329.3H125.33V325.04Z" fill="#96BBA0"/>
<path d="M166.48 61.6997H162.73V71.2197H166.48V61.6997Z" fill="white"/>
<path d="M166.22 61.9497V70.96H162.98V61.9497H166.22ZM166.73 61.4399H162.47V71.48H166.73V61.4399Z" fill="#96BBA0"/>
<path d="M207.88 61.6997H204.13V71.2197H207.88V61.6997Z" fill="white"/>
<path d="M207.63 61.9497V70.96H204.39V61.9497H207.63ZM208.14 61.4399H203.88V71.48H208.14V61.4399Z" fill="#96BBA0"/>
<path d="M293.87 339.31C294.22 339.81 294.39 340.37 294.35 340.99C294.3 341.95 293.65 342.77 292.7 342.93C292.44 342.98 292.06 342.8 291.86 342.61C291.82 342.57 291.79 342.52 291.77 342.46C291.7 342.28 291.69 342.03 291.75 341.87C291.88 341.53 292.16 341.25 292.44 340.87C292.22 340.08 291.72 339.56 291.28 339.03C288.12 335.13 284.94 331.23 281.76 327.34C281.18 326.63 280.54 325.97 279.95 325.27C279.68 324.94 279.43 324.58 279.23 324.21C279.08 323.92 279.18 323.49 279.4 323.24C279.96 323.53 280.39 323.99 280.17 324.7C280.05 325.08 280.64 325.24 280.75 324.86C281 324.03 280.65 323.39 280.06 322.95C280.28 322.95 280.51 322.99 280.67 323.11C280.84 323.24 280.98 323.41 281.12 323.57C282.94 325.78 284.75 328 286.58 330.21C288.4 332.42 290.23 334.62 292.04 336.84C292.69 337.63 293.28 338.47 293.88 339.31H293.87Z" fill="#617462"/>
<path d="M291.27 339.02C291.71 339.56 292.2 340.07 292.43 340.86C292.16 341.24 291.88 341.52 291.74 341.86C291.68 342.02 291.69 342.27 291.76 342.45L290.43 342.92C290.33 342.92 290.23 342.94 290.13 342.98C289.88 343.09 289.65 343.23 289.42 343.37C288.5 343.93 287.6 344.54 286.65 345.05C282.89 347.07 279.13 349.09 275.34 351.05C269.49 354.08 263.57 356.98 257.48 359.49C256.58 359.86 255.67 360.2 254.75 360.5C254.41 360.61 254.03 360.58 253.65 360.61C253.02 359.56 252.76 358.45 252.4 357.38C251.21 353.78 250.53 350.06 249.79 346.35C249.33 344.07 249.13 341.75 249.09 339.42C249.08 338.62 249.02 337.83 249.63 337.13C250 336.7 249.56 335.97 248.97 335.98C248.85 335.98 248.72 336 248.6 336.04C249.08 335.52 249.62 335.03 250.22 334.65C250.22 334.68 250.23 334.71 250.24 334.74C250.33 335.06 250.61 335.3 250.97 335.27C251.28 335.24 251.59 335.12 251.89 334.99C252.57 334.71 253.23 334.41 253.95 334.1C254.05 334.48 254.12 334.74 254.18 335C254.25 335.26 254.3 335.53 254.39 335.78C254.59 336.37 254.99 336.65 255.46 336.55C255.93 336.45 256.18 336.01 256.09 335.41C256.05 335.14 255.97 334.88 255.93 334.62C255.84 334.15 255.76 333.68 255.68 333.23C255.87 333.08 255.98 332.95 256.12 332.88C257.36 332.23 258.58 331.51 259.86 330.95C263.98 329.18 268.12 327.47 272.25 325.74C272.55 325.62 272.86 325.53 273.17 325.43C273.22 325.41 273.28 325.41 273.32 325.43C273.37 325.45 273.41 325.48 273.54 325.57C273.72 325.92 273.93 326.36 274.17 326.78C274.33 327.06 274.51 327.33 274.73 327.56C275 327.85 275.46 327.88 275.77 327.67C276.11 327.45 276.31 327.12 276.25 326.71C276.21 326.45 276.09 326.19 275.98 325.95C275.81 325.56 275.61 325.17 275.39 324.7C275.77 324.53 276.09 324.35 276.43 324.24C276.99 324.06 277.58 323.95 278.14 323.76C278.53 323.63 278.76 323.32 278.8 322.98C278.99 323.04 279.19 323.11 279.38 323.2C279.16 323.45 279.05 323.88 279.21 324.17C279.41 324.54 279.66 324.9 279.93 325.23C280.52 325.93 281.16 326.59 281.74 327.3C284.92 331.19 288.09 335.09 291.26 338.99L291.27 339.02Z" fill="#DBDBDB"/>
<path d="M291.13 343.29C291.35 343.58 291.38 343.9 291.18 344.19C291 344.45 290.79 344.72 290.54 344.91C289.84 345.42 289.15 345.94 288.39 346.35C284.72 348.31 281.04 350.25 277.35 352.15C272.93 354.41 268.48 356.62 264.04 358.86C263.86 358.95 263.68 359.08 263.53 359.17C265.93 364.53 268.36 369.83 270.69 375.17C273.07 380.62 275.58 386 278.17 391.35C278.38 391.79 278.59 392.23 278.71 392.7C278.74 392.79 278.75 392.89 278.75 392.98C278.63 392.92 278.49 392.89 278.33 392.93C277.93 393.02 278.02 393.63 277.58 393.67C277.43 393.69 277.33 393.79 277.3 393.9C277.08 393.8 276.9 393.63 276.78 393.39C276.47 392.76 276.25 392.09 275.95 391.45C274.59 388.57 273.25 385.67 271.83 382.82C269.17 377.5 266.78 372.06 264.44 366.6C263.78 365.06 263.04 363.56 262.35 362.03C262.08 361.44 261.85 360.85 261.55 360.15C261.27 360.24 260.93 360.31 260.6 360.45C259.3 360.98 258.02 361.56 256.72 362.07C255.97 362.36 255.18 362.59 254.4 362.76C253.12 363.03 252.19 362.55 251.62 361.35C251.41 360.91 251.28 360.44 251.13 359.98C249.97 356.43 249.21 352.78 248.54 349.12C247.95 345.92 247.59 342.71 247.35 339.47C247.3 338.88 247.3 338.28 247.35 337.69C247.39 337.26 247.52 336.85 247.81 336.53C247.92 336.63 248.08 336.66 248.2 336.51C248.33 336.36 248.46 336.21 248.59 336.05C248.71 336.02 248.84 336 248.96 335.99C249.54 335.99 249.99 336.71 249.62 337.14C249.02 337.84 249.07 338.63 249.08 339.43C249.12 341.76 249.32 344.08 249.78 346.36C250.53 350.06 251.2 353.79 252.39 357.39C252.74 358.46 253.01 359.57 253.64 360.62C254.02 360.59 254.4 360.62 254.74 360.51C255.66 360.21 256.58 359.87 257.47 359.5C263.57 356.98 269.48 354.08 275.33 351.06C279.12 349.1 282.88 347.08 286.64 345.06C287.59 344.55 288.49 343.94 289.41 343.38C289.64 343.24 289.87 343.1 290.12 342.99C290.21 342.95 290.32 342.93 290.42 342.93C290.68 342.93 290.95 343.06 291.12 343.29H291.13Z" fill="#617462"/>
<path d="M281.96 415.36C282.17 416.29 281.93 417.08 281.1 417.62C280.46 418.03 279.84 418.46 279.18 418.82C274.47 421.36 269.77 423.9 265.04 426.4C262.99 427.49 260.83 428.35 258.56 428.91C258.14 429.01 257.7 429.1 257.29 429.06C256.09 428.93 255.6 427.75 256.31 426.78C256.5 426.52 256.74 426.29 256.97 426.06C259.31 423.65 261.55 421.17 263.59 418.5C264.64 417.13 265.78 415.82 266.89 414.5C267.31 414 267.78 413.56 268.45 413.4C268.52 413.38 268.6 413.38 268.67 413.37C268.54 413.5 268.4 413.62 268.26 413.72C267.94 413.94 268.24 414.46 268.56 414.24C268.84 414.05 269.09 413.82 269.31 413.55C269.42 413.62 269.51 413.72 269.57 413.83C269.76 414.2 269.62 414.65 269.21 414.96C267.76 416.07 265.9 418.18 265.03 419.73C265.71 419.98 266.24 419.79 266.74 419.63C270.77 418.4 274.43 416.48 277.62 413.72C277.87 413.51 278.15 413.34 278.43 413.15C278.16 412.75 278.02 412.52 277.87 412.31C277.75 412.13 277.59 411.98 277.48 411.79C277.28 411.46 277.27 411.12 277.43 410.84C277.75 411.26 278.08 411.68 278.44 412.07C278.7 412.36 279.13 411.93 278.87 411.64C278.52 411.25 278.19 410.85 277.88 410.43C278.16 410.31 278.48 410.38 278.77 410.67C279.34 411.24 279.88 411.83 280.73 411.97C280.8 412.87 281.11 413.54 281.54 414.17C281.77 414.52 281.89 414.96 281.98 415.37L281.96 415.36ZM280.2 415.9C280.09 415.34 279.98 414.84 279.43 414.53C279.18 414.73 278.97 414.89 278.77 415.06C275.61 417.75 272.01 419.66 268.1 421C266.6 421.52 265.11 421.88 263.55 421.41C262.05 423.12 260.58 424.78 259.13 426.45C259.07 426.52 259.08 426.64 259.04 426.83C259.33 426.78 259.6 426.77 259.83 426.67C261.18 426.13 262.55 425.64 263.86 425C265.89 424.01 267.89 422.94 269.88 421.87C272.59 420.41 275.28 418.93 277.96 417.44C278.75 417 279.58 416.59 280.2 415.89V415.9Z" fill="#617462"/>
<path d="M280.06 322.94C280.65 323.37 281 324.01 280.75 324.85C280.64 325.22 280.05 325.06 280.17 324.69C280.39 323.98 279.96 323.51 279.4 323.23C279.42 323.21 279.44 323.18 279.47 323.16C279.62 323.03 279.84 322.95 280.07 322.94H280.06Z" fill="#617462"/>
<path d="M279.43 414.53C279.98 414.84 280.09 415.35 280.2 415.9C279.57 416.61 278.75 417.02 277.96 417.45C275.28 418.94 272.58 420.43 269.88 421.88C267.89 422.95 265.89 424.02 263.86 425.01C262.56 425.64 261.18 426.14 259.83 426.68C259.6 426.77 259.33 426.78 259.04 426.84C259.08 426.65 259.07 426.52 259.13 426.46C260.58 424.79 262.05 423.13 263.55 421.42C265.1 421.89 266.6 421.52 268.1 421.01C272.01 419.67 275.61 417.76 278.77 415.07C278.97 414.9 279.18 414.74 279.43 414.54V414.53Z" fill="#DBDBDB"/>
<path d="M280.06 322.94C279.83 322.94 279.6 323.02 279.46 323.16C279.44 323.18 279.41 323.2 279.39 323.23C279.2 323.14 279 323.06 278.81 323.01C278.83 322.89 278.81 322.76 278.78 322.64C278.75 322.54 278.71 322.45 278.66 322.36C278.68 322.36 278.69 322.36 278.71 322.36C279.18 322.46 279.67 322.66 280.05 322.95L280.06 322.94Z" fill="#617462"/>
<path d="M279.17 393.3C279.29 393.41 279.29 393.62 279.17 393.73C278.23 394.65 277.21 395.44 276.15 396.19C276.13 396.1 276.08 396.01 276.02 395.93C275.95 395.85 275.86 395.78 275.76 395.73C276.42 395.27 277.07 394.79 277.69 394.26C277.66 394.26 277.63 394.27 277.6 394.28C277.36 394.3 277.27 394.09 277.32 393.91C277.59 394.04 277.9 394.05 278.17 393.93C278.54 393.76 278.77 393.41 278.76 392.99C278.91 393.06 279.05 393.19 279.18 393.31L279.17 393.3Z" fill="#F7DDC0"/>
<path d="M278.85 411.63C279.11 411.92 278.68 412.35 278.42 412.06C278.06 411.66 277.73 411.25 277.41 410.83C277.46 410.75 277.51 410.67 277.59 410.6C277.68 410.52 277.76 410.46 277.86 410.42C278.17 410.84 278.5 411.25 278.85 411.63Z" fill="#617462"/>
<path d="M278.78 322.63C278.81 322.75 278.82 322.88 278.81 323C278.72 322.98 278.64 322.95 278.55 322.94C278.19 322.86 278.32 322.33 278.66 322.35C278.71 322.44 278.75 322.53 278.78 322.63Z" fill="#617462"/>
<path d="M278.76 392.98C278.77 393.4 278.54 393.75 278.17 393.92C277.9 394.04 277.59 394.03 277.32 393.9C277.35 393.78 277.44 393.68 277.6 393.67C278.04 393.62 277.95 393.02 278.35 392.93C278.5 392.89 278.64 392.93 278.77 392.98H278.76Z" fill="#617462"/>
<path d="M278.55 322.94C278.63 322.96 278.72 322.98 278.81 323C278.77 323.35 278.54 323.65 278.15 323.78C277.59 323.97 277 324.08 276.44 324.26C276.1 324.37 275.78 324.55 275.4 324.72C275.62 325.19 275.82 325.58 275.99 325.97C276.1 326.22 276.22 326.47 276.26 326.73C276.32 327.14 276.12 327.46 275.78 327.69C275.46 327.9 275.01 327.87 274.74 327.58C274.52 327.35 274.34 327.07 274.18 326.8C273.94 326.38 273.73 325.94 273.55 325.59C273.42 325.51 273.38 325.47 273.33 325.45C273.28 325.44 273.22 325.45 273.18 325.45C272.87 325.55 272.56 325.64 272.26 325.76C268.13 327.49 263.99 329.2 259.87 330.97C258.58 331.52 257.37 332.24 256.13 332.9C255.99 332.97 255.88 333.1 255.69 333.25C255.77 333.7 255.85 334.17 255.94 334.64C255.99 334.9 256.06 335.17 256.1 335.43C256.19 336.03 255.94 336.47 255.47 336.57C255 336.67 254.6 336.39 254.4 335.8C254.31 335.55 254.26 335.28 254.19 335.02C254.12 334.76 254.06 334.5 253.96 334.12C253.24 334.43 252.58 334.74 251.9 335.01C251.61 335.13 251.3 335.25 250.98 335.29C250.62 335.33 250.34 335.08 250.25 334.76C250.25 334.73 250.24 334.7 250.23 334.67C250.93 334.21 251.71 333.91 252.55 333.88C252.94 333.86 252.94 333.26 252.55 333.27C251.89 333.29 251.27 333.46 250.69 333.73C250.87 333.6 251.08 333.49 251.29 333.4C251.99 333.06 252.71 332.74 253.47 332.41C253.47 332.42 253.47 332.43 253.47 332.45C253.56 332.83 254.15 332.67 254.05 332.29C253.91 331.72 253.73 331.16 253.54 330.61C253.29 328.7 253.36 326.77 253.33 324.85C253.29 321.76 253.38 318.68 254 315.65C254.05 315.43 254.09 315.21 254.15 314.99C254.19 314.99 254.23 314.97 254.26 314.97C254.49 314.91 254.73 314.8 254.97 314.79C255.13 314.79 255.28 314.66 255.27 314.49C255.25 313.98 254.95 313.64 254.56 313.38C254.65 313.04 254.75 312.68 254.85 312.3C254.63 311.75 254.29 310.95 253.98 310.16C253.86 309.86 253.76 309.55 253.7 309.23C253.63 308.9 253.89 308.47 254.16 308.49C254.4 308.51 254.71 308.61 254.85 308.79C255.07 309.09 255.16 309.47 255.31 309.82C256 311.35 256.68 312.88 257.39 314.39C257.58 314.8 257.77 315.28 258.3 315.45C258.66 315.13 258.53 314.73 258.53 314.39C258.53 314.01 258.47 313.64 258.43 313.26C258.35 312.47 258.52 312.19 259.23 311.89C259.69 311.7 260.04 311.88 260.18 312.41C260.24 312.66 260.26 312.91 260.3 313.17C260.88 313.12 260.67 312.65 260.85 312.42C261.01 312.21 261.1 311.94 261.24 311.71C261.5 311.28 261.97 311.24 262.31 311.63C262.45 311.79 262.53 312 262.68 312.16C262.78 312.28 262.93 312.34 263.14 312.47C263.5 311.61 263.49 310.46 264.81 310.39C264.83 310.25 264.89 310.1 264.88 309.95C264.85 309.69 264.82 309.43 264.78 309.18L266.09 308.97C266.16 309.46 266.4 309.85 266.71 310.25C267.59 311.34 268.48 312.44 269.21 313.64C270.69 316.09 272.06 318.61 273.47 321.1C273.76 321.61 274.02 322.14 274.25 322.57C274.81 322.86 275.19 322.59 275.6 322.48C276.33 322.29 277.06 322.1 277.81 322C278.21 321.95 278.5 322.11 278.67 322.39C278.32 322.37 278.19 322.9 278.56 322.98L278.55 322.94ZM272.52 323.53C271.35 320.35 267.79 313.92 266.39 312.43C265.97 312.61 265.53 312.8 265.07 313C265.05 313.27 265.07 313.55 265.01 313.8C264.81 314.72 264.13 315.04 263.33 314.59C262.98 314.39 262.64 314.14 262.33 313.93C262.03 314.4 261.81 314.84 261.5 315.2C261.07 315.69 260.49 315.2 259.99 315.31C259.9 315.65 259.85 315.97 259.72 316.27C259.29 317.25 258.26 317.5 257.47 316.78C257 316.35 256.68 315.77 256.29 315.26C256.14 315.07 255.98 314.88 255.76 314.63C254.83 318.38 254.66 328.22 255.49 331.33C261.04 328.42 266.89 326.23 272.52 323.54V323.53Z" fill="#617462"/>
<path d="M277.85 412.29C278 412.51 278.14 412.73 278.41 413.13C278.13 413.32 277.85 413.49 277.6 413.7C274.41 416.46 270.75 418.38 266.72 419.61C266.22 419.76 265.69 419.96 265.01 419.71C265.88 418.16 267.74 416.06 269.19 414.94C269.6 414.63 269.74 414.18 269.55 413.81C269.49 413.7 269.4 413.6 269.29 413.53C269.66 413.09 269.93 412.57 270.1 412.03C270.26 412.07 270.43 412.05 270.61 411.97C270.98 411.8 271.24 411.41 271.14 411.06C271.04 410.7 270.89 410.35 270.73 410C269.81 407.99 268.88 405.98 267.96 403.97C267.74 403.49 267.39 403.04 267.65 402.39C269.26 401.42 270.92 400.42 272.74 399.32C272.93 399.97 273.07 400.44 273.19 400.9C273.84 403.41 274.47 405.92 275.12 408.43C275.23 408.85 275.36 409.26 275.54 409.65C275.69 409.97 276.18 410.11 276.53 409.98C276.6 409.95 276.67 409.92 276.73 409.88C276.94 410.2 277.16 410.52 277.39 410.82C277.23 411.1 277.24 411.44 277.44 411.77C277.55 411.96 277.71 412.11 277.83 412.29H277.85Z" fill="white"/>
<path d="M277.59 394.27C277.59 394.27 277.65 394.27 277.68 394.25C277.06 394.77 276.41 395.25 275.75 395.72C275.46 395.58 275.06 395.61 274.67 395.84C274.16 396.14 273.67 396.49 273.18 396.82C268.16 400.21 262.93 403.24 257.35 405.61C255.16 406.54 252.91 407.29 250.51 407.49C250.03 407.53 249.54 407.59 249.06 407.67C248.65 407.74 248.37 408.08 248.39 408.44C248.39 408.49 248.39 408.54 248.41 408.59C248.19 408.62 247.96 408.65 247.74 408.67C247.25 407.46 246.36 406.29 246.1 405C246.46 404.86 246.71 404.4 246.6 403.96C246.49 403.49 246.32 403.03 246.13 402.58C245.02 399.94 243.91 397.3 242.79 394.67C239.64 387.26 236.45 379.87 233.35 372.45C231.14 367.17 229.09 361.82 226.68 356.62C226.39 355.99 226.22 355.3 225.96 354.65C225.72 354.06 225.76 353.52 225.96 352.92C226.38 351.69 226.76 350.45 227.09 349.2C228.03 345.65 228.93 342.09 229.86 338.54C230.96 334.32 232.06 330.11 233.17 325.89C234 322.74 234.83 319.59 235.67 316.45C236.33 313.96 236.61 311.35 237.92 309.04C238.24 308.46 237.94 307.82 237.37 307.54C236.9 307.31 236.35 307.49 235.98 308.05C235.21 309.19 234.84 310.47 234.58 311.81C233.93 315.09 233.35 318.4 232.52 321.64C232.2 322.91 231.86 324.19 231.53 325.46C229.21 334.38 226.73 343.25 223.97 352.05C218.99 367.87 213.82 383.62 208.41 399.3C206.79 403.99 205.12 408.68 203.46 413.36C203.32 413.75 203.11 414.12 202.9 414.56C200.55 413.89 198.28 413.22 195.99 412.59C195.4 412.42 194.81 412.25 194.22 412.08C190.1 410.84 186.1 409.29 182.27 407.3C180.45 406.36 178.57 405.54 176.71 404.67C176.6 404.62 176.49 404.57 176.38 404.52C176.4 404.43 176.38 404.33 176.31 404.24C176.19 404.11 176.12 403.94 176.06 403.76C176.4 403.78 176.68 403.58 176.83 403.29C177.08 402.81 177.26 402.3 177.4 401.79C178.5 397.78 179.56 393.76 180.67 389.75C181.99 385.02 183.25 380.26 184.91 375.63C187.15 369.37 189.22 363.06 191.05 356.67C194.07 346.13 197.35 335.67 201.14 325.37C203.48 319.03 205.71 312.66 207.55 306.16C209.51 299.23 212.18 292.56 214.92 285.92C214.94 285.86 214.97 285.8 215 285.74C215.37 284.84 215.81 284 216.72 283.38C218.63 283.38 220.63 283.42 222.63 283.37C224.63 283.32 226.63 283.25 228.62 283.09C230.6 282.94 232.56 282.66 234.61 282.43C234.54 284.06 235.04 285.46 235.71 286.82C236.28 287.99 236.81 289.17 237.38 290.33C240.06 295.7 242.46 301.19 244.5 306.84C246.06 311.16 247.68 315.46 248.7 319.95C248.95 321.05 249.22 322.16 249.51 323.25C249.68 323.91 250.13 324.24 250.59 324.12C251.2 326.99 252.72 329.55 253.43 332.42C252.67 332.76 251.96 333.07 251.25 333.41C251.05 333.51 250.84 333.62 250.65 333.74C249.52 334.26 248.53 335.16 247.75 336.09C247.63 336.24 247.67 336.43 247.79 336.54C247.5 336.86 247.37 337.27 247.33 337.7C247.28 338.29 247.28 338.89 247.33 339.48C247.57 342.71 247.93 345.93 248.52 349.13C249.19 352.8 249.95 356.45 251.11 359.99C251.26 360.45 251.4 360.92 251.6 361.36C252.17 362.56 253.1 363.04 254.38 362.77C255.17 362.6 255.95 362.37 256.7 362.08C258.01 361.57 259.29 360.99 260.58 360.46C260.9 360.33 261.25 360.25 261.53 360.16C261.82 360.86 262.06 361.46 262.33 362.04C263.02 363.57 263.76 365.07 264.42 366.61C266.76 372.07 269.15 377.51 271.81 382.83C273.24 385.68 274.57 388.58 275.93 391.46C276.23 392.09 276.45 392.77 276.76 393.4C276.88 393.64 277.06 393.81 277.28 393.91C277.23 394.09 277.32 394.3 277.56 394.28L277.59 394.27Z" fill="#F7DDC0"/>
<path d="M277.86 410.42C277.76 410.46 277.67 410.52 277.59 410.6C277.51 410.67 277.46 410.75 277.41 410.83C277.18 410.52 276.96 410.21 276.75 409.89C276.96 409.75 277.09 409.54 277.07 409.28C277.32 409.67 277.58 410.06 277.86 410.43V410.42Z" fill="white"/>
<path d="M277.07 409.27C277.09 409.54 276.96 409.75 276.75 409.88C276.63 409.7 276.51 409.52 276.4 409.34C276.19 409.01 276.72 408.7 276.92 409.04C276.97 409.12 277.02 409.19 277.07 409.27Z" fill="#617462"/>
<path d="M277.07 409.27C277.02 409.19 276.97 409.12 276.92 409.04C276.71 408.71 276.19 409.01 276.4 409.34C276.51 409.52 276.63 409.7 276.75 409.88C276.69 409.92 276.62 409.96 276.55 409.98C276.2 410.11 275.7 409.98 275.56 409.65C275.38 409.26 275.25 408.85 275.14 408.43C274.49 405.92 273.85 403.41 273.21 400.9C273.09 400.43 272.95 399.97 272.76 399.32C270.94 400.42 269.28 401.42 267.67 402.39C267.41 403.04 267.76 403.49 267.98 403.97C268.9 405.98 269.83 407.99 270.75 410C270.91 410.34 271.06 410.69 271.16 411.06C271.26 411.41 271 411.79 270.63 411.97C270.45 412.05 270.28 412.07 270.12 412.03C270.21 411.74 270.27 411.44 270.3 411.15C270.34 410.76 269.73 410.76 269.69 411.15C269.67 411.31 269.64 411.47 269.6 411.64C269.42 411.39 269.29 411.11 269.17 410.84C268.44 409.21 267.76 407.57 267.01 405.95C266.63 405.12 266.27 404.28 265.63 403.62C263.55 404.62 261.52 405.63 259.47 406.58C257.51 407.48 255.53 408.37 253.4 408.78C252.28 409 251.14 409.1 250.01 409.24C250.38 409.02 250.45 408.53 249.92 408.49C249.43 408.45 248.93 408.53 248.44 408.6C248.42 408.55 248.42 408.5 248.42 408.45C248.4 408.09 248.68 407.74 249.09 407.68C249.57 407.6 250.05 407.54 250.54 407.5C252.94 407.3 255.18 406.55 257.38 405.62C262.97 403.24 268.19 400.21 273.21 396.83C273.7 396.5 274.18 396.15 274.7 395.85C275.09 395.62 275.49 395.6 275.78 395.73C275.43 395.97 275.09 396.21 274.74 396.44C274.42 396.66 274.72 397.18 275.05 396.97C275.43 396.71 275.81 396.46 276.18 396.2C276.28 396.55 276.1 396.98 275.68 397.33C275.35 397.6 274.99 397.84 274.55 398.16C274.59 398.53 274.58 398.96 274.68 399.36C275.4 402.24 276.14 405.11 276.87 407.99C276.98 408.41 277.07 408.83 277.11 409.25V409.27H277.07Z" fill="#617462"/>
<path d="M276.01 395.92C276.07 396 276.12 396.09 276.14 396.18C275.77 396.44 275.39 396.7 275.01 396.95C274.68 397.17 274.38 396.64 274.7 396.42C275.05 396.19 275.4 395.95 275.74 395.71C275.84 395.76 275.93 395.83 276 395.91L276.01 395.92Z" fill="#617462"/>
<path d="M269.69 411.16C269.73 410.77 270.34 410.77 270.3 411.16C270.27 411.45 270.21 411.75 270.12 412.04C269.97 412.01 269.84 411.93 269.74 411.81C269.69 411.76 269.65 411.7 269.61 411.64C269.65 411.48 269.68 411.32 269.7 411.15L269.69 411.16Z" fill="#617462"/>
<path d="M270.11 412.04C269.94 412.59 269.66 413.1 269.3 413.54C269.12 413.42 268.89 413.35 268.66 413.36C269.12 412.9 269.45 412.28 269.6 411.65C269.64 411.71 269.69 411.76 269.73 411.82C269.83 411.94 269.96 412.01 270.11 412.05V412.04Z" fill="white"/>
<path d="M268.66 413.36C268.89 413.36 269.12 413.42 269.3 413.54C269.08 413.8 268.83 414.03 268.55 414.23C268.23 414.45 267.93 413.93 268.25 413.71C268.4 413.61 268.54 413.49 268.66 413.36Z" fill="#617462"/>
<path d="M266.09 308.94L264.78 309.15C264.26 305.74 262.76 302.77 260.47 300.18C259.63 299.22 259 298.19 258.61 296.99C257.38 293.25 256.16 289.49 254.88 285.76C252.62 279.17 250.31 272.6 248.04 266.01C246.88 262.64 245.76 259.26 244.61 255.88C244.46 255.43 244.27 254.99 244.07 254.47C241.96 255.19 239.93 255.88 237.8 256.6C237.85 256.98 237.83 257.35 237.93 257.68C238.99 260.92 240.25 264.08 241.79 267.12C242.72 268.95 243.66 270.78 244.58 272.61C244.9 273.24 245.21 273.87 245.47 274.52C248.56 282.3 251.73 290.06 254.53 297.95C254.75 298.56 254.99 299.15 255.24 299.81C253.89 301.16 253.26 302.87 252.87 304.67C252.33 307.22 252.23 309.82 252.32 312.42C252.32 312.52 252.4 312.61 252.46 312.77C252.7 312.75 252.96 312.68 253.2 312.72C253.3 312.74 253.39 312.77 253.47 312.81C253.43 312.9 253.44 313.02 253.49 313.1C253.4 313.23 253.4 313.42 253.59 313.51C253.67 313.55 253.77 313.59 253.87 313.64C253.85 313.74 253.8 313.83 253.74 313.93C253.36 314.48 252.84 314.69 252.2 314.59C251.49 314.48 251 314.06 250.83 313.38C250.71 312.92 250.68 312.42 250.68 311.93C250.66 309.76 250.84 307.61 251.21 305.47C251.56 303.42 252.35 301.53 253.41 299.67C250.63 292.86 247.99 285.96 245.11 279.13C243.99 279.28 243.12 279.88 242.15 280.16C241.22 280.42 240.3 280.75 239.37 281.04C238.39 281.34 237.41 281.62 236.33 281.93L234.63 282.42C232.58 282.65 230.61 282.92 228.64 283.08C226.65 283.24 224.65 283.31 222.65 283.36C220.65 283.41 218.65 283.37 216.74 283.37C215.82 283.99 215.39 284.84 215.02 285.73L213.37 285.31C213.49 285.05 213.61 284.79 213.72 284.54C213.87 284.2 214 283.86 214.14 283.52C213.68 283.04 213.11 283.14 212.58 283.06C210.23 282.71 207.88 282.38 205.59 281.73C205.23 281.63 204.86 281.52 204.53 281.35C204.22 281.2 204.07 280.89 204.14 280.54C204.17 280.39 204.22 280.25 204.31 280.14C204.31 280.15 204.31 280.17 204.31 280.18C204.31 280.19 204.31 280.2 204.31 280.21C204.31 280.4 204.31 280.59 204.31 280.79C204.31 281.18 204.92 281.18 204.92 280.79C204.92 280.6 204.92 280.41 204.92 280.22C204.97 280.1 205.01 279.98 205.04 279.86C205.37 279.85 205.71 279.87 206.02 279.96C209.01 280.78 212.05 281.19 215.14 281.23C218.12 281.27 221.09 281.37 224.06 281.35C229.78 281.33 235.36 280.45 240.71 278.36C241.85 277.91 243.07 277.63 244.18 276.98C243.94 275.88 243.47 274.91 242.98 273.96C240.35 268.92 238.08 263.73 236.14 258.39C236.03 258.09 235.89 257.8 235.73 257.42C235.4 257.46 235.08 257.46 234.79 257.55C233.39 257.96 232 258.39 230.61 258.83C230.17 258.97 229.77 258.99 229.4 258.68C229.04 258.37 228.98 257.82 229.35 257.55C229.65 257.33 230.01 257.19 230.35 257.07C234.21 255.68 238.07 254.29 241.93 252.92C243.56 252.34 245.12 251.6 246.6 250.69C246.97 250.47 247.34 250.23 247.66 249.95C248.23 249.45 248.28 249.11 247.96 248.38C247.88 248.18 247.78 247.99 247.68 247.79C245.01 242.3 242.37 236.79 239.65 231.32C238.83 229.68 237.82 228.14 236.84 226.58C236.02 225.28 234.85 224.69 233.26 224.88C230.08 225.26 226.99 225.99 224 227.11C222.43 227.7 220.88 228.31 219.32 228.92C219.27 228.94 219.22 228.96 219.17 228.98C219.24 228.93 219.31 228.87 219.37 228.82C219.66 228.56 219.23 228.13 218.94 228.39C218.67 228.63 218.34 228.81 218.01 228.99C217.96 228.94 217.92 228.89 217.87 228.83C217.65 228.51 217.72 228.21 217.95 227.95C218.09 227.79 218.27 227.66 218.45 227.54C218.78 227.31 218.93 226.98 218.98 226.58C219.16 224.97 219.42 223.36 219.53 221.75C219.69 219.52 219.44 217.32 218.78 215.18C218.66 214.77 218.46 214.39 218.3 214.01C217.74 214.01 217.26 213.99 216.78 214.01C213.75 214.18 211.62 212.13 211.17 209.86C210.99 208.96 210.74 208.07 210.51 207.18C210.19 205.96 209.72 204.8 208.79 203.92C208.14 203.31 207.74 202.58 207.42 201.79C207.5 201.37 207.72 201.09 208.11 200.95C208.31 200.87 208.5 200.77 208.7 200.68C210.21 199.98 210.97 198.74 211.18 197.14C211.32 196.12 211.41 195.1 211.53 194.08C211.68 192.89 211.96 191.74 212.48 190.66C212.86 189.87 213.35 189.16 214.13 188.71C214.29 188.62 214.45 188.54 214.61 188.48C214.52 188.77 214.98 189.01 215.17 188.7C215.21 188.65 215.24 188.59 215.27 188.54C215.32 188.54 215.38 188.51 215.43 188.46C215.47 188.42 215.5 188.39 215.53 188.35C215.58 188.35 215.63 188.35 215.68 188.37C216.24 188.46 216.53 188.7 216.64 189.3C217.15 191.98 218.25 194.45 219.48 196.85C220.51 198.84 221.94 200.53 223.75 201.87C223.76 201.87 223.77 201.89 223.79 201.89C223.85 202.23 223.93 202.56 224.02 202.89C224.07 203.09 224.26 203.14 224.41 203.08C224.41 203.1 224.39 203.13 224.37 203.16C224.18 203.48 223.88 203.58 223.54 203.48C223.34 203.42 223.13 203.32 222.97 203.19C222.5 202.83 222.02 202.47 221.59 202.06C219.89 200.43 218.56 198.54 217.63 196.37C216.87 194.58 216.18 192.77 215.45 190.96C215.33 190.67 215.19 190.4 215.05 190.12C214.32 190.35 214.05 190.92 213.85 191.45C213.55 192.25 213.31 193.09 213.15 193.94C212.98 194.84 212.88 195.76 212.82 196.68C212.69 198.94 211.78 200.73 209.81 201.93C209.72 201.98 209.67 202.08 209.53 202.24C210.48 203.43 211.44 204.65 211.94 206.17C212.59 206.28 213.17 206.22 213.73 206.01C213.93 205.93 214.16 205.83 214.35 205.87C214.59 205.92 214.87 206.05 215.01 206.23C215.22 206.52 215.16 206.89 214.87 207.1C214.53 207.35 214.13 207.54 213.72 207.68C213.37 207.8 212.99 207.82 212.64 207.88C212.35 210.38 213.95 212.31 216.34 212.38C217.2 212.4 218.05 212.38 218.92 212.38C219.83 213.1 220.29 214.08 220.54 215.13C220.86 216.49 221.12 217.88 221.22 219.28C221.35 221.05 221.3 222.84 221.01 224.62C220.93 225.14 220.94 225.68 220.9 226.36C221.39 226.21 221.76 226.15 222.09 226.01C225.29 224.66 228.63 223.82 232.04 223.22C232.38 223.16 232.72 223.13 233.06 223.1C233.26 223.08 233.46 223.07 233.65 223.05C235.53 222.91 237.05 223.68 238.13 225.16C239.2 226.64 240.24 228.18 241.08 229.81C243.89 235.23 246.62 240.69 249.37 246.14C249.66 246.72 249.95 247.3 250.21 247.89C250.7 248.99 250.56 250.04 249.77 250.91C249.24 251.5 248.57 251.99 247.92 252.46C247.4 252.83 246.82 253.11 246.26 253.43C246.31 253.74 246.33 253.96 246.39 254.16C248.2 259.76 249.92 265.39 251.86 270.95C254.07 277.27 256.33 283.58 258.37 289.96C259.17 292.48 259.9 295.03 260.62 297.57C260.81 298.26 261.11 298.84 261.57 299.4C263.92 302.18 265.54 305.31 266.08 308.95L266.09 308.94Z" fill="#617462"/>
<path d="M264.88 309.92C264.9 310.07 264.84 310.22 264.81 310.36C263.5 310.43 263.51 311.58 263.14 312.44C262.94 312.31 262.78 312.24 262.68 312.13C262.54 311.97 262.46 311.76 262.31 311.6C261.96 311.21 261.5 311.25 261.24 311.68C261.1 311.91 261.02 312.17 260.85 312.39C260.68 312.62 260.88 313.09 260.3 313.14C260.26 312.89 260.25 312.63 260.18 312.38C260.04 311.85 259.69 311.66 259.23 311.86C258.51 312.16 258.35 312.44 258.43 313.23C258.46 313.61 258.53 313.98 258.53 314.36C258.53 314.71 258.66 315.1 258.3 315.42C257.77 315.24 257.58 314.77 257.39 314.36C256.67 312.85 256 311.32 255.31 309.79C255.16 309.44 255.06 309.06 254.85 308.76C254.72 308.58 254.4 308.47 254.16 308.46C253.89 308.44 253.63 308.88 253.7 309.2C253.76 309.52 253.86 309.83 253.98 310.13C254.29 310.93 254.62 311.72 254.85 312.27C254.75 312.65 254.66 313.01 254.56 313.35C254.39 313.24 254.21 313.14 254.03 313.04C254.09 312.86 254 312.63 253.75 312.63C253.61 312.63 253.53 312.7 253.49 312.8C253.41 312.76 253.32 312.73 253.22 312.71C252.97 312.67 252.71 312.74 252.48 312.76C252.42 312.61 252.34 312.51 252.34 312.41C252.25 309.81 252.34 307.22 252.89 304.66C253.27 302.85 253.91 301.14 255.26 299.8C255.01 299.14 254.77 298.55 254.55 297.94C251.75 290.05 248.59 282.29 245.49 274.51C245.23 273.86 244.92 273.23 244.6 272.6C243.68 270.77 242.73 268.94 241.81 267.11C240.27 264.07 239.01 260.91 237.95 257.67C237.84 257.34 237.86 256.97 237.82 256.59C239.96 255.86 241.99 255.17 244.09 254.46C244.29 254.98 244.48 255.42 244.63 255.87C245.77 259.24 246.9 262.63 248.06 266C250.33 272.59 252.64 279.16 254.9 285.75C256.18 289.48 257.39 293.23 258.63 296.98C259.02 298.18 259.65 299.21 260.49 300.17C262.78 302.76 264.28 305.73 264.8 309.14C264.84 309.39 264.87 309.65 264.9 309.91L264.88 309.92Z" fill="white"/>
<path d="M255.27 314.45C255.27 314.62 255.12 314.74 254.97 314.75C254.73 314.76 254.49 314.87 254.26 314.93C254.22 314.93 254.18 314.95 254.15 314.95C254.2 314.72 254.26 314.49 254.32 314.26C254.41 314.24 254.5 314.21 254.59 314.19C254.54 314.1 254.48 314.02 254.4 313.95C254.45 313.75 254.51 313.54 254.56 313.33C254.94 313.59 255.24 313.92 255.27 314.44V314.45Z" fill="#617462"/>
<path d="M254.57 313.35C254.52 313.56 254.46 313.77 254.41 313.97C254.26 313.84 254.07 313.73 253.89 313.64C253.98 313.3 253.83 312.97 253.5 312.81C253.54 312.72 253.63 312.64 253.76 312.64C254 312.64 254.09 312.87 254.04 313.05C254.22 313.14 254.41 313.24 254.57 313.36V313.35Z" fill="white"/>
<path d="M254.59 314.21C254.5 314.23 254.41 314.26 254.32 314.28C254.35 314.18 254.37 314.08 254.4 313.97C254.48 314.04 254.54 314.12 254.59 314.21Z" fill="#617462"/>
<path d="M254.32 314.28C254.26 314.51 254.2 314.74 254.15 314.97C253.92 315.02 253.69 315.06 253.45 315.07C253.06 315.08 253.06 314.48 253.45 314.46C253.75 314.46 254.04 314.36 254.32 314.28Z" fill="white"/>
<path d="M254.05 332.27C254.14 332.65 253.56 332.81 253.47 332.43C253.47 332.42 253.47 332.41 253.47 332.39C253.54 332.36 253.62 332.32 253.69 332.29C253.69 331.98 253.73 331.71 253.69 331.45C253.64 331.16 253.59 330.87 253.56 330.58C253.75 331.13 253.93 331.69 254.07 332.26L254.05 332.27Z" fill="#617462"/>
<path d="M253.49 312.8C253.82 312.96 253.97 313.3 253.88 313.63C253.78 313.58 253.69 313.54 253.6 313.5C253.41 313.41 253.41 313.22 253.5 313.09C253.45 313 253.45 312.89 253.48 312.8H253.49Z" fill="#617462"/>
<path d="M253.67 331.46C253.72 331.72 253.67 331.99 253.67 332.3C253.6 332.33 253.52 332.37 253.45 332.4C252.74 329.54 251.22 326.98 250.61 324.1C250.63 324.1 250.66 324.1 250.68 324.08C250.88 324.01 251.04 323.89 251.15 323.74C251.6 326.13 252.74 328.3 253.54 330.58C253.58 330.87 253.62 331.16 253.67 331.45V331.46Z" fill="#F7DDC0"/>
<path d="M252.54 333.27C252.93 333.25 252.93 333.86 252.54 333.88C251.7 333.91 250.92 334.22 250.22 334.67C250.19 334.45 250.22 334.15 250.36 334.01C250.45 333.91 250.56 333.82 250.68 333.73C251.27 333.46 251.89 333.29 252.54 333.27Z" fill="#617462"/>
<path d="M251.29 322.76C251.37 323.18 251.32 323.51 251.15 323.75C251.1 323.49 251.06 323.22 251.03 322.96C250.98 322.58 250.38 322.57 250.42 322.96C250.47 323.35 250.53 323.74 250.61 324.12C250.15 324.24 249.71 323.9 249.53 323.25C249.24 322.15 248.97 321.05 248.72 319.95C247.69 315.46 246.07 311.16 244.52 306.84C242.48 301.19 240.08 295.7 237.4 290.33C236.82 289.17 236.3 287.98 235.73 286.82C235.06 285.46 234.56 284.06 234.63 282.43L236.33 281.94C236.82 283.24 237.09 284.55 237.67 285.76C238.54 287.56 239.37 289.38 240.26 291.17C243.14 297 245.43 303.06 247.39 309.24C248.7 313.41 249.85 317.64 251.07 321.84C251.16 322.15 251.24 322.47 251.3 322.78L251.29 322.76Z" fill="#617462"/>
<path d="M251.03 322.95C251.06 323.22 251.1 323.48 251.15 323.74C251.04 323.89 250.89 324.01 250.68 324.08C250.66 324.08 250.63 324.1 250.61 324.1C250.53 323.72 250.46 323.34 250.42 322.94C250.37 322.55 250.98 322.56 251.03 322.94V322.95Z" fill="#617462"/>
<path d="M250.64 221.32C250.64 221.55 250.48 221.83 250.31 222C249.94 222.38 249.43 222.39 248.94 222.35C245.63 222.06 243.11 220.57 241.67 217.48C241.09 216.24 240.89 214.91 240.75 213.56C240.66 212.7 240.58 211.84 240.4 211C240.11 209.68 239.6 208.45 238.54 207.43C237.35 208.48 236.3 209.41 235.26 210.34C234.94 210.63 234.63 210.93 234.33 211.24C234.21 211.36 234.11 211.47 234.01 211.59L233.02 210.88C233.23 210.88 233.44 210.66 233.3 210.42C233.18 210.22 233.06 210.02 232.94 209.83C233.6 209.16 234.3 208.51 235.02 207.91C235.89 207.17 236.72 206.43 237.3 205.42C237.5 205.06 237.85 204.76 238.2 204.52C238.57 204.27 239.09 204.29 239.37 204.55C239.46 204.63 239.53 204.74 239.56 204.87C239.79 205.81 240.47 206.44 240.94 207.2C241.89 208.74 242.53 210.38 242.71 212.19C242.79 212.94 242.91 213.69 243.02 214.44C243.45 217.55 245.09 219.75 248.49 220.53C248.75 220.87 249.02 221.21 249.32 221.51C249.59 221.79 250.02 221.36 249.75 221.08C249.63 220.95 249.51 220.82 249.4 220.69C249.61 220.71 249.82 220.69 250.03 220.71C250.39 220.74 250.67 220.96 250.67 221.31L250.64 221.32Z" fill="#617462"/>
<path d="M250.68 333.73C250.56 333.81 250.45 333.91 250.36 334.01C250.23 334.15 250.19 334.44 250.22 334.67C249.62 335.06 249.08 335.55 248.6 336.06C248.42 336.11 248.24 336.19 248.08 336.29C247.97 336.36 247.88 336.44 247.81 336.53C247.7 336.42 247.65 336.24 247.77 336.08C248.55 335.14 249.54 334.25 250.67 333.73H250.68Z" fill="#617462"/>
<path d="M249.91 408.49C250.44 408.53 250.38 409.02 250 409.24C249.91 409.24 249.83 409.26 249.75 409.27C249.67 409.24 249.6 409.17 249.57 409.09C249.53 409.09 249.49 409.09 249.45 409.09C249.24 409.11 249.03 409.12 248.82 409.15C248.63 409.02 248.49 408.81 248.43 408.58C248.92 408.51 249.42 408.44 249.91 408.47V408.49Z" fill="#617462"/>
<path d="M250 409.24C250 409.24 250 409.24 249.99 409.24C249.9 409.29 249.82 409.29 249.75 409.26C249.83 409.26 249.92 409.24 250 409.23V409.24Z" fill="#F7DDC0"/>
<path d="M248.97 209.24C249.56 210.48 249.86 211.779 249.82 213.159C249.77 214.799 249.41 216.369 248.79 217.889C248.63 218.279 248.35 218.63 248.07 218.95C248.07 218.95 248.06 218.96 248.05 218.97C247.98 218.87 247.91 218.77 247.83 218.67C247.71 218.52 246.92 217.44 246.78 218.2C246.75 218.37 246.85 218.49 246.97 218.55C246.98 218.57 247.01 218.6 247.06 218.65C247.15 218.75 247.22 218.87 247.3 218.97C247.34 219.02 247.38 219.08 247.42 219.13C247.26 219.11 247.11 219.05 247.01 218.95C246.77 218.72 246.58 218.41 246.73 218.08C247.19 217.09 247.49 216.07 247.7 215C248.55 210.52 245.61 205.899 241.18 204.849C240.82 204.759 240.43 204.73 240.17 204.5C240.08 204.43 240.01 204.33 239.95 204.21C239.64 203.5 238.94 202.99 239.09 202.03C239.29 200.75 239.35 199.449 239.4 198.159C239.55 193.469 237.48 189.84 233.9 186.97C233.31 186.5 232.67 186.08 232.02 185.7C230.41 184.75 228.66 184.29 226.77 184.3C223.89 184.32 221.24 185.11 218.72 186.44C218.24 186.69 217.77 186.96 217.29 187.2C217.02 187.33 216.76 187.319 216.52 187.159C216.75 186.879 216.98 186.6 217.24 186.34C217.45 186.12 217.24 185.75 216.94 185.83C216.71 185.89 216.52 185.989 216.34 186.099C216.45 185.959 216.58 185.83 216.73 185.74C218.97 184.42 221.24 183.19 223.83 182.67C227.5 181.93 230.9 182.42 234.03 184.59C236.57 186.35 238.62 188.51 239.99 191.3C240.86 193.07 241.37 194.94 241.37 196.92C241.37 198.81 241.28 200.69 241.23 202.72C241.96 203.03 242.67 203.279 243.33 203.619C245.81 204.889 247.75 206.71 248.95 209.25L248.97 209.24Z" fill="#617462"/>
<path d="M249.72 221.09C249.99 221.37 249.56 221.8 249.29 221.52C248.99 221.21 248.72 220.88 248.46 220.54C248.7 220.59 248.94 220.64 249.19 220.68C249.25 220.68 249.31 220.7 249.36 220.7C249.47 220.83 249.59 220.96 249.71 221.09H249.72Z" fill="#617462"/>
<path d="M249.75 409.27C249.68 409.27 249.62 409.29 249.55 409.29C249.39 409.31 249.23 409.29 249.07 409.27C248.98 409.25 248.9 409.22 248.82 409.16C249.03 409.13 249.24 409.11 249.45 409.1C249.49 409.1 249.53 409.1 249.57 409.1C249.61 409.18 249.67 409.25 249.75 409.28V409.27Z" fill="#617462"/>
<path d="M249.37 220.7C249.31 220.7 249.25 220.7 249.2 220.68C248.95 220.64 248.7 220.59 248.47 220.54C248.29 220.31 248.12 220.07 247.95 219.84C247.78 219.6 247.61 219.36 247.43 219.12C247.66 219.15 247.91 219.1 248.06 218.96C248.48 219.55 248.9 220.15 249.38 220.7H249.37Z" fill="#617462"/>
<path d="M248.81 409.16C248.81 409.16 248.79 409.16 248.78 409.16C248.37 409.21 247.96 409.27 247.56 409.28C247.42 409.28 247.31 409.18 247.27 409.06C246.77 407.68 245.78 406.43 245.51 404.98C245.7 405.06 245.91 405.08 246.09 405.02C246.11 405.02 246.12 405.02 246.13 405C246.39 406.29 247.28 407.45 247.77 408.67C247.99 408.65 248.22 408.62 248.44 408.59C248.49 408.81 248.64 409.03 248.83 409.16H248.81Z" fill="#F7DDC0"/>
<path d="M248.6 336.06C248.46 336.21 248.33 336.36 248.21 336.52C248.09 336.67 247.92 336.64 247.82 336.54C247.9 336.45 247.99 336.37 248.09 336.3C248.24 336.2 248.42 336.12 248.61 336.07L248.6 336.06Z" fill="#617462"/>
<path d="M247.95 219.84C248.12 220.07 248.29 220.31 248.47 220.54C245.08 219.76 243.43 217.56 243 214.45C242.9 213.7 242.77 212.95 242.69 212.2C242.51 210.39 241.87 208.75 240.92 207.21C240.45 206.45 239.77 205.82 239.54 204.88C239.51 204.75 239.44 204.65 239.35 204.56L240.19 204.49C240.45 204.71 240.84 204.75 241.2 204.84C245.62 205.89 248.57 210.51 247.72 214.99C247.52 216.06 247.21 217.08 246.75 218.07C246.6 218.4 246.79 218.71 247.03 218.94C247.13 219.03 247.28 219.09 247.44 219.12C247.62 219.36 247.79 219.6 247.96 219.84H247.95Z" fill="#617462"/>
<path d="M247.84 218.66C247.91 218.76 247.99 218.86 248.06 218.96C247.92 219.1 247.67 219.15 247.43 219.12C247.39 219.07 247.35 219.01 247.31 218.96C247.23 218.85 247.15 218.74 247.07 218.64C247.02 218.58 247 218.55 246.98 218.54C246.86 218.49 246.75 218.36 246.79 218.19C246.93 217.43 247.72 218.5 247.84 218.66Z" fill="#617462"/>
<path d="M247.96 248.35C248.28 249.08 248.23 249.42 247.66 249.92C247.34 250.21 246.97 250.44 246.6 250.66C245.12 251.57 243.56 252.3 241.93 252.89C238.07 254.27 234.21 255.65 230.35 257.04C230 257.16 229.64 257.31 229.35 257.52C228.98 257.79 229.04 258.35 229.4 258.65C229.77 258.97 230.17 258.95 230.61 258.8C232 258.36 233.39 257.93 234.79 257.52C235.08 257.43 235.4 257.43 235.73 257.39C235.89 257.77 236.03 258.06 236.14 258.36C238.08 263.7 240.34 268.89 242.98 273.93C243.48 274.88 243.94 275.85 244.18 276.95C243.06 277.61 241.85 277.88 240.71 278.33C235.36 280.42 229.78 281.3 224.06 281.32C221.09 281.33 218.11 281.24 215.14 281.2C212.05 281.16 209.01 280.74 206.02 279.93C205.71 279.84 205.37 279.82 205.04 279.83C205.18 279.35 205.21 278.86 205.21 278.34C205.45 278.19 205.63 277.91 205.65 277.56C205.7 276.86 205.65 276.15 205.77 275.46C205.83 275.09 205.89 274.73 205.95 274.36C206.13 274.27 206.18 273.99 206.03 273.86C206.67 269.9 207.33 265.95 207.97 262C208.02 261.69 208.07 261.37 208.12 261.06C208.42 259.19 208.85 257.34 208.62 255.43C208.45 253.98 208.3 252.53 208.1 251.08C207.76 248.66 207.67 246.23 207.9 243.8C207.94 243.38 208.03 242.94 208.19 242.55C209.09 240.4 210.09 238.3 211.45 236.4C212.61 234.78 213.9 233.24 215.19 231.59C215.52 231.64 215.74 231.72 215.95 231.7C216.65 231.64 217 231.07 216.74 230.44C216.74 230.42 216.72 230.4 216.71 230.38C217.03 230.19 217.35 230 217.68 229.82C218.16 229.54 218.71 229.29 219.17 228.95C219.17 228.95 219.27 228.9 219.32 228.89C220.88 228.28 222.44 227.66 224 227.08C226.99 225.96 230.08 225.23 233.26 224.85C234.85 224.66 236.02 225.25 236.84 226.55C237.82 228.1 238.83 229.65 239.65 231.29C242.37 236.76 245.01 242.26 247.68 247.76C247.77 247.96 247.87 248.15 247.96 248.35Z" fill="white"/>
<path d="M246.62 403.96C246.73 404.41 246.47 404.86 246.12 405C246.08 404.81 246.05 404.62 246.04 404.43C246.02 404.04 245.41 404.04 245.43 404.43C245.43 404.62 245.46 404.8 245.5 404.98C245.34 404.91 245.18 404.79 245.09 404.63C244.84 404.22 244.61 403.78 244.42 403.34C242.43 398.67 240.41 394.01 238.48 389.32C235.57 382.28 232.71 375.22 229.86 368.16C228.46 364.69 226.67 361.42 225.01 358.09C224.94 357.95 224.82 357.84 224.63 357.6C224.44 358.05 224.27 358.41 224.14 358.79C222.41 364.08 220.77 369.39 218.96 374.65C214.79 386.76 210.55 398.83 206.33 410.92C205.96 411.99 205.53 413.04 205.14 414.11C204.92 414.71 204.64 415.27 204.85 415.98C205 416.49 204.49 416.9 203.96 416.84C203.8 416.82 203.64 416.79 203.48 416.75C200.23 415.75 196.97 414.77 193.73 413.76L194.25 412.08C194.84 412.26 195.43 412.43 196.02 412.59C198.3 413.22 200.57 413.89 202.93 414.56C203.14 414.12 203.35 413.75 203.49 413.36C205.15 408.68 206.82 403.99 208.44 399.3C213.85 383.62 219.03 367.87 224 352.05C226.77 343.25 229.24 334.38 231.56 325.46L233.2 325.89C232.09 330.11 230.99 334.32 229.89 338.54C228.96 342.09 228.06 345.65 227.12 349.2C226.79 350.45 226.41 351.69 225.99 352.92C225.79 353.52 225.75 354.06 225.99 354.65C226.25 355.3 226.42 355.99 226.71 356.62C229.12 361.82 231.17 367.17 233.38 372.45C236.48 379.88 239.68 387.27 242.82 394.67C243.94 397.3 245.05 399.94 246.16 402.58C246.34 403.03 246.51 403.49 246.63 403.96H246.62Z" fill="#617462"/>
<path d="M246.12 405.01C246.12 405.01 246.1 405.02 246.08 405.03C245.91 405.09 245.69 405.07 245.5 404.99C245.47 404.81 245.44 404.63 245.43 404.44C245.41 404.05 246.02 404.05 246.04 404.44C246.04 404.63 246.08 404.82 246.12 405.01Z" fill="#617462"/>
<path d="M240.19 204.5L239.35 204.57C239.07 204.31 238.55 204.28 238.18 204.54C237.83 204.78 237.49 205.08 237.28 205.44C236.7 206.45 235.87 207.19 235 207.93C234.28 208.54 233.59 209.18 232.92 209.85C231.65 207.89 229.89 206.28 228.4 204.48C228.83 204.03 229.22 203.67 229.55 203.25C230.74 201.74 230.89 199.81 229.98 198.25C228.48 195.68 226.02 196.37 224.5 197.74C224.24 197.98 224.13 198.28 224.15 198.61C223.99 198.52 223.77 198.55 223.73 198.78C223.58 199.8 223.62 200.86 223.81 201.89C223.8 201.89 223.79 201.87 223.77 201.87C221.96 200.53 220.52 198.84 219.5 196.85C218.27 194.45 217.17 191.98 216.66 189.3C216.54 188.71 216.26 188.46 215.7 188.37C215.65 188.37 215.6 188.35 215.55 188.35C215.91 187.97 216.23 187.56 216.55 187.15C216.79 187.31 217.05 187.32 217.32 187.19C217.8 186.95 218.27 186.68 218.75 186.43C221.27 185.1 223.92 184.3 226.8 184.29C228.69 184.28 230.43 184.74 232.05 185.69C232.7 186.07 233.34 186.49 233.93 186.96C237.51 189.82 239.58 193.45 239.43 198.15C239.39 199.45 239.32 200.75 239.12 202.02C238.97 202.98 239.66 203.49 239.98 204.2C240.03 204.32 240.11 204.42 240.2 204.49L240.19 204.5Z" fill="#617462"/>
<path d="M237.38 307.53C237.94 307.81 238.25 308.45 237.93 309.03C236.62 311.34 236.35 313.95 235.68 316.44C234.84 319.59 234.01 322.74 233.18 325.88L231.54 325.45C231.87 324.18 232.2 322.9 232.53 321.63C233.36 318.39 233.94 315.08 234.59 311.8C234.85 310.46 235.22 309.18 235.99 308.04C236.36 307.49 236.91 307.3 237.38 307.53Z" fill="#617462"/>
<path d="M233.01 210.89L234 211.6C233.3 212.45 232.95 213.44 232.88 214.58C232.76 216.49 232.91 218.35 233.4 220.2C233.48 220.51 233.59 220.82 233.65 221.14C233.71 221.55 233.47 221.96 233.12 222.03C233.07 222.03 233.02 222.05 232.97 222.05C232.63 222.09 232.32 222 232.12 221.68C231.95 221.41 231.8 221.11 231.71 220.8C231.09 218.55 230.81 216.25 231.01 213.91C231.13 212.55 231.55 211.29 232.49 210.29C232.58 210.44 232.67 210.59 232.76 210.74C232.82 210.84 232.91 210.89 233.01 210.89Z" fill="#617462"/>
<path d="M233.29 210.44C233.43 210.68 233.22 210.9 233.01 210.9C232.92 210.9 232.82 210.85 232.76 210.75C232.67 210.6 232.58 210.45 232.49 210.3C232.5 210.28 232.52 210.27 232.53 210.26C232.66 210.12 232.79 209.99 232.92 209.86C233.05 210.05 233.17 210.25 233.28 210.45L233.29 210.44Z" fill="#617462"/>
<path d="M232.97 222.05L233.05 223.08C232.71 223.11 232.37 223.14 232.03 223.2C228.62 223.8 225.28 224.64 222.08 225.99C221.75 226.13 221.39 226.2 220.89 226.34C220.93 225.66 220.91 225.13 221 224.6C221.29 222.83 221.34 221.04 221.21 219.26C221.11 217.86 220.85 216.47 220.53 215.11C220.29 214.06 219.82 213.07 218.91 212.36C218.05 212.36 217.19 212.38 216.33 212.36C213.94 212.29 212.33 210.36 212.63 207.86C212.98 207.8 213.36 207.78 213.71 207.66C214.11 207.52 214.51 207.33 214.86 207.08C215.15 206.88 215.21 206.5 215 206.21C214.86 206.02 214.58 205.89 214.34 205.85C214.15 205.81 213.92 205.91 213.72 205.99C213.15 206.2 212.58 206.26 211.93 206.15C211.44 204.63 210.48 203.41 209.52 202.22C209.66 202.06 209.72 201.96 209.8 201.91C211.77 200.71 212.68 198.92 212.81 196.66C212.86 195.74 212.96 194.82 213.14 193.92C213.3 193.08 213.53 192.24 213.84 191.43C214.04 190.9 214.3 190.33 215.04 190.1C215.18 190.38 215.33 190.66 215.44 190.94C216.17 192.74 216.86 194.56 217.62 196.35C218.55 198.51 219.89 200.41 221.58 202.04C222.01 202.45 222.49 202.81 222.96 203.17C223.13 203.3 223.33 203.4 223.53 203.46C223.87 203.56 224.18 203.46 224.36 203.14C224.38 203.12 224.39 203.09 224.4 203.06C224.54 203.01 224.64 202.88 224.59 202.7C224.27 201.57 224.13 200.33 224.26 199.15C224.38 199.37 224.57 199.51 224.83 199.52C225.06 199.52 225.32 199.35 225.52 199.21C225.64 199.12 225.65 198.92 225.75 198.79C226.51 197.79 227.73 197.81 228.46 198.82C229.21 199.88 229.15 201.16 228.27 202.27C227.83 202.83 227.26 203.23 226.63 203.57C226.17 203.83 226.1 204.18 226.4 204.66C226.64 205.03 226.95 205.35 226.59 205.8C225.65 205.41 225.42 205.45 224.93 206.09C224.59 206.54 224.41 207.03 224.41 207.59C224.41 208.56 225.02 209.32 226.01 209.58C226.76 209.77 227.6 209.38 228 208.55C228.2 208.13 228.31 207.63 228.34 207.16C228.38 206.58 228.37 206 228.36 205.39C229.76 207 231.32 208.49 232.46 210.28C231.51 211.28 231.09 212.54 230.98 213.9C230.78 216.24 231.07 218.53 231.68 220.79C231.77 221.1 231.91 221.4 232.09 221.67C232.29 221.99 232.6 222.08 232.94 222.04L232.97 222.05ZM215.05 198.64C215.09 198.2 214.78 197.82 214.34 197.75C213.83 197.67 213.42 198.03 213.39 198.57C213.37 199.03 213.68 199.44 214.08 199.49C214.54 199.54 215 199.14 215.05 198.64Z" fill="white"/>
<path d="M232.92 209.85C232.79 209.98 232.66 210.12 232.53 210.25C232.52 210.27 232.5 210.28 232.49 210.29C231.35 208.49 229.79 207 228.39 205.4C228.39 205.11 228.39 204.81 228.39 204.5C228.39 204.5 228.4 204.48 228.41 204.48C229.9 206.28 231.65 207.89 232.93 209.85H232.92Z" fill="#617462"/>
<path d="M229.98 198.25C230.89 199.82 230.74 201.75 229.55 203.25C229.22 203.67 228.83 204.03 228.4 204.48C228.32 204.39 228.25 204.3 228.18 204.21C227.93 203.9 227.51 204.34 227.75 204.64C227.96 204.9 228.17 205.15 228.39 205.4C228.39 206.01 228.41 206.59 228.37 207.17C228.34 207.64 228.23 208.14 228.03 208.56C227.63 209.39 226.78 209.79 226.04 209.59C225.05 209.33 224.44 208.57 224.44 207.6C224.44 207.04 224.61 206.54 224.96 206.1C225.45 205.46 225.68 205.42 226.62 205.81C226.98 205.36 226.67 205.05 226.43 204.67C226.12 204.2 226.2 203.84 226.66 203.58C227.29 203.23 227.86 202.84 228.3 202.28C229.17 201.16 229.24 199.89 228.49 198.83C227.77 197.82 226.54 197.8 225.78 198.8C225.68 198.93 225.67 199.13 225.55 199.22C225.35 199.37 225.09 199.54 224.86 199.53C224.61 199.53 224.41 199.38 224.29 199.16C224.29 199.08 224.31 199.01 224.32 198.93C224.34 198.78 224.26 198.65 224.15 198.6C224.13 198.27 224.24 197.97 224.5 197.73C226.02 196.36 228.48 195.67 229.98 198.24V198.25ZM226.34 207.98C226.94 207.72 226.81 207.25 226.67 206.6C226 207.45 225.93 207.69 226.21 207.93C226.24 207.96 226.31 207.99 226.34 207.98Z" fill="#617462"/>
<path d="M228.4 204.48C228.4 204.48 228.39 204.5 228.38 204.5C228.38 204.81 228.38 205.11 228.38 205.4C228.16 205.15 227.95 204.89 227.74 204.64C227.5 204.34 227.93 203.91 228.17 204.21C228.24 204.3 228.32 204.39 228.39 204.48H228.4Z" fill="#617462"/>
<path d="M224.62 202.72C224.67 202.9 224.57 203.03 224.43 203.08C224.57 202.79 224.51 202.5 224.28 202.26C224.15 202.11 223.97 202.01 223.81 201.88C223.62 200.85 223.59 199.79 223.73 198.77C223.76 198.54 223.98 198.51 224.15 198.6C224.15 198.71 224.17 198.82 224.2 198.92C224.22 199.01 224.25 199.09 224.29 199.16C224.16 200.34 224.31 201.57 224.62 202.71V202.72Z" fill="#617462"/>
<path d="M224.28 202.26C224.51 202.5 224.57 202.78 224.43 203.08C224.28 203.13 224.1 203.08 224.04 202.89C223.95 202.56 223.87 202.23 223.81 201.89C223.97 202.01 224.15 202.12 224.28 202.27V202.26Z" fill="#617462"/>
<path d="M224.15 198.61C224.26 198.67 224.34 198.79 224.32 198.94C224.31 199.02 224.3 199.09 224.29 199.17C224.25 199.1 224.22 199.02 224.2 198.93C224.17 198.82 224.15 198.71 224.15 198.61Z" fill="#617462"/>
<path d="M218.95 228.38C219.24 228.12 219.68 228.55 219.38 228.81C219.32 228.87 219.25 228.92 219.18 228.97C219.03 229.04 218.89 229.11 218.73 229.14C218.46 229.19 218.21 229.14 218.02 228.97C218.35 228.79 218.68 228.61 218.95 228.37V228.38Z" fill="#617462"/>
<path d="M218.73 229.14C218.88 229.11 219.03 229.04 219.18 228.97C218.72 229.31 218.18 229.56 217.69 229.84C217.37 230.03 217.04 230.21 216.72 230.4C216.63 230.2 216.52 230.03 216.39 229.89C216.72 229.69 217.05 229.5 217.38 229.32C217.58 229.2 217.8 229.1 218.01 228.98C218.2 229.16 218.45 229.2 218.72 229.15L218.73 229.14Z" fill="white"/>
<path d="M216.96 185.82C217.26 185.73 217.47 186.11 217.26 186.33C217.01 186.59 216.77 186.87 216.54 187.15C216.49 187.12 216.45 187.09 216.41 187.05C216.14 186.8 216.08 186.44 216.29 186.18C216.31 186.15 216.34 186.129 216.36 186.099C216.54 185.989 216.73 185.89 216.96 185.83V185.82Z" fill="#617462"/>
<path d="M216.75 230.46C217 231.09 216.66 231.66 215.96 231.72C215.75 231.74 215.54 231.66 215.2 231.61C213.91 233.26 212.62 234.79 211.46 236.42C210.1 238.31 209.1 240.42 208.2 242.57C208.04 242.96 207.95 243.4 207.91 243.82C207.67 246.25 207.77 248.68 208.11 251.1C208.31 252.54 208.45 254 208.63 255.45C208.86 257.36 208.43 259.22 208.13 261.08C208.08 261.39 208.03 261.71 207.98 262.02H207.96C207.98 261.93 207.96 261.83 207.87 261.75C207.42 261.33 206.9 260.99 206.35 260.68C206.51 259.68 206.67 258.69 206.83 257.69C206.93 257.06 206.91 256.39 206.85 255.75C206.65 253.87 206.39 252 206.16 250.12C205.9 248.02 205.91 245.9 206.1 243.8C206.18 242.96 206.47 242.1 206.83 241.33C208.06 238.68 209.41 236.09 211.28 233.82C212.07 232.86 212.78 231.83 213.55 230.86C213.85 230.48 214.18 230.11 214.56 229.81C215.22 229.29 215.94 229.36 216.42 229.88C215.97 230.15 215.52 230.44 215.1 230.75C214.79 230.98 215.09 231.51 215.4 231.27C215.83 230.95 216.29 230.67 216.75 230.39C216.75 230.41 216.77 230.43 216.78 230.45L216.75 230.46Z" fill="#617462"/>
<path d="M216.42 187.05C216.42 187.05 216.5 187.12 216.55 187.15C216.22 187.55 215.9 187.97 215.55 188.35C215.23 188.32 214.92 188.37 214.63 188.47C214.63 188.45 214.65 188.42 214.67 188.39C215.21 187.56 215.56 186.61 216.37 186.09C216.35 186.12 216.32 186.14 216.3 186.17C216.09 186.43 216.16 186.79 216.42 187.04V187.05Z" fill="#617462"/>
<path d="M216.4 229.89C216.53 230.03 216.64 230.2 216.73 230.4C216.27 230.68 215.82 230.96 215.38 231.28C215.06 231.51 214.76 230.99 215.08 230.76C215.5 230.45 215.95 230.17 216.4 229.89Z" fill="#617462"/>
<path d="M215.54 188.35C215.54 188.35 215.48 188.42 215.44 188.46C215.39 188.51 215.34 188.53 215.28 188.54C215.25 188.59 215.22 188.65 215.18 188.7C214.99 189 214.53 188.77 214.62 188.48C214.91 188.37 215.21 188.33 215.54 188.36V188.35Z" fill="#617462"/>
<path d="M214.34 197.75C214.79 197.82 215.1 198.2 215.05 198.64C215 199.14 214.54 199.54 214.08 199.49C213.68 199.44 213.37 199.03 213.39 198.57C213.41 198.04 213.83 197.67 214.34 197.75Z" fill="#617462"/>
<path d="M215.01 285.72C214.98 285.78 214.96 285.84 214.93 285.9C212.19 292.54 209.52 299.21 207.56 306.14C205.72 312.64 203.49 319.02 201.15 325.35C197.35 335.64 194.08 346.11 191.06 356.65C189.23 363.04 187.15 369.35 184.92 375.61C183.26 380.24 182 385 180.68 389.73C179.56 393.74 178.5 397.76 177.41 401.77C177.27 402.29 177.09 402.8 176.84 403.27C176.69 403.56 176.42 403.76 176.07 403.74C175.92 403.24 175.95 402.61 175.95 402.16C175.95 401.77 175.34 401.77 175.34 402.16C175.34 402.55 175.34 403 175.39 403.43C175.24 403.26 175.16 403.03 175.17 402.76C175.19 402.33 175.27 401.9 175.38 401.49C176.53 397.21 177.69 392.93 178.86 388.67C180.93 381.17 183.26 373.75 185.7 366.36C187.84 359.9 189.72 353.36 191.64 346.83C193.48 340.61 195.46 334.45 197.81 328.4C200.93 320.39 203.68 312.26 206.26 304.06C208.01 298.49 210.08 293.03 212.3 287.64C212.62 286.85 212.99 286.08 213.34 285.31L214.99 285.73L215.01 285.72Z" fill="#617462"/>
<path d="M207.94 262.01H207.96C207.32 265.97 206.66 269.92 206.02 273.87C205.99 273.84 205.95 273.82 205.9 273.8C205.36 273.66 204.82 273.49 204.31 273.27C204.49 272.07 204.68 270.88 204.87 269.68C205.32 266.89 205.79 264.09 206.24 261.3C206.67 261.56 207.08 261.84 207.43 262.17C207.63 262.36 207.9 262.2 207.95 262L207.94 262.01Z" fill="#617462"/>
<path d="M207.86 261.75C207.95 261.83 207.97 261.93 207.95 262.01C207.9 262.21 207.63 262.36 207.43 262.18C207.08 261.85 206.67 261.57 206.24 261.31C206.28 261.1 206.31 260.89 206.34 260.68C206.89 260.99 207.41 261.34 207.86 261.75Z" fill="#617462"/>
<path d="M206.34 260.68C206.31 260.89 206.27 261.1 206.24 261.31C205.71 260.99 205.14 260.72 204.58 260.45C204.63 260.21 204.55 259.96 204.34 259.75C204.28 259.69 204.22 259.63 204.15 259.57C204.86 259.92 205.62 260.26 206.34 260.67V260.68Z" fill="white"/>
<path d="M206.03 273.88C206.18 274.01 206.13 274.29 205.95 274.38C205.97 274.21 206 274.05 206.03 273.88Z" fill="white"/>
<path d="M206.03 273.88C206 274.05 205.98 274.21 205.95 274.38C205.89 274.41 205.82 274.42 205.74 274.4C205.55 274.35 205.36 274.3 205.17 274.24C205.09 274.36 204.93 274.44 204.76 274.37C204.57 274.29 204.38 274.21 204.19 274.12C204.23 273.84 204.27 273.56 204.31 273.29C204.83 273.51 205.37 273.68 205.9 273.82C205.95 273.83 205.99 273.86 206.02 273.89L206.03 273.88Z" fill="#617462"/>
<path d="M205.94 274.38C205.88 274.75 205.82 275.11 205.76 275.48C205.65 276.17 205.69 276.88 205.64 277.58C205.62 277.93 205.44 278.21 205.2 278.36C205.2 278.3 205.19 278.25 205.17 278.21C205.17 278.18 205.19 278.16 205.19 278.13C205.23 278.01 205.19 277.92 205.13 277.86C205.12 277.84 205.11 277.84 205.09 277.82C205.04 277.78 204.98 277.75 204.9 277.75C204.8 277.75 204.72 277.79 204.68 277.85C204.65 277.88 204.63 277.92 204.61 277.97C204.59 278.05 204.56 278.12 204.55 278.2C204.46 278.06 204.25 278.03 204.12 278.11C204.04 278 203.98 277.87 203.96 277.72C203.87 277.2 203.82 276.64 203.9 276.11C203.99 275.45 204.09 274.78 204.19 274.12C204.38 274.2 204.57 274.29 204.76 274.37C204.93 274.44 205.09 274.37 205.17 274.24C205.36 274.3 205.55 274.35 205.74 274.4C205.82 274.42 205.89 274.41 205.95 274.38H205.94Z" fill="#617462"/>
<path d="M204.58 260.45C205.14 260.72 205.71 260.99 206.24 261.31C205.79 264.1 205.33 266.9 204.87 269.69C204.68 270.89 204.49 272.08 204.31 273.28C203.66 273.01 203.05 272.65 202.53 272.18C202.47 271.87 202.26 271.58 201.9 271.51C200.77 271.29 200.16 270.45 199.57 269.62C195.89 264.54 192.46 259.29 189.65 253.66C189.48 253.32 189.3 252.99 189.15 252.64C188.86 251.97 188.79 251.3 189.29 250.62C189.68 250.62 190.12 250.6 190.54 250.62C190.85 250.64 191.2 250.81 191.47 250.73C191.79 250.63 192.03 250.32 192.41 250.04C192.79 250.5 193.15 250.96 193.53 251.41C194.96 253.11 196.37 254.82 197.83 256.48C199.16 257.99 200.66 259.31 202.3 260.46C202.65 260.71 203.03 260.92 203.42 261.09C203.79 261.25 204.16 261.1 204.42 260.77C204.5 260.67 204.55 260.55 204.57 260.44L204.58 260.45Z" fill="white"/>
<path d="M205.14 277.86C205.2 277.92 205.24 278.01 205.2 278.13C205.2 278.16 205.19 278.18 205.18 278.21C205.2 278.25 205.21 278.29 205.21 278.35C205.11 278.42 204.99 278.46 204.87 278.47C204.59 278.49 204.3 278.36 204.12 278.11C204.25 278.03 204.46 278.06 204.55 278.2C204.57 278.12 204.59 278.05 204.61 277.97C204.63 277.92 204.65 277.89 204.68 277.85C204.73 277.79 204.8 277.75 204.9 277.75C204.98 277.75 205.04 277.78 205.09 277.82C205.1 277.83 205.11 277.84 205.13 277.86H205.14Z" fill="#617462"/>
<path d="M205.21 278.36C205.21 278.88 205.18 279.37 205.04 279.85C204.94 279.85 204.85 279.85 204.75 279.87C204.55 279.89 204.4 279.99 204.3 280.14C204.27 279.54 204.02 278.97 204 278.36C204 278.24 204.05 278.16 204.12 278.11C204.3 278.36 204.59 278.5 204.87 278.47C204.99 278.47 205.11 278.42 205.21 278.36Z" fill="white"/>
<path d="M205.04 279.85C205.01 279.97 204.97 280.09 204.92 280.21C204.92 280.4 204.92 280.59 204.92 280.78C204.92 281.17 204.31 281.17 204.31 280.78C204.31 280.59 204.31 280.39 204.31 280.2C204.31 280.19 204.31 280.18 204.31 280.17C204.31 280.16 204.31 280.14 204.31 280.13C204.41 279.98 204.56 279.88 204.76 279.86C204.86 279.86 204.95 279.84 205.05 279.84L205.04 279.85Z" fill="#617462"/>
<path d="M204.34 259.76C204.55 259.97 204.63 260.22 204.58 260.46C204.33 260.34 204.09 260.23 203.85 260.11C203.5 259.94 203.8 259.42 204.15 259.59C204.21 259.65 204.28 259.71 204.34 259.77V259.76Z" fill="#617462"/>
<path d="M204.58 260.45C204.56 260.57 204.51 260.68 204.43 260.78C204.17 261.11 203.8 261.27 203.43 261.1C203.04 260.93 202.66 260.71 202.31 260.47C200.67 259.31 199.16 257.99 197.84 256.49C196.38 254.82 194.97 253.11 193.54 251.42C193.16 250.97 192.8 250.52 192.42 250.05C192.04 250.34 191.8 250.64 191.48 250.74C191.21 250.82 190.87 250.65 190.55 250.63C190.13 250.61 189.69 250.63 189.3 250.63C188.8 251.31 188.88 251.98 189.16 252.65C189.31 253 189.49 253.33 189.66 253.67C192.47 259.3 195.89 264.55 199.58 269.63C200.17 270.45 200.78 271.29 201.91 271.52C202.26 271.59 202.48 271.88 202.54 272.19C202.49 272.15 202.45 272.11 202.41 272.07C202.2 271.87 201.9 272.06 201.89 272.28C201.64 272.28 201.47 272.67 201.74 272.85C201.88 272.94 202.01 273.02 202.15 273.1C201.99 273.22 201.8 273.3 201.6 273.28C201.18 273.25 200.74 273.14 200.37 272.95C199.48 272.5 198.8 271.79 198.23 271C197.1 269.42 195.96 267.84 194.87 266.22C192.3 262.4 189.99 258.44 187.95 254.31C187.42 253.23 186.91 252.16 187.2 250.81C186.75 250.75 186.4 250.67 186.05 250.66C184.65 250.63 183.24 250.66 181.84 250.6C181.08 250.57 180.79 250.25 180.72 249.49C180.55 247.56 180.4 245.62 180.23 243.56C180.06 243.32 179.63 243.46 179.29 243.35C178.78 243.18 178.24 243.06 177.77 242.82C176.85 242.34 176.76 241.84 177.31 240.86C177.36 240.77 177.39 240.67 177.47 240.49C177.11 240.23 176.71 239.97 176.36 239.67C175.68 239.08 175.73 238.5 176.51 237.97C176.73 237.82 176.98 237.71 177.28 237.55C177.2 237.4 177.15 237.26 177.07 237.16C176.13 235.96 176.14 235.75 177.33 234.55C176.91 234.04 176.43 233.53 176.47 232.77C176.51 232.06 176.75 231.67 177.43 231.44C178 231.25 178.58 231.18 179.18 231.33C179.37 231.38 179.59 231.36 179.92 231.37C179.69 230.13 179.45 228.98 179.27 227.83C179.16 227.14 179.13 226.43 179.12 225.73C179.12 225.49 179.25 225.2 179.41 225.01C179.52 224.88 179.8 224.78 179.97 224.82C180.03 224.83 180.09 224.87 180.14 224.91C180.07 224.93 180.01 224.95 179.95 224.96C179.58 225.08 179.74 225.66 180.11 225.54C180.23 225.5 180.34 225.47 180.46 225.45C180.46 225.54 180.46 225.62 180.46 225.7C180.3 227.13 180.64 228.49 180.98 229.86C181.13 230.49 181.27 231.11 181.44 231.83C181.84 232.04 182.34 232.25 182.78 232.55C183.27 232.88 183.76 233.23 184.16 233.66C184.76 234.31 184.65 234.91 183.94 235.43C183.73 235.58 183.48 235.69 183.25 235.82C183.38 235.98 183.51 236.09 183.58 236.23C183.89 236.79 183.95 237.31 183.78 237.72C183.6 237.66 183.36 237.75 183.36 237.99V238.24C183.13 238.41 182.82 238.52 182.44 238.57C182.37 238.57 182.31 238.59 182.24 238.59C182.18 238.52 182.12 238.46 182.06 238.39C181.84 238.17 181.53 238.39 181.54 238.63C180.65 238.63 179.74 238.51 178.76 238.27C178.57 238.46 178.36 238.69 178.16 238.91C178.26 239.09 178.29 239.21 178.35 239.23C179.13 239.45 179.9 239.69 180.69 239.84C181.2 239.93 181.68 239.86 182.14 239.66C182.26 240.06 182.25 240.49 182.17 240.96C182.17 241.01 182.17 241.06 182.17 241.11C181.94 241.16 181.7 241.18 181.45 241.18C180.76 241.17 180.06 241.1 179.27 241.05C179.18 241.26 179.08 241.49 178.97 241.76C179.64 242.17 180.34 242.18 181.04 242.19C181.41 242.19 181.79 242.19 182.16 242.19C182.16 242.22 182.15 242.24 182.14 242.27C182.09 242.66 182.7 242.65 182.75 242.27C182.75 242.24 182.75 242.21 182.77 242.18C182.95 242.18 183.13 242.18 183.31 242.18C183.35 242.18 183.39 242.18 183.43 242.19C183.31 242.34 183.14 242.49 182.91 242.61C182.56 242.8 182.87 243.32 183.21 243.13C183.44 243.01 183.66 242.85 183.84 242.65C183.82 242.88 183.65 243.23 183.47 243.29C182.97 243.46 182.42 243.51 181.76 243.63C181.33 245.44 182.04 247.16 182.15 249.03C184.99 249.02 187.63 249.03 190.34 248.69C190.45 248.27 190.6 247.87 190.66 247.46C191.24 243.07 191.8 238.67 192.38 234.28C192.64 232.35 192.94 230.43 193.21 228.5C193.3 227.86 193.37 227.22 193.47 226.44C193.07 226.36 192.86 226.3 192.65 226.29C190.06 226.15 187.47 226.01 184.88 225.89C184.23 225.86 183.58 225.9 182.94 225.91C182.72 225.91 182.48 225.98 182.3 225.91C182.08 225.82 181.8 225.61 181.77 225.42C181.77 225.4 181.77 225.37 181.77 225.34C181.95 225.34 182.12 225.39 182.23 225.48C182.53 225.73 182.96 225.3 182.66 225.05C182.5 224.92 182.31 224.83 182.09 224.77C182.47 224.59 182.91 224.48 183.33 224.45C184.14 224.4 184.95 224.38 185.76 224.41C188.25 224.5 190.73 224.61 193.21 224.74C193.69 224.76 194.18 224.83 194.65 224.94C195.06 225.04 195.27 225.36 195.25 225.79C195.25 226.06 195.2 226.33 195.15 226.59C194.28 230.94 193.72 235.33 193.28 239.75C193.03 242.22 192.73 244.69 192.45 247.23C192.89 247.75 193.33 248.29 193.78 248.81C195.57 250.91 197.37 253 199.17 255.09C200.48 256.61 201.96 257.96 203.57 259.15C203.76 259.29 203.95 259.44 204.13 259.6C203.78 259.43 203.48 259.95 203.83 260.12C204.07 260.24 204.31 260.35 204.56 260.47L204.58 260.45ZM182.27 237.27C182.33 236.71 182.37 236.24 182.42 235.77C181.49 235.67 180.58 235.63 179.69 235.45C178.93 235.3 178.45 235.5 178.08 236.24C179.25 237.31 180.67 237.33 182.27 237.27ZM178.63 234.03C179.97 233.98 181.24 234.62 182.91 234.22C181.25 233.15 179.8 232.43 178 232.77C177.95 233.37 178.35 233.66 178.63 234.04V234.03Z" fill="#617462"/>
<path d="M204.31 273.28C204.27 273.56 204.23 273.84 204.19 274.11C203.49 273.81 202.79 273.48 202.14 273.09C202.33 272.94 202.48 272.73 202.53 272.51C202.55 272.4 202.56 272.29 202.53 272.18C203.05 272.65 203.66 273 204.31 273.28Z" fill="white"/>
<path d="M202.53 272.18C202.55 272.29 202.55 272.41 202.53 272.51C202.48 272.73 202.34 272.94 202.14 273.09C202 273.01 201.86 272.93 201.73 272.84C201.45 272.66 201.62 272.27 201.88 272.27C201.9 272.05 202.19 271.86 202.4 272.06C202.44 272.1 202.49 272.14 202.53 272.18Z" fill="#617462"/>
<path d="M194.24 412.07L193.72 413.75C193.72 413.75 193.63 413.72 193.58 413.71C190.28 412.69 187.01 411.59 183.85 410.18C183.57 410.06 183.25 410.02 182.9 409.93C182.3 411.19 182.08 412.46 181.99 413.74C181.89 415.14 181.94 416.55 181.94 417.95C181.94 419.03 181.99 420.11 181.95 421.19C181.95 421.37 181.92 421.55 181.87 421.73C181.87 421.42 181.37 421.32 181.27 421.66C181.12 422.17 180.87 422.54 180.55 422.79C180.32 422.67 180.11 422.37 180.07 422.11C180.05 421.95 180.05 421.79 180.04 421.62C180.01 420.89 179.98 420.16 179.94 419.43C179.91 418.81 179.88 418.19 179.84 417.58C179.68 415.18 179.98 412.83 180.53 410.5C180.65 409.98 180.78 409.46 180.92 408.86C180.02 408.24 179.01 407.87 177.98 407.32C177.78 407.6 177.56 407.83 177.45 408.1C176.9 409.51 176.36 410.92 175.86 412.35C175.62 413.04 175.2 413.45 174.46 413.5C174.37 413.38 174.27 413.27 174.17 413.16C173.84 412.71 173.93 412.26 174.1 411.78C174.7 410.05 175.27 408.3 175.88 406.47C175.62 406.28 175.25 406.05 174.95 405.77C174.63 405.48 174.58 405.05 174.76 404.74C174.95 404.39 175.28 404.19 175.64 404.22C175.71 404.37 175.8 404.51 175.91 404.64C176.09 404.85 176.36 404.69 176.41 404.49C176.52 404.54 176.63 404.59 176.74 404.64C178.6 405.51 180.49 406.33 182.3 407.27C186.13 409.26 190.13 410.81 194.25 412.05L194.24 412.07Z" fill="#617462"/>
<path d="M193.49 226.43C193.39 227.21 193.32 227.85 193.23 228.49C192.96 230.42 192.65 232.34 192.4 234.27C191.82 238.66 191.26 243.06 190.68 247.45C190.63 247.86 190.48 248.26 190.36 248.68C187.64 249.02 185.01 249 182.17 249.02C182.06 247.15 181.35 245.42 181.78 243.62C182.44 243.5 182.98 243.45 183.49 243.28C183.67 243.22 183.84 242.87 183.86 242.64C184.1 242.39 184.27 242.09 184.28 241.73C184.31 241.17 184.07 240.7 183.72 240.31C184.04 239.93 183.87 239.53 183.21 239.06C183.06 239.15 182.87 239.24 182.7 239.36C182.61 239.09 182.47 238.84 182.28 238.6C182.35 238.6 182.41 238.59 182.48 238.58C182.86 238.53 183.17 238.42 183.4 238.25V238.61C183.4 239 184.01 239 184.01 238.61V238C184.01 237.85 183.92 237.76 183.82 237.73C183.99 237.32 183.94 236.8 183.62 236.24C183.54 236.1 183.42 235.99 183.29 235.83C183.52 235.7 183.77 235.59 183.98 235.44C184.69 234.92 184.8 234.32 184.2 233.67C183.8 233.24 183.31 232.89 182.82 232.56C182.38 232.26 181.88 232.05 181.48 231.84C181.31 231.12 181.17 230.5 181.02 229.87C180.68 228.5 180.34 227.14 180.5 225.71C180.5 225.63 180.52 225.54 180.5 225.46C180.79 225.39 181.07 225.35 181.37 225.34C181.49 225.34 181.66 225.32 181.82 225.34C181.82 225.37 181.82 225.39 181.82 225.42C181.85 225.61 182.13 225.81 182.35 225.91C182.53 225.99 182.77 225.92 182.99 225.91C183.64 225.91 184.29 225.86 184.93 225.89C187.52 226.01 190.11 226.15 192.7 226.29C192.91 226.3 193.12 226.37 193.52 226.44L193.49 226.43ZM192.48 227.79C192.58 227.45 192.35 227.16 192.04 227.03C191.8 226.93 191.52 226.89 191.25 226.88C188.98 226.78 186.72 226.66 184.45 226.63C183.6 226.63 182.74 226.83 181.89 226.98C181.55 227.04 181.33 227.29 181.33 227.67C181.33 228 181.57 228.22 181.97 228.24C182.13 228.24 182.29 228.23 182.46 228.23C183.92 228.23 185.37 228.23 186.83 228.23C188.23 228.3 189.63 228.38 191.04 228.44C191.36 228.45 191.7 228.48 191.99 228.38C192.2 228.3 192.41 228.03 192.48 227.8V227.79Z" fill="#F7DDC0"/>
<path d="M192.04 227.03C192.35 227.16 192.58 227.45 192.48 227.79C192.41 228.02 192.2 228.289 191.99 228.369C191.71 228.479 191.36 228.45 191.04 228.43C189.64 228.37 188.23 228.29 186.83 228.22C185.37 228.22 183.92 228.22 182.46 228.22C182.3 228.22 182.14 228.24 181.97 228.23C181.57 228.21 181.33 227.99 181.33 227.66C181.33 227.28 181.55 227.03 181.89 226.97C182.74 226.82 183.6 226.609 184.45 226.619C186.72 226.649 188.98 226.769 191.25 226.869C191.51 226.869 191.8 226.92 192.04 227.02V227.03Z" fill="#617462"/>
<path d="M183.71 240.3C184.06 240.69 184.3 241.16 184.27 241.72C184.25 242.08 184.08 242.38 183.85 242.63C183.88 242.37 183.67 242.2 183.43 242.16C183.77 241.7 183.63 241.16 183.22 240.68C183.29 240.64 183.36 240.59 183.43 240.54C183.55 240.46 183.64 240.38 183.71 240.29V240.3Z" fill="#F7DDC0"/>
<path d="M183.97 238V238.61C183.97 239 183.36 239 183.36 238.61V238.25C183.55 238.11 183.69 237.93 183.78 237.73C183.88 237.77 183.97 237.86 183.97 238Z" fill="#F7DDC0"/>
<path d="M183.43 242.17C183.67 242.21 183.87 242.38 183.85 242.64C183.67 242.83 183.45 242.99 183.22 243.12C182.88 243.31 182.57 242.78 182.92 242.6C183.15 242.47 183.32 242.33 183.44 242.18L183.43 242.17Z" fill="#617462"/>
<path d="M183.19 239.05C183.85 239.52 184.02 239.92 183.7 240.3C183.57 240.15 183.42 240.02 183.27 239.9C183.11 239.77 182.9 239.84 182.8 239.96C182.78 239.75 182.73 239.54 182.66 239.34C182.83 239.22 183.02 239.13 183.17 239.04L183.19 239.05Z" fill="#617462"/>
<path d="M183.37 238C183.37 237.75 183.61 237.66 183.79 237.73C183.7 237.93 183.57 238.11 183.37 238.25V238Z" fill="#617462"/>
<path d="M183.71 240.3C183.64 240.38 183.55 240.47 183.43 240.55C183.36 240.6 183.29 240.64 183.22 240.69C183.11 240.57 182.99 240.45 182.85 240.34L182.83 240.32C182.83 240.2 182.83 240.09 182.81 239.98C182.91 239.85 183.12 239.79 183.28 239.92C183.43 240.04 183.58 240.17 183.71 240.32V240.3Z" fill="#617462"/>
<path d="M182.97 240.82C183.03 240.87 183.07 240.94 183.06 241.03C183.03 241.43 182.84 241.77 182.77 242.15C182.57 242.15 182.37 242.15 182.16 242.16C182.21 241.87 182.33 241.61 182.4 241.32C182.27 241.3 182.19 241.21 182.16 241.09C182.44 241.04 182.71 240.94 182.96 240.81L182.97 240.82Z" fill="white"/>
<path d="M183.22 240.69C183.14 240.74 183.06 240.78 182.97 240.82C182.92 240.77 182.86 240.74 182.8 240.73C182.82 240.59 182.82 240.44 182.82 240.31L182.84 240.33C182.98 240.44 183.1 240.56 183.21 240.68L183.22 240.69Z" fill="#617462"/>
<path d="M182.8 240.74C182.86 240.74 182.92 240.78 182.97 240.83C182.71 240.96 182.44 241.05 182.17 241.11C182.17 241.06 182.16 241.01 182.17 240.96C182.25 240.49 182.26 240.06 182.14 239.66C182.32 239.58 182.5 239.48 182.68 239.37C182.75 239.57 182.8 239.77 182.82 239.99C182.74 240.09 182.72 240.23 182.84 240.33C182.84 240.47 182.84 240.61 182.82 240.75L182.8 240.74Z" fill="#617462"/>
<path d="M182.81 239.97C182.81 240.08 182.83 240.2 182.83 240.31C182.72 240.2 182.74 240.07 182.81 239.97Z" fill="#617462"/>
<path d="M182.78 242.15C182.78 242.15 182.77 242.21 182.76 242.24C182.71 242.62 182.1 242.63 182.15 242.24C182.15 242.21 182.15 242.19 182.17 242.16C182.37 242.16 182.57 242.15 182.78 242.15Z" fill="#617462"/>
<path d="M182.67 225.04C182.97 225.29 182.54 225.72 182.24 225.47C182.13 225.38 181.96 225.34 181.78 225.33C181.79 225.13 181.94 224.84 182.1 224.76C182.31 224.81 182.51 224.9 182.67 225.04Z" fill="#617462"/>
<path d="M182.67 239.35C182.5 239.47 182.32 239.57 182.13 239.64C182.04 239.34 181.88 239.07 181.63 238.81C181.57 238.75 181.54 238.68 181.54 238.62C181.78 238.62 182.01 238.6 182.24 238.58C182.43 238.82 182.57 239.07 182.66 239.34L182.67 239.35Z" fill="white"/>
<path d="M182.07 238.389C182.13 238.459 182.19 238.52 182.25 238.59C182.02 238.61 181.79 238.62 181.55 238.63C181.55 238.39 181.85 238.179 182.07 238.389Z" fill="#617462"/>
<path d="M181.87 421.72C181.81 421.97 181.72 422.2 181.6 422.4C181.47 422.63 181.1 422.79 180.81 422.84C180.73 422.86 180.63 422.84 180.55 422.79C180.87 422.54 181.12 422.17 181.27 421.66C181.37 421.32 181.86 421.42 181.87 421.73V421.72Z" fill="#617462"/>
<path d="M181.87 421.72C181.87 421.72 181.87 421.78 181.86 421.81C181.3 423.76 179.48 424.14 177.79 423.55C177.93 423.53 178.07 423.49 178.19 423.44C178.34 423.37 178.47 423.27 178.56 423.15C179.29 423.3 180.01 423.21 180.55 422.79C180.64 422.84 180.73 422.86 180.81 422.84C181.1 422.79 181.47 422.63 181.6 422.4C181.72 422.2 181.81 421.96 181.87 421.72Z" fill="#617462"/>
<path d="M182.11 224.76C181.95 224.84 181.8 225.12 181.79 225.33C181.63 225.32 181.47 225.33 181.34 225.33C181.04 225.34 180.76 225.38 180.47 225.45C180.47 225.37 180.45 225.29 180.41 225.23C180.34 225.12 180.25 224.99 180.14 224.91C180.72 224.74 181.49 224.61 182.11 224.76Z" fill="#F7DDC0"/>
<path d="M180.92 408.87C180.78 409.46 180.65 409.98 180.53 410.51C179.99 412.84 179.68 415.19 179.84 417.59C179.88 418.21 179.91 418.82 179.94 419.44H179.75C179.75 419.44 179.75 419.38 179.75 419.34C179.7 418.96 179.45 418.76 179.11 418.71C178.79 418.66 178.47 418.66 178.14 418.68C174.89 418.91 171.65 418.8 168.43 418.38C167.58 418.27 166.76 417.97 165.94 417.69C165.46 417.53 165.43 417.33 165.56 416.46C165.95 416.36 166.35 416.21 166.77 416.14C168.95 415.77 171.14 415.42 173.32 415.07C174.27 414.92 174.41 414.75 174.45 413.68V413.52C175.19 413.47 175.6 413.06 175.85 412.37C176.35 410.94 176.89 409.53 177.44 408.12C177.55 407.85 177.77 407.62 177.97 407.34C179 407.88 180.01 408.26 180.91 408.88L180.92 408.87Z" fill="white"/>
<path d="M180.4 225.23C180.44 225.29 180.45 225.37 180.46 225.45C180.34 225.48 180.23 225.51 180.11 225.54C179.73 225.66 179.58 225.07 179.95 224.96C180.01 224.94 180.07 224.92 180.14 224.91C180.25 225 180.34 225.12 180.41 225.23H180.4Z" fill="#617462"/>
<path d="M180.07 422.1C180.11 422.36 180.32 422.66 180.55 422.78C180.02 423.2 179.3 423.29 178.56 423.14C178.65 423.02 178.7 422.86 178.7 422.68C178.7 422.31 178.51 422.03 178.18 421.94C177.83 421.84 177.44 421.82 177.07 421.8C174.27 421.62 171.45 421.51 168.66 421.23C165.54 420.91 162.44 420.47 159.34 420.01C158.27 419.85 157.13 419.82 156.03 419.18C157.25 418.53 158.46 418.28 159.64 417.93C160.87 417.57 162.06 417.07 163.45 416.97C163.64 418.56 164.72 419.21 166.03 419.61C166.55 419.77 167.07 419.93 167.6 419.99C169.81 420.21 172.01 420.48 174.22 420.57C175.72 420.63 177.24 420.43 178.75 420.35C178.91 420.35 179.07 420.3 179.22 420.24C179.54 420.13 179.75 419.79 179.75 419.44H179.94C179.97 420.16 180 420.89 180.04 421.62C180.04 421.78 180.04 421.94 180.07 422.11V422.1Z" fill="#DBDBDB"/>
<path d="M179.75 419.33C179.75 419.33 179.75 419.4 179.75 419.44C179.75 419.79 179.53 420.13 179.22 420.24C179.07 420.29 178.91 420.34 178.75 420.35C177.24 420.44 175.73 420.64 174.22 420.57C172.01 420.48 169.81 420.22 167.6 419.99C167.07 419.94 166.54 419.77 166.03 419.61C164.73 419.21 163.64 418.57 163.45 416.97C162.06 417.07 160.87 417.57 159.64 417.93C158.46 418.28 157.24 418.53 156.03 419.18C157.13 419.82 158.27 419.85 159.34 420.01C162.44 420.47 165.54 420.91 168.66 421.23C171.45 421.51 174.27 421.62 177.07 421.8C177.44 421.83 177.83 421.84 178.18 421.94C178.5 422.03 178.7 422.31 178.7 422.68C178.7 422.87 178.65 423.02 178.56 423.14C178.24 423.08 177.93 422.97 177.62 422.83C177.27 422.67 176.96 423.19 177.31 423.36C177.47 423.43 177.63 423.5 177.79 423.55C177.66 423.57 177.53 423.58 177.4 423.58C176.81 423.59 176.21 423.6 175.62 423.56C173.46 423.4 171.31 423.24 169.16 423.02C166.96 422.8 164.75 422.56 162.56 422.27C160.53 421.99 158.51 421.64 156.48 421.3C155.62 421.15 154.81 420.85 154.08 420.37C153.12 419.73 153.11 418.63 154.09 417.99C154.49 417.73 154.96 417.55 155.41 417.4C158.83 416.21 162.31 415.25 165.86 414.55C167.98 414.13 170.1 413.74 172.23 413.37C172.87 413.26 173.52 413.24 174.16 413.19C174.26 413.3 174.35 413.41 174.45 413.53V413.69C174.41 414.77 174.28 414.93 173.32 415.08C171.14 415.43 168.95 415.78 166.77 416.15C166.35 416.22 165.94 416.36 165.56 416.47C165.43 417.34 165.45 417.54 165.94 417.7C166.76 417.98 167.58 418.28 168.43 418.39C171.65 418.81 174.89 418.92 178.14 418.69C178.46 418.67 178.79 418.67 179.11 418.72C179.44 418.77 179.7 418.98 179.75 419.35V419.33Z" fill="#617462"/>
<path d="M178.57 423.15C178.48 423.28 178.35 423.38 178.2 423.44C178.08 423.49 177.94 423.53 177.8 423.55C177.64 423.5 177.48 423.43 177.32 423.36C176.97 423.19 177.27 422.67 177.63 422.83C177.94 422.97 178.25 423.08 178.57 423.14V423.15Z" fill="#617462"/>
<path d="M176.32 404.22C176.4 404.31 176.41 404.41 176.39 404.5C176.21 404.42 176.02 404.34 175.83 404.28C175.76 404.26 175.69 404.24 175.62 404.24C175.5 403.99 175.44 403.72 175.4 403.44C175.52 403.58 175.69 403.68 175.88 403.73C175.94 403.75 176 403.75 176.07 403.75C176.12 403.93 176.2 404.1 176.32 404.23V404.22Z" fill="#F7DDC0"/>
<path d="M176.4 404.5C176.35 404.71 176.08 404.86 175.9 404.65C175.79 404.53 175.7 404.39 175.63 404.23C175.7 404.23 175.77 404.25 175.84 404.27C176.03 404.33 176.22 404.41 176.4 404.49V404.5Z" fill="#617462"/>
<path d="M176.07 403.74C176.01 403.74 175.95 403.74 175.88 403.72C175.69 403.67 175.52 403.57 175.4 403.43C175.34 403 175.35 402.55 175.35 402.16C175.35 401.77 175.96 401.77 175.96 402.16C175.96 402.61 175.92 403.24 176.08 403.74H176.07Z" fill="#617462"/>
<path d="M142.35 190L140.46 196.85H139.7L138.81 193.19C138.58 192.29 138.44 191.61 138.35 190.92H138.33C138.22 191.6 138.04 192.28 137.79 193.18L136.8 196.85H136.04L134.34 190H135.13L135.97 193.56C136.17 194.43 136.36 195.25 136.47 195.94H136.5C136.6 195.25 136.82 194.44 137.05 193.56L138 190H138.76L139.63 193.55C139.82 194.37 140.02 195.19 140.12 195.94H140.15C140.28 195.16 140.47 194.4 140.69 193.55L141.62 190H142.38H142.35Z" fill="white"/>
<path d="M143.58 193.28C143.89 192.83 144.44 192.45 145.16 192.45C146.3 192.45 147.07 193.31 147.07 194.6C147.07 195.89 146.31 196.96 145 196.96C143.69 196.96 142.8 195.87 142.8 194.12C142.8 192.37 143.65 190.42 145.83 190.06C146.08 190.02 146.31 190 146.46 190V190.62C144.6 190.62 143.7 191.98 143.55 193.28H143.58ZM146.31 194.65C146.31 193.61 145.75 193.01 144.94 193.01C144.13 193.01 143.54 193.78 143.54 194.29C143.54 195.52 144.07 196.37 145.01 196.37C145.79 196.37 146.31 195.67 146.31 194.65Z" fill="white"/>
<path d="M147.77 193.5C147.77 191.14 148.69 190 149.95 190C151.21 190 152.01 191.21 152.01 193.41C152.01 195.75 151.19 196.96 149.85 196.96C148.63 196.96 147.77 195.75 147.77 193.5ZM151.25 193.45C151.25 191.77 150.85 190.61 149.9 190.61C149.1 190.61 148.53 191.68 148.53 193.45C148.53 195.22 149.03 196.35 149.87 196.35C150.87 196.35 151.25 195.05 151.25 193.45Z" fill="white"/>
<path d="M159.76 195.96L159.36 196.37L156.87 193.88L154.38 196.37L153.98 195.96L156.46 193.47L153.98 190.99L154.38 190.59L156.87 193.08L159.36 190.59L159.76 190.99L157.28 193.48L159.76 195.97V195.96Z" fill="white"/>
<path d="M166.9 196.85H166.15V193.57H162.87V196.85H162.12V190H162.87V192.93H166.15V190H166.9V196.85Z" fill="white"/>
<path d="M170.01 196.85V190.81H169.99L168.88 191.45L168.7 190.89L170.1 190.11H170.74V196.85H170.01Z" fill="white"/>
<path d="M174.32 193.28C173.59 192.93 173.27 192.33 173.27 191.76C173.27 190.72 174.09 190 175.18 190C176.4 190 176.99 190.83 176.99 191.64C176.99 192.22 176.68 192.85 175.88 193.23V193.27C176.71 193.62 177.22 194.23 177.22 195.04C177.22 196.18 176.28 196.97 175.1 196.97C173.81 196.97 173.02 196.15 173.02 195.18C173.02 194.31 173.54 193.68 174.32 193.32V193.28ZM176.45 195.11C176.45 194.26 175.88 193.83 174.99 193.54C174.2 193.8 173.77 194.38 173.77 195.04C173.77 195.81 174.28 196.39 175.09 196.39C175.95 196.39 176.44 195.81 176.44 195.1L176.45 195.11ZM173.98 191.68C173.98 192.4 174.48 192.8 175.23 193.02C175.81 192.79 176.26 192.34 176.26 191.7C176.26 191.13 175.95 190.55 175.15 190.55C174.35 190.55 173.98 191.1 173.98 191.68Z" fill="white"/>
<path d="M177.95 193.5C177.95 191.14 178.87 190 180.13 190C181.39 190 182.19 191.21 182.19 193.41C182.19 195.75 181.37 196.96 180.03 196.96C178.81 196.96 177.95 195.75 177.95 193.5ZM181.43 193.45C181.43 191.77 181.02 190.61 180.08 190.61C179.28 190.61 178.71 191.68 178.71 193.45C178.71 195.22 179.2 196.35 180.05 196.35C181.05 196.35 181.43 195.05 181.43 193.45Z" fill="white"/>
<path d="M186.6 196.67C186.38 196.78 185.9 196.95 185.27 196.95C183.87 196.95 182.94 195.95 182.94 194.45C182.94 192.95 183.94 191.83 185.45 191.83C186 191.83 186.44 191.99 186.63 192.09L186.44 192.69C186.23 192.57 185.91 192.44 185.43 192.44C184.3 192.44 183.7 193.35 183.7 194.4C183.7 195.59 184.41 196.34 185.4 196.34C185.89 196.34 186.22 196.21 186.46 196.1L186.6 196.68V196.67Z" fill="white"/>
<path d="M194.32 196.85H193.58V194.01C193.58 193.05 193.24 192.44 192.5 192.44C191.9 192.44 191.35 193.01 191.35 193.75V196.84H190.61V193.81C190.61 193.03 190.28 192.43 189.58 192.43C188.94 192.43 188.37 193.06 188.37 193.82V196.83H187.63V193.18C187.63 192.68 187.61 192.32 187.59 191.91H188.25L188.29 192.7H188.32C188.59 192.22 189.04 191.8 189.81 191.8C190.45 191.8 190.94 192.2 191.15 192.78H191.17C191.49 192.2 191.99 191.8 192.75 191.8C193.35 191.8 194.31 192.19 194.31 193.87V196.82L194.32 196.85Z" fill="white"/>
<path d="M143.49 72.3301V178.07" stroke="white" stroke-width="0.96" stroke-linecap="round" stroke-linejoin="round"/>
<path d="M137.95 77.8696L143.49 72.3301L149.03 77.8696" stroke="white" stroke-width="0.96" stroke-linecap="round" stroke-linejoin="round"/>
<path d="M143.49 325.12V207.29" stroke="white" stroke-width="0.96" stroke-linecap="round" stroke-linejoin="round"/>
<path d="M149.03 319.58L143.49 325.12L137.95 319.58" stroke="white" stroke-width="0.96" stroke-linecap="round" stroke-linejoin="round"/>
<path d="M197.63 111.26L203.17 116.8L197.63 122.34" stroke="white" stroke-width="0.96" stroke-linecap="round" stroke-linejoin="round"/>
<path d="M132.41 122.34L126.87 116.8L132.41 111.26" stroke="white" stroke-width="0.96" stroke-linecap="round" stroke-linejoin="round"/>
<path d="M126.87 116.8H203.17" stroke="white" stroke-width="0.96" stroke-linecap="round" stroke-linejoin="round"/>
<path d="M354.37 2.95996H392.81V41.3999L354.37 2.95996Z" fill="#99A893"/>
<path d="M145.29 475.81C145.16 476.1 144.91 476.32 144.49 476.32C143.34 486.27 140.01 494.94 134.7 494.94C132.01 494.94 129.58 492.25 129.58 487.2C129.58 479.52 135.56 473.09 143.98 473.09C153.23 473.09 157.23 478.95 157.23 485.18C157.23 492.8 152.81 496.48 145.07 498.27C144.78 497.76 144.24 496.89 143.73 496.32C151.09 494.91 154.86 491.33 154.86 485.28C154.86 480 151.47 475.2 143.98 475.2C143.66 475.2 143.31 475.23 143.02 475.26L145.29 475.8V475.81ZM142.22 475.39C135.76 476.19 131.76 481.53 131.76 487.13C131.76 490.55 133.23 492.7 134.77 492.7C138.64 492.7 141.43 484.16 142.23 475.39H142.22Z" fill="#617462"/>
<path d="M173.84 472.42C173.74 472.71 173.42 472.93 172.98 472.93C171.86 477.25 170.96 483.33 170.96 486.95C170.96 489.32 171.09 491.59 171.31 492.77C171.69 491.43 172.97 488.23 173.87 486.21L175.28 487.52C174.16 489.86 172.21 494.11 172.21 496C172.21 496.42 172.27 496.83 172.47 497.38L170.36 497.83C169.37 495.3 168.82 491.08 168.82 486.98C168.82 482.88 169.65 477.06 170.77 471.85L173.84 472.43V472.42ZM188.14 475.55C188.04 475.74 187.82 475.87 187.56 475.87C187.53 477.09 187.62 478.65 187.78 481.63C190.15 481.44 192.61 481.09 194.28 480.57L194.54 482.68C192.84 483.13 190.35 483.45 187.88 483.64C188.01 486.17 188.17 488.86 188.26 490.33C190.5 491.29 192.74 492.7 194.79 494.39L193.61 496.37C191.88 494.87 189.93 493.49 188.3 492.66C188.4 495.28 188.04 498.23 183.21 498.23C179.66 498.23 176.97 496.66 176.97 493.78C176.97 490.9 179.85 489.33 183.24 489.33C184.17 489.33 185.13 489.49 186.12 489.75L185.77 483.73C183.31 483.89 177.93 483.83 177.61 483.83V481.85H182.66C183.65 481.85 184.68 481.85 185.64 481.79C185.51 479.42 185.38 477.12 185.32 475.42C184.39 475.45 183.27 475.52 182.34 475.52H178.12V473.5H182.44C185.96 473.5 188.97 473.34 191.5 472.92C190.96 472.25 190.35 471.58 189.74 471L190.76 470.2C192.3 471.67 193.7 473.46 194.5 474.94L193.35 475.77C193.03 475.19 192.65 474.52 192.17 473.85L192.3 474.87C190.83 475.13 189.04 475.25 187.63 475.35L188.14 475.54V475.55ZM186.25 492.99C186.25 492.61 186.25 492.57 186.19 491.77C185.17 491.39 184.14 491.16 183.21 491.16C180.81 491.16 178.92 492.06 178.92 493.78C178.92 495.5 180.74 496.4 183.11 496.4C185.48 496.4 186.25 495.25 186.25 492.98V492.99ZM196.65 474.4C195.85 472.83 194.57 471.14 193.13 469.73L194.15 468.9C195.69 470.4 197 471.94 197.8 473.57L196.65 474.4Z" fill="#617462"/>
<path d="M208.59 488.86C207.98 487.13 207.69 484.64 207.66 482.84C207.66 479.83 207.98 476.34 208.75 472.28L211.95 472.82C211.82 473.24 211.44 473.33 211.02 473.36C210.38 476.02 209.93 480.08 209.93 482.67C209.93 483.37 209.96 483.95 210.03 484.4C210.67 482.83 211.85 480.66 212.53 479.44C212.82 479.86 213.46 480.53 213.78 480.85C211.41 485.11 210.71 486.32 210.71 487.67C210.71 487.93 210.74 488.18 210.81 488.47L208.6 488.85L208.59 488.86ZM225.74 471.46C225.71 471.84 225.45 472 224.91 472.16C225.13 474.94 225.45 479.58 225.45 483.26C225.42 489.43 223.18 495 213.55 499C213.2 498.49 212.43 497.62 211.95 497.14C220.69 493.81 223.02 488.53 223.02 483.28C223.02 479.34 222.64 474.7 222.28 471.28L225.74 471.44V471.46Z" fill="#617462"/>
<path d="M247.12 482.02L248.21 482.08C248.21 482.27 248.21 482.53 248.18 482.82C247.92 493.95 247.73 497.57 246.93 498.69C246.13 499.68 245.36 499.71 243.63 499.71C243.05 499.71 242.41 499.71 241.77 499.68C241.74 499.04 241.51 498.21 241.23 497.7C242.61 497.8 243.82 497.8 244.37 497.8C244.72 497.8 244.95 497.7 245.14 497.38C245.72 496.64 245.94 493.35 246.16 484.04H242.19C241.84 490.15 240.88 495.94 238.19 499.69C237.81 499.24 237.1 498.63 236.56 498.35C239.89 493.77 240.27 485.49 240.4 477.39H236.85V475.34H242.35V470.06L245.04 470.22C245.01 470.44 244.85 470.6 244.43 470.67V475.34H249.65V477.04C251.06 475.22 252.21 472.59 252.88 469.97L255.34 470.61C255.24 470.83 255.05 470.93 254.67 470.93C254.41 471.86 254.09 472.79 253.71 473.68H266.48V475.54H252.85C252.11 476.92 251.25 478.16 250.35 479.09C250 478.77 249.26 478.23 248.81 477.97L249.35 477.39H242.44C242.41 478.93 242.38 480.49 242.31 482.03H247.11L247.12 482.02ZM256.62 494.97C256.52 495.1 256.33 495.16 256.01 495.23C254.7 496.7 252.04 498.62 249.74 499.71C249.39 499.33 248.72 498.69 248.27 498.37C250.61 497.28 253.26 495.49 254.57 493.95L256.62 494.97ZM249.16 491.84H252.74V481.79H249.76V479.97H252.74V476.93L255.36 477.09C255.33 477.31 255.14 477.47 254.75 477.54V479.97H260.86V476.93L263.48 477.09C263.45 477.31 263.29 477.47 262.87 477.54V479.97H265.72V481.79H262.87V491.84H266.45V493.66H249.14V491.84H249.16ZM260.88 481.79H254.77V484.06H260.88V481.79ZM254.76 485.63V487.93H260.87V485.63H254.76ZM254.76 489.5V491.84H260.87V489.5H254.76ZM265.04 499.71C263.82 498.46 261.33 496.45 259.31 495.07L260.81 494.05C262.79 495.36 265.32 497.28 266.6 498.56L265.03 499.71H265.04Z" fill="#617462"/>
</svg>
