<svg width="597" height="132" viewBox="0 0 597 132" fill="none" xmlns="http://www.w3.org/2000/svg">
<path d="M56.78 21.2002V24.71H43.1401L46.1401 25.4502C45.9701 25.7902 45.5701 25.96 44.9001 25.96C44.1101 27.77 42.92 30.2002 41.73 32.1802H53.78V62.6201C53.78 67.3701 51.52 67.4902 41.73 67.4902C41.5 66.4202 40.9401 64.7703 40.3701 63.7603C42.6301 63.8203 44.7801 63.8701 46.3701 63.8701C49.8201 63.8701 50.1001 63.8703 50.1001 62.5703V35.5801H38.05V40.6201C38.05 41.6401 38.2801 41.8101 39.8601 41.8101H45.46C46.65 41.8101 46.93 41.5298 47.04 39.0898C47.72 39.5998 49.08 40.1103 50.04 40.2803C49.7 43.9003 48.6802 44.8101 45.9102 44.8101H39.52C35.56 44.8101 34.6501 44.0202 34.6501 40.6802V35.5898H27.1201C26.3801 41.7598 24.0701 45.5501 15.3501 47.6401C15.0701 46.7901 14.16 45.5499 13.48 44.9199C20.67 43.4499 22.9302 40.7898 23.6602 35.5898H13.02V67.4399H9.34009V32.1899H20.8801C20.2601 30.2099 19.1299 27.5503 17.9399 25.5103L21.51 24.7202C22.87 26.8702 24.23 29.8102 24.73 31.6802L22.8601 32.1899H37.5701C38.7001 30.0999 40.0602 26.9802 40.9102 24.7202H6V21.21H29.2V14.8203L34.1802 15.1602C34.1202 15.5602 33.84 15.8399 33.05 15.8999V21.2202H56.76L56.78 21.2002ZM42.4102 61.6001H24.1301V65.0503H20.6802V47.6201H42.4102V61.6001ZM38.9001 50.6802H24.1301V58.54H38.9001V50.6802Z" fill="#617462"/>
<path d="M69.9001 67.3101V42.7002H90.4399V66.8003H86.6501V64.48H73.52V67.3101H69.9001ZM86.6401 46.3799H73.51V60.8101H86.6401V46.3799ZM108.31 16.79V36.71H79V16.79H108.31ZM104.47 33.0801V20.46H82.6899V33.0801H104.47ZM96.49 42.7002H117.71V66.8599H113.92V64.4302H100.17V67.2603H96.49V42.7002ZM100.17 60.8101H113.92V46.3799H100.17V60.8101Z" fill="#617462"/>
<path d="M175.24 29.7402C175.13 29.9702 175.01 30.25 174.73 30.48C173.99 46.77 172.41 57.0203 170.2 61.0303C167.94 64.9303 164.66 65.1001 162.79 65.1001C160.58 65.1001 156.57 64.5903 152.66 63.8003C152.77 62.6703 152.66 60.9703 152.49 59.7803C156.73 60.7403 161.09 61.1899 162.39 61.1899C164.43 61.1899 165.56 60.6803 166.75 58.5303C168.45 55.0803 169.86 45.5698 170.43 32.8398H152.32C149.49 46.3598 143.89 57.5603 133.65 65.2603C132.97 64.5203 131.5 63.45 130.43 62.77C140.22 55.41 145.37 45.7398 148.08 32.8398H132.46V29.0503H148.87C149.55 25.0303 149.89 21.4102 150.17 16.7202L155.77 17.1699C155.71 17.7899 155.2 18.1299 154.35 18.1899C154.01 22.3199 153.73 25.4303 153.11 29.0503H171.44L172.35 28.71L175.23 29.73L175.24 29.7402Z" fill="#617462"/>
<path d="M236.85 38.6299H217.73L218.69 38.9102C218.58 39.2502 218.18 39.5298 217.56 39.5898C216.03 50.1098 212.18 59.5102 200.08 65.4502C199.4 64.7102 197.99 63.3601 197.03 62.6201C208.8 56.9601 212.08 49.0399 213.38 38.6299H191.37V34.8398H236.86V38.6299H236.85ZM231.25 22.6699H196.51V18.8799H231.25V22.6699Z" fill="#617462"/>
<path d="M292.29 25.5V63.1201H288.16V60.0703H252.63V56.2202H288.16V29.29H253.25V25.5H292.29ZM286.35 14.6899C289.01 16.8399 292.06 20.3498 293.76 22.8398L291.55 24.54C289.91 21.94 286.91 18.5402 284.36 16.4502L286.34 14.7002L286.35 14.6899ZM293.65 13C296.31 15.15 299.36 18.5398 301.01 21.0898L298.86 22.79C297.16 20.19 294.22 16.8503 291.67 14.7603L293.65 13.0103V13Z" fill="#617462"/>
<path d="M314.75 47.6802V20.1802L320.13 20.52C320.07 21.03 319.68 21.43 318.77 21.54V47.6802H314.75ZM346.27 17.98C346.21 18.55 345.82 18.8299 344.91 18.9399V36.9302C344.91 48.8102 340.84 59.68 324.6 65.96C324.03 65.11 322.62 63.6399 321.66 62.8999C337.33 57.0699 340.84 47.4002 340.84 36.9302V17.6401L346.27 17.98Z" fill="#617462"/>
<path d="M382.81 17.52C382.7 18.2 382.02 18.48 380.94 18.54C380.32 21.71 379.3 27.1998 378.62 30.5898C381.17 30.3098 383.49 30.0801 384.9 30.0801C393.5 29.9701 396.44 35.6799 396.44 44.1699C396.44 48.4099 395.65 53.4498 394.52 56.8398C392.77 62.6098 389.14 65.3799 384.45 65.3799C382.13 65.3799 379.07 64.42 374.21 60.46C374.83 59.44 375.29 58.2003 375.74 57.0103C380.27 60.5203 382.64 61.3101 384.4 61.3101C387.62 61.3101 389.55 59.2699 390.68 55.6499C391.87 52.1399 392.49 46.9403 392.49 44.0503C392.43 37.6003 390.34 33.7501 384.68 33.8101C382.98 33.8101 380.66 34.0399 377.78 34.3799C374.95 45.9199 371.61 55.8202 366.18 64.9302L362.45 63.1201C367.94 54.3501 371.05 45.5801 373.71 34.8301C370.82 35.1701 366.69 35.6799 363.64 36.1899L363.3 32.23C366.07 31.89 370.71 31.3802 374.5 30.9302C375.35 26.8002 376.25 21.71 376.93 16.73L382.81 17.52ZM409.01 44.7402C407.2 36.4802 401.82 29.4601 396.28 25.3901L399.33 23.0103C405.33 27.2503 411.27 35.0599 413.08 43.1499L409.01 44.73V44.7402Z" fill="#617462"/>
<path d="M434.57 26.9702C434.34 27.5402 433.89 27.8202 433.1 27.9302C432.65 36.3002 431.57 43.4301 430.78 44.6201H430.84C436.38 40.4901 445.04 37.6602 451.66 37.6602C460.37 37.6602 465.8 42.1303 465.69 50.0503C465.52 60.4603 456.92 65.1003 435.02 66.0103C434.74 64.9303 434.23 63.3503 433.61 62.2803C453.36 61.4303 461.28 58.2101 461.45 50.1201C461.51 44.6901 457.72 41.4102 451.1 41.4102C440.63 41.4102 431.18 47.69 429.6 50.46L425.75 48.5898C426.88 47.5098 428.86 37.3903 428.98 26.3003L434.58 26.98L434.57 26.9702ZM435.54 16C443.23 16.91 451.95 18.66 457.49 20.98L456.08 24.8799C450.25 22.3899 441.82 20.75 434.35 19.73L435.54 16Z" fill="#617462"/>
<path d="M495.96 43.6099L489.34 45.7603V62.79C489.34 66.98 487.47 67.4901 480.34 67.3701C480.23 66.4601 479.72 64.8801 479.21 63.8101C480.74 63.8701 482.15 63.9199 483.17 63.9199C485.49 63.9199 485.77 63.92 485.77 62.79V46.8901L479.89 48.7002C479.83 49.1502 479.49 49.4399 479.1 49.6099L477.74 45.25C479.95 44.68 482.72 43.9501 485.77 43.1001V30.2002H478.3V26.6299H485.77V14.8101L490.47 15.0898C490.41 15.5398 490.13 15.7699 489.34 15.8799V26.6299H496.19V30.2002H489.34V42.1401L495.51 40.3901L495.96 43.6201V43.6099ZM529.96 47.8501H516.95C520.4 53.3901 526.06 58.83 531.32 61.54C530.41 62.22 529.23 63.52 528.66 64.48C523.51 61.37 517.97 55.6502 514.29 49.6602V67.3701H510.56V49.8901C506.94 56.1701 501.34 61.72 495.62 64.77C495.05 63.86 493.92 62.5101 493.07 61.8301C498.84 59.1701 504.5 53.7901 507.95 47.8501H496.12V44.3398H510.55V38L515.42 38.2803C515.36 38.6803 515.02 38.9603 514.29 39.0703V44.3301H529.96V47.8398V47.8501ZM510.84 23.0703C510.73 23.4703 510.44 23.7501 509.76 23.8101C508.97 31.7901 506.87 37.2801 497.71 40.3301C497.31 39.4801 496.41 38.1801 495.67 37.5601C503.87 35.0701 505.74 30.4302 506.31 22.6802L510.84 23.0801V23.0703ZM500.82 20.8003V27.5898H497.48V17.46H529.16V27.9302H525.71V20.8003H500.82ZM515.48 22.3301L520.01 22.6699C519.95 23.0699 519.67 23.2902 518.94 23.4102V33.5898C518.94 34.8298 519.22 35 520.75 35H525.79C527.04 35 527.32 34.4299 527.43 30.4199C528.17 30.9899 529.52 31.5002 530.49 31.7202C530.15 36.8702 529.19 38.1099 526.25 38.1099H520.31C516.35 38.1099 515.5 37.1501 515.5 33.6401V22.3203L515.48 22.3301Z" fill="#617462"/>
<path d="M568.2 24.1401C568.14 22.9001 567.97 16.7301 567.86 15.3101L573.69 15.54C573.63 15.99 573.24 16.56 572.22 16.73C572.22 17.41 572.22 18.0903 572.33 24.0303C579.29 23.8003 586.59 23.6301 590.83 23.5801V27.48C586.02 27.37 579.17 27.48 572.44 27.71C572.55 32.12 572.67 36.2001 572.84 39.3101C573.41 41.1801 573.52 42.88 573.52 45.25C573.52 47.06 573.35 49.1502 572.95 50.7402C571.48 57.3602 566.61 63.1899 556.66 67.1499C555.92 66.1899 554.68 64.7699 553.77 63.9199C562.43 60.8099 567.07 56.1102 568.48 50.7402H568.42C567.23 52.4402 565.14 53.7402 562.59 53.7402C557.55 53.7402 553.09 49.6098 553.09 43.8398C553.03 37.8398 557.9 33.2603 563.27 33.2603C565.31 33.2603 567.4 34.0003 568.53 35.0103C568.53 34.0503 568.42 30.2603 568.3 27.8203C562.42 27.9303 544.54 28.5599 542.22 28.6699L542.11 24.9399L555.01 24.6001L568.19 24.1499L568.2 24.1401ZM569.28 44C569.28 41.79 569.28 36.6401 563.51 36.6401C559.61 36.7001 556.83 39.7001 556.78 43.8301C556.78 47.7901 559.78 50.3901 563.06 50.3901C567.08 50.3901 569.28 47.28 569.28 44Z" fill="#617462"/>
<path d="M145.445 111.84C151.167 111.84 155.805 107.202 155.805 101.48C155.805 95.7583 151.167 91.1201 145.445 91.1201C139.723 91.1201 135.085 95.7583 135.085 101.48C135.085 107.202 139.723 111.84 145.445 111.84Z" stroke="#617462" stroke-width="2.05" stroke-linecap="round" stroke-linejoin="round"/>
<path d="M139.075 99.8901C139.355 98.7701 139.925 97.7101 140.805 96.8301" stroke="#617462" stroke-width="1.74" stroke-linecap="round" stroke-linejoin="round"/>
<path d="M152.775 108.8L160.445 116.48" stroke="#617462" stroke-width="2.05" stroke-linecap="round" stroke-linejoin="round"/>
<path d="M179.865 88.4001C185.035 88.4001 187.505 90.36 187.505 94.05C187.505 96.36 185.995 98.48 183.845 98.99C186.635 99.5 188.215 101.37 188.215 104.19C188.215 107.4 186.255 110.55 180.575 110.55H173.095V88.4001H179.865ZM175.855 97.8H180.345C183.455 97.8 184.745 96.2303 184.745 94.0403C184.745 92.0803 183.745 90.8601 179.865 90.8601H175.855V97.7903V97.8ZM175.855 108.05H180.575C183.915 108.05 185.455 106.6 185.455 104.2C185.455 101.53 183.725 100.32 180.065 100.32H175.855V108.06V108.05Z" fill="#617462"/>
<path d="M201.895 97.9602C201.225 97.0302 200.385 96.6101 199.195 96.6101C197.235 96.6101 195.765 98.09 195.765 100.49V110.54H193.195V94.49H195.765V96.0603C196.435 94.9403 197.535 94.2302 199.485 94.2302C201.665 94.2302 203.045 94.9699 204.075 96.4099L201.895 97.95V97.9602Z" fill="#617462"/>
<path d="M219.995 103.55C219.995 107.72 217.945 110.81 213.315 110.81C209.045 110.81 206.635 107.98 206.635 103.55V101.43C206.635 96.8699 209.105 94.24 213.315 94.24C217.525 94.24 219.995 96.8399 219.995 101.43V103.55ZM217.425 103.55V101.43C217.425 98.3799 215.945 96.55 213.315 96.55C210.685 96.55 209.205 98.4099 209.205 101.43V103.55C209.205 106.31 210.365 108.49 213.315 108.49C216.045 108.49 217.425 106.27 217.425 103.55Z" fill="#617462"/>
<path d="M230.105 110.55H227.855L223.195 94.5002H225.925L229.135 105.77L233.175 94.5002H235.325L239.595 105.87L242.805 94.5002H245.535L240.875 110.55H238.625L234.355 98.5403L230.085 110.55H230.105Z" fill="#617462"/>
<path d="M258.585 98.2502C257.715 97.1302 256.815 96.6101 254.605 96.6101C252.715 96.6101 251.495 97.35 251.495 98.76C251.495 100.59 253.105 101.14 255.215 101.3C258.235 101.52 260.995 102.39 260.995 106.08C260.995 108.87 259.105 110.8 254.955 110.8C251.685 110.8 249.975 109.8 248.755 108.13L250.645 106.78C251.515 107.94 252.665 108.42 254.975 108.42C257.125 108.42 258.405 107.59 258.405 106.14C258.405 104.41 257.375 103.8 254.265 103.57C251.565 103.38 248.905 102.29 248.905 98.7903C248.905 96.1203 250.835 94.2302 254.655 94.2302C257.255 94.2302 259.245 94.9001 260.495 96.9001L258.565 98.2502H258.585Z" fill="#617462"/>
<path d="M277.815 108.11C276.695 110.07 274.985 110.81 272.195 110.81C267.895 110.81 265.325 108.02 265.325 103.55V101.43C265.325 96.8699 267.475 94.24 271.685 94.24C275.895 94.24 278.045 96.8399 278.045 101.43V103.1H267.905V103.55C267.905 106.31 269.225 108.49 272.015 108.49C274.105 108.49 275.165 107.88 275.835 106.69L277.825 108.1L277.815 108.11ZM267.895 100.85H275.435C275.305 98.1503 274.115 96.55 271.675 96.55C269.235 96.55 268.045 98.1903 267.885 100.85H267.895Z" fill="#617462"/>
<path d="M295.595 96.1003C296.465 94.9103 297.845 94.24 299.965 94.24C303.945 94.24 306.385 96.8399 306.385 101.43V103.55C306.385 107.72 304.335 110.81 299.965 110.81C297.815 110.81 296.465 110.26 295.595 109.14V110.55H293.025V88.4001H295.595V96.1101V96.1003ZM303.815 103.55V101.43C303.815 98.3799 302.335 96.55 299.705 96.55C297.075 96.55 295.595 98.3202 295.595 101.21V103.55C295.595 106.31 296.755 108.49 299.705 108.49C302.435 108.49 303.815 106.27 303.815 103.55Z" fill="#617462"/>
<path d="M315.725 110.71L309.435 94.5002H312.195L316.975 106.96L321.185 94.5002H323.915L318.265 111.07C316.945 114.92 316.085 116.66 311.585 116.66V114.16C313.705 114.16 314.695 113.81 315.665 110.95L315.725 110.73V110.71Z" fill="#617462"/>
<path d="M350.365 95.3C349.595 91.83 347.825 90.6404 345.105 90.6404C341.705 90.6404 339.835 92.7602 339.835 98.2502V100.69C339.835 106.18 341.695 108.3 345.105 108.3C347.995 108.3 349.635 106.89 350.365 103.64H353.035C352.325 108.62 349.315 110.8 345.105 110.8C340.195 110.8 337.075 107.85 337.075 100.69V98.2502C337.075 91.0902 340.185 88.1404 345.105 88.1404C349.475 88.1404 352.355 90.45 353.065 95.3H350.365Z" fill="#617462"/>
<path d="M362.915 101.27H366.735V99.4099C366.735 97.1299 365.675 96.6204 363.175 96.6204C361.245 96.6204 360.225 96.78 359.325 98.26L357.395 96.9099C358.515 95.0499 360.155 94.24 363.205 94.24C367.285 94.24 369.305 95.5599 369.305 99.4099V110.55H366.735V108.98C365.835 110.46 364.745 110.81 362.655 110.81C358.935 110.81 356.905 108.98 356.905 105.87C356.905 102.4 359.375 101.28 362.905 101.28L362.915 101.27ZM366.735 103.45H362.915C360.375 103.45 359.475 104.32 359.475 105.92C359.475 107.72 360.755 108.42 362.655 108.42C365.035 108.42 366.735 107.97 366.735 104.38V103.45Z" fill="#617462"/>
<path d="M373.675 94.5002H375.725V90.97H378.295V94.5002H381.985V96.8103H378.295V104.97C378.295 107.18 378.555 108.12 380.705 108.12H381.985V110.56H380.605C376.815 110.56 375.725 108.95 375.725 105.62V96.8201H373.675V94.51V94.5002Z" fill="#617462"/>
<path d="M398.485 108.11C397.365 110.07 395.655 110.81 392.865 110.81C388.565 110.81 385.995 108.02 385.995 103.55V101.43C385.995 96.8699 388.145 94.24 392.355 94.24C396.565 94.24 398.715 96.8399 398.715 101.43V103.1H388.565V103.55C388.565 106.31 389.885 108.49 392.675 108.49C394.765 108.49 395.825 107.88 396.495 106.69L398.485 108.1V108.11ZM388.565 100.85H396.105C395.975 98.1503 394.785 96.55 392.345 96.55C389.905 96.55 388.715 98.1903 388.555 100.85H388.565Z" fill="#617462"/>
<path d="M414.055 94.5002H416.625V110.23C416.625 114.69 414.055 116.84 409.755 116.84C406.965 116.84 405.255 116.1 404.135 114.14L406.125 112.73C406.795 113.92 407.855 114.53 409.945 114.53C412.735 114.53 414.055 112.99 414.055 110.23V109.14C413.185 110.26 411.805 110.81 409.685 110.81C405.315 110.81 403.265 107.73 403.265 103.55V101.43C403.265 96.8399 405.705 94.24 409.685 94.24C411.805 94.24 413.185 94.9103 414.055 96.1003V94.49V94.5002ZM414.055 103.55V101.43C414.055 98.4099 412.575 96.55 409.945 96.55C407.315 96.55 405.835 98.3799 405.835 101.43V103.55C405.835 106.28 407.215 108.49 409.945 108.49C412.895 108.49 414.055 106.31 414.055 103.55Z" fill="#617462"/>
<path d="M434.955 103.55C434.955 107.72 432.905 110.81 428.275 110.81C424.005 110.81 421.595 107.98 421.595 103.55V101.43C421.595 96.8699 424.065 94.24 428.275 94.24C432.485 94.24 434.955 96.8399 434.955 101.43V103.55ZM432.385 103.55V101.43C432.385 98.3799 430.905 96.55 428.275 96.55C425.645 96.55 424.165 98.4099 424.165 101.43V103.55C424.165 106.31 425.325 108.49 428.275 108.49C431.005 108.49 432.385 106.27 432.385 103.55Z" fill="#617462"/>
<path d="M448.635 97.9602C447.965 97.0302 447.125 96.6101 445.935 96.6101C443.975 96.6101 442.495 98.09 442.495 100.49V110.54H439.925V94.49H442.495V96.0603C443.165 94.9403 444.265 94.2302 446.215 94.2302C448.395 94.2302 449.775 94.9699 450.805 96.4099L448.625 97.95L448.635 97.9602Z" fill="#617462"/>
<path d="M458.545 110.71L452.255 94.5002H455.015L459.795 106.96L464.005 94.5002H466.735L461.085 111.07C459.765 114.92 458.905 116.66 454.405 116.66V114.16C456.525 114.16 457.515 113.81 458.485 110.95L458.545 110.73V110.71Z" fill="#617462"/>
</svg>
