<svg width="394" height="556" viewBox="0 0 394 556" fill="none" xmlns="http://www.w3.org/2000/svg">
<path d="M392.297 1.45996H2.70679V554.77H392.297V1.45996Z" fill="white"/>
<path d="M391.797 1.95996V554.27H3.20679V1.95996H391.797ZM392.797 0.959961H2.20679V555.27H392.797V0.959961Z" fill="#99A893"/>
<path d="M342.347 170.59V165.44H342.337L341.397 165.98L341.247 165.5L342.437 164.83H342.977V170.58H342.357L342.347 170.59Z" fill="#617462"/>
<path d="M346.027 167.54C345.407 167.24 345.127 166.73 345.127 166.24C345.127 165.35 345.827 164.74 346.757 164.74C347.797 164.74 348.297 165.45 348.297 166.14C348.297 166.63 348.037 167.17 347.357 167.5V167.53C348.067 167.83 348.497 168.34 348.497 169.03C348.497 170 347.697 170.67 346.687 170.67C345.587 170.67 344.917 169.97 344.917 169.14C344.917 168.39 345.367 167.86 346.027 167.56V167.53V167.54ZM347.847 169.11C347.847 168.39 347.367 168.02 346.607 167.77C345.927 167.99 345.567 168.48 345.567 169.05C345.567 169.7 346.007 170.2 346.697 170.2C347.437 170.2 347.847 169.7 347.847 169.1V169.11ZM345.737 166.18C345.737 166.79 346.167 167.13 346.807 167.32C347.307 167.13 347.687 166.74 347.687 166.19C347.687 165.71 347.417 165.21 346.747 165.21C346.077 165.21 345.747 165.68 345.747 166.18H345.737Z" fill="#617462"/>
<path d="M349.127 167.73C349.127 165.72 349.907 164.74 350.987 164.74C352.067 164.74 352.747 165.77 352.747 167.65C352.747 169.65 352.046 170.68 350.906 170.68C349.866 170.68 349.137 169.65 349.137 167.73H349.127ZM352.097 167.69C352.097 166.25 351.747 165.26 350.947 165.26C350.267 165.26 349.777 166.17 349.777 167.69C349.777 169.21 350.197 170.16 350.917 170.16C351.767 170.16 352.087 169.05 352.087 167.69H352.097Z" fill="#617462"/>
<path d="M356.507 170.44C356.327 170.53 355.907 170.68 355.367 170.68C354.167 170.68 353.377 169.83 353.377 168.55C353.377 167.27 354.227 166.32 355.517 166.32C355.987 166.32 356.357 166.46 356.517 166.54L356.357 167.05C356.177 166.95 355.907 166.84 355.497 166.84C354.527 166.84 354.027 167.62 354.027 168.51C354.027 169.52 354.637 170.16 355.477 170.16C355.897 170.16 356.177 170.04 356.387 169.95L356.507 170.44Z" fill="#617462"/>
<path d="M363.087 170.59H362.457V168.17C362.457 167.36 362.167 166.83 361.537 166.83C361.027 166.83 360.557 167.31 360.557 167.95V170.58H359.927V168C359.927 167.33 359.647 166.83 359.047 166.83C358.507 166.83 358.017 167.37 358.017 168.02V170.58H357.387V167.47C357.387 167.04 357.377 166.73 357.357 166.39H357.917L357.957 167.07H357.977C358.207 166.66 358.587 166.3 359.247 166.3C359.787 166.3 360.217 166.64 360.387 167.14H360.406C360.686 166.64 361.107 166.3 361.747 166.3C362.257 166.3 363.077 166.63 363.077 168.06V170.58L363.087 170.59Z" fill="#617462"/>
<path d="M324.977 167.77V421.37" stroke="#899284" stroke-width="0.96" stroke-miterlimit="10"/>
<path d="M264.107 167.77H336.467" stroke="#899284" stroke-width="0.96" stroke-miterlimit="10"/>
<path d="M298.647 421.37H336.467" stroke="#899284" stroke-width="0.96" stroke-miterlimit="10"/>
<path d="M242.017 58.54H78.7366V385.09H242.017V58.54Z" fill="#96BBA0" stroke="white" stroke-width="0.2" stroke-miterlimit="10"/>
<path d="M78.7268 380.81H75.7869V384.8H78.7268V380.81Z" fill="#C2CCC3" stroke="white" stroke-width="0.2" stroke-miterlimit="10"/>
<path d="M68.6565 380.97C68.4365 381.01 68.3469 381.18 68.3469 381.42V384.19C68.3469 384.43 68.4365 384.6 68.6565 384.64C68.8765 384.68 71.2966 385.09 71.7966 385.09H75.7966V380.52H71.7966C71.2866 380.52 68.8765 380.93 68.6565 380.97ZM71.387 384.59C71.387 384.59 69.2965 384.33 69.1765 384.31C69.0565 384.28 68.8469 384.27 68.8469 383.96V381.67C68.8469 381.35 69.0565 381.34 69.1765 381.32C69.2965 381.29 71.387 381.04 71.387 381.04V384.6V384.59Z" fill="#C2CCC3" stroke="white" stroke-width="0.2" stroke-miterlimit="10"/>
<path d="M244.997 380.81H242.057V384.8H244.997V380.81Z" fill="#C2CCC3" stroke="white" stroke-width="0.2" stroke-miterlimit="10"/>
<path d="M248.997 380.52H244.997V385.09H248.997C249.507 385.09 251.917 384.68 252.137 384.64C252.357 384.6 252.447 384.43 252.447 384.19V381.42C252.447 381.18 252.357 381.01 252.137 380.97C251.917 380.93 249.497 380.52 248.997 380.52ZM249.406 381.02C249.406 381.02 251.497 381.28 251.617 381.3C251.737 381.33 251.947 381.34 251.947 381.65V383.94C251.947 384.26 251.737 384.27 251.617 384.29C251.497 384.32 249.406 384.57 249.406 384.57V381.01V381.02Z" fill="#C2CCC3" stroke="white" stroke-width="0.2" stroke-miterlimit="10"/>
<path d="M78.7268 58.8198H75.7869V62.8101H78.7268V58.8198Z" fill="#C2CCC3" stroke="white" stroke-width="0.2" stroke-miterlimit="10"/>
<path d="M68.6565 58.9897C68.4365 59.0297 68.3469 59.1999 68.3469 59.4399V62.21C68.3469 62.45 68.4365 62.6197 68.6565 62.6597C68.8765 62.6997 71.2966 63.1099 71.7966 63.1099H75.7966V58.54H71.7966C71.2866 58.54 68.8765 58.9497 68.6565 58.9897ZM71.387 62.5996C71.387 62.5996 69.2965 62.3401 69.1765 62.3101C69.0565 62.2801 68.8469 62.27 68.8469 61.96V59.6699C68.8469 59.3499 69.0565 59.3398 69.1765 59.3198C69.2965 59.2898 71.387 59.0298 71.387 59.0298V62.5996Z" fill="#C2CCC3" stroke="white" stroke-width="0.2" stroke-miterlimit="10"/>
<path d="M244.997 58.8198H242.057V62.8101H244.997V58.8198Z" fill="#C2CCC3" stroke="white" stroke-width="0.2" stroke-miterlimit="10"/>
<path d="M248.997 58.54H244.997V63.1099H248.997C249.507 63.1099 251.917 62.6997 252.137 62.6597C252.357 62.6197 252.447 62.45 252.447 62.21V59.4399C252.447 59.1999 252.357 59.0297 252.137 58.9897C251.917 58.9497 249.497 58.54 248.997 58.54ZM249.406 59.04C249.406 59.04 251.497 59.3001 251.617 59.3301C251.737 59.3601 251.947 59.3697 251.947 59.6797V61.9697C251.947 62.2897 251.737 62.2998 251.617 62.3198C251.497 62.3498 249.406 62.6099 249.406 62.6099V59.04Z" fill="#C2CCC3" stroke="white" stroke-width="0.2" stroke-miterlimit="10"/>
<path d="M78.7366 71.23H242.007" stroke="white" stroke-width="0.5" stroke-dasharray="3 3"/>
<path d="M78.7366 372.39H242.007" stroke="white" stroke-width="0.5" stroke-dasharray="3 3"/>
<path d="M240.237 385.09V58.54" stroke="white" stroke-width="0.5" stroke-dasharray="3 3"/>
<path d="M80.5466 385.09V58.54" stroke="white" stroke-width="0.5" stroke-dasharray="3 3"/>
<path d="M137.927 160.89L136.037 167.74H135.267L134.377 164.08C134.157 163.18 134.007 162.5 133.917 161.81H133.897C133.787 162.49 133.607 163.17 133.357 164.07L132.367 167.74H131.597L129.897 160.89H130.687L131.527 164.45C131.727 165.32 131.917 166.14 132.027 166.83H132.057C132.157 166.14 132.377 165.33 132.607 164.45L133.557 160.89H134.317L135.177 164.44C135.367 165.26 135.567 166.08 135.667 166.83H135.697C135.837 166.05 136.017 165.29 136.237 164.44L137.167 160.89H137.937H137.927Z" fill="white"/>
<path d="M141.867 164.55C141.497 165.02 140.977 165.3 140.317 165.3C139.167 165.3 138.457 164.4 138.457 163.26C138.457 162.03 139.267 160.89 140.587 160.89C141.907 160.89 142.647 161.99 142.647 163.71C142.647 165.95 141.517 167.51 139.787 167.78C139.467 167.83 139.187 167.85 138.987 167.84V167.22C139.177 167.24 139.397 167.22 139.677 167.17C140.807 167.01 141.667 166.09 141.887 164.55H141.857H141.867ZM139.207 163.21C139.207 164.12 139.717 164.73 140.497 164.73C141.227 164.73 141.897 164.17 141.897 163.63C141.897 162.33 141.417 161.46 140.527 161.46C139.747 161.46 139.217 162.2 139.217 163.21H139.207Z" fill="white"/>
<path d="M143.357 164.39C143.357 162.03 144.277 160.89 145.537 160.89C146.797 160.89 147.597 162.1 147.597 164.3C147.597 166.64 146.777 167.85 145.437 167.85C144.217 167.85 143.357 166.64 143.357 164.39ZM146.837 164.34C146.837 162.66 146.437 161.5 145.487 161.5C144.687 161.5 144.117 162.57 144.117 164.34C144.117 166.11 144.617 167.24 145.457 167.24C146.457 167.24 146.837 165.94 146.837 164.34Z" fill="white"/>
<path d="M155.347 166.85L154.947 167.26L152.457 164.77L149.977 167.26L149.577 166.85L152.067 164.36L149.577 161.88L149.977 161.48L152.457 163.97L154.947 161.48L155.347 161.88L152.857 164.37L155.347 166.86V166.85Z" fill="white"/>
<path d="M162.487 167.74H161.737V164.46H158.457V167.74H157.707V160.89H158.457V163.82H161.737V160.89H162.487V167.74Z" fill="white"/>
<path d="M165.597 167.74V161.7H165.577L164.467 162.34L164.287 161.78L165.687 161H166.327V167.74H165.597Z" fill="white"/>
<path d="M169.906 164.16C169.176 163.81 168.857 163.21 168.857 162.64C168.857 161.6 169.677 160.88 170.767 160.88C171.987 160.88 172.577 161.71 172.577 162.52C172.577 163.1 172.267 163.73 171.467 164.11V164.15C172.297 164.5 172.807 165.11 172.807 165.92C172.807 167.06 171.867 167.85 170.687 167.85C169.397 167.85 168.607 167.03 168.607 166.06C168.607 165.19 169.127 164.56 169.917 164.2V164.16H169.906ZM172.037 166C172.037 165.15 171.467 164.72 170.577 164.43C169.787 164.69 169.357 165.27 169.357 165.93C169.357 166.7 169.867 167.28 170.677 167.28C171.537 167.28 172.027 166.7 172.027 165.99L172.037 166ZM169.567 162.57C169.567 163.29 170.067 163.69 170.817 163.91C171.397 163.68 171.847 163.23 171.847 162.59C171.847 162.02 171.527 161.44 170.737 161.44C169.947 161.44 169.567 161.99 169.567 162.57Z" fill="white"/>
<path d="M173.537 164.39C173.537 162.03 174.457 160.89 175.717 160.89C176.977 160.89 177.777 162.1 177.777 164.3C177.777 166.64 176.957 167.85 175.617 167.85C174.397 167.85 173.537 166.64 173.537 164.39ZM177.017 164.34C177.017 162.66 176.617 161.5 175.667 161.5C174.867 161.5 174.297 162.57 174.297 164.34C174.297 166.11 174.797 167.24 175.637 167.24C176.637 167.24 177.017 165.94 177.017 164.34Z" fill="white"/>
<path d="M182.187 167.56C181.967 167.67 181.487 167.84 180.857 167.84C179.457 167.84 178.527 166.84 178.527 165.34C178.527 163.84 179.527 162.72 181.037 162.72C181.587 162.72 182.027 162.88 182.217 162.98L182.027 163.58C181.817 163.46 181.497 163.33 181.017 163.33C179.887 163.33 179.287 164.24 179.287 165.29C179.287 166.48 179.997 167.23 180.987 167.23C181.477 167.23 181.807 167.1 182.047 166.99L182.177 167.57L182.187 167.56Z" fill="white"/>
<path d="M189.906 167.74H189.167V164.9C189.167 163.94 188.827 163.33 188.087 163.33C187.487 163.33 186.937 163.9 186.937 164.64V167.73H186.197V164.7C186.197 163.92 185.867 163.32 185.167 163.32C184.527 163.32 183.957 163.95 183.957 164.71V167.72H183.217V164.07C183.217 163.57 183.197 163.21 183.177 162.8H183.837L183.877 163.59H183.906C184.176 163.11 184.627 162.69 185.397 162.69C186.037 162.69 186.527 163.09 186.737 163.67H186.757C187.077 163.09 187.577 162.69 188.337 162.69C188.937 162.69 189.897 163.08 189.897 164.76V167.71L189.906 167.74Z" fill="white"/>
<path d="M205.417 209.28C205.917 210.01 205.787 210.71 205.737 211.37C205.517 214.3 205.367 217.24 204.977 220.15C204.767 221.75 204.507 223.35 204.337 224.96C204.177 226.51 203.897 228.06 203.657 229.72C200.937 230.45 198.167 230.41 195.367 230.34C194.787 229.33 194.737 228.32 194.797 227.26C194.817 226.99 194.837 226.71 194.857 226.43C197.187 224.53 197.227 224.45 196.497 222.39C197.047 221.53 197.547 220.56 196.827 219.45C196.717 219.29 196.817 218.91 196.937 218.69C197.287 218.03 197.337 217.4 196.937 216.75C196.677 216.33 196.957 216.01 197.107 215.63C197.587 214.41 197.237 213.66 196.027 213.24C195.587 213.09 195.097 213.05 194.627 212.99C194.357 212.95 194.077 212.97 193.807 212.96C193.547 212.94 193.277 212.91 192.907 212.87C192.617 211.74 192.327 210.66 192.587 209.44C192.907 209.37 193.157 209.27 193.417 209.27C197.437 209.28 201.457 209.31 205.417 209.33V209.28Z" fill="#DBDBDB"/>
<path d="M249.797 174.02C249.377 173.98 249.037 174.19 248.817 174.56C248.337 174.4 247.827 174.24 247.317 174.11C247.627 173.85 247.967 173.61 248.347 173.41C248.587 173.28 248.667 172.86 248.757 172.68C248.717 171.78 247.837 171.24 247.057 171.61C246.057 172.08 245.237 172.77 244.607 173.64C242.977 173.56 241.437 173.94 240.267 175.23C239.837 175.23 239.437 175.47 239.277 175.89C239.107 176.33 239.087 176.86 238.837 177.24C237.907 178.68 237.097 180.16 236.637 181.89C235.887 181.77 235.237 181.66 234.587 181.56C233.777 179.45 233.957 177.44 234.387 175.4C234.697 173.97 235.287 172.81 236.867 172.46C236.997 172.43 237.127 172.37 237.237 172.3C237.607 172.06 237.856 171.66 237.716 171.27C237.626 171.04 237.457 170.76 237.257 170.58C237.917 170.34 238.566 169.97 239.156 169.54C239.266 169.79 239.447 169.99 239.707 170.11C240.207 170.36 240.746 170.15 241.176 169.4C241.456 168.91 241.687 168.36 242.277 168.28C244.607 167.95 246.927 167.84 249.057 169.14C251.177 170.44 252.987 172.11 254.607 173.99C255.147 174.61 255.557 175.3 255.557 176.16C254.627 176.36 254.636 176.35 254.196 176.12C253.056 175.51 251.897 174.9 250.737 174.32C250.437 174.17 250.097 174.06 249.767 174.03L249.797 174.02Z" fill="#DBDBDB"/>
<path d="M247.917 191.74H250.137C249.537 192.48 249.217 192.87 248.897 193.26C248.277 192.87 247.847 192.49 247.907 191.74H247.917Z" fill="white"/>
<path d="M253.347 181.76C252.837 181.79 252.457 182.18 252.457 182.68C252.457 183.09 252.807 183.42 253.247 183.44C253.747 183.46 254.117 183.08 254.117 182.53C254.117 182.08 253.777 181.74 253.357 181.76H253.347ZM252.797 184.9C252.037 184.17 251.607 183.3 251.437 182.26C251.407 182.1 251.027 181.89 250.807 181.88C250.577 181.88 250.207 182.05 250.147 182.23C250.007 182.66 249.886 183.16 249.986 183.58C250.136 184.23 250.477 184.83 250.787 185.58C250.597 186.23 250.396 186.8 250.256 187.39C250.156 187.84 250.427 188.33 250.797 188.33C251.097 188.33 251.546 188.23 251.676 188.02C252.126 187.27 252.487 186.47 252.827 185.66C252.917 185.45 252.917 185.04 252.787 184.9H252.797ZM235.906 188.06C235.396 188.02 234.987 187.77 234.797 187.28C234.387 186.21 234.377 185.17 235.087 184.22C236.067 184.48 236.077 184.47 236.797 185.25C237.087 185.57 237.427 185.82 237.867 185.7C238.357 185.56 238.697 185.22 238.747 184.68C238.777 184.34 238.787 184 238.787 183.65C238.787 182.09 239.267 180.69 240.117 179.4C240.417 178.94 240.776 178.5 240.966 178C241.176 177.44 241.277 176.82 241.317 176.22C241.327 176.03 241.277 175.86 241.187 175.71C241.987 174.95 242.977 174.64 244.037 174.6C243.827 175.11 244.077 175.73 244.517 175.95C244.937 176.16 245.527 176.12 245.817 175.72C246.037 175.43 246.257 175.15 246.497 174.88C247.287 175.07 248.067 175.32 248.787 175.57C248.847 175.69 248.926 175.8 249.026 175.88C249.176 176.01 249.347 176.15 249.537 176.22C251.427 176.89 253.037 178.04 254.807 179.32C255.437 183.14 255.746 186.95 255.446 190.8C255.296 192.83 254.397 194.45 252.997 195.85C252.517 196.33 251.986 196.78 251.466 197.22C250.386 198.13 249.936 199.32 249.986 200.68C250.016 201.49 250.197 202.3 250.317 203.11C250.337 203.24 250.387 203.38 250.437 203.5C250.677 204.05 251.256 204.4 251.736 204.28C252.066 204.2 252.326 203.96 252.466 203.64C252.576 203.63 252.677 203.62 252.787 203.61C252.947 203.71 253.077 203.84 253.137 204.03C253.187 204.19 253.196 204.37 253.176 204.55C252.986 204.63 252.807 204.74 252.687 204.87C252.477 205.1 252.397 205.48 252.347 205.8C252.177 206.88 252.067 207.97 251.897 209.05C251.837 209.41 251.647 209.75 251.477 210.17C249.807 209.22 248.257 208.34 246.727 207.46C246.627 207.4 246.596 207.23 246.506 207.06C246.986 206.87 247.487 206.72 247.937 206.48C248.327 206.27 248.456 205.86 248.406 205.42C248.356 204.99 247.856 204.51 247.406 204.53C246.936 204.55 246.467 204.65 245.997 204.74C244.537 205 243.137 204.9 241.797 204.2C241.497 204.04 241.187 203.89 240.867 203.77C240.617 203.68 240.347 203.6 240.087 203.57C239.607 203.51 239.126 203.82 238.926 204.26C238.746 204.68 238.897 205.28 239.337 205.52C239.937 205.84 240.576 206.09 241.196 206.38C241.586 206.57 241.976 206.78 242.446 207.03C240.736 208.56 239.167 209.97 237.587 211.38C237.537 211.42 237.466 211.45 237.406 211.47C237.356 211.48 237.287 211.47 237.127 211.47C235.967 209.03 235.697 206.42 235.917 203.73C235.937 203.49 236.147 203.25 236.307 203.05C237.287 201.86 237.797 200.47 238.117 198.97C238.547 196.94 238.456 194.88 238.506 192.83C238.526 192.02 238.617 191.2 238.137 190.43C238.007 190.21 238.157 189.81 238.187 189.49C238.267 188.68 237.887 188.13 237.127 188.06C236.717 188.02 236.307 188.09 235.897 188.06H235.906ZM252.406 191.75C252.706 191.37 252.517 190.73 252.057 190.55C251.487 190.33 250.897 190.15 250.297 190.07C249.487 189.96 248.657 190.01 247.847 189.9C246.627 189.74 245.897 190.23 245.537 191.45C245.927 192.74 246.717 193.84 247.647 194.84C248.317 195.55 249.157 195.59 249.807 194.9C250.737 193.91 251.567 192.83 252.397 191.76L252.406 191.75ZM247.727 182.76C247.757 182.27 247.396 181.84 246.906 181.79C246.516 181.75 246.117 182.07 246.067 182.49C245.997 183.01 246.296 183.49 246.756 183.56C247.226 183.64 247.696 183.25 247.736 182.76H247.727ZM247.446 178.78C247.536 178.4 247.276 177.91 246.906 177.79C246.026 177.52 245.147 177.52 244.317 177.94C244.097 178.05 243.906 178.3 243.776 178.53C243.496 179.04 243.937 179.72 244.497 179.6C245.237 179.53 245.976 179.46 246.716 179.38C247.076 179.34 247.367 179.17 247.457 178.78H247.446Z" fill="white"/>
<path d="M240.437 168.48C240.897 168.03 240.197 167.33 239.737 167.78C239.587 167.92 239.437 168.07 239.267 168.21C239.697 167.21 240.397 166.42 241.497 166.17C244.597 165.44 247.617 165.57 250.417 167.3C252.717 168.72 254.657 170.54 256.437 172.55C257.327 173.56 257.887 174.75 258.007 176.06C258.157 177.68 258.417 179.34 257.587 180.9C257.447 181.17 257.437 181.569 257.477 181.889C257.857 184.689 257.717 187.49 257.767 190.3C257.807 193.33 256.506 195.7 254.406 197.74C254.016 198.12 253.607 198.49 253.177 198.83C252.537 199.35 252.277 200.01 252.337 200.82C252.377 201.36 252.417 201.909 252.467 202.449C252.317 202.419 252.177 202.39 252.027 202.36C251.397 202.25 251.127 203.21 251.767 203.32C251.797 203.53 251.957 203.709 252.237 203.679C252.317 203.679 252.397 203.669 252.477 203.659C252.337 203.979 252.077 204.22 251.747 204.3C251.267 204.42 250.687 204.08 250.447 203.52C250.387 203.4 250.347 203.26 250.327 203.13C250.207 202.32 250.027 201.509 249.997 200.699C249.947 199.339 250.387 198.14 251.477 197.24C251.997 196.8 252.527 196.359 253.007 195.869C254.407 194.479 255.307 192.86 255.457 190.82C255.757 186.97 255.457 183.16 254.817 179.34C253.047 178.06 251.437 176.92 249.547 176.24C249.357 176.17 249.197 176.03 249.037 175.9C248.937 175.82 248.857 175.71 248.797 175.59C249.297 175.77 249.767 175.939 250.197 176.099C250.807 176.319 251.067 175.359 250.457 175.139C249.947 174.949 249.387 174.75 248.817 174.56C249.037 174.19 249.377 173.98 249.797 174.02C250.127 174.06 250.467 174.16 250.767 174.31C251.927 174.89 253.077 175.49 254.227 176.11C254.667 176.34 254.657 176.36 255.587 176.15C255.587 175.29 255.177 174.6 254.637 173.98C253.017 172.1 251.207 170.44 249.087 169.13C246.957 167.83 244.637 167.94 242.307 168.27C241.717 168.35 241.487 168.899 241.207 169.389C240.777 170.139 240.237 170.359 239.737 170.099C239.487 169.969 239.297 169.77 239.187 169.53C239.637 169.2 240.067 168.839 240.447 168.469L240.437 168.48Z" fill="#617462"/>
<path d="M244.607 173.64C245.497 173.68 246.417 173.86 247.317 174.1C247.027 174.34 246.757 174.61 246.497 174.89C245.667 174.7 244.827 174.58 244.027 174.61C244.027 174.59 244.047 174.57 244.057 174.55C244.217 174.23 244.397 173.92 244.607 173.64Z" fill="#617462"/>
<path d="M248.817 174.55C249.397 174.74 249.947 174.94 250.457 175.13C251.057 175.35 250.797 176.31 250.197 176.09C249.767 175.93 249.287 175.76 248.797 175.58C248.647 175.27 248.637 174.89 248.797 174.59C248.797 174.57 248.807 174.56 248.817 174.55Z" fill="#617462"/>
<path d="M248.757 172.67C248.667 172.84 248.587 173.27 248.347 173.4C247.977 173.6 247.637 173.84 247.317 174.1C246.427 173.86 245.507 173.68 244.607 173.64C245.237 172.77 246.057 172.08 247.057 171.61C247.837 171.24 248.707 171.77 248.757 172.68V172.67Z" fill="#617462"/>
<path d="M244.506 175.96C244.066 175.74 243.816 175.12 244.026 174.61C244.826 174.58 245.667 174.7 246.497 174.89C246.257 175.15 246.036 175.43 245.816 175.73C245.516 176.13 244.937 176.17 244.517 175.96H244.506Z" fill="#617462"/>
<path d="M240.267 175.22C241.437 173.93 242.977 173.56 244.607 173.63C244.397 173.91 244.217 174.22 244.057 174.54C244.047 174.56 244.037 174.579 244.027 174.599C242.967 174.639 241.977 174.95 241.177 175.71C241.017 175.46 240.737 175.28 240.437 175.23C240.377 175.22 240.317 175.22 240.257 175.22H240.267Z" fill="#DBDBDB"/>
<path d="M240.437 168.48C240.057 168.85 239.627 169.22 239.177 169.54C239.027 169.2 239.027 168.78 239.207 168.33C239.227 168.29 239.247 168.24 239.267 168.2C239.427 168.06 239.587 167.92 239.737 167.77C240.197 167.32 240.907 168.02 240.437 168.47V168.48Z" fill="#617462"/>
<path d="M248.817 174.55C248.817 174.55 248.807 174.57 248.797 174.59C248.627 174.89 248.637 175.28 248.797 175.58C248.077 175.33 247.297 175.07 246.507 174.89C246.757 174.61 247.037 174.34 247.327 174.1C247.837 174.23 248.337 174.39 248.827 174.55H248.817Z" fill="#DBDBDB"/>
<path d="M235.907 188.06C236.317 188.09 236.727 188.02 237.137 188.06C237.897 188.13 238.277 188.68 238.197 189.49C238.167 189.81 238.007 190.22 238.147 190.43C238.627 191.19 238.537 192.01 238.517 192.83C238.467 194.88 238.557 196.93 238.127 198.97C237.807 200.47 237.307 201.86 236.317 203.05C236.147 203.25 235.947 203.49 235.927 203.73C235.707 206.42 235.967 209.03 237.137 211.47C237.297 211.47 237.357 211.49 237.417 211.47C237.477 211.45 237.547 211.42 237.597 211.38C239.177 209.97 240.757 208.56 242.457 207.03C241.987 206.78 241.607 206.57 241.207 206.38C240.597 206.09 239.947 205.84 239.347 205.52C238.907 205.28 238.757 204.68 238.937 204.26C239.127 203.82 239.607 203.51 240.097 203.57C240.357 203.6 240.627 203.68 240.877 203.77C241.197 203.89 241.507 204.04 241.807 204.2C243.137 204.9 244.547 205.01 246.007 204.74C246.477 204.66 246.947 204.55 247.417 204.53C247.857 204.51 248.357 204.99 248.417 205.42C248.467 205.86 248.337 206.27 247.947 206.48C247.497 206.72 246.997 206.87 246.517 207.06C246.607 207.23 246.637 207.4 246.737 207.46C248.267 208.35 249.817 209.22 251.487 210.17C251.647 209.75 251.847 209.41 251.907 209.05C252.087 207.97 252.187 206.88 252.357 205.8C252.407 205.48 252.497 205.1 252.697 204.87C252.817 204.73 252.997 204.62 253.187 204.55C253.137 204.98 252.927 205.45 252.787 205.79C252.557 206.39 253.517 206.65 253.747 206.06C253.917 205.62 254.097 205.14 254.157 204.66C254.307 204.79 254.397 204.97 254.437 205.17C254.517 205.63 254.497 206.12 254.437 206.59C254.137 208.62 253.817 210.65 253.467 212.67C252.567 217.93 251.687 223.19 250.717 228.44C250.047 232.07 249.217 235.67 248.467 239.29C248.347 239.89 248.267 240.5 248.127 241.1C247.987 241.72 247.547 242.1 247.017 242.14C246.467 242.18 246.057 241.87 245.817 241.23C242.877 233.35 239.917 225.48 237.007 217.59C236.107 215.15 235.327 212.67 234.527 210.2C233.767 207.84 233.437 205.4 233.517 202.92C233.517 202.73 233.527 202.54 233.547 202.36C233.687 202.33 233.837 202.3 233.977 202.27C234.567 202.17 234.377 201.33 233.837 201.3C234.047 200.96 234.397 200.7 234.987 200.58C235.237 200.53 235.517 200.13 235.597 199.83C235.867 198.78 236.207 197.71 236.257 196.64C236.357 194.67 236.287 192.69 236.287 190.68C236.057 190.59 235.877 190.49 235.697 190.46C233.497 189.99 232.357 188.73 232.247 186.53C232.217 185.85 232.227 185.13 232.427 184.5C232.687 183.66 232.587 182.92 232.337 182.11C231.447 179.27 231.677 176.44 232.567 173.63C233.067 172.06 234.137 171.08 235.597 170.5C235.917 170.37 236.307 170.32 236.657 170.35C236.737 170.56 236.947 170.71 237.227 170.61C237.247 170.61 237.267 170.6 237.287 170.59C237.487 170.77 237.667 171.04 237.747 171.28C237.887 171.68 237.637 172.07 237.267 172.31C237.157 172.38 237.027 172.44 236.897 172.47C235.327 172.82 234.727 173.98 234.417 175.41C233.977 177.44 233.807 179.46 234.617 181.57C235.257 181.68 235.907 181.78 236.667 181.9C237.127 180.17 237.937 178.68 238.867 177.25C239.117 176.87 239.137 176.34 239.307 175.9C239.467 175.49 239.867 175.24 240.297 175.24C240.287 175.25 240.267 175.27 240.257 175.28C239.827 175.76 240.537 176.47 240.957 175.98C241.037 175.89 241.117 175.81 241.207 175.73C241.297 175.88 241.347 176.05 241.337 176.24C241.297 176.84 241.197 177.46 240.987 178.02C240.797 178.52 240.447 178.96 240.137 179.42C239.287 180.71 238.807 182.11 238.807 183.67C238.807 184.01 238.807 184.36 238.767 184.7C238.717 185.24 238.377 185.58 237.887 185.72C237.447 185.84 237.117 185.59 236.817 185.27C236.097 184.49 236.077 184.51 235.107 184.24C234.397 185.19 234.407 186.23 234.817 187.3C235.007 187.79 235.417 188.04 235.927 188.08L235.907 188.06ZM249.747 222.44C250.607 218.89 250.977 215.67 251.407 212.38C250.897 212.24 250.447 212.17 250.017 212C249.517 211.8 249.047 211.52 248.417 211.2C247.457 212.79 247.107 214.22 247.667 215.86C248.217 217.47 248.597 219.14 249.077 220.78C249.207 221.22 249.417 221.64 249.737 222.44H249.747ZM248.947 226.74C248.387 225.31 247.867 224.2 247.507 223.04C246.747 220.64 246.077 218.2 245.357 215.79C245.267 215.5 245.057 215.25 244.727 214.68C244.057 217.24 243.447 219.47 242.877 221.71C242.627 222.69 242.487 223.71 241.677 224.5C244.647 232.44 245.817 235.18 246.837 236.4C247.767 233.03 248.427 229.73 248.967 226.75L248.947 226.74ZM245.167 212.91C245.577 211.85 245.927 210.93 246.317 209.91C245.547 209.51 244.907 209.17 244.137 208.76C243.537 209.18 243.077 209.47 242.657 209.8C242.517 209.91 242.447 210.13 242.267 210.43C243.147 211.29 243.937 212.26 245.167 212.9V212.91ZM242.597 213.93C241.797 213.16 241.227 212.31 240.137 211.87C239.797 212.36 239.517 212.82 239.177 213.22C238.837 213.62 238.437 213.96 238.077 214.32C239.047 217.95 239.797 219.88 240.687 220.98C241.397 218.6 242.077 216.28 242.597 213.93Z" fill="#617462"/>
<path d="M237.267 170.58C237.267 170.58 237.227 170.59 237.207 170.6C236.927 170.7 236.727 170.55 236.637 170.34C236.747 170.34 236.857 170.37 236.957 170.4C237.057 170.43 237.157 170.49 237.257 170.57L237.267 170.58Z" fill="#617462"/>
<path d="M240.267 175.22C240.327 175.22 240.386 175.22 240.446 175.23C240.746 175.28 241.027 175.46 241.187 175.71C241.107 175.79 241.017 175.87 240.937 175.96C240.507 176.44 239.806 175.74 240.236 175.26C240.246 175.25 240.266 175.23 240.276 175.22H240.267Z" fill="#617462"/>
<path d="M239.177 169.54C238.587 169.97 237.937 170.34 237.277 170.58C237.187 170.5 237.077 170.44 236.977 170.41C236.877 170.38 236.767 170.36 236.657 170.35C236.557 170.1 236.627 169.76 236.957 169.64C237.777 169.34 238.587 168.79 239.267 168.2C239.247 168.24 239.227 168.29 239.207 168.33C239.027 168.77 239.027 169.2 239.177 169.54Z" fill="#DBDBDB"/>
<path d="M240.137 211.87C241.227 212.31 241.787 213.16 242.597 213.93C242.077 216.28 241.397 218.6 240.687 220.98C239.797 219.88 239.047 217.95 238.077 214.32C238.437 213.97 238.837 213.62 239.177 213.22C239.517 212.82 239.797 212.36 240.137 211.87Z" fill="white"/>
<path d="M251.406 212.38C250.976 215.67 250.607 218.89 249.747 222.44C249.427 221.64 249.217 221.22 249.087 220.78C248.607 219.14 248.226 217.47 247.676 215.86C247.116 214.22 247.466 212.79 248.426 211.2C249.056 211.52 249.526 211.8 250.026 212C250.446 212.17 250.907 212.25 251.417 212.38H251.406Z" fill="white"/>
<path d="M191.406 205.41C191.926 205.4 192.487 205.39 192.997 205.49C193.027 205.5 193.057 205.51 193.077 205.52C193.107 205.52 193.126 205.52 193.156 205.52C193.346 205.56 193.527 205.61 193.697 205.69C193.937 205.8 194.167 205.72 194.307 205.56C194.577 205.56 194.847 205.53 195.117 205.48C198.687 204.94 202.207 205.39 205.827 205.78C205.937 206.24 206.046 206.67 206.156 207.11C202.956 207.6 193.967 207.56 191.667 207.04C191.597 206.54 191.547 206.01 191.437 205.49C191.437 205.45 191.416 205.42 191.406 205.39V205.41Z" fill="white"/>
<path d="M190.507 215.1C190.657 215.15 190.827 215.16 190.997 215.14C191.467 215.07 191.917 214.9 192.387 214.8C193.197 214.63 193.327 214.64 194.627 215.01C194.037 215.22 193.607 215.38 193.177 215.54C192.727 215.7 192.227 215.79 191.857 216.06C191.647 216.21 191.557 216.66 191.577 216.96C191.597 217.15 191.897 217.44 192.107 217.48C192.567 217.57 193.057 217.5 193.527 217.53C193.967 217.56 194.457 217.4 194.947 217.94C194.477 218.2 194.117 218.48 193.707 218.63C193.257 218.78 192.767 218.78 192.297 218.9C191.777 219.03 191.467 219.5 191.537 219.97C191.597 220.44 192.037 220.82 192.567 220.77C193.107 220.73 193.647 220.59 194.187 220.53C194.527 220.5 194.877 220.54 194.927 221.01C194.447 221.58 193.777 221.67 193.097 221.78C192.637 221.86 192.137 221.98 191.767 222.24C191.567 222.38 191.497 222.85 191.537 223.16C191.567 223.36 191.857 223.63 192.067 223.68C192.457 223.76 192.877 223.7 193.287 223.71C193.737 223.72 194.217 223.51 194.707 224C194.337 224.62 193.707 224.86 193.117 225.15C192.187 225.6 191.697 225.89 191.647 226.2C191.367 226.01 191.117 225.76 190.917 225.48C190.837 225.37 190.737 225.3 190.627 225.27C190.547 225.07 190.447 224.87 190.347 224.68C189.107 222.1 189.007 219.44 189.707 216.71C189.777 216.45 189.897 216.19 189.927 215.93C189.937 215.79 189.927 215.64 189.897 215.51C190.087 215.35 190.297 215.22 190.517 215.11L190.507 215.1Z" fill="white"/>
<path d="M287.177 423.75C286.957 423.93 286.777 424.16 286.537 424.26C285.507 424.68 284.417 424.83 283.317 424.66C277.857 423.83 273.127 421.63 269.667 417.16C269.177 416.53 268.607 416.15 267.807 416.05C266.937 415.94 266.087 415.71 265.197 415.53C265.167 415.08 265.117 414.94 265.147 414.82C265.457 413.85 265.637 412.83 266.447 412.08C266.627 411.92 266.737 411.72 266.767 411.51C268.867 411.54 270.957 411.68 273.057 411.62C274.307 411.58 276.067 411.56 277.147 410.73C277.337 410.98 277.547 411.23 277.767 411.47C279.147 412.98 280.577 414.46 281.947 415.99C283.087 417.26 284.217 418.56 285.247 419.91C286.107 421.04 286.947 422.22 287.177 423.74V423.75Z" fill="#617462"/>
<path d="M232.097 414.92C232.737 414.76 233.437 414.29 234.047 413.92C234.067 413.92 234.077 413.92 234.087 413.93C234.117 414.1 234.146 414.26 234.156 414.43C234.236 415.45 234.317 416.47 234.267 417.49C234.227 418.26 233.877 418.58 233.067 418.63C231.847 418.7 230.607 418.7 229.387 418.63C228.357 418.58 227.537 418.8 226.837 419.62C225.747 420.91 224.307 421.74 222.727 422.24C221.237 422.71 219.697 423.13 218.147 423.34C215.337 423.73 212.537 423.59 209.817 422.71C209.447 422.59 209.097 422.37 208.617 422.14C208.947 421.82 209.147 421.53 209.427 421.37C210.257 420.9 211.117 420.48 211.967 420.04C214.597 418.68 217.507 418.07 220.247 417.01C220.567 416.89 220.907 416.82 221.207 416.66C221.427 416.54 221.587 416.33 221.667 416.1C222.227 415.87 222.767 415.6 223.287 415.27C223.377 415.3 223.467 415.31 223.567 415.29C226.377 414.67 229.327 415.58 232.087 414.91L232.097 414.92Z" fill="#617462"/>
<path d="M246.317 209.92C245.927 210.93 245.577 211.86 245.167 212.92C243.937 212.28 243.147 211.31 242.267 210.45C242.447 210.15 242.516 209.94 242.656 209.82C243.076 209.49 243.527 209.2 244.137 208.78C244.907 209.18 245.547 209.52 246.317 209.93V209.92Z" fill="#617462"/>
<path d="M247.507 223.04C247.867 224.2 248.387 225.31 248.947 226.74C248.407 229.72 247.757 233.02 246.817 236.39C245.797 235.17 244.626 232.43 241.656 224.49C242.466 223.71 242.607 222.69 242.857 221.7C243.427 219.46 244.037 217.23 244.707 214.67C245.037 215.23 245.257 215.49 245.337 215.78C246.067 218.19 246.737 220.63 247.487 223.03L247.507 223.04Z" fill="#617462"/>
<path d="M206.727 227.8C207.617 229.62 208.507 231.44 209.397 233.26C210.187 234.88 210.976 236.51 211.776 238.13C212.016 238.62 212.227 239.13 212.517 239.59C212.797 240.04 213.357 240.2 213.767 240.02C214.287 239.8 214.617 239.23 214.457 238.68C214.307 238.16 214.087 237.65 213.857 237.16C213.037 235.46 212.217 233.77 211.387 232.08C212.117 230.21 212.857 228.35 213.817 226.61C214.207 226.66 214.637 226.48 214.847 226.13C215.017 225.84 215.166 225.52 215.276 225.2C215.426 224.75 215.547 224.28 215.687 223.83C215.727 223.77 215.777 223.72 215.827 223.66C215.967 223.5 215.977 223.31 215.917 223.15C217.087 219.89 218.517 216.74 220.807 214.1C223.127 211.42 225.547 208.8 228.817 207.19C229.107 207.05 229.337 206.76 229.547 206.5C229.657 206.35 229.656 206.12 229.696 205.99C229.656 205.56 229.336 205.17 228.966 205.02C230.306 203.8 231.797 202.79 233.577 202.37C233.557 202.55 233.547 202.74 233.547 202.93C233.467 205.42 233.787 207.85 234.557 210.21C235.357 212.68 236.137 215.16 237.037 217.6C239.947 225.49 242.907 233.36 245.847 241.24C246.087 241.88 246.487 242.19 247.047 242.15C247.587 242.12 248.016 241.74 248.156 241.11C248.296 240.51 248.367 239.9 248.497 239.3C249.247 235.69 250.067 232.08 250.747 228.45C251.717 223.2 252.597 217.94 253.497 212.68C253.847 210.66 254.166 208.63 254.466 206.6C254.536 206.14 254.556 205.64 254.466 205.18C254.436 204.98 254.337 204.8 254.187 204.67C254.227 204.34 254.217 204 254.107 203.68C254.107 203.65 254.087 203.62 254.067 203.59C255.757 203.61 257.486 203.9 258.986 204.63C258.886 204.95 259.006 205.31 259.276 205.55C259.576 205.81 259.947 206.02 260.307 206.21C261.457 206.81 262.617 207.41 263.787 207.97C266.367 209.2 268.506 210.96 270.446 213.04C272.756 215.51 274.567 218.33 276.227 221.25C280.057 227.97 283.587 234.86 286.787 241.91C288.947 246.65 290.847 251.49 292.397 256.46C292.827 257.85 293.137 259.24 292.977 260.7C292.777 262.47 292.487 264.22 291.887 265.91C291.017 268.37 290.057 270.78 288.747 273.04C286.967 276.12 285.197 279.22 283.337 282.25C280.857 286.28 278.097 290.12 274.837 293.57C274.607 293.81 274.436 294.11 274.276 294.33C274.336 296.1 275.157 297.64 275.377 299.28C274.717 299.43 274.156 299.46 273.676 299.67C273.056 299.94 272.907 300.7 273.267 301.18C272.877 301.18 272.487 301.18 272.087 301.16C271.707 301.15 271.056 301.2 270.526 301.13C270.476 300.94 270.417 300.75 270.347 300.57C270.177 300.15 269.737 299.99 269.317 300.1C269.017 300.18 268.657 300.4 268.537 300.66C268.377 301.01 268.357 301.46 268.387 301.86C268.477 302.88 268.637 303.9 268.767 304.91C269.367 309.66 269.997 314.41 270.567 319.16C271.097 323.65 271.617 328.13 272.037 332.63C272.437 336.92 272.706 341.23 273.006 345.53C273.516 352.91 274.027 360.28 274.497 367.66C274.847 373.2 275.126 378.73 275.466 384.27C275.636 387.07 275.897 389.87 276.087 392.67C276.297 395.81 276.487 398.96 276.687 402.1C276.657 402.1 276.637 402.1 276.607 402.1C276.607 403.2 276.607 404.29 276.607 405.39C276.607 405.73 276.596 406.11 276.736 406.39C276.876 406.66 277.196 406.89 277.486 407C277.596 407.04 277.707 407.06 277.807 407.06C277.917 407.58 277.997 408.11 278.037 408.65C277.677 408.53 277.246 408.61 276.966 408.85C276.696 409.07 276.547 409.48 276.617 409.85C275.677 410.81 273.197 410.6 272.057 410.61C270.167 410.63 268.277 410.5 266.377 410.48C266.367 410.48 266.357 410.46 266.337 410.45C266.467 409.68 266.527 408.9 266.557 408.11C266.747 407.99 266.887 407.82 266.937 407.62C267.047 407.17 267.127 406.67 267.087 406.21C266.927 404.37 266.777 402.53 266.517 400.7C265.937 396.57 265.297 392.44 264.667 388.32C263.937 383.52 263.237 378.71 262.437 373.92C261.447 367.98 260.397 362.05 259.307 356.13C258.017 349.14 256.667 342.15 254.937 335.24C252.737 326.48 250.547 317.73 248.857 308.85C248.647 307.71 248.497 306.55 248.267 305.41C248.127 304.71 247.597 304.29 246.997 304.26C246.367 304.22 245.906 304.55 245.696 305.08C245.396 305.83 245.126 306.63 245.006 307.43C244.406 311.56 243.887 315.7 243.287 319.83C242.727 323.69 242.106 327.54 241.486 331.39C240.736 336.05 239.927 340.7 239.207 345.36C238.557 349.55 237.996 353.76 237.406 357.96C236.776 362.43 236.097 366.9 235.567 371.38C234.897 377.02 234.357 382.68 233.747 388.32C233.107 394.32 233.037 400.35 232.977 406.38C232.977 406.78 233.007 407.2 233.107 407.59C233.217 408.03 233.596 408.24 234.026 408.27C234.216 408.29 234.407 408.26 234.567 408.19C234.677 409.36 234.647 410.54 234.477 411.71C234.107 411.9 233.847 412.3 233.887 412.79C233.887 412.79 233.887 412.8 233.887 412.81C233.197 413.17 232.547 413.68 231.817 413.92C230.577 414.32 228.877 414.02 227.597 413.98C226.317 413.94 225.057 413.98 223.807 414.2L223.776 414.04C224.106 413.95 224.366 413.73 224.406 413.36C224.476 412.76 224.486 412.13 224.426 411.53C223.516 401.77 223.427 391.98 223.477 382.19C223.527 373.08 223.667 363.98 223.767 354.88H223.867C223.957 349.2 224.047 343.52 224.127 337.84C224.227 330.24 224.316 322.64 224.406 315.04C224.456 310.93 224.497 306.83 224.537 302.72C224.537 302.25 224.537 301.76 224.457 301.29C224.377 300.78 223.917 300.45 223.437 300.46C223.307 300.46 223.167 300.49 223.037 300.54C221.637 299.97 220.377 299.13 219.127 298.27C219.417 298.06 219.567 297.72 219.567 297.31C219.567 296.87 219.387 296.51 218.957 296.33C218.597 296.18 218.227 296.08 217.837 295.95C217.887 295.52 217.897 295.18 217.957 294.85C219.627 285.98 221.336 277.11 222.966 268.23C223.536 265.14 224.137 262.04 223.997 258.86C223.817 254.89 223.656 250.92 223.466 246.96C223.446 246.49 223.346 246.01 223.216 245.56C223.076 245.09 222.517 244.76 222.107 244.83C221.677 244.9 221.217 245.34 221.167 245.8C221.117 246.27 221.167 246.76 221.137 247.23C221.077 247.84 221.057 248.47 220.867 249.04C220.307 250.72 219.687 252.39 219.047 254.05C218.227 256.18 216.936 258.04 215.446 259.75C214.596 260.74 213.627 261.63 212.457 262.23C210.747 263.11 209.346 262.91 207.946 261.6C207.026 260.75 206.357 259.71 205.887 258.56C205.187 256.85 204.477 255.14 203.937 253.38C201.957 246.97 200.527 240.42 199.387 233.81C199.297 233.3 199.377 232.76 199.377 232.1C200.267 232.02 201.087 231.98 201.887 231.88C202.567 231.8 203.237 231.68 203.897 231.52C204.127 231.46 204.476 231.23 204.506 231.05C204.546 230.74 204.657 230.47 204.797 230.2C205.157 229.52 205.717 228.91 205.707 228.07C205.707 227.7 205.887 227.34 206.057 226.7C206.367 227.22 206.567 227.49 206.707 227.78L206.727 227.8ZM280.647 266.61C281.647 263.36 281.337 260.25 279.627 257.32C278.417 255.26 277.137 253.23 275.827 251.23C275.007 249.97 274.077 248.76 272.807 247.92C271.727 247.2 271.057 246.22 270.627 244.78C270.937 243.21 270.896 241.53 271.906 240.12C272.176 239.75 271.986 239.33 271.676 239.01C271.296 238.63 270.777 238.51 270.387 238.84C269.987 239.18 269.567 239.59 269.347 240.05C269.067 240.66 268.957 241.35 268.827 242.02C268.517 243.63 268.317 245.27 267.917 246.85C266.727 251.63 266.557 256.43 267.227 261.3C267.997 266.92 269.056 272.49 270.176 278.05C270.306 278.71 270.527 279.38 270.837 279.97C270.997 280.28 271.437 280.56 271.787 280.62C272.287 280.7 272.737 280.38 272.827 279.85C272.927 279.27 273.157 278.86 273.687 278.55C274.027 278.35 274.307 278.01 274.557 277.69C277.137 274.3 279.367 270.72 280.637 266.61H280.647ZM261.127 214.18C261.537 213.71 261.866 213.14 261.736 212.49C261.466 211.12 260.787 209.94 259.887 208.89C259.617 208.57 259.186 208.49 258.756 208.72C258.296 208.98 258.037 209.43 258.147 209.91C258.207 210.17 258.326 210.42 258.446 210.66C258.756 211.26 259.087 211.85 259.497 212.61C258.597 213.55 257.837 214.33 257.097 215.13C255.627 216.74 255.607 217.44 256.937 219.24C257.017 219.35 257.106 219.46 257.196 219.55C257.676 220.02 257.817 220.6 257.747 221.24C257.677 221.92 257.656 222.62 257.446 223.26C257.046 224.49 256.587 225.71 256.047 226.88C254.977 229.17 253.807 231.42 252.707 233.69C252.477 234.18 252.277 234.69 252.147 235.22C252.047 235.64 252.447 236.19 252.877 236.33C253.307 236.48 253.697 236.35 253.977 236.01C254.147 235.81 254.286 235.56 254.406 235.32C255.756 232.56 257.097 229.79 258.457 227.03C259.287 225.36 259.747 223.58 260.037 221.75C260.237 220.47 260.037 219.3 259.167 218.3C258.907 218 258.686 217.65 258.406 217.27C258.726 216.86 258.997 216.48 259.307 216.13C259.897 215.47 260.527 214.84 261.107 214.16L261.127 214.18ZM247.047 250.92C247.667 250.7 247.907 250.19 247.767 249.67C247.637 249.14 247.137 248.8 246.557 248.83C245.897 248.87 245.356 249.3 245.256 249.87C245.186 250.32 245.446 250.88 245.906 250.98C246.266 251.06 246.697 251.04 247.047 250.92ZM238.406 235.39C238.746 235.09 238.897 234.68 238.727 234.28C238.527 233.78 238.226 233.31 237.906 232.88C236.536 231.09 235.097 229.35 233.767 227.53C233.087 226.6 232.507 225.59 231.977 224.56C231.197 223.04 230.827 221.48 232.107 219.99C232.197 219.89 232.216 219.74 232.276 219.62C232.596 219.01 232.497 218.39 232.127 217.87C231.817 217.43 231.406 217.05 230.986 216.71C230.356 216.19 229.687 215.73 228.847 215.09C229.337 213.52 229.786 212.1 230.236 210.67C230.336 210.35 230.497 210.04 230.537 209.71C230.597 209.26 230.347 208.88 229.937 208.75C229.647 208.66 229.187 208.64 228.997 208.8C228.607 209.14 228.227 209.59 228.057 210.07C227.527 211.55 227.107 213.06 226.637 214.56C226.367 215.44 226.597 216.18 227.287 216.77C227.807 217.21 228.376 217.59 228.906 218.02C229.256 218.31 229.557 218.66 229.877 218.98C229.717 219.33 229.637 219.59 229.497 219.83C228.707 221.17 228.717 222.51 229.267 223.95C229.977 225.82 230.847 227.57 232.107 229.14C233.557 230.96 234.957 232.81 236.377 234.64C236.587 234.91 236.807 235.17 237.057 235.4C237.417 235.71 238.027 235.68 238.377 235.38L238.406 235.39Z" fill="#F7DDC0"/>
<path d="M279.627 257.33C281.337 260.26 281.647 263.37 280.647 266.62C279.377 270.73 277.147 274.32 274.567 277.7C274.317 278.02 274.046 278.37 273.696 278.56C273.166 278.87 272.937 279.27 272.837 279.86C272.747 280.39 272.297 280.71 271.797 280.63C271.447 280.57 271.007 280.29 270.847 279.98C270.537 279.39 270.317 278.72 270.187 278.06C269.067 272.5 268.007 266.93 267.237 261.31C266.567 256.45 266.736 251.64 267.926 246.86C268.316 245.27 268.517 243.63 268.837 242.03C268.967 241.36 269.087 240.67 269.357 240.06C269.567 239.59 269.987 239.19 270.397 238.85C270.777 238.53 271.307 238.64 271.687 239.02C271.997 239.34 272.177 239.76 271.917 240.13C270.907 241.54 270.947 243.23 270.637 244.79C271.067 246.23 271.737 247.21 272.817 247.93C274.087 248.78 275.017 249.99 275.837 251.24C277.147 253.24 278.427 255.26 279.637 257.33H279.627ZM278.547 265.71C279.287 263.21 278.987 260.81 277.727 258.59C276.447 256.33 275.027 254.16 273.627 251.98C272.887 250.82 271.857 249.9 270.727 249.12C270.467 248.94 270.167 248.82 269.707 248.59C269.517 250.05 269.286 251.32 269.196 252.6C268.996 255.61 269.117 258.6 269.547 261.59C270.247 266.52 271.156 271.41 272.196 276.37C272.456 276.35 272.537 276.36 272.587 276.33C272.707 276.27 272.836 276.2 272.906 276.1C275.306 272.92 277.397 269.59 278.537 265.72L278.547 265.71Z" fill="#617462"/>
<path d="M277.837 407.09C278.147 407.09 278.437 406.95 278.587 406.66C278.627 406.58 278.657 406.51 278.697 406.43C278.967 407.45 279.087 408.5 279.107 409.56C279.047 409.5 278.987 409.43 278.927 409.37C278.747 409.17 278.547 408.97 278.327 408.82C278.247 408.76 278.157 408.72 278.067 408.69C278.027 408.15 277.947 407.62 277.837 407.1V407.09Z" fill="#F7DDC0"/>
<path d="M279.107 409.62C279.107 410.26 278.117 410.26 278.107 409.62C278.107 409.31 278.087 409 278.067 408.69C278.157 408.72 278.247 408.76 278.327 408.82C278.547 408.97 278.737 409.17 278.927 409.37C278.987 409.43 279.047 409.5 279.107 409.56V409.61V409.62Z" fill="#617462"/>
<path d="M277.837 407.09C277.687 406.38 277.457 405.68 277.137 405.01C276.867 404.43 277.727 403.92 277.997 404.51C278.297 405.13 278.527 405.78 278.697 406.43C278.657 406.51 278.627 406.59 278.587 406.66C278.437 406.95 278.147 407.09 277.837 407.09Z" fill="#617462"/>
<path d="M277.647 410.22C277.507 410.42 277.337 410.59 277.147 410.74C277.007 410.56 276.877 410.38 276.767 410.2C276.707 410.11 276.667 409.999 276.647 409.889C276.697 409.839 276.747 409.78 276.787 409.72C277.157 409.2 278.017 409.69 277.647 410.22Z" fill="#617462"/>
<path d="M265.397 410.3C265.367 410.49 265.327 410.68 265.287 410.87C265.187 411.3 265.617 411.56 265.947 411.47C265.997 411.49 266.057 411.5 266.117 411.5C266.337 411.5 266.547 411.5 266.767 411.5C266.727 411.71 266.627 411.9 266.447 412.07C265.637 412.81 265.457 413.84 265.147 414.81C265.107 414.93 265.157 415.07 265.197 415.52C266.087 415.7 266.937 415.93 267.807 416.04C268.617 416.14 269.177 416.52 269.667 417.15C273.127 421.62 277.857 423.82 283.317 424.65C284.417 424.81 285.507 424.67 286.537 424.25C286.777 424.16 286.957 423.93 287.177 423.74C286.947 422.22 286.107 421.04 285.247 419.91C284.207 418.55 283.077 417.26 281.947 415.99C280.577 414.46 279.157 412.98 277.767 411.47C277.547 411.23 277.337 410.99 277.147 410.73C277.337 410.59 277.507 410.41 277.647 410.21C278.017 409.68 277.157 409.18 276.787 409.71C276.747 409.77 276.697 409.83 276.647 409.88C276.577 409.51 276.727 409.1 276.997 408.88C277.277 408.64 277.707 408.57 278.067 408.68C278.087 408.99 278.097 409.3 278.107 409.61C278.107 410.25 279.117 410.25 279.107 409.61V409.56C281.297 411.98 283.497 414.39 285.667 416.83C286.897 418.21 288.007 419.7 288.807 421.38C289.117 422.04 289.337 422.79 289.437 423.52C289.607 424.74 289.037 425.64 287.947 426.19C286.567 426.9 285.077 427.05 283.557 426.95C281.277 426.81 279.097 426.25 277.017 425.34C273.607 423.85 270.467 421.93 268.077 418.99C267.707 418.53 267.277 418.29 266.707 418.19C266.037 418.07 265.357 417.95 264.707 417.75C262.977 417.23 262.357 416.19 262.847 414.49C263.147 413.44 263.547 412.42 263.987 411.42C264.237 410.85 264.697 410.42 265.367 410.3C265.367 410.3 265.387 410.3 265.397 410.3Z" fill="#617462"/>
<path d="M274.447 301.22C274.837 301.22 274.996 301.59 274.906 301.88C274.486 301.83 274.057 301.7 273.647 301.51C273.497 301.44 273.377 301.34 273.287 301.22C273.677 301.22 274.067 301.22 274.447 301.22Z" fill="#617462"/>
<path d="M271.417 302.16C271.217 302.15 270.967 302.15 270.717 302.14C270.717 302.09 270.707 302.04 270.697 301.99C270.667 301.71 270.617 301.43 270.547 301.16C271.087 301.23 271.727 301.17 272.107 301.19C272.497 301.2 272.887 301.21 273.287 301.21C273.377 301.33 273.497 301.43 273.647 301.5C274.057 301.69 274.486 301.82 274.906 301.87C274.856 302.05 274.697 302.21 274.447 302.21C273.437 302.21 272.427 302.21 271.417 302.15V302.16Z" fill="#F7DDC0"/>
<path d="M273.057 411.62C270.957 411.68 268.867 411.54 266.767 411.51C266.807 411.27 266.767 411.02 266.627 410.76C266.577 410.66 266.496 410.57 266.406 410.5C268.296 410.52 270.187 410.65 272.087 410.63C273.227 410.62 275.697 410.83 276.647 409.87C276.667 409.98 276.707 410.08 276.767 410.18C276.887 410.37 277.017 410.55 277.147 410.72C276.067 411.55 274.307 411.57 273.057 411.61V411.62Z" fill="#617462"/>
<path d="M269.837 300.94C270.007 301.07 270.257 301.129 270.537 301.159C270.607 301.429 270.647 301.71 270.687 301.99C270.687 302.04 270.697 302.089 270.707 302.139C270.217 302.119 269.677 302.06 269.337 301.81C268.827 301.44 269.317 300.569 269.837 300.949V300.94Z" fill="#617462"/>
<path d="M270.357 300.6C270.427 300.78 270.487 300.97 270.537 301.16C270.257 301.13 270.007 301.06 269.837 300.94C269.317 300.56 268.817 301.43 269.337 301.8C269.687 302.05 270.217 302.11 270.707 302.13C271.037 304.66 271.346 307.19 271.656 309.72C272.156 313.79 272.676 317.87 273.156 321.95C273.506 325.01 273.847 328.07 274.117 331.14C274.527 335.78 274.877 340.42 275.237 345.06C275.417 347.31 275.556 349.57 275.696 351.82C276.026 357.15 276.337 362.48 276.667 367.81C277.077 374.5 277.487 381.2 277.937 387.9C278.237 392.34 278.637 396.77 278.937 401.21C279.027 402.57 279.006 403.95 278.966 405.31C278.956 405.68 278.847 406.07 278.687 406.43C278.517 405.78 278.287 405.13 277.987 404.51C277.717 403.93 276.847 404.43 277.127 405.01C277.447 405.68 277.677 406.38 277.827 407.09C277.717 407.09 277.607 407.06 277.507 407.03C277.217 406.92 276.897 406.69 276.757 406.42C276.607 406.14 276.627 405.76 276.627 405.42C276.617 404.32 276.627 403.23 276.627 402.13C276.657 402.13 276.677 402.13 276.707 402.13C276.507 398.99 276.317 395.84 276.107 392.7C275.917 389.9 275.657 387.1 275.487 384.3C275.147 378.76 274.867 373.23 274.517 367.69C274.047 360.31 273.537 352.94 273.027 345.56C272.727 341.26 272.457 336.95 272.057 332.66C271.647 328.16 271.127 323.68 270.587 319.19C270.027 314.43 269.397 309.69 268.787 304.94C268.657 303.92 268.496 302.91 268.406 301.89C268.376 301.49 268.387 301.04 268.557 300.69C268.677 300.43 269.037 300.22 269.337 300.13C269.757 300.01 270.197 300.18 270.367 300.6H270.357Z" fill="#617462"/>
<path d="M266.627 410.77C266.757 411.02 266.807 411.28 266.767 411.52C266.547 411.52 266.327 411.52 266.117 411.52C266.057 411.52 265.997 411.52 265.947 411.49C266.087 411.45 266.207 411.34 266.257 411.15C266.307 410.94 266.347 410.73 266.377 410.52H266.417C266.507 410.59 266.577 410.68 266.637 410.78L266.627 410.77Z" fill="#617462"/>
<path d="M266.417 410.51H266.377C266.377 410.51 266.377 410.49 266.377 410.48C266.387 410.48 266.397 410.5 266.417 410.51Z" fill="#617462"/>
<path d="M265.827 408.33C265.747 408.33 265.667 408.3 265.587 408.28C265.617 407.57 265.607 406.85 265.607 406.14C265.607 405.5 266.607 405.5 266.607 406.14C266.607 406.78 266.607 407.47 266.587 408.14C266.367 408.28 266.087 408.35 265.827 408.32V408.33Z" fill="#617462"/>
<path d="M266.377 410.51C266.347 410.72 266.297 410.93 266.257 411.14C266.217 411.33 266.097 411.44 265.947 411.48C265.487 411.32 265.537 410.51 266.117 410.51C266.207 410.51 266.287 410.51 266.377 410.51Z" fill="#617462"/>
<path d="M265.397 410.3C265.517 409.63 265.567 408.96 265.587 408.28C265.667 408.3 265.737 408.32 265.827 408.33C266.087 408.35 266.367 408.28 266.587 408.15C266.557 408.93 266.497 409.72 266.367 410.49C266.117 410.31 265.747 410.24 265.387 410.31L265.397 410.3Z" fill="#F7DDC0"/>
<path d="M265.397 410.3C265.757 410.24 266.117 410.3 266.377 410.48C266.377 410.48 266.377 410.5 266.377 410.51C266.287 410.51 266.207 410.51 266.117 410.51C265.537 410.51 265.476 411.32 265.946 411.48C265.626 411.57 265.187 411.31 265.287 410.88C265.327 410.69 265.367 410.5 265.397 410.31V410.3Z" fill="#617462"/>
<path d="M261.737 212.5C261.867 213.15 261.537 213.71 261.127 214.19C260.547 214.86 259.917 215.49 259.327 216.16C259.017 216.51 258.747 216.89 258.427 217.3C258.707 217.68 258.927 218.02 259.187 218.33C260.057 219.34 260.257 220.5 260.057 221.78C259.767 223.61 259.307 225.39 258.477 227.06C257.117 229.82 255.777 232.59 254.427 235.35C254.307 235.59 254.167 235.83 253.997 236.04C253.707 236.38 253.327 236.5 252.897 236.36C252.467 236.22 252.057 235.67 252.167 235.25C252.297 234.73 252.497 234.21 252.727 233.72C253.827 231.45 254.997 229.2 256.067 226.91C256.617 225.74 257.067 224.52 257.467 223.29C257.677 222.65 257.687 221.95 257.767 221.27C257.837 220.63 257.697 220.05 257.217 219.58C257.127 219.49 257.037 219.38 256.957 219.27C255.627 217.46 255.647 216.77 257.117 215.16C257.847 214.36 258.617 213.58 259.517 212.64C259.107 211.88 258.777 211.29 258.467 210.69C258.347 210.45 258.227 210.2 258.167 209.94C258.057 209.46 258.307 209.01 258.777 208.75C259.197 208.52 259.627 208.61 259.907 208.92C260.807 209.97 261.487 211.15 261.757 212.52L261.737 212.5Z" fill="#617462"/>
<path d="M261.617 205.26C262.087 205.7 261.376 206.41 260.906 205.97C260.336 205.42 259.677 204.99 258.977 204.65C258.997 204.58 259.027 204.52 259.077 204.46C259.227 204.25 259.467 204.04 259.717 203.92C260.407 204.28 261.047 204.73 261.617 205.27V205.26Z" fill="#617462"/>
<path d="M260.906 205.96C261.376 206.4 262.087 205.7 261.617 205.25C261.047 204.71 260.406 204.26 259.716 203.9C259.816 203.85 259.927 203.81 260.037 203.8C260.407 203.75 260.847 203.92 261.207 204.11C263.327 205.23 265.487 206.28 267.527 207.53C270.187 209.16 272.267 211.46 274.147 213.91C275.227 215.32 276.237 216.8 277.127 218.34C282.797 228.12 287.907 238.19 292.097 248.7C292.987 250.92 293.677 253.22 294.507 255.46C295.477 258.06 295.377 260.7 294.897 263.36C294.337 266.49 293.147 269.42 291.687 272.21C288.537 278.22 285.137 284.08 281.117 289.56C279.827 291.32 278.417 293.01 277.067 294.73C276.907 295.77 277.066 296.75 277.426 297.74C277.676 298.43 277.767 299.2 277.847 299.94C277.917 300.61 277.577 301.16 276.997 301.47C276.317 301.84 275.606 301.96 274.906 301.87C274.996 301.58 274.836 301.21 274.446 301.21C274.056 301.21 273.667 301.21 273.287 301.21C272.927 300.73 273.076 299.97 273.696 299.7C274.176 299.49 274.727 299.45 275.397 299.31C275.177 297.66 274.357 296.13 274.297 294.36C274.457 294.14 274.627 293.84 274.857 293.6C278.117 290.15 280.877 286.32 283.357 282.28C285.217 279.24 286.987 276.15 288.767 273.07C290.077 270.81 291.026 268.39 291.906 265.94C292.506 264.25 292.797 262.5 292.997 260.73C293.167 259.27 292.847 257.88 292.417 256.49C290.877 251.51 288.967 246.68 286.807 241.94C283.597 234.89 280.077 228.01 276.247 221.28C274.577 218.36 272.776 215.54 270.466 213.07C268.526 210.99 266.377 209.23 263.807 208C262.637 207.44 261.477 206.84 260.327 206.24C259.967 206.05 259.607 205.85 259.297 205.58C259.017 205.34 258.897 204.97 259.007 204.66C259.707 205 260.357 205.43 260.937 205.98L260.906 205.96Z" fill="#617462"/>
<path d="M252.987 202.63C255.267 202.51 257.687 202.84 259.707 203.91C259.457 204.04 259.217 204.24 259.067 204.45C259.027 204.51 258.997 204.58 258.967 204.64C257.467 203.91 255.737 203.62 254.047 203.6C253.857 203.12 253.447 202.82 252.987 202.62V202.63Z" fill="#F7DDC0"/>
<path d="M254.117 182.53C254.117 183.08 253.757 183.46 253.247 183.44C252.807 183.42 252.457 183.09 252.457 182.68C252.457 182.18 252.837 181.79 253.347 181.76C253.767 181.74 254.107 182.08 254.107 182.53H254.117Z" fill="#617462"/>
<path d="M253.156 204.05C253.096 203.86 252.967 203.73 252.807 203.63C253.217 203.6 253.637 203.589 254.057 203.599C254.067 203.629 254.087 203.66 254.097 203.69C254.207 204.01 254.217 204.349 254.177 204.679C254.027 204.539 253.817 204.46 253.577 204.48C253.457 204.49 253.327 204.52 253.197 204.57C253.227 204.39 253.216 204.21 253.156 204.05Z" fill="white"/>
<path d="M254.167 204.69C254.107 205.17 253.926 205.65 253.756 206.09C253.526 206.68 252.556 206.42 252.796 205.82C252.936 205.47 253.146 205.01 253.196 204.58C253.316 204.53 253.447 204.5 253.577 204.49C253.807 204.47 254.016 204.55 254.176 204.69H254.167Z" fill="#617462"/>
<path d="M252.987 202.63C252.827 202.63 252.667 202.65 252.497 202.66C252.487 202.59 252.467 202.52 252.457 202.45C252.637 202.49 252.817 202.55 252.987 202.62V202.63Z" fill="white"/>
<path d="M252.807 203.63C252.727 203.58 252.637 203.53 252.537 203.5C252.577 203.35 252.597 203.2 252.587 203.04C252.587 202.91 252.537 202.78 252.507 202.66C252.667 202.65 252.827 202.63 252.997 202.63C253.467 202.82 253.867 203.13 254.057 203.61C253.637 203.61 253.217 203.61 252.807 203.64V203.63Z" fill="#F7DDC0"/>
<path d="M252.807 203.63C252.697 203.63 252.587 203.64 252.487 203.66C252.507 203.61 252.527 203.56 252.537 203.5C252.637 203.53 252.727 203.58 252.807 203.63Z" fill="#F7DDC0"/>
<path d="M252.057 190.55C252.517 190.73 252.706 191.37 252.406 191.75C251.566 192.82 250.737 193.9 249.817 194.89C249.167 195.58 248.326 195.54 247.656 194.83C246.726 193.84 245.937 192.73 245.547 191.44C245.897 190.23 246.627 189.73 247.857 189.89C248.667 190 249.497 189.95 250.307 190.06C250.907 190.14 251.497 190.32 252.067 190.54L252.057 190.55ZM250.137 191.74H247.917C247.847 192.49 248.276 192.87 248.906 193.26C249.216 192.87 249.537 192.48 250.147 191.74H250.137Z" fill="#617462"/>
<path d="M252.497 202.66C252.527 202.79 252.567 202.91 252.577 203.04C252.587 203.2 252.577 203.35 252.527 203.5C252.277 203.4 251.987 203.36 251.757 203.32C251.717 203.05 251.867 202.72 252.227 202.68C252.317 202.68 252.407 202.66 252.487 202.66H252.497Z" fill="#617462"/>
<path d="M251.767 203.32C251.997 203.36 252.277 203.41 252.537 203.5C252.527 203.55 252.507 203.61 252.487 203.66C252.407 203.66 252.327 203.67 252.247 203.68C251.967 203.71 251.807 203.53 251.777 203.32H251.767Z" fill="#617462"/>
<path d="M251.757 203.31C251.127 203.2 251.397 202.23 252.017 202.35C252.157 202.38 252.307 202.41 252.457 202.45C252.457 202.52 252.487 202.59 252.497 202.66C252.407 202.66 252.327 202.67 252.237 202.68C251.877 202.72 251.727 203.04 251.767 203.31H251.757Z" fill="#617462"/>
<path d="M251.446 182.26C251.606 183.3 252.047 184.17 252.807 184.9C252.947 185.03 252.947 185.44 252.847 185.66C252.507 186.47 252.146 187.27 251.696 188.02C251.566 188.23 251.116 188.33 250.816 188.33C250.446 188.33 250.176 187.85 250.276 187.39C250.406 186.8 250.607 186.23 250.807 185.58C250.497 184.83 250.156 184.23 250.006 183.58C249.906 183.16 250.027 182.65 250.167 182.23C250.227 182.05 250.597 181.87 250.827 181.88C251.047 181.88 251.427 182.09 251.457 182.26H251.446Z" fill="#617462"/>
<path d="M247.777 249.66C247.917 250.19 247.667 250.69 247.057 250.91C246.707 251.03 246.277 251.06 245.917 250.97C245.457 250.87 245.197 250.31 245.267 249.86C245.367 249.29 245.897 248.85 246.567 248.82C247.147 248.79 247.647 249.13 247.777 249.66Z" fill="#617462"/>
<path d="M246.906 181.79C247.396 181.84 247.767 182.27 247.727 182.76C247.687 183.24 247.217 183.63 246.747 183.56C246.287 183.49 245.987 183.01 246.057 182.49C246.117 182.08 246.507 181.75 246.897 181.79H246.906Z" fill="#617462"/>
<path d="M246.906 177.79C247.276 177.91 247.536 178.39 247.446 178.78C247.356 179.17 247.067 179.34 246.707 179.38C245.967 179.46 245.226 179.529 244.486 179.599C243.926 179.719 243.487 179.04 243.767 178.53C243.897 178.3 244.077 178.06 244.307 177.94C245.137 177.52 246.017 177.52 246.897 177.79H246.906Z" fill="#617462"/>
<path d="M238.727 234.28C238.887 234.67 238.737 235.09 238.407 235.39C238.057 235.7 237.437 235.72 237.087 235.41C236.837 235.19 236.617 234.92 236.407 234.65C234.977 232.82 233.577 230.96 232.137 229.15C230.887 227.58 230.017 225.83 229.297 223.96C228.747 222.51 228.737 221.17 229.527 219.84C229.667 219.61 229.747 219.35 229.907 218.99C229.587 218.67 229.287 218.32 228.937 218.03C228.417 217.59 227.837 217.22 227.317 216.78C226.627 216.2 226.387 215.45 226.667 214.57C227.137 213.07 227.557 211.56 228.087 210.08C228.257 209.6 228.637 209.15 229.027 208.81C229.217 208.64 229.677 208.67 229.967 208.76C230.377 208.89 230.627 209.27 230.567 209.72C230.527 210.05 230.367 210.36 230.267 210.68C229.817 212.1 229.367 213.53 228.877 215.1C229.717 215.73 230.397 216.2 231.017 216.72C231.437 217.06 231.847 217.44 232.157 217.88C232.527 218.4 232.627 219.01 232.307 219.63C232.247 219.75 232.217 219.9 232.137 220C230.857 221.49 231.227 223.05 232.007 224.57C232.537 225.6 233.107 226.62 233.797 227.54C235.137 229.36 236.567 231.1 237.937 232.89C238.267 233.32 238.557 233.79 238.757 234.29L238.727 234.28Z" fill="#617462"/>
<path d="M215.247 416.39C216.517 415.89 217.827 415.5 219.137 415.09C219.657 414.93 220.197 414.81 220.737 414.77C221.047 414.75 221.307 414.88 221.487 415.11C220.957 415.35 220.407 415.54 219.837 415.73C219.227 415.93 219.487 416.9 220.097 416.69C220.627 416.51 221.157 416.33 221.667 416.11C221.587 416.34 221.427 416.55 221.207 416.67C220.907 416.83 220.567 416.9 220.247 417.02C217.507 418.08 214.597 418.69 211.967 420.05C211.117 420.49 210.257 420.91 209.427 421.38C209.157 421.54 208.947 421.82 208.617 422.15C209.097 422.38 209.447 422.6 209.817 422.72C212.537 423.6 215.337 423.74 218.147 423.35C219.697 423.14 221.227 422.72 222.727 422.25C224.307 421.75 225.747 420.92 226.837 419.63C227.527 418.81 228.357 418.58 229.387 418.64C230.607 418.71 231.847 418.71 233.067 418.64C233.877 418.59 234.227 418.27 234.267 417.5C234.317 416.49 234.227 415.46 234.157 414.44C234.147 414.27 234.117 414.11 234.087 413.94C234.197 413.97 234.317 413.95 234.437 413.87C234.657 413.72 234.977 413.57 235.157 413.36C235.307 413.19 235.317 412.96 235.237 412.78C235.297 412.73 235.347 412.64 235.367 412.53C235.417 412.28 235.457 412.02 235.487 411.77C235.687 411.88 235.847 412.07 235.937 412.33C236.547 414.16 236.997 416.03 236.627 417.97C236.257 419.9 235.087 420.88 233.057 421.04C232.377 421.09 231.687 421.09 231.007 421.09C230.327 421.1 229.637 421.09 228.787 421.09C226.177 423.75 222.907 424.91 219.407 425.46C216.207 425.96 212.977 425.95 209.817 425.11C208.837 424.85 207.857 424.48 206.967 423.99C205.527 423.19 205.347 421.91 206.517 420.8C207.307 420.06 208.207 419.38 209.177 418.92C211.157 417.99 213.197 417.18 215.237 416.39H215.247Z" fill="#617462"/>
<path d="M234.497 411.75C234.667 410.58 234.697 409.4 234.587 408.23C234.797 408.14 234.957 407.98 235.037 407.74C235.167 407.34 235.227 406.89 235.247 406.46C235.307 406.51 235.357 406.6 235.377 406.71C235.687 408.39 235.727 410.08 235.497 411.77C235.287 411.65 235.047 411.61 234.807 411.65C234.697 411.67 234.587 411.7 234.497 411.75Z" fill="#F7DDC0"/>
<path d="M235.247 406.46C235.227 406.89 235.177 407.34 235.037 407.74C234.957 407.98 234.797 408.14 234.587 408.23C234.547 407.81 234.487 407.39 234.417 406.98C234.327 406.46 234.957 406.19 235.247 406.47V406.46Z" fill="#617462"/>
<path d="M234.457 412.59C234.527 412.56 234.607 412.54 234.677 412.52C234.937 412.45 235.147 412.58 235.237 412.77C235.017 412.98 234.607 412.87 234.447 412.59H234.457Z" fill="#617462"/>
<path d="M234.406 412.26C234.436 412.09 234.466 411.92 234.486 411.75C234.586 411.7 234.686 411.66 234.796 411.65C235.026 411.61 235.276 411.65 235.486 411.77C235.446 412.02 235.407 412.28 235.367 412.53C235.347 412.64 235.296 412.73 235.236 412.78C235.146 412.58 234.936 412.46 234.676 412.53C234.596 412.55 234.527 412.579 234.457 412.599C234.407 412.509 234.386 412.39 234.406 412.27V412.26Z" fill="#617462"/>
<path d="M265.617 406.15C265.617 406.86 265.617 407.57 265.597 408.29C265.267 408.19 265.047 407.939 264.947 407.599C264.847 407.279 264.817 406.93 264.807 406.59C264.747 402.26 263.907 398.02 263.327 393.75C262.737 389.41 262.077 385.08 261.387 380.76C260.437 374.81 259.507 368.86 258.437 362.94C257.347 356.88 256.207 350.83 254.917 344.81C253.637 338.86 252.107 332.96 250.727 327.04C249.607 322.24 248.527 317.44 247.427 312.64C247.327 312.19 247.347 311.67 246.737 311.45C246.307 314.45 245.897 317.42 245.427 320.4C244.707 324.99 243.937 329.58 243.197 334.18C242.547 338.23 241.887 342.28 241.277 346.34C240.607 350.81 239.977 355.28 239.367 359.75C238.737 364.43 238.117 369.11 237.547 373.8C237.017 378.22 236.507 382.64 236.107 387.07C235.807 390.41 235.627 393.76 235.487 397.11C235.357 400.19 235.347 403.269 235.257 406.349C235.257 406.389 235.257 406.43 235.257 406.47C234.967 406.19 234.327 406.47 234.427 406.98C234.507 407.39 234.557 407.81 234.597 408.23C234.437 408.3 234.257 408.33 234.057 408.31C233.617 408.28 233.247 408.07 233.137 407.63C233.037 407.24 233.007 406.82 233.007 406.42C233.067 400.39 233.137 394.37 233.777 388.36C234.387 382.71 234.927 377.06 235.597 371.42C236.127 366.94 236.807 362.47 237.437 358C238.027 353.8 238.587 349.59 239.237 345.4C239.957 340.74 240.767 336.08 241.517 331.43C242.137 327.58 242.757 323.729 243.317 319.869C243.917 315.739 244.437 311.6 245.037 307.47C245.157 306.67 245.427 305.879 245.727 305.119C245.937 304.589 246.397 304.26 247.027 304.3C247.627 304.33 248.157 304.75 248.297 305.45C248.527 306.59 248.677 307.75 248.887 308.89C250.577 317.77 252.767 326.52 254.967 335.28C256.697 342.19 258.047 349.17 259.337 356.17C260.427 362.09 261.477 368.02 262.467 373.96C263.267 378.75 263.957 383.56 264.697 388.36C265.327 392.49 265.967 396.61 266.547 400.74C266.807 402.57 266.957 404.41 267.117 406.25C267.157 406.71 267.087 407.21 266.967 407.66C266.917 407.86 266.777 408.03 266.587 408.15C266.607 407.49 266.607 406.82 266.607 406.15C266.607 405.48 265.607 405.51 265.607 406.15H265.617Z" fill="#617462"/>
<path d="M233.847 201.3C234.387 201.33 234.577 202.17 233.987 202.27C233.847 202.29 233.697 202.33 233.557 202.36C233.587 201.97 233.667 201.6 233.847 201.3Z" fill="#617462"/>
<path d="M234.457 412.59C234.607 412.88 235.027 412.98 235.247 412.77C235.327 412.95 235.327 413.18 235.167 413.35C234.987 413.56 234.677 413.71 234.447 413.86C234.327 413.94 234.197 413.96 234.097 413.93C234.027 413.57 233.936 413.21 233.906 412.84C234.086 412.74 234.277 412.66 234.457 412.59Z" fill="#617462"/>
<path d="M234.457 412.59C234.267 412.66 234.086 412.74 233.906 412.84C233.906 412.84 233.906 412.83 233.906 412.82C233.876 412.33 234.127 411.93 234.497 411.74C234.467 411.91 234.447 412.08 234.417 412.25C234.397 412.38 234.417 412.49 234.467 412.58L234.457 412.59Z" fill="#617462"/>
<path d="M233.547 202.36C231.767 202.77 230.277 203.79 228.937 205.01C228.737 204.92 228.517 204.91 228.317 204.99C228.037 205.11 227.747 205.23 227.467 205.37C227.427 205.22 227.457 205.05 227.597 204.91C229.307 203.22 231.287 201.73 233.717 201.31C233.757 201.31 233.797 201.3 233.847 201.31C233.667 201.61 233.587 201.97 233.557 202.37L233.547 202.36Z" fill="#F7DDC0"/>
<path d="M227.467 205.37C227.747 205.24 228.037 205.12 228.317 204.99C228.517 204.91 228.737 204.92 228.937 205.01C228.717 205.21 228.507 205.41 228.297 205.62C227.987 205.93 227.547 205.7 227.457 205.37H227.467Z" fill="#617462"/>
<path d="M223.917 300.89C224.527 301.08 224.266 302.05 223.656 301.85C223.226 301.72 222.816 301.56 222.406 301.38C222.406 301.36 222.406 301.34 222.406 301.33C222.456 300.98 222.717 300.7 223.047 300.58C223.327 300.7 223.617 300.8 223.917 300.89Z" fill="#617462"/>
<path d="M223.917 300.89C223.627 300.8 223.337 300.69 223.047 300.58C223.167 300.53 223.307 300.5 223.447 300.5C223.927 300.49 224.387 300.82 224.467 301.33C224.537 301.8 224.547 302.28 224.547 302.76C224.507 306.87 224.467 310.97 224.417 315.08C224.327 322.68 224.237 330.28 224.137 337.88C224.057 343.56 223.967 349.24 223.877 354.92H223.777C223.677 364.02 223.537 373.13 223.487 382.23C223.437 392.02 223.527 401.81 224.437 411.57C224.497 412.17 224.487 412.8 224.417 413.4C224.377 413.77 224.127 413.99 223.787 414.08C223.707 414.1 223.627 414.11 223.547 414.12C223.107 414.15 222.707 413.99 222.527 413.58C222.367 413.21 222.297 412.79 222.267 412.39C222.037 409.59 221.727 406.8 221.617 404C221.107 392.09 221.147 380.19 221.427 368.27C221.767 353.42 222.017 338.57 222.237 323.71C222.337 316.87 222.297 310.02 222.317 303.17C222.317 302.57 222.347 301.98 222.417 301.39C222.817 301.57 223.237 301.72 223.667 301.86C224.287 302.05 224.547 301.09 223.927 300.9L223.917 300.89Z" fill="#617462"/>
<path d="M221.487 415.11C221.957 414.91 222.407 414.67 222.847 414.39C223.007 414.29 223.157 414.29 223.277 414.35C223.287 414.35 223.297 414.35 223.307 414.35C223.477 414.31 223.637 414.28 223.807 414.25C225.057 414.02 226.327 413.99 227.597 414.03C228.877 414.07 230.587 414.37 231.817 413.97C232.557 413.73 233.207 413.22 233.887 412.86C233.917 413.22 234.007 413.58 234.077 413.95C234.067 413.95 234.047 413.95 234.037 413.94C233.427 414.31 232.727 414.78 232.087 414.94C229.317 415.61 226.377 414.7 223.567 415.32C223.467 415.35 223.367 415.33 223.287 415.3C222.767 415.63 222.227 415.89 221.667 416.13C221.747 415.91 221.747 415.66 221.667 415.45C221.617 415.33 221.557 415.22 221.477 415.12L221.487 415.11Z" fill="#617462"/>
<path d="M219.147 298.3C220.387 299.17 221.657 300 223.057 300.57C222.727 300.7 222.467 300.97 222.417 301.32C222.417 301.34 222.417 301.36 222.417 301.37C220.817 300.67 219.387 299.66 217.947 298.65C218.257 298.62 218.557 298.55 218.857 298.44C218.967 298.4 219.066 298.34 219.156 298.28L219.147 298.3Z" fill="#F7DDC0"/>
<path d="M219.837 415.73C220.397 415.54 220.947 415.35 221.487 415.11C221.567 415.2 221.627 415.31 221.677 415.44C221.757 415.65 221.757 415.89 221.677 416.12C221.167 416.33 220.637 416.52 220.107 416.7C219.497 416.9 219.237 415.94 219.847 415.74L219.837 415.73Z" fill="#617462"/>
<path d="M219.147 298.3C219.057 298.37 218.957 298.42 218.847 298.46C218.557 298.56 218.247 298.64 217.937 298.67C217.607 298.44 217.276 298.21 216.946 297.99C216.416 297.63 216.916 296.77 217.446 297.13C218.016 297.51 218.577 297.91 219.147 298.31V298.3Z" fill="#617462"/>
<path d="M217.937 298.67C216.697 298.79 215.487 298.2 215.437 296.26C215.427 295.79 215.517 295.31 215.607 294.84C216.957 287.86 218.337 280.88 219.667 273.89C220.427 269.93 221.247 265.97 221.607 261.94C221.677 261.12 221.797 260.3 221.777 259.48C221.747 258.11 221.617 256.75 221.527 255.4C220.997 255.27 220.917 255.68 220.797 255.94C219.947 257.84 218.737 259.49 217.437 261.08C216.387 262.36 215.177 263.48 213.717 264.28C210.917 265.83 208.307 265.41 206.067 263.11C204.907 261.91 204.057 260.49 203.487 258.95C202.627 256.57 201.797 254.18 201.097 251.75C199.447 246.03 198.237 240.2 197.257 234.33C197.157 233.72 196.997 233.13 196.847 232.4C196.247 232.34 195.647 232.3 195.057 232.24C194.217 232.15 193.657 231.71 193.487 230.86C193.287 229.79 193.117 228.72 192.927 227.63C193.207 227.63 193.367 227.41 193.377 227.19L194.777 227.26C194.717 228.32 194.767 229.33 195.347 230.34C198.157 230.42 200.927 230.45 203.637 229.72L204.787 230.22C204.647 230.48 204.537 230.76 204.497 231.07C204.477 231.25 204.127 231.48 203.887 231.54C203.227 231.7 202.547 231.82 201.877 231.9C201.077 232 200.257 232.05 199.367 232.12C199.367 232.78 199.287 233.32 199.377 233.83C200.507 240.44 201.947 246.99 203.927 253.4C204.467 255.16 205.177 256.87 205.877 258.58C206.347 259.72 207.017 260.77 207.937 261.62C209.337 262.93 210.747 263.13 212.447 262.25C213.617 261.64 214.577 260.76 215.437 259.77C216.917 258.05 218.217 256.2 219.037 254.07C219.677 252.41 220.287 250.74 220.857 249.06C221.047 248.49 221.067 247.86 221.127 247.25C221.167 246.78 221.116 246.29 221.156 245.82C221.206 245.36 221.667 244.92 222.097 244.85C222.507 244.78 223.067 245.11 223.207 245.58C223.337 246.03 223.437 246.51 223.457 246.98C223.647 250.95 223.807 254.92 223.987 258.88C224.127 262.06 223.527 265.16 222.957 268.25C221.327 277.13 219.617 286 217.947 294.87C217.887 295.2 217.877 295.54 217.827 295.97C218.217 296.1 218.597 296.2 218.947 296.35C219.367 296.53 219.557 296.88 219.557 297.33C219.557 297.74 219.407 298.08 219.117 298.29C218.557 297.9 217.987 297.5 217.417 297.11C216.877 296.75 216.377 297.61 216.917 297.97C217.247 298.2 217.576 298.42 217.906 298.65L217.937 298.67Z" fill="#617462"/>
<path d="M215.677 223.82C215.717 223.69 215.757 223.56 215.807 223.43C215.837 223.33 215.876 223.24 215.906 223.14C215.966 223.3 215.957 223.49 215.817 223.65C215.767 223.71 215.727 223.76 215.677 223.82Z" fill="#F7DDC0"/>
<path d="M215.807 223.44C215.757 223.57 215.717 223.7 215.677 223.83C214.957 224.7 214.347 225.64 213.807 226.61C213.727 226.61 213.657 226.58 213.577 226.55C213.307 226.44 213.107 226.26 213.007 226.03C213.607 224.95 214.287 223.92 215.117 222.96C215.397 222.64 215.797 222.84 215.917 223.15C215.877 223.25 215.847 223.34 215.817 223.44H215.807Z" fill="#617462"/>
<path d="M215.677 223.82C215.537 224.27 215.417 224.74 215.267 225.19C215.157 225.51 215.017 225.83 214.837 226.12C214.627 226.47 214.197 226.65 213.807 226.6C214.347 225.63 214.957 224.69 215.677 223.82Z" fill="#617462"/>
<path d="M215.107 222.95C214.287 223.91 213.597 224.95 212.997 226.02C212.937 225.9 212.907 225.75 212.917 225.6C212.937 225.2 212.997 224.79 213.117 224.4C214.907 218.39 217.797 213.05 222.637 208.91C223.627 208.07 224.557 207.15 225.607 206.4C226.177 205.99 226.816 205.66 227.466 205.37C227.556 205.69 227.987 205.93 228.307 205.62C228.517 205.42 228.726 205.21 228.946 205.01C229.316 205.17 229.636 205.55 229.676 205.98C229.646 206.1 229.647 206.34 229.527 206.49C229.327 206.75 229.087 207.04 228.797 207.18C225.527 208.79 223.107 211.41 220.787 214.09C218.497 216.73 217.067 219.88 215.897 223.14C215.777 222.82 215.377 222.62 215.097 222.95H215.107Z" fill="#617462"/>
<path d="M213.807 226.6C212.847 228.34 212.117 230.2 211.377 232.07C211.177 231.67 210.987 231.26 210.787 230.86C211.447 229.2 212.137 227.57 213.007 226.02C213.107 226.25 213.307 226.43 213.577 226.54C213.647 226.57 213.727 226.59 213.807 226.6Z" fill="#F7DDC0"/>
<path d="M210.787 230.86C210.987 231.26 211.187 231.66 211.377 232.07C211.277 232.31 211.177 232.56 211.087 232.8C210.907 233.25 210.297 233.21 210.127 232.89C210.077 232.79 210.067 232.67 210.127 232.53C210.347 231.97 210.567 231.41 210.787 230.85V230.86Z" fill="#617462"/>
<path d="M210.127 232.9C210.297 233.21 210.907 233.26 211.087 232.81C211.187 232.57 211.277 232.32 211.377 232.08C212.207 233.77 213.027 235.47 213.847 237.16C214.087 237.65 214.297 238.16 214.447 238.68C214.607 239.22 214.277 239.8 213.757 240.02C213.347 240.19 212.787 240.03 212.507 239.59C212.227 239.13 212.007 238.62 211.767 238.13C210.977 236.51 210.187 234.89 209.387 233.26L210.127 232.9Z" fill="#617462"/>
<path d="M193.156 205.52C193.536 205.56 193.917 205.58 194.307 205.57C194.167 205.72 193.937 205.8 193.697 205.7C193.527 205.62 193.346 205.57 193.156 205.53V205.52Z" fill="white"/>
<path d="M194.207 204.83C193.707 204.61 193.167 204.5 192.607 204.45C192.707 204.26 192.867 204.08 192.997 204.05C194.137 203.84 195.297 203.66 196.447 203.61C199.667 203.45 202.877 203.56 206.077 203.97C207.687 204.17 208.387 205.37 207.707 206.91C207.657 207.02 207.587 207.12 207.507 207.22L206.147 207.13C206.037 206.69 205.937 206.26 205.817 205.8C202.207 205.4 198.677 204.95 195.107 205.5C194.837 205.54 194.567 205.57 194.297 205.58C194.507 205.36 194.537 205 194.197 204.84L194.207 204.83Z" fill="#617462"/>
<path d="M192.997 205.49C193.047 205.49 193.106 205.51 193.156 205.52C193.126 205.52 193.107 205.52 193.077 205.52C193.047 205.52 193.027 205.51 192.997 205.49Z" fill="#617462"/>
<path d="M192.607 204.45C193.157 204.5 193.707 204.6 194.207 204.83C194.557 204.98 194.517 205.35 194.307 205.57C193.927 205.58 193.536 205.57 193.156 205.52C193.106 205.51 193.047 205.49 192.997 205.49C192.777 205.4 192.517 205.04 192.497 204.82C192.497 204.72 192.537 204.59 192.607 204.46V204.45Z" fill="#617462"/>
<path d="M191.637 226.2C192.007 226.45 192.436 226.61 192.906 226.62C193.246 226.62 193.407 226.91 193.387 227.18C193.367 227.4 193.217 227.62 192.937 227.62C192.937 227.62 192.937 227.61 192.937 227.6C192.027 226.92 191.587 226.54 191.647 226.2H191.637Z" fill="#617462"/>
<path d="M190.047 214.22C190.357 214.06 190.687 213.92 191.047 213.8C191.657 213.59 191.917 214.56 191.307 214.76C191.017 214.86 190.757 214.96 190.507 215.09C190.277 215.01 190.087 214.84 190.037 214.56C190.017 214.45 190.027 214.33 190.047 214.21V214.22Z" fill="#617462"/>
<path d="M190.567 204.8C191.007 204.8 191.287 205.03 191.407 205.41C191.207 205.41 191.017 205.41 190.827 205.41C190.467 205.41 190.307 205.09 190.357 204.82C190.427 204.8 190.497 204.79 190.567 204.79V204.8Z" fill="#617462"/>
<path d="M192.906 227.62C191.946 227.6 191.107 227.17 190.467 226.5C190.467 226.5 190.467 226.5 190.477 226.5C190.657 226.38 190.807 226.03 190.777 225.81C190.747 225.63 190.687 225.45 190.617 225.28C190.727 225.31 190.826 225.37 190.906 225.49C191.106 225.77 191.357 226.02 191.637 226.21C191.577 226.55 192.017 226.93 192.927 227.61C192.927 227.61 192.927 227.62 192.927 227.63H192.897L192.906 227.62Z" fill="white"/>
<path d="M192.387 214.79C191.917 214.89 191.467 215.07 190.997 215.13C190.827 215.15 190.656 215.14 190.506 215.09C190.756 214.96 191.017 214.85 191.307 214.76C191.917 214.55 191.656 213.59 191.046 213.8C190.686 213.92 190.356 214.06 190.046 214.22C190.086 214.02 190.177 213.81 190.287 213.65C190.467 213.39 190.787 213.23 191.017 213.04C190.907 211.86 190.827 210.77 190.687 209.69C190.647 209.37 190.486 209.04 190.316 208.76C189.716 207.76 189.827 206.65 189.787 205.57C189.777 205.19 190.027 204.9 190.347 204.82C190.297 205.09 190.456 205.41 190.816 205.41C190.996 205.41 191.197 205.41 191.397 205.41C191.407 205.44 191.416 205.48 191.426 205.51C191.536 206.03 191.586 206.57 191.656 207.06C193.956 207.57 202.957 207.62 206.147 207.13L207.506 207.22C207.376 207.39 207.216 207.55 207.066 207.75C207.796 209.18 207.507 210.69 207.387 212.17C207.167 215.04 206.927 217.9 206.617 220.76C206.507 221.76 206.657 222.64 207.117 223.53C208.207 225.66 209.267 227.81 210.327 229.96C210.477 230.26 210.627 230.56 210.767 230.86C210.547 231.42 210.326 231.98 210.106 232.54C210.056 232.68 210.066 232.8 210.106 232.9L209.367 233.26C208.477 231.44 207.586 229.62 206.696 227.8C206.546 227.51 206.356 227.24 206.046 226.72C205.876 227.36 205.686 227.72 205.696 228.09C205.706 228.93 205.147 229.53 204.787 230.22L203.637 229.72C203.877 228.06 204.146 226.51 204.316 224.96C204.486 223.35 204.737 221.75 204.957 220.15C205.347 217.24 205.496 214.3 205.716 211.37C205.766 210.71 205.897 210.01 205.397 209.28C201.437 209.26 197.417 209.24 193.397 209.22C193.147 209.22 192.886 209.33 192.566 209.39C192.306 210.61 192.597 211.7 192.887 212.82C193.257 212.86 193.517 212.9 193.787 212.91C194.057 212.93 194.336 212.91 194.606 212.94C195.076 213.01 195.566 213.04 196.006 213.19C197.216 213.61 197.566 214.37 197.086 215.58C196.936 215.96 196.657 216.28 196.917 216.7C197.317 217.35 197.267 217.98 196.917 218.64C196.797 218.86 196.697 219.24 196.807 219.4C197.527 220.51 197.037 221.48 196.477 222.34C197.197 224.41 197.166 224.48 194.836 226.38C194.816 226.66 194.786 226.94 194.776 227.21L193.377 227.14C193.397 226.88 193.237 226.59 192.897 226.58C192.437 226.58 191.997 226.42 191.627 226.16C191.687 225.84 192.167 225.56 193.097 225.11C193.687 224.82 194.317 224.58 194.687 223.96C194.197 223.47 193.717 223.68 193.267 223.67C192.857 223.67 192.436 223.72 192.046 223.64C191.826 223.59 191.537 223.32 191.517 223.12C191.477 222.82 191.547 222.34 191.747 222.2C192.117 221.94 192.617 221.81 193.077 221.74C193.757 221.63 194.426 221.55 194.906 220.97C194.866 220.5 194.507 220.45 194.167 220.49C193.627 220.54 193.086 220.68 192.546 220.73C192.026 220.77 191.587 220.4 191.517 219.93C191.457 219.46 191.756 219 192.276 218.86C192.736 218.74 193.237 218.75 193.687 218.59C194.097 218.45 194.466 218.17 194.926 217.9C194.436 217.36 193.946 217.52 193.506 217.49C193.036 217.46 192.546 217.53 192.086 217.44C191.876 217.4 191.567 217.11 191.557 216.92C191.527 216.62 191.626 216.17 191.836 216.02C192.206 215.76 192.706 215.67 193.156 215.5C193.586 215.35 194.006 215.19 194.606 214.97C193.306 214.6 193.177 214.58 192.367 214.76L192.387 214.79Z" fill="#617462"/>
<path d="M190.787 225.8C190.827 226.02 190.676 226.37 190.486 226.49C190.486 226.49 190.487 226.49 190.477 226.49C190.327 226.33 190.187 226.16 190.057 225.97C189.767 225.56 190.227 225.16 190.627 225.26C190.697 225.43 190.757 225.61 190.787 225.79V225.8Z" fill="#617462"/>
<path d="M191.406 205.41C191.286 205.03 191.007 204.81 190.567 204.8C190.497 204.8 190.427 204.8 190.357 204.83C190.387 204.62 190.547 204.42 190.827 204.42C191.407 204.42 192.017 204.41 192.607 204.46C192.537 204.59 192.497 204.72 192.497 204.82C192.507 205.05 192.777 205.4 192.997 205.49C192.487 205.4 191.926 205.4 191.406 205.41Z" fill="white"/>
<path d="M189.887 215.5C189.837 215.31 189.707 215.16 189.477 215.13C189.267 215.1 188.997 215.11 188.777 215.19C189.147 214.79 189.567 214.48 190.047 214.22C190.017 214.34 190.017 214.46 190.037 214.57C190.097 214.85 190.277 215.02 190.507 215.1C190.287 215.21 190.077 215.34 189.887 215.5Z" fill="white"/>
<path d="M189.477 215.13C189.707 215.17 189.837 215.31 189.887 215.5C189.627 215.71 189.386 215.96 189.176 216.27C188.816 216.8 187.947 216.3 188.317 215.77C188.457 215.56 188.617 215.37 188.777 215.2C188.987 215.12 189.267 215.11 189.477 215.14V215.13Z" fill="#617462"/>
<path d="M189.917 215.93C189.887 216.19 189.767 216.45 189.697 216.71C188.997 219.44 189.097 222.1 190.337 224.68C190.427 224.87 190.537 225.07 190.617 225.27C190.227 225.17 189.757 225.57 190.047 225.98C190.177 226.16 190.317 226.34 190.467 226.5C190.277 226.62 189.887 226.66 189.727 226.54C189.367 226.26 189.017 225.91 188.797 225.51C187.827 223.73 187.577 221.77 187.447 219.5C187.577 218.63 187.707 217.48 187.937 216.35C188.007 215.98 188.257 215.57 188.537 215.32C188.597 215.27 188.677 215.23 188.757 215.19C188.597 215.36 188.447 215.55 188.297 215.76C187.937 216.29 188.796 216.79 189.156 216.26C189.366 215.95 189.607 215.7 189.867 215.49C189.907 215.62 189.917 215.77 189.897 215.91L189.917 215.93Z" fill="#617462"/>
<path d="M230.777 140.73L236.317 146.27L230.777 151.81" stroke="white" stroke-width="0.96" stroke-linecap="round" stroke-linejoin="round"/>
<path d="M90.8567 151.81L85.3167 146.27L90.8567 140.73" stroke="white" stroke-width="0.96" stroke-linecap="round" stroke-linejoin="round"/>
<path d="M85.3167 146.27H236.317" stroke="white" stroke-width="0.96" stroke-linecap="round" stroke-linejoin="round"/>
<path d="M121.406 375.31L115.867 380.85L110.327 375.31" stroke="white" stroke-width="0.96" stroke-linecap="round" stroke-linejoin="round"/>
<path d="M110.327 68.7598L115.867 63.2197L121.406 68.7598" stroke="white" stroke-width="0.96" stroke-linecap="round" stroke-linejoin="round"/>
<path d="M115.867 63.2197V380.85" stroke="white" stroke-width="0.96" stroke-linecap="round" stroke-linejoin="round"/>
<path d="M127.607 474.29C127.577 474.45 127.417 474.58 127.227 474.64C126.047 478.61 124.447 482.26 122.527 485.23C123.907 486.03 125.466 487.02 126.656 487.89L125.317 490C124.167 489.1 122.537 488.05 121.187 487.22C118.247 491.32 114.467 494.61 109.637 496.95C109.287 496.41 108.457 495.64 107.877 495.29C112.547 493.11 116.297 489.88 119.207 486.07C116.837 484.76 114.507 483.64 112.137 482.74L113.357 480.95C115.697 481.78 118.097 482.87 120.557 484.18C122.217 481.56 123.537 478.77 124.427 475.7H113.577C111.627 478.96 108.997 482.2 106.187 484.5C105.767 484.12 104.907 483.41 104.367 483.06C108.557 479.86 112.527 474.1 114.447 468.63L117.487 469.33C117.357 469.68 117.037 469.78 116.627 469.75C116.177 470.81 115.447 472.37 114.837 473.56H125.457L125.906 473.43L127.637 474.29H127.607Z" fill="#617462"/>
<path d="M135.647 484.69C138.077 482.13 143.137 476.5 144.957 474.55C145.787 473.72 146.617 473.33 147.457 473.33C148.297 473.33 149.187 473.78 150.047 474.55C154.177 478.33 160.826 485.72 165.656 491.99L163.737 493.75C159.197 487.45 152.507 479.86 148.927 476.54C148.387 476.03 147.967 475.74 147.547 475.74C147.127 475.74 146.747 476.06 146.237 476.54C144.737 478.17 140.057 483.55 137.917 485.85C137.947 485.91 137.947 486.01 137.947 486.07C137.947 486.33 137.817 486.58 137.627 486.74L135.647 484.69ZM159.897 468.46C161.847 468.46 163.447 470.06 163.447 472.04C163.447 474.02 161.847 475.62 159.897 475.62C157.947 475.62 156.277 474.02 156.277 472.04C156.277 470.06 157.937 468.46 159.897 468.46ZM162.397 472.05C162.397 470.64 161.277 469.49 159.897 469.49C158.517 469.49 157.337 470.64 157.337 472.05C157.337 473.46 158.487 474.58 159.897 474.58C161.307 474.58 162.397 473.36 162.397 472.05Z" fill="#617462"/>
<path d="M193.177 472.18C193.117 472.34 192.957 472.47 192.757 472.53C191.027 476.59 188.977 480.11 186.357 483.54C189.847 486.32 195.097 491.09 198.067 494.39L196.117 496.09C193.297 492.83 188.147 487.96 184.887 485.34C182.067 488.76 177.207 493.43 172.567 496.09C172.217 495.61 171.446 494.81 170.906 494.36C179.766 489.5 186.776 480.41 189.656 473.47H173.947V471.29H190.906L191.327 471.13L193.187 472.19L193.177 472.18Z" fill="#617462"/>
<path d="M223.647 485.9C220.387 484.14 215.907 482.06 212.417 480.68V496.68H210.017V468.87L213.247 469.06C213.217 469.41 212.957 469.64 212.417 469.73V479.07L212.897 478.4C216.637 479.78 221.597 481.98 224.927 483.74L223.647 485.88V485.9Z" fill="#617462"/>
<path d="M236.057 486.58V471.03L239.097 471.22C239.067 471.51 238.837 471.73 238.327 471.8V486.58H236.057ZM253.887 469.78C253.857 470.1 253.627 470.26 253.117 470.32V480.49C253.117 487.21 250.817 493.35 241.627 496.91C241.307 496.43 240.507 495.6 239.967 495.18C248.827 491.88 250.817 486.41 250.817 480.49V469.58L253.887 469.77V469.78Z" fill="#617462"/>
<path d="M263.167 481.13H289.887V483.4H264.387C264.197 483.72 263.777 483.94 263.367 484.01L263.177 481.13H263.167Z" fill="#617462"/>
<path d="M354.357 0.959961H392.797V39.3999L354.357 0.959961Z" fill="#99A893"/>
</svg>
