<svg width="394" height="557" viewBox="0 0 394 557" fill="none" xmlns="http://www.w3.org/2000/svg">
<path d="M391.423 1.57642H1.83325V554.886H391.423V1.57642Z" fill="white"/>
<path d="M390.923 2.07642V554.386H2.33325V2.07642H390.923ZM391.923 1.07642H1.33325V555.386H391.923V1.07642Z" fill="#99A893"/>
<path d="M118.372 365.931L115.636 364.63L98.6613 400.33L101.398 401.631L118.372 365.931Z" fill="#B9BABA"/>
<path d="M99.5131 399.167L98.3132 401.697C98.2232 401.897 98.3632 402.117 98.5732 402.127L101.643 402.187C101.763 402.187 101.873 402.126 101.923 402.016L102.583 400.627C102.653 400.477 102.583 400.297 102.443 400.227L99.9133 399.027C99.7633 398.957 99.5831 399.027 99.5131 399.167Z" fill="#231815"/>
<path d="M192.554 402.035L195.29 400.733L178.316 365.034L175.579 366.335L192.554 402.035Z" fill="#B9BABA"/>
<path d="M195.253 399.167L196.453 401.697C196.543 401.897 196.403 402.117 196.193 402.127L193.123 402.187C193.003 402.187 192.893 402.127 192.843 402.017L192.183 400.627C192.113 400.477 192.183 400.297 192.323 400.227L194.853 399.027C195.003 398.957 195.183 399.027 195.253 399.167Z" fill="#231815"/>
<path d="M264.503 250.696C265.213 251.206 265.213 251.797 264.523 252.357C264.273 252.557 264.003 252.747 263.883 252.837C263.593 253.847 264.843 254.587 263.923 255.487C263.583 255.037 263.303 254.577 262.933 254.207C262.783 254.057 262.413 254.026 262.183 254.076C261.813 254.166 261.613 254.517 261.693 254.877C261.783 255.337 261.983 255.787 262.153 256.227C262.553 257.237 263.093 258.206 263.083 259.516C262.743 259.276 262.493 259.167 262.343 258.977C261.913 258.437 261.533 257.867 261.123 257.317C260.693 256.727 260.193 256.547 259.743 256.797C259.223 257.087 259.303 257.577 259.323 258.067C259.343 258.707 259.723 259.337 259.403 260.277C259.043 259.767 258.783 259.467 258.603 259.127C258.313 258.587 258.133 257.977 257.783 257.477C257.643 257.267 257.143 257.127 256.893 257.217C256.653 257.297 256.433 257.677 256.353 257.967C256.283 258.197 256.393 258.516 256.493 258.766C256.653 259.156 256.833 259.536 257.033 259.906C255.463 259.886 253.643 259.766 252.373 258.946C252.583 258.856 252.733 258.686 252.763 258.426C253.013 256.656 253.973 255.206 254.953 253.806C256.383 251.746 258.353 250.406 260.813 249.866C262.163 249.566 263.403 249.907 264.523 250.707L264.503 250.696Z" fill="white"/>
<path d="M242.733 159.286C243.263 160.376 243.773 161.167 243.993 162.237C243.513 162.157 243.143 162.067 242.773 162.027C242.383 161.977 241.983 161.967 241.453 161.937C241.473 160.927 241.893 160.176 242.733 159.286Z" fill="white"/>
<path d="M243.083 164.786C243.263 165.936 243.523 167.106 242.523 168.216C241.193 167.166 241.293 165.976 241.763 164.766C241.863 164.516 242.253 164.306 242.543 164.256C242.693 164.226 243.043 164.576 243.073 164.786H243.083Z" fill="white"/>
<path d="M260.143 178.247C260.133 178.927 260.093 179.606 259.973 180.266C259.913 180.316 259.853 180.367 259.803 180.417C259.673 180.537 259.613 180.787 259.603 180.987C259.483 182.497 259.343 184.006 259.303 185.516C259.303 185.576 259.303 185.637 259.313 185.697C258.233 185.887 257.213 186.267 256.453 186.777C256.363 186.837 256.313 186.907 256.273 186.977C256.173 186.977 256.073 186.977 255.983 187.007C255.783 187.057 255.593 187.147 255.403 187.227C253.073 188.247 250.723 188.126 248.343 187.406C247.643 187.196 246.913 187.117 246.133 186.967C246.063 183.687 244.573 181.497 241.103 180.947C240.933 180.157 240.783 179.446 240.613 178.656C241.413 178.476 242.073 178.337 242.733 178.187C243.583 177.997 244.213 177.477 244.713 176.797C245.173 176.157 245.163 175.547 244.693 175.127C244.273 174.757 243.773 174.736 243.243 175.306C242.623 175.976 241.913 176.227 241.043 176.237C240.643 176.237 240.253 176.316 239.783 176.366C239.033 174.376 237.433 173.137 235.983 171.667C237.153 170.617 238.213 169.656 239.353 168.636C239.883 169.056 240.403 169.496 240.953 169.886C242.263 170.796 243.613 170.537 244.543 169.237C245.083 168.487 245.323 167.637 245.343 166.717C245.343 166.437 245.323 166.156 245.363 165.886C245.413 165.596 245.153 165.196 245.593 165.016C245.683 165.046 245.773 165.056 245.803 165.096C246.163 165.596 246.513 166.097 246.873 166.607C248.203 168.467 248.653 168.737 250.913 168.967C250.983 169.077 251.053 169.186 251.103 169.306C251.713 170.556 252.433 170.676 253.163 169.636C253.443 169.246 253.663 168.817 253.953 168.437C254.223 168.087 254.763 168.196 254.993 168.596C255.523 169.556 255.433 170.457 254.713 171.247C254.523 171.447 254.293 171.596 254.093 171.786C253.773 172.096 253.623 172.466 253.803 172.906C253.983 173.336 254.473 173.607 254.993 173.527C255.383 173.457 255.753 173.307 256.053 173.217C256.223 173.327 256.303 173.347 256.333 173.397C256.713 174.047 257.083 174.707 257.473 175.357C257.863 176.007 258.243 176.666 258.673 177.286C259.043 177.826 259.583 178.187 260.143 178.247Z" fill="white"/>
<path d="M265.193 166.247C265.213 166.847 265.053 167.477 264.853 168.047C264.443 169.197 261.223 173.947 260.123 175.127C259.283 173.707 258.433 172.317 257.643 170.897C257.493 170.627 257.613 170.217 257.533 169.897C257.343 169.097 257.223 168.266 256.873 167.536C256.283 166.296 255.193 165.807 253.803 166.027C253.403 166.087 253.053 166.297 252.623 166.047C252.103 165.747 251.583 165.907 251.043 166.117C249.823 166.587 249.773 166.547 248.993 165.557C248.953 165.497 248.903 165.447 248.873 165.387C247.773 163.557 246.673 161.737 245.593 159.897C244.953 158.807 244.803 157.577 244.683 156.347C244.633 155.887 244.843 155.557 245.253 155.347C248.063 153.857 251.063 153.277 254.223 153.477C255.103 153.537 256.023 153.647 256.853 153.947C258.543 154.557 259.883 155.637 260.343 157.457C260.563 158.317 260.983 158.827 261.803 158.957C263.773 159.247 264.593 160.547 264.823 162.337C264.993 163.637 265.143 164.937 265.193 166.237V166.247Z" fill="#CCCCCC"/>
<path d="M311.543 231.837C311.693 232.867 311.713 235.087 311.003 235.947C310.883 235.877 310.753 235.827 310.603 235.817C310.263 235.777 309.943 235.927 309.693 236.227C309.413 236.287 309.263 236.616 309.343 236.886C309.343 236.906 309.343 236.917 309.323 236.937C309.183 237.397 309.083 237.867 308.973 238.337C307.153 246.497 305.333 254.646 303.523 262.806C303.193 262.706 302.753 262.967 302.853 263.417C303.193 264.847 301.673 265.147 300.203 265.127C300.043 264.967 299.833 264.847 299.573 264.817C298.893 264.717 298.203 264.737 297.523 264.697C296.443 264.637 295.333 264.887 294.193 264.507C294.273 263.927 294.343 263.377 294.413 262.837C294.563 261.777 294.333 260.766 293.903 259.826C293.433 258.786 292.613 258.427 291.573 258.837C291.053 259.047 290.703 259.017 290.263 258.717C289.773 258.377 289.203 258.367 288.703 258.677C287.663 259.337 286.213 258.807 285.293 259.857C285.193 259.977 284.773 259.836 284.513 259.766C283.643 259.556 282.983 259.937 282.583 260.627C282.023 261.567 281.593 262.577 281.103 263.567C280.903 263.987 280.723 264.406 280.543 264.806H275.383C271.683 264.806 268.003 264.806 264.263 264.806C264.353 264.316 264.403 263.976 264.483 263.656C264.883 262.126 265.333 260.607 265.693 259.067C266.803 254.307 267.843 249.536 268.973 244.786C269.963 240.606 270.663 236.357 271.973 232.247C273.333 232.297 274.703 232.166 276.073 232.056C276.223 232.206 276.413 232.317 276.613 232.337C277.223 232.397 277.843 232.396 278.463 232.386C282.793 232.296 287.123 232.196 291.453 232.096C295.923 231.986 300.393 231.887 304.863 231.777C305.483 231.757 306.103 231.717 306.703 231.607C306.773 231.597 306.853 231.567 306.913 231.527C308.463 231.617 310.013 231.786 311.563 231.826L311.543 231.837Z" fill="#CCCCCC"/>
<path d="M285.813 406.576C285.223 406.656 284.903 406.717 284.573 406.737C281.243 406.947 277.983 406.506 274.793 405.516C272.433 404.776 270.073 404.017 267.733 403.227C266.843 402.927 265.993 402.897 265.103 403.197C264.583 403.377 264.053 403.537 263.533 403.687C263.153 403.797 262.763 403.987 262.203 403.457C262.613 401.367 262.183 398.967 263.653 396.917C263.693 396.867 263.723 396.817 263.753 396.757C266.843 397.147 270.203 396.957 273.103 395.857C273.123 395.887 273.153 395.917 273.173 395.937C273.663 396.407 274.203 396.847 274.763 397.237C277.823 399.357 280.823 401.547 283.583 404.047C284.343 404.737 285.153 405.376 285.803 406.576H285.813Z" fill="#617462"/>
<path d="M240.123 402.157C240.393 403.207 240.723 404.257 240.683 405.687C239.383 405.447 238.303 405.266 237.233 405.036C236.103 404.796 235.063 404.917 234.043 405.487C232.903 406.127 231.733 406.706 230.563 407.286C226.593 409.246 222.373 410.057 217.983 410.077C217.363 410.077 216.743 409.997 216.143 409.877C215.843 409.817 215.573 409.587 215.173 409.367C215.563 408.917 215.853 408.547 216.173 408.217C218.083 406.297 220.403 404.927 222.673 403.487C224.333 402.427 225.843 401.037 227.993 400.937C228.403 400.917 228.663 400.497 228.683 400.027C228.703 399.517 228.383 399.057 227.913 398.937C227.833 398.917 227.753 398.907 227.673 398.887C227.793 396.807 230.203 396.637 232.213 396.687C234.313 396.727 236.463 397.147 238.573 397.007C238.643 397.207 238.713 397.407 238.773 397.617C239.233 399.127 239.743 400.627 240.133 402.157H240.123Z" fill="#617462"/>
<path d="M312.453 231.207C312.773 232.467 312.763 235.576 311.563 236.806C311.493 236.416 311.293 236.107 311.013 235.937C311.723 235.077 311.703 232.856 311.553 231.826C310.003 231.786 308.453 231.617 306.903 231.527C307.223 231.347 307.453 230.906 307.423 230.556C308.943 230.656 310.453 230.817 311.973 230.837C312.193 230.837 312.403 230.987 312.453 231.207Z" fill="#CCCCCC"/>
<path d="M311.553 236.806C311.583 236.976 311.593 237.166 311.553 237.366C311.473 237.906 311.343 238.447 311.223 238.977C309.413 247.087 307.593 255.187 305.773 263.297C305.653 263.827 305.543 264.366 305.353 264.886C305.133 265.496 304.653 265.767 304.073 265.687C303.763 265.647 303.523 265.477 303.383 265.187C303.843 264.737 304.053 264.086 303.823 263.136C303.783 262.946 303.663 262.837 303.523 262.797C305.333 254.637 307.153 246.486 308.973 238.326C309.083 237.856 309.183 237.387 309.323 236.927C309.323 236.907 309.333 236.897 309.343 236.877C309.383 237.017 309.493 237.147 309.673 237.197C310.493 237.447 311.103 237.257 311.553 236.797V236.806Z" fill="#617462"/>
<path d="M311.003 235.947C311.283 236.117 311.493 236.427 311.553 236.817C311.103 237.267 310.493 237.467 309.673 237.217C309.493 237.157 309.383 237.037 309.343 236.897C309.433 236.627 309.553 236.407 309.693 236.237C309.763 236.217 309.843 236.227 309.933 236.257C310.393 236.397 310.743 236.257 310.993 235.957L311.003 235.947Z" fill="#617462"/>
<path d="M310.603 235.817C310.743 235.837 310.883 235.877 311.003 235.947C310.753 236.247 310.403 236.387 309.943 236.247C309.853 236.217 309.773 236.217 309.703 236.227C309.953 235.927 310.273 235.777 310.613 235.817H310.603Z" fill="#617462"/>
<path d="M309.703 236.227C309.553 236.397 309.433 236.616 309.353 236.886C309.273 236.616 309.423 236.277 309.703 236.227Z" fill="#CCCCCC"/>
<path d="M307.413 230.567C307.443 230.927 307.223 231.356 306.893 231.536C306.433 231.506 305.963 231.497 305.503 231.487C304.853 231.487 304.853 230.477 305.503 230.487C306.143 230.487 306.773 230.527 307.413 230.567Z" fill="#617462"/>
<path d="M307.403 230.507C307.403 230.507 307.403 230.547 307.403 230.567C306.773 230.527 306.133 230.497 305.493 230.487C304.843 230.487 304.843 231.487 305.493 231.487C305.953 231.487 306.423 231.506 306.883 231.536C306.813 231.576 306.743 231.607 306.673 231.617C306.073 231.727 305.453 231.766 304.833 231.786C300.363 231.896 295.893 231.997 291.423 232.097C287.093 232.207 282.763 232.307 278.433 232.397C277.813 232.407 277.193 232.417 276.583 232.347C276.383 232.327 276.193 232.217 276.043 232.067C277.803 231.937 279.563 231.837 281.313 232.187C281.943 232.317 282.213 231.347 281.583 231.217C279.633 230.827 277.683 230.967 275.733 231.117C275.823 230.737 276.133 230.366 276.533 230.286C277.003 230.196 277.483 230.157 277.963 230.147C281.863 230.057 285.763 229.967 289.663 229.887C289.643 230.097 289.613 230.307 289.583 230.507C289.483 231.137 290.453 231.407 290.553 230.777C290.603 230.477 290.633 230.177 290.653 229.877C295.433 229.767 300.213 229.667 304.983 229.567C305.533 229.557 306.083 229.567 306.623 229.667C307.053 229.747 307.313 230.087 307.393 230.527L307.403 230.507Z" fill="#617462"/>
<path d="M303.833 263.147C304.063 264.097 303.853 264.747 303.393 265.197C303.283 264.977 303.223 264.677 303.233 264.317C303.293 264.017 303.363 263.537 303.473 263.067C303.493 262.977 303.513 262.896 303.533 262.806C303.673 262.846 303.793 262.957 303.833 263.147Z" fill="#617462"/>
<path d="M303.533 262.806C303.513 262.896 303.493 262.976 303.473 263.066C303.373 263.536 303.293 264.006 303.233 264.316C303.233 264.686 303.283 264.976 303.393 265.196C302.753 265.826 301.613 266.046 300.473 266.076C300.473 266.046 300.483 266.016 300.483 265.986C300.523 265.666 300.413 265.346 300.203 265.126C301.673 265.146 303.203 264.847 302.853 263.417C302.743 262.977 303.193 262.706 303.523 262.806H303.533Z" fill="#CCCCCC"/>
<path d="M300.213 265.127C300.423 265.347 300.533 265.666 300.493 265.986C300.493 266.016 300.493 266.046 300.483 266.076C299.503 266.106 298.523 266.007 297.843 265.917C297.203 265.827 297.473 264.866 298.113 264.946C298.563 265.006 299.383 265.117 300.223 265.127H300.213Z" fill="#617462"/>
<path d="M297.833 265.917C298.513 266.007 299.493 266.106 300.473 266.076C300.383 266.516 300.043 266.887 299.563 266.947C299.023 267.017 298.463 267.026 297.913 267.036C296.193 267.086 294.473 267.116 292.773 267.156C292.653 267.246 292.523 267.306 292.433 267.406C289.143 270.766 285.153 271.296 280.803 270.266C280.083 270.096 279.403 269.706 278.733 269.366C277.993 268.986 277.543 268.436 277.873 267.516C277.903 267.426 277.803 267.287 277.743 267.107C277.423 267.107 277.083 267.076 276.743 267.076H276.183C276.083 266.716 275.973 266.357 275.863 266.007C275.783 265.767 275.583 265.656 275.383 265.656V264.797H280.543C280.723 264.397 280.903 263.966 281.103 263.556C281.583 262.566 282.023 261.556 282.583 260.616C282.993 259.926 283.643 259.557 284.513 259.757C284.773 259.827 285.193 259.956 285.293 259.846C286.213 258.796 287.663 259.317 288.703 258.667C289.203 258.357 289.773 258.367 290.263 258.707C290.703 259.017 291.053 259.036 291.573 258.826C292.613 258.416 293.433 258.777 293.903 259.817C294.333 260.767 294.573 261.766 294.413 262.826C294.333 263.366 294.263 263.907 294.193 264.497C295.333 264.877 296.443 264.627 297.523 264.687C298.213 264.727 298.903 264.706 299.573 264.806C299.833 264.846 300.043 264.956 300.203 265.116C299.363 265.116 298.543 264.997 298.093 264.937C297.463 264.847 297.183 265.816 297.823 265.906L297.833 265.917ZM292.283 264.187C292.663 263.207 292.753 262.227 292.343 261.027C292.103 261.387 291.883 261.587 291.843 261.817C291.753 262.287 291.763 262.777 291.713 263.247C291.613 264.157 291.333 265.007 290.633 265.627C290.463 265.777 290.053 265.866 289.913 265.766C289.663 265.596 289.423 265.267 289.393 264.987C289.363 264.677 289.553 264.337 289.683 264.027C290.063 263.177 290.083 262.287 289.913 261.397C289.853 261.087 289.753 260.727 289.203 260.917C289.183 261.237 289.183 261.576 289.123 261.906C288.903 263.126 288.703 264.347 288.413 265.547C288.353 265.777 287.943 266.016 287.653 266.076C287.263 266.166 286.843 265.757 286.843 265.337C286.843 264.927 286.913 264.526 286.973 264.116C287.083 263.376 287.223 262.627 287.283 261.877C287.303 261.657 287.113 261.427 286.963 261.047C286.683 261.367 286.403 261.547 286.373 261.757C286.293 262.227 286.403 262.727 286.313 263.187C286.153 264.057 285.943 264.916 285.683 265.766C285.563 266.156 284.963 266.337 284.643 266.087C284.413 265.907 284.163 265.537 284.183 265.277C284.243 264.667 284.503 264.087 284.593 263.477C284.683 262.877 284.683 262.257 283.983 261.837C283.023 262.957 282.753 264.316 282.363 265.616C282.243 266.006 282.243 266.437 282.113 266.817C281.963 267.247 281.593 267.496 281.133 267.366C280.473 267.176 279.833 266.897 279.093 267.237C279.473 267.977 280.193 268.267 280.893 268.497C283.633 269.387 286.333 269.217 288.913 267.937C290.503 267.147 291.643 265.877 292.293 264.197L292.283 264.187Z" fill="#617462"/>
<path d="M292.343 261.027C292.753 262.227 292.653 263.207 292.283 264.187C291.633 265.867 290.493 267.136 288.903 267.926C286.323 269.206 283.623 269.376 280.883 268.486C280.183 268.256 279.473 267.977 279.083 267.227C279.833 266.887 280.473 267.167 281.123 267.357C281.583 267.487 281.943 267.236 282.103 266.806C282.243 266.426 282.243 265.997 282.353 265.607C282.743 264.307 283.013 262.946 283.973 261.826C284.673 262.246 284.673 262.866 284.583 263.466C284.493 264.076 284.223 264.656 284.173 265.266C284.153 265.526 284.403 265.896 284.633 266.076C284.963 266.326 285.553 266.147 285.673 265.757C285.933 264.917 286.143 264.046 286.303 263.176C286.393 262.716 286.283 262.217 286.363 261.747C286.393 261.537 286.673 261.356 286.953 261.036C287.113 261.416 287.293 261.656 287.273 261.866C287.203 262.616 287.063 263.357 286.963 264.107C286.903 264.517 286.833 264.916 286.833 265.326C286.833 265.746 287.253 266.157 287.643 266.067C287.933 266.007 288.343 265.766 288.403 265.536C288.693 264.336 288.893 263.117 289.113 261.897C289.173 261.567 289.163 261.226 289.193 260.906C289.743 260.726 289.843 261.086 289.903 261.386C290.083 262.276 290.063 263.156 289.673 264.016C289.533 264.326 289.343 264.677 289.383 264.977C289.413 265.267 289.653 265.597 289.903 265.757C290.053 265.857 290.463 265.756 290.623 265.616C291.323 264.986 291.603 264.146 291.703 263.236C291.753 262.756 291.743 262.276 291.833 261.806C291.883 261.576 292.093 261.376 292.333 261.016L292.343 261.027Z" fill="white"/>
<path d="M291.393 227.426C291.173 227.866 291.073 228.297 290.813 228.567C290.753 228.627 290.693 228.677 290.623 228.717C290.473 227.647 289.953 226.767 288.713 226.567C288.363 224.847 287.663 223.237 287.083 221.587C286.053 218.597 285.043 215.597 284.023 212.607C282.013 206.717 278.663 201.616 274.743 196.866C272.313 193.926 269.233 191.687 266.133 189.507C265.723 189.217 265.303 188.946 264.883 188.676C265.053 188.576 265.163 188.386 265.073 188.136C264.733 187.146 264.063 186.486 263.223 186.076C263.253 186.046 263.273 186.017 263.303 185.987C263.623 185.687 264.003 185.527 264.433 185.727C264.803 185.897 265.173 186.097 265.513 186.317C268.513 188.167 271.283 190.317 273.883 192.687C275.003 193.707 276.063 194.807 277.003 195.977C281.223 201.207 284.643 206.907 286.763 213.337C287.863 216.667 289.103 219.946 290.223 223.266C290.683 224.626 290.993 226.047 291.373 227.417L291.393 227.426Z" fill="#617462"/>
<path d="M290.623 228.717C290.673 229.077 290.683 229.467 290.663 229.857C290.333 229.857 290.003 229.877 289.673 229.877C289.703 229.517 289.723 229.156 289.673 228.826C289.983 228.926 290.343 228.907 290.623 228.727V228.717Z" fill="#F7DDC0"/>
<path d="M289.673 229.877C290.003 229.877 290.333 229.857 290.663 229.857C290.643 230.157 290.613 230.467 290.563 230.757C290.463 231.397 289.493 231.127 289.593 230.487C289.623 230.287 289.653 230.086 289.673 229.866V229.877Z" fill="#617462"/>
<path d="M290.623 228.717C290.333 228.897 289.983 228.917 289.673 228.817C289.593 228.297 289.373 227.857 288.893 227.647C288.853 227.277 288.793 226.917 288.723 226.567C289.963 226.757 290.483 227.647 290.633 228.717H290.623Z" fill="#617462"/>
<path d="M289.663 228.826C289.713 229.156 289.703 229.527 289.663 229.877C285.763 229.967 281.863 230.056 277.963 230.136C277.483 230.146 277.003 230.187 276.533 230.277C276.133 230.357 275.823 230.727 275.733 231.107C274.523 231.197 273.313 231.287 272.103 231.257C272.043 230.937 271.863 230.667 271.593 230.527C271.043 230.257 270.323 230.456 270.023 231.096C269.683 231.836 269.393 232.627 269.203 233.417C268.633 235.757 268.133 238.107 267.593 240.457C266.953 243.267 266.303 246.077 265.623 249.047C265.133 248.857 264.873 248.767 264.633 248.647C262.703 247.707 260.763 247.826 258.833 248.596C257.343 249.186 256.033 250.067 254.893 251.197C253.243 252.827 252.183 254.836 251.253 256.906C251.183 257.066 251.143 257.247 251.123 257.427C250.853 257.567 250.693 257.947 250.953 258.237C251.303 258.617 249.763 259.357 249.343 259.567C249.193 259.517 249.043 259.507 248.883 259.527C248.683 259.557 248.483 259.617 248.283 259.677C247.893 259.817 247.513 259.967 247.123 260.107C243.413 261.497 239.603 262.407 235.713 262.897C234.563 263.047 233.403 263.147 232.243 263.227C231.783 263.267 231.313 263.297 230.863 263.297C228.623 263.317 226.453 262.877 224.353 262.047C222.203 261.197 220.323 259.956 218.863 258.136C217.063 255.906 215.813 253.396 215.283 250.556C214.613 246.946 214.533 243.307 214.963 239.667C215.193 237.757 215.473 235.847 215.783 233.947C217.123 225.707 219.143 217.647 222.223 209.877C223.343 207.037 224.853 204.427 226.613 201.947C228.063 199.917 229.793 198.137 231.863 196.727C234.873 194.667 237.883 192.597 241.233 191.107C241.663 190.917 242.103 190.676 242.453 190.366C242.733 190.116 242.883 189.746 242.733 189.366L243.913 188.777C243.613 190.887 244.003 192.937 244.263 195.007C244.323 195.457 244.563 195.927 244.843 196.297C245.333 196.957 246.113 197.107 246.863 196.697C247.343 196.437 247.783 196.097 248.203 195.747C249.143 194.947 250.053 194.097 251.003 193.297C251.353 192.997 251.783 192.787 252.263 192.477C253.403 193.477 254.483 194.436 255.583 195.366C256.103 195.806 256.653 196.247 257.253 196.567C258.133 197.037 259.033 196.807 259.633 195.997C259.913 195.617 260.133 195.167 260.293 194.717C260.983 192.677 261.173 190.547 261.293 188.417C261.323 187.907 261.023 187.377 260.823 186.697C260.853 186.647 260.883 186.597 260.913 186.547C261.703 186.547 262.443 186.716 263.043 187.076C263.073 187.166 263.113 187.247 263.163 187.317C263.363 187.587 263.613 187.827 263.893 188.027C263.923 188.047 263.943 188.066 263.973 188.076C264.023 188.176 264.073 188.286 264.113 188.406C264.233 188.766 264.633 188.827 264.883 188.677C265.303 188.947 265.723 189.217 266.133 189.507C269.233 191.687 272.313 193.926 274.743 196.866C278.663 201.616 282.013 206.717 284.023 212.607C285.043 215.597 286.053 218.597 287.083 221.587C287.653 223.237 288.353 224.847 288.713 226.567C288.573 226.547 288.433 226.527 288.283 226.527C287.633 226.507 287.633 227.517 288.283 227.527C288.523 227.527 288.713 227.577 288.883 227.647C288.893 227.737 288.903 227.816 288.913 227.906C288.953 228.356 289.273 228.687 289.673 228.817L289.663 228.826ZM255.353 241.147C255.353 240.547 254.833 240.017 254.193 239.977C253.573 239.937 252.993 240.457 252.983 241.067C252.983 241.647 253.523 242.187 254.153 242.237C254.783 242.287 255.343 241.776 255.353 241.136V241.147ZM254.733 221.477C254.743 220.707 254.153 220.077 253.493 220.127C252.913 220.177 252.413 220.777 252.413 221.437C252.413 222.177 253.043 222.867 253.663 222.797C254.243 222.727 254.723 222.137 254.733 221.477ZM252.803 198.826C252.883 198.216 252.363 197.567 251.763 197.527C251.263 197.497 250.703 197.987 250.623 198.527C250.533 199.137 251.053 199.777 251.673 199.817C252.213 199.857 252.733 199.396 252.813 198.826H252.803ZM252.703 250.567C252.863 250.087 252.613 249.477 252.043 249.207C251.363 248.887 250.663 248.577 249.933 248.377C245.813 247.217 241.583 246.717 237.153 246.277C236.853 246.337 236.373 246.387 235.923 246.527C235.303 246.707 235.013 247.167 235.053 247.757C235.093 248.317 235.533 248.747 236.213 248.647C238.023 248.387 239.783 248.787 241.553 248.987C244.623 249.327 247.683 249.837 250.573 251.027C250.823 251.127 251.093 251.197 251.363 251.247C251.993 251.367 252.543 251.077 252.703 250.567Z" fill="#F7DDC0"/>
<path d="M289.663 228.826C289.273 228.696 288.943 228.377 288.903 227.917C288.903 227.827 288.883 227.746 288.873 227.656C289.363 227.856 289.583 228.306 289.653 228.826H289.663Z" fill="#617462"/>
<path d="M288.713 226.576C288.783 226.936 288.843 227.296 288.883 227.656C288.713 227.586 288.513 227.546 288.283 227.536C287.633 227.516 287.633 226.516 288.283 226.536C288.433 226.536 288.583 226.556 288.713 226.576Z" fill="#F7DDC0"/>
<path d="M288.403 406.587C288.563 407.417 288.203 408.067 287.453 408.477C286.653 408.917 285.793 409.096 284.883 409.136C281.413 409.296 278.013 408.916 274.683 407.906C272.383 407.206 270.073 406.507 267.803 405.727C266.843 405.397 265.953 405.337 264.993 405.687C264.223 405.967 263.413 406.177 262.603 406.297C260.933 406.537 260.173 405.887 259.973 404.197C259.943 403.997 259.923 403.786 259.943 403.576C260.193 401.526 260.443 399.487 260.723 397.437C260.843 396.577 261.253 395.887 262.023 395.437C262.153 395.357 262.293 395.306 262.423 395.266C262.413 395.356 262.393 395.447 262.373 395.547C261.883 395.627 261.723 396.406 262.293 396.516C262.763 396.606 263.243 396.687 263.733 396.747C263.703 396.797 263.673 396.856 263.633 396.906C262.163 398.956 262.593 401.347 262.183 403.447C262.743 403.977 263.133 403.787 263.513 403.677C264.043 403.527 264.563 403.367 265.083 403.187C265.963 402.887 266.813 402.917 267.713 403.217C270.053 404.007 272.413 404.767 274.773 405.507C277.953 406.507 281.213 406.937 284.553 406.727C284.883 406.707 285.203 406.637 285.793 406.567C285.133 405.367 284.323 404.726 283.573 404.036C280.813 401.526 277.813 399.347 274.753 397.227C274.193 396.837 273.653 396.407 273.163 395.927C273.133 395.897 273.113 395.876 273.093 395.846C273.463 395.706 273.823 395.556 274.173 395.386C274.583 395.196 274.453 394.716 274.143 394.536C274.233 394.466 274.313 394.387 274.383 394.297C274.743 394.447 275.083 394.637 275.403 394.857C278.863 397.247 282.273 399.677 285.363 402.547C286.223 403.337 287.033 404.197 287.773 405.087C288.103 405.487 288.293 406.056 288.393 406.576L288.403 406.587Z" fill="#617462"/>
<path d="M281.593 231.217C282.233 231.347 281.963 232.317 281.323 232.187C279.573 231.837 277.813 231.937 276.053 232.067C275.853 231.867 275.723 231.597 275.713 231.337C275.713 231.257 275.713 231.187 275.733 231.107C277.683 230.967 279.643 230.827 281.583 231.207L281.593 231.217Z" fill="#617462"/>
<path d="M277.933 279.027C278.213 288.117 278.183 297.207 277.933 306.297C277.813 310.637 277.753 314.976 277.663 319.306C277.573 323.436 277.463 327.567 277.363 331.697C277.273 335.417 277.173 339.126 277.113 342.846C277.023 347.736 276.983 352.626 276.903 357.516C276.813 362.676 276.693 367.847 276.573 373.007C276.493 376.517 276.413 380.026 276.293 383.536C276.223 385.666 276.113 387.807 275.953 389.927C275.893 390.677 275.713 391.416 275.493 392.136C275.393 392.486 275.113 392.727 274.783 392.817C274.693 392.197 274.343 391.587 273.993 391.107C273.803 390.837 273.473 390.837 273.253 390.977C273.773 389.417 273.823 387.797 273.873 386.167C274.083 379.767 274.313 373.367 274.513 366.967C274.613 363.657 274.673 360.357 274.723 357.047C274.813 352.157 274.843 347.267 274.953 342.377C275.113 334.937 275.313 327.507 275.503 320.067C275.583 317.037 275.663 314.007 275.733 310.977C275.993 300.507 276.023 290.036 275.633 279.576C275.573 278.066 275.383 276.557 275.273 275.047C275.243 274.717 275.253 274.356 275.353 274.036C275.463 273.676 275.713 273.437 276.073 273.357C276.083 274.297 276.043 275.226 275.933 276.156C275.863 276.796 276.863 276.796 276.933 276.156C277.033 275.316 277.073 274.467 277.073 273.627C277.153 273.707 277.213 273.797 277.273 273.897C277.433 274.187 277.503 274.547 277.533 274.877C277.683 276.247 277.883 277.617 277.923 278.987L277.933 279.027Z" fill="#617462"/>
<path d="M277.083 273.667C277.083 274.517 277.043 275.367 276.943 276.197C276.873 276.837 275.863 276.837 275.943 276.197C276.053 275.267 276.093 274.337 276.083 273.397C276.143 273.377 276.203 273.367 276.273 273.367C276.613 273.337 276.893 273.457 277.093 273.667H277.083Z" fill="#617462"/>
<path d="M277.083 273.667C276.883 273.457 276.603 273.336 276.263 273.366C276.203 273.366 276.133 273.387 276.073 273.397C276.043 271.267 275.703 269.137 275.123 267.087C275.473 267.087 275.823 267.087 276.163 267.087C276.753 269.217 277.073 271.447 277.073 273.667H277.083Z" fill="white"/>
<path d="M276.163 267.087C275.813 267.087 275.463 267.087 275.123 267.087C275.043 266.817 274.963 266.546 274.883 266.286C274.763 265.916 275.073 265.667 275.373 265.667C275.573 265.667 275.773 265.776 275.853 266.016C275.963 266.366 276.073 266.727 276.173 267.087H276.163Z" fill="#617462"/>
<path d="M275.723 231.337C275.723 231.597 275.863 231.867 276.063 232.067C274.693 232.177 273.333 232.297 271.963 232.257C271.993 232.157 272.023 232.067 272.053 231.967C272.133 231.717 272.153 231.477 272.113 231.257C273.323 231.287 274.533 231.197 275.743 231.107C275.723 231.187 275.713 231.257 275.723 231.337Z" fill="#CCCCCC"/>
<path d="M275.643 279.616C276.033 290.076 276.003 300.546 275.743 311.016C275.673 314.046 275.593 317.077 275.513 320.107C275.333 327.547 275.133 334.977 274.963 342.417C274.853 347.307 274.823 352.197 274.733 357.087C274.673 360.397 274.623 363.697 274.523 367.007C274.323 373.407 274.093 379.807 273.883 386.207C273.833 387.827 273.783 389.456 273.263 391.016C273.053 391.146 272.943 391.396 273.133 391.656C273.153 391.676 273.163 391.697 273.173 391.717C273.173 392.087 273.393 392.447 273.693 392.677C273.753 392.847 273.783 393.037 273.793 393.227C273.813 393.827 273.183 394.046 272.713 394.156C272.253 394.266 272.273 394.797 272.553 395.027C269.793 396.027 266.563 396.166 263.663 395.766C263.633 395.706 263.593 395.657 263.543 395.607C263.503 395.557 263.463 395.527 263.423 395.487C263.583 394.427 263.553 393.377 263.333 392.337C263.823 392.197 264.123 391.746 264.043 391.116C263.933 390.226 263.713 389.357 263.553 388.487C262.533 382.797 261.593 377.097 261.003 371.337C260.383 365.237 259.693 359.156 259.093 353.056C258.613 348.186 258.243 343.317 257.763 338.447C257.093 331.597 256.383 324.746 255.673 317.906C255.453 315.786 255.143 313.677 254.923 311.547C254.573 308.127 254.263 304.697 253.943 301.277C253.913 301.007 253.973 300.667 253.833 300.467C253.143 299.487 253.493 298.506 253.743 297.516C254.033 296.386 254.353 295.256 254.613 294.116C254.763 293.446 254.873 292.767 254.913 292.087C254.943 291.577 254.553 291.166 254.063 291.056C253.613 290.946 253.073 291.197 252.863 291.647C252.753 291.887 252.693 292.167 252.633 292.427C252.423 293.297 252.243 294.166 252.023 295.036C250.873 299.706 249.663 304.366 248.563 309.056C247.173 314.956 246.153 320.916 245.263 326.906C244.443 332.416 243.733 337.947 243.023 343.477C242.503 347.567 242.043 351.677 241.593 355.777C241.153 359.817 240.743 363.856 240.323 367.886C239.923 371.716 239.523 375.546 239.133 379.386C238.753 383.016 238.373 386.636 238.013 390.266C237.963 390.746 237.973 391.237 238.013 391.707C238.053 392.167 238.383 392.427 238.823 392.527C238.953 392.557 239.093 392.557 239.223 392.547C239.263 393.337 239.203 394.117 239.053 394.897C239.023 394.897 239.003 394.907 238.973 394.917C238.573 395.047 238.203 395.567 238.263 396.007C235.763 396.007 231.653 395.267 229.053 396.007C229.193 395.817 229.273 395.577 229.283 395.297C229.293 394.477 229.223 393.646 229.143 392.826C228.893 390.356 228.533 387.897 228.393 385.427C228.043 379.307 227.723 373.187 227.513 367.067C227.153 356.117 226.933 345.167 227.213 334.217C227.323 330.157 227.433 326.096 227.623 322.036C227.803 318.046 228.073 314.066 228.323 310.076C228.533 306.706 228.773 303.347 229.013 299.977C229.273 296.267 229.523 292.557 229.823 288.857C230.283 283.037 230.343 277.167 231.433 271.397C231.443 271.327 231.443 271.257 231.453 271.187C231.483 270.697 231.193 270.267 230.703 270.067C230.633 270.037 230.563 270.017 230.493 270.007C230.823 268.567 231.223 267.106 231.343 265.636C231.463 265.636 231.583 265.637 231.693 265.627C233.113 265.567 234.523 265.417 235.933 265.227C240.813 265.867 245.703 265.586 250.613 265.576C250.653 265.576 250.693 265.576 250.733 265.556C250.763 266.126 251.173 266.496 251.963 266.636C252.233 266.686 252.513 266.707 252.783 266.737C255.593 267.087 258.403 267.166 261.233 267.136C265.863 267.096 270.493 267.096 275.133 267.076C275.723 269.116 276.053 271.256 276.083 273.386C275.723 273.466 275.463 273.707 275.363 274.067C275.273 274.387 275.263 274.736 275.283 275.076C275.393 276.586 275.593 278.087 275.643 279.607V279.616Z" fill="white"/>
<path d="M275.363 264.806V265.667C275.063 265.667 274.753 265.906 274.873 266.286C274.963 266.556 275.043 266.826 275.113 267.086C270.483 267.096 265.853 267.097 261.213 267.147C258.383 267.177 255.563 267.087 252.763 266.747C252.493 266.717 252.213 266.697 251.943 266.647C251.153 266.497 250.733 266.126 250.713 265.566C250.993 265.506 251.133 265.226 251.083 264.946C251.073 264.846 251.053 264.747 251.043 264.647C251.273 264.437 251.623 264.326 252.083 264.346C252.633 264.366 253.173 264.486 253.723 264.516C255.993 264.666 258.253 264.807 260.523 264.937C260.853 264.957 261.193 264.876 261.623 264.846C261.973 263.796 262.323 262.767 262.693 261.647C262.363 261.457 262.093 261.297 261.833 261.147C261.683 261.307 261.553 261.376 261.513 261.486C261.313 262.196 260.963 262.776 260.163 262.856C259.483 262.926 258.983 262.506 258.553 262.066C258.203 261.706 257.893 261.326 257.613 260.926H257.763C258.413 260.926 258.413 259.926 257.763 259.926C257.523 259.926 257.263 259.926 257.003 259.926C256.803 259.556 256.623 259.176 256.463 258.786C256.363 258.536 256.253 258.226 256.323 257.986C256.403 257.696 256.623 257.316 256.863 257.236C257.113 257.156 257.603 257.287 257.753 257.497C258.093 257.997 258.273 258.607 258.573 259.147C258.753 259.487 259.013 259.786 259.373 260.296C259.693 259.366 259.323 258.726 259.293 258.086C259.273 257.596 259.193 257.106 259.713 256.816C260.163 256.556 260.663 256.746 261.093 257.336C261.503 257.886 261.883 258.467 262.313 258.997C262.463 259.187 262.713 259.296 263.053 259.536C263.053 258.226 262.513 257.257 262.123 256.247C261.943 255.807 261.753 255.357 261.663 254.897C261.593 254.537 261.783 254.186 262.153 254.096C262.393 254.036 262.753 254.077 262.903 254.227C263.273 254.597 263.553 255.056 263.893 255.506C264.813 254.606 263.573 253.866 263.853 252.856C263.973 252.766 264.243 252.577 264.493 252.377C265.183 251.817 265.183 251.226 264.473 250.716C263.353 249.916 262.113 249.577 260.763 249.877C258.303 250.427 256.333 251.756 254.903 253.816C253.933 255.226 252.963 256.667 252.713 258.437C252.683 258.697 252.533 258.867 252.323 258.957C252.303 258.947 252.283 258.927 252.253 258.917C252.123 258.827 252.003 258.816 251.893 258.836C252.083 258.446 252.053 258.016 251.633 257.556C251.463 257.366 251.253 257.367 251.083 257.457C251.103 257.277 251.143 257.097 251.213 256.937C252.143 254.857 253.213 252.857 254.853 251.227C255.993 250.097 257.303 249.217 258.793 248.627C260.733 247.867 262.673 247.736 264.593 248.676C264.843 248.796 265.103 248.886 265.583 249.076C266.263 246.116 266.913 243.306 267.553 240.486C268.093 238.136 268.593 235.786 269.163 233.446C269.353 232.646 269.633 231.867 269.983 231.127C270.283 230.487 271.003 230.286 271.553 230.556C271.823 230.696 272.013 230.956 272.063 231.286C271.713 231.286 271.353 231.257 271.003 231.227C270.353 231.167 270.363 232.177 271.003 232.227C271.303 232.257 271.613 232.276 271.913 232.276C270.593 236.376 269.903 240.626 268.913 244.816C267.783 249.566 266.743 254.336 265.633 259.096C265.273 260.636 264.823 262.157 264.423 263.687C264.343 264.007 264.293 264.346 264.203 264.836C267.943 264.836 271.623 264.836 275.323 264.836L275.363 264.806Z" fill="#617462"/>
<path d="M274.793 392.837C274.833 393.087 274.823 393.336 274.763 393.596C274.693 393.876 274.563 394.117 274.403 394.317C274.383 394.307 274.363 394.296 274.343 394.286C273.923 394.116 273.433 394.347 273.133 394.777C272.943 394.857 272.753 394.927 272.563 394.997C272.283 394.767 272.263 394.227 272.723 394.127C273.203 394.017 273.823 393.797 273.803 393.197C273.803 393.007 273.763 392.827 273.703 392.647C273.843 392.747 274.003 392.827 274.163 392.857C274.373 392.907 274.593 392.897 274.793 392.837Z" fill="white"/>
<path d="M274.793 392.837C274.593 392.897 274.383 392.907 274.163 392.857C273.993 392.827 273.843 392.747 273.703 392.647C273.593 392.307 273.393 391.987 273.183 391.687C273.183 391.477 273.183 391.257 273.253 391.067C273.263 391.037 273.273 391.017 273.283 390.987C273.503 390.847 273.823 390.846 274.023 391.116C274.373 391.596 274.723 392.206 274.813 392.826L274.793 392.837Z" fill="#617462"/>
<path d="M274.333 394.286C274.333 394.286 274.373 394.307 274.393 394.317C274.323 394.407 274.243 394.486 274.153 394.556C274.013 394.476 273.843 394.456 273.673 394.536C273.493 394.626 273.313 394.707 273.123 394.777C273.423 394.337 273.913 394.106 274.333 394.286Z" fill="#617462"/>
<path d="M274.153 394.556C274.463 394.736 274.583 395.216 274.183 395.406C273.833 395.576 273.473 395.726 273.103 395.866C272.923 395.646 272.883 395.377 272.963 395.107C272.963 395.107 272.963 395.107 272.973 395.107C273.413 395.007 273.823 394.837 274.143 394.567L274.153 394.556Z" fill="#617462"/>
<path d="M274.153 394.556C273.833 394.826 273.423 394.996 272.983 395.096C272.983 395.096 272.983 395.096 272.973 395.096C273.003 394.996 273.053 394.896 273.113 394.806C273.113 394.806 273.113 394.787 273.133 394.777C273.323 394.697 273.503 394.616 273.683 394.536C273.863 394.446 274.033 394.476 274.163 394.556H274.153Z" fill="#617462"/>
<path d="M273.173 391.697C273.383 391.997 273.583 392.306 273.693 392.656C273.393 392.426 273.173 392.077 273.173 391.697Z" fill="#617462"/>
<path d="M273.263 390.997C273.263 390.997 273.243 391.046 273.233 391.076C273.163 391.266 273.163 391.487 273.163 391.687C273.163 391.687 273.133 391.657 273.123 391.627C272.943 391.367 273.053 391.127 273.253 390.987L273.263 390.997Z" fill="white"/>
<path d="M273.123 394.777C273.123 394.777 273.113 394.796 273.103 394.806C273.043 394.906 272.993 394.996 272.963 395.096C272.793 395.126 272.653 395.087 272.553 394.997C272.743 394.927 272.933 394.857 273.123 394.777Z" fill="white"/>
<path d="M272.963 395.096C272.873 395.366 272.913 395.637 273.103 395.857C270.193 396.957 266.843 397.147 263.753 396.757C263.913 396.427 263.883 396.067 263.663 395.737C266.563 396.137 269.793 396.007 272.553 394.997C272.653 395.087 272.793 395.126 272.963 395.096Z" fill="#617462"/>
<path d="M272.113 231.257C272.153 231.477 272.143 231.717 272.053 231.967C272.023 232.067 271.993 232.157 271.963 232.257C271.663 232.257 271.353 232.227 271.053 232.207C270.413 232.147 270.403 231.137 271.053 231.207C271.403 231.237 271.753 231.256 272.113 231.266V231.257Z" fill="#617462"/>
<path d="M267.533 165.417C267.743 167.057 267.343 168.557 266.503 169.957C266.223 170.427 265.933 170.896 265.633 171.366C264.413 173.286 263.153 175.177 262.003 177.127C261.753 177.557 261.463 177.856 261.153 178.036C261.153 177.626 261.153 177.216 261.153 176.806C261.153 176.156 260.153 176.156 260.153 176.806C260.153 177.276 260.153 177.767 260.153 178.247C259.593 178.177 259.053 177.826 258.683 177.286C258.253 176.666 257.873 176.007 257.483 175.357C257.093 174.707 256.733 174.047 256.343 173.397C256.313 173.347 256.233 173.326 256.063 173.216C255.763 173.306 255.393 173.456 255.003 173.526C254.483 173.616 254.003 173.346 253.813 172.906C253.633 172.476 253.783 172.096 254.103 171.786C254.303 171.596 254.533 171.447 254.723 171.247C255.453 170.457 255.543 169.566 255.003 168.596C254.783 168.196 254.233 168.087 253.963 168.437C253.673 168.817 253.453 169.246 253.173 169.636C252.443 170.676 251.723 170.556 251.113 169.306C251.053 169.186 250.983 169.076 250.923 168.966C248.663 168.736 248.203 168.477 246.883 166.607C246.523 166.107 246.173 165.596 245.813 165.096C245.783 165.046 245.693 165.046 245.603 165.016C245.163 165.196 245.423 165.596 245.373 165.886C245.333 166.156 245.353 166.436 245.353 166.716C245.333 167.636 245.093 168.476 244.553 169.236C243.623 170.536 242.263 170.796 240.963 169.886C240.413 169.496 239.893 169.056 239.363 168.636C238.223 169.656 237.163 170.617 235.993 171.667C237.443 173.137 239.043 174.376 239.793 176.366C240.263 176.316 240.653 176.236 241.053 176.236C241.913 176.216 242.633 175.976 243.253 175.306C243.783 174.726 244.283 174.757 244.703 175.127C245.173 175.537 245.183 176.156 244.723 176.796C244.223 177.486 243.593 177.997 242.743 178.187C242.083 178.337 241.423 178.476 240.623 178.656C240.793 179.446 240.943 180.156 241.113 180.946C244.573 181.506 246.073 183.686 246.143 186.966C246.923 187.116 247.663 187.196 248.353 187.406C250.733 188.136 253.083 188.247 255.413 187.227C255.603 187.147 255.793 187.056 255.993 187.006C256.093 186.976 256.193 186.967 256.283 186.977C256.083 187.377 256.513 187.947 256.973 187.647C257.043 187.597 257.113 187.556 257.193 187.506C257.203 187.516 257.213 187.536 257.223 187.546C257.443 187.976 257.383 188.566 256.993 188.866C256.563 189.186 256.073 189.466 255.573 189.676C254.943 189.936 254.283 190.107 253.413 190.397C254.973 191.677 256.233 193.007 257.863 194.107C258.043 193.737 258.263 193.467 258.313 193.167C258.563 191.677 258.793 190.187 258.993 188.687C259.103 187.837 259.073 187.836 259.733 186.806C259.713 186.756 259.703 186.717 259.683 186.667C260.103 186.597 260.533 186.557 260.943 186.567C260.913 186.617 260.873 186.666 260.853 186.716C261.053 187.396 261.353 187.927 261.323 188.437C261.193 190.567 261.013 192.696 260.323 194.736C260.173 195.186 259.953 195.626 259.663 196.016C259.063 196.826 258.173 197.057 257.283 196.587C256.683 196.267 256.133 195.826 255.613 195.386C254.503 194.456 253.433 193.497 252.293 192.497C251.813 192.807 251.393 193.017 251.033 193.317C250.083 194.117 249.173 194.966 248.233 195.766C247.813 196.116 247.373 196.456 246.893 196.716C246.153 197.126 245.363 196.977 244.873 196.317C244.593 195.937 244.353 195.476 244.293 195.026C244.033 192.956 243.633 190.906 243.943 188.796L244.783 188.377C245.363 188.087 244.853 187.216 244.273 187.506L244.143 187.567C244.223 186.517 243.783 185.456 243.273 184.506C243.063 184.116 242.613 183.816 242.203 183.596C241.793 183.376 241.303 183.266 240.833 183.176C239.753 182.976 239.123 182.366 238.923 181.286C238.833 180.816 238.683 180.357 238.603 179.877C238.243 177.527 237.183 175.586 235.303 174.116C234.873 173.776 234.453 173.406 234.073 173.016C233.183 172.096 233.213 171.256 234.143 170.326C234.483 169.986 234.853 169.656 235.253 169.406C237.203 168.186 238.173 166.376 238.543 164.156C238.713 163.146 239.033 162.156 239.303 161.156C239.683 159.736 240.363 158.457 241.423 157.437C241.993 156.887 242.333 156.266 242.473 155.486C242.723 154.126 243.573 153.307 244.903 152.977C245.173 152.907 245.453 152.876 245.693 152.756C249.023 151.086 252.533 150.826 256.143 151.426C258.813 151.866 260.883 153.227 262.133 155.667C262.503 156.387 262.983 156.786 263.743 157.116C265.473 157.876 266.623 159.247 266.983 161.127C267.253 162.547 267.373 163.986 267.563 165.426L267.533 165.417ZM264.843 168.046C265.053 167.476 265.203 166.847 265.183 166.247C265.133 164.947 264.973 163.646 264.813 162.346C264.573 160.546 263.763 159.256 261.793 158.966C260.963 158.846 260.543 158.326 260.333 157.466C259.883 155.646 258.533 154.567 256.843 153.957C256.013 153.657 255.093 153.546 254.213 153.486C251.063 153.276 248.053 153.867 245.243 155.357C244.843 155.567 244.633 155.887 244.673 156.357C244.793 157.587 244.943 158.806 245.583 159.906C246.663 161.736 247.773 163.567 248.863 165.397C248.903 165.457 248.943 165.507 248.983 165.567C249.753 166.557 249.813 166.597 251.033 166.127C251.573 165.917 252.103 165.746 252.613 166.056C253.043 166.306 253.393 166.096 253.793 166.036C255.173 165.826 256.273 166.316 256.863 167.546C257.213 168.276 257.333 169.106 257.523 169.906C257.603 170.226 257.483 170.636 257.633 170.906C258.423 172.326 259.273 173.716 260.113 175.136C261.213 173.956 264.433 169.206 264.843 168.056V168.046ZM250.723 190.397C249.833 190.167 249.123 189.996 248.423 189.796C247.723 189.596 247.023 189.356 246.313 189.136C246.053 190.806 246.123 192.116 246.603 194.006C248.063 192.916 249.333 191.757 250.723 190.397ZM243.993 162.236C243.773 161.166 243.263 160.386 242.733 159.286C241.893 160.176 241.473 160.917 241.453 161.937C241.973 161.977 242.373 161.986 242.773 162.026C243.143 162.066 243.513 162.156 243.993 162.236ZM242.533 168.227C243.523 167.117 243.263 165.936 243.093 164.796C243.063 164.586 242.713 164.236 242.563 164.266C242.273 164.316 241.873 164.536 241.783 164.776C241.313 165.986 241.213 167.177 242.543 168.227H242.533Z" fill="#617462"/>
<path d="M265.083 188.147C265.173 188.397 265.063 188.587 264.893 188.687C264.583 188.487 264.273 188.297 263.983 188.087C263.763 187.657 263.443 187.327 263.063 187.087C262.963 186.757 263.033 186.357 263.243 186.087C264.083 186.497 264.753 187.157 265.093 188.147H265.083Z" fill="#617462"/>
<path d="M264.883 188.687C264.633 188.837 264.233 188.777 264.113 188.417C264.073 188.297 264.023 188.187 263.973 188.087C264.273 188.297 264.583 188.487 264.883 188.687Z" fill="#F7DDC0"/>
<path d="M264.043 391.096C264.133 391.726 263.823 392.167 263.333 392.317C263.233 391.837 263.103 391.367 262.923 390.897C262.703 390.297 261.723 390.557 261.953 391.167C262.073 391.477 262.163 391.797 262.243 392.107C262.103 391.987 261.993 391.816 261.933 391.596C261.623 390.616 261.333 389.616 261.183 388.596C260.433 383.486 259.623 378.386 259.043 373.266C258.223 366.016 257.563 358.746 256.873 351.486C256.113 343.536 255.453 335.576 254.633 327.636C253.883 320.376 252.983 313.147 252.153 305.897C252.023 305.877 251.903 305.846 251.773 305.826C251.623 306.256 251.443 306.687 251.333 307.127C249.943 312.457 248.903 317.867 248.063 323.297C247.033 329.887 246.103 336.496 245.263 343.116C244.553 348.716 244.013 354.327 243.423 359.937C242.773 366.097 242.143 372.257 241.533 378.417C241.143 382.317 240.793 386.227 240.403 390.127C240.353 390.597 240.263 391.056 240.153 391.516C240.113 391.186 240.053 390.856 239.973 390.536C239.833 389.906 238.863 390.176 239.003 390.806C239.133 391.386 239.213 391.967 239.243 392.547C239.113 392.567 238.973 392.557 238.843 392.527C238.403 392.427 238.073 392.177 238.033 391.707C237.993 391.237 237.983 390.746 238.033 390.266C238.393 386.636 238.783 383.006 239.153 379.386C239.553 375.556 239.943 371.716 240.343 367.886C240.763 363.846 241.173 359.807 241.613 355.777C242.063 351.677 242.523 347.567 243.043 343.477C243.753 337.947 244.463 332.426 245.283 326.906C246.173 320.916 247.193 314.946 248.583 309.056C249.683 304.376 250.893 299.706 252.043 295.036C252.263 294.166 252.443 293.296 252.653 292.426C252.713 292.156 252.773 291.887 252.883 291.647C253.083 291.197 253.623 290.946 254.083 291.056C254.573 291.166 254.963 291.577 254.933 292.087C254.883 292.767 254.783 293.456 254.633 294.116C254.373 295.256 254.053 296.386 253.763 297.516C253.513 298.506 253.163 299.486 253.853 300.466C253.993 300.666 253.933 300.997 253.963 301.277C254.293 304.697 254.593 308.127 254.943 311.547C255.163 313.667 255.473 315.776 255.693 317.906C256.403 324.746 257.123 331.596 257.783 338.446C258.253 343.316 258.623 348.186 259.113 353.056C259.713 359.156 260.403 365.237 261.023 371.337C261.613 377.087 262.553 382.796 263.573 388.486C263.733 389.366 263.953 390.236 264.063 391.116L264.043 391.096Z" fill="#617462"/>
<path d="M263.973 188.087C263.973 188.087 263.923 188.056 263.893 188.036C263.623 187.846 263.363 187.596 263.163 187.326C263.113 187.256 263.073 187.177 263.043 187.087C263.433 187.327 263.753 187.657 263.963 188.087H263.973Z" fill="#617462"/>
<path d="M263.663 395.737C263.873 396.067 263.913 396.427 263.753 396.757C263.263 396.697 262.783 396.617 262.313 396.527C261.743 396.417 261.903 395.636 262.393 395.556C262.373 395.676 262.353 395.796 262.323 395.906C262.183 396.536 263.153 396.807 263.293 396.177C263.333 396.017 263.363 395.857 263.393 395.697C263.483 395.717 263.573 395.727 263.673 395.737H263.663Z" fill="#617462"/>
<path d="M263.543 395.576C263.593 395.626 263.623 395.677 263.663 395.737C263.573 395.727 263.473 395.707 263.383 395.697C263.403 395.617 263.413 395.537 263.423 395.457C263.473 395.497 263.513 395.536 263.543 395.576Z" fill="#617462"/>
<path d="M263.333 392.306C263.553 393.346 263.583 394.397 263.423 395.457C263.163 395.247 262.803 395.187 262.433 395.277C262.593 394.197 262.523 393.137 262.253 392.087C262.503 392.327 262.863 392.396 263.233 392.326C263.273 392.326 263.303 392.307 263.333 392.297V392.306Z" fill="white"/>
<path d="M263.423 395.457C263.413 395.537 263.403 395.616 263.383 395.696C263.113 395.656 262.843 395.606 262.573 395.556C262.503 395.546 262.443 395.546 262.383 395.556C262.403 395.466 262.423 395.377 262.433 395.277C262.793 395.177 263.153 395.237 263.423 395.457Z" fill="#617462"/>
<path d="M263.383 395.697C263.353 395.857 263.323 396.017 263.283 396.177C263.143 396.807 262.173 396.536 262.313 395.906C262.343 395.786 262.363 395.666 262.383 395.556C262.443 395.556 262.503 395.556 262.573 395.556C262.843 395.606 263.103 395.657 263.383 395.697Z" fill="#617462"/>
<path d="M263.333 392.306C263.333 392.306 263.263 392.327 263.233 392.337C262.863 392.407 262.513 392.336 262.253 392.096C262.173 391.786 262.073 391.467 261.963 391.157C261.733 390.547 262.703 390.287 262.933 390.887C263.113 391.357 263.243 391.826 263.343 392.306H263.333Z" fill="#617462"/>
<path d="M263.233 186.087C263.023 186.357 262.943 186.757 263.053 187.087C262.463 186.727 261.713 186.566 260.923 186.556C261.113 186.256 261.353 185.957 261.393 185.647C261.393 185.627 261.393 185.616 261.393 185.596C262.043 185.656 262.673 185.817 263.233 186.087Z" fill="#F7DDC0"/>
<path d="M261.843 261.136C262.103 261.286 262.373 261.446 262.703 261.636C262.323 262.766 261.983 263.787 261.633 264.837C261.203 264.877 260.863 264.947 260.533 264.927C258.263 264.797 256.003 264.657 253.733 264.507C253.183 264.467 252.643 264.347 252.093 264.337C251.633 264.317 251.283 264.426 251.053 264.636C250.853 263.066 251.053 261.067 251.613 259.567C251.653 259.637 251.703 259.707 251.783 259.757C253.363 260.827 255.743 260.896 257.623 260.906C257.903 261.306 258.213 261.697 258.563 262.047C258.993 262.487 259.493 262.917 260.173 262.837C260.973 262.747 261.323 262.167 261.523 261.467C261.553 261.357 261.693 261.287 261.843 261.127V261.136Z" fill="#F7DDC0"/>
<path d="M261.623 180.527C261.713 180.707 261.773 180.927 261.763 181.127C261.663 182.617 261.563 184.117 261.393 185.607C260.703 185.537 259.993 185.577 259.303 185.697C259.293 185.637 259.283 185.576 259.293 185.516C259.343 184.006 259.473 182.497 259.593 180.987C259.613 180.787 259.663 180.537 259.793 180.417C259.853 180.367 259.903 180.316 259.963 180.266C259.923 180.506 259.863 180.737 259.793 180.977C259.603 181.597 260.573 181.867 260.763 181.247C260.893 180.827 260.973 180.397 261.033 179.957C261.283 180.047 261.483 180.266 261.623 180.536V180.527Z" fill="#617462"/>
<path d="M261.393 185.607C261.393 185.607 261.393 185.636 261.393 185.656C261.353 185.976 261.113 186.266 260.923 186.566C260.503 186.566 260.083 186.597 259.663 186.667C259.533 186.347 259.363 186.026 259.313 185.696C260.003 185.576 260.713 185.537 261.403 185.607H261.393Z" fill="#617462"/>
<path d="M261.153 176.797C261.153 177.197 261.153 177.617 261.153 178.027C260.823 178.217 260.483 178.277 260.153 178.237C260.153 177.757 260.153 177.267 260.153 176.797C260.153 176.147 261.153 176.147 261.153 176.797Z" fill="#617462"/>
<path d="M261.153 178.027C261.153 178.667 261.123 179.317 261.043 179.947C260.923 179.907 260.793 179.886 260.653 179.906C260.413 179.946 260.183 180.087 259.973 180.257C260.103 179.597 260.133 178.917 260.143 178.237C260.473 178.277 260.823 178.217 261.143 178.027H261.153Z" fill="white"/>
<path d="M260.653 179.917C260.793 179.897 260.923 179.917 261.043 179.957C260.983 180.397 260.903 180.827 260.773 181.247C260.583 181.867 259.613 181.597 259.803 180.977C259.873 180.747 259.933 180.506 259.973 180.266C260.183 180.096 260.413 179.957 260.653 179.917Z" fill="#617462"/>
<path d="M259.653 186.656C259.653 186.656 259.693 186.747 259.703 186.797C259.043 187.817 259.073 187.827 258.963 188.677C258.763 190.177 258.543 191.666 258.283 193.156C258.233 193.456 258.013 193.726 257.833 194.096C256.203 192.986 254.943 191.666 253.383 190.386C254.253 190.106 254.913 189.927 255.543 189.667C256.043 189.457 256.533 189.187 256.963 188.857C257.363 188.557 257.423 187.966 257.193 187.536C257.193 187.516 257.173 187.507 257.163 187.497C257.813 187.117 258.703 186.807 259.643 186.647L259.653 186.656Z" fill="#F7DDC0"/>
<path d="M259.313 185.697C259.353 186.017 259.533 186.347 259.663 186.667C258.723 186.817 257.833 187.136 257.183 187.516C257.003 187.206 256.653 186.997 256.273 186.987C256.313 186.907 256.363 186.836 256.453 186.786C257.213 186.276 258.233 185.897 259.313 185.707V185.697Z" fill="#F7DDC0"/>
<path d="M257.783 259.906C258.433 259.906 258.433 260.916 257.783 260.906H257.633C257.413 260.586 257.203 260.247 257.023 259.897C257.283 259.897 257.543 259.897 257.783 259.897V259.906Z" fill="#617462"/>
<path d="M257.013 259.897C257.193 260.247 257.403 260.586 257.623 260.906C255.743 260.906 253.363 260.837 251.783 259.757C251.703 259.707 251.643 259.637 251.613 259.567C251.663 259.447 251.703 259.327 251.753 259.217C251.783 259.157 251.793 259.096 251.793 259.036C251.803 259.016 251.813 259.007 251.823 258.987C251.883 259.007 251.953 259.007 252.013 259.007C252.133 259.007 252.253 258.977 252.353 258.927C253.623 259.747 255.443 259.866 257.013 259.886V259.897Z" fill="#F7DDC0"/>
<path d="M257.183 187.507C257.103 187.547 257.033 187.597 256.963 187.647C256.503 187.947 256.083 187.387 256.273 186.977C256.643 186.987 256.993 187.197 257.183 187.507Z" fill="#617462"/>
<path d="M254.203 239.977C254.843 240.017 255.363 240.547 255.363 241.147C255.363 241.777 254.793 242.287 254.163 242.247C253.523 242.197 252.983 241.656 252.993 241.076C253.003 240.466 253.583 239.947 254.203 239.987V239.977Z" fill="#617462"/>
<path d="M253.483 220.136C254.153 220.076 254.733 220.717 254.723 221.487C254.713 222.147 254.233 222.746 253.653 222.806C253.033 222.876 252.393 222.177 252.403 221.447C252.403 220.787 252.903 220.186 253.483 220.136Z" fill="#617462"/>
<path d="M251.763 197.536C252.363 197.576 252.893 198.227 252.803 198.837C252.723 199.407 252.203 199.866 251.663 199.826C251.043 199.786 250.523 199.136 250.613 198.536C250.693 197.996 251.263 197.506 251.753 197.536H251.763Z" fill="#617462"/>
<path d="M252.033 249.207C252.603 249.477 252.853 250.087 252.693 250.567C252.523 251.077 251.983 251.357 251.353 251.247C251.083 251.197 250.813 251.127 250.563 251.027C247.673 249.837 244.613 249.327 241.543 248.987C239.773 248.787 238.013 248.387 236.203 248.647C235.513 248.747 235.083 248.327 235.043 247.757C235.003 247.167 235.303 246.707 235.913 246.527C236.373 246.397 236.853 246.337 237.143 246.277C241.573 246.717 245.803 247.217 249.923 248.377C250.643 248.577 251.353 248.877 252.033 249.207Z" fill="#617462"/>
<path d="M252.293 258.897C252.293 258.897 252.333 258.927 252.363 258.937C252.263 258.987 252.143 259.006 252.023 259.016C251.963 259.016 251.893 259.017 251.833 258.997C251.873 258.937 251.913 258.876 251.943 258.816C252.053 258.786 252.173 258.807 252.303 258.897H252.293Z" fill="#617462"/>
<path d="M251.673 257.536C252.093 257.996 252.113 258.427 251.933 258.817C251.843 258.837 251.763 258.897 251.703 258.967C251.403 258.867 251.143 258.617 251.133 258.317C251.113 258.027 251.103 257.717 251.133 257.437C251.303 257.347 251.513 257.356 251.683 257.536H251.673Z" fill="#617462"/>
<path d="M251.933 258.826C251.903 258.886 251.863 258.947 251.823 259.007C251.783 259.007 251.733 258.987 251.693 258.977C251.753 258.907 251.833 258.846 251.923 258.826H251.933Z" fill="#617462"/>
<path d="M251.833 259.007C251.833 259.007 251.813 259.036 251.803 259.056C251.803 259.116 251.783 259.177 251.763 259.237C251.713 259.347 251.663 259.467 251.623 259.587C251.523 259.387 251.573 259.137 251.713 258.987C251.753 259.007 251.803 259.016 251.843 259.016L251.833 259.007Z" fill="#F7DDC0"/>
<path d="M251.703 258.977C251.563 259.137 251.513 259.376 251.613 259.576C251.043 261.076 250.843 263.077 251.053 264.647C250.883 264.807 250.773 265.027 250.733 265.297C250.723 265.387 250.713 265.476 250.723 265.556C250.693 265.556 250.643 265.576 250.603 265.576C245.693 265.586 240.803 265.867 235.923 265.227C237.173 265.057 238.423 264.837 239.663 264.587C239.683 264.587 239.713 264.576 239.733 264.576C243.163 264.756 246.603 264.606 250.033 264.576C249.893 263.176 250.013 261.587 250.383 260.167C250.283 260.227 250.193 260.277 250.093 260.317C250.083 260.277 250.063 260.247 250.053 260.207C249.893 259.897 249.643 259.666 249.343 259.576C249.763 259.366 251.303 258.637 250.953 258.247C250.683 257.957 250.853 257.567 251.123 257.437C251.093 257.727 251.103 258.037 251.123 258.317C251.133 258.617 251.393 258.867 251.693 258.967L251.703 258.977Z" fill="#F7DDC0"/>
<path d="M251.083 264.937C251.133 265.217 250.993 265.496 250.713 265.556C250.713 265.476 250.713 265.387 250.723 265.297C250.763 265.027 250.863 264.807 251.043 264.647C251.043 264.747 251.073 264.847 251.083 264.947V264.937Z" fill="#617462"/>
<path d="M250.103 260.317C250.193 260.267 250.293 260.217 250.393 260.167C250.023 261.587 249.903 263.176 250.043 264.576C246.603 264.606 243.173 264.746 239.743 264.576C242.753 263.976 245.733 263.217 248.583 262.027C248.963 261.867 249.343 261.717 249.693 261.497C250.103 261.227 250.253 260.737 250.113 260.337L250.103 260.317Z" fill="#F7DDC0"/>
<path d="M250.103 260.317C250.243 260.717 250.083 261.217 249.683 261.477C249.343 261.697 248.953 261.857 248.573 262.007C245.723 263.197 242.753 263.956 239.733 264.556C238.493 264.486 237.253 264.387 236.023 264.217C235.973 264.217 235.923 264.217 235.883 264.217L235.723 262.907C239.623 262.417 243.423 261.496 247.133 260.116C247.523 259.976 247.903 259.817 248.293 259.687C248.483 259.617 248.683 259.556 248.893 259.536C249.053 259.516 249.203 259.536 249.353 259.576C249.323 259.596 249.293 259.606 249.273 259.616C248.693 259.906 249.203 260.777 249.783 260.487C249.883 260.437 249.993 260.377 250.103 260.317Z" fill="#617462"/>
<path d="M250.063 260.207C250.063 260.207 250.093 260.277 250.103 260.317C249.983 260.377 249.873 260.437 249.783 260.487C249.203 260.777 248.693 259.906 249.273 259.616C249.293 259.606 249.313 259.596 249.353 259.576C249.653 259.676 249.913 259.897 250.063 260.207Z" fill="#617462"/>
<path d="M248.423 189.806C249.123 190.006 249.833 190.176 250.723 190.406C249.333 191.766 248.063 192.926 246.603 194.016C246.133 192.126 246.053 190.817 246.313 189.147C247.023 189.377 247.723 189.606 248.423 189.806Z" fill="#F7DDC0"/>
<path d="M244.253 187.486C244.833 187.196 245.333 188.066 244.763 188.356L243.923 188.776C243.963 188.526 244.003 188.286 244.063 188.036C244.103 187.876 244.123 187.716 244.133 187.556L244.263 187.497L244.253 187.486Z" fill="#617462"/>
<path d="M242.003 188.616L244.123 187.556C244.123 187.716 244.093 187.876 244.053 188.036C243.993 188.286 243.953 188.527 243.913 188.777L242.733 189.366C242.733 189.366 242.703 189.277 242.673 189.237C242.513 188.947 242.293 188.707 241.993 188.607L242.003 188.616Z" fill="#F7DDC0"/>
<path d="M243.103 404.947C243.403 406.897 241.933 408.267 239.963 408.007C239.283 407.917 238.593 407.816 237.943 407.596C236.523 407.116 235.253 407.376 234.003 408.136C233.243 408.596 232.413 408.956 231.613 409.346C226.923 411.606 221.963 412.507 216.793 412.337C215.663 412.297 214.623 411.936 213.703 411.306C212.653 410.586 212.393 409.327 213.083 408.227C213.333 407.827 213.653 407.436 214.003 407.116C214.973 406.246 215.913 405.316 216.983 404.576C219.413 402.896 221.923 401.327 224.393 399.687C225.103 399.217 225.853 398.917 226.663 398.857C226.663 399.237 226.693 399.657 226.803 400.127C226.943 400.767 227.903 400.497 227.773 399.857C227.693 399.497 227.663 399.176 227.683 398.886C227.763 398.896 227.843 398.917 227.923 398.937C228.393 399.057 228.713 399.517 228.693 400.027C228.673 400.497 228.413 400.917 228.003 400.937C225.863 401.037 224.353 402.437 222.683 403.487C220.423 404.927 218.093 406.297 216.183 408.217C215.853 408.547 215.563 408.916 215.183 409.366C215.583 409.586 215.853 409.817 216.153 409.877C216.763 409.997 217.383 410.076 217.993 410.076C222.383 410.056 226.613 409.246 230.573 407.286C231.743 406.706 232.913 406.127 234.053 405.487C235.073 404.917 236.113 404.796 237.243 405.036C238.313 405.266 239.383 405.437 240.693 405.687C240.733 404.257 240.403 403.196 240.133 402.156C239.743 400.626 239.233 399.126 238.773 397.616C238.713 397.416 238.643 397.217 238.573 397.007C238.923 396.987 239.273 396.946 239.613 396.886C240.253 396.776 239.983 395.817 239.343 395.917C239.033 395.967 238.673 395.987 238.273 395.987C238.203 395.547 238.583 395.037 238.983 394.897C239.013 394.897 239.033 394.887 239.063 394.877C239.043 394.977 239.023 395.087 238.993 395.187C238.843 395.817 239.813 396.087 239.963 395.457C239.993 395.327 240.023 395.186 240.043 395.056C240.133 395.116 240.203 395.196 240.273 395.286C240.393 395.456 240.493 395.637 240.573 395.817C241.823 398.747 242.623 401.807 243.103 404.947Z" fill="#617462"/>
<path d="M242.733 189.366C242.873 189.746 242.733 190.116 242.453 190.366C242.103 190.676 241.663 190.917 241.233 191.107C237.883 192.607 234.873 194.667 231.863 196.727C229.803 198.147 228.063 199.917 226.613 201.947C224.853 204.427 223.343 207.037 222.223 209.877C219.153 217.657 217.123 225.707 215.783 233.947C215.473 235.847 215.183 237.757 214.963 239.667C214.523 243.307 214.603 246.946 215.283 250.556C215.803 253.386 217.063 255.896 218.863 258.136C220.323 259.946 222.203 261.197 224.353 262.047C226.463 262.877 228.633 263.317 230.863 263.297L230.883 264.576C230.633 264.576 230.373 264.736 230.363 265.056C230.363 265.246 230.343 265.426 230.333 265.616C227.953 265.546 225.653 265.026 223.423 264.156C220.313 262.946 217.823 260.956 215.993 258.156C214.283 255.526 213.183 252.676 212.763 249.536C212.213 245.476 212.343 241.436 212.963 237.406C213.963 230.866 215.153 224.377 217.083 218.047C218.043 214.897 219.133 211.767 220.283 208.677C221.393 205.697 223.033 202.977 224.883 200.397C226.463 198.197 228.373 196.316 230.623 194.806C232.733 193.386 234.853 191.967 237.023 190.647C238.253 189.897 239.593 189.347 240.903 188.727C241.143 188.607 241.433 188.556 241.703 188.556C241.803 188.556 241.903 188.577 241.993 188.607L241.373 188.917C240.793 189.207 241.303 190.076 241.883 189.786L242.733 189.366Z" fill="#617462"/>
<path d="M242.733 189.366L241.883 189.786C241.303 190.076 240.793 189.207 241.373 188.917L241.993 188.607C242.293 188.697 242.513 188.937 242.673 189.237C242.693 189.277 242.713 189.326 242.733 189.366Z" fill="#617462"/>
<path d="M240.143 391.516C240.303 392.696 240.273 393.897 240.043 395.067C239.773 394.857 239.413 394.796 239.063 394.886C239.213 394.106 239.273 393.316 239.233 392.536C239.593 392.486 239.923 392.267 240.023 391.937C240.063 391.797 240.103 391.656 240.143 391.516Z" fill="white"/>
<path d="M240.143 391.517C240.113 391.657 240.063 391.797 240.023 391.937C239.923 392.267 239.593 392.487 239.233 392.537C239.203 391.957 239.123 391.377 238.993 390.797C238.843 390.167 239.813 389.897 239.963 390.527C240.043 390.857 240.103 391.177 240.143 391.507V391.517Z" fill="#617462"/>
<path d="M240.043 395.056C240.023 395.186 239.993 395.327 239.963 395.457C239.823 396.087 238.853 395.817 238.993 395.187C239.013 395.087 239.043 394.977 239.063 394.877C239.413 394.777 239.773 394.846 240.043 395.056Z" fill="#617462"/>
<path d="M239.733 264.567C239.733 264.567 239.693 264.566 239.663 264.576C238.423 264.826 237.173 265.047 235.923 265.217C235.863 265.217 235.813 265.197 235.753 265.197C235.163 265.117 235.353 264.287 235.883 264.227C235.933 264.227 235.973 264.227 236.023 264.227C237.263 264.397 238.493 264.497 239.733 264.567Z" fill="#617462"/>
<path d="M239.343 395.917C239.983 395.807 240.253 396.776 239.613 396.886C239.263 396.946 238.913 396.986 238.573 397.006C238.463 396.686 238.363 396.366 238.283 396.036C238.283 396.016 238.283 396.006 238.283 395.986C238.683 395.986 239.043 395.967 239.353 395.917H239.343Z" fill="#617462"/>
<path d="M238.283 396.036C238.353 396.366 238.463 396.687 238.573 397.007C236.463 397.147 234.313 396.727 232.213 396.687C230.203 396.637 227.793 396.806 227.673 398.886C227.553 398.866 227.423 398.856 227.303 398.846C227.083 398.826 226.873 398.826 226.663 398.846C226.683 397.666 227.193 396.907 228.003 396.417C228.103 396.427 228.203 396.427 228.313 396.417C228.613 396.377 228.883 396.217 229.063 395.977C231.663 395.237 235.773 395.987 238.273 395.977C238.273 395.987 238.273 396.007 238.273 396.027L238.283 396.036Z" fill="#617462"/>
<path d="M235.923 265.217C234.523 265.417 233.113 265.556 231.683 265.616C231.563 265.616 231.443 265.627 231.333 265.627C231.353 265.437 231.363 265.257 231.363 265.067C231.363 264.747 231.123 264.587 230.873 264.587L230.853 263.306C231.313 263.306 231.773 263.287 232.233 263.237C233.403 263.167 234.553 263.056 235.703 262.906L235.863 264.217C235.333 264.277 235.143 265.107 235.733 265.187C235.793 265.187 235.843 265.207 235.903 265.207L235.923 265.217Z" fill="#617462"/>
<path d="M230.693 270.056C231.183 270.256 231.473 270.687 231.443 271.177C231.443 271.247 231.443 271.316 231.423 271.386C230.333 277.156 230.273 283.016 229.813 288.846C229.523 292.556 229.273 296.267 229.003 299.967C228.763 303.337 228.533 306.697 228.313 310.067C228.063 314.047 227.793 318.037 227.613 322.027C227.423 326.087 227.313 330.147 227.203 334.207C226.923 345.157 227.143 356.106 227.503 367.056C227.703 373.176 228.023 379.307 228.383 385.417C228.523 387.887 228.883 390.347 229.133 392.817C229.213 393.637 229.283 394.466 229.273 395.286C229.273 395.566 229.183 395.807 229.043 395.997C228.653 396.107 228.293 396.257 227.983 396.437C227.493 396.377 227.113 395.986 226.993 395.386C226.943 395.116 226.943 394.837 226.913 394.567C225.523 381.747 225.303 368.866 224.933 351.766C224.963 347.306 224.953 338.637 225.103 329.957C225.193 325.137 225.533 320.326 225.803 315.516C226.013 311.666 226.263 307.817 226.523 303.977C226.773 300.267 227.063 296.567 227.323 292.857C227.573 289.357 227.793 285.846 228.043 282.346C228.263 279.256 228.483 276.167 228.773 273.087C228.843 272.297 228.873 271.457 229.283 270.737C229.203 271.337 230.133 271.577 230.253 270.957C230.313 270.647 230.383 270.326 230.463 270.016C230.533 270.016 230.603 270.046 230.673 270.076L230.693 270.056Z" fill="#617462"/>
<path d="M230.883 264.587C231.133 264.587 231.383 264.747 231.373 265.067C231.373 265.257 231.353 265.437 231.343 265.627C231.003 265.627 230.673 265.627 230.333 265.627C230.353 265.437 230.363 265.257 230.363 265.067C230.373 264.747 230.633 264.587 230.883 264.587Z" fill="#617462"/>
<path d="M230.333 265.636C230.663 265.636 231.003 265.636 231.343 265.636C231.223 267.096 230.823 268.567 230.493 270.007C230.113 269.947 229.713 270.137 229.453 270.507C229.403 270.577 229.353 270.657 229.313 270.727C229.313 270.717 229.313 270.697 229.313 270.687C229.643 269.037 230.193 267.336 230.333 265.636Z" fill="white"/>
<path d="M229.443 270.507C229.713 270.137 230.113 269.947 230.483 270.007C230.403 270.327 230.333 270.637 230.273 270.947C230.143 271.567 229.223 271.327 229.303 270.727C229.343 270.647 229.393 270.577 229.443 270.507Z" fill="#617462"/>
<path d="M229.063 395.987C228.883 396.227 228.613 396.387 228.313 396.427C228.203 396.447 228.103 396.447 228.003 396.427C228.313 396.237 228.673 396.097 229.063 395.987Z" fill="#617462"/>
<path d="M227.763 399.857C227.903 400.487 226.933 400.757 226.793 400.127C226.693 399.657 226.653 399.237 226.653 398.857C226.863 398.837 227.073 398.837 227.293 398.857C227.423 398.857 227.543 398.877 227.663 398.897C227.643 399.187 227.673 399.506 227.753 399.866L227.763 399.857Z" fill="#617462"/>
<path d="M344.333 155.846V149.806H344.313L343.203 150.447L343.023 149.886L344.423 149.107H345.063V155.846H344.333Z" fill="#617462"/>
<path d="M348.643 152.277C347.913 151.927 347.593 151.327 347.593 150.757C347.593 149.717 348.413 148.997 349.503 148.997C350.723 148.997 351.313 149.826 351.313 150.636C351.313 151.216 351.003 151.847 350.203 152.227V152.266C351.033 152.616 351.543 153.217 351.543 154.027C351.543 155.167 350.603 155.957 349.423 155.957C348.133 155.957 347.343 155.137 347.343 154.167C347.343 153.297 347.863 152.667 348.653 152.317V152.277H348.643ZM350.773 154.107C350.773 153.257 350.203 152.826 349.313 152.536C348.523 152.796 348.093 153.376 348.093 154.036C348.093 154.806 348.603 155.386 349.413 155.386C350.273 155.386 350.763 154.806 350.763 154.096L350.773 154.107ZM348.303 150.677C348.303 151.397 348.803 151.796 349.553 152.016C350.133 151.796 350.583 151.337 350.583 150.697C350.583 150.127 350.263 149.547 349.473 149.547C348.683 149.547 348.303 150.097 348.303 150.677Z" fill="#617462"/>
<path d="M352.273 152.497C352.273 150.137 353.193 148.997 354.453 148.997C355.713 148.997 356.513 150.206 356.513 152.406C356.513 154.746 355.693 155.957 354.353 155.957C353.133 155.957 352.273 154.747 352.273 152.497ZM355.753 152.447C355.753 150.767 355.353 149.596 354.403 149.596C353.603 149.596 353.033 150.667 353.033 152.447C353.033 154.227 353.533 155.346 354.373 155.346C355.373 155.346 355.753 154.047 355.753 152.447Z" fill="#617462"/>
<path d="M360.923 155.667C360.703 155.777 360.223 155.947 359.593 155.947C358.193 155.947 357.263 154.947 357.263 153.447C357.263 151.947 358.263 150.826 359.773 150.826C360.323 150.826 360.763 150.987 360.953 151.087L360.763 151.687C360.553 151.567 360.233 151.437 359.753 151.437C358.623 151.437 358.023 152.347 358.023 153.397C358.023 154.587 358.733 155.337 359.723 155.337C360.213 155.337 360.543 155.206 360.783 155.096L360.913 155.677L360.923 155.667Z" fill="#617462"/>
<path d="M368.643 155.846H367.903V153.007C367.903 152.057 367.563 151.437 366.823 151.437C366.223 151.437 365.673 152.007 365.673 152.747V155.837H364.933V152.806C364.933 152.026 364.603 151.427 363.903 151.427C363.263 151.427 362.693 152.056 362.693 152.826V155.837H361.953V152.187C361.953 151.687 361.933 151.327 361.913 150.917H362.573L362.613 151.707H362.643C362.913 151.227 363.363 150.806 364.133 150.806C364.773 150.806 365.263 151.206 365.473 151.786H365.493C365.813 151.206 366.313 150.806 367.073 150.806C367.673 150.806 368.633 151.197 368.633 152.877V155.826L368.643 155.846Z" fill="#617462"/>
<path d="M327.263 152.036V406.837" stroke="#899284" stroke-width="0.96" stroke-miterlimit="10"/>
<path d="M271.583 152.036H338.113" stroke="#899284" stroke-width="0.96" stroke-miterlimit="10"/>
<path d="M322.523 406.837H338.113" stroke="#899284" stroke-width="0.96" stroke-miterlimit="10"/>
<path d="M190.993 121.056H103.913V382.297H190.993V121.056Z" fill="#96BBA0"/>
<path d="M107.373 122.886C108.573 122.886 109.553 123.856 109.553 125.056C109.553 126.256 108.573 127.237 107.373 127.237C106.173 127.237 105.193 126.266 105.193 125.056C105.193 123.846 106.163 122.886 107.373 122.886Z" fill="#D4B100"/>
<path d="M107.373 123.837C108.043 123.837 108.593 124.386 108.593 125.056C108.593 125.726 108.043 126.277 107.373 126.277C106.703 126.277 106.153 125.726 106.153 125.056C106.153 124.386 106.703 123.837 107.373 123.837Z" fill="white"/>
<path d="M187.403 122.886C188.603 122.886 189.583 123.856 189.583 125.056C189.583 126.256 188.603 127.237 187.403 127.237C186.203 127.237 185.223 126.266 185.223 125.056C185.223 123.846 186.193 122.886 187.403 122.886Z" fill="#D4B100"/>
<path d="M187.403 123.837C188.073 123.837 188.623 124.386 188.623 125.056C188.623 125.726 188.073 126.277 187.403 126.277C186.733 126.277 186.183 125.726 186.183 125.056C186.183 124.386 186.733 123.837 187.403 123.837Z" fill="white"/>
<path d="M107.373 376.576C108.573 376.576 109.553 377.547 109.553 378.747C109.553 379.947 108.573 380.927 107.373 380.927C106.173 380.927 105.193 379.957 105.193 378.747C105.193 377.537 106.163 376.576 107.373 376.576Z" fill="#D4B100"/>
<path d="M107.373 377.536C108.043 377.536 108.593 378.087 108.593 378.757C108.593 379.427 108.043 379.977 107.373 379.977C106.703 379.977 106.153 379.427 106.153 378.757C106.153 378.087 106.703 377.536 107.373 377.536Z" fill="white"/>
<path d="M187.403 376.576C188.603 376.576 189.583 377.547 189.583 378.747C189.583 379.947 188.603 380.927 187.403 380.927C186.203 380.927 185.223 379.957 185.223 378.747C185.223 377.537 186.193 376.576 187.403 376.576Z" fill="#D4B100"/>
<path d="M187.403 377.536C188.073 377.536 188.623 378.087 188.623 378.757C188.623 379.427 188.073 379.977 187.403 379.977C186.733 379.977 186.183 379.427 186.183 378.757C186.183 378.087 186.733 377.536 187.403 377.536Z" fill="white"/>
<path d="M124.783 242.547L122.893 249.397H122.133L121.243 245.737C121.023 244.837 120.873 244.157 120.783 243.467H120.763C120.653 244.147 120.473 244.827 120.223 245.727L119.233 249.397H118.473L116.773 242.547H117.563L118.403 246.107C118.603 246.967 118.793 247.797 118.903 248.487H118.933C119.033 247.797 119.253 246.986 119.483 246.096L120.433 242.536H121.193L122.053 246.087C122.243 246.907 122.443 247.727 122.543 248.467H122.573C122.703 247.687 122.893 246.927 123.113 246.087L124.043 242.536H124.803L124.783 242.547Z" fill="white"/>
<path d="M126.013 245.817C126.323 245.367 126.873 244.987 127.593 244.987C128.733 244.987 129.503 245.846 129.503 247.136C129.503 248.426 128.743 249.497 127.433 249.497C126.123 249.497 125.233 248.406 125.233 246.656C125.233 244.906 126.083 242.956 128.263 242.596C128.513 242.556 128.743 242.536 128.893 242.536V243.156C127.033 243.156 126.143 244.517 125.983 245.817H126.013ZM128.743 247.197C128.743 246.157 128.183 245.556 127.373 245.556C126.563 245.556 125.973 246.327 125.973 246.837C125.973 248.067 126.503 248.917 127.443 248.917C128.223 248.917 128.743 248.217 128.743 247.197Z" fill="white"/>
<path d="M130.203 246.047C130.203 243.687 131.123 242.547 132.383 242.547C133.643 242.547 134.443 243.757 134.443 245.957C134.443 248.297 133.623 249.507 132.283 249.507C131.063 249.507 130.203 248.297 130.203 246.047ZM133.683 245.987C133.683 244.307 133.273 243.147 132.333 243.147C131.533 243.147 130.963 244.217 130.963 245.987C130.963 247.757 131.463 248.886 132.303 248.886C133.303 248.886 133.683 247.587 133.683 245.987Z" fill="white"/>
<path d="M142.193 248.507L141.793 248.917L139.303 246.427L136.813 248.917L136.413 248.507L138.893 246.027L136.413 243.547L136.813 243.136L139.303 245.627L141.793 243.136L142.193 243.536L139.703 246.027L142.193 248.507Z" fill="white"/>
<path d="M149.333 249.397H148.583V246.116H145.303V249.397H144.553V242.547H145.303V245.477H148.583V242.547H149.333V249.397Z" fill="white"/>
<path d="M152.443 249.397V243.357H152.423L151.313 243.997L151.133 243.437L152.533 242.656H153.173V249.397H152.443Z" fill="white"/>
<path d="M156.753 245.817C156.023 245.467 155.703 244.867 155.703 244.297C155.703 243.257 156.523 242.547 157.613 242.547C158.833 242.547 159.423 243.377 159.423 244.187C159.423 244.767 159.113 245.397 158.313 245.777V245.817C159.143 246.167 159.653 246.766 159.653 247.576C159.653 248.716 158.713 249.507 157.533 249.507C156.243 249.507 155.453 248.687 155.453 247.717C155.453 246.847 155.973 246.216 156.753 245.866V245.826V245.817ZM158.883 247.656C158.883 246.806 158.313 246.377 157.423 246.087C156.633 246.347 156.203 246.927 156.203 247.587C156.203 248.357 156.713 248.937 157.523 248.937C158.383 248.937 158.873 248.357 158.873 247.647L158.883 247.656ZM156.413 244.227C156.413 244.947 156.913 245.347 157.663 245.567C158.253 245.337 158.693 244.887 158.693 244.247C158.693 243.677 158.383 243.096 157.583 243.096C156.783 243.096 156.413 243.647 156.413 244.227Z" fill="white"/>
<path d="M160.383 246.047C160.383 243.687 161.303 242.547 162.563 242.547C163.823 242.547 164.623 243.757 164.623 245.957C164.623 248.297 163.803 249.507 162.463 249.507C161.243 249.507 160.383 248.297 160.383 246.047ZM163.863 245.987C163.863 244.307 163.453 243.147 162.513 243.147C161.713 243.147 161.143 244.217 161.143 245.987C161.143 247.757 161.643 248.886 162.483 248.886C163.483 248.886 163.863 247.587 163.863 245.987Z" fill="white"/>
<path d="M169.033 249.217C168.813 249.327 168.333 249.497 167.703 249.497C166.303 249.497 165.373 248.497 165.373 246.997C165.373 245.497 166.373 244.377 167.883 244.377C168.433 244.377 168.873 244.536 169.063 244.636L168.873 245.237C168.663 245.117 168.343 244.987 167.863 244.987C166.733 244.987 166.133 245.897 166.133 246.947C166.133 248.137 166.843 248.886 167.833 248.886C168.323 248.886 168.653 248.747 168.893 248.647L169.033 249.227V249.217Z" fill="white"/>
<path d="M176.753 249.397H176.013V246.556C176.013 245.606 175.673 244.987 174.933 244.987C174.333 244.987 173.783 245.557 173.783 246.297V249.386H173.043V246.366C173.043 245.586 172.713 244.987 172.013 244.987C171.373 244.987 170.803 245.616 170.803 246.386V249.397H170.063V245.747C170.063 245.247 170.043 244.877 170.023 244.477H170.683L170.723 245.266H170.753C171.023 244.786 171.473 244.366 172.243 244.366C172.883 244.366 173.373 244.766 173.583 245.346H173.603C173.923 244.756 174.423 244.366 175.183 244.366C175.783 244.366 176.743 244.757 176.743 246.437V249.386L176.753 249.397Z" fill="white"/>
<path d="M125.923 124.877V230.616" stroke="white" stroke-width="0.96" stroke-linecap="round" stroke-linejoin="round"/>
<path d="M120.383 130.417L125.923 124.877L131.463 130.417" stroke="white" stroke-width="0.96" stroke-linecap="round" stroke-linejoin="round"/>
<path d="M125.923 377.667V259.826" stroke="white" stroke-width="0.96" stroke-linecap="round" stroke-linejoin="round"/>
<path d="M131.463 372.127L125.923 377.667L120.383 372.127" stroke="white" stroke-width="0.96" stroke-linecap="round" stroke-linejoin="round"/>
<path d="M180.063 163.797L185.603 169.337L180.063 174.877" stroke="white" stroke-width="0.96" stroke-linecap="round" stroke-linejoin="round"/>
<path d="M114.843 174.877L109.303 169.337L114.843 163.797" stroke="white" stroke-width="0.96" stroke-linecap="round" stroke-linejoin="round"/>
<path d="M109.303 169.337H185.603" stroke="white" stroke-width="0.96" stroke-linecap="round" stroke-linejoin="round"/>
<path d="M141.143 473.997C141.043 474.257 140.793 474.447 140.313 474.477C139.033 482.157 136.373 490.257 132.633 494.987C132.053 494.537 131.193 494.117 130.493 493.837C134.073 489.487 136.893 481.356 137.913 473.326L141.143 473.997ZM157.233 494.786C155.733 489.186 152.013 480.097 148.723 474.177L150.803 473.187C154.163 478.917 157.903 487.937 159.573 493.857L157.233 494.786ZM152.593 469.067C154.063 470.377 155.633 472.357 156.493 473.797L155.273 474.697C154.373 473.257 152.713 471.177 151.373 469.957L152.593 469.067ZM156.813 467.397C158.253 468.737 159.853 470.656 160.753 472.096L159.503 473.027C158.603 471.587 156.943 469.536 155.603 468.326L156.823 467.397H156.813Z" fill="#617462"/>
<path d="M192.693 479.747H181.113C180.503 487.967 178.423 492.967 171.453 496.957C171.003 496.447 170.233 495.836 169.633 495.386C176.253 491.706 178.213 487.327 178.813 479.737H165.983V477.527H178.913C179.013 475.027 179.043 472.147 179.043 468.917L182.183 469.107C182.153 469.427 181.863 469.617 181.413 469.687C181.383 472.597 181.383 475.187 181.253 477.527H192.713V479.737L192.693 479.747Z" fill="#617462"/>
<path d="M199.733 481.257H226.453V483.527H200.953C200.763 483.847 200.343 484.066 199.933 484.136L199.743 481.257H199.733Z" fill="#617462"/>
<path d="M262.703 486.826H255.693C257.713 488.586 260.623 490.156 263.343 490.886C262.893 491.306 262.323 492.006 262.033 492.516C260.693 492.066 259.283 491.396 257.973 490.596V494.727C257.973 496.587 257.273 496.866 252.983 496.806C252.883 496.266 252.633 495.617 252.373 495.107C253.233 495.137 254.003 495.167 254.553 495.167C255.773 495.167 255.893 495.167 255.893 494.717V491.007H249.073V497.826H246.963V491.007H240.853V496.927H238.773V490.467C237.463 491.357 235.953 492.167 234.293 492.897C234.033 492.417 233.463 491.676 233.013 491.326C236.053 490.116 238.483 488.507 240.343 486.817H233.623V485.027H242.073C242.583 484.387 243.033 483.776 243.413 483.136H238.003V474.337H258.833V483.136H246.293C246.193 483.296 245.973 483.427 245.653 483.427C245.333 483.937 244.983 484.477 244.593 485.027H262.703V486.817V486.826ZM241.623 474.056V472.266H233.783V470.477H241.623V468.107L244.343 468.266C244.313 468.486 244.153 468.647 243.703 468.717V470.477H252.443V468.107L255.193 468.266C255.163 468.486 255.003 468.647 254.553 468.717V470.477H262.613V472.266H254.553V474.056H252.443V472.266H243.703V474.056H241.623ZM239.983 475.817V478.027H256.753V475.817H239.983ZM239.983 479.437V481.677H256.753V479.437H239.983ZM243.093 486.826C242.323 487.656 241.463 488.457 240.473 489.257H246.973V486.826H243.103H243.093ZM249.073 489.257H256.013C255.023 488.487 254.123 487.686 253.423 486.826H249.683C249.623 487.016 249.463 487.177 249.073 487.247V489.266V489.257Z" fill="#617462"/>
<path d="M353.483 1.07642H391.923V39.5164L353.483 1.07642Z" fill="#99A893"/>
</svg>
