<svg width="394" height="559" viewBox="0 0 394 559" fill="none" xmlns="http://www.w3.org/2000/svg">
<path d="M391.81 2.25342H1.21997V556.563H391.81V2.25342Z" fill="white"/>
<path d="M224.29 399.343H312.43C324.09 399.343 327.36 392.104 327.36 388.124V348.303C327.36 344.683 326.64 341.433 317.9 334.193C309.16 326.953 273.47 297.623 272.38 296.553C271.28 295.463 267.28 294.374 261.82 294.374H186.79C181.33 294.374 177.32 295.463 176.23 296.553C175.13 297.633 139.45 326.953 130.7 334.193C121.96 341.433 121.23 344.683 121.23 348.303V388.124C121.23 392.104 124.51 399.343 136.16 399.343H224.29Z" fill="white" stroke="#899284" stroke-width="3" stroke-linecap="round" stroke-linejoin="round"/>
<path d="M327.04 345.354C327.18 346.034 327.11 346.863 325.66 346.863H122.92C121.47 346.863 121.39 346.034 121.53 345.354" stroke="#899284" stroke-width="2.5" stroke-linecap="round" stroke-linejoin="round"/>
<path d="M233.68 257.193C233.68 259.783 232.89 264.384 235.26 275.914C237.62 287.434 236.83 297.523 236.83 297.523C236.83 297.523 234.33 298.833 224.29 298.833C214.25 298.833 211.75 297.523 211.75 297.523C211.75 297.523 210.96 287.434 213.32 275.914C215.68 264.384 214.9 259.773 214.9 257.193" fill="white"/>
<path d="M233.68 257.193C233.68 259.783 232.89 264.384 235.26 275.914C237.62 287.434 236.83 297.523 236.83 297.523C236.83 297.523 234.33 298.833 224.29 298.833C214.25 298.833 211.75 297.523 211.75 297.523C211.75 297.523 210.96 287.434 213.32 275.914C215.68 264.384 214.9 259.773 214.9 257.193" stroke="#899284" stroke-width="3" stroke-linecap="round" stroke-linejoin="round"/>
<path d="M224.29 257.193H239.88C239.88 257.193 238.65 239.133 238.28 236.473C237.99 234.413 237.27 234.433 235.82 234.433H212.76C211.31 234.433 210.58 234.413 210.3 236.473C209.93 239.133 208.7 257.193 208.7 257.193H224.28H224.29Z" fill="white" stroke="#899284" stroke-width="3" stroke-linecap="round" stroke-linejoin="round"/>
<path d="M272.61 296.763C273.01 297.113 274.7 299.833 271.49 299.833H177.09C173.88 299.833 175.57 297.113 175.97 296.763" stroke="#899284" stroke-width="2.5" stroke-linecap="round" stroke-linejoin="round"/>
<mask id="mask0_60_2009" style="mask-type:luminance" maskUnits="userSpaceOnUse" x="28" y="79" width="74" height="478">
<path d="M101.42 79.1733H28.8799V556.693H101.42V79.1733Z" fill="white"/>
</mask>
<g mask="url(#mask0_60_2009)">
<path d="M56.3699 126.293H80.1799C80.5299 126.293 80.8101 126.573 80.8101 126.923V131.104C80.8101 131.454 80.5299 131.733 80.1799 131.733H56.3699C56.0199 131.733 55.74 131.454 55.74 131.104V126.923C55.74 126.573 56.0199 126.293 56.3699 126.293Z" fill="white" stroke="#899284" stroke-width="4.67" stroke-linecap="round" stroke-linejoin="round"/>
<path d="M69.6699 126.293H66.77V130.483H69.6699V126.293Z" fill="white" stroke="#899284" stroke-width="4.67" stroke-linecap="round" stroke-linejoin="round"/>
<path d="M56.22 106.783V106.583C56.22 105.883 56.81 105.323 57.53 105.323H78.98C79.7 105.323 80.29 105.893 80.29 106.583V106.783H56.23H56.22Z" fill="white" stroke="#899284" stroke-width="4.67" stroke-linecap="round" stroke-linejoin="round"/>
<path d="M55.3799 123.983V108.073C55.3799 107.373 55.9499 106.813 56.6399 106.813H79.8699C80.5699 106.813 81.1299 107.383 81.1299 108.073V123.983H55.3699H55.3799Z" fill="white" stroke="#899284" stroke-width="4.67" stroke-linecap="round" stroke-linejoin="round"/>
<path d="M81.1499 123.983H55.3799V126.333H81.1499V123.983Z" fill="white" stroke="#899284" stroke-width="4.67" stroke-linecap="round" stroke-linejoin="round"/>
<path d="M56.3501 107.604V123.983" stroke="#899284" stroke-width="4.67" stroke-linecap="round" stroke-linejoin="round"/>
<path d="M57.3899 107.604V123.983" stroke="#899284" stroke-width="4.67" stroke-linecap="round" stroke-linejoin="round"/>
<path d="M58.4199 107.604V123.983" stroke="#899284" stroke-width="4.67" stroke-linecap="round" stroke-linejoin="round"/>
<path d="M59.46 107.604V123.983" stroke="#899284" stroke-width="4.67" stroke-linecap="round" stroke-linejoin="round"/>
<path d="M60.5 107.604V123.983" stroke="#899284" stroke-width="4.67" stroke-linecap="round" stroke-linejoin="round"/>
<path d="M61.53 107.604V123.983" stroke="#899284" stroke-width="4.67" stroke-linecap="round" stroke-linejoin="round"/>
<path d="M62.5701 107.604V123.983" stroke="#899284" stroke-width="4.67" stroke-linecap="round" stroke-linejoin="round"/>
<path d="M63.6001 107.604V123.983" stroke="#899284" stroke-width="4.67" stroke-linecap="round" stroke-linejoin="round"/>
<path d="M64.6399 107.604V123.983" stroke="#899284" stroke-width="4.67" stroke-linecap="round" stroke-linejoin="round"/>
<path d="M65.6799 107.604V123.983" stroke="#899284" stroke-width="4.67" stroke-linecap="round" stroke-linejoin="round"/>
<path d="M66.71 107.604V123.983" stroke="#899284" stroke-width="4.67" stroke-linecap="round" stroke-linejoin="round"/>
<path d="M67.75 107.604V123.983" stroke="#899284" stroke-width="4.67" stroke-linecap="round" stroke-linejoin="round"/>
<path d="M68.79 107.604V123.983" stroke="#899284" stroke-width="4.67" stroke-linecap="round" stroke-linejoin="round"/>
<path d="M69.8201 107.604V123.983" stroke="#899284" stroke-width="4.67" stroke-linecap="round" stroke-linejoin="round"/>
<path d="M70.8599 107.604V123.983" stroke="#899284" stroke-width="4.67" stroke-linecap="round" stroke-linejoin="round"/>
<path d="M71.8999 107.604V123.983" stroke="#899284" stroke-width="4.67" stroke-linecap="round" stroke-linejoin="round"/>
<path d="M72.9299 107.604V123.983" stroke="#899284" stroke-width="4.67" stroke-linecap="round" stroke-linejoin="round"/>
<path d="M73.97 107.604V123.983" stroke="#899284" stroke-width="4.67" stroke-linecap="round" stroke-linejoin="round"/>
<path d="M75.01 107.604V123.983" stroke="#899284" stroke-width="4.67" stroke-linecap="round" stroke-linejoin="round"/>
<path d="M76.04 107.604V123.983" stroke="#899284" stroke-width="4.67" stroke-linecap="round" stroke-linejoin="round"/>
<path d="M77.0801 107.604V123.983" stroke="#899284" stroke-width="4.67" stroke-linecap="round" stroke-linejoin="round"/>
<path d="M78.1199 107.604V123.983" stroke="#899284" stroke-width="4.67" stroke-linecap="round" stroke-linejoin="round"/>
<path d="M79.1499 107.604V123.983" stroke="#899284" stroke-width="4.67" stroke-linecap="round" stroke-linejoin="round"/>
<path d="M80.1899 107.604V123.983" stroke="#899284" stroke-width="4.67" stroke-linecap="round" stroke-linejoin="round"/>
<path d="M79.53 131.733H56.9099V136.843H79.53V131.733Z" fill="white" stroke="#899284" stroke-width="4.67" stroke-linecap="round" stroke-linejoin="round"/>
<path d="M79.5701 250.703H56.95V255.813H79.5701V250.703Z" fill="white" stroke="#899284" stroke-width="4.67" stroke-linecap="round" stroke-linejoin="round"/>
<path d="M78.01 136.843H58.51V232.854H78.01V136.843Z" stroke="#899284" stroke-width="4.67" stroke-linecap="round" stroke-linejoin="round"/>
<path d="M78.01 255.854H58.51V653.854H78.01V255.854Z" fill="white" stroke="#899284" stroke-width="4.67" stroke-linecap="round" stroke-linejoin="round"/>
<path d="M80.4299 250.713C80.4299 250.713 80.3799 230.613 80.4299 224.283C80.4799 217.953 78.8898 201.003 78.8898 201.003H57.7299C57.7299 201.003 56.1399 217.953 56.1899 224.283C56.2399 230.613 56.1899 250.713 56.1899 250.713H80.4399H80.4299Z" fill="white" stroke="#899284" stroke-width="4.67" stroke-linecap="round" stroke-linejoin="round"/>
<path d="M59.75 208.894V244.914C59.75 245.264 59.4699 245.543 59.1199 245.543H58.6499C58.2999 245.543 58.02 245.264 58.02 244.914V208.894" stroke="#899284" stroke-width="4.67" stroke-linecap="round" stroke-linejoin="round"/>
<path d="M59.74 244.914V208.894C59.74 208.544 60.0199 208.263 60.3699 208.263H60.8401C61.1901 208.263 61.47 208.544 61.47 208.894V244.914" stroke="#899284" stroke-width="4.67" stroke-linecap="round" stroke-linejoin="round"/>
<path d="M57.1001 208.263H57.3899C57.7399 208.263 58.02 208.544 58.02 208.894" stroke="#899284" stroke-width="4.67" stroke-linecap="round" stroke-linejoin="round"/>
<path d="M63.1799 208.894V244.914C63.1799 245.264 62.9 245.543 62.55 245.543H62.0901C61.7401 245.543 61.46 245.264 61.46 244.914V208.894" stroke="#899284" stroke-width="4.67" stroke-linecap="round" stroke-linejoin="round"/>
<path d="M63.1599 244.914V208.894C63.1599 208.544 63.44 208.263 63.79 208.263H64.25C64.6 208.263 64.8799 208.544 64.8799 208.894V244.914" stroke="#899284" stroke-width="4.67" stroke-linecap="round" stroke-linejoin="round"/>
<path d="M66.6001 208.894V244.914C66.6001 245.264 66.32 245.543 65.97 245.543H65.51C65.16 245.543 64.8799 245.264 64.8799 244.914V208.894" stroke="#899284" stroke-width="4.67" stroke-linecap="round" stroke-linejoin="round"/>
<path d="M66.5801 244.914V208.894C66.5801 208.544 66.86 208.263 67.21 208.263H67.6699C68.0199 208.263 68.3 208.544 68.3 208.894V244.914" stroke="#899284" stroke-width="4.67" stroke-linecap="round" stroke-linejoin="round"/>
<path d="M70.02 208.894V244.914C70.02 245.264 69.7399 245.543 69.3899 245.543H68.9299C68.5799 245.543 68.3 245.264 68.3 244.914V208.894" stroke="#899284" stroke-width="4.67" stroke-linecap="round" stroke-linejoin="round"/>
<path d="M70.01 244.914V208.894C70.01 208.544 70.2899 208.263 70.6399 208.263H71.1099C71.4599 208.263 71.74 208.544 71.74 208.894V244.914" stroke="#899284" stroke-width="4.67" stroke-linecap="round" stroke-linejoin="round"/>
<path d="M73.45 208.894V244.914C73.45 245.264 73.1701 245.543 72.8201 245.543H72.3599C72.0099 245.543 71.73 245.264 71.73 244.914V208.894" stroke="#899284" stroke-width="4.67" stroke-linecap="round" stroke-linejoin="round"/>
<path d="M73.4299 244.914V208.894C73.4299 208.544 73.7101 208.263 74.0601 208.263H74.52C74.87 208.263 75.1499 208.544 75.1499 208.894V244.914" stroke="#899284" stroke-width="4.67" stroke-linecap="round" stroke-linejoin="round"/>
<path d="M76.8699 208.894V244.914C76.8699 245.264 76.59 245.543 76.24 245.543H75.77C75.42 245.543 75.1399 245.264 75.1399 244.914V208.894" stroke="#899284" stroke-width="4.67" stroke-linecap="round" stroke-linejoin="round"/>
<path d="M80.3301 244.914C80.3301 245.264 80.05 245.543 79.7 245.543H79.23C78.88 245.543 78.6001 245.264 78.6001 244.914V208.894" stroke="#899284" stroke-width="4.67" stroke-linecap="round" stroke-linejoin="round"/>
<path d="M76.8599 244.914V208.894C76.8599 208.544 77.14 208.263 77.49 208.263H77.95C78.3 208.263 78.5801 208.544 78.5801 208.894V244.914" stroke="#899284" stroke-width="4.67" stroke-linecap="round" stroke-linejoin="round"/>
<path d="M56.3699 126.293H80.1799C80.5299 126.293 80.8101 126.573 80.8101 126.923V131.104C80.8101 131.454 80.5299 131.733 80.1799 131.733H56.3699C56.0199 131.733 55.74 131.454 55.74 131.104V126.923C55.74 126.573 56.0199 126.293 56.3699 126.293Z" fill="white" stroke="#899284" stroke-width="0.58" stroke-linecap="round" stroke-linejoin="round"/>
<path d="M69.6699 126.293H66.77V130.483H69.6699V126.293Z" fill="white" stroke="#899284" stroke-width="0.58" stroke-linecap="round" stroke-linejoin="round"/>
<path d="M56.22 106.783V106.583C56.22 105.883 56.81 105.323 57.53 105.323H78.98C79.7 105.323 80.29 105.893 80.29 106.583V106.783H56.23H56.22Z" fill="white" stroke="#899284" stroke-width="0.58" stroke-linecap="round" stroke-linejoin="round"/>
<path d="M55.3799 123.983V108.073C55.3799 107.373 55.9499 106.813 56.6399 106.813H79.8699C80.5699 106.813 81.1299 107.383 81.1299 108.073V123.983H55.3699H55.3799Z" fill="white" stroke="#899284" stroke-width="0.58" stroke-linecap="round" stroke-linejoin="round"/>
<path d="M81.1499 123.983H55.3799V126.333H81.1499V123.983Z" fill="white" stroke="#899284" stroke-width="0.58" stroke-linecap="round" stroke-linejoin="round"/>
<path d="M56.3501 107.604V123.983" stroke="#899284" stroke-width="0.58" stroke-linecap="round" stroke-linejoin="round"/>
<path d="M57.3899 107.604V123.983" stroke="#899284" stroke-width="0.58" stroke-linecap="round" stroke-linejoin="round"/>
<path d="M58.4199 107.604V123.983" stroke="#899284" stroke-width="0.58" stroke-linecap="round" stroke-linejoin="round"/>
<path d="M59.46 107.604V123.983" stroke="#899284" stroke-width="0.58" stroke-linecap="round" stroke-linejoin="round"/>
<path d="M60.5 107.604V123.983" stroke="#899284" stroke-width="0.58" stroke-linecap="round" stroke-linejoin="round"/>
<path d="M61.53 107.604V123.983" stroke="#899284" stroke-width="0.58" stroke-linecap="round" stroke-linejoin="round"/>
<path d="M62.5701 107.604V123.983" stroke="#899284" stroke-width="0.58" stroke-linecap="round" stroke-linejoin="round"/>
<path d="M63.6001 107.604V123.983" stroke="#899284" stroke-width="0.58" stroke-linecap="round" stroke-linejoin="round"/>
<path d="M64.6399 107.604V123.983" stroke="#899284" stroke-width="0.58" stroke-linecap="round" stroke-linejoin="round"/>
<path d="M65.6799 107.604V123.983" stroke="#899284" stroke-width="0.58" stroke-linecap="round" stroke-linejoin="round"/>
<path d="M66.71 107.604V123.983" stroke="#899284" stroke-width="0.58" stroke-linecap="round" stroke-linejoin="round"/>
<path d="M67.75 107.604V123.983" stroke="#899284" stroke-width="0.58" stroke-linecap="round" stroke-linejoin="round"/>
<path d="M68.79 107.604V123.983" stroke="#899284" stroke-width="0.58" stroke-linecap="round" stroke-linejoin="round"/>
<path d="M69.8201 107.604V123.983" stroke="#899284" stroke-width="0.58" stroke-linecap="round" stroke-linejoin="round"/>
<path d="M70.8599 107.604V123.983" stroke="#899284" stroke-width="0.58" stroke-linecap="round" stroke-linejoin="round"/>
<path d="M71.8999 107.604V123.983" stroke="#899284" stroke-width="0.58" stroke-linecap="round" stroke-linejoin="round"/>
<path d="M72.9299 107.604V123.983" stroke="#899284" stroke-width="0.58" stroke-linecap="round" stroke-linejoin="round"/>
<path d="M73.97 107.604V123.983" stroke="#899284" stroke-width="0.58" stroke-linecap="round" stroke-linejoin="round"/>
<path d="M75.01 107.604V123.983" stroke="#899284" stroke-width="0.58" stroke-linecap="round" stroke-linejoin="round"/>
<path d="M76.04 107.604V123.983" stroke="#899284" stroke-width="0.58" stroke-linecap="round" stroke-linejoin="round"/>
<path d="M77.0801 107.604V123.983" stroke="#899284" stroke-width="0.58" stroke-linecap="round" stroke-linejoin="round"/>
<path d="M78.1199 107.604V123.983" stroke="#899284" stroke-width="0.58" stroke-linecap="round" stroke-linejoin="round"/>
<path d="M79.1499 107.604V123.983" stroke="#899284" stroke-width="0.58" stroke-linecap="round" stroke-linejoin="round"/>
<path d="M80.1899 107.604V123.983" stroke="#899284" stroke-width="0.58" stroke-linecap="round" stroke-linejoin="round"/>
<path d="M79.53 131.733H56.9099V136.843H79.53V131.733Z" fill="white" stroke="#899284" stroke-width="0.58" stroke-linecap="round" stroke-linejoin="round"/>
<path d="M79.5701 250.703H56.95V255.813H79.5701V250.703Z" fill="white" stroke="#899284" stroke-width="0.58" stroke-linecap="round" stroke-linejoin="round"/>
<path d="M78.01 136.843H58.51V232.854H78.01V136.843Z" fill="white" stroke="#899284" stroke-width="0.58" stroke-linecap="round" stroke-linejoin="round"/>
<path d="M78.01 255.854H58.51V653.854H78.01V255.854Z" fill="white" stroke="#899284" stroke-width="0.58" stroke-linecap="round" stroke-linejoin="round"/>
<path d="M80.4299 250.713C80.4299 250.713 80.3799 230.613 80.4299 224.283C80.4799 217.953 78.8898 201.003 78.8898 201.003H57.7299C57.7299 201.003 56.1399 217.953 56.1899 224.283C56.2399 230.613 56.1899 250.713 56.1899 250.713H80.4399H80.4299Z" fill="white" stroke="#899284" stroke-width="0.58" stroke-linecap="round" stroke-linejoin="round"/>
<path d="M59.75 208.894V244.914C59.75 245.264 59.4699 245.543 59.1199 245.543H58.6499C58.2999 245.543 58.02 245.264 58.02 244.914V208.894" stroke="#899284" stroke-width="0.58" stroke-linecap="round" stroke-linejoin="round"/>
<path d="M59.74 244.914V208.894C59.74 208.544 60.0199 208.263 60.3699 208.263H60.8401C61.1901 208.263 61.47 208.544 61.47 208.894V244.914" stroke="#899284" stroke-width="0.58" stroke-linecap="round" stroke-linejoin="round"/>
<path d="M57.1001 208.263H57.3899C57.7399 208.263 58.02 208.544 58.02 208.894" stroke="#899284" stroke-width="0.58" stroke-linecap="round" stroke-linejoin="round"/>
<path d="M63.1799 208.894V244.914C63.1799 245.264 62.9 245.543 62.55 245.543H62.0901C61.7401 245.543 61.46 245.264 61.46 244.914V208.894" stroke="#899284" stroke-width="0.58" stroke-linecap="round" stroke-linejoin="round"/>
<path d="M63.1599 244.914V208.894C63.1599 208.544 63.44 208.263 63.79 208.263H64.25C64.6 208.263 64.8799 208.544 64.8799 208.894V244.914" stroke="#899284" stroke-width="0.58" stroke-linecap="round" stroke-linejoin="round"/>
<path d="M66.6001 208.894V244.914C66.6001 245.264 66.32 245.543 65.97 245.543H65.51C65.16 245.543 64.8799 245.264 64.8799 244.914V208.894" stroke="#899284" stroke-width="0.58" stroke-linecap="round" stroke-linejoin="round"/>
<path d="M66.5801 244.914V208.894C66.5801 208.544 66.86 208.263 67.21 208.263H67.6699C68.0199 208.263 68.3 208.544 68.3 208.894V244.914" stroke="#899284" stroke-width="0.58" stroke-linecap="round" stroke-linejoin="round"/>
<path d="M70.02 208.894V244.914C70.02 245.264 69.7399 245.543 69.3899 245.543H68.9299C68.5799 245.543 68.3 245.264 68.3 244.914V208.894" stroke="#899284" stroke-width="0.58" stroke-linecap="round" stroke-linejoin="round"/>
<path d="M70.01 244.914V208.894C70.01 208.544 70.2899 208.263 70.6399 208.263H71.1099C71.4599 208.263 71.74 208.544 71.74 208.894V244.914" stroke="#899284" stroke-width="0.58" stroke-linecap="round" stroke-linejoin="round"/>
<path d="M73.45 208.894V244.914C73.45 245.264 73.1701 245.543 72.8201 245.543H72.3599C72.0099 245.543 71.73 245.264 71.73 244.914V208.894" stroke="#899284" stroke-width="0.58" stroke-linecap="round" stroke-linejoin="round"/>
<path d="M73.4299 244.914V208.894C73.4299 208.544 73.7101 208.263 74.0601 208.263H74.52C74.87 208.263 75.1499 208.544 75.1499 208.894V244.914" stroke="#899284" stroke-width="0.58" stroke-linecap="round" stroke-linejoin="round"/>
<path d="M76.8699 208.894V244.914C76.8699 245.264 76.59 245.543 76.24 245.543H75.77C75.42 245.543 75.1399 245.264 75.1399 244.914V208.894" stroke="#899284" stroke-width="0.58" stroke-linecap="round" stroke-linejoin="round"/>
<path d="M80.3301 244.914C80.3301 245.264 80.05 245.543 79.7 245.543H79.23C78.88 245.543 78.6001 245.264 78.6001 244.914V208.894" stroke="#899284" stroke-width="0.58" stroke-linecap="round" stroke-linejoin="round"/>
<path d="M76.8599 244.914V208.894C76.8599 208.544 77.14 208.263 77.49 208.263H77.95C78.3 208.263 78.5801 208.544 78.5801 208.894V244.914" stroke="#899284" stroke-width="0.58" stroke-linecap="round" stroke-linejoin="round"/>
</g>
<path d="M390.81 3.25342V555.563H2.21997V3.25342H390.81ZM391.81 2.25342H1.21997V556.563H391.81V2.25342Z" fill="#99A893"/>
<path d="M142.15 480.383H132.55V498.273H130.44V469.923H142.15V480.383ZM140.1 471.583H132.55V474.303H140.1V471.583ZM132.55 478.723H140.1V475.843H132.55V478.723ZM157.16 469.923V495.553C157.16 498.083 155.98 498.243 151.82 498.243C151.76 497.703 151.47 496.803 151.21 496.223C151.11 496.353 151.05 496.484 150.99 496.604C147.69 495.704 145.29 493.883 143.82 491.293C142.96 493.273 140.91 495.233 136.2 496.703C135.94 496.283 135.37 495.613 134.92 495.263C139.72 493.953 141.48 492.003 142.12 490.243H135.18V488.543H142.44V485.823H135.72V484.164H139.4C139.08 483.304 138.47 482.213 137.86 481.383L139.56 480.874C140.36 481.864 141.13 483.213 141.38 484.133L141.28 484.164H145.66C146.27 483.204 147.04 481.703 147.42 480.703L149.69 481.604C149.59 481.794 149.34 481.863 149.05 481.823C148.67 482.463 148.09 483.394 147.55 484.164H151.65V485.823H144.42V488.543H152.26V490.243H145.19C146.47 492.643 148.9 494.303 152.2 495.013C151.88 495.273 151.53 495.713 151.24 496.133C152.1 496.163 152.9 496.193 153.51 496.193C154.89 496.193 155.05 496.193 155.05 495.553V480.423H145.16V469.923H157.16ZM155.04 471.583H147.23V474.303H155.04V471.583ZM147.24 478.753H155.05V475.843H147.24V478.753Z" fill="#617462"/>
<path d="M170.53 481.313V491.843C173.03 495.653 177.7 495.653 183.71 495.653C187.23 495.653 191.33 495.593 193.82 495.433C193.56 495.913 193.21 496.903 193.15 497.543C190.94 497.603 187.42 497.673 184.25 497.673C177.21 497.673 172.79 497.673 169.63 493.703C168.16 495.143 166.65 496.554 165.41 497.644C165.44 497.904 165.38 498.023 165.15 498.153L163.9 495.883C165.28 494.863 166.94 493.453 168.44 492.073V483.374H164.22V481.323H170.52L170.53 481.313ZM166.25 469.313C168.27 470.813 170.54 473.053 171.53 474.653L169.77 475.993C168.84 474.363 166.6 472.053 164.59 470.493L166.25 469.313ZM181.38 494.363V490.653H171.94V488.793H181.38V486.333H174.08V475.903H181.38V473.503H172.42V471.683H181.38V468.513L184.1 468.673C184.07 468.893 183.88 469.054 183.46 469.124V471.683H192.8V473.503H183.46V475.903H191.04V486.333H183.46V488.793H193.32V490.653H183.46V494.363H181.38ZM176.1 477.604V480.293H181.38V477.604H176.1ZM176.1 484.673H181.38V481.894H176.1V484.673ZM188.96 477.604H183.46V480.293H188.96V477.604ZM188.96 484.673V481.894H183.46V484.673H188.96Z" fill="#617462"/>
<path d="M228.51 472.133V474.113H220.8L222.5 474.533C222.4 474.723 222.18 474.823 221.8 474.823C221.35 475.843 220.68 477.223 220.01 478.343H226.83V495.553C226.83 498.243 225.55 498.303 220.01 498.303C219.88 497.693 219.56 496.763 219.24 496.193C220.52 496.223 221.74 496.253 222.63 496.253C224.58 496.253 224.74 496.253 224.74 495.513V480.253H217.92V483.104C217.92 483.684 218.05 483.773 218.94 483.773H222.11C222.78 483.773 222.94 483.613 223.01 482.233C223.39 482.523 224.16 482.813 224.71 482.903C224.52 484.953 223.94 485.463 222.37 485.463H218.75C216.51 485.463 216 485.014 216 483.124V480.243H211.74C211.32 483.733 210.01 485.873 205.08 487.063C204.92 486.583 204.41 485.883 204.02 485.523C208.08 484.693 209.36 483.183 209.78 480.243H203.76V498.253H201.68V478.323H208.21C207.86 477.203 207.22 475.703 206.55 474.543L208.57 474.093C209.34 475.313 210.11 476.973 210.39 478.033L209.33 478.323H217.65C218.29 477.143 219.06 475.384 219.54 474.104H199.8V472.124H212.92V468.503L215.74 468.693C215.71 468.913 215.55 469.073 215.1 469.113V472.124H228.51V472.133ZM220.39 494.973H210.05V496.923H208.1V487.063H220.39V494.963V494.973ZM218.4 488.803H210.05V493.253H218.4V488.803Z" fill="#617462"/>
<path d="M235.94 498.203V484.283H247.55V497.914H245.41V496.604H237.99V498.203H235.94ZM245.41 486.374H237.99V494.533H245.41V486.374ZM257.67 469.633V480.894H241.1V469.633H257.67ZM255.49 478.854V471.713H243.17V478.854H255.49ZM250.98 484.293H262.98V497.953H260.84V496.573H253.06V498.173H250.98V484.283V484.293ZM253.06 494.523H260.84V486.363H253.06V494.523Z" fill="#617462"/>
<path d="M353.37 2.25342H391.81V40.6934L353.37 2.25342Z" fill="#99A893"/>
</svg>
