<svg width="396" height="558" viewBox="0 0 396 558" fill="none" xmlns="http://www.w3.org/2000/svg">
<path d="M393.419 1.45996H1.83081V554.77H393.419V1.45996Z" fill="white"/>
<path d="M392.916 1.95996V554.27H2.33325V1.95996H392.916ZM393.921 0.959961H1.32812V555.27H393.921V0.959961Z" fill="#99A893"/>
<path d="M311.43 168.41V163.26H311.42L310.475 163.8L310.324 163.32L311.521 162.65H312.063V168.4H311.44L311.43 168.41Z" fill="#617462"/>
<path d="M314.164 162.66H317.551V163.07L315.139 168.41H314.486L316.898 163.21V163.19H314.164V162.66Z" fill="#617462"/>
<path d="M318.235 165.56C318.235 163.55 319.019 162.57 320.104 162.57C321.19 162.57 321.873 163.6 321.873 165.48C321.873 167.48 321.17 168.5 320.024 168.5C318.979 168.5 318.245 167.47 318.245 165.55L318.235 165.56ZM321.22 165.51C321.22 164.08 320.868 163.09 320.064 163.09C319.381 163.09 318.888 164 318.888 165.51C318.888 167.02 319.31 167.98 320.034 167.98C320.888 167.98 321.21 166.87 321.21 165.51H321.22Z" fill="#617462"/>
<path d="M325.653 168.26C325.472 168.35 325.05 168.5 324.507 168.5C323.301 168.5 322.507 167.65 322.507 166.37C322.507 165.09 323.361 164.14 324.658 164.14C325.13 164.14 325.502 164.28 325.663 164.36L325.502 164.87C325.321 164.77 325.05 164.66 324.638 164.66C323.663 164.66 323.16 165.43 323.16 166.33C323.16 167.34 323.773 167.98 324.617 167.98C325.04 167.98 325.321 167.86 325.532 167.77L325.653 168.26Z" fill="#617462"/>
<path d="M332.276 168.41H331.643V165.99C331.643 165.18 331.352 164.66 330.718 164.66C330.206 164.66 329.733 165.14 329.733 165.78V168.41H329.1V165.83C329.1 165.16 328.819 164.66 328.216 164.66C327.673 164.66 327.18 165.2 327.18 165.85V168.41H326.547V165.3C326.547 164.87 326.537 164.56 326.517 164.22H327.08L327.12 164.89H327.14C327.371 164.48 327.753 164.12 328.417 164.12C328.959 164.12 329.392 164.46 329.563 164.96H329.583C329.864 164.46 330.286 164.12 330.929 164.12C331.442 164.12 332.266 164.45 332.266 165.89V168.41H332.276Z" fill="#617462"/>
<path d="M311.43 205.84V200.69H311.42L310.475 201.23L310.324 200.75L311.521 200.08H312.063V205.83H311.44L311.43 205.84Z" fill="#617462"/>
<path d="M316.958 205.84H316.345V204.23H313.822V203.82L316.295 200.09H316.958V203.74H317.742V204.23H316.958V205.84ZM314.476 203.73H316.355V201.69C316.355 201.37 316.375 201.07 316.385 200.77H316.355C316.174 201.12 316.044 201.37 315.893 201.63L314.476 203.72V203.74V203.73Z" fill="#617462"/>
<path d="M318.235 202.98C318.235 200.97 319.019 199.99 320.104 199.99C321.19 199.99 321.873 201.02 321.873 202.9C321.873 204.9 321.17 205.93 320.024 205.93C318.979 205.93 318.245 204.9 318.245 202.98H318.235ZM321.22 202.93C321.22 201.49 320.868 200.5 320.064 200.5C319.381 200.5 318.888 201.41 318.888 202.93C318.888 204.45 319.31 205.4 320.034 205.4C320.888 205.4 321.21 204.29 321.21 202.93H321.22Z" fill="#617462"/>
<path d="M325.653 205.68C325.472 205.77 325.05 205.92 324.507 205.92C323.301 205.92 322.507 205.07 322.507 203.79C322.507 202.51 323.361 201.56 324.658 201.56C325.13 201.56 325.502 201.7 325.663 201.78L325.502 202.29C325.321 202.19 325.05 202.08 324.638 202.08C323.663 202.08 323.16 202.86 323.16 203.75C323.16 204.76 323.773 205.4 324.617 205.4C325.04 205.4 325.321 205.28 325.532 205.19L325.653 205.68Z" fill="#617462"/>
<path d="M332.276 205.84H331.643V203.42C331.643 202.61 331.352 202.08 330.718 202.08C330.206 202.08 329.733 202.56 329.733 203.2V205.83H329.1V203.25C329.1 202.58 328.819 202.08 328.216 202.08C327.673 202.08 327.18 202.62 327.18 203.27V205.83H326.547V202.72C326.547 202.29 326.537 201.98 326.517 201.64H327.08L327.12 202.32H327.14C327.371 201.91 327.753 201.55 328.417 201.55C328.959 201.55 329.392 201.89 329.563 202.39H329.583C329.864 201.89 330.286 201.55 330.929 201.55C331.442 201.55 332.266 201.88 332.266 203.31V205.83L332.276 205.84Z" fill="#617462"/>
<path d="M311.43 264.82V259.67H311.42L310.475 260.21L310.324 259.73L311.521 259.06H312.063V264.81H311.44L311.43 264.82Z" fill="#617462"/>
<path d="M313.983 261.96C313.983 259.95 314.767 258.97 315.853 258.97C316.938 258.97 317.622 260 317.622 261.88C317.622 263.88 316.918 264.9 315.772 264.9C314.727 264.9 313.993 263.87 313.993 261.95L313.983 261.96ZM316.968 261.92C316.968 260.49 316.616 259.5 315.812 259.5C315.129 259.5 314.636 260.41 314.636 261.92C314.636 263.43 315.059 264.39 315.782 264.39C316.637 264.39 316.958 263.28 316.958 261.92H316.968Z" fill="#617462"/>
<path d="M318.235 261.96C318.235 259.95 319.019 258.97 320.104 258.97C321.19 258.97 321.873 260 321.873 261.88C321.873 263.88 321.17 264.9 320.024 264.9C318.979 264.9 318.245 263.87 318.245 261.95L318.235 261.96ZM321.22 261.92C321.22 260.49 320.868 259.5 320.064 259.5C319.381 259.5 318.888 260.41 318.888 261.92C318.888 263.43 319.31 264.39 320.034 264.39C320.888 264.39 321.21 263.28 321.21 261.92H321.22Z" fill="#617462"/>
<path d="M325.653 264.67C325.472 264.76 325.05 264.91 324.507 264.91C323.301 264.91 322.507 264.06 322.507 262.78C322.507 261.5 323.361 260.55 324.658 260.55C325.13 260.55 325.502 260.69 325.663 260.77L325.502 261.28C325.321 261.18 325.05 261.07 324.638 261.07C323.663 261.07 323.16 261.84 323.16 262.74C323.16 263.75 323.773 264.39 324.617 264.39C325.04 264.39 325.321 264.27 325.532 264.18L325.653 264.67Z" fill="#617462"/>
<path d="M332.276 264.82H331.643V262.4C331.643 261.59 331.352 261.07 330.718 261.07C330.206 261.07 329.733 261.55 329.733 262.19V264.82H329.1V262.24C329.1 261.57 328.819 261.07 328.216 261.07C327.673 261.07 327.18 261.61 327.18 262.26V264.82H326.547V261.71C326.547 261.28 326.537 260.97 326.517 260.63H327.08L327.12 261.3H327.14C327.371 260.89 327.753 260.53 328.417 260.53C328.959 260.53 329.392 260.87 329.563 261.37H329.583C329.864 260.87 330.286 260.53 330.929 260.53C331.442 260.53 332.266 260.86 332.266 262.3V264.82H332.276Z" fill="#617462"/>
<path d="M294.615 165.6V406.72" stroke="#899284" stroke-width="0.96" stroke-miterlimit="10"/>
<path d="M120.607 165.6H305.52" stroke="#899284" stroke-width="0.96" stroke-miterlimit="10"/>
<path d="M207.339 203.53H305.52" stroke="#899284" stroke-width="0.96" stroke-miterlimit="10"/>
<path d="M289.85 406.72H305.52" stroke="#899284" stroke-width="0.96" stroke-miterlimit="10"/>
<path d="M279.628 262.05H305.52" stroke="#899284" stroke-width="0.96" stroke-miterlimit="10"/>
<path d="M166.953 367.75H171.607V331.15H166.953V367.75Z" fill="#96BBA0" stroke="white" stroke-width="0.64" stroke-miterlimit="10"/>
<path d="M169.275 371.39H166.923C166.923 371.39 166.923 376.83 166.642 378.35C166.36 379.87 166.25 381.31 166.25 381.31H160.631C159.706 381.31 157.284 380.81 154.861 383.4C152.439 385.99 145.604 391.47 144.84 392.32C144.066 393.17 143.524 393.43 143.524 395.56V401.7C143.524 402.72 142.529 406.72 151.655 406.72H186.885C196.011 406.72 195.016 402.72 195.016 401.7V395.56C195.016 393.43 194.473 393.17 193.7 392.32C192.926 391.47 186.101 385.99 183.678 383.4C181.256 380.81 178.834 381.31 177.909 381.31H172.29C172.29 381.31 172.19 379.86 171.898 378.35C171.617 376.83 171.617 371.39 171.617 371.39H169.265H169.275Z" fill="#96BBA0" stroke="white" stroke-width="0.64" stroke-miterlimit="10"/>
<path d="M198.414 341.41H141.081C138.789 341.41 136.92 339.56 136.92 337.27V207.66C136.92 205.38 138.779 203.52 141.081 203.52H198.414C200.705 203.52 202.575 205.37 202.575 207.66L202.575 337.27C202.575 339.55 200.715 341.41 198.414 341.41Z" fill="#96BBA0" stroke="white" stroke-width="0.64" stroke-miterlimit="10"/>
<path d="M172.984 374.56H165.496C165.074 374.56 164.732 374.22 164.732 373.8V369.07C164.732 368.08 165.546 367.27 166.541 367.27H171.949C172.944 367.27 173.758 368.08 173.758 369.07V373.8C173.758 374.22 173.416 374.56 172.994 374.56H172.984Z" fill="#96BBA0" stroke="white" stroke-width="0.64" stroke-miterlimit="10"/>
<path d="M162.521 262.26C161.596 261.76 160.33 261.18 159.344 260.79V265.29H158.671V257.47L159.586 257.52C159.586 257.62 159.505 257.68 159.355 257.71V260.34L159.485 260.15C160.541 260.54 161.948 261.16 162.893 261.65L162.531 262.25L162.521 262.26Z" fill="white"/>
<path d="M164.461 260.92H172.019V261.56H164.812C164.762 261.65 164.641 261.71 164.521 261.73L164.471 260.92H164.461Z" fill="white"/>
<path d="M175.497 258.89C175.497 258.97 175.406 259.02 175.286 259.04C175.236 261.46 175.034 263.67 173.637 265.28C173.497 265.17 173.275 265.04 173.094 264.94C174.441 263.48 174.602 261.23 174.632 258.81L175.497 258.89ZM177.839 264.07C179.346 263.34 180.331 262.03 180.854 260.45C180.985 260.57 181.266 260.72 181.417 260.8C180.774 262.62 179.648 263.96 177.728 264.87C177.698 264.94 177.638 265.01 177.578 265.05L177.105 264.46L177.206 264.33V257.72L178.05 257.76C178.05 257.84 177.979 257.91 177.849 257.93V264.07H177.839Z" fill="white"/>
<path d="M164.099 273C164.099 273 164.049 273.08 163.988 273.1C163.657 274.22 163.204 275.24 162.661 276.08C163.053 276.31 163.496 276.58 163.827 276.83L163.445 277.42C163.124 277.17 162.661 276.87 162.279 276.64C161.445 277.79 160.38 278.72 159.013 279.38C158.912 279.23 158.681 279.01 158.51 278.91C159.827 278.3 160.892 277.39 161.717 276.32C161.043 275.95 160.39 275.64 159.717 275.38L160.058 274.88C160.721 275.11 161.395 275.42 162.099 275.79C162.571 275.05 162.943 274.27 163.194 273.4H160.129C159.576 274.32 158.832 275.23 158.038 275.88C157.917 275.77 157.676 275.57 157.525 275.48C158.711 274.58 159.827 272.96 160.38 271.42L161.244 271.62C161.204 271.72 161.113 271.75 161.003 271.74C160.882 272.04 160.671 272.48 160.5 272.81H163.506L163.636 272.77L164.129 273.01L164.099 273Z" fill="white"/>
<path d="M172.27 272.05C172.27 272.05 172.18 272.12 172.099 272.12C172.069 272.12 172.049 272.12 172.009 272.12C171.316 272.82 170.31 273.64 169.426 274.27C169.496 274.3 169.607 274.35 169.647 274.37C169.627 274.42 169.547 274.48 169.446 274.49V279.32H168.783V274.69C167.818 275.37 166.571 276.09 165.335 276.7C165.244 276.56 165.084 276.33 164.953 276.21C167.426 275.08 170.129 273.15 171.587 271.55L172.26 272.05H172.27Z" fill="white"/>
<path d="M173.557 272.56H179.316L179.367 272.53L179.98 273C179.98 273 179.929 273.06 179.869 273.08C179.135 276.46 177.568 278.23 174.793 279.27C174.693 279.11 174.512 278.87 174.381 278.74C177.015 277.78 178.532 276.1 179.125 273.18H173.557V272.56ZM180.452 270.95C180.995 270.95 181.437 271.39 181.437 271.94C181.437 272.49 180.995 272.92 180.452 272.92C179.909 272.92 179.457 272.48 179.457 271.94C179.457 271.37 179.919 270.95 180.452 270.95ZM181.136 271.94C181.136 271.55 180.824 271.25 180.452 271.25C180.08 271.25 179.759 271.56 179.759 271.94C179.759 272.32 180.08 272.63 180.452 272.63C180.854 272.63 181.136 272.3 181.136 271.94Z" fill="white"/>
<path d="M240.82 367.75H245.474V335.51H240.82V367.75Z" fill="#96BBA0" stroke="white" stroke-width="0.64" stroke-miterlimit="10"/>
<path d="M243.142 371.39H240.79C240.79 371.39 240.79 376.83 240.508 378.35C240.227 379.87 240.117 381.31 240.117 381.31H234.498C233.573 381.31 231.151 380.81 228.728 383.4C226.306 385.99 219.471 391.47 218.707 392.32C217.933 393.17 217.391 393.43 217.391 395.56V401.7C217.391 402.72 216.396 406.72 225.522 406.72H260.752C269.878 406.72 268.883 402.72 268.883 401.7V395.56C268.883 393.43 268.34 393.17 267.566 392.32C266.792 391.47 259.968 385.99 257.545 383.4C255.123 380.81 252.701 381.31 251.776 381.31H246.157C246.157 381.31 246.057 379.86 245.765 378.35C245.484 376.83 245.484 371.39 245.484 371.39H243.132H243.142Z" fill="#96BBA0" stroke="white" stroke-width="0.64" stroke-miterlimit="10"/>
<path d="M216.305 345.76H270.914C273.156 345.76 274.974 343.951 274.974 341.72V265.62C274.974 263.389 273.156 261.58 270.914 261.58H216.305C214.062 261.58 212.244 263.389 212.244 265.62V341.72C212.244 343.951 214.062 345.76 216.305 345.76Z" fill="#96BBA0" stroke="white" stroke-width="0.64" stroke-miterlimit="10"/>
<path d="M246.851 374.56H239.362C238.94 374.56 238.598 374.22 238.598 373.8V369.07C238.598 368.08 239.413 367.27 240.408 367.27H245.815C246.81 367.27 247.625 368.08 247.625 369.07V373.8C247.625 374.22 247.283 374.56 246.861 374.56H246.851Z" fill="#96BBA0" stroke="white" stroke-width="0.64" stroke-miterlimit="10"/>
<path d="M233.895 293.36C233.854 293.45 233.754 293.48 233.643 293.47C232.266 296.85 230.035 299.24 227.522 300.64C227.412 300.51 227.201 300.29 227.02 300.16C229.482 298.81 231.724 296.49 233.02 293.02L233.905 293.35L233.895 293.36Z" fill="white"/>
<path d="M234.387 296.32H241.946V296.96H234.739C234.689 297.05 234.568 297.11 234.448 297.13L234.397 296.32H234.387Z" fill="white"/>
<path d="M250.148 294.35C250.148 294.35 250.077 294.42 250.017 294.44C249.173 295.72 247.756 297.06 246.358 298.06C247.052 298.62 247.755 299.31 248.218 299.82L247.665 300.3C246.71 299.19 244.931 297.71 243.403 296.82L243.836 296.36C244.479 296.72 245.202 297.2 245.856 297.69C247.082 296.82 248.318 295.66 249.032 294.62H242.388V294.01H249.504L249.615 293.96L250.148 294.36V294.35Z" fill="white"/>
<path d="M253.203 294.29C253.203 294.37 253.113 294.42 252.992 294.44C252.942 296.86 252.741 299.07 251.344 300.68C251.203 300.57 250.982 300.44 250.801 300.34C252.148 298.88 252.309 296.63 252.339 294.21L253.203 294.29ZM255.545 299.47C257.053 298.74 258.038 297.43 258.561 295.85C258.701 295.97 258.973 296.12 259.124 296.2C258.48 298.02 257.355 299.36 255.435 300.27C255.405 300.34 255.344 300.41 255.284 300.45L254.811 299.86L254.912 299.73V293.12L255.756 293.16C255.756 293.24 255.686 293.31 255.555 293.33V299.47H255.545Z" fill="white"/>
<path d="M237.955 308.39C237.955 308.39 237.905 308.47 237.845 308.49C237.513 309.61 237.061 310.63 236.518 311.47C236.91 311.69 237.352 311.97 237.684 312.22L237.302 312.81C236.981 312.56 236.518 312.26 236.136 312.03C235.302 313.18 234.236 314.11 232.869 314.77C232.769 314.62 232.538 314.4 232.367 314.3C233.684 313.69 234.749 312.78 235.573 311.71C234.9 311.34 234.247 311.03 233.573 310.77L233.915 310.27C234.578 310.5 235.252 310.81 235.955 311.18C236.428 310.44 236.8 309.66 237.051 308.79H233.985C233.432 309.71 232.689 310.62 231.894 311.27C231.774 311.16 231.533 310.96 231.382 310.86C232.568 309.96 233.694 308.34 234.236 306.8L235.091 307C235.051 307.1 234.96 307.12 234.85 307.12C234.719 307.42 234.518 307.86 234.347 308.19H237.352L237.483 308.15L237.976 308.39H237.955Z" fill="white"/>
<path d="M246.137 307.45C246.137 307.45 246.047 307.52 245.966 307.52C245.936 307.52 245.916 307.52 245.876 307.52C245.183 308.22 244.177 309.04 243.293 309.67C243.363 309.7 243.474 309.75 243.514 309.77C243.494 309.82 243.413 309.88 243.313 309.89V314.72H242.65V310.09C241.695 310.76 240.438 311.49 239.202 312.1C239.111 311.96 238.951 311.73 238.82 311.6C241.293 310.47 243.996 308.54 245.454 306.95L246.137 307.45Z" fill="white"/>
<path d="M247.414 307.96H253.173L253.223 307.93L253.837 308.4C253.837 308.4 253.786 308.46 253.726 308.48C252.992 311.87 251.424 313.63 248.65 314.67C248.55 314.51 248.369 314.27 248.238 314.14C250.871 313.18 252.389 311.5 252.982 308.58H247.404V307.96H247.414ZM254.309 306.35C254.852 306.35 255.294 306.79 255.294 307.34C255.294 307.89 254.852 308.32 254.309 308.32C253.766 308.32 253.314 307.88 253.314 307.34C253.314 306.77 253.776 306.35 254.309 306.35ZM255.002 307.34C255.002 306.95 254.691 306.65 254.319 306.65C253.947 306.65 253.625 306.96 253.625 307.34C253.625 307.72 253.937 308.03 254.319 308.03C254.721 308.03 255.002 307.7 255.002 307.34Z" fill="white"/>
<path d="M96.7852 193.12H97.3481C97.5391 193.12 97.6396 193.26 97.6396 193.41C98.303 193.62 98.9361 193.82 99.5593 194.06C100.303 194.35 101.047 194.64 101.791 194.93L102.042 194.3C101.429 194.06 100.916 193.49 100.775 192.75C100.695 192.34 100.725 191.91 100.705 191.47C100.263 191.44 99.8306 191.47 99.4386 191.36C99.4285 191.36 99.4086 191.36 99.3986 191.34C98.5442 191.94 97.6496 192.51 96.7852 193.11V193.12Z" fill="white"/>
<path d="M84.3616 360.15C83.2459 361.73 82.1503 363.25 81.105 364.8C78.7329 368.31 76.3811 371.83 74.019 375.34C72.25 377.96 70.491 380.59 68.722 383.21C68.129 384.09 67.5359 384.98 66.9228 385.86C66.6815 386.21 66.6211 386.57 66.8523 386.91C67.2443 387.46 67.3349 388.09 67.4253 388.73C67.5761 389.84 67.7268 390.96 67.8575 392.07L69.4658 391.89C69.2949 390.32 69.1139 388.75 68.923 387.18C68.8626 386.66 68.923 386.24 69.1944 385.82C69.5663 385.23 69.9078 384.62 70.2898 384.04C73.2851 379.59 76.2906 375.14 79.2959 370.71C80.8338 368.45 82.3916 366.2 83.9496 363.95C84.6833 362.89 85.4975 361.9 86.5328 361.03C86.7841 361.07 87.0555 361.06 87.2967 361.15C90.2317 362.22 93.2068 363.12 96.2322 363.89L96.5942 362.5C91.3474 361.15 86.3017 359.24 81.5474 356.56C80.1 355.74 78.6425 354.94 77.1951 354.11C76.3609 353.63 75.5468 353.11 74.8031 352.36C75.0644 351.86 75.3056 351.4 75.5468 350.94C77.8888 346.54 80.2408 342.14 82.5827 337.74C83.3064 336.38 83.6278 334.95 83.6077 333.41C83.5675 330.36 83.6079 327.3 83.5677 324.25C83.5175 320.71 83.7586 317.18 83.9898 313.65C84.1908 310.49 84.3718 307.34 84.5729 304.18C84.6131 303.55 84.5729 302.91 84.8342 302.24C85.1056 302.29 85.3166 302.29 85.4975 302.37C87.1359 303.04 88.7741 303.73 90.4125 304.41C90.6135 304.49 90.8447 304.55 90.9855 304.69C91.7092 305.41 92.5936 305.23 93.4178 305.04C94.2822 304.83 94.9256 304.26 95.3176 303.42C95.9609 302.04 96.2221 300.56 96.4734 299.09C96.9056 296.45 97.3177 293.8 97.7097 291.15C97.8605 290.15 97.941 289.13 98.0314 288.11C98.0515 287.85 97.9914 287.58 97.921 287.33C97.8808 287.19 97.7702 286.98 97.6496 286.95C97.0365 286.78 96.795 286.24 96.4432 285.77C96.202 285.45 95.9105 285.16 95.4281 285.05C93.4982 284.64 91.6388 283.88 89.7492 283.26C89.0355 283.03 88.332 282.77 87.548 282.5C87.538 282.19 87.4575 281.87 87.5178 281.58C88.6034 276.5 89.488 271.38 91.1263 266.44C91.6992 264.71 92.3927 263.03 93.0158 261.32C93.1566 260.92 93.3074 260.51 93.3376 260.09C93.4984 257.95 93.629 255.81 93.7496 253.67C93.7697 253.2 93.7095 252.71 93.619 252.24C93.5989 252.16 93.5787 252.09 93.5385 252.02C93.3375 252.38 93.1768 252.76 93.1265 253.17C93.1265 253.25 93.1164 253.32 93.1064 253.39C93.0963 253.77 92.4932 253.78 92.5032 253.39C92.5133 252.86 92.6138 252.34 92.7646 251.83C92.7847 251.75 92.8149 251.65 92.8451 251.56C92.7847 251.56 92.7243 251.56 92.664 251.56C92.3122 251.62 92.0207 251.94 91.9805 252.34C91.9604 252.5 91.9805 252.66 91.9805 252.82C91.87 254.96 91.7696 257.1 91.6289 259.23C91.5987 259.7 91.468 260.19 91.2871 260.62C89.3974 265.19 88.1409 269.95 87.1357 274.78C86.6633 277.03 86.2615 279.29 85.7991 281.7C85.4573 281.65 85.2262 281.65 85.0352 281.57L84.5326 282.93C88.3622 284.34 92.1816 285.74 96.001 287.14C96.0815 289.26 95.8302 291.27 95.5287 293.28C95.2271 295.24 94.9458 297.2 94.594 299.15C94.413 300.15 94.1316 301.13 93.8401 302.1C93.6692 302.67 93.3777 303.2 92.4831 303.36C90.9754 302.75 89.2869 302.07 87.6084 301.39C85.2664 300.45 82.9245 299.49 80.5825 298.56C80.0398 298.34 79.4566 298.19 78.8937 298.05C78.8837 298.05 78.8635 298.05 78.8434 298.05C79.0043 298.21 78.9339 298.57 78.6324 298.57H78.16C78.16 298.8 78.2605 299.13 78.4214 299.22C79.0646 299.6 79.7481 299.92 80.4316 300.23C81.2558 300.6 82.1001 300.94 82.9444 301.3C82.9545 302.89 82.653 304.37 82.4821 305.84C82.1404 308.82 81.8086 311.79 81.6277 314.79C81.2759 320.74 81.3663 326.68 81.3864 332.63C81.3864 334.4 80.9844 335.99 80.1401 337.54C78.5218 340.5 76.9841 343.51 75.4362 346.51C74.823 347.7 74.24 348.91 73.6571 350.11C73.4259 350.59 73.2449 351.05 72.5715 351.15C72.1493 351.21 72.0287 351.62 72.1192 352.03C72.1996 352.44 72.2901 352.85 72.3705 353.27C72.471 353.85 72.672 354.01 73.3655 354.05C73.4761 354.05 73.5767 354 73.6873 354.01C73.7878 354.02 73.8781 354.09 74.0791 354.18C74.0188 354.44 73.9988 354.75 73.8882 355.01C70.8628 362.39 67.8172 369.77 64.7918 377.15C64.4299 378.04 64.1485 378.96 63.7967 379.97C62.7614 380.93 61.4146 381.56 60.0677 382.23C59.1631 382.68 58.2986 383.25 57.4744 383.84C56.7809 384.33 56.4193 385.03 56.4595 385.91C56.5901 388.91 55.414 391.43 53.6149 393.74C53.3234 394.12 53.0016 394.49 52.7504 394.9C52.5694 395.19 52.6097 395.52 52.8409 395.79C53.0721 396.07 53.5646 396.21 53.8662 396C54.1677 395.79 54.4492 395.53 54.6804 395.24C56.369 393.17 57.575 390.86 58.0575 388.22C58.0977 387.98 58.1579 387.74 58.2283 387.36C58.9218 387.77 59.2838 388.3 59.6255 388.82L61.1433 388.03C60.8015 387.53 60.4396 387.04 60.0577 386.56C59.726 386.14 59.4144 385.71 59.0726 385.25C59.5752 384.61 60.2588 384.29 60.9222 383.95C61.7363 383.53 62.5705 383.16 63.3746 382.74C64.0581 382.39 64.6511 381.95 64.832 381.13C64.8722 380.95 65.0231 380.72 65.1839 380.66C65.7669 380.43 65.9377 379.93 66.1186 379.42C66.3196 378.87 66.5006 378.31 66.7117 377.76C69.4859 370.39 72.7323 363.22 75.8482 355.99C75.8984 355.86 76.0191 355.77 76.1498 355.61C77.2554 356.24 78.3108 356.88 79.3963 357.45C81.0146 358.29 82.653 359.09 84.2813 359.91C84.3215 359.93 84.3516 359.99 84.3817 360.03C84.3817 360.04 84.3918 360.06 84.4018 360.07L84.3616 360.15Z" fill="#617462"/>
<path d="M64.2189 395.22C64.3697 395.92 64.6912 396.38 65.4049 396.58C66.2592 396.82 67.0934 397.22 68.0382 397.09C68.0985 396.86 68.179 396.71 68.169 396.56C68.1187 395.44 68.0987 394.31 67.9881 393.19C67.9479 392.82 67.9076 392.44 67.8674 392.07L69.4757 391.89C69.6968 393.83 69.9078 395.77 70.1189 397.71C70.7622 398.28 71.4458 398.8 72.0187 399.43C72.5916 400.06 73.0437 400.81 73.5664 401.48C74.4308 402.57 75.3154 403.65 76.1899 404.74C76.4211 405.03 76.6823 405.31 76.8834 405.63C77.2452 406.21 76.823 406.99 76.1094 407.02C75.7978 407.03 75.4762 406.95 75.1646 406.88C72.6418 406.33 70.1692 405.62 67.7167 404.81C66.2894 404.34 64.9325 403.66 63.4248 403.45C63.0529 403.4 62.7915 403 62.7915 402.61C62.7915 402.45 62.8518 402.29 62.8518 402.14C62.9021 400.96 63.0329 399.78 62.9625 398.61C62.8921 397.45 62.671 396.3 62.4197 395.16C61.9272 392.88 60.8617 390.83 59.5952 388.89L61.113 388.1C62.5805 390.26 63.656 392.62 64.2189 395.21V395.22ZM67.1035 402.76C68.9831 403.37 70.8729 403.94 72.7726 404.51C72.9635 404.57 73.1846 404.51 73.7173 404.51C72.5614 402.97 71.6165 401.62 70.5611 400.36C69.9882 399.67 69.1741 399.35 68.3599 399.1C67.2945 398.77 66.189 398.59 64.9929 398.32C64.6913 399.53 64.9223 400.68 64.7916 401.86C65.6259 402.18 66.3497 402.51 67.1136 402.75L67.1035 402.76Z" fill="#617462"/>
<path d="M59.0525 385.33C59.3942 385.79 59.7058 386.22 60.0375 386.64C60.4194 387.12 60.7814 387.61 61.1231 388.11C62.5906 390.27 63.6662 392.63 64.229 395.22C64.3798 395.92 64.7014 396.38 65.415 396.58C66.2694 396.82 67.1035 397.22 68.0483 397.09C68.1086 396.86 68.1892 396.71 68.1791 396.56C68.1289 395.44 68.1088 394.31 67.9983 393.19C67.9581 392.82 67.9177 392.44 67.8775 392.07C67.7469 390.95 67.5861 389.84 67.4454 388.73C67.365 388.09 67.2745 387.46 66.8724 386.91C66.6312 386.57 66.7016 386.21 66.9428 385.86C67.5459 384.98 68.139 384.1 68.7421 383.21C70.5111 380.59 72.2801 377.96 74.0391 375.34C76.4012 371.83 78.753 368.3 81.1251 364.8C82.1704 363.25 83.276 361.73 84.3817 360.15C84.3817 360.15 84.3716 360.13 84.3615 360.11C84.3314 360.07 84.3014 360.01 84.2612 359.99C82.6329 359.17 80.9944 358.37 79.3762 357.53C78.2806 356.96 77.2352 356.32 76.1296 355.69C75.9989 355.85 75.8883 355.94 75.828 356.07C72.7121 363.3 69.4758 370.47 66.6916 377.84C66.4805 378.39 66.2995 378.95 66.0984 379.5C65.9175 380 65.7467 380.51 65.1637 380.74C65.0029 380.8 64.8521 381.03 64.8119 381.21C64.641 382.04 64.048 382.47 63.3545 382.82C62.5403 383.23 61.7162 383.61 60.902 384.03C60.2386 384.37 59.5551 384.69 59.0525 385.33Z" fill="white"/>
<path d="M68.5109 279.38C68.8928 278.75 69.4758 278.22 70.0286 277.73C70.3301 277.47 70.7824 277.33 71.1844 277.26C71.3553 277.23 71.6167 277.42 71.7775 277.6C71.7474 277.6 71.7272 277.6 71.697 277.6C71.4457 277.62 71.2044 277.73 71.124 277.98C71.0537 278.21 71.2145 278.44 71.3653 278.61C71.1642 278.66 70.9232 278.71 70.7623 278.85C70.6317 278.97 70.6316 279.1 70.712 279.2C70.1089 279.8 69.6063 280.49 69.1641 281.23C67.4453 284.07 65.6965 286.9 63.9777 289.75C63.6561 290.29 63.2639 290.82 63.284 291.61C64.7012 292.66 66.3698 293.17 68.1288 293.75C68.2393 293.22 68.3499 292.82 68.4102 292.41C68.9329 288.99 69.8778 285.72 71.7876 282.78C72.0188 282.43 72.2097 282.02 72.2801 281.61C72.451 280.71 72.6118 279.8 72.7726 278.9C72.9435 278.86 73.1143 278.82 73.2752 278.78C73.4058 278.75 73.4761 278.66 73.4862 278.56L74.24 278.7C74.1094 279.45 73.9786 280.2 73.8378 280.95C73.7876 281.2 73.7877 281.46 73.7475 281.92C74.7326 282.16 75.607 282.38 76.5116 282.6L76.2 283.85C76.0693 283.82 75.9287 283.79 75.7779 283.78C74.9336 283.69 74.1193 283.4 73.3353 283.21C71.4255 285.34 69.6265 290.52 69.7673 293.41C69.918 293.38 70.0587 293.34 70.1994 293.32C70.8527 293.24 71.1643 293.44 71.1945 294.01C71.2246 294.6 71.1743 295.19 71.1643 295.77C71.1643 296.08 71.1643 296.4 71.1643 296.64C71.5764 296.91 71.8075 296.76 71.8678 296.48C71.9482 296.12 71.9081 295.74 71.9282 295.36C71.9382 295.1 71.9584 294.83 71.9986 294.56C72.0489 294.25 72.4408 293.93 72.6921 294.05C72.9032 294.15 73.1746 294.37 73.2047 294.57C73.2851 295.04 73.2249 295.53 73.245 296.01C73.2651 296.46 73.1544 296.93 73.3554 297.37C73.8178 297.18 73.7476 296.83 73.7878 296.53C73.8481 296.11 73.848 295.68 73.9083 295.25C73.9686 294.78 74.26 294.51 74.6319 294.57C75.0139 294.63 75.1848 294.9 75.1747 295.25C75.1647 296.05 75.1143 296.85 75.0641 297.65C75.0138 298.51 74.9335 299.36 74.8731 300.21C74.8731 300.4 74.9033 300.59 75.1244 300.8C75.2551 300.47 75.416 300.15 75.5065 299.81C75.6673 299.25 75.818 298.69 75.9588 298.13L76.2201 298.19C76.1598 298.37 76.2503 298.6 76.4915 298.6H77.1045C76.8231 299.68 76.5317 300.75 76.2 301.82C76.0291 302.37 75.7275 302.89 75.416 303.39C75.1647 303.79 74.6723 303.93 74.2903 303.8C73.8983 303.66 73.6972 303.35 73.6268 302.96C73.5665 302.65 73.5465 302.32 73.5365 302C73.5164 301.58 73.5365 301.15 73.5365 300.77C73.1344 300.6 72.7523 300.56 72.5714 300.34C72.2397 299.96 72.0288 299.47 71.7272 298.97C70.5713 299.5 70.0587 298.8 69.727 297.78C68.742 297.87 68.36 297.28 68.2093 296.46C68.1389 296.05 68.0786 295.63 68.0083 295.22C67.2444 294.94 66.5406 294.69 65.8371 294.43C65.1335 294.17 64.42 293.93 63.7264 293.64C61.5051 292.71 61.0626 291.67 62.2487 289.66C64.279 286.19 66.39 282.76 68.5109 279.35V279.38ZM69.6264 295.66V294.36H69.5059V295.66C69.5059 295.66 69.5862 295.66 69.6264 295.66Z" fill="#617462"/>
<path d="M63.9777 289.75C63.656 290.29 63.2638 290.82 63.2839 291.61C64.7012 292.66 66.3698 293.17 68.1287 293.75C68.2393 293.22 68.3499 292.82 68.4102 292.41C68.9329 288.99 69.8778 285.72 71.7875 282.78C72.0187 282.43 72.2097 282.02 72.28 281.61C72.4509 280.71 72.6117 279.8 72.7725 278.9C72.6117 278.94 72.4509 278.98 72.2901 279.01C72.0589 279.06 71.8175 279.12 71.5863 279.19C71.5059 279.21 71.4154 279.24 71.335 279.26C71.2848 279.34 71.2144 279.4 71.0938 279.39C70.9631 279.39 70.8125 279.31 70.7422 279.2C70.1391 279.8 69.6365 280.49 69.1942 281.23C67.4755 284.07 65.7264 286.9 64.0076 289.75H63.9777Z" fill="#F7DDC0"/>
<path d="M64.983 398.33C64.6814 399.54 64.9124 400.69 64.7817 401.87C65.616 402.19 66.3397 402.52 67.1036 402.76C68.9832 403.37 70.873 403.94 72.7727 404.51C72.9637 404.57 73.1847 404.51 73.7175 404.51C72.5616 402.97 71.6166 401.62 70.5612 400.36C69.9883 399.67 69.1742 399.35 68.3601 399.1C67.2946 398.77 66.1891 398.59 64.993 398.32L64.983 398.33Z" fill="#617462"/>
<path d="M73.3253 283.21C71.4155 285.34 69.6165 290.52 69.7573 293.41C69.908 293.38 70.0487 293.34 70.1894 293.32C70.8427 293.24 71.1543 293.44 71.1845 294.01C71.2146 294.6 71.1643 295.19 71.1543 295.77C71.1543 296.08 71.1543 296.4 71.1543 296.64C71.5664 296.91 71.7975 296.76 71.8578 296.48C71.9382 296.12 71.8981 295.74 71.9182 295.36C71.9282 295.1 71.9484 294.83 71.9886 294.56C72.0389 294.25 72.4308 293.93 72.6821 294.05C72.8932 294.15 73.1646 294.37 73.1947 294.57C73.2751 295.04 73.2149 295.53 73.235 296.01C73.2551 296.46 73.1444 296.93 73.3454 297.37C73.8077 297.18 73.7376 296.83 73.7778 296.53C73.8381 296.11 73.838 295.68 73.8983 295.25C73.9586 294.78 74.25 294.51 74.6219 294.57C75.0039 294.63 75.1748 294.9 75.1647 295.25C75.1547 296.05 75.1046 296.85 75.0543 297.65C75.004 298.51 74.9234 299.36 74.8631 300.21C74.8631 300.4 74.8933 300.59 75.1144 300.8C75.2451 300.47 75.406 300.15 75.4965 299.81C75.6573 299.25 75.808 298.69 75.9488 298.13C76.4614 296.04 76.8232 293.93 76.9639 291.77C76.9841 291.39 76.9739 291.01 77.0744 290.65C77.1347 290.43 77.3359 290.14 77.5369 290.08C77.738 290.02 78.0897 290.13 78.2505 290.28C78.5119 290.53 78.7128 290.86 78.8635 291.2C79.1751 291.88 79.4164 292.59 79.7079 293.28C79.7883 293.46 79.929 293.62 80.1904 294.01C80.2205 293.57 80.2708 293.39 80.2407 293.22C79.8688 290.55 78.9843 288.03 77.9892 285.54C77.6374 284.67 77.0946 284.03 76.1699 283.81C76.0392 283.78 75.8986 283.75 75.7478 283.74C74.9035 283.65 74.0891 283.36 73.3051 283.17L73.3253 283.21Z" fill="white"/>
<path d="M70.7724 278.85C70.6418 278.97 70.6417 279.1 70.7221 279.2C70.9232 278.99 71.1442 278.79 71.3854 278.61C71.1844 278.66 70.9433 278.71 70.7825 278.85H70.7724Z" fill="#617462"/>
<path d="M70.712 279.2C70.7924 279.31 70.933 279.39 71.0637 279.39C71.1843 279.39 71.2647 279.34 71.3049 279.26C71.3853 279.24 71.4758 279.21 71.5562 279.19C71.7873 279.13 72.0288 279.07 72.26 279.01C72.4208 278.97 72.5816 278.93 72.7424 278.9C72.7725 278.73 72.8025 278.55 72.8327 278.38C72.7623 278.35 72.692 278.33 72.6217 278.31C72.4005 278.36 72.1694 278.41 71.9483 278.47C71.9684 278.71 71.6568 278.93 71.4357 278.71C71.4055 278.68 71.3853 278.65 71.3552 278.62C71.124 278.8 70.903 279 70.6919 279.21L70.712 279.2Z" fill="white"/>
<path d="M71.1342 277.98C71.0639 278.21 71.2247 278.44 71.3754 278.61C71.3955 278.59 71.4258 278.57 71.4459 278.55C71.5263 278.49 71.6268 278.43 71.6972 278.35C71.7374 278.3 71.7774 278.25 71.8176 278.2C71.8176 278.2 71.8176 278.2 71.7975 278.19H71.8176C71.9282 278.02 71.9684 277.82 71.8176 277.64C71.8076 277.63 71.7877 277.61 71.7776 277.59C71.7475 277.59 71.7273 277.59 71.6972 277.59C71.4459 277.61 71.2046 277.72 71.1242 277.97L71.1342 277.98Z" fill="#617462"/>
<path d="M71.3755 278.62C71.3755 278.62 71.3956 278.62 71.4057 278.62C71.5966 278.57 71.7776 278.52 71.9686 278.48C71.9686 278.42 71.9484 278.35 71.8881 278.29C71.868 278.27 71.8378 278.24 71.8177 278.22C71.7775 278.27 71.7374 278.32 71.6972 278.37C71.6268 278.45 71.5263 278.51 71.4459 278.57C71.4258 278.59 71.3956 278.61 71.3755 278.63V278.62Z" fill="#F7DDC0"/>
<path d="M71.4057 278.61C71.4057 278.61 71.3855 278.61 71.3755 278.61C71.4056 278.64 71.4258 278.67 71.456 278.7C71.6671 278.92 71.9887 278.7 71.9686 278.46C71.7776 278.51 71.5966 278.55 71.4057 278.6V278.61Z" fill="#F7DDC0"/>
<path d="M71.7876 277.59C71.7876 277.59 71.8176 277.62 71.8276 277.64C71.9784 277.82 71.9382 278.02 71.8276 278.19C71.9081 278.19 71.9887 278.19 72.0389 278.19C72.24 278.21 72.4408 278.24 72.6419 278.3C72.7223 278.28 72.7926 278.27 72.873 278.25C72.9032 278.09 72.9234 277.93 72.9535 277.77C72.5816 277.64 72.1595 277.56 71.7776 277.59H71.7876Z" fill="#F7DDC0"/>
<path d="M71.7974 278.19C71.7974 278.19 71.7974 278.19 71.8174 278.2C71.8174 278.2 71.8174 278.2 71.8174 278.19H71.7974Z" fill="#617462"/>
<path d="M72.873 278.25C72.7926 278.27 72.7122 278.28 72.6418 278.3C72.7122 278.32 72.7825 278.34 72.8529 278.37C72.8529 278.33 72.863 278.29 72.873 278.25Z" fill="#F7DDC0"/>
<path d="M72.853 278.37C72.8228 278.54 72.7928 278.72 72.7627 278.89C72.9336 278.85 73.1044 278.81 73.2653 278.77C73.3959 278.74 73.4662 278.65 73.4763 278.55C73.4863 278.48 73.4762 278.4 73.426 278.33C73.3456 278.44 73.1949 278.51 73.0341 278.44C72.9738 278.41 72.9133 278.39 72.853 278.36V278.37Z" fill="#617462"/>
<path d="M72.8729 278.25C72.8729 278.25 72.8628 278.33 72.8528 278.37C72.9131 278.39 72.9736 278.42 73.0339 278.45C73.1947 278.53 73.3454 278.45 73.4258 278.34C73.3655 278.24 73.2548 278.17 73.1041 278.2C73.0237 278.22 72.9533 278.23 72.8729 278.25Z" fill="#617462"/>
<path d="M72.9535 277.77C72.9234 277.93 72.8931 278.09 72.873 278.25C72.9535 278.23 73.0238 278.22 73.1042 278.2C73.255 278.17 73.3757 278.24 73.4259 278.34C73.5264 278.21 73.5263 278.02 73.3354 277.93C73.2148 277.87 73.0943 277.82 72.9535 277.77Z" fill="#617462"/>
<path d="M72.9535 277.77C73.0842 277.82 73.2147 277.87 73.3354 277.93C73.5263 278.02 73.5264 278.21 73.4259 278.34C73.4661 278.41 73.4863 278.48 73.4762 278.56L74.2301 278.7C74.602 276.6 74.9738 274.51 75.4261 272.44C76.6524 266.8 77.9993 261.18 79.2356 255.53C80.5121 249.67 81.7282 243.81 82.9444 237.94C84.3818 231.03 85.789 224.11 87.2364 217.19C87.558 215.67 87.8797 214.15 88.5632 212.74C88.8647 212.12 89.2365 211.52 89.6586 210.98C90.2617 210.23 91.0357 210.01 91.9503 210.44C92.1413 210.53 92.3525 210.64 92.5535 210.64C93.3878 210.61 93.8601 211.14 94.2018 211.74C94.6139 212.48 94.9657 213.28 95.217 214.09C95.5186 215.06 95.6997 216.06 95.9107 217.06C96.554 220.11 96.6444 223.22 96.8052 226.32C97.157 233.01 97.1872 239.7 97.147 246.4C97.147 247.31 97.1168 248.22 97.0665 249.13C97.0565 249.42 96.9359 249.72 96.8555 250.03C96.3831 249.95 96.0112 249.9 95.6494 249.82C94.7046 249.61 94.0211 249.14 93.5989 248.21C93.036 246.94 92.3524 245.72 91.6991 244.49C91.1261 243.4 91.1162 243.4 90.0105 242.89C90.0206 242.7 90.0106 242.48 90.0608 242.29C91.0961 238.42 91.7896 234.45 93.046 230.63C93.2772 229.92 93.4582 229.19 93.619 228.46C93.6894 228.14 93.5787 227.82 93.2168 227.68C92.855 227.54 92.4228 227.66 92.2318 228C92.1112 228.23 92.0308 228.49 91.9503 228.74C91.7393 229.46 91.5283 230.18 91.3374 230.9C90.1614 235.18 88.9452 239.45 87.8295 243.75C86.7339 247.94 85.8894 252.19 84.6833 256.36C82.2408 264.84 79.4668 273.23 77.3058 281.8C77.2354 282.09 77.0644 282.36 76.9137 282.71C76.773 282.68 76.6424 282.64 76.5017 282.61L76.19 283.86C77.1147 284.09 77.6576 284.72 78.0093 285.59C79.0044 288.08 79.8889 290.6 80.2608 293.27C80.2809 293.44 80.2407 293.62 80.2105 294.06C79.9492 293.66 79.7984 293.51 79.7281 293.33C79.4366 292.64 79.1852 291.93 78.8837 291.25C78.7329 290.92 78.532 290.58 78.2707 290.33C78.0998 290.17 77.7581 290.07 77.5571 290.13C77.3561 290.19 77.1548 290.48 77.0945 290.7C76.994 291.05 77.0143 291.44 76.9841 291.82C76.8434 293.98 76.4916 296.09 75.9689 298.18L76.2303 298.24C76.2705 298.13 76.3609 298.05 76.5017 298.05H77.2656C77.3259 297.83 77.376 297.6 77.4364 297.38C77.6776 296.39 77.8284 295.38 78.0295 294.39C78.0697 294.21 78.1299 294.03 78.2405 293.65C78.6024 294.29 78.8636 294.74 79.135 295.2C79.4365 295.7 79.8587 295.99 80.4719 295.89C81.0146 295.8 81.3564 295.43 81.4669 294.95C81.5976 294.38 81.6477 293.78 81.6075 293.21C81.5472 292.52 81.3966 291.83 81.2056 291.17C80.502 288.7 79.8084 286.22 78.6324 283.92C78.4917 283.66 78.4214 283.29 78.4918 283.01C78.6627 282.35 78.7832 281.65 79.2155 281.06C80.9945 281.72 82.7636 282.37 84.5427 283.02L85.0452 281.66C83.2963 280.99 81.5473 280.3 79.8687 279.65C79.5571 279.13 79.8084 278.74 79.9291 278.34C82.0499 271.15 84.2009 263.97 86.2815 256.77C87.2867 253.27 88.1511 249.74 89.0758 246.22C89.2266 245.65 89.3773 245.09 89.5683 244.37C89.8196 244.63 90.0506 244.77 90.1511 244.97C90.8748 246.4 91.6288 247.83 92.262 249.3C92.5635 250.01 92.9958 250.53 93.5486 250.91C93.6692 250.69 93.7798 250.47 93.8703 250.22C94.001 249.86 94.5838 250.02 94.4531 250.38C94.3526 250.66 94.212 250.93 94.0612 251.19C94.2622 251.29 94.4833 251.37 94.7145 251.45C95.4281 251.67 96.1417 251.88 96.9257 252.12C96.9257 252.61 96.9257 253.03 96.9257 253.45C96.8252 257.36 96.6847 261.27 96.6445 265.18C96.5942 271.07 96.6243 276.97 96.6243 282.86C96.6243 283.23 96.6443 283.61 96.7046 283.98C96.8051 284.58 97.1269 284.9 97.5892 284.9H97.6295C98.1119 284.88 98.4334 284.52 98.4636 283.91C98.4736 283.53 98.4434 283.16 98.4434 282.78C98.363 278.71 98.1922 274.64 98.2123 270.57C98.2424 264.89 98.4134 259.21 98.5239 253.53C98.5239 253.22 98.5843 252.9 98.6245 252.52C98.9361 252.49 99.1872 252.43 99.4385 252.45C101.841 252.72 104.243 253.04 106.645 253.27C107.711 253.38 108.796 253.37 109.872 253.35C110.194 253.35 110.575 253.23 110.847 253.05C109.681 252.93 108.515 252.69 107.319 252.65C106.927 252.64 106.927 252.04 107.319 252.05C108.625 252.09 109.922 252.39 111.219 252.49C111.249 252.39 111.269 252.28 111.279 252.19C111.309 251.84 110.927 251.5 110.555 251.44C110.344 251.41 110.123 251.39 109.912 251.42C107.852 251.62 105.831 251.25 103.791 251.08C102.132 250.94 100.484 250.67 98.745 250.45C98.6948 250.07 98.6044 249.71 98.6145 249.35C98.8256 242.22 98.6949 235.1 98.3934 227.97C98.2225 223.75 97.931 219.52 97.147 215.35C97.0164 214.67 96.8956 213.98 96.7146 213.31C96.0714 210.92 95.3578 209.98 93.2269 208.66C95.2572 204.39 96.7549 199.96 96.2624 195C97.2977 195.02 98.1822 195.36 99.0667 195.67C100.936 196.33 102.806 197.02 104.685 197.66C105.54 197.95 106.434 198.17 107.429 198.45C107.228 198.79 107.078 199.05 106.947 199.3C106.434 200.26 106.163 201.28 106.173 202.38C106.173 203.78 106.233 205.18 106.424 206.57C106.505 206.36 106.826 206.26 106.957 206.52C107.309 207.2 107.731 207.82 108.203 208.4C108.203 208.35 108.214 208.29 108.214 208.24C108.214 207.81 108.113 207.39 108.073 206.97C107.942 205.58 107.791 204.2 107.701 202.82C107.631 201.79 107.852 200.82 108.425 199.9C108.806 199.28 109.048 198.57 109.369 197.86C109.168 197.65 109.017 197.41 108.796 197.29C108.726 197.25 108.656 197.21 108.585 197.18C108.364 197.09 108.123 197.02 107.892 196.97C105.771 196.51 103.761 195.74 101.76 194.95C101.017 194.66 100.273 194.36 99.5291 194.08C98.9059 193.84 98.2727 193.64 97.6093 193.43C97.6093 193.58 97.5188 193.74 97.3178 193.74H95.8101C95.6192 193.74 95.5186 193.6 95.5186 193.45L94.2421 193.47C94.2421 193.67 94.1919 193.87 94.0713 194.08C93.9708 194.27 94.0211 194.63 94.1417 194.83C94.594 195.56 94.594 196.36 94.594 197.16C94.6141 199.55 94.1417 201.85 93.3577 204.09C92.8652 205.49 92.3123 206.88 91.7896 208.25C91.659 208.3 91.5584 208.36 91.4679 208.36C89.2064 208.27 87.8796 209.59 86.9549 211.41C86.2513 212.8 85.8292 214.3 85.5076 215.82C84.6532 219.91 83.7988 224 82.9243 228.08C80.8135 237.98 78.6625 247.86 76.6121 257.77C75.5969 262.7 74.7526 267.66 73.8379 272.61C73.5263 274.33 73.2249 276.06 72.9233 277.79L72.9535 277.77Z" fill="#617462"/>
<path d="M73.8279 280.95C73.7776 281.2 73.7778 281.46 73.7375 281.92C74.7226 282.16 75.597 282.38 76.5017 282.6C76.6424 282.63 76.7729 282.67 76.9137 282.7C77.0745 282.35 77.2354 282.08 77.3058 281.79C79.4668 273.23 82.2408 264.84 84.6833 256.35C85.8794 252.18 86.7339 247.93 87.8295 243.74C88.9552 239.44 90.1614 235.17 91.3374 230.89C91.5384 230.17 91.7393 229.45 91.9503 228.73C92.0308 228.48 92.1112 228.22 92.2318 227.99C92.4228 227.65 92.8449 227.52 93.2168 227.67C93.5787 227.81 93.6894 228.13 93.619 228.45C93.4682 229.18 93.2873 229.91 93.046 230.62C91.7997 234.44 91.0961 238.4 90.0608 242.28C90.0106 242.48 90.0206 242.69 90.0105 242.88C91.1162 243.4 91.1261 243.39 91.6991 244.48C92.3423 245.71 93.036 246.93 93.5989 248.2C94.011 249.13 94.7046 249.6 95.6494 249.81C96.0112 249.89 96.3831 249.94 96.8555 250.02C96.9359 249.7 97.0464 249.41 97.0665 249.12C97.1168 248.21 97.137 247.3 97.147 246.39C97.1973 239.69 97.1469 233 96.8052 226.31C96.6444 223.21 96.554 220.1 95.9107 217.05C95.6997 216.06 95.5286 215.05 95.217 214.08C94.9657 213.27 94.6139 212.47 94.2018 211.73C93.8601 211.13 93.3878 210.59 92.5535 210.63C92.3525 210.63 92.1413 210.52 91.9503 210.43C91.0357 210 90.2516 210.22 89.6586 210.97C89.2365 211.51 88.8547 212.11 88.5632 212.73C87.8797 214.14 87.558 215.66 87.2364 217.18C85.799 224.1 84.3918 231.02 82.9444 237.93C81.7282 243.8 80.5121 249.66 79.2356 255.52C77.9993 261.17 76.6524 266.78 75.4261 272.43C74.9738 274.51 74.6019 276.6 74.2301 278.69C74.0994 279.44 73.9686 280.19 73.8279 280.94V280.95Z" fill="#617462"/>
<path d="M75.5668 350.95C75.3155 351.41 75.0843 351.88 74.823 352.37C75.5668 353.12 76.3811 353.64 77.2153 354.12C78.6627 354.95 80.1202 355.75 81.5676 356.57C86.3219 359.25 91.3676 361.16 96.6144 362.51C97.8306 362.82 99.0467 363.1 100.273 363.35C101.258 363.55 102.243 363.72 103.238 363.85C104.535 364.03 105.841 364.16 107.148 364.25C109.45 364.41 111.772 364.56 114.073 364.08C114.546 363.98 115.038 363.97 115.521 363.97C115.752 363.97 115.953 364.03 116.124 364.14C116.445 364 116.777 363.88 117.109 363.75C117.209 363.68 117.3 363.62 117.39 363.55C117.37 363.5 117.35 363.44 117.34 363.38C117.29 363.12 117.28 362.85 117.29 362.58C117.4 360.28 117.531 357.98 117.642 355.68C117.822 351.93 118.044 348.19 118.144 344.44C118.335 337.53 118.476 330.62 118.606 323.71C118.777 314.76 118.968 305.82 118.516 296.87C118.406 294.62 118.285 292.38 118.124 290.13C118.023 288.69 117.923 287.24 117.682 285.82C116.797 280.49 115.873 275.16 114.908 269.84C114.596 268.1 114.214 266.37 113.691 264.69C113.36 263.64 113.209 262.63 113.249 261.55C113.33 259.41 113.39 257.27 113.41 255.12C113.41 254.4 113.44 253.69 113.179 253C112.395 253.11 111.621 253.08 110.857 253C110.586 253.18 110.204 253.3 109.882 253.3C108.807 253.32 107.721 253.32 106.656 253.22C104.243 252.98 101.851 252.67 99.4486 252.4C99.1974 252.37 98.9362 252.44 98.6347 252.47C98.5945 252.85 98.5341 253.16 98.5341 253.48C98.4235 259.16 98.2526 264.84 98.2224 270.52C98.2023 274.59 98.3631 278.66 98.4536 282.73C98.4536 283.11 98.4938 283.48 98.4737 283.86C98.4435 284.47 98.1221 284.83 97.6396 284.85H97.5994L96.4534 285.77C96.8052 286.24 97.0466 286.78 97.6597 286.95C97.7803 286.98 97.8907 287.18 97.9309 287.33C98.0012 287.58 98.0617 287.86 98.0416 288.11C97.9611 289.13 97.8706 290.14 97.7198 291.15C97.3278 293.8 96.9158 296.45 96.4836 299.09C96.2423 300.57 95.971 302.04 95.3278 303.42C94.9458 304.26 94.2923 304.83 93.4279 305.04C92.6138 305.24 91.7293 305.41 90.9956 304.69C90.8549 304.55 90.6136 304.49 90.4226 304.41C88.7842 303.73 87.146 303.04 85.5076 302.37C85.3267 302.29 85.1157 302.29 84.8443 302.24C84.583 302.91 84.6232 303.55 84.583 304.18C84.382 307.34 84.201 310.49 83.9999 313.65C83.7688 317.18 83.5276 320.7 83.5779 324.25C83.6281 327.3 83.5777 330.36 83.6179 333.41C83.638 334.95 83.3166 336.38 82.5929 337.74C80.2409 342.14 77.8989 346.53 75.557 350.94L75.5668 350.95Z" fill="white"/>
<path d="M76.2302 298.22C76.1699 298.4 76.2604 298.63 76.5017 298.63H77.1146C77.1649 298.43 77.2254 298.23 77.2656 298.03H76.5017C76.3609 298.03 76.2604 298.11 76.2302 298.22Z" fill="#617462"/>
<path d="M77.1147 298.63H78.1501C78.1501 298.63 78.1501 298.61 78.1501 298.59C78.1501 298.32 78.5118 298.07 78.8335 298.11C78.7832 298.06 78.7129 298.03 78.6224 298.03H77.2757C77.2255 298.23 77.1751 298.43 77.1248 298.63H77.1147Z" fill="white"/>
<path d="M77.4364 297.36C77.3862 297.58 77.3259 297.81 77.2656 298.03H78.6123C78.7028 298.03 78.7734 298.06 78.8236 298.11C78.8337 298.11 78.8536 298.11 78.8737 298.11C79.4466 298.25 80.0197 298.4 80.5625 298.62C82.9145 299.55 85.2464 300.5 87.5883 301.45C89.2669 302.13 90.9553 302.81 92.463 303.42C93.3576 303.26 93.6492 302.73 93.8201 302.16C94.1115 301.19 94.393 300.2 94.5739 299.21C94.9257 297.26 95.2071 295.3 95.5086 293.34C95.8202 291.33 96.0714 289.32 95.981 287.2C92.1615 285.8 88.3421 284.39 84.5126 282.99C82.7435 282.34 80.9644 281.69 79.1853 281.03C78.7531 281.62 78.6225 282.32 78.4617 282.98C78.3913 283.26 78.4616 283.63 78.6023 283.89C79.7883 286.2 80.4719 288.67 81.1755 291.14C81.3664 291.81 81.5274 292.5 81.5777 293.18C81.6279 293.75 81.5775 294.36 81.4368 294.92C81.3262 295.4 80.9845 295.77 80.4417 295.86C79.8286 295.96 79.4064 295.67 79.1048 295.17C78.8335 294.72 78.5823 294.27 78.2104 293.62C78.0998 294 78.0396 294.18 77.9993 294.36C77.7983 295.36 77.6575 296.37 77.4062 297.35L77.4364 297.36Z" fill="#F7DDC0"/>
<path d="M78.8333 298.11C78.5116 298.07 78.1398 298.32 78.1499 298.59C78.1499 298.6 78.1499 298.61 78.1499 298.63H78.6222C78.9238 298.63 78.9941 298.28 78.8333 298.11Z" fill="#617462"/>
<path d="M86.975 179.63C86.8041 180.93 87.1761 182.2 87.8395 183.33C88.5933 184.62 89.4174 185.88 90.2618 187.12C90.9553 188.14 91.7694 189.08 92.473 190.09C93.0158 190.88 93.4781 191.73 93.9706 192.56C94.1515 192.85 94.2722 193.14 94.2722 193.45L95.5487 193.43C95.5487 193.33 95.5989 193.23 95.6894 193.16C95.8602 193.04 96.021 192.92 96.1919 192.8C95.5285 190.45 93.9606 188.53 92.5434 186.52C91.6489 185.25 90.8246 183.93 90.0004 182.62C89.2265 181.38 89.0153 180.05 89.3972 178.61C89.9099 176.62 90.6638 174.74 91.7594 173.01C92.3524 172.06 93.056 171.28 94.3125 171.36C94.3627 171.36 94.4229 171.35 94.4732 171.33C94.9355 171.21 95.217 170.88 95.2472 170.42C95.2673 170.1 95.1667 169.82 94.9456 169.62C94.5837 169.79 94.2321 170 93.8904 170.24C93.5989 170.45 93.3173 170.01 93.5284 169.77C93.6993 169.57 93.8802 169.39 94.0612 169.23C93.6792 169.17 93.2873 169.21 92.8953 169.32C91.9304 169.6 91.1161 170.15 90.5432 170.94C88.6435 173.54 87.4172 176.44 86.985 179.63H86.975Z" fill="#617462"/>
<path d="M87.5076 281.61C87.4473 281.9 87.5277 282.22 87.5378 282.53C88.3218 282.8 89.0253 283.06 89.7389 283.29C91.6286 283.91 93.488 284.66 95.4178 285.08C95.9103 285.19 96.1918 285.47 96.433 285.8L97.579 284.88C97.1166 284.88 96.7949 284.56 96.6943 283.96C96.634 283.59 96.6141 283.21 96.6141 282.84C96.6141 276.95 96.584 271.05 96.6342 265.16C96.6644 261.25 96.8152 257.34 96.9157 253.43C96.9157 253.01 96.9157 252.59 96.9157 252.1C96.1216 251.86 95.4078 251.65 94.7042 251.43C94.473 251.36 94.252 251.27 94.051 251.17C93.8801 251.47 93.6891 251.76 93.5283 252.06C93.5685 252.13 93.5987 252.2 93.6088 252.28C93.6992 252.75 93.7594 253.24 93.7393 253.71C93.6288 255.85 93.4881 257.99 93.3273 260.13C93.2972 260.54 93.1463 260.96 93.0056 261.36C92.3824 263.07 91.699 264.76 91.1161 266.48C89.4777 271.42 88.5931 276.55 87.5076 281.62V281.61Z" fill="white"/>
<path d="M89.3871 178.61C89.0152 180.05 89.2163 181.379 89.9903 182.619C90.8145 183.939 91.6387 185.25 92.5333 186.52C93.9505 188.53 95.5284 190.44 96.1818 192.8C97.1065 192.15 98.0715 191.539 98.9962 190.889C98.9861 190.849 98.976 190.82 98.976 190.79C98.9559 190.58 99.137 190.229 99.3279 190.139C99.7601 189.939 100.242 189.86 100.715 189.74C102.072 189.4 103.409 189.01 104.665 188.38C107.751 186.84 110.042 184.49 111.761 181.56C112.827 179.75 113.591 177.81 114.324 175.77C114.154 175.53 114.063 175.41 113.973 175.27C113.4 174.43 113.37 174.28 114.204 173.76C114.626 173.5 114.485 173.1 114.696 172.83C114.727 172.8 114.757 172.76 114.787 172.73C114.445 172.39 114.093 172.05 113.752 171.72C113.531 171.51 113.189 171.09 112.847 170.82C112.847 170.82 112.837 170.82 112.827 170.83C112.485 171.08 112.153 171.01 111.721 170.52C109.932 168.5 107.56 167.74 104.997 167.51C102.494 167.28 100.072 167.7 97.8504 168.98C97.7097 169.06 97.559 169.12 97.4082 169.17C97.0866 169.28 96.7246 169.22 96.4834 169.03C95.9406 169.18 95.408 169.359 94.8954 169.599C95.1165 169.799 95.2169 170.08 95.1968 170.4C95.1767 170.86 94.8851 171.19 94.4228 171.31C94.3725 171.32 94.3123 171.34 94.2621 171.34C93.0056 171.26 92.302 172.05 91.709 172.99C90.6134 174.73 89.8597 176.61 89.3471 178.59L89.3871 178.61Z" fill="#DBDBDB"/>
<path d="M92.4932 253.42C92.4932 253.81 93.0863 253.8 93.0963 253.42C93.0963 253.34 93.1064 253.27 93.1165 253.2C93.1667 252.79 93.3274 252.41 93.5285 252.05C93.3878 251.79 93.1064 251.62 92.835 251.6C92.8048 251.69 92.7746 251.79 92.7545 251.87C92.6138 252.38 92.5133 252.9 92.4932 253.43V253.42Z" fill="#617462"/>
<path d="M93.1467 251.24C92.9858 251.29 92.8953 251.44 92.825 251.59C93.1064 251.61 93.3878 251.79 93.5184 252.04C93.6793 251.74 93.8702 251.45 94.0411 251.15C93.8602 251.07 93.6893 250.97 93.5386 250.86C93.4682 250.99 93.3979 251.12 93.3275 251.24C93.2672 251.22 93.207 251.22 93.1467 251.24Z" fill="#DBDBDB"/>
<path d="M93.5083 169.77C93.3073 170.01 93.5788 170.46 93.8703 170.24C94.212 170 94.5636 169.79 94.9255 169.62C94.835 169.54 94.7246 169.46 94.604 169.4C94.413 169.31 94.232 169.26 94.0411 169.23C93.8601 169.39 93.6892 169.56 93.5083 169.77Z" fill="#617462"/>
<path d="M93.8603 250.18C93.7698 250.42 93.6592 250.65 93.5386 250.87C93.6994 250.98 93.8602 251.07 94.0411 251.16C94.1919 250.9 94.3325 250.63 94.433 250.35C94.5637 249.99 93.9809 249.83 93.8502 250.19L93.8603 250.18Z" fill="#617462"/>
<path d="M94.041 169.23C94.232 169.26 94.423 169.32 94.6039 169.4C94.7346 169.46 94.845 169.53 94.9254 169.62C95.428 169.38 95.9608 169.2 96.5136 169.05C96.4332 168.99 96.3528 168.91 96.3026 168.82C96.192 168.64 96.1517 168.4 96.1818 168.18C95.3978 168.39 94.6843 168.68 94.041 169.23Z" fill="#DBDBDB"/>
<path d="M93.2471 208.65C95.3779 209.97 96.0916 210.91 96.7348 213.3C96.9158 213.97 97.0366 214.66 97.1672 215.34C97.9512 219.51 98.2427 223.74 98.4136 227.96C98.7051 235.08 98.8457 242.21 98.6347 249.34C98.6347 249.69 98.715 250.06 98.7652 250.44C100.504 250.66 102.153 250.94 103.811 251.07C105.851 251.24 107.872 251.61 109.932 251.41C110.143 251.39 110.364 251.41 110.575 251.43C110.937 251.48 111.329 251.83 111.299 252.18C111.299 252.28 111.269 252.38 111.239 252.48C111.802 252.53 112.365 252.53 112.938 252.47C112.727 251.9 113.028 251.46 113.702 251.44C114.646 251.43 115.35 250.99 116.013 250.44C117.993 248.8 119.531 246.83 120.446 244.42C121.099 242.71 121.552 240.94 121.712 239.12C122.255 233.15 121.21 227.49 118.194 222.25C116.636 219.55 114.857 217 112.958 214.53C112.154 213.48 111.45 212.3 110.093 211.79C109.922 211.73 109.812 211.35 109.791 211.11C109.791 211.01 109.791 210.92 109.832 210.83C109.138 210.23 108.475 209.58 107.892 208.88C107.842 208.9 107.801 208.92 107.751 208.93C107.409 209.01 107.088 208.88 106.947 208.55C106.806 208.21 106.686 207.85 106.625 207.48C106.585 207.26 106.545 207.05 106.515 206.83C106.515 206.81 106.505 206.8 106.495 206.79C106.444 206.7 106.444 206.62 106.474 206.54C106.283 205.15 106.233 203.76 106.223 202.35C106.223 201.25 106.485 200.23 106.997 199.27C107.138 199.01 107.289 198.76 107.48 198.42C106.485 198.13 105.59 197.92 104.736 197.63C102.856 196.99 100.987 196.31 99.1171 195.64C98.2326 195.33 97.348 194.98 96.3128 194.97C96.8053 199.94 95.3076 204.36 93.2773 208.63L93.2471 208.65Z" fill="#617462"/>
<path d="M95.6894 193.17C95.599 193.24 95.5488 193.34 95.5488 193.44C95.5488 193.59 95.6494 193.73 95.8404 193.73H97.348C97.5491 193.73 97.6396 193.57 97.6396 193.42C97.1873 193.28 96.7248 193.13 96.2423 192.98C96.2323 192.92 96.2121 192.87 96.192 192.81C96.0211 192.93 95.8503 193.05 95.6894 193.17Z" fill="#617462"/>
<path d="M96.182 168.18C96.1519 168.4 96.2022 168.64 96.3028 168.82C96.353 168.91 96.4233 168.99 96.5138 169.05C96.9058 168.94 97.3179 168.85 97.73 168.77C97.9511 168.73 97.9814 168.51 97.901 168.36C98.0216 168.17 97.8607 167.84 97.5692 167.9C97.0868 167.99 96.6243 168.08 96.182 168.19V168.18Z" fill="#617462"/>
<path d="M96.1919 192.8C96.212 192.85 96.2221 192.91 96.2422 192.97C96.7247 193.13 97.1872 193.27 97.6395 193.41C97.6395 193.26 97.5289 193.12 97.3479 193.12H96.785C97.6494 192.52 98.5441 191.95 99.3984 191.35C99.2376 191.28 99.0767 191.07 99.0164 190.89C98.0816 191.54 97.1267 192.15 96.202 192.8H96.1919Z" fill="#DBDBDB"/>
<path d="M96.6142 362.51L96.2522 363.9C96.9256 364.08 97.5991 364.25 98.2826 364.41C98.6444 364.5 99.0063 364.59 99.3682 364.7C99.8205 364.84 100.102 365.12 100.102 365.63C100.102 365.74 100.102 365.85 100.102 365.95C100.082 371.42 100.574 376.87 100.976 382.32C101.217 385.58 101.449 388.84 101.71 392.1C101.78 392.94 101.941 393.78 102.062 394.64L102.936 394.66C103.469 394.3 103.71 393.84 103.61 393.22C103.58 393.01 103.58 392.79 103.559 392.58C103.338 389.65 103.107 386.72 102.906 383.78C102.755 381.54 102.655 379.29 102.514 377.05C102.293 373.52 102.062 370 101.841 366.48C101.821 366.12 101.891 365.76 101.921 365.29C102.283 365.35 102.645 365.4 103.007 365.44L103.228 363.86C102.233 363.72 101.248 363.56 100.263 363.36C99.0364 363.11 97.8102 362.82 96.6041 362.52L96.6142 362.51Z" fill="#617462"/>
<path d="M96.4834 167.65C96.3125 167.77 96.222 167.97 96.1919 168.18C96.6342 168.07 97.0966 167.98 97.5791 167.89C97.8706 167.83 98.0315 168.17 97.9109 168.35C97.9913 168.51 97.961 168.72 97.7398 168.76C97.3277 168.84 96.9157 168.93 96.5237 169.04C96.7649 169.23 97.1166 169.29 97.4483 169.18C97.5991 169.13 97.75 169.07 97.8907 168.99C100.112 167.72 102.524 167.3 105.037 167.52C107.6 167.75 109.972 168.51 111.761 170.53C112.194 171.02 112.525 171.09 112.867 170.84C112.867 170.84 112.877 170.84 112.887 170.83C112.716 170.69 112.555 170.59 112.395 170.56C112.013 170.49 112.173 169.92 112.555 169.98C112.777 170.02 112.998 170.17 113.209 170.35C113.269 170.11 113.189 169.85 112.968 169.59C112.515 169.07 112.003 168.58 111.45 168.16C109.269 166.52 106.072 165.48 103.469 165.6C101.67 165.56 99.9411 165.95 98.2826 166.59C97.6494 166.84 97.0564 167.24 96.4935 167.64L96.4834 167.65Z" fill="#617462"/>
<path d="M99.3482 190.15C99.1572 190.23 98.9862 190.58 98.9963 190.8C98.9963 190.83 98.9963 190.86 99.0164 190.9C99.2174 190.76 99.4185 190.61 99.6196 190.47C99.9312 190.24 100.233 190.76 99.9212 190.99C99.7503 191.12 99.5794 191.24 99.3985 191.37C99.4186 191.37 99.4284 191.39 99.4385 191.39C99.8305 191.5 100.263 191.47 100.705 191.5C100.725 191.94 100.705 192.37 100.775 192.78C100.916 193.52 101.419 194.09 102.042 194.33C102.394 194.47 102.776 194.5 103.148 194.39C104.394 194.03 105.057 192.79 104.575 191.62C104.484 191.4 104.253 191.19 104.032 191.08C103.56 190.84 103.017 191.19 103.007 191.71C103.007 191.92 103.097 192.13 103.087 192.34C103.087 192.48 102.987 192.64 102.896 192.75C102.856 192.8 102.635 192.8 102.615 192.75C102.504 192.58 102.394 192.39 102.394 192.21C102.394 192.01 102.524 191.81 102.605 191.62C102.715 191.37 102.836 191.14 102.987 190.82C104.806 190.14 106.595 189.3 108.173 188.08C109.761 186.85 111.169 185.43 112.214 183.74C113.249 182.07 114.134 180.3 115.088 178.55C115.098 178.55 115.169 178.52 115.199 178.55C115.239 178.57 115.259 178.64 115.269 178.69C115.37 179.32 115.561 179.96 115.561 180.59C115.531 182.81 116.486 184.5 118.204 185.84C118.325 185.94 118.416 186.07 118.516 186.19C118.546 186.23 118.556 186.29 118.566 186.34C117.862 187.21 117.109 188.04 116.486 188.97C115.873 189.9 115.4 190.93 114.837 191.96C114.284 191.87 113.842 191.62 113.42 191.28C113.219 191.11 112.998 190.93 112.756 190.83C112.415 190.69 112.083 190.83 111.922 191.12C111.812 191.32 111.761 191.69 111.872 191.85C112.103 192.19 112.445 192.48 112.787 192.72C113.169 193 113.601 193.21 114.003 193.45C113.048 195.33 111.741 195.93 109.932 195.38C109.621 195.29 109.329 195.12 109.017 195.09C108.686 195.05 108.344 195.21 108.264 195.56C108.213 195.79 108.284 196.11 108.425 196.28C108.626 196.51 108.917 196.7 109.209 196.81C109.54 196.94 109.872 197.03 110.204 197.1C111.691 197.39 113.078 197.02 114.294 195.88C115.048 195.18 115.631 194.34 116.063 193.41C116.345 192.77 116.616 192.13 116.908 191.5C117.511 190.17 118.285 188.96 119.38 187.96C119.732 187.63 120.074 187.28 120.365 186.9C120.737 186.41 120.677 185.88 120.235 185.45C119.883 185.12 119.451 184.87 119.109 184.54C118.606 184.05 118.084 183.57 117.712 182.99C117.43 182.56 117.29 182 117.229 181.48C116.998 179.51 116.868 177.54 116.204 175.64C116.094 175.31 116.204 174.9 116.194 174.53C116.174 174 116.174 173.46 116.063 172.95C116.003 172.63 115.702 172.37 115.34 172.46C115.561 172.68 115.782 172.9 116.003 173.12C116.275 173.4 115.852 173.82 115.571 173.55C115.32 173.3 115.068 173.05 114.817 172.8C114.787 172.83 114.757 172.87 114.727 172.9C114.516 173.17 114.656 173.57 114.234 173.83C113.41 174.34 113.44 174.5 114.003 175.34C114.093 175.47 114.184 175.6 114.355 175.84C113.621 177.88 112.847 179.82 111.792 181.63C110.073 184.56 107.771 186.91 104.696 188.45C103.439 189.08 102.102 189.47 100.745 189.81C100.273 189.93 99.7904 190.01 99.3582 190.21L99.3482 190.15Z" fill="#617462"/>
<path d="M99.6195 190.46C99.4185 190.61 99.2174 190.749 99.0164 190.889C99.0767 191.069 99.2477 191.279 99.3984 191.349C99.5693 191.229 99.7502 191.1 99.9211 190.97C100.233 190.74 99.9211 190.22 99.6195 190.45V190.46Z" fill="#617462"/>
<path d="M99.9812 399.15C100.072 397.33 101.187 396 102.072 394.63L102.947 394.65C102.947 394.65 102.886 394.69 102.856 394.71C103.429 395.28 103.348 395.87 102.976 396.48C102.725 396.89 102.484 397.31 102.283 397.75C102.112 398.13 101.992 398.53 101.821 399C102.172 399.17 102.424 399.36 102.715 399.44C106.143 400.48 108.756 402.62 110.937 405.37C111.068 405.54 111.219 405.69 111.42 405.92C112.907 405.56 114.405 405.2 116.033 404.81C115.792 404.43 115.651 404.15 115.46 403.92C113.923 402.06 112.375 400.21 110.837 398.35C110.425 397.85 109.992 397.38 109.379 397.12C108.897 396.92 108.595 396.57 108.595 396.02C108.595 395.88 108.545 395.65 108.455 395.61C108.354 395.56 108.264 395.51 108.193 395.45L109.741 395.4C110.917 395.69 111.691 396.63 112.465 397.61C115.179 401.02 117.983 404.33 120.979 407.49C121.551 408.09 122.165 408.53 122.989 408.74C123.873 408.97 124.727 409.31 125.582 409.62C125.883 409.73 126.185 409.87 126.436 410.06C126.969 410.47 126.959 411.16 126.406 411.56C126.195 411.71 125.944 411.84 125.682 411.89C125.16 412.01 124.627 412.13 124.094 412.16C122.647 412.24 121.19 412.33 119.742 412.32C117.863 412.3 115.983 412.25 114.113 411.93C112.626 411.68 111.701 410.98 111.189 409.55C110.103 406.49 107.912 404.31 105.278 402.53C104.344 401.9 103.298 401.5 102.122 401.28C102.122 401.67 102.112 401.98 102.122 402.3C102.193 403.91 102.303 405.51 102.313 407.11C102.313 407.8 102.172 408.49 102.022 409.17C101.961 409.47 101.77 409.76 101.569 410C101.348 410.27 101.007 410.33 100.685 410.2C100.373 410.07 100.162 409.81 100.152 409.46C100.152 409.25 100.243 409.05 100.273 408.84C100.383 408.1 100.584 407.36 100.584 406.62C100.584 405.28 100.484 403.94 100.404 402.61C100.383 402.3 100.333 401.92 100.142 401.7C99.509 400.98 99.1773 400.29 99.9312 399.46C99.9915 399.39 99.9812 399.26 99.9913 399.15H99.9812ZM113.37 409.77C115.259 410.47 118.305 410.75 121.632 410.52C121.38 410.03 120.828 409.97 120.536 409.63C120.225 409.26 119.873 408.93 119.541 408.58C119.209 408.23 118.888 407.87 118.566 407.51C118.244 407.16 117.923 406.8 117.551 406.38C115.832 406.54 114.204 407.08 112.354 407.48C112.606 408.11 112.797 408.6 113.008 409.09C113.118 409.33 113.259 409.56 113.37 409.77Z" fill="#617462"/>
<path d="M103.148 194.37C104.394 194.01 105.057 192.77 104.575 191.6C104.484 191.38 104.253 191.17 104.032 191.06C103.56 190.82 103.017 191.17 103.007 191.69C103.007 191.9 103.097 192.11 103.087 192.32C103.087 192.46 102.987 192.62 102.896 192.73C102.856 192.78 102.635 192.78 102.615 192.73C102.504 192.56 102.394 192.37 102.394 192.19C102.394 191.99 102.524 191.79 102.605 191.6C102.715 191.35 102.836 191.12 102.987 190.8C104.806 190.12 106.595 189.28 108.173 188.06C109.761 186.83 111.168 185.41 112.214 183.72C113.249 182.05 114.133 180.28 115.088 178.53C115.098 178.53 115.169 178.5 115.199 178.53C115.239 178.55 115.259 178.62 115.269 178.67C115.37 179.3 115.561 179.94 115.561 180.57C115.531 182.79 116.486 184.48 118.204 185.82C118.325 185.92 118.415 186.05 118.516 186.17C118.546 186.21 118.556 186.27 118.566 186.32C117.862 187.19 117.109 188.02 116.486 188.95C115.872 189.88 115.4 190.91 114.837 191.94C114.284 191.85 113.842 191.6 113.42 191.26C113.219 191.09 112.998 190.91 112.756 190.81C112.415 190.67 112.083 190.81 111.922 191.1C111.812 191.3 111.761 191.67 111.872 191.83C112.103 192.17 112.445 192.46 112.787 192.7C113.169 192.98 113.601 193.19 114.003 193.43C113.048 195.31 111.741 195.91 109.932 195.36C109.621 195.27 109.329 195.1 109.017 195.07C108.686 195.03 108.344 195.19 108.263 195.54C108.213 195.77 108.284 196.09 108.424 196.26C108.625 196.49 108.917 196.68 109.209 196.79C109.54 196.92 109.872 197.01 110.204 197.08L108.615 197.2C108.394 197.11 108.153 197.04 107.922 196.99C105.801 196.53 103.791 195.76 101.791 194.97L102.042 194.34C102.394 194.48 102.776 194.51 103.148 194.4V194.37ZM114.606 184.8C115.129 184.8 115.601 184.23 115.531 183.71C115.48 183.35 115.098 183 114.767 183.02C114.264 183.05 113.762 183.64 113.812 184.12C113.852 184.44 114.264 184.8 114.606 184.8Z" fill="white"/>
<path d="M101.931 365.28C101.901 365.75 101.831 366.11 101.851 366.47C102.072 370 102.303 373.52 102.524 377.04C102.665 379.28 102.766 381.53 102.916 383.77C103.118 386.71 103.349 389.64 103.57 392.57C103.58 392.78 103.58 393 103.62 393.21C103.721 393.83 103.479 394.29 102.947 394.65C102.917 394.67 102.886 394.69 102.856 394.71C103.429 395.28 103.348 395.87 102.977 396.48C102.725 396.89 102.484 397.31 102.283 397.75C102.112 398.13 101.992 398.53 101.821 399C102.173 399.17 102.424 399.36 102.715 399.44C106.143 400.48 108.756 402.62 110.937 405.37C111.068 405.54 111.219 405.69 111.42 405.92C112.907 405.56 114.405 405.2 116.033 404.81C115.792 404.43 115.651 404.15 115.46 403.92C113.923 402.06 112.375 400.21 110.837 398.35C110.425 397.85 109.993 397.38 109.379 397.12C108.897 396.92 108.595 396.57 108.595 396.02C108.595 395.88 108.545 395.65 108.455 395.61C108.354 395.56 108.264 395.51 108.193 395.45C107.721 395.07 107.791 394.51 107.831 393.95C108.012 391.55 108.183 389.15 108.364 386.75C108.505 384.93 108.656 383.12 108.766 381.31C108.977 377.89 109.46 374.5 110.012 371.12C110.163 370.22 110.284 369.32 110.395 368.42C110.455 367.84 110.455 367.26 110.485 366.61C109.028 366.09 107.54 366.31 106.143 365.97C105.138 365.72 104.102 365.59 103.027 365.45C102.675 365.4 102.303 365.35 101.942 365.3L101.931 365.28Z" fill="white"/>
<path d="M103.238 363.86L103.017 365.44C104.082 365.58 105.128 365.71 106.133 365.96C107.53 366.31 109.018 366.08 110.475 366.6C110.445 367.25 110.455 367.83 110.385 368.41C110.284 369.31 110.153 370.21 110.002 371.11C109.44 374.49 108.967 377.88 108.756 381.3C108.646 383.12 108.495 384.93 108.354 386.74C108.173 389.14 108.002 391.54 107.821 393.94C107.781 394.5 107.701 395.06 108.183 395.44L109.731 395.39C109.621 395.24 109.58 395.2 109.56 395.15C109.54 395.11 109.52 395.05 109.53 395C110.244 387.97 110.495 380.89 111.51 373.89C111.862 371.46 112.254 369.04 112.626 366.59C113.279 366.2 113.993 366.29 114.676 366.21C115.099 366.17 115.531 366.12 115.923 365.98C116.425 365.8 116.646 365.3 116.556 364.81C116.556 364.8 116.556 364.78 116.556 364.77C116.214 364.94 115.863 365.06 115.46 365.08C115.169 365.1 115.038 364.65 115.31 364.52C115.581 364.39 115.852 364.27 116.124 364.15C115.953 364.04 115.752 363.98 115.521 363.98C115.038 363.98 114.546 363.98 114.073 364.09C111.772 364.57 109.45 364.42 107.148 364.26C105.841 364.17 104.535 364.04 103.238 363.86Z" fill="#617462"/>
<path d="M106.444 206.55C106.414 206.62 106.414 206.71 106.464 206.8C106.464 206.81 106.474 206.83 106.484 206.84C106.474 206.74 106.454 206.65 106.444 206.55Z" fill="#617462"/>
<path d="M106.444 206.55C106.454 206.65 106.464 206.74 106.484 206.84C106.876 207.58 107.339 208.25 107.861 208.89C108.073 208.8 108.193 208.61 108.233 208.38C107.761 207.8 107.339 207.17 106.987 206.5C106.856 206.24 106.535 206.34 106.454 206.55H106.444Z" fill="#617462"/>
<path d="M106.484 206.84C106.515 207.05 106.555 207.27 106.595 207.49C106.665 207.85 106.776 208.22 106.917 208.56C107.057 208.89 107.369 209.03 107.721 208.94C107.771 208.93 107.821 208.91 107.862 208.89C107.339 208.26 106.876 207.58 106.484 206.84Z" fill="#617462"/>
<path d="M107.319 252.04C106.927 252.03 106.927 252.63 107.319 252.64C108.515 252.68 109.681 252.91 110.847 253.04C110.867 253.03 110.887 253.02 110.907 253C111.048 252.89 111.159 252.69 111.219 252.49C109.922 252.38 108.626 252.08 107.319 252.05V252.04Z" fill="#617462"/>
<path d="M107.862 208.89C108.445 209.59 109.108 210.24 109.801 210.84C109.872 210.65 110.033 210.5 110.234 210.42C109.51 209.79 108.826 209.12 108.233 208.38C108.193 208.6 108.073 208.79 107.862 208.89Z" fill="#617462"/>
<path d="M110.435 211.37C110.736 211.61 111.168 211.19 110.867 210.94C110.656 210.77 110.445 210.59 110.234 210.42C110.254 210.41 110.274 210.4 110.304 210.39C110.907 210.19 111.5 210.28 111.973 210.71C112.445 211.14 112.907 211.61 113.289 212.11C114.938 214.29 116.616 216.46 118.174 218.7C119.149 220.11 120.094 221.58 120.727 223.15C121.371 224.73 122.386 225.86 123.712 226.81C124.285 227.22 124.818 227.66 125.411 228.04C126.135 228.5 126.899 228.89 127.642 229.32C128.366 229.74 129 229.52 129.562 229.03C129.884 228.75 130.165 228.42 130.407 228.07C130.829 227.45 131.231 226.81 131.613 226.17C133.653 222.64 135.332 218.93 136.96 215.19C137.071 214.95 137.231 214.69 137.221 214.44C137.211 213.78 137.634 213.38 138.086 213.03C137.563 212.01 137.061 211.06 136.608 210.09C136.216 209.26 136.246 209.25 137.141 208.57C137.422 209 137.714 209.41 137.965 209.85C138.669 211.11 139.332 212.38 140.046 213.63C140.297 214.08 140.629 214.49 141.011 215.04C141.212 214.6 141.383 214.32 141.463 214.03C141.875 212.54 142.297 211.06 142.659 209.56C142.77 209.11 142.93 208.77 143.252 208.58C143.302 207.84 143.322 207.16 143.413 206.48C143.443 206.24 143.584 205.94 143.775 205.8C144.157 205.52 144.287 205.16 144.338 204.72C144.428 203.94 144.83 203.35 145.584 203.08C145.195 201.993 145.202 201.01 145.604 200.13C146.057 200 146.519 199.9 146.961 199.74C147.192 199.65 147.464 199.51 147.594 199.31C147.846 198.94 148.026 198.52 148.227 198.12C148.248 198.12 148.268 198.1 148.288 198.09C148.288 198.08 148.288 198.07 148.278 198.05C148.881 197.85 148.991 197.25 149.353 196.83C148.961 196.47 148.73 196.79 148.549 196.96C148.228 197.25 148.127 197.63 148.278 198.05H148.258C148.258 198.07 148.237 198.09 148.227 198.1C147.956 198.21 147.695 198.36 147.413 198.39C147.253 198.41 146.941 198.25 146.901 198.11C146.75 197.51 146.499 196.91 146.981 196.29C147.293 195.88 147.494 195.35 147.614 194.84C148.228 192.35 148.801 189.84 149.383 187.34C149.444 187.09 149.474 186.84 149.544 186.6C149.645 186.67 149.745 186.72 149.866 186.76C150.117 186.86 150.268 186.61 150.218 186.4C150.338 186.42 150.469 186.44 150.59 186.45C150.66 186.52 150.7 186.59 150.71 186.66C150.78 187.01 150.73 187.4 150.65 187.76C150.178 189.85 149.665 191.93 149.192 194.02C149.132 194.31 148.891 194.6 149.172 194.95C149.514 194.9 149.876 194.83 150.248 194.81C151.273 194.76 151.705 195.44 151.233 196.38C151.042 196.76 150.801 197.12 150.559 197.47C150.127 198.09 149.665 198.68 149.243 199.3C149.072 199.56 148.831 199.89 148.871 200.15C149.062 201.37 148.579 202.35 147.836 203.26C148.097 204.38 147.986 205.44 147.152 206.26C146.71 206.69 146.388 207.09 146.308 207.73C146.207 208.47 145.705 208.97 144.991 209.22C144.699 209.32 144.388 209.36 144.187 209.4C143.724 211.02 143.313 212.51 142.88 214C142.609 214.92 142.297 215.82 142.458 216.82C142.528 217.27 142.347 217.77 142.227 218.23C141.895 219.58 141.503 220.92 141.202 222.28C140.146 226.98 138.95 231.65 137.543 236.26C137.061 237.84 136.367 239.36 135.663 240.86C135.332 241.58 134.829 242.25 134.276 242.81C133.271 243.84 132.015 244.26 130.597 243.8C129.783 243.54 128.939 243.28 128.215 242.85C126.879 242.05 125.632 241.12 124.336 240.26C124.084 240.09 123.823 239.95 123.532 239.78C121.742 247.36 120.486 249.4 115.309 253.13L113.953 252.81C114.093 252.62 113.933 252.26 113.631 252.34C113.41 252.39 113.189 252.43 112.968 252.46C112.757 251.89 113.058 251.45 113.732 251.43C114.676 251.42 115.38 250.98 116.043 250.43C118.023 248.79 119.561 246.82 120.476 244.41C121.129 242.7 121.582 240.93 121.742 239.11C122.285 233.14 121.24 227.48 118.225 222.24C116.667 219.54 114.888 216.99 112.988 214.52C112.184 213.47 111.48 212.29 110.123 211.78C109.952 211.72 109.842 211.34 109.822 211.1C109.822 211 109.822 210.91 109.862 210.82C110.073 211 110.274 211.18 110.495 211.35L110.435 211.37ZM123.642 236.44C123.632 237.09 123.843 237.55 124.325 237.98C125.944 239.4 127.612 240.74 129.592 241.64C130.165 241.9 130.809 242.05 131.432 242.16C132.115 242.28 132.728 242.01 133.14 241.47C133.593 240.87 134.055 240.26 134.357 239.59C134.96 238.23 135.573 236.85 135.995 235.41C137.221 231.2 138.347 226.97 139.523 222.75C139.895 221.41 140.287 220.08 140.659 218.74C140.82 218.18 140.96 217.61 141.071 217.19C140.277 216.23 139.573 215.37 138.769 214.41C138.619 214.82 138.508 215.14 138.387 215.46C136.789 219.72 134.889 223.85 132.638 227.81C132.296 228.41 131.904 228.99 131.502 229.56C131.291 229.86 131.04 230.16 130.748 230.39C129.623 231.32 128.366 231.65 127.009 230.97C126.054 230.5 125.15 229.92 124.225 229.36C123.773 229.09 123.351 228.78 122.758 228.39C122.778 228.81 122.757 229.06 122.808 229.29C123.401 231.64 123.702 234.02 123.652 236.43L123.642 236.44ZM144.951 207.39C144.951 207.25 144.921 207.11 144.87 206.77C144.77 207.1 144.72 207.22 144.709 207.35C144.709 207.4 144.81 207.45 144.87 207.51C144.901 207.47 144.961 207.43 144.951 207.4V207.39ZM146.257 205.2C146.589 204.78 146.599 204.36 146.087 203.93C145.946 204.31 145.785 204.66 145.684 205.03C145.654 205.13 145.785 205.35 145.886 205.37C145.996 205.4 146.187 205.3 146.267 205.2H146.257ZM146.73 202.1C146.891 202.02 147.052 201.97 147.142 201.87C147.323 201.67 147.423 201.43 147.232 201.18C147.182 201.11 147.041 201.07 146.951 201.07C146.599 201.09 146.569 201.36 146.589 201.62C146.589 201.77 146.67 201.91 146.73 202.09V202.1Z" fill="#617462"/>
<path d="M109.802 210.84C110.013 211.02 110.214 211.2 110.435 211.37C110.736 211.61 111.169 211.19 110.867 210.94C110.656 210.77 110.445 210.59 110.234 210.42C110.033 210.5 109.872 210.65 109.802 210.84Z" fill="#617462"/>
<path d="M110.917 253C110.917 253 110.877 253.03 110.857 253.04C111.621 253.12 112.395 253.15 113.179 253.04C113.129 252.92 113.078 252.79 113.008 252.67C112.968 252.6 112.938 252.54 112.917 252.47C112.345 252.54 111.792 252.53 111.219 252.48C111.159 252.69 111.048 252.89 110.907 252.99L110.917 253Z" fill="#617462"/>
<path d="M112.545 169.99C112.163 169.92 112.003 170.5 112.385 170.57C112.535 170.6 112.706 170.7 112.877 170.84C113.048 170.71 113.169 170.54 113.199 170.36C112.988 170.18 112.767 170.03 112.545 169.99Z" fill="#617462"/>
<path d="M112.354 407.48C112.606 408.11 112.797 408.6 113.008 409.09C113.118 409.33 113.259 409.56 113.37 409.77C115.259 410.47 118.305 410.75 121.632 410.52C121.381 410.03 120.828 409.97 120.536 409.63C120.225 409.26 119.873 408.93 119.541 408.58C119.209 408.23 118.888 407.87 118.566 407.51C118.244 407.16 117.923 406.8 117.551 406.38C115.832 406.54 114.204 407.08 112.354 407.48Z" fill="#617462"/>
<path d="M112.917 252.47C112.938 252.53 112.968 252.6 113.008 252.67C113.078 252.79 113.129 252.92 113.179 253.04C113.37 253.01 113.561 252.98 113.752 252.93C113.832 252.91 113.882 252.88 113.913 252.83C114.053 252.64 113.892 252.28 113.591 252.36C113.37 252.41 113.149 252.45 112.928 252.48L112.917 252.47Z" fill="#617462"/>
<path d="M112.867 170.84C113.209 171.11 113.551 171.53 113.772 171.74C114.123 172.07 114.465 172.41 114.807 172.75C114.958 172.6 115.149 172.46 115.33 172.42C114.827 171.92 114.314 171.42 113.792 170.94C113.621 170.79 113.41 170.56 113.189 170.36C113.149 170.54 113.038 170.71 112.867 170.84Z" fill="#DBDBDB"/>
<path d="M113.249 261.58C113.209 262.66 113.36 263.67 113.691 264.72C114.224 266.4 114.596 268.13 114.908 269.87C115.872 275.19 116.787 280.52 117.682 285.85C117.913 287.27 118.023 288.72 118.124 290.16C118.285 292.4 118.405 294.65 118.516 296.9C118.968 305.85 118.777 314.79 118.606 323.74C118.476 330.65 118.345 337.56 118.144 344.47C118.033 348.22 117.822 351.96 117.641 355.71C117.531 358.01 117.4 360.31 117.29 362.61C117.28 362.87 117.29 363.15 117.34 363.41C117.35 363.47 117.37 363.52 117.39 363.58C117.601 363.43 117.812 363.3 118.024 363.19C118.164 363.12 118.285 363.15 118.375 363.24C118.415 363.23 118.446 363.21 118.486 363.19C118.838 363.02 119.139 363.54 118.787 363.71C118.496 363.85 118.204 363.98 117.903 364.1C118.023 364.16 118.144 364.19 118.265 364.18C118.657 364.16 119.039 364 119.139 363.59C119.29 363.03 119.421 362.44 119.451 361.86C119.662 358.49 119.883 355.12 120.024 351.75C120.195 347.58 120.345 343.4 120.426 339.22C120.576 331.88 120.717 324.55 120.797 317.21C120.878 309.65 120.747 302.1 120.355 294.56C120.094 289.59 119.581 284.63 118.928 279.69C118.295 274.9 117.41 270.18 116.224 265.5C116.094 264.98 116.043 264.42 115.802 263.96C115.249 262.91 115.249 261.81 115.259 260.68C115.28 258.17 115.259 255.65 115.259 253.17L113.902 252.85C113.902 252.85 113.812 252.93 113.742 252.95C113.551 253 113.36 253.03 113.169 253.06C113.43 253.75 113.41 254.47 113.4 255.18C113.38 257.32 113.32 259.47 113.239 261.61L113.249 261.58Z" fill="#617462"/>
<path d="M114.757 183.02C114.254 183.05 113.752 183.639 113.802 184.119C113.842 184.439 114.254 184.8 114.596 184.8C115.119 184.8 115.591 184.23 115.521 183.71C115.47 183.35 115.089 183 114.757 183.02Z" fill="#617462"/>
<path d="M114.807 172.75C115.058 173 115.309 173.25 115.561 173.5C115.842 173.77 116.264 173.35 115.993 173.07C115.772 172.85 115.551 172.63 115.33 172.41C115.139 172.46 114.948 172.59 114.807 172.74V172.75Z" fill="#617462"/>
<path d="M115.299 364.52C115.028 364.65 115.159 365.1 115.45 365.08C115.842 365.06 116.204 364.94 116.546 364.77C116.485 364.51 116.335 364.3 116.124 364.15C115.852 364.27 115.571 364.39 115.309 364.52H115.299Z" fill="#617462"/>
<path d="M116.114 364.15C116.335 364.29 116.485 364.51 116.536 364.77C116.797 364.64 117.058 364.48 117.31 364.31C117.501 364.23 117.692 364.16 117.883 364.08C117.672 363.97 117.47 363.78 117.37 363.57C117.28 363.63 117.179 363.7 117.089 363.77C116.757 363.9 116.435 364.03 116.104 364.16L116.114 364.15Z" fill="#DBDBDB"/>
<path d="M118.013 363.17C117.802 363.28 117.591 363.42 117.38 363.56C117.481 363.78 117.672 363.97 117.893 364.07C118.194 363.95 118.486 363.82 118.777 363.68C119.129 363.51 118.828 362.99 118.476 363.16C118.446 363.17 118.405 363.19 118.365 363.21C118.285 363.13 118.154 363.09 118.013 363.16V363.17Z" fill="#617462"/>
<path d="M122.748 228.39C122.768 228.81 122.748 229.06 122.798 229.29C123.391 231.64 123.692 234.02 123.642 236.43C123.632 237.08 123.843 237.54 124.325 237.97C125.944 239.39 127.612 240.73 129.592 241.63C130.165 241.89 130.809 242.04 131.432 242.15C132.115 242.27 132.728 242 133.14 241.46C133.593 240.86 134.055 240.25 134.357 239.58C134.96 238.22 135.573 236.84 135.995 235.4C137.221 231.19 138.347 226.96 139.523 222.74C139.895 221.4 140.287 220.07 140.659 218.73C140.82 218.17 140.96 217.6 141.071 217.18C140.277 216.22 139.573 215.36 138.769 214.4C138.618 214.81 138.508 215.13 138.387 215.45C136.789 219.71 134.889 223.84 132.638 227.8C132.296 228.4 131.904 228.98 131.502 229.55C131.291 229.85 131.04 230.15 130.748 230.38C129.623 231.31 128.366 231.64 127.009 230.96C126.054 230.49 125.15 229.91 124.225 229.35C123.773 229.08 123.351 228.77 122.758 228.38L122.748 228.39Z" fill="#617462"/>
<path d="M138.558 198.5C138.809 198.53 139.061 198.58 139.372 198.64C139.543 198.01 139.714 197.45 139.845 196.88C140.468 194.33 141.091 191.79 141.674 189.23C141.845 188.49 142.197 187.949 142.85 187.599C144.458 186.739 146.076 185.89 147.695 185.05C147.986 184.9 148.228 185.05 148.409 185.25C148.479 185.33 148.519 185.43 148.539 185.54C148.227 185.7 147.986 186.119 147.836 186.369C147.805 186.409 147.795 186.46 147.785 186.5C147.614 186.61 147.433 186.71 147.242 186.81C146.338 187.28 145.433 187.76 144.498 188.17C143.473 188.63 142.991 189.4 142.729 190.47C141.785 194.43 140.78 198.37 139.805 202.32C139.362 204.14 138.93 205.96 138.478 207.78C138.277 208.6 138.086 208.69 137.121 208.55C137.02 207.86 137.211 207.2 137.372 206.55C137.593 205.67 137.804 204.79 138.015 203.93C136.9 202.88 136.578 201.61 136.578 200.24C136.578 198.99 137.312 198.38 138.538 198.51L138.558 198.5ZM138.85 200.57C138.87 200.39 138.628 200.13 138.437 200C138.246 199.86 138.005 200 137.955 200.22C137.834 200.81 138.066 201.34 138.458 202.22C138.649 201.45 138.81 201.01 138.84 200.56L138.85 200.57Z" fill="#617462"/>
<path d="M137.101 208.53C137.101 208.53 137.101 208.53 137.121 208.54C137.121 208.54 137.131 208.55 137.141 208.56C137.141 208.55 137.141 208.54 137.141 208.52C137.131 208.52 137.111 208.52 137.101 208.52V208.53Z" fill="#617462"/>
<path d="M137.111 208.53C137.111 208.53 137.131 208.56 137.131 208.57L137.111 208.55C137.111 208.55 137.101 208.54 137.091 208.54L137.111 208.53Z" fill="#617462"/>
<path d="M137.141 208.57C137.422 209 137.714 209.41 137.965 209.85C138.669 211.11 139.332 212.38 140.046 213.63C140.297 214.08 140.629 214.49 141.011 215.04C141.212 214.6 141.383 214.32 141.463 214.03C141.875 212.54 142.297 211.06 142.659 209.56C142.77 209.11 142.93 208.77 143.252 208.58C143.302 207.84 143.322 207.16 143.413 206.48C143.443 206.24 143.584 205.94 143.775 205.8C144.157 205.52 144.287 205.16 144.338 204.72C144.428 203.94 144.83 203.35 145.584 203.08C145.195 201.993 145.202 201.01 145.604 200.13C146.057 200 146.519 199.9 146.961 199.74C147.192 199.65 147.464 199.51 147.594 199.31C147.846 198.94 148.026 198.52 148.227 198.12C147.956 198.23 147.695 198.38 147.413 198.41C147.253 198.43 146.941 198.27 146.901 198.13C146.75 197.53 146.499 196.93 146.981 196.31C147.293 195.9 147.494 195.37 147.614 194.86C148.228 192.37 148.801 189.86 149.384 187.36C149.444 187.11 149.474 186.86 149.544 186.62C149.414 186.54 149.283 186.45 149.172 186.34C148.881 186.37 148.61 186.47 148.358 186.71C148.147 186.91 147.815 186.71 147.836 186.48C147.665 186.59 147.484 186.69 147.293 186.79C146.388 187.26 145.484 187.74 144.549 188.15C143.524 188.61 143.041 189.38 142.78 190.45C141.835 194.41 140.83 198.35 139.855 202.3C139.413 204.12 138.98 205.94 138.528 207.76C138.327 208.58 138.136 208.67 137.171 208.53C137.171 208.54 137.171 208.55 137.171 208.57H137.141Z" fill="#DBDBDB"/>
<path d="M137.965 200.22C137.845 200.81 138.076 201.34 138.468 202.22C138.659 201.45 138.82 201.01 138.85 200.56C138.87 200.38 138.629 200.12 138.438 199.99C138.247 199.85 138.005 199.99 137.955 200.21L137.965 200.22Z" fill="white"/>
<path d="M145.684 205.02C145.654 205.12 145.785 205.34 145.886 205.36C145.996 205.39 146.187 205.29 146.267 205.19C146.599 204.77 146.609 204.35 146.097 203.92C145.956 204.3 145.795 204.65 145.694 205.02H145.684Z" fill="white"/>
<path d="M146.951 201.07C146.599 201.09 146.569 201.36 146.589 201.62C146.589 201.77 146.67 201.91 146.73 202.09C146.891 202.01 147.052 201.96 147.142 201.86C147.323 201.66 147.423 201.42 147.232 201.17C147.182 201.1 147.041 201.06 146.951 201.06V201.07Z" fill="white"/>
<path d="M147.805 186.49C147.785 186.73 148.117 186.92 148.328 186.72C148.589 186.48 148.861 186.379 149.142 186.349C149.263 186.459 149.383 186.55 149.514 186.63C149.514 186.62 149.514 186.6 149.524 186.58C149.615 186.29 149.856 186.11 150.137 186.21C150.278 186.26 150.449 186.36 150.559 186.48C150.65 186.48 150.74 186.5 150.821 186.5C151.213 186.5 151.213 185.91 150.821 185.9C150.328 185.89 149.836 185.73 149.343 185.7C149.233 185.6 149.102 185.51 148.951 185.47C148.81 185.43 148.67 185.45 148.549 185.52C148.589 185.74 148.519 185.979 148.348 186.099C148.167 186.229 147.986 186.36 147.805 186.47V186.49Z" fill="#DBDBDB"/>
<path d="M147.846 186.36C147.846 186.36 147.805 186.45 147.795 186.49C147.986 186.37 148.167 186.25 148.338 186.12C148.509 185.99 148.579 185.75 148.539 185.54C148.228 185.7 147.986 186.12 147.836 186.37L147.846 186.36Z" fill="#617462"/>
<path d="M148.529 196.97C148.207 197.26 148.107 197.64 148.258 198.06C148.861 197.86 148.971 197.26 149.333 196.84C148.941 196.48 148.71 196.8 148.529 196.97Z" fill="white"/>
<path d="M149.534 186.59C149.534 186.59 149.534 186.62 149.524 186.64C149.625 186.71 149.725 186.76 149.846 186.8C150.097 186.9 150.248 186.65 150.198 186.44C150.318 186.46 150.449 186.48 150.57 186.49C150.459 186.37 150.288 186.27 150.147 186.22C149.866 186.12 149.625 186.3 149.534 186.59Z" fill="#617462"/>
<path d="M355.284 0.959961H393.921V39.3999L355.284 0.959961Z" fill="#99A893"/>
<path d="M163.717 480.05H145.323C144.87 480.85 144.388 481.65 143.875 482.42H160.5V497.78H158.349V496.47H143.654V497.78H141.564V485.4C139.895 487.32 137.895 489.02 135.613 490.39C135.322 489.88 134.678 489.11 134.226 488.69C137.925 486.55 140.759 483.51 142.85 480.05H135V478.26H143.875C144.328 477.4 144.74 476.5 145.102 475.57H137.412V473.81H145.775C146.066 473.01 146.288 472.18 146.519 471.38C143.433 471.51 140.277 471.6 137.382 471.6C137.352 471.12 137.161 470.38 136.93 469.9C144.87 469.84 154.912 469.32 160.058 468.24L161.566 469.94C161.505 470 161.405 470 161.274 470C161.173 470 161.053 470 160.922 469.97C158.058 470.51 153.876 470.93 149.444 471.22C149.313 471.35 149.122 471.41 148.8 471.41C148.579 472.21 148.348 473.01 148.057 473.81H161.827V475.57H147.424C147.072 476.47 146.68 477.36 146.267 478.26H163.737V480.05H163.717ZM158.349 486.54V484.17H143.654V486.54H158.349ZM143.654 488.11V490.57H158.349V488.11H143.654ZM143.654 494.7H158.349V492.11H143.654V494.7Z" fill="#617462"/>
<path d="M238.378 480.08C239.403 481.2 242.237 484.78 242.911 485.68L241.524 487.38C240.941 486.32 239.534 484.21 238.368 482.61V497.65H236.277V481.71C235.051 485.52 233.382 489.29 231.673 491.53C231.452 490.95 230.899 490.09 230.487 489.61C232.709 486.83 234.96 481.58 236.016 477H231.291V474.98H236.277V467.94L238.981 468.13C238.95 468.35 238.79 468.48 238.368 468.55V474.98H242.71V477H238.368V480.07L238.378 480.08ZM258.48 478.38L258.862 478.28C259.887 478.63 260.048 478.7 260.179 478.79C260.149 478.95 260.018 479.08 259.917 479.14C258.892 484.1 256.962 488.13 254.45 491.27C256.349 493.32 258.631 494.95 261.264 495.94C260.752 496.36 260.139 497.19 259.817 497.73C257.214 496.61 254.962 494.95 253.093 492.83C251.102 494.91 248.811 496.51 246.399 497.66C246.107 497.15 245.534 496.38 245.052 495.96C247.464 494.94 249.745 493.34 251.746 491.19C249.685 488.44 248.147 485.14 247.082 481.43L248.881 480.98C249.816 484.18 251.223 487.12 253.093 489.62C255.022 487.06 256.6 483.96 257.535 480.34H246.539C246.439 485.68 245.675 492.72 242.036 497.59C241.684 497.17 240.78 496.5 240.297 496.28C244.057 491.26 244.448 484.22 244.448 479.03V469.94H260.43V471.96H246.539V478.36H258.47L258.48 478.38Z" fill="#617462"/>
</svg>
