<svg width="394" height="558" viewBox="0 0 394 558" fill="none" xmlns="http://www.w3.org/2000/svg">
<path d="M392.797 2.07642H2.20679V556.386H392.797V2.07642Z" fill="white"/>
<path d="M341.417 170.536V164.497H341.397L340.287 165.136L340.107 164.576L341.507 163.797H342.147V170.536H341.417Z" fill="#617462"/>
<path d="M344.597 163.786H348.547V164.266L345.727 170.536H344.967L347.787 164.437V164.417H344.597V163.797V163.786Z" fill="#617462"/>
<path d="M349.357 167.187C349.357 164.827 350.277 163.687 351.537 163.687C352.797 163.687 353.597 164.896 353.597 167.096C353.597 169.436 352.777 170.647 351.437 170.647C350.217 170.647 349.357 169.437 349.357 167.187ZM352.837 167.127C352.837 165.447 352.437 164.286 351.487 164.286C350.687 164.286 350.117 165.357 350.117 167.127C350.117 168.897 350.617 170.027 351.457 170.027C352.457 170.027 352.837 168.727 352.837 167.127Z" fill="#617462"/>
<path d="M358.007 170.357C357.787 170.467 357.307 170.636 356.677 170.636C355.277 170.636 354.347 169.636 354.347 168.136C354.347 166.636 355.347 165.516 356.857 165.516C357.407 165.516 357.847 165.677 358.037 165.777L357.847 166.377C357.637 166.257 357.317 166.127 356.837 166.127C355.707 166.127 355.107 167.037 355.107 168.087C355.107 169.277 355.817 170.027 356.807 170.027C357.297 170.027 357.627 169.886 357.867 169.786L357.997 170.366L358.007 170.357Z" fill="#617462"/>
<path d="M365.727 170.536H364.987V167.697C364.987 166.747 364.646 166.127 363.906 166.127C363.306 166.127 362.757 166.697 362.757 167.437V170.527H362.017V167.507C362.017 166.727 361.687 166.127 360.987 166.127C360.347 166.127 359.777 166.757 359.777 167.527V170.536H359.037V166.886C359.037 166.386 359.017 166.016 358.997 165.616H359.656L359.697 166.406H359.727C359.997 165.926 360.447 165.507 361.217 165.507C361.857 165.507 362.347 165.907 362.557 166.487H362.577C362.897 165.897 363.396 165.507 364.156 165.507C364.756 165.507 365.717 165.896 365.717 167.576V170.527L365.727 170.536Z" fill="#617462"/>
<path d="M324.347 166.717V407.837" stroke="#899284" stroke-width="0.96" stroke-miterlimit="10"/>
<path d="M287.357 166.717H335.197" stroke="#899284" stroke-width="0.96" stroke-miterlimit="10"/>
<path d="M319.607 407.837H335.197" stroke="#899284" stroke-width="0.96" stroke-miterlimit="10"/>
<mask id="mask0_60_2008" style="mask-type:luminance" maskUnits="userSpaceOnUse" x="41" y="3" width="201" height="379">
<path d="M241.286 381.556L241.286 3.03638L41.4866 3.03638L41.4866 381.556H241.286Z" fill="white"/>
</mask>
<g mask="url(#mask0_60_2008)">
<path d="M206.857 373.066L206.857 -45.5134L76.2371 -45.5134L76.2371 373.066H206.857Z" fill="#96BBA0"/>
<path d="M199.906 -45.5032V373.076" stroke="white" stroke-width="0.48" stroke-dasharray="2.88 2.88"/>
<path d="M83.1868 373.076V-45.5032" stroke="white" stroke-width="0.48" stroke-dasharray="2.88 2.88"/>
<path d="M205.497 193.386C205.497 194.586 204.527 195.567 203.327 195.567C202.127 195.567 201.147 194.586 201.147 193.386C201.147 192.186 202.117 191.207 203.327 191.207C204.537 191.207 205.497 192.176 205.497 193.386Z" fill="#D4B100"/>
<path d="M204.547 193.386C204.547 194.056 203.997 194.607 203.327 194.607C202.657 194.607 202.107 194.056 202.107 193.386C202.107 192.716 202.657 192.167 203.327 192.167C203.997 192.167 204.547 192.716 204.547 193.386Z" fill="white"/>
<path d="M77.5969 193.386C77.5969 192.186 78.5668 191.207 79.7668 191.207C80.9668 191.207 81.9465 192.186 81.9465 193.386C81.9465 194.586 80.9768 195.567 79.7668 195.567C78.5568 195.567 77.5969 194.596 77.5969 193.386Z" fill="#D4B100"/>
<path d="M78.5466 193.386C78.5466 192.716 79.0968 192.167 79.7668 192.167C80.4368 192.167 80.9866 192.716 80.9866 193.386C80.9866 194.056 80.4368 194.607 79.7668 194.607C79.0968 194.607 78.5466 194.056 78.5466 193.386Z" fill="white"/>
<path d="M205.497 281.437C205.497 282.637 204.527 283.616 203.327 283.616C202.127 283.616 201.147 282.637 201.147 281.437C201.147 280.237 202.117 279.257 203.327 279.257C204.537 279.257 205.497 280.227 205.497 281.437Z" fill="#D4B100"/>
<path d="M204.547 281.437C204.547 282.107 203.997 282.656 203.327 282.656C202.657 282.656 202.107 282.107 202.107 281.437C202.107 280.767 202.657 280.217 203.327 280.217C203.997 280.217 204.547 280.767 204.547 281.437Z" fill="white"/>
<path d="M77.5969 281.437C77.5969 280.237 78.5668 279.257 79.7668 279.257C80.9668 279.257 81.9465 280.237 81.9465 281.437C81.9465 282.637 80.9768 283.616 79.7668 283.616C78.5568 283.616 77.5969 282.647 77.5969 281.437Z" fill="#D4B100"/>
<path d="M78.5466 281.437C78.5466 280.767 79.0968 280.217 79.7668 280.217C80.4368 280.217 80.9866 280.767 80.9866 281.437C80.9866 282.107 80.4368 282.656 79.7668 282.656C79.0968 282.656 78.5466 282.107 78.5466 281.437Z" fill="white"/>
<path d="M205.497 369.487C205.497 370.687 204.527 371.667 203.327 371.667C202.127 371.667 201.147 370.687 201.147 369.487C201.147 368.287 202.117 367.306 203.327 367.306C204.537 367.306 205.497 368.277 205.497 369.487Z" fill="#D4B100"/>
<path d="M204.547 369.487C204.547 370.157 203.997 370.707 203.327 370.707C202.657 370.707 202.107 370.157 202.107 369.487C202.107 368.817 202.657 368.266 203.327 368.266C203.997 368.266 204.547 368.817 204.547 369.487Z" fill="white"/>
<path d="M77.5969 369.497C77.5969 368.297 78.5668 367.317 79.7668 367.317C80.9668 367.317 81.9465 368.297 81.9465 369.497C81.9465 370.697 80.9768 371.677 79.7668 371.677C78.5568 371.677 77.5969 370.707 77.5969 369.497Z" fill="#D4B100"/>
<path d="M78.5466 369.497C78.5466 368.827 79.0968 368.277 79.7668 368.277C80.4368 368.277 80.9866 368.827 80.9866 369.497C80.9866 370.167 80.4368 370.717 79.7668 370.717C79.0968 370.717 78.5466 370.167 78.5466 369.497Z" fill="white"/>
<path d="M205.497 17.2766C205.497 18.4766 204.527 19.4568 203.327 19.4568C202.127 19.4568 201.147 18.4766 201.147 17.2766C201.147 16.0766 202.117 15.0964 203.327 15.0964C204.537 15.0964 205.497 16.0666 205.497 17.2766Z" fill="#D4B100"/>
<path d="M204.547 17.2766C204.547 17.9466 203.997 18.4968 203.327 18.4968C202.657 18.4968 202.107 17.9466 202.107 17.2766C202.107 16.6066 202.657 16.0564 203.327 16.0564C203.997 16.0564 204.547 16.6066 204.547 17.2766Z" fill="white"/>
<path d="M77.5969 17.2766C77.5969 16.0766 78.5668 15.0964 79.7668 15.0964C80.9668 15.0964 81.9465 16.0766 81.9465 17.2766C81.9465 18.4766 80.9768 19.4568 79.7668 19.4568C78.5568 19.4568 77.5969 18.4866 77.5969 17.2766Z" fill="#D4B100"/>
<path d="M78.5466 17.2766C78.5466 16.6066 79.0968 16.0564 79.7668 16.0564C80.4368 16.0564 80.9866 16.6066 80.9866 17.2766C80.9866 17.9466 80.4368 18.4968 79.7668 18.4968C79.0968 18.4968 78.5466 17.9466 78.5466 17.2766Z" fill="white"/>
<path d="M205.497 105.326C205.497 106.526 204.527 107.507 203.327 107.507C202.127 107.507 201.147 106.526 201.147 105.326C201.147 104.126 202.117 103.147 203.327 103.147C204.537 103.147 205.497 104.116 205.497 105.326Z" fill="#D4B100"/>
<path d="M204.547 105.326C204.547 105.996 203.997 106.547 203.327 106.547C202.657 106.547 202.107 105.996 202.107 105.326C202.107 104.656 202.657 104.107 203.327 104.107C203.997 104.107 204.547 104.656 204.547 105.326Z" fill="white"/>
<path d="M77.5969 105.326C77.5969 104.126 78.5668 103.147 79.7668 103.147C80.9668 103.147 81.9465 104.126 81.9465 105.326C81.9465 106.526 80.9768 107.507 79.7668 107.507C78.5568 107.507 77.5969 106.536 77.5969 105.326Z" fill="#D4B100"/>
<path d="M78.5466 105.326C78.5466 104.656 79.0968 104.107 79.7668 104.107C80.4368 104.107 80.9866 104.656 80.9866 105.326C80.9866 105.996 80.4368 106.547 79.7668 106.547C79.0968 106.547 78.5466 105.996 78.5466 105.326Z" fill="white"/>
<path d="M206.857 365.997H76.2366" stroke="white" stroke-width="0.48" stroke-dasharray="2.88 2.88"/>
</g>
<path d="M94.6868 167.837L89.1467 162.297L94.6868 156.757" stroke="white" stroke-width="0.96" stroke-linecap="round" stroke-linejoin="round"/>
<path d="M189.677 156.757L195.217 162.297L189.677 167.837" stroke="white" stroke-width="0.96" stroke-linecap="round" stroke-linejoin="round"/>
<path d="M195.217 162.297H89.1467" stroke="white" stroke-width="0.96" stroke-linecap="round" stroke-linejoin="round"/>
<path d="M133.887 176.967C133.517 177.437 132.997 177.717 132.337 177.717C131.187 177.717 130.477 176.817 130.477 175.677C130.477 174.447 131.287 173.306 132.607 173.306C133.927 173.306 134.667 174.407 134.667 176.127C134.667 178.367 133.537 179.927 131.807 180.197C131.497 180.247 131.207 180.267 131.007 180.257V179.636C131.197 179.656 131.417 179.636 131.697 179.596C132.827 179.436 133.686 178.517 133.906 176.977H133.877L133.887 176.967ZM131.227 175.627C131.227 176.537 131.737 177.147 132.517 177.147C133.247 177.147 133.917 176.587 133.917 176.047C133.917 174.757 133.437 173.877 132.547 173.877C131.767 173.877 131.237 174.617 131.237 175.627H131.227Z" fill="white"/>
<path d="M135.377 176.806C135.377 174.446 136.297 173.306 137.557 173.306C138.817 173.306 139.617 174.517 139.617 176.717C139.617 179.057 138.797 180.266 137.457 180.266C136.237 180.266 135.377 179.056 135.377 176.806ZM138.857 176.757C138.857 175.077 138.457 173.906 137.507 173.906C136.707 173.906 136.137 174.977 136.137 176.757C136.137 178.537 136.637 179.656 137.477 179.656C138.477 179.656 138.857 178.357 138.857 176.757Z" fill="white"/>
<path d="M144.027 179.977C143.807 180.087 143.327 180.257 142.697 180.257C141.297 180.257 140.367 179.257 140.367 177.757C140.367 176.257 141.367 175.136 142.877 175.136C143.427 175.136 143.867 175.297 144.057 175.397L143.867 175.997C143.657 175.877 143.337 175.747 142.857 175.747C141.727 175.747 141.127 176.657 141.127 177.707C141.127 178.897 141.837 179.647 142.827 179.647C143.317 179.647 143.647 179.506 143.887 179.406L144.017 179.987L144.027 179.977Z" fill="white"/>
<path d="M151.747 180.156H151.007V177.317C151.007 176.367 150.667 175.747 149.927 175.747C149.327 175.747 148.777 176.316 148.777 177.056V180.147H148.037V177.127C148.037 176.347 147.707 175.747 147.007 175.747C146.367 175.747 145.797 176.377 145.797 177.147V180.156H145.057V176.507C145.057 176.007 145.037 175.647 145.017 175.237H145.677L145.717 176.027H145.747C146.017 175.547 146.467 175.127 147.237 175.127C147.877 175.127 148.367 175.527 148.577 176.107H148.597C148.917 175.517 149.417 175.127 150.177 175.127C150.777 175.127 151.737 175.517 151.737 177.197V180.147L151.747 180.156Z" fill="white"/>
<path d="M271.467 267.127C270.077 267.057 268.677 266.676 267.327 266.316C266.947 266.216 266.567 266.106 266.197 266.016C265.577 265.856 265.317 266.817 265.937 266.977C266.577 267.137 267.227 267.316 267.877 267.486C269.117 267.796 270.377 268.066 271.637 268.116C271.577 267.796 271.527 267.466 271.467 267.136V267.127Z" fill="#617462"/>
<path d="M234.367 218.317C235.327 215.927 235.067 213.536 234.367 211.136C234.217 211.576 234.197 212.027 234.097 212.457C233.997 212.907 233.656 213.207 233.216 213.127C232.946 213.077 232.637 212.796 232.497 212.536C232.347 212.256 232.387 211.867 232.287 211.547C232.147 211.107 232.036 210.627 231.776 210.257C230.556 208.457 229.327 206.656 228.047 204.906C227.447 204.086 226.737 203.347 226.047 202.607C225.917 202.467 225.607 202.496 225.087 202.386C225.727 203.236 226.167 203.827 226.617 204.417C227.477 205.557 228.346 206.687 229.196 207.837C229.436 208.167 229.697 208.516 229.787 208.886C229.847 209.156 229.716 209.557 229.526 209.777C229.296 210.047 228.887 210.057 228.607 209.797C228.267 209.477 227.977 209.097 227.687 208.727C226.577 207.257 225.507 205.777 224.387 204.317C223.977 203.787 223.506 203.276 222.986 202.846C222.816 202.706 222.426 202.846 221.906 202.846C223.736 204.926 225.317 206.707 226.867 208.507C227.257 208.967 227.577 209.497 227.877 210.027C228.067 210.357 227.927 210.756 227.607 210.906C227.337 211.036 226.896 211.087 226.676 210.937C226.296 210.687 226.037 210.256 225.727 209.906C224.287 208.276 222.856 206.647 221.406 205.027C221.246 204.847 221.016 204.717 220.736 204.497C220.626 204.837 220.466 205.087 220.526 205.167C220.806 205.547 221.167 205.867 221.477 206.227C222.577 207.517 223.687 208.806 224.747 210.136C225.027 210.486 225.197 210.967 225.297 211.417C225.337 211.617 225.147 211.977 224.957 212.087C224.767 212.207 224.396 212.197 224.196 212.087C223.916 211.937 223.697 211.646 223.497 211.386C222.867 210.586 222.277 209.757 221.637 208.967C221.467 208.757 221.317 208.387 220.797 208.587C221.167 209.287 221.487 209.947 221.847 210.587C223.677 213.857 225.777 216.946 228.117 219.866C228.937 220.886 229.586 221.987 230.026 223.217C230.646 224.947 231.247 226.676 231.867 228.406C231.987 228.756 232.147 229.097 232.337 229.547C233.327 228.917 234.197 228.377 235.047 227.837C235.527 227.527 235.997 227.216 236.477 226.906C236.147 226.416 235.827 225.927 235.517 225.417C235.317 225.077 235.117 224.717 235.087 224.317C235.087 224.287 235.087 224.247 235.087 224.217C235.027 224.057 234.957 223.897 234.867 223.747C233.837 222.007 233.617 220.206 234.367 218.326V218.317Z" fill="white"/>
<path d="M237.307 226.366C237.117 226.086 236.937 225.807 236.757 225.527C236.637 225.627 236.487 225.687 236.347 225.667C236.057 225.627 235.677 225.457 235.527 225.227C235.327 224.917 235.227 224.567 235.087 224.217C235.087 224.247 235.087 224.277 235.087 224.317C235.117 224.717 235.317 225.077 235.517 225.417C235.817 225.927 236.147 226.416 236.477 226.906C236.757 226.726 237.027 226.547 237.307 226.377V226.366Z" fill="white"/>
<path d="M235.527 225.216C235.677 225.446 236.047 225.626 236.347 225.656C236.497 225.676 236.637 225.616 236.757 225.516C236.687 225.396 236.607 225.287 236.537 225.167C236.397 224.937 236.107 224.566 236.077 224.306C236.027 223.706 235.137 223.667 235.087 224.207C235.227 224.547 235.327 224.906 235.527 225.216Z" fill="#617462"/>
<path d="M237.307 226.366C237.027 226.536 236.747 226.717 236.477 226.897C236.507 226.947 236.537 226.997 236.577 227.047C236.927 227.577 237.787 227.077 237.437 226.547C237.397 226.487 237.357 226.426 237.317 226.366H237.307Z" fill="#617462"/>
<path d="M242.107 266.877C242.187 266.837 242.256 266.787 242.316 266.727C242.186 266.297 242.117 265.857 242.107 265.427C242.087 264.787 241.097 264.787 241.117 265.427C241.137 265.947 241.217 266.477 241.367 266.987C241.617 267.027 241.877 266.986 242.107 266.866V266.877Z" fill="#617462"/>
<path d="M243.656 233.676C243.896 233.406 244.066 232.986 244.086 232.616C244.086 232.596 244.086 232.576 244.086 232.566C243.386 231.966 242.747 231.296 242.247 230.586C242.067 230.326 242.176 230.087 242.376 229.957C241.456 228.757 240.537 227.566 239.597 226.376C239.047 225.696 238.567 225.616 237.807 226.066C237.647 226.166 237.476 226.266 237.316 226.366C237.356 226.426 237.397 226.486 237.437 226.546C237.797 227.076 236.937 227.576 236.577 227.046C236.547 226.996 236.517 226.946 236.477 226.896C235.997 227.206 235.526 227.516 235.046 227.826C234.196 228.366 233.336 228.906 232.336 229.536C232.146 229.086 231.987 228.746 231.867 228.396C231.247 226.666 230.646 224.937 230.026 223.207C229.586 221.977 228.937 220.886 228.117 219.856C225.777 216.936 223.677 213.846 221.847 210.576C221.487 209.926 221.156 209.266 220.796 208.576C221.316 208.376 221.467 208.747 221.637 208.957C222.277 209.747 222.877 210.576 223.497 211.376C223.707 211.636 223.916 211.926 224.196 212.076C224.396 212.186 224.767 212.186 224.957 212.076C225.147 211.956 225.346 211.596 225.296 211.406C225.196 210.956 225.027 210.476 224.747 210.126C223.687 208.796 222.577 207.516 221.477 206.216C221.167 205.856 220.816 205.536 220.526 205.156C220.466 205.076 220.626 204.826 220.736 204.486C221.026 204.706 221.246 204.836 221.406 205.016C222.856 206.636 224.287 208.276 225.727 209.896C226.037 210.246 226.296 210.676 226.676 210.926C226.896 211.066 227.336 211.016 227.606 210.896C227.926 210.746 228.056 210.346 227.876 210.016C227.576 209.486 227.257 208.957 226.867 208.497C225.317 206.697 223.736 204.916 221.906 202.836C222.426 202.826 222.826 202.696 222.986 202.836C223.506 203.266 223.977 203.776 224.387 204.306C225.507 205.756 226.587 207.246 227.687 208.716C227.967 209.096 228.266 209.466 228.606 209.786C228.886 210.046 229.296 210.036 229.526 209.766C229.716 209.546 229.847 209.146 229.787 208.876C229.697 208.496 229.436 208.146 229.196 207.826C228.346 206.676 227.477 205.546 226.617 204.406C226.167 203.816 225.726 203.226 225.086 202.376C225.606 202.486 225.916 202.456 226.046 202.596C226.736 203.336 227.446 204.076 228.046 204.896C229.326 206.656 230.556 208.447 231.776 210.247C232.026 210.617 232.147 211.096 232.287 211.536C232.387 211.856 232.337 212.246 232.497 212.526C232.637 212.786 232.946 213.066 233.216 213.116C233.656 213.196 233.997 212.896 234.097 212.446C234.187 212.016 234.217 211.566 234.367 211.126C235.057 213.526 235.317 215.916 234.367 218.306C233.617 220.196 233.827 221.987 234.867 223.727C234.957 223.877 235.026 224.036 235.086 224.196C235.136 223.656 236.027 223.696 236.077 224.296C236.097 224.556 236.397 224.926 236.537 225.156C236.607 225.276 236.676 225.396 236.756 225.506C236.946 225.346 237.077 225.076 237.037 224.816C236.977 224.356 236.867 223.886 236.687 223.466C236.357 222.726 235.956 222.006 235.546 221.196C235.696 220.476 235.747 219.636 236.037 218.896C236.897 216.716 236.807 214.476 236.477 212.256C236.257 210.796 235.716 209.377 235.316 207.937C235.276 207.807 235.206 207.686 235.156 207.566C234.886 206.916 234.516 206.317 233.756 206.227C232.886 206.127 232.677 206.886 232.267 207.566C231.967 207.266 231.656 207.026 231.426 206.716C230.536 205.516 229.706 204.266 228.796 203.086C228.266 202.386 227.646 201.746 227.026 201.126C226.276 200.376 225.417 200.136 224.457 200.756C224.287 200.866 224.106 200.936 223.946 201.016C221.986 200.016 221.826 200.076 220.896 202.066C220.716 202.066 220.517 202.066 220.327 202.096C219.317 202.246 218.947 202.506 218.787 203.406C218.667 204.066 218.666 204.726 218.156 205.286C217.766 205.716 217.846 206.306 218.066 206.836C218.326 207.466 218.596 208.086 218.896 208.696C221.026 212.966 223.626 216.946 226.546 220.716C227.396 221.806 228.076 222.956 228.506 224.266C229.026 225.876 229.546 227.496 230.126 229.086C230.276 229.496 230.646 229.816 231.006 230.296C230.626 230.606 230.226 230.926 229.816 231.236C229.086 231.786 228.807 232.506 228.997 233.386C229.227 234.446 229.426 235.526 229.736 236.556C232.006 244.096 234.386 251.616 237.156 258.986C237.946 261.086 238.936 263.096 239.856 265.146C240.076 265.636 240.357 266.116 240.667 266.556C240.847 266.806 241.106 266.957 241.376 266.997C241.226 266.487 241.136 265.957 241.126 265.437C241.106 264.797 242.097 264.797 242.117 265.437C242.127 265.867 242.207 266.306 242.327 266.736C242.647 266.446 242.726 265.977 242.546 265.477C242.496 265.347 242.446 265.226 242.376 265.106C239.486 259.536 237.546 253.586 235.586 247.656C234.336 243.846 233.187 240.016 232.017 236.176C231.717 235.206 231.537 234.216 231.327 233.306C232.567 232.146 235.717 230.036 238.267 228.656C238.967 229.136 239.426 229.906 239.986 230.566C240.556 231.236 241.077 231.956 241.617 232.656C241.867 232.976 242.076 233.326 242.356 233.626C242.676 233.966 243.356 234.047 243.656 233.707V233.676Z" fill="#617462"/>
<path d="M242.247 230.587C242.747 231.297 243.387 231.967 244.087 232.567C244.087 232.277 243.897 231.947 243.717 231.707C243.277 231.127 242.827 230.537 242.387 229.957C242.187 230.087 242.077 230.327 242.257 230.587H242.247Z" fill="#617462"/>
<path d="M241.367 266.987C241.907 268.837 243.267 270.507 245.107 271.047C245.127 270.707 245.146 270.367 245.156 270.027C243.766 269.517 242.747 268.167 242.327 266.717C242.267 266.777 242.197 266.826 242.117 266.866C241.887 266.986 241.627 267.027 241.377 266.987H241.367Z" fill="#CCCCCC"/>
<path d="M246.347 254.687C246.667 253.277 246.957 251.957 247.247 250.647C249.407 240.717 252.516 231.127 257.406 222.177C258.966 219.317 260.717 216.567 262.377 213.757C262.637 213.307 262.887 212.847 263.197 212.297C261.297 212.117 259.587 211.957 257.877 211.797C257.867 211.797 257.857 211.797 257.847 211.797C256.357 213.637 255.267 215.587 254.337 217.627C251.887 222.987 249.887 228.507 248.457 234.207C248.177 235.287 247.927 236.377 247.697 237.477C246.967 240.927 246.347 244.407 245.837 247.897C245.587 249.627 245.696 251.417 245.676 253.177C245.676 253.697 245.747 254.237 246.367 254.697L246.347 254.687Z" fill="white"/>
<path d="M244.087 232.567C244.737 233.127 245.457 233.617 246.177 234.027C246.257 233.697 246.347 233.367 246.437 233.027C245.177 232.267 243.927 231.246 243.107 230.076C242.917 229.806 242.597 229.806 242.387 229.946C242.837 230.526 243.277 231.116 243.717 231.696C243.897 231.936 244.087 232.276 244.087 232.556V232.567Z" fill="#CCCCCC"/>
<path d="M246.697 270.766C246.697 270.516 246.537 270.267 246.217 270.247C245.847 270.237 245.487 270.157 245.147 270.027C245.147 270.367 245.117 270.707 245.097 271.047C245.447 271.157 245.827 271.217 246.207 271.237C246.527 271.247 246.687 271.006 246.687 270.766H246.697Z" fill="#617462"/>
<path d="M247.177 233.457C246.927 233.327 246.687 233.186 246.437 233.036C246.347 233.366 246.257 233.696 246.177 234.036C246.347 234.136 246.507 234.227 246.677 234.317C247.027 234.497 247.357 234.237 247.417 233.947C247.457 233.767 247.397 233.577 247.177 233.467V233.457Z" fill="#617462"/>
<path d="M246.696 270.766H247.257C247.257 269.716 247.257 268.657 247.257 267.597C247.257 266.887 247.067 266.257 246.627 265.697C246.267 265.227 245.657 265.077 245.167 265.327C244.777 265.527 244.497 266.037 244.687 266.547C245.117 267.697 245.177 268.856 245.137 270.036C245.467 270.156 245.827 270.237 246.207 270.257C246.527 270.277 246.687 270.527 246.687 270.777L246.696 270.766Z" fill="#617462"/>
<path d="M262.607 384.727C261.357 384.767 259.917 384.627 258.647 384.227C258.667 384.327 258.667 384.437 258.677 384.547C258.747 386.517 258.716 388.487 258.656 390.457C258.636 391.307 258.167 391.907 257.377 392.377C254.437 394.137 251.247 395.287 248.007 396.337C247.377 396.537 246.767 396.767 246.067 397.007C247.067 397.797 247.297 397.916 248.297 398.016C249.997 398.196 251.687 398.136 253.377 397.826C254.377 397.646 255.386 397.487 256.406 397.457C257.116 397.437 257.617 397.647 257.917 398.067C260.527 397.517 263.397 397.747 265.807 396.497C266.037 396.377 266.257 396.446 266.397 396.596C266.397 396.006 266.397 395.416 266.397 394.826C266.247 394.936 266.107 395.057 265.957 395.167C265.547 394.547 265.257 393.736 264.677 393.346C263.967 392.866 263.637 392.347 263.587 391.547C263.557 391.007 263.447 390.467 263.367 389.927C263.107 388.197 262.847 386.467 262.587 384.737L262.607 384.727Z" fill="white"/>
<path d="M253.147 379.797C253.147 380.587 252.957 381.436 253.507 382.136C254.447 382.576 255.437 382.457 256.397 382.527C256.547 382.287 256.907 382.146 257.187 382.386C257.877 382.986 258.977 383.196 259.837 383.406C260.687 383.616 261.567 383.727 262.447 383.727C262.007 380.817 261.577 377.897 261.137 374.987C260.507 370.817 259.917 366.647 259.247 362.487C258.417 357.317 257.537 352.157 256.637 347.007C255.517 340.647 254.357 334.297 253.207 327.947C253.107 327.367 252.937 326.797 252.707 325.857C252.347 326.867 252.477 327.526 252.487 328.156C252.637 336.936 252.807 345.707 252.947 354.487C253.007 358.157 253.027 361.837 253.047 365.507C253.077 370.267 253.087 375.027 253.127 379.797H253.147Z" fill="#F7DDC0"/>
<path d="M256.497 383.096C257.077 383.596 257.817 383.967 258.647 384.227C258.497 383.177 257.767 382.656 256.547 382.536C256.497 382.536 256.457 382.537 256.407 382.527C256.307 382.697 256.297 382.916 256.497 383.096Z" fill="#617462"/>
<path d="M266.267 268.346C265.237 267.666 264.097 267.707 262.887 267.547C262.697 268.047 262.487 268.467 262.377 268.917C261.397 272.807 260.417 276.697 259.477 280.587C258.527 284.487 257.617 288.386 256.677 292.286C256.437 293.266 256.137 294.226 255.827 295.306C258.527 296.476 261.237 297.367 263.947 298.207C264.157 298.267 264.367 298.336 264.567 298.406C264.627 298.376 264.687 298.347 264.747 298.317C265.107 298.127 265.437 298.397 265.487 298.697C267.677 299.387 269.867 300.077 272.087 300.507C272.657 300.027 273.097 299.597 273.597 299.247C273.987 298.977 274.417 298.737 274.857 298.547C275.827 297.967 276.867 297.487 277.947 297.147C277.757 296.987 277.577 296.796 277.417 296.576C277.267 296.386 277.157 296.177 277.047 295.967C276.747 295.877 276.487 295.657 276.387 295.377C276.317 295.187 276.277 294.986 276.237 294.786C276.227 294.716 276.217 294.657 276.207 294.587C275.817 292.307 275.427 290.037 275.037 287.757C274.017 281.867 272.997 275.986 271.987 270.096C271.927 269.726 271.857 269.357 271.797 268.977C270.737 269.067 268.037 268.767 266.837 268.507C266.677 268.507 266.497 268.467 266.327 268.357C266.317 268.357 266.297 268.347 266.287 268.337L266.267 268.346Z" fill="#617462"/>
<path d="M246.437 233.037C246.687 233.187 246.937 233.327 247.177 233.457C247.397 233.567 247.457 233.767 247.417 233.937L248.447 234.197C249.877 228.497 251.877 222.977 254.327 217.617C255.257 215.577 256.347 213.627 257.837 211.787C257.847 211.787 257.857 211.787 257.867 211.787L257.906 211.347C257.596 211.317 257.297 210.967 257.477 210.597C257.647 210.267 257.807 209.927 257.957 209.587C257.917 209.567 257.877 209.537 257.837 209.517C257.397 209.237 256.887 209.407 256.527 209.767C256.197 210.097 255.907 210.487 255.637 210.877C254.167 212.927 252.987 215.147 251.947 217.447C249.667 222.517 247.837 227.717 246.427 233.047L246.437 233.037Z" fill="#617462"/>
<path d="M258.337 211.096C258.517 210.726 258.687 210.357 258.867 209.987C258.557 209.887 258.257 209.757 257.967 209.587C257.807 209.927 257.647 210.266 257.487 210.596C257.307 210.966 257.607 211.316 257.917 211.346C258.077 211.366 258.247 211.296 258.347 211.096H258.337Z" fill="#617462"/>
<path d="M258.247 182.777C258.707 182.857 259.137 182.457 259.167 181.917C259.197 181.387 258.877 180.927 258.427 180.867C257.967 180.807 257.537 181.207 257.497 181.727C257.467 182.257 257.777 182.697 258.247 182.777Z" fill="#617462"/>
<path d="M255.327 400.177C256.227 399.547 257.227 399.187 258.267 398.957C258.267 398.957 258.267 398.957 258.267 398.947C258.207 398.587 258.087 398.296 257.917 398.056C256.827 398.286 255.777 398.657 254.827 399.317C254.307 399.677 254.807 400.547 255.327 400.177Z" fill="#617462"/>
<path d="M258.867 209.987C259.297 209.037 259.716 208.076 260.156 207.136C259.786 206.966 259.547 206.627 259.517 206.187C258.967 207.307 258.487 208.456 257.967 209.576C258.267 209.756 258.567 209.887 258.867 209.977V209.987Z" fill="white"/>
<path d="M260.467 206.487C260.747 205.917 259.897 205.407 259.607 205.987C259.577 206.057 259.547 206.117 259.507 206.187C259.537 206.627 259.777 206.966 260.147 207.136C260.247 206.916 260.357 206.707 260.457 206.487H260.467Z" fill="#617462"/>
<path d="M258.427 180.866C257.967 180.806 257.537 181.207 257.497 181.727C257.467 182.257 257.777 182.697 258.247 182.777C258.707 182.857 259.137 182.457 259.167 181.917C259.197 181.387 258.877 180.926 258.427 180.866ZM264.707 196.147C264.687 196.607 264.937 197.067 265.457 197.317C266.307 197.727 267.207 198.116 268.127 198.266C269.667 198.506 271.237 198.536 272.787 198.656C273.117 198.676 273.447 198.687 273.827 198.707C274.267 199.707 274.217 200.707 274.177 201.737C269.977 203.457 267.497 206.986 264.827 210.286C263.877 210.286 263.137 210.306 262.397 210.286C261.207 210.256 260.007 210.357 258.867 209.997C259.297 209.047 259.716 208.087 260.156 207.147C260.176 207.157 260.197 207.167 260.227 207.177C260.697 207.367 261.267 207.086 261.567 206.536C261.597 206.476 261.636 206.417 261.656 206.357C262.616 203.527 262.897 200.657 262.067 197.737C261.657 196.277 260.617 195.457 259.197 195.127C258.337 194.927 257.447 194.877 256.577 194.747C256.337 194.707 256.107 194.607 255.777 194.507C255.927 194.237 255.997 193.967 256.107 193.947C257.737 193.647 258.167 192.327 258.607 191.027C258.807 190.427 258.457 189.826 257.757 189.596C256.807 189.286 255.807 189.116 254.677 188.846C254.067 187.886 253.347 186.747 252.547 185.497C252.757 185.307 252.977 185.076 253.227 184.906C254.847 183.856 255.837 182.377 256.337 180.527C256.677 179.287 257.057 178.047 257.447 176.817C257.667 176.107 257.907 175.387 258.837 175.027C259.007 175.277 259.237 175.506 259.357 175.786C261.277 180.006 262.217 184.427 261.897 189.067C261.817 190.217 261.557 191.357 261.377 192.497C261.337 192.767 261.227 193.026 261.237 193.286C261.237 193.716 261.477 194.057 261.877 194.247C262.117 194.357 262.417 194.367 262.677 194.277C263.227 194.997 263.937 195.646 264.707 196.136V196.147Z" fill="white"/>
<path d="M261.457 300.877C261.607 300.727 261.757 300.577 261.907 300.437C261.777 300.397 261.617 300.387 261.457 300.397C261.097 300.697 261.067 301.157 261.457 301.577C261.587 301.727 261.757 301.757 261.897 301.717C261.487 301.777 261.087 301.247 261.457 300.877Z" fill="#617462"/>
<path d="M262.577 301.056C262.457 300.746 262.237 300.527 261.917 300.437C261.767 300.577 261.606 300.727 261.466 300.877C261.096 301.247 261.496 301.787 261.906 301.717C262.156 301.647 262.357 301.366 262.287 301.096C262.387 301.076 262.487 301.056 262.587 301.056H262.577Z" fill="#617462"/>
<path d="M262.277 300.096C262.277 300.096 262.237 300.086 262.217 300.076C262.067 300.106 261.917 300.147 261.777 300.207C261.657 300.257 261.547 300.317 261.467 300.397C261.637 300.387 261.787 300.397 261.917 300.437C262.037 300.327 262.157 300.206 262.277 300.096Z" fill="#CCCCCC"/>
<path d="M262.317 300.056C262.317 300.056 262.257 300.057 262.217 300.067C262.237 300.067 262.257 300.077 262.277 300.087C262.287 300.077 262.297 300.066 262.317 300.056Z" fill="#617462"/>
<path d="M258.647 384.227C259.917 384.627 261.357 384.767 262.607 384.727C262.557 384.397 262.507 384.057 262.457 383.727C261.577 383.727 260.707 383.617 259.847 383.407C258.987 383.197 257.887 382.986 257.197 382.386C256.917 382.136 256.556 382.287 256.406 382.527C256.456 382.527 256.497 382.526 256.547 382.536C257.767 382.656 258.497 383.167 258.647 384.227Z" fill="#F7DDC0"/>
<path d="M262.167 301.576C262.317 301.426 262.467 301.286 262.617 301.136C262.617 301.106 262.597 301.076 262.587 301.056C262.487 301.056 262.387 301.076 262.287 301.096C262.357 301.366 262.156 301.647 261.906 301.717C261.996 301.697 262.087 301.656 262.167 301.576Z" fill="#617462"/>
<path d="M263.357 193.536C263.207 193.326 263.067 193.107 262.947 192.877C262.647 192.307 261.787 192.817 262.087 193.377C262.247 193.687 262.447 193.996 262.677 194.286C262.877 194.216 263.057 194.096 263.157 193.926C263.227 193.806 263.297 193.666 263.357 193.536Z" fill="#617462"/>
<path d="M262.687 301.036C262.687 301.036 262.617 301.037 262.577 301.047C262.587 301.077 262.597 301.097 262.607 301.127C262.637 301.097 262.677 301.057 262.707 301.027H262.687V301.036Z" fill="#F7DDC0"/>
<path d="M262.717 301.036C262.937 300.826 263.157 300.637 263.387 300.437C263.017 300.327 262.647 300.207 262.277 300.087C262.157 300.197 262.037 300.307 261.917 300.427C262.237 300.517 262.467 300.737 262.577 301.047C262.617 301.047 262.647 301.046 262.687 301.036H262.707H262.717Z" fill="#CCCCCC"/>
<path d="M264.367 300.747C264.037 300.647 263.707 300.547 263.387 300.437C263.157 300.627 262.937 300.826 262.717 301.036C263.127 301.016 263.537 301.007 263.947 301.007C264.167 301.007 264.307 300.897 264.377 300.747H264.367Z" fill="#CCCCCC"/>
<path d="M276.637 170.707C272.247 168.267 267.807 168.356 263.347 170.506C262.247 171.036 261.257 171.757 260.347 172.727C260.577 173.177 260.787 173.596 260.997 174.006C263.107 178.136 264.157 182.536 264.227 187.156C264.247 189.056 264.127 190.966 263.627 192.816C263.557 193.066 263.477 193.306 263.367 193.536C263.847 194.206 264.487 194.806 265.177 195.266C265.487 195.056 265.917 195.056 266.477 195.306C268.587 196.256 270.807 196.446 273.067 196.286C275.327 196.126 277.497 195.607 279.447 194.377C281.477 193.097 282.687 191.306 282.857 188.886C282.917 188.006 282.977 187.116 282.917 186.236C282.807 184.546 282.587 182.856 282.457 181.156C282.297 179.016 281.557 177.056 280.707 175.116C279.857 173.176 278.467 171.726 276.637 170.696V170.707Z" fill="#617462"/>
<path d="M264.047 383.977C264.007 383.787 263.847 383.637 263.587 383.667C263.217 383.707 262.837 383.727 262.467 383.727C262.517 384.057 262.567 384.397 262.617 384.727C262.957 384.717 263.287 384.686 263.597 384.656C263.967 384.616 264.117 384.257 264.057 383.977H264.047Z" fill="#617462"/>
<path d="M263.387 300.447C263.557 300.297 263.737 300.157 263.917 300.027C263.427 300.027 262.837 299.987 262.317 300.067C262.307 300.067 262.287 300.087 262.277 300.097C262.647 300.217 263.017 300.337 263.387 300.447Z" fill="#617462"/>
<path d="M263.387 300.447C263.717 300.547 264.037 300.657 264.367 300.757C264.507 300.467 264.367 300.027 263.937 300.027H263.917C263.737 300.167 263.557 300.307 263.387 300.447Z" fill="#617462"/>
<path d="M252.387 324.627L252.317 324.717L252.397 324.806V324.627H252.387ZM262.457 383.727C262.017 380.817 261.587 377.897 261.147 374.987C260.517 370.817 259.927 366.647 259.257 362.487C258.427 357.317 257.547 352.157 256.647 347.007C255.527 340.647 254.367 334.297 253.217 327.947C253.117 327.367 252.947 326.797 252.717 325.857C252.357 326.867 252.487 327.526 252.497 328.156C252.647 336.936 252.817 345.707 252.957 354.487C253.017 358.157 253.037 361.837 253.057 365.507C253.087 370.267 253.097 375.027 253.137 379.797C253.137 380.587 252.947 381.436 253.497 382.136C254.437 382.576 255.427 382.457 256.387 382.527C256.287 382.697 256.277 382.916 256.477 383.096C257.057 383.596 257.797 383.967 258.627 384.227C258.647 384.327 258.647 384.437 258.657 384.547C258.727 386.517 258.697 388.487 258.637 390.457C258.617 391.307 258.147 391.907 257.357 392.377C254.417 394.137 251.227 395.287 247.987 396.337C247.357 396.537 246.747 396.767 246.047 397.007C247.047 397.797 247.277 397.916 248.277 398.016C249.977 398.196 251.667 398.136 253.357 397.826C254.357 397.646 255.367 397.487 256.387 397.457C257.097 397.437 257.597 397.647 257.897 398.067C256.807 398.297 255.757 398.666 254.807 399.326C254.287 399.686 254.787 400.557 255.307 400.187C256.207 399.557 257.207 399.197 258.247 398.967C258.377 399.747 257.947 400.347 256.917 400.737C256.407 400.927 255.887 401.087 255.347 401.197C251.527 401.977 247.667 402.317 243.787 402.067C242.377 401.977 240.987 401.557 239.607 401.217C239.027 401.067 238.477 400.747 237.957 400.437C237.217 399.987 236.747 399.316 236.867 398.406C236.977 397.576 237.547 397.096 238.307 396.846C239.277 396.536 240.267 396.267 241.237 395.967C244.677 394.897 248.127 393.877 251.527 392.707C252.927 392.227 254.217 391.417 255.547 390.747C255.987 390.527 256.367 390.217 256.427 389.697C256.587 388.147 256.787 386.607 256.337 385.027C255.357 384.887 254.417 384.777 253.477 384.607C251.607 384.277 250.947 383.507 250.867 381.567C250.847 381.027 250.867 380.477 250.867 379.937C250.997 363.127 250.877 346.327 250.477 329.527C250.457 328.507 250.407 327.487 250.327 326.467C249.987 321.787 249.627 317.107 249.287 312.427C249.247 311.887 249.157 311.286 249.347 310.826C249.637 310.136 249.557 309.536 249.397 308.866C248.237 303.976 247.077 299.087 245.967 294.187C245.637 292.737 245.347 291.257 245.217 289.777C244.707 283.867 244.737 277.956 245.027 272.036C245.037 271.726 245.057 271.407 245.077 271.087C245.427 271.197 245.807 271.257 246.187 271.277C246.507 271.287 246.667 271.046 246.667 270.806H247.227C247.227 271.186 247.227 271.557 247.207 271.917C247.077 276.887 246.997 281.847 247.237 286.817C247.357 289.467 247.667 292.096 248.427 294.656C249.007 296.596 250.227 298.107 251.947 298.967C254.747 300.367 257.677 301.506 260.957 300.516C261.127 300.466 261.287 300.437 261.427 300.427C261.067 300.727 261.037 301.187 261.427 301.607C261.557 301.757 261.727 301.787 261.867 301.747C261.957 301.727 262.047 301.687 262.127 301.607C262.277 301.457 262.427 301.317 262.577 301.167C262.577 301.197 262.597 301.227 262.597 301.257C262.747 301.847 262.327 302.437 261.467 302.717C260.157 303.127 258.827 303.316 257.447 303.116C255.137 302.786 252.957 302.046 250.857 301.056C250.577 300.926 250.307 300.616 249.897 301.016C250.017 301.636 250.147 302.287 250.277 302.947C251.287 307.667 252.377 312.366 253.307 317.096C254.687 324.096 255.977 331.116 257.247 338.136C258.437 344.686 259.577 351.257 260.677 357.817C261.457 362.437 262.127 367.087 262.847 371.717C263.477 375.777 264.077 379.836 264.707 383.886L263.997 383.997C263.957 383.807 263.797 383.657 263.537 383.687C263.167 383.727 262.787 383.747 262.417 383.747L262.457 383.727Z" fill="#617462"/>
<path d="M264.577 298.406C263.747 298.856 263.007 299.426 262.317 300.056C262.837 299.976 263.427 300.016 263.917 300.016C264.337 299.706 264.777 299.417 265.257 299.167C265.467 299.057 265.527 298.877 265.497 298.697C265.187 298.597 264.887 298.506 264.577 298.406Z" fill="#617462"/>
<path d="M265.177 195.257C264.477 194.797 263.847 194.197 263.367 193.527C263.307 193.657 263.237 193.797 263.167 193.917C263.067 194.087 262.887 194.207 262.687 194.277C263.237 194.997 263.947 195.646 264.717 196.136C264.717 195.946 264.777 195.767 264.877 195.587C264.957 195.447 265.067 195.327 265.187 195.247L265.177 195.257Z" fill="#617462"/>
<path d="M264.577 298.406C264.887 298.506 265.197 298.596 265.497 298.696C265.447 298.396 265.107 298.127 264.757 298.317C264.697 298.347 264.637 298.376 264.577 298.406Z" fill="#617462"/>
<path d="M265.817 196.737C266.397 196.987 266.907 196.127 266.317 195.877C265.927 195.707 265.547 195.507 265.177 195.257C265.057 195.337 264.947 195.456 264.867 195.596C264.767 195.766 264.717 195.957 264.707 196.147C265.067 196.377 265.437 196.577 265.817 196.737Z" fill="#617462"/>
<path d="M258.267 398.957C260.917 398.377 263.857 398.616 266.317 397.346C266.347 397.326 266.376 397.306 266.406 397.286V396.586C266.266 396.436 266.047 396.366 265.817 396.486C263.407 397.746 260.537 397.506 257.927 398.056C258.097 398.286 258.207 398.586 258.277 398.946C258.277 398.946 258.277 398.947 258.277 398.957H258.267Z" fill="white"/>
<path d="M266.197 266.006C266.567 266.096 266.947 266.206 267.327 266.306C267.087 266.086 266.817 265.906 266.537 265.846C265.217 265.536 263.877 265.296 262.527 265.116C261.677 264.996 261.107 265.387 260.777 266.207C260.577 266.707 260.447 267.236 260.317 267.766C258.417 275.556 256.527 283.346 254.617 291.136C254.407 291.996 254.027 292.817 253.897 293.687C253.487 296.447 253.447 296.927 256.037 297.917C258.077 298.697 260.137 299.406 262.217 300.076C262.247 300.076 262.277 300.066 262.317 300.066C263.007 299.436 263.747 298.867 264.577 298.417C264.367 298.347 264.167 298.286 263.957 298.216C261.247 297.366 258.537 296.486 255.837 295.316C256.147 294.226 256.447 293.266 256.687 292.296C257.627 288.396 258.537 284.496 259.487 280.596C260.437 276.696 261.407 272.816 262.387 268.926C262.497 268.476 262.707 268.056 262.897 267.556C264.107 267.726 265.247 267.677 266.277 268.357C266.287 268.357 266.307 268.377 266.317 268.377C266.417 268.417 266.597 268.466 266.827 268.526C267.107 268.526 267.357 268.366 267.547 268.136C267.717 267.936 267.837 267.717 267.877 267.477C267.227 267.307 266.577 267.136 265.937 266.966C265.317 266.806 265.577 265.856 266.197 266.006Z" fill="#617462"/>
<path d="M266.406 396.587V397.286C266.646 397.096 266.596 396.777 266.406 396.587Z" fill="#617462"/>
<path d="M267.547 268.136C267.347 268.366 267.097 268.517 266.827 268.527C268.027 268.787 270.737 269.087 271.787 268.997C271.767 268.887 271.747 268.776 271.727 268.656C270.597 268.296 267.867 267.667 267.867 267.477C267.827 267.717 267.707 267.936 267.537 268.136H267.547Z" fill="#617462"/>
<path d="M271.427 266.866C270.237 266.796 269.047 266.537 267.877 266.247C267.507 266.247 267.287 266.277 267.337 266.317C268.687 266.677 270.087 267.057 271.477 267.127C271.467 267.037 271.447 266.956 271.437 266.866H271.427Z" fill="#617462"/>
<path d="M270.517 265.797C268.317 265.337 263.827 264.186 262.687 264.036C261.837 263.916 261.097 265.387 260.777 266.207C261.107 265.387 261.677 264.997 262.527 265.117C263.867 265.297 265.217 265.537 266.537 265.847C266.817 265.907 267.087 266.096 267.327 266.306C267.287 266.266 267.507 266.247 267.867 266.237C267.917 265.937 267.866 265.637 267.656 265.407C267.556 265.297 267.447 265.176 267.327 265.076C268.367 265.356 269.437 265.647 270.517 265.797Z" fill="#617462"/>
<path d="M267.877 266.247C268.697 266.227 270.247 266.247 271.327 266.247C271.307 266.147 271.297 266.047 271.277 265.947C271.077 265.917 270.817 265.866 270.527 265.806C269.457 265.656 268.387 265.367 267.337 265.087C267.457 265.187 267.567 265.307 267.667 265.417C267.877 265.647 267.937 265.947 267.877 266.247Z" fill="#617462"/>
<path d="M271.317 266.237C270.237 266.237 268.687 266.217 267.867 266.237C269.037 266.527 270.227 266.787 271.417 266.857C271.387 266.647 271.347 266.447 271.317 266.237Z" fill="#617462"/>
<path d="M268.637 405.627C269.417 405.477 270.247 405.546 271.057 405.536C272.547 405.526 273.607 404.787 274.347 403.737C274.347 402.867 274.347 402.147 274.347 401.377C273.647 401.107 273.287 400.547 273.327 399.687C273.377 398.607 273.377 397.517 273.377 396.427C273.377 395.967 273.307 395.517 273.267 394.947C271.827 394.947 270.487 394.947 269.007 394.947C268.957 395.277 268.867 395.647 268.847 396.027C268.807 397.047 268.847 398.066 268.757 399.076C268.627 400.416 268.056 400.657 266.656 400.107C266.596 400.087 266.527 400.087 266.507 400.087C262.107 402.677 257.747 405.236 253.387 407.806C256.377 408.436 259.147 407.887 261.917 407.147C264.137 406.547 266.397 406.077 268.647 405.627H268.637Z" fill="white"/>
<path d="M271.257 265.877C271.007 265.857 270.757 265.837 270.517 265.797C270.817 265.857 271.067 265.907 271.267 265.937C271.267 265.917 271.267 265.897 271.267 265.877H271.257Z" fill="#617462"/>
<path d="M271.257 265.877C271.257 265.877 271.257 265.917 271.257 265.937C271.337 265.947 271.407 265.957 271.477 265.967C271.477 265.937 271.477 265.916 271.467 265.886C271.397 265.886 271.327 265.887 271.257 265.877Z" fill="#617462"/>
<path d="M271.267 265.947C271.287 266.047 271.297 266.147 271.317 266.247H271.527C271.507 266.157 271.497 266.077 271.487 265.987C271.427 265.987 271.357 265.967 271.267 265.957V265.947Z" fill="#617462"/>
<path d="M271.317 266.237C271.347 266.447 271.387 266.647 271.417 266.857C271.487 266.857 271.557 266.857 271.627 266.857C271.587 266.647 271.557 266.437 271.517 266.227H271.307L271.317 266.237Z" fill="#617462"/>
<path d="M271.637 268.096C270.377 268.046 269.117 267.777 267.877 267.467C267.877 267.657 270.607 268.286 271.737 268.656C271.707 268.466 271.677 268.286 271.647 268.096H271.637Z" fill="#617462"/>
<path d="M271.487 265.977C271.497 266.067 271.517 266.157 271.527 266.237C272.587 266.227 273.037 266.167 271.487 265.977Z" fill="#617462"/>
<path d="M271.727 268.656C271.747 268.766 271.767 268.877 271.787 268.997C272.007 268.977 272.157 268.946 272.207 268.886C272.247 268.846 272.057 268.766 271.737 268.656H271.727Z" fill="#617462"/>
<path d="M273.087 303.007C272.977 303.157 272.747 303.666 273.187 303.866C273.137 303.436 273.027 303.127 273.087 303.007Z" fill="white"/>
<path d="M273.017 267.076C272.507 267.146 271.987 267.157 271.467 267.127C271.517 267.457 271.577 267.777 271.637 268.107C272.187 268.127 272.737 268.106 273.287 268.036C273.587 267.996 273.677 267.766 273.637 267.536C273.587 267.276 273.357 267.026 273.027 267.076H273.017Z" fill="#617462"/>
<path d="M267.927 238.266C267.237 237.916 266.377 238.636 266.527 239.446C266.747 240.576 267.087 241.687 267.287 242.817C267.967 246.627 268.627 250.437 269.277 254.247C269.937 258.127 270.587 261.997 271.247 265.877C271.317 265.877 271.387 265.876 271.457 265.886C271.457 265.916 271.457 265.936 271.467 265.966C273.027 266.166 272.567 266.217 271.507 266.227C271.537 266.437 271.577 266.647 271.617 266.857C271.547 266.857 271.477 266.857 271.407 266.857C271.417 266.947 271.437 267.026 271.447 267.116C271.967 267.146 272.487 267.137 272.997 267.067C273.327 267.027 273.567 267.276 273.607 267.526L273.787 267.497C272.867 262.227 271.967 256.957 271.057 251.687C270.457 248.207 269.867 244.726 269.257 241.256C269.127 240.526 268.977 239.777 268.727 239.087C268.597 238.757 268.237 238.436 267.907 238.256L267.927 238.266Z" fill="#617462"/>
<path d="M273.177 303.877C273.637 304.087 273.957 303.076 274.307 302.786C273.957 303.036 273.667 303.387 273.177 303.877Z" fill="white"/>
<path d="M271.707 212.457C270.507 212.917 269.277 213.317 268.077 213.787C266.927 214.237 266.617 214.827 266.897 216.007C267.037 216.597 267.287 217.167 267.497 217.737C267.677 218.247 267.867 218.757 268.037 219.277C268.287 220.037 268.217 220.727 267.707 221.387C266.747 222.617 265.827 223.887 264.877 225.127C262.407 228.367 259.927 231.607 257.457 234.847C257.087 235.337 256.757 235.857 256.457 236.387C256.297 236.677 256.146 237.027 256.156 237.337C256.156 237.647 256.307 238.017 256.517 238.227C256.827 238.537 257.317 238.547 257.647 238.297C258.007 238.017 258.327 237.637 258.577 237.247C260.647 233.967 263.047 230.917 265.507 227.927C266.887 226.247 268.197 224.507 269.567 222.817C270.657 221.477 270.887 220.037 270.237 218.437C269.927 217.687 269.716 216.897 269.406 215.967C270.456 215.267 271.537 215.037 272.517 214.617C273.197 214.317 273.917 214.077 274.567 213.717C275.657 213.107 276.266 212.157 276.176 210.867C276.096 209.717 275.987 208.567 275.837 207.427C275.777 206.937 275.277 206.597 274.817 206.587C274.297 206.577 273.817 207.027 273.757 207.617C273.727 207.887 273.737 208.157 273.757 208.427C273.787 209.037 273.847 209.647 273.847 210.257C273.847 210.657 273.797 211.057 273.757 211.567C273.067 211.867 272.407 212.187 271.717 212.457H271.707Z" fill="#617462"/>
<path d="M274.117 300.237C274.787 299.747 275.487 299.307 276.227 298.937C275.947 298.537 275.467 298.307 275.037 298.487C274.977 298.507 274.927 298.536 274.867 298.556C274.437 298.816 274.017 299.087 273.617 299.387C273.107 299.757 273.597 300.627 274.117 300.247V300.237Z" fill="#617462"/>
<path d="M276.107 300.277C276.467 299.957 276.507 299.377 276.247 298.977C275.837 299.237 275.807 299.357 275.447 299.677C275.197 299.897 274.757 300.517 274.517 300.747C273.777 301.437 273.397 302.127 273.097 302.987C273.797 302.247 274.527 301.547 275.277 300.857C275.517 300.627 275.857 300.497 276.107 300.277Z" fill="white"/>
<path d="M272.517 214.616C273.197 214.316 273.917 214.077 274.567 213.717C275.657 213.107 276.267 212.156 276.177 210.866C276.097 209.716 275.987 208.567 275.837 207.427C275.777 206.937 275.277 206.597 274.817 206.587C274.297 206.577 273.817 207.026 273.757 207.616C273.727 207.886 273.737 208.157 273.757 208.427C273.787 209.037 273.847 209.647 273.847 210.257C273.847 210.657 273.797 211.057 273.757 211.567C273.067 211.867 272.407 212.187 271.717 212.457C270.517 212.917 269.287 213.316 268.087 213.786C266.937 214.236 266.626 214.827 266.906 216.007C267.046 216.597 267.297 217.167 267.507 217.737C267.687 218.247 267.877 218.757 268.047 219.277C268.297 220.037 268.227 220.726 267.717 221.386C266.757 222.616 265.837 223.887 264.887 225.127C262.417 228.367 259.937 231.606 257.467 234.846C257.097 235.336 256.767 235.856 256.467 236.386C256.307 236.676 256.157 237.027 256.167 237.337C256.167 237.647 256.317 238.017 256.527 238.227C256.837 238.537 257.326 238.547 257.656 238.297C258.016 238.017 258.337 237.637 258.587 237.247C260.657 233.967 263.057 230.917 265.517 227.927C266.897 226.247 268.207 224.507 269.577 222.817C270.667 221.477 270.897 220.037 270.247 218.437C269.937 217.687 269.727 216.897 269.417 215.967C270.467 215.267 271.547 215.036 272.527 214.616H272.517ZM274.987 204.116C275.377 203.996 275.777 203.897 276.137 203.727C276.207 203.697 276.267 203.667 276.327 203.627C277.797 204.637 278.587 206.166 279.257 207.766C278.887 207.946 278.617 208.336 278.667 208.766C278.687 208.966 278.727 209.177 278.807 209.357C280.817 213.687 282.097 218.277 283.477 222.817C284.647 226.657 285.227 230.646 285.597 234.636C286.187 240.936 286.737 247.237 287.107 253.547C287.457 259.527 287.417 265.517 287.077 271.497C286.907 274.417 286.707 277.337 286.457 280.247C286.127 284.107 285.747 287.966 285.387 291.826C285.317 292.566 285.267 293.317 285.197 294.067C285.127 294.737 285.167 295.437 284.697 296.067C283.727 296.347 282.717 296.067 281.707 296.067C281.097 296.067 280.487 296.057 279.887 296.147C279.537 296.197 279.277 296.427 279.137 296.727C278.677 296.457 278.387 296.097 278.127 295.707C278.257 295.577 278.347 295.417 278.397 295.217C278.447 295.027 278.477 294.827 278.527 294.627C278.397 293.747 278.287 292.877 278.137 292.007C276.807 284.457 275.467 276.896 274.147 269.346C274.037 268.726 273.927 268.117 273.827 267.497C272.907 262.227 272.007 256.957 271.097 251.687C270.497 248.207 269.907 244.727 269.297 241.257C269.167 240.527 269.017 239.777 268.767 239.087C268.637 238.757 268.277 238.437 267.947 238.257C267.257 237.907 266.397 238.627 266.547 239.437C266.767 240.567 267.107 241.676 267.307 242.806C267.987 246.616 268.647 250.427 269.297 254.237C269.957 258.117 270.607 261.986 271.267 265.866C271.017 265.846 270.767 265.826 270.527 265.786C268.327 265.326 263.837 264.177 262.697 264.027C261.847 263.907 261.107 265.377 260.787 266.197C260.587 266.697 260.457 267.227 260.327 267.757C258.427 275.547 256.537 283.337 254.627 291.127C254.417 291.987 254.036 292.807 253.906 293.677C253.496 296.437 253.457 296.916 256.047 297.906C258.087 298.686 260.147 299.397 262.227 300.067C262.077 300.097 261.927 300.137 261.787 300.197C261.667 300.247 261.557 300.306 261.477 300.386C261.327 300.386 261.177 300.427 261.007 300.477C257.727 301.467 254.797 300.317 251.997 298.927C250.277 298.067 249.057 296.566 248.477 294.616C247.717 292.046 247.407 289.427 247.287 286.777C247.047 281.817 247.127 276.847 247.257 271.877C247.257 271.507 247.267 271.136 247.277 270.766C247.277 269.706 247.277 268.647 247.277 267.587C247.277 266.877 247.087 266.247 246.647 265.687C246.287 265.217 245.677 265.067 245.187 265.317C244.797 265.517 244.517 266.026 244.707 266.536C245.137 267.686 245.196 268.847 245.156 270.027C243.766 269.517 242.747 268.167 242.327 266.717C242.647 266.427 242.727 265.957 242.547 265.457C242.497 265.327 242.447 265.207 242.377 265.087C239.487 259.517 237.547 253.566 235.587 247.636C234.337 243.826 233.187 239.996 232.017 236.156C231.717 235.186 231.537 234.196 231.327 233.286C232.567 232.126 235.717 230.016 238.267 228.636C238.967 229.116 239.427 229.887 239.987 230.547C240.557 231.217 241.077 231.936 241.617 232.636C241.867 232.956 242.077 233.307 242.357 233.607C242.677 233.947 243.356 234.027 243.656 233.687C243.896 233.417 244.067 232.997 244.087 232.627C244.087 232.607 244.087 232.586 244.087 232.576C244.737 233.136 245.457 233.626 246.177 234.036C245.477 236.776 244.887 239.537 244.397 242.337C243.997 244.617 243.697 246.907 243.377 249.197C243.137 250.897 243.267 252.587 243.507 254.277C243.707 255.717 244.297 256.707 245.887 256.737C245.797 257.757 245.667 258.687 245.647 259.627C245.647 260.057 245.997 260.347 246.447 260.427C246.887 260.497 247.267 260.367 247.507 259.997C247.647 259.777 247.747 259.507 247.807 259.247C247.917 258.787 247.997 258.316 248.067 257.846C249.377 249.846 251.237 241.987 254.117 234.397C257.877 224.457 263.047 215.326 270.107 207.326C271.437 205.826 273.047 204.737 274.977 204.127L274.987 204.116Z" fill="#CCCCCC"/>
<path d="M276.957 202.857C276.837 202.777 276.717 202.696 276.597 202.616C276.047 202.286 275.547 203.137 276.097 203.477C276.177 203.527 276.257 203.577 276.337 203.627C276.697 203.417 276.917 203.157 276.957 202.857Z" fill="#617462"/>
<path d="M273.827 198.697C273.457 198.677 273.127 198.677 272.787 198.647C271.227 198.527 269.657 198.497 268.127 198.257C267.207 198.117 266.307 197.717 265.457 197.307C264.937 197.057 264.687 196.597 264.707 196.137C265.067 196.367 265.437 196.567 265.817 196.727C266.397 196.977 266.907 196.117 266.317 195.867C265.927 195.697 265.547 195.497 265.177 195.247C265.487 195.037 265.917 195.037 266.477 195.287C268.587 196.237 270.807 196.427 273.067 196.267C275.327 196.107 277.497 195.587 279.447 194.357C281.477 193.077 282.687 191.287 282.857 188.867C282.917 187.987 282.977 187.097 282.917 186.217C282.807 184.527 282.587 182.837 282.457 181.137C282.297 178.997 281.557 177.037 280.707 175.097C279.857 173.157 278.467 171.707 276.637 170.677C272.247 168.237 267.807 168.327 263.347 170.477C262.247 171.007 261.257 171.727 260.347 172.697C260.577 173.147 260.787 173.567 260.997 173.977C263.107 178.107 264.157 182.507 264.227 187.127C264.247 189.027 264.127 190.937 263.627 192.787C263.557 193.037 263.477 193.277 263.367 193.507C263.217 193.297 263.077 193.077 262.957 192.847C262.657 192.277 261.797 192.787 262.097 193.347C262.257 193.657 262.457 193.967 262.687 194.257C262.427 194.347 262.127 194.337 261.887 194.227C261.487 194.037 261.257 193.697 261.247 193.267C261.247 192.997 261.347 192.737 261.387 192.477C261.567 191.337 261.827 190.197 261.907 189.047C262.227 184.407 261.277 179.987 259.367 175.767C259.237 175.487 259.017 175.257 258.847 175.007C257.907 175.367 257.677 176.087 257.457 176.797C257.067 178.027 256.687 179.257 256.347 180.507C255.847 182.357 254.847 183.837 253.237 184.887C252.977 185.057 252.767 185.297 252.557 185.477C253.357 186.727 254.077 187.857 254.687 188.827C255.827 189.097 256.817 189.267 257.767 189.577C258.467 189.797 258.817 190.407 258.617 191.007C258.187 192.297 257.747 193.627 256.117 193.927C256.007 193.947 255.937 194.227 255.787 194.487C256.107 194.587 256.347 194.687 256.587 194.727C257.457 194.857 258.357 194.907 259.207 195.107C260.627 195.437 261.657 196.257 262.077 197.717C262.907 200.637 262.627 203.497 261.667 206.337C261.647 206.397 261.607 206.457 261.577 206.517C261.277 207.067 260.697 207.337 260.237 207.157C260.217 207.147 260.197 207.137 260.167 207.127C260.267 206.907 260.377 206.697 260.477 206.477C260.757 205.907 259.907 205.397 259.617 205.977C259.587 206.047 259.557 206.107 259.517 206.177C259.517 206.067 259.517 205.947 259.527 205.827C259.587 205.427 259.747 205.037 259.817 204.647C260.167 202.767 260.487 200.907 260.007 198.987C259.757 197.987 259.217 197.417 258.247 197.287C257.307 197.167 256.347 197.157 255.407 197.077C254.137 196.977 253.587 196.427 253.447 195.177C253.417 194.907 253.447 194.627 253.417 194.367C253.087 191.337 252.417 188.457 249.977 186.327C249.877 186.237 249.777 186.137 249.687 186.037C248.867 185.057 249.107 184.177 250.327 183.677C250.447 183.627 250.597 183.617 250.717 183.567C252.617 182.917 253.747 181.587 254.217 179.657C254.377 178.997 254.547 178.337 254.747 177.687C255.257 175.987 255.807 174.327 257.187 173.057C257.627 172.657 257.897 172.067 258.257 171.577C258.457 171.307 258.657 171.027 258.907 170.807C264.127 166.227 272.067 164.957 278.567 169.237C280.067 170.227 281.317 171.467 282.187 173.047C283.107 174.717 283.897 176.477 284.287 178.337C284.997 181.737 285.417 185.187 285.207 188.667C285.017 191.767 283.677 194.267 281.067 196.037C279.817 196.887 278.447 197.457 277.007 197.897C276.637 198.007 276.287 198.197 275.907 198.347C275.867 199.657 275.847 200.837 276.647 201.917C276.897 202.247 276.987 202.567 276.947 202.837C276.827 202.757 276.707 202.677 276.587 202.597C276.037 202.267 275.537 203.117 276.087 203.457C276.167 203.507 276.247 203.557 276.327 203.607C276.267 203.637 276.207 203.677 276.137 203.707C275.777 203.877 275.367 203.977 274.987 204.097C273.057 204.707 271.447 205.797 270.117 207.297C263.047 215.287 257.887 224.427 254.127 234.367C251.247 241.957 249.387 249.817 248.077 257.817C247.997 258.287 247.927 258.757 247.817 259.217C247.757 259.477 247.657 259.747 247.517 259.967C247.277 260.337 246.887 260.477 246.457 260.397C246.007 260.317 245.647 260.027 245.657 259.597C245.677 258.657 245.807 257.727 245.897 256.707C244.307 256.677 243.717 255.687 243.517 254.247C243.277 252.557 243.147 250.867 243.387 249.167C243.707 246.877 244.007 244.587 244.407 242.307C244.897 239.507 245.487 236.747 246.187 234.007C246.357 234.107 246.517 234.197 246.687 234.287C247.037 234.467 247.367 234.207 247.427 233.917L248.457 234.177C248.177 235.257 247.927 236.347 247.697 237.447C246.967 240.897 246.347 244.377 245.837 247.867C245.587 249.597 245.697 251.387 245.677 253.147C245.677 253.667 245.747 254.207 246.367 254.667C246.687 253.257 246.977 251.937 247.267 250.627C249.427 240.697 252.537 231.107 257.427 222.157C258.987 219.297 260.737 216.547 262.397 213.737C262.657 213.287 262.907 212.827 263.217 212.277C261.317 212.097 259.607 211.937 257.897 211.777L257.937 211.337C258.097 211.357 258.267 211.287 258.367 211.087C258.547 210.717 258.717 210.347 258.897 209.977C260.037 210.337 261.237 210.237 262.427 210.267C263.167 210.287 263.907 210.267 264.857 210.267C267.527 206.967 270.007 203.427 274.207 201.717C274.247 200.687 274.297 199.687 273.857 198.687L273.827 198.697ZM256.427 191.347C256.217 190.867 255.867 190.877 255.277 191.137C255.347 191.537 255.417 191.857 255.467 192.157C255.957 192.257 255.967 192.267 256.427 191.347Z" fill="#617462"/>
<path d="M276.387 295.377C276.497 295.657 276.747 295.867 277.047 295.967C276.837 295.577 276.657 295.177 276.347 294.837C276.277 294.757 276.237 294.677 276.217 294.587H276.197C276.207 294.657 276.217 294.716 276.227 294.786C276.257 294.986 276.307 295.187 276.377 295.377H276.387Z" fill="#617462"/>
<path d="M277.047 295.967C277.207 296.017 277.377 296.027 277.547 295.997C277.787 295.957 277.977 295.867 278.117 295.717C277.787 295.207 277.507 294.647 277.047 294.137C276.687 293.747 276.137 294.167 276.217 294.587C276.237 294.667 276.277 294.757 276.347 294.837C276.657 295.177 276.847 295.577 277.047 295.967Z" fill="#617462"/>
<path d="M277.417 296.576C277.577 296.796 277.757 296.987 277.947 297.147C276.867 297.487 275.827 297.967 274.857 298.547C274.917 298.527 274.967 298.497 275.027 298.477C275.457 298.307 275.937 298.527 276.217 298.927C277.157 298.447 278.136 298.077 279.156 297.837C279.056 297.647 279.017 297.427 279.027 297.177C279.027 297.027 279.067 296.877 279.127 296.747C278.667 296.477 278.377 296.117 278.117 295.727C277.977 295.877 277.787 295.967 277.547 296.007C277.377 296.037 277.207 296.017 277.047 295.977C277.157 296.187 277.267 296.397 277.417 296.587V296.576Z" fill="#617462"/>
<path d="M277.047 294.136C277.517 294.646 277.787 295.207 278.117 295.717C278.247 295.587 278.337 295.427 278.387 295.227C278.437 295.037 278.467 294.836 278.517 294.636C278.387 293.756 278.277 292.886 278.127 292.016C276.797 284.466 275.457 276.907 274.137 269.357C274.027 268.737 273.917 268.127 273.817 267.507L273.637 267.536C273.677 267.766 273.587 267.996 273.287 268.036C272.737 268.106 272.187 268.127 271.637 268.107C271.667 268.297 271.697 268.477 271.727 268.667C272.047 268.767 272.237 268.857 272.197 268.897C272.147 268.947 271.997 268.987 271.777 269.007C271.837 269.377 271.907 269.747 271.967 270.127C272.977 276.017 274.007 281.896 275.017 287.786C275.407 290.066 275.797 292.336 276.187 294.616H276.207C276.127 294.186 276.677 293.766 277.037 294.156L277.047 294.136Z" fill="#617462"/>
<path d="M279.307 297.806C279.707 297.716 279.817 297.077 279.427 296.897C279.327 296.847 279.227 296.797 279.137 296.747C279.077 296.877 279.037 297.027 279.037 297.177C279.037 297.427 279.067 297.647 279.167 297.837C279.217 297.827 279.267 297.807 279.317 297.797L279.307 297.806Z" fill="#617462"/>
<path d="M276.327 203.627C277.797 204.637 278.587 206.166 279.257 207.766C279.487 207.656 279.767 207.627 280.027 207.737C280.137 207.787 280.257 207.847 280.367 207.917C279.577 205.977 278.707 204.097 276.947 202.857C276.897 203.157 276.687 203.427 276.327 203.627Z" fill="#CCCCCC"/>
<path d="M280.117 209.906C280.367 210.486 281.327 210.236 281.077 209.646C280.837 209.076 280.607 208.497 280.377 207.917C280.267 207.847 280.147 207.786 280.037 207.736C279.777 207.626 279.497 207.656 279.267 207.766C279.567 208.476 279.837 209.206 280.127 209.906H280.117Z" fill="#617462"/>
<path d="M280.487 392.536C280.387 392.506 280.276 392.477 280.176 392.457C280.156 392.607 280.137 392.747 280.117 392.897C280.017 393.527 280.977 393.797 281.077 393.167C281.077 393.117 281.097 393.057 281.097 393.007C280.967 392.797 280.757 392.637 280.487 392.547V392.536Z" fill="#617462"/>
<path d="M264.367 300.747C264.297 300.897 264.157 301.007 263.937 301.007C263.527 301.007 263.117 301.006 262.707 301.036C262.677 301.066 262.637 301.096 262.607 301.136C262.607 301.166 262.627 301.197 262.627 301.227C262.777 301.817 262.357 302.407 261.497 302.687C260.187 303.097 258.857 303.287 257.477 303.087C255.167 302.757 252.987 302.017 250.887 301.027C250.607 300.897 250.337 300.587 249.927 300.987C250.047 301.607 250.177 302.257 250.307 302.917C251.317 307.637 252.407 312.337 253.337 317.067C254.717 324.067 256.007 331.087 257.277 338.107C258.467 344.657 259.607 351.226 260.707 357.786C261.487 362.406 262.157 367.057 262.877 371.687C263.507 375.747 264.107 379.807 264.737 383.857C264.897 384.907 265.067 385.957 265.237 387.007C265.517 388.727 265.577 390.497 266.187 392.147C266.947 392.217 267.627 392.247 268.287 392.357C270.517 392.737 272.747 392.687 274.997 392.447C276.477 392.287 277.987 392.366 279.477 392.366C279.707 392.366 279.936 392.397 280.156 392.457C280.266 391.687 280.327 390.916 280.367 390.136C279.817 390.406 279.137 390.316 278.677 389.886C278.197 389.446 278.047 388.787 278.547 388.257C279.087 387.687 279.147 387.077 279.187 386.397C279.407 382.457 279.697 378.516 279.817 374.576C280.037 367.236 280.167 359.886 280.297 352.536C280.427 345.256 280.507 337.977 280.597 330.697C280.667 325.047 280.717 319.407 280.767 313.757C280.767 313.157 280.717 312.567 280.687 311.927C279.747 311.907 278.847 311.997 278.367 311.177C277.787 310.157 276.647 311.046 275.987 310.386C275.937 310.336 275.877 310.297 275.847 310.237C275.527 309.737 275.127 309.616 274.497 309.656C273.507 309.716 273.017 309.207 272.857 308.227C272.777 307.767 272.827 307.287 272.837 306.817C272.837 306.427 272.887 306.027 272.917 305.627C270.347 305.607 269.957 305.166 270.107 302.516C269.637 302.356 269.137 302.157 268.627 302.007C267.207 301.597 265.777 301.177 264.367 300.737V300.747Z" fill="#F7DDC0"/>
<path d="M280.177 392.447C280.277 392.467 280.387 392.497 280.487 392.527C280.747 392.607 280.957 392.777 281.097 392.987C281.317 391.547 281.397 390.097 281.427 388.647C281.317 389.117 281.117 389.537 280.727 389.897C280.627 389.997 280.507 390.066 280.387 390.136C280.347 390.906 280.287 391.687 280.177 392.457V392.447Z" fill="#F7DDC0"/>
<path d="M280.457 386.997C280.457 388.047 280.457 389.086 280.397 390.136C280.517 390.076 280.637 389.997 280.737 389.897C281.127 389.547 281.327 389.117 281.437 388.647C281.447 388.097 281.447 387.547 281.447 386.997C281.447 386.357 280.457 386.357 280.457 386.997Z" fill="#617462"/>
<path d="M264.756 383.866C264.916 384.916 265.086 385.966 265.256 387.016C265.536 388.736 265.597 390.506 266.207 392.156C266.967 392.226 267.647 392.256 268.307 392.366C270.537 392.746 272.767 392.697 275.017 392.457C276.497 392.297 278.007 392.377 279.497 392.377C279.727 392.377 279.956 392.407 280.176 392.467C280.156 392.617 280.137 392.756 280.117 392.906C280.017 393.536 280.977 393.807 281.077 393.177C281.077 393.127 281.097 393.066 281.097 393.016C281.217 393.196 281.277 393.416 281.267 393.636C281.247 394.106 280.877 394.576 280.397 394.636C279.867 394.696 279.316 394.687 278.776 394.687C277.836 394.687 276.897 394.576 275.867 394.826C275.667 395.886 275.736 396.897 275.676 397.897C275.606 398.977 275.516 400.047 275.446 401.047C275.886 401.567 276.427 402.017 276.727 402.587C277.307 403.667 277.807 404.787 278.227 405.927C278.927 407.827 278.356 408.807 276.376 409.087C275.036 409.277 273.676 409.357 272.316 409.417C271.556 409.447 270.836 409.546 270.156 409.906C266.366 411.896 262.287 412.807 258.057 413.277C255.217 413.587 252.497 413.186 249.807 412.386C249.357 412.256 248.896 412.086 248.486 411.846C247.316 411.166 247.127 409.967 248.037 408.927C248.347 408.577 248.717 408.257 249.097 407.977C249.917 407.367 250.736 406.757 251.606 406.227C253.886 404.867 256.197 403.577 258.477 402.227C260.287 401.157 262.086 400.047 263.876 398.937C264.906 398.297 264.887 398.277 266.397 398.217V397.297C266.637 397.107 266.587 396.786 266.397 396.596C266.397 396.006 266.397 395.416 266.397 394.826C266.247 394.936 266.107 395.057 265.957 395.167C265.547 394.547 265.256 393.736 264.676 393.346C263.966 392.866 263.636 392.347 263.586 391.547C263.556 391.007 263.447 390.467 263.367 389.927C263.107 388.197 262.846 386.467 262.586 384.737C262.926 384.727 263.256 384.697 263.566 384.667C263.936 384.627 264.086 384.267 264.026 383.987L264.736 383.877L264.756 383.866ZM274.347 403.727C274.347 402.857 274.347 402.136 274.347 401.366C273.647 401.096 273.287 400.537 273.327 399.677C273.377 398.597 273.376 397.507 273.376 396.417C273.376 395.957 273.307 395.507 273.267 394.937C271.827 394.937 270.486 394.937 269.006 394.937C268.956 395.267 268.867 395.636 268.847 396.016C268.807 397.036 268.846 398.057 268.756 399.067C268.626 400.407 268.056 400.646 266.656 400.096C266.596 400.076 266.526 400.076 266.506 400.076C262.106 402.666 257.747 405.227 253.387 407.797C256.377 408.427 259.147 407.876 261.917 407.136C264.137 406.536 266.397 406.066 268.647 405.616C269.427 405.466 270.256 405.537 271.066 405.527C272.556 405.517 273.616 404.777 274.356 403.727H274.347Z" fill="#617462"/>
<path d="M274.656 307.497C275.816 307.263 276.74 307.61 277.426 308.536C277.596 308.466 277.767 308.377 277.957 308.317C278.937 307.967 279.166 308.057 279.486 308.947C279.616 309.307 279.777 309.667 279.977 310.177C280.327 309.817 280.527 309.566 280.767 309.346C281.307 308.866 281.696 308.876 282.156 309.386C282.416 309.676 282.637 309.996 282.897 310.326C285.047 307.536 285.767 301.797 284.537 298.747C283.547 298.717 282.537 298.717 281.517 298.647C280.907 298.607 280.297 298.497 279.727 298.317C279.457 298.237 279.277 298.066 279.167 297.846C278.147 298.086 277.157 298.457 276.227 298.937C276.227 298.947 276.246 298.967 276.256 298.977C276.516 299.377 276.477 299.957 276.117 300.277C275.867 300.497 275.527 300.627 275.287 300.857C274.547 301.547 273.807 302.247 273.107 302.987C273.107 302.987 273.097 302.997 273.087 303.007C273.027 303.127 273.137 303.436 273.187 303.866C273.677 303.376 273.967 303.027 274.317 302.777C274.317 302.777 274.337 302.757 274.347 302.757C274.527 302.637 274.897 302.617 275.087 302.727C275.287 302.837 275.497 303.156 275.477 303.366C275.437 303.826 275.247 304.277 275.117 304.727C274.837 305.627 274.417 306.507 274.667 307.497H274.656Z" fill="white"/>
<path d="M299.577 273.617C299.427 273.687 299.257 273.727 299.067 273.707C298.737 273.677 298.397 273.577 298.077 273.487C295.847 272.877 293.627 272.267 291.397 271.647C290.757 271.467 290.167 271.067 289.397 271.197C289.357 271.747 289.307 272.287 289.267 272.827C289.107 275.137 288.987 277.447 288.777 279.747C288.307 285.027 287.767 290.307 287.307 295.587C287.207 296.697 287.087 297.757 286.187 298.487C287.387 300.717 286.617 303.097 286.977 305.477C289.327 306.047 291.547 307.037 294.037 307.147C294.207 306.577 294.347 306.127 294.477 305.667C295.547 301.807 296.597 297.937 297.677 294.077C299.267 288.387 301.217 282.797 302.427 277.007C302.467 276.817 302.546 276.617 302.656 276.447C302.706 276.357 302.777 276.277 302.857 276.217C302.767 276.127 302.707 276.017 302.707 275.877C302.707 275.847 302.707 275.807 302.717 275.777C302.387 275.617 302.377 275.087 302.687 274.897C301.667 274.427 300.637 273.997 299.587 273.597L299.577 273.617Z" fill="#617462"/>
<path d="M300.017 273.107C300.037 273.057 299.997 272.877 299.957 272.707C299.337 272.477 298.717 272.247 298.097 272.037C297.487 271.837 297.227 272.787 297.837 272.997C298.427 273.197 299.007 273.407 299.577 273.627C299.777 273.527 299.927 273.357 300.017 273.117V273.107Z" fill="#617462"/>
<path d="M299.957 272.707C299.957 272.707 300.017 272.727 300.057 272.747C300.037 272.587 299.957 272.417 299.847 272.297C299.847 272.357 299.917 272.537 299.967 272.717L299.957 272.707Z" fill="#617462"/>
<path d="M300.057 272.747C300.057 272.747 299.997 272.727 299.957 272.707C299.997 272.877 300.037 273.047 300.017 273.107C300.057 272.997 300.067 272.867 300.047 272.747H300.057Z" fill="#617462"/>
<path d="M264.367 300.747C265.787 301.187 267.207 301.606 268.627 302.016C269.137 302.166 269.627 302.357 270.107 302.527C269.957 305.177 270.357 305.616 272.917 305.636C272.887 306.036 272.847 306.426 272.837 306.826C272.827 307.296 272.787 307.777 272.857 308.237C273.017 309.217 273.507 309.737 274.497 309.667C275.137 309.627 275.527 309.737 275.847 310.247C275.887 310.297 275.947 310.347 275.987 310.397C276.637 311.057 277.787 310.167 278.367 311.187C278.837 312.017 279.747 311.917 280.687 311.937C280.717 312.567 280.777 313.166 280.767 313.766C280.717 319.416 280.667 325.057 280.597 330.707C280.507 337.987 280.427 345.267 280.297 352.547C280.167 359.897 280.027 367.237 279.817 374.587C279.697 378.527 279.407 382.466 279.187 386.406C279.147 387.086 279.087 387.696 278.547 388.266C278.047 388.796 278.207 389.457 278.677 389.897C279.137 390.327 279.827 390.417 280.367 390.147C280.417 389.107 280.427 388.057 280.427 387.007C280.427 386.367 281.417 386.367 281.417 387.007C281.417 387.557 281.416 388.116 281.406 388.656C281.466 388.406 281.487 388.147 281.507 387.877C281.627 385.157 281.807 382.437 281.887 379.727C282.477 361.027 282.547 342.317 282.777 323.607C282.817 320.077 282.937 316.536 283.007 313.326C283.807 312.246 284.477 311.487 284.977 310.627C285.477 309.757 285.797 308.787 286.237 307.757C287.017 307.957 287.727 308.126 288.437 308.306C290.087 308.716 291.727 309.126 293.377 309.536C293.637 309.596 293.907 309.677 294.177 309.687C295.187 309.747 295.907 309.287 296.177 308.317C296.447 307.337 296.577 306.317 296.847 305.337C298.457 299.437 300.067 293.536 301.717 287.656C302.467 284.976 303.327 282.326 304.117 279.656C304.307 279.006 304.487 278.347 304.567 277.677C304.567 277.637 304.567 277.597 304.567 277.547C304.437 278.097 304.297 278.567 304.197 278.677C303.917 278.547 303.387 276.907 303.037 276.397C302.957 276.367 302.877 276.326 302.817 276.266C302.737 276.326 302.677 276.407 302.617 276.497C302.517 276.667 302.427 276.856 302.387 277.056C301.177 282.846 299.227 288.437 297.637 294.127C296.557 297.987 295.497 301.857 294.437 305.717C294.307 306.167 294.167 306.617 293.997 307.197C291.517 307.097 289.287 306.107 286.937 305.527C286.577 303.147 287.337 300.766 286.147 298.536C287.047 297.806 287.167 296.746 287.267 295.636C287.737 290.356 288.267 285.077 288.737 279.797C288.947 277.497 289.057 275.187 289.227 272.877C289.267 272.337 289.307 271.797 289.357 271.247C290.127 271.117 290.717 271.517 291.357 271.697C293.587 272.317 295.807 272.926 298.037 273.536C298.367 273.626 298.697 273.727 299.027 273.757C299.217 273.777 299.397 273.737 299.537 273.667C298.957 273.447 298.377 273.236 297.797 273.036C297.197 272.836 297.457 271.876 298.057 272.076C298.687 272.286 299.307 272.517 299.917 272.747C299.867 272.567 299.807 272.396 299.797 272.326C299.717 272.236 299.617 272.167 299.507 272.127C298.807 271.877 298.077 271.717 297.367 271.497C295.087 270.817 292.817 270.137 290.547 269.427C290.167 269.307 289.837 269.066 289.427 268.866C289.427 268.426 289.417 268.027 289.427 267.627C289.707 261.227 289.527 254.847 288.967 248.467C288.647 244.737 288.367 241.006 288.057 237.286C287.507 230.696 286.487 224.197 284.297 217.927C283.447 215.487 282.657 213.026 281.797 210.596C281.527 209.836 281.157 209.107 280.757 208.397C280.667 208.237 280.507 208.087 280.327 207.967C280.557 208.547 280.787 209.127 281.027 209.697C281.277 210.287 280.317 210.547 280.067 209.957C279.767 209.257 279.497 208.527 279.207 207.817C278.837 207.997 278.567 208.387 278.617 208.817C278.637 209.017 278.677 209.226 278.757 209.406C280.767 213.736 282.047 218.326 283.427 222.866C284.597 226.706 285.177 230.697 285.547 234.687C286.137 240.987 286.687 247.286 287.057 253.596C287.407 259.576 287.367 265.567 287.027 271.547C286.857 274.467 286.656 277.387 286.406 280.297C286.076 284.157 285.697 288.017 285.337 291.877C285.267 292.617 285.217 293.366 285.147 294.116C285.077 294.786 285.117 295.486 284.647 296.116C283.677 296.396 282.666 296.116 281.656 296.116C281.046 296.116 280.437 296.107 279.837 296.197C279.487 296.247 279.227 296.477 279.087 296.777C279.177 296.827 279.277 296.877 279.377 296.927C279.767 297.107 279.657 297.747 279.257 297.837C279.207 297.837 279.157 297.857 279.107 297.877C279.217 298.097 279.407 298.266 279.667 298.346C280.247 298.526 280.857 298.637 281.457 298.677C282.467 298.747 283.487 298.747 284.477 298.777C285.707 301.827 284.987 307.567 282.837 310.357C282.577 310.027 282.357 309.707 282.097 309.417C281.647 308.907 281.247 308.897 280.707 309.377C280.467 309.587 280.267 309.837 279.917 310.207C279.707 309.697 279.557 309.337 279.427 308.977C279.097 308.097 278.877 307.996 277.897 308.346C277.717 308.406 277.537 308.497 277.367 308.567C276.68 307.64 275.757 307.293 274.597 307.527C274.347 306.537 274.767 305.657 275.047 304.757C275.187 304.307 275.366 303.857 275.406 303.397C275.426 303.187 275.207 302.867 275.017 302.757C274.827 302.657 274.457 302.666 274.277 302.786C274.277 302.786 274.257 302.806 274.247 302.806C273.897 303.096 273.577 304.107 273.117 303.897C272.677 303.697 272.907 303.176 273.017 303.036C273.017 303.026 273.027 303.016 273.037 303.016C273.337 302.156 273.707 301.467 274.457 300.777C274.697 300.547 275.137 299.927 275.387 299.707C275.747 299.387 275.777 299.257 276.187 299.007C276.187 298.987 276.166 298.977 276.156 298.967C275.426 299.347 274.717 299.776 274.047 300.266C273.527 300.646 273.037 299.786 273.547 299.406C273.947 299.116 274.367 298.836 274.797 298.576C274.357 298.766 273.937 299.007 273.537 299.277C273.037 299.627 272.597 300.046 272.027 300.536C269.807 300.106 267.627 299.427 265.427 298.727C265.457 298.907 265.397 299.087 265.187 299.197C264.707 299.447 264.267 299.727 263.847 300.047H263.867C264.287 300.047 264.437 300.477 264.297 300.777L264.367 300.747Z" fill="#617462"/>
<path d="M302.837 276.237C302.897 276.297 302.977 276.337 303.057 276.367C302.967 276.237 302.897 276.187 302.837 276.237Z" fill="#617462"/>
<path d="M303.067 276.377C303.407 276.497 303.687 276.347 303.917 276.087C303.577 275.927 303.137 275.987 302.847 276.237C302.907 276.187 302.977 276.236 303.067 276.366V276.377Z" fill="#617462"/>
<path d="M303.917 276.087C303.687 276.337 303.407 276.497 303.067 276.377C303.417 276.887 303.957 278.536 304.227 278.656C304.327 278.546 304.467 278.077 304.597 277.527C304.597 277.187 304.487 276.807 304.337 276.497C304.247 276.307 304.086 276.166 303.906 276.096L303.917 276.087Z" fill="#617462"/>
<path d="M302.837 276.237C303.137 275.977 303.566 275.927 303.906 276.087C304.086 276.167 304.237 276.297 304.337 276.487C304.487 276.797 304.607 277.176 304.597 277.516C304.817 276.646 305.027 275.587 305.097 275.427C305.177 275.237 304.967 274.436 304.787 274.346C303.417 273.666 301.267 272.826 299.847 272.286C299.967 272.416 300.037 272.577 300.057 272.737C300.077 272.857 300.067 272.986 300.027 273.096C299.927 273.336 299.777 273.517 299.587 273.607C300.637 274.007 301.667 274.436 302.687 274.906C302.377 275.096 302.387 275.616 302.717 275.786C302.717 275.816 302.717 275.846 302.707 275.886C302.707 276.026 302.757 276.147 302.857 276.227L302.837 276.237Z" fill="#617462"/>
<path d="M391.797 3.07642V555.386H3.20679V3.07642H391.797ZM392.797 2.07642H2.20679V556.386H392.797V2.07642Z" fill="#99A893"/>
<path d="M154.397 484.947H148.767V489.516H153.017V491.497H140.857V495.786H153.877V497.766H125.977V495.786H138.707V491.497H126.837V489.516H131.097V484.947H125.437V482.967H131.097V478.547H127.097V476.567H138.717V472.886C135.137 473.146 131.387 473.307 127.967 473.397C127.907 472.857 127.647 472.056 127.457 471.536C135.327 471.316 145.027 470.577 150.207 469.487L151.837 471.346C151.777 471.406 151.677 471.406 151.547 471.406C151.447 471.406 151.327 471.407 151.197 471.377C148.507 471.917 144.827 472.367 140.867 472.687V476.556H152.737V478.536H148.767V482.957H154.397V484.937V484.947ZM133.217 478.547V482.967H138.717V478.547H133.217ZM133.217 489.516H138.717V484.947H133.217V489.516ZM146.617 478.547H140.857V482.967H146.617V478.547ZM146.617 489.516V484.947H140.857V489.516H146.617Z" fill="#617462"/>
<path d="M184.127 476.437C186.717 476.437 189.087 476.217 190.147 475.957C190.207 474.037 190.247 472.977 190.367 470.067L193.667 470.326C193.607 470.676 193.317 470.907 192.767 470.967C192.637 472.377 192.507 474.357 192.447 475.547L193.437 475.927C192.667 477.467 192.346 479.347 192.156 480.497C195.676 477.207 199.577 474.866 202.237 474.866C205.247 474.866 206.747 476.977 206.747 480.687C206.747 481.107 206.717 481.517 206.687 481.937C206.467 484.747 206.147 488.747 206.147 491.317C206.147 493.237 206.367 494.257 207.717 494.257C208.677 494.257 210.597 493.296 211.977 492.116C212.037 492.756 212.297 494.067 212.427 494.547C210.797 495.737 208.876 496.627 207.406 496.627C204.716 496.627 203.827 495.027 203.827 491.697C203.827 490.037 204.406 481.237 204.406 481.207C204.406 478.427 203.447 477.177 201.877 477.177C199.477 477.177 195.447 479.766 192.117 483.286C192.117 487.926 192.117 493.617 192.147 497.977H189.906C189.936 496.117 189.907 487.007 189.937 484.957C188.817 487.197 186.637 490.107 184.117 492.667L182.967 490.647C185.627 488.147 188.597 484.277 190.007 480.987C190.007 480.057 190.037 479.197 190.067 478.167C188.947 478.427 186.607 478.677 184.177 478.707L184.147 476.437H184.127Z" fill="#617462"/>
<path d="M269.656 487.826H262.647C264.667 489.586 267.577 491.156 270.297 491.886C269.847 492.306 269.277 493.006 268.987 493.516C267.647 493.066 266.237 492.396 264.927 491.596V495.727C264.927 497.587 264.227 497.866 259.937 497.806C259.837 497.266 259.587 496.617 259.327 496.107C260.187 496.137 260.957 496.167 261.507 496.167C262.727 496.167 262.847 496.167 262.847 495.717V492.007H256.027V498.826H253.917V492.007H247.807V497.927H245.727V491.467C244.417 492.357 242.907 493.167 241.247 493.897C240.987 493.417 240.417 492.676 239.967 492.326C243.007 491.116 245.437 489.507 247.297 487.817H240.577V486.027H249.027C249.537 485.387 249.987 484.776 250.367 484.136H244.957V475.337H265.787V484.136H253.247C253.147 484.296 252.927 484.427 252.607 484.427C252.287 484.937 251.937 485.477 251.547 486.027H269.656V487.817V487.826ZM248.577 475.056V473.266H240.737V471.477H248.577V469.107L251.297 469.266C251.267 469.486 251.106 469.647 250.656 469.717V471.477H259.397V469.107L262.147 469.266C262.117 469.486 261.957 469.647 261.507 469.717V471.477H269.567V473.266H261.507V475.056H259.397V473.266H250.656V475.056H248.577ZM246.937 476.817V479.027H263.707V476.817H246.937ZM246.937 480.437V482.677H263.707V480.437H246.937ZM250.047 487.826C249.277 488.656 248.417 489.457 247.427 490.257H253.927V487.826H250.057H250.047ZM256.027 490.257H262.967C261.977 489.487 261.077 488.686 260.377 487.826H256.637C256.577 488.016 256.417 488.177 256.027 488.247V490.266V490.257Z" fill="#617462"/>
<path d="M354.357 2.07642H392.797V40.5164L354.357 2.07642Z" fill="#99A893"/>
</svg>
