<svg width="393" height="558" viewBox="0 0 393 558" fill="none" xmlns="http://www.w3.org/2000/svg">
<path d="M391.81 2.07642H1.21997V556.386H391.81V2.07642Z" fill="white"/>
<path d="M341.25 170.536V164.497H341.23L340.12 165.136L339.94 164.576L341.34 163.797H341.98V170.536H341.25Z" fill="#617462"/>
<path d="M344.43 163.786H348.38V164.266L345.56 170.536H344.8L347.62 164.437V164.417H344.43V163.797V163.786Z" fill="#617462"/>
<path d="M349.19 167.187C349.19 164.827 350.11 163.687 351.37 163.687C352.63 163.687 353.43 164.896 353.43 167.096C353.43 169.436 352.61 170.647 351.27 170.647C350.05 170.647 349.19 169.437 349.19 167.187ZM352.67 167.127C352.67 165.447 352.27 164.286 351.32 164.286C350.52 164.286 349.95 165.357 349.95 167.127C349.95 168.897 350.45 170.027 351.29 170.027C352.29 170.027 352.67 168.727 352.67 167.127Z" fill="#617462"/>
<path d="M357.84 170.357C357.62 170.467 357.14 170.636 356.51 170.636C355.11 170.636 354.18 169.636 354.18 168.136C354.18 166.636 355.18 165.516 356.69 165.516C357.24 165.516 357.68 165.677 357.87 165.777L357.68 166.377C357.47 166.257 357.15 166.127 356.67 166.127C355.54 166.127 354.94 167.037 354.94 168.087C354.94 169.277 355.65 170.027 356.64 170.027C357.13 170.027 357.46 169.886 357.7 169.786L357.83 170.366L357.84 170.357Z" fill="#617462"/>
<path d="M365.56 170.536H364.82V167.697C364.82 166.747 364.48 166.127 363.74 166.127C363.14 166.127 362.59 166.697 362.59 167.437V170.527H361.85V167.507C361.85 166.727 361.52 166.127 360.82 166.127C360.18 166.127 359.61 166.757 359.61 167.527V170.536H358.87V166.886C358.87 166.386 358.85 166.016 358.83 165.616H359.49L359.53 166.406H359.56C359.83 165.926 360.28 165.507 361.05 165.507C361.69 165.507 362.18 165.907 362.39 166.487H362.41C362.73 165.897 363.23 165.507 363.99 165.507C364.59 165.507 365.55 165.896 365.55 167.576V170.527L365.56 170.536Z" fill="#617462"/>
<path d="M324.18 166.717V407.837" stroke="#899284" stroke-width="0.96" stroke-miterlimit="10"/>
<path d="M268.49 166.717H335.03" stroke="#899284" stroke-width="0.96" stroke-miterlimit="10"/>
<path d="M319.44 407.837H335.03" stroke="#899284" stroke-width="0.96" stroke-miterlimit="10"/>
<mask id="mask0_60_2006" style="mask-type:luminance" maskUnits="userSpaceOnUse" x="1" y="78" width="260" height="201">
<path d="M260.66 78.3865H1.21997V278.187H260.66V78.3865Z" fill="white"/>
</mask>
<g mask="url(#mask0_60_2006)">
<path d="M252.19 112.817H-107.12V243.437H252.19V112.817Z" fill="#96BBA0"/>
<path d="M-107.12 119.777H252.19" stroke="white" stroke-width="0.48" stroke-dasharray="2.88 2.88"/>
<path d="M252.19 236.487H-107.12" stroke="white" stroke-width="0.48" stroke-dasharray="2.88 2.88"/>
<path d="M72.5 114.177C73.7 114.177 74.6799 115.146 74.6799 116.346C74.6799 117.546 73.7 118.527 72.5 118.527C71.3 118.527 70.3201 117.556 70.3201 116.346C70.3201 115.136 71.29 114.177 72.5 114.177Z" fill="#D4B100"/>
<path d="M72.5 115.136C73.17 115.136 73.72 115.687 73.72 116.357C73.72 117.027 73.17 117.576 72.5 117.576C71.83 117.576 71.28 117.027 71.28 116.357C71.28 115.687 71.83 115.136 72.5 115.136Z" fill="white"/>
<path d="M72.5 242.076C71.3 242.076 70.3201 241.106 70.3201 239.906C70.3201 238.706 71.3 237.727 72.5 237.727C73.7 237.727 74.6799 238.696 74.6799 239.906C74.6799 241.116 73.71 242.076 72.5 242.076Z" fill="#D4B100"/>
<path d="M72.5 241.127C71.83 241.127 71.28 240.576 71.28 239.906C71.28 239.236 71.83 238.687 72.5 238.687C73.17 238.687 73.72 239.236 73.72 239.906C73.72 240.576 73.17 241.127 72.5 241.127Z" fill="white"/>
<path d="M160.55 114.177C161.75 114.177 162.73 115.146 162.73 116.346C162.73 117.546 161.75 118.527 160.55 118.527C159.35 118.527 158.37 117.556 158.37 116.346C158.37 115.136 159.34 114.177 160.55 114.177Z" fill="#D4B100"/>
<path d="M160.55 115.136C161.22 115.136 161.77 115.687 161.77 116.357C161.77 117.027 161.22 117.576 160.55 117.576C159.88 117.576 159.33 117.027 159.33 116.357C159.33 115.687 159.88 115.136 160.55 115.136Z" fill="white"/>
<path d="M160.55 242.076C159.35 242.076 158.37 241.106 158.37 239.906C158.37 238.706 159.35 237.727 160.55 237.727C161.75 237.727 162.73 238.696 162.73 239.906C162.73 241.116 161.76 242.076 160.55 242.076Z" fill="#D4B100"/>
<path d="M160.55 241.127C159.88 241.127 159.33 240.576 159.33 239.906C159.33 239.236 159.88 238.687 160.55 238.687C161.22 238.687 161.77 239.236 161.77 239.906C161.77 240.576 161.22 241.127 160.55 241.127Z" fill="white"/>
<path d="M248.6 114.177C249.8 114.177 250.78 115.146 250.78 116.346C250.78 117.546 249.8 118.527 248.6 118.527C247.4 118.527 246.42 117.556 246.42 116.346C246.42 115.136 247.39 114.177 248.6 114.177Z" fill="#D4B100"/>
<path d="M248.6 115.136C249.27 115.136 249.82 115.687 249.82 116.357C249.82 117.027 249.27 117.576 248.6 117.576C247.93 117.576 247.38 117.027 247.38 116.357C247.38 115.687 247.93 115.136 248.6 115.136Z" fill="white"/>
<path d="M248.61 242.076C247.41 242.076 246.43 241.106 246.43 239.906C246.43 238.706 247.41 237.727 248.61 237.727C249.81 237.727 250.79 238.696 250.79 239.906C250.79 241.116 249.82 242.076 248.61 242.076Z" fill="#D4B100"/>
<path d="M248.61 241.127C247.94 241.127 247.39 240.576 247.39 239.906C247.39 239.236 247.94 238.687 248.61 238.687C249.28 238.687 249.83 239.236 249.83 239.906C249.83 240.576 249.28 241.127 248.61 241.127Z" fill="white"/>
<path d="M245.11 112.817V243.437" stroke="white" stroke-width="0.48" stroke-dasharray="2.88 2.88"/>
</g>
<path d="M316.26 389.377C316.6 389.787 316.69 390.247 316.4 390.747C315.9 391.617 315.21 392.307 314.46 392.927C314.37 392.747 314.06 392.667 313.91 392.897C313.76 393.127 313.6 393.347 313.44 393.567C313.17 393.597 312.89 393.487 312.77 393.297C312.58 392.997 312.58 392.667 312.78 392.377C312.94 392.157 313.14 391.967 313.33 391.777C313.74 391.347 314.16 390.927 314.63 390.447C314.19 389.787 313.56 389.527 312.89 389.117C312.69 389.597 312.51 389.977 312.37 390.367C311.72 392.157 311.12 393.967 310.44 395.757C309.7 397.697 308.69 399.507 307.54 401.247C305.73 403.977 303.16 405.236 299.94 405.266C299.23 405.266 298.52 405.266 297.69 405.266C296.57 406.586 295.01 407.676 294.54 409.516C294.91 410.106 295.4 410.157 295.89 410.197C297.32 410.307 298.73 410.097 300.1 409.747C302.83 409.057 305.3 407.827 307.57 406.167C309.31 404.887 310.48 403.227 311.03 401.147C311.41 399.727 311.73 398.287 312.08 396.857C312.17 396.467 312.26 396.067 312.38 395.687C312.44 395.687 312.5 395.647 312.55 395.597C312.82 395.317 313.08 395.037 313.33 394.737C313.46 394.737 313.59 394.757 313.69 394.797C313.84 394.847 313.97 395.117 314.02 395.297C314.07 395.497 314.03 395.737 313.98 395.937C313.56 397.687 313.12 399.427 312.7 401.177C312.03 403.957 310.49 406.107 308.14 407.737C305.13 409.817 301.85 411.207 298.22 411.717C297.31 411.847 296.36 411.787 295.44 411.747C295.02 411.727 294.58 411.587 294.18 411.417C293.11 410.957 292.69 410.007 292.99 408.877C293.24 407.957 293.78 407.197 294.38 406.497C295.95 404.677 297.62 402.947 299.49 401.437C299.92 401.097 300.33 400.737 300.75 400.387C301.47 399.767 301.96 398.977 302.2 398.067C302.72 396.177 303.21 394.277 303.73 392.387C303.86 391.927 303.79 391.537 303.6 391.127C303.22 390.277 302.7 389.527 302.06 388.777C301.21 389.467 300.39 390.086 299.62 390.786C299.31 391.066 299.16 391.507 298.91 391.857C298.68 392.187 298.2 392.217 297.9 391.957C297.5 391.607 297.33 391.207 297.43 390.797C297.54 390.957 297.64 391.117 297.74 391.277C297.95 391.607 298.48 391.307 298.27 390.967C298.11 390.707 297.94 390.457 297.77 390.197C297.97 389.957 298.2 389.747 298.41 389.527C300.51 387.457 302.62 385.397 304.72 383.337C304.83 383.227 304.9 383.077 305.04 382.877C304.89 382.667 304.75 382.447 304.58 382.247C301.74 378.857 299.01 375.387 296.4 371.817C292.1 365.947 287.22 360.577 282.24 355.297C279.54 352.437 276.84 349.587 274.15 346.727C273.7 346.247 273.29 345.737 272.88 345.227C271.98 344.097 271.37 342.847 271.11 341.407C270.37 337.337 269.56 333.267 268.87 329.187C267.99 324.027 267.19 318.857 266.39 313.687C265.8 309.857 265.32 306.017 265.16 302.137C265.11 301.007 265.16 299.867 265.16 298.697C263.82 298.507 262.68 298.397 261.57 298.167C259.63 297.767 258.06 296.737 256.86 295.147C255.91 293.877 255.04 292.557 254.38 291.107C253.75 289.717 253.11 288.337 252.47 286.947C252.38 286.747 252.28 286.547 252.25 286.337C252.21 286.077 252.29 285.867 252.45 285.697C252.47 285.697 252.49 285.697 252.51 285.697C252.51 285.697 252.52 285.697 252.53 285.697C252.6 285.757 252.67 285.817 252.76 285.867C252.96 285.977 253.22 285.847 253.22 285.607C253.22 285.557 253.22 285.517 253.22 285.467C253.35 285.507 253.47 285.587 253.55 285.707C253.74 285.977 253.9 286.266 254.03 286.556C254.59 287.736 255.13 288.937 255.67 290.127C256.26 291.427 257.05 292.597 257.92 293.717C259.4 295.637 261.39 296.447 263.74 296.567C265.23 296.647 266.67 296.416 268.11 296.076C272.47 295.036 276.4 293.087 280 290.457C282.25 288.817 284.42 287.077 286.23 284.927C286.62 284.467 287 284.007 287.32 283.497C287.82 282.727 287.79 282.087 287.19 281.407C286.8 280.957 286.31 280.587 285.87 280.187C285.59 279.937 285.27 279.707 285.01 279.427C284.77 279.167 284.74 278.787 284.88 278.477C285.01 278.587 285.23 278.607 285.31 278.397C285.38 278.247 285.4 278.107 285.4 277.987C285.61 277.917 285.85 277.947 286.07 278.117C287 278.857 287.99 279.577 288.77 280.467C289.77 281.607 289.75 283.107 288.9 284.407C288.54 284.947 288.15 285.487 287.7 285.957C283.21 290.767 277.99 294.557 271.84 296.967C270.43 297.517 268.94 297.887 267.36 298.377C267.32 298.787 267.22 299.267 267.24 299.737C267.35 301.917 267.41 304.106 267.63 306.266C268.4 313.756 269.74 321.167 271.02 328.587C271.67 332.347 272.41 336.087 273.04 339.857C273.41 342.047 274.43 343.847 275.93 345.427C278.5 348.107 281.04 350.817 283.6 353.497C289.84 360.017 295.61 366.907 300.95 374.177C302.56 376.377 304.37 378.426 306.09 380.536C306.74 381.336 307.39 382.137 307.81 383.107C308.16 383.917 308.78 384.547 309.56 384.997C310.13 385.317 310.71 385.617 311.26 385.977C312.68 386.887 314.09 387.826 315.49 388.766C315.76 388.946 316.01 389.167 316.22 389.407L316.26 389.377ZM311.12 388.997C311.22 388.707 311.27 388.396 311.36 388.056C310.44 387.536 309.55 387.117 308.75 386.567C307.91 385.987 307.17 385.287 306.34 384.607C305.38 385.537 304.44 386.437 303.43 387.417C303.73 387.987 304 388.507 304.28 389.027C304.52 389.457 304.79 389.867 305.02 390.297C305.43 391.097 305.56 391.897 305.28 392.817C304.76 394.537 304.3 396.277 303.89 398.027C303.5 399.707 302.57 400.997 301.25 402.047C300.74 402.447 300.25 402.877 299.54 403.467C299.97 403.567 300.12 403.637 300.27 403.627C302.58 403.527 304.5 402.657 305.88 400.757C307.23 398.887 308.31 396.867 309.12 394.727C309.83 392.837 310.45 390.926 311.11 389.016L311.12 388.997Z" fill="#617462"/>
<path d="M314.46 392.917C314.5 392.997 314.51 393.087 314.44 393.197C314.1 393.707 313.73 394.217 313.33 394.687C313.19 394.687 313.05 394.706 312.94 394.766C312.73 394.886 312.55 395.156 312.47 395.386C312.44 395.466 312.41 395.546 312.39 395.636C312.14 395.676 311.9 395.346 312.12 395.116C312.6 394.626 313.04 394.107 313.44 393.547C313.57 393.547 313.7 393.497 313.81 393.417C314.03 393.247 314.25 393.086 314.46 392.906V392.917Z" fill="#617462"/>
<path d="M313.91 392.887C314.06 392.657 314.36 392.737 314.46 392.917C314.25 393.087 314.03 393.257 313.81 393.427C313.7 393.507 313.57 393.547 313.44 393.557C313.6 393.337 313.76 393.117 313.91 392.887Z" fill="#617462"/>
<path d="M312.9 389.087C313.57 389.497 314.2 389.757 314.64 390.417C314.17 390.897 313.75 391.327 313.34 391.747C313.15 391.947 312.95 392.126 312.79 392.346C312.58 392.636 312.59 392.966 312.78 393.266C312.9 393.456 313.18 393.566 313.45 393.536C313.05 394.086 312.61 394.617 312.13 395.107C311.91 395.337 312.15 395.667 312.4 395.627C312.28 396.007 312.19 396.407 312.1 396.797C311.75 398.227 311.43 399.667 311.05 401.087C310.5 403.167 309.34 404.827 307.59 406.107C305.32 407.777 302.85 409.007 300.12 409.687C298.74 410.037 297.34 410.246 295.91 410.136C295.41 410.096 294.93 410.047 294.56 409.457C295.03 407.617 296.59 406.527 297.71 405.207C298.54 405.207 299.25 405.207 299.96 405.207C303.18 405.177 305.76 403.917 307.56 401.187C308.71 399.457 309.72 397.647 310.46 395.697C311.14 393.917 311.74 392.106 312.39 390.306C312.53 389.916 312.71 389.536 312.91 389.056L312.9 389.087Z" fill="#617462"/>
<path d="M312.94 394.777C313.05 394.717 313.19 394.697 313.33 394.697C313.08 394.997 312.82 395.286 312.55 395.556C312.5 395.606 312.44 395.637 312.38 395.647C312.4 395.567 312.43 395.477 312.46 395.397C312.55 395.157 312.72 394.887 312.93 394.777H312.94Z" fill="#617462"/>
<path d="M311.36 388.056C311.27 388.396 311.22 388.707 311.12 388.997C310.46 390.907 309.84 392.817 309.13 394.707C308.32 396.857 307.24 398.877 305.89 400.737C304.51 402.637 302.59 403.507 300.28 403.607C300.13 403.607 299.98 403.547 299.55 403.447C300.26 402.857 300.75 402.427 301.26 402.027C302.58 400.977 303.5 399.687 303.9 398.007C304.31 396.257 304.77 394.517 305.29 392.797C305.57 391.877 305.44 391.077 305.03 390.277C304.8 389.847 304.53 389.437 304.29 389.007C304.01 388.487 303.74 387.967 303.44 387.397C304.45 386.427 305.38 385.517 306.35 384.587C307.17 385.267 307.92 385.967 308.76 386.547C309.56 387.097 310.45 387.526 311.37 388.036L311.36 388.056Z" fill="white"/>
<path d="M305.05 382.837C304.92 383.027 304.85 383.187 304.73 383.297C302.63 385.367 300.53 387.427 298.42 389.487C298.2 389.707 297.97 389.916 297.78 390.156C297.09 389.126 296.36 388.137 295.58 387.167C295.61 387.147 295.65 387.117 295.68 387.087C295.98 386.807 296.08 386.387 295.87 386.047C295.68 385.727 295.44 385.416 295.19 385.136C294.18 383.986 293.16 382.857 292.13 381.717C287.67 376.777 283.22 371.816 278.75 366.886C275.05 362.806 271.26 358.797 267.61 354.667C264.86 351.567 262.26 348.336 259.62 345.136C259.04 344.426 258.48 343.647 258.1 342.817C256.8 339.997 255.49 337.176 254.34 334.286C251.8 327.846 249.35 321.376 246.87 314.906C246.6 314.196 246.24 313.517 246.23 312.727C246.23 312.527 246.08 312.337 245.98 312.147C245.71 311.617 245.4 311.106 245.18 310.556C243.8 307.236 242.44 303.896 241.07 300.576C240.9 300.176 240.74 299.766 240.53 299.386C240.32 299.016 239.88 298.877 239.55 299.027C239.18 299.197 238.98 299.557 239.09 299.967C239.2 300.387 239.36 300.797 239.51 301.207C240.86 304.837 242.2 308.466 243.58 312.076C243.89 312.886 243.97 313.587 243.62 314.417C242.34 317.427 241.2 320.497 239.87 323.487C236.21 331.707 232.12 339.726 228.09 347.766C227.58 348.796 226.97 349.766 226.46 350.786C226.03 351.666 225.58 352.547 225.28 353.477C224.67 355.397 224.16 357.357 223.62 359.297C222.36 363.867 221.09 368.436 219.37 372.866C216.26 380.846 212.59 388.577 208.99 396.357C208.65 397.087 208.39 397.866 207.7 398.406C207.48 398.576 207.42 398.976 207.33 399.286C207.24 399.586 207.22 399.906 207.16 400.266C204.37 399.526 201.92 398.227 199.32 396.917C199.76 395.917 200.16 395.077 200.5 394.217C200.59 394.007 200.67 393.797 200.75 393.587C203.78 386.057 206.56 378.436 208.71 370.596C210.09 365.546 211.57 360.526 212.56 355.386C213.02 353.006 213.79 350.757 214.62 348.507C215.54 345.997 216.49 343.497 217.28 340.947C219.53 333.597 221.72 326.226 223.91 318.866C225.6 313.166 227.27 307.466 228.93 301.766C230.43 296.576 231.7 291.337 232.44 285.977C232.6 284.807 232.63 283.576 233.58 282.656C233.8 282.446 233.6 281.966 233.3 281.846C233.18 281.796 233.06 281.777 232.94 281.757C233.05 281.377 233.15 280.987 233.23 280.607C233.39 280.037 233.56 279.467 233.72 278.897C233.85 278.737 233.98 278.587 234.12 278.437C234.29 278.247 234.18 278.007 234 277.927C234.02 277.837 234.05 277.757 234.07 277.667C234.26 277.857 234.55 277.966 234.95 278.016C235.38 278.066 235.81 278.016 236.37 278.016C236.37 278.206 236.37 278.317 236.35 278.417C236.13 279.487 236.47 279.996 237.47 280.076C237.9 280.106 238.33 280.076 238.82 280.076C238.87 280.176 238.97 280.317 238.99 280.467C239.11 281.387 239.74 281.766 240.56 281.866C240.98 281.916 241.43 281.887 241.84 281.797C242.62 281.617 243.35 281.327 244.04 280.947C244.06 280.977 244.09 281.017 244.11 281.047C244.34 281.527 244.58 281.997 244.79 282.477C244.79 282.487 244.78 282.506 244.77 282.516C244.72 282.646 244.79 282.837 244.85 282.987C245.01 283.387 245.16 283.807 245.38 284.177C246.87 286.627 246.9 286.277 249.18 285.877C250.21 285.697 251.23 285.437 252.25 285.167C252.21 285.217 252.19 285.276 252.19 285.346C252.19 285.486 252.3 285.627 252.44 285.647C252.28 285.817 252.2 286.026 252.24 286.286C252.27 286.496 252.37 286.697 252.46 286.897C253.09 288.287 253.74 289.666 254.37 291.056C255.03 292.506 255.89 293.816 256.85 295.096C258.05 296.696 259.61 297.726 261.56 298.116C262.67 298.346 263.82 298.457 265.15 298.647C265.15 299.827 265.11 300.957 265.15 302.087C265.3 305.967 265.79 309.806 266.38 313.636C267.18 318.806 267.98 323.976 268.86 329.136C269.55 333.216 270.36 337.287 271.1 341.357C271.36 342.797 271.97 344.047 272.87 345.177C273.28 345.687 273.69 346.197 274.14 346.677C276.83 349.537 279.53 352.387 282.23 355.247C287.21 360.527 292.1 365.896 296.39 371.766C299 375.336 301.73 378.807 304.57 382.197C304.74 382.397 304.88 382.616 305.03 382.826L305.05 382.837Z" fill="#617462"/>
<path d="M298.28 390.927C298.49 391.267 297.96 391.567 297.75 391.237C297.65 391.077 297.54 390.917 297.44 390.757C297.47 390.617 297.54 390.466 297.65 390.326C297.69 390.266 297.74 390.216 297.78 390.156C297.95 390.406 298.12 390.667 298.28 390.927Z" fill="#617462"/>
<path d="M297.78 390.156C297.73 390.216 297.69 390.266 297.65 390.326C297.55 390.466 297.48 390.607 297.44 390.757C296.68 389.597 295.87 388.486 294.99 387.406C295.2 387.416 295.4 387.317 295.58 387.167C296.35 388.127 297.09 389.126 297.78 390.156Z" fill="#617462"/>
<path d="M295.88 386.047C296.09 386.397 295.99 386.817 295.69 387.087C295.66 387.117 295.63 387.147 295.59 387.167C295.32 386.827 295.05 386.497 294.77 386.167C294.51 385.867 294.08 386.296 294.34 386.596C294.57 386.866 294.79 387.127 295 387.397C294.89 387.397 294.77 387.357 294.65 387.277C294.25 387.007 293.88 386.677 293.56 386.317C290.02 382.387 286.5 378.427 282.96 374.487C280.73 372.017 278.45 369.587 276.23 367.107C272.89 363.367 269.56 359.626 266.26 355.846L267.61 354.667C271.26 358.797 275.05 362.796 278.75 366.886C283.23 371.816 287.67 376.777 292.13 381.717C293.16 382.857 294.18 383.986 295.19 385.136C295.44 385.416 295.68 385.727 295.87 386.047H295.88Z" fill="#617462"/>
<path d="M294.77 386.167C295.05 386.497 295.32 386.827 295.59 387.167C295.41 387.317 295.2 387.417 295 387.407C294.78 387.137 294.56 386.867 294.34 386.607C294.09 386.307 294.52 385.877 294.77 386.177V386.167Z" fill="#617462"/>
<path d="M290.46 270.867C290.48 271.247 290.48 271.637 290.44 272.007C290.41 272.217 290.31 272.367 290.16 272.467C290.19 271.287 290.12 270.117 289.94 268.937C289.88 268.547 289.29 268.717 289.35 269.107C289.53 270.267 289.59 271.447 289.55 272.617C289.22 272.597 288.94 272.407 288.84 272.107C288.77 271.897 288.73 271.687 288.71 271.467C288.65 270.927 288.58 270.387 288.56 269.837C288.43 266.777 288.33 263.727 288.19 260.677C287.96 255.447 287.78 250.207 287.44 244.977C287.26 242.147 286.83 239.337 286.48 236.527C286.41 235.947 286.21 235.377 286.05 234.747C285.73 234.707 285.46 234.617 285.21 234.647C282.3 235.067 279.4 235.517 276.38 235.967C276.57 236.587 276.72 237.097 276.89 237.607C278.67 242.987 280.53 248.347 282.02 253.817C282.29 254.807 282.49 255.827 282.72 256.837C282.92 257.727 282.64 258.446 281.94 259.016C281.22 259.596 280.5 260.186 279.8 260.786C274.11 265.666 267.97 269.917 261.66 273.927C261.29 274.167 260.92 274.387 260.54 274.607C260.4 274.687 260.24 274.736 260.01 274.826C258.62 273.806 257.46 272.517 256.38 271.157C256.34 271.107 256.3 271.057 256.25 270.997C256.52 270.837 256.78 270.677 257.03 270.507C257.31 270.327 257.14 269.927 256.88 269.927L257.47 269.657C258.5 270.907 259.53 271.987 260.33 272.587C267.54 268.187 274.14 262.927 280.69 257.357C280.6 256.847 280.57 256.407 280.46 255.997C279.91 253.947 279.41 251.877 278.76 249.857C276.83 243.837 274.85 237.837 272.85 231.837C271.54 227.907 270.21 223.987 268.57 220.177C267.85 218.527 267.06 216.917 266 215.447C265.13 214.237 264.11 213.177 262.79 212.457C262.28 212.177 261.68 211.987 261.1 211.897C260.26 211.767 259.49 212.037 258.81 212.567C258.21 213.047 257.91 213.637 258.02 214.427C258.04 214.527 258.02 214.667 257.97 214.747C257.84 214.907 257.7 215.107 257.52 215.177C257.23 215.297 256.97 215.107 256.83 214.877C256.7 214.657 256.66 214.367 256.62 214.107C256.5 213.247 256.97 212.547 257.32 211.837C256.85 211.547 256.42 211.696 256.01 211.826C253.9 212.516 252.3 213.847 251.08 215.677C249.91 217.417 249.13 219.336 248.55 221.326C246.94 226.846 246.12 232.497 245.91 238.247C245.91 238.467 245.91 238.687 245.88 238.907C245.85 239.107 245.77 239.277 245.64 239.387C245.49 239.337 245.31 239.387 245.25 239.547C244.84 239.597 244.46 239.367 244.42 238.957C244.36 238.307 244.33 237.657 244.4 237.007C244.53 235.647 244.72 234.297 244.9 232.947C245.38 229.377 246.01 225.837 246.93 222.357C247.57 219.927 248.38 217.557 249.69 215.387C250.76 213.617 252.14 212.177 253.98 211.227C255.65 210.367 257.42 209.836 259.33 210.266C259.56 210.316 259.81 210.266 260.44 210.266C259.59 210.026 259.12 209.806 258.65 209.766C257.74 209.696 256.86 209.686 256.01 209.766L255.94 209.036C256.11 209.036 256.25 208.897 256.25 208.727C256.25 208.607 256.25 208.487 256.25 208.367C257.61 208.287 259 208.427 260.41 208.747C261.37 208.967 262.26 209.337 262.64 210.407C262.72 210.627 262.99 210.807 263.22 210.927C265.21 211.987 266.66 213.577 267.84 215.457C269.12 217.497 270.17 219.646 271.13 221.846C272.63 225.246 273.88 228.727 275.04 232.247C275.23 232.807 275.44 233.367 275.67 234.007C276.22 233.967 276.7 233.957 277.18 233.877C279.44 233.517 281.69 233.116 283.96 232.766C284.55 232.676 285.16 232.687 285.75 232.687C286.79 232.697 287.55 233.187 287.86 234.177C288.11 235.007 288.3 235.867 288.41 236.727C288.94 241.227 289.32 245.736 289.5 250.266C289.71 255.506 289.94 260.737 290.17 265.967C290.24 267.597 290.36 269.237 290.45 270.867H290.46Z" fill="#617462"/>
<path d="M290.33 274.346C290.54 274.636 290.5 275.027 290.23 275.237C289.9 275.497 289.5 275.726 289.1 275.846C287.6 276.286 286.11 276.737 284.6 277.147C284.24 277.027 283.83 276.987 283.53 276.987C283.24 276.987 283.16 277.307 283.3 277.487C283.3 277.487 283.3 277.487 283.28 277.487C273.56 279.907 263.83 282.297 254.11 284.697C253.77 284.787 253.42 284.867 253.08 284.957C253.02 284.877 252.93 284.827 252.79 284.837C252.77 284.797 252.75 284.757 252.71 284.727C252.45 284.437 252.02 284.857 252.27 285.147L252.25 285.167C251.23 285.437 250.21 285.697 249.18 285.877C246.9 286.277 246.87 286.627 245.38 284.177C245.16 283.807 245.01 283.387 244.85 282.987C244.79 282.837 244.72 282.646 244.77 282.516C244.77 282.506 244.78 282.487 244.79 282.477C244.85 282.607 244.9 282.747 244.95 282.877C245.03 283.107 245.29 283.127 245.44 283.027C245.49 283.107 245.54 283.177 245.59 283.257C245.81 283.587 246.33 283.277 246.12 282.947C245.88 282.577 245.65 282.197 245.43 281.817C245.61 281.817 245.79 281.947 245.9 282.127C246.04 282.357 246.13 282.617 246.26 282.857C246.44 283.197 246.62 283.526 246.83 283.846C247.01 284.116 247.22 284.357 247.54 284.757C249.55 284.267 251.45 283.817 253.34 283.337C262.26 281.077 271.18 278.827 280.08 276.527C282.93 275.797 285.74 274.937 288.57 274.147C288.85 274.067 289.15 273.967 289.43 273.937C289.4 274.207 289.37 274.487 289.33 274.757C289.27 275.147 289.86 275.307 289.92 274.927C289.96 274.647 290 274.356 290.03 274.076C290.14 274.156 290.24 274.256 290.3 274.346H290.33Z" fill="#617462"/>
<path d="M289.94 268.946C290.12 270.126 290.19 271.297 290.16 272.477C290.05 272.557 289.92 272.607 289.77 272.627C289.7 272.627 289.63 272.637 289.56 272.627C289.6 271.457 289.54 270.276 289.36 269.116C289.3 268.726 289.89 268.566 289.95 268.946H289.94Z" fill="#617462"/>
<path d="M290.16 272.467C290.15 273.007 290.11 273.536 290.05 274.076C289.93 273.986 289.81 273.937 289.69 273.927C289.61 273.927 289.53 273.927 289.45 273.937C289.5 273.497 289.53 273.056 289.55 272.616C289.62 272.616 289.69 272.616 289.76 272.616C289.91 272.596 290.05 272.547 290.15 272.467H290.16Z" fill="#F7DDC0"/>
<path d="M290.05 274.077C290.02 274.357 289.98 274.647 289.94 274.927C289.88 275.317 289.29 275.147 289.35 274.757C289.39 274.487 289.43 274.207 289.45 273.937C289.53 273.927 289.61 273.917 289.69 273.927C289.8 273.927 289.93 273.987 290.05 274.077Z" fill="#617462"/>
<path d="M289.56 272.616C289.54 273.056 289.51 273.497 289.46 273.937C289.17 273.967 288.88 274.067 288.6 274.147C285.77 274.937 282.96 275.797 280.11 276.527C271.2 278.827 262.28 281.077 253.37 283.337C251.47 283.817 249.57 284.267 247.57 284.757C247.25 284.357 247.04 284.116 246.86 283.846C246.65 283.526 246.47 283.197 246.29 282.857C246.16 282.617 246.08 282.357 245.93 282.127C245.82 281.947 245.64 281.817 245.46 281.817C245.21 281.397 244.98 280.966 244.73 280.556C244.86 280.466 245 280.387 245.12 280.297C246.69 279.217 248.27 278.137 249.78 276.977C251.29 275.807 252.72 274.546 254.18 273.306C254.51 273.026 254.81 272.696 255.08 272.366C255.26 272.136 255.3 271.857 255.21 271.627C255.57 271.417 255.93 271.217 256.28 271.007C256.32 271.067 256.36 271.117 256.41 271.167C257.48 272.537 258.64 273.827 260.04 274.837C260.27 274.747 260.43 274.696 260.57 274.616C260.95 274.396 261.32 274.177 261.69 273.937C268 269.927 274.14 265.677 279.83 260.797C280.53 260.187 281.26 259.607 281.97 259.027C282.67 258.457 282.95 257.736 282.75 256.846C282.52 255.836 282.32 254.816 282.05 253.826C280.56 248.356 278.7 242.996 276.92 237.616C276.75 237.106 276.6 236.597 276.41 235.977C279.43 235.527 282.33 235.076 285.24 234.656C285.49 234.616 285.76 234.717 286.08 234.757C286.23 235.387 286.43 235.956 286.51 236.536C286.86 239.346 287.29 242.157 287.47 244.987C287.8 250.217 287.99 255.447 288.22 260.687C288.35 263.737 288.46 266.786 288.59 269.846C288.61 270.396 288.68 270.937 288.74 271.477C288.76 271.687 288.81 271.906 288.87 272.116C288.97 272.416 289.25 272.607 289.58 272.627L289.56 272.616Z" fill="#F7DDC0"/>
<path d="M287.2 281.366C287.8 282.046 287.83 282.687 287.33 283.457C287.01 283.957 286.62 284.426 286.24 284.886C284.43 287.036 282.26 288.777 280.01 290.417C276.41 293.047 272.48 294.996 268.12 296.036C266.68 296.376 265.24 296.607 263.75 296.527C261.4 296.397 259.41 295.587 257.93 293.677C257.06 292.547 256.27 291.377 255.68 290.087C255.14 288.897 254.59 287.706 254.04 286.516C253.91 286.226 253.75 285.937 253.56 285.667C253.48 285.557 253.36 285.477 253.23 285.427C253.22 285.257 253.19 285.087 253.1 284.967C253.44 284.877 253.79 284.787 254.13 284.707C263.85 282.307 273.58 279.917 283.3 277.497C283.3 277.497 283.3 277.497 283.32 277.497C283.37 277.567 283.45 277.607 283.55 277.607C283.73 277.607 284.99 277.667 284.82 278.067C284.75 278.217 284.82 278.367 284.91 278.457C284.77 278.767 284.8 279.136 285.04 279.406C285.3 279.686 285.61 279.907 285.9 280.167C286.35 280.567 286.83 280.936 287.22 281.386L287.2 281.366Z" fill="#DBDBDB"/>
<path d="M285.42 277.957C285.42 278.077 285.39 278.206 285.33 278.366C285.24 278.576 285.03 278.557 284.9 278.447C284.94 278.357 284.99 278.277 285.06 278.197C285.16 278.087 285.29 277.997 285.43 277.957H285.42Z" fill="#617462"/>
<path d="M285.42 277.957C285.28 277.997 285.16 278.087 285.05 278.197C284.98 278.267 284.92 278.357 284.89 278.447C284.79 278.357 284.73 278.216 284.8 278.056C284.97 277.666 283.72 277.596 283.53 277.596C283.43 277.596 283.35 277.547 283.3 277.487C283.73 277.377 284.17 277.267 284.6 277.147C285.04 277.287 285.41 277.537 285.42 277.957Z" fill="#DBDBDB"/>
<path d="M284.6 277.147C284.17 277.267 283.74 277.377 283.3 277.487C283.16 277.317 283.24 276.987 283.53 276.987C283.83 276.987 284.24 277.037 284.6 277.147Z" fill="#617462"/>
<path d="M280.48 255.997C280.59 256.407 280.62 256.847 280.71 257.357C274.16 262.937 267.56 268.187 260.35 272.587C259.56 271.987 258.52 270.907 257.49 269.657C256.16 268.057 254.85 266.167 254.07 264.677C254.4 264.317 254.77 263.936 255.13 263.556C257.63 260.886 260.14 258.237 262.62 255.547C264.35 253.657 266.01 251.697 267.75 249.817C268.58 248.927 268.71 248.047 268.18 246.997C267.23 245.097 266.36 243.147 265.35 241.277C263.26 237.387 261.1 233.537 258.97 229.667C258.84 229.427 258.72 229.187 258.57 228.947C258.16 228.287 257.7 228.077 257.26 228.357C256.83 228.627 256.82 229.066 257.21 229.806C257.42 230.186 257.66 230.557 257.87 230.937C258.77 232.617 259.68 234.297 260.57 235.987C260.74 236.317 260.85 236.677 261.03 237.117C255.98 238.337 250.97 239.537 245.94 240.747C245.87 240.387 245.86 240.007 245.86 239.637C245.86 239.487 245.77 239.397 245.67 239.357C245.8 239.247 245.88 239.077 245.91 238.877C245.94 238.667 245.93 238.447 245.94 238.217C246.15 232.477 246.97 226.817 248.58 221.297C249.16 219.297 249.95 217.387 251.11 215.647C252.33 213.827 253.93 212.487 256.04 211.797C256.45 211.667 256.87 211.516 257.35 211.806C257 212.526 256.53 213.226 256.65 214.076C256.69 214.336 256.73 214.626 256.86 214.846C256.99 215.076 257.25 215.277 257.55 215.147C257.73 215.077 257.87 214.877 258 214.717C258.06 214.647 258.06 214.507 258.05 214.397C257.94 213.617 258.25 213.016 258.84 212.536C259.51 211.996 260.29 211.737 261.13 211.867C261.71 211.957 262.3 212.147 262.82 212.427C264.14 213.147 265.15 214.207 266.03 215.417C267.09 216.887 267.89 218.497 268.6 220.147C270.24 223.957 271.57 227.876 272.88 231.806C274.88 237.806 276.85 243.806 278.79 249.826C279.44 251.846 279.94 253.917 280.49 255.967L280.48 255.997Z" fill="#DBDBDB"/>
<path d="M276.54 205.567C276.67 205.747 276.71 206.117 276.61 206.317C276.47 206.587 276.19 206.827 275.92 206.977C274.83 207.567 273.54 207.567 272.44 207.047C272.6 206.807 272.33 206.427 272.04 206.617C271.98 206.657 271.93 206.687 271.87 206.717C271.52 206.477 271.21 206.187 270.94 205.837C270.32 205.047 269.92 204.147 269.83 203.157C269.74 202.187 269.74 201.207 269.72 200.227C269.72 199.797 269.78 199.357 269.84 198.667C269.86 197.997 269.93 197.067 269.93 196.147C269.93 194.787 269.29 193.877 268 193.427C267.49 193.247 266.98 193.047 266.47 192.857C264.5 192.117 263.23 190.717 262.59 188.717C262.06 187.047 261.77 185.337 261.64 183.587C261.55 182.337 261.48 181.087 261.36 179.837C260.95 175.627 258.82 172.477 255.31 170.237C253.35 168.977 251.11 168.757 248.86 168.857C247.62 168.917 246.38 169.197 245.15 169.417C244.07 169.617 243.06 170.007 242.11 170.577C241.83 170.747 241.54 170.897 241.24 171.007C240.88 171.137 240.5 170.947 240.27 170.587C240.67 170.407 241.09 170.327 241.51 170.447C241.89 170.557 242.05 169.967 241.68 169.857C241.17 169.717 240.66 169.777 240.18 169.977C240.21 169.877 240.27 169.777 240.35 169.697C240.56 169.457 240.83 169.267 241.09 169.077C242.91 167.777 244.99 167.137 247.18 166.887C248.53 166.737 249.9 166.706 251.26 166.766C255 166.916 257.85 168.797 260.18 171.597C262.53 174.407 263.39 177.727 263.57 181.297C263.65 182.767 263.76 184.237 263.96 185.687C264.09 186.597 264.35 187.497 264.65 188.367C265.05 189.557 265.87 190.417 267.07 190.867C267.63 191.077 268.18 191.307 268.75 191.507C270.95 192.287 272.22 193.837 272.05 196.887C271.98 198.137 271.81 199.387 271.64 200.627C271.51 201.567 271.61 202.487 271.82 203.387C271.92 203.807 272.09 204.227 272.3 204.597C272.86 205.567 273.89 205.937 274.96 205.607C275.27 205.517 275.57 205.307 275.88 205.287C276.11 205.267 276.44 205.407 276.57 205.587L276.54 205.567Z" fill="#617462"/>
<path d="M272.05 206.617C272.34 206.427 272.61 206.807 272.45 207.047C272.25 206.957 272.06 206.847 271.88 206.717C271.94 206.687 272 206.647 272.05 206.617Z" fill="#617462"/>
<path d="M272.44 207.047C272.44 207.047 272.39 207.116 272.35 207.136C269.52 208.966 264.63 207.377 263.06 204.417C263.23 204.307 263.4 204.187 263.56 204.067C264.9 206.707 269.29 208.187 271.87 206.717C272.05 206.847 272.24 206.957 272.44 207.047Z" fill="white"/>
<path d="M270.94 205.836C271.21 206.186 271.52 206.476 271.87 206.716C269.29 208.186 264.91 206.716 263.56 204.066C263.62 204.026 263.67 203.997 263.72 203.957C263.89 203.827 264.05 203.667 264.16 203.477C264.33 203.177 264.34 202.836 264.1 202.566C263.86 202.306 263.55 202.207 263.22 202.417C262.9 202.627 262.6 202.856 262.28 203.066C260.76 204.086 259.14 204.827 257.3 204.957C256.78 204.997 256.28 204.977 255.82 204.897C254.54 204.677 253.49 203.977 252.77 202.667C252.45 202.097 252.15 201.517 251.89 200.917C251 198.897 249.54 197.396 247.65 196.286C246.94 195.876 246.23 195.476 245.53 195.056C244.09 194.186 243.01 192.986 242.25 191.486C241.63 190.266 241.18 188.976 241.02 187.606C240.84 186.086 240.74 184.566 240.63 183.046C240.44 180.266 240.18 177.506 239.25 174.846C239.16 174.606 239.1 174.347 239.04 174.187C239.36 173.587 239.85 173.747 240.26 173.667C240.7 173.577 240.98 173.276 240.97 172.906C240.97 172.476 240.74 172.156 240.34 172.056C239.98 171.966 239.59 171.926 239.23 171.966C238.99 171.996 238.77 172.076 238.53 172.176C238.96 171.556 239.58 170.886 240.28 170.566C240.51 170.926 240.89 171.116 241.25 170.986C241.55 170.876 241.84 170.716 242.12 170.556C243.07 169.986 244.08 169.597 245.16 169.397C246.39 169.177 247.63 168.896 248.87 168.836C251.12 168.736 253.36 168.966 255.32 170.216C258.83 172.456 260.96 175.606 261.37 179.816C261.49 181.066 261.56 182.316 261.65 183.566C261.78 185.316 262.07 187.026 262.6 188.696C263.24 190.696 264.51 192.096 266.48 192.836C266.99 193.026 267.49 193.226 268.01 193.406C269.3 193.856 269.95 194.776 269.94 196.126C269.94 197.046 269.87 197.977 269.85 198.647C269.79 199.337 269.72 199.777 269.73 200.207C269.74 201.187 269.75 202.166 269.84 203.136C269.93 204.126 270.34 205.036 270.95 205.816L270.94 205.836Z" fill="white"/>
<path d="M268.18 246.997C268.71 248.057 268.57 248.926 267.75 249.816C266 251.696 264.35 253.656 262.62 255.546C260.14 258.236 257.63 260.896 255.13 263.556C254.77 263.946 254.4 264.326 254.07 264.676C254.85 266.166 256.17 268.056 257.49 269.656L256.9 269.926C256.85 269.926 256.8 269.947 256.74 269.977C256.46 270.157 256.17 270.336 255.89 270.506C255.02 269.386 254.18 268.236 253.29 267.076C252.36 267.676 251.46 268.266 250.54 268.846C249.97 269.206 249.35 269.406 248.68 269.316C247.95 269.216 247.4 268.906 246.99 268.216C246.38 267.196 245.62 266.266 244.89 265.336C244.71 265.106 244.37 264.936 244.07 264.866C243.6 264.746 243.11 264.687 242.62 264.687C240.72 264.687 239.02 265.347 237.22 266.147L236.73 266.126C236.78 266.046 236.81 265.956 236.81 265.846C236.81 265.546 236.5 265.416 236.25 265.366C236.48 265.126 236.73 264.907 236.99 264.667C237.05 264.207 236.76 263.846 236.59 263.466C234.7 259.116 232.88 254.736 231.3 250.266C231.08 249.656 230.91 249.016 230.79 248.376C230.72 248.006 230.88 247.696 231.14 247.526C231.14 247.676 231.16 247.826 231.19 247.986C231.25 248.376 231.85 248.206 231.78 247.816C231.76 247.666 231.74 247.526 231.74 247.386C232.07 247.426 232.32 247.636 232.46 248.036C233.02 249.746 233.57 251.456 234.11 253.176C235.14 256.456 236.46 259.626 237.8 262.786C237.99 263.226 238.24 263.636 238.49 264.116C239.08 263.976 239.63 263.916 240.12 263.716C241.66 263.076 243.24 263.396 244.8 263.506C245.14 263.526 245.55 263.766 245.78 264.036C246.54 264.956 247.28 265.896 247.92 266.906C248.41 267.666 248.87 267.966 249.6 267.556C250.54 267.026 251.43 266.396 252.34 265.806C252.26 265.336 252.19 264.966 252.14 264.596C252.05 263.886 252.22 263.347 252.95 262.997C253.37 262.797 253.71 262.396 254.05 262.036C256.45 259.506 258.85 256.966 261.24 254.426C263.08 252.476 264.68 250.346 266.36 248.356C265.94 246.686 263.5 241.556 261.74 238.596C261.48 238.626 261.16 238.626 260.86 238.696C255.89 239.776 250.93 240.937 245.99 242.167L245.9 241.786C246.08 241.746 246.24 241.546 246.14 241.326C246.05 241.136 246 240.946 245.96 240.756C250.99 239.546 256 238.336 261.05 237.126C260.88 236.696 260.77 236.327 260.59 235.997C259.7 234.307 258.8 232.626 257.89 230.946C257.68 230.566 257.44 230.196 257.23 229.816C256.83 229.076 256.85 228.636 257.28 228.366C257.72 228.086 258.17 228.297 258.59 228.957C258.73 229.187 258.86 229.436 258.99 229.676C261.12 233.546 263.28 237.396 265.37 241.286C266.38 243.156 267.24 245.096 268.2 247.006L268.18 246.997Z" fill="#617462"/>
<path d="M267.62 354.667L266.27 355.847C266.05 355.597 265.83 355.347 265.61 355.087C263.14 352.247 260.75 349.337 258.32 346.457C257.37 345.327 256.64 344.057 256.01 342.717C253.13 336.597 250.76 330.257 248.23 323.997C247.33 321.767 246.49 319.527 245.61 317.297C245.51 317.047 245.37 316.827 245.17 316.417C245 316.717 244.89 316.867 244.82 317.037C241.86 324.557 238.3 331.797 234.76 339.047C233.16 342.327 231.52 345.597 229.89 348.867C229.57 349.497 229.29 350.157 228.9 350.747C227.78 352.467 227.16 354.367 226.61 356.317C225.49 360.307 224.43 364.317 223.17 368.257C221.35 373.977 218.99 379.497 216.47 384.947C214.25 389.747 211.94 394.507 209.7 399.297C209.36 400.017 208.82 400.647 208.82 401.537C208.82 402.007 208.38 402.267 207.88 402.247C207.56 402.227 207.23 402.167 206.92 402.077C205.93 401.777 204.95 401.457 203.87 401.117C203.09 402.387 202.81 403.797 202.9 405.267C202.93 405.707 202.97 406.097 202.81 406.527C202.67 406.917 202.69 407.377 202.65 407.817C202.56 408.907 202.49 409.997 202.41 411.087C202.39 411.357 202.37 411.637 202.3 411.897C201.91 413.357 200.71 413.867 199.4 413.087C198.75 412.697 198.16 412.207 197.56 411.737C197.18 411.437 196.82 411.097 196.41 410.747C196.2 410.817 195.99 410.857 195.8 410.947C193.21 412.167 190.49 412.467 187.67 412.207C182.65 411.747 178.15 409.967 174.18 406.867C173.37 406.237 172.65 405.477 171.94 404.727C171.66 404.427 171.46 403.997 171.34 403.587C171.18 402.997 171.49 402.407 172.01 402.147C171.97 402.317 172.06 402.537 172.29 402.537C172.64 402.537 173.01 402.537 173.39 402.517C173.46 402.707 173.47 402.937 173.39 403.197C173.38 403.247 173.33 403.287 173.31 403.337C173.28 403.437 173.25 403.547 173.21 403.697C173.53 404.307 174.06 404.767 174.61 405.217C178.7 408.577 183.41 410.417 188.69 410.687C191.1 410.807 193.49 410.517 195.58 409.107C195.82 408.937 196.06 408.867 196.3 408.867C196.57 408.867 196.84 408.967 197.09 409.167C197.52 409.497 197.91 409.887 198.32 410.237C198.97 410.797 199.59 411.397 200.42 411.717C200.83 410.617 201.01 408.737 200.86 407.117C200.29 406.977 199.71 407.177 199.13 407.177C198.53 407.177 197.93 407.217 197.33 407.287C196.94 407.337 196.55 407.377 196.15 407.407C193.6 407.627 191.05 407.577 188.5 407.467C186.38 407.377 184.65 406.367 183.38 404.637C183.06 404.207 182.77 403.747 182.43 403.237C180.6 403.147 178.76 403.057 176.93 402.957C177.17 402.887 177.3 402.537 177.02 402.417C176.27 402.087 175.42 401.957 174.56 401.917C174.56 401.897 174.56 401.877 174.56 401.857C174.65 401.447 175.08 401.107 175.53 401.147C176.12 401.197 176.71 401.307 177.31 401.337C181.56 401.527 185.81 401.707 190.07 401.867C192.25 401.947 194.43 401.987 196.62 402.037C197.49 400.957 197.82 399.677 198.45 398.457C198.12 398.217 197.84 397.987 197.53 397.797C197.07 397.507 196.59 397.247 196.14 396.947C195.85 396.747 195.75 396.417 195.88 396.077C196.01 395.737 196.45 395.467 196.8 395.567C197.11 395.647 197.39 395.817 197.77 395.977C198.26 395.457 198.49 394.777 198.73 394.137C198.88 393.747 199.03 393.347 199.18 392.957L200.75 393.587C200.66 393.797 200.58 394.007 200.5 394.217C200.15 395.077 199.76 395.907 199.32 396.917C201.92 398.227 204.37 399.527 207.16 400.267C207.22 399.907 207.24 399.587 207.33 399.287C207.42 398.977 207.48 398.587 207.7 398.407C208.39 397.867 208.65 397.087 208.99 396.357C212.58 388.587 216.25 380.857 219.37 372.867C221.1 368.437 222.36 363.867 223.62 359.297C224.16 357.357 224.67 355.397 225.28 353.477C225.57 352.547 226.02 351.667 226.46 350.787C226.97 349.767 227.58 348.787 228.09 347.767C232.12 339.727 236.21 331.707 239.87 323.487C241.2 320.507 242.34 317.427 243.62 314.417C243.98 313.587 243.9 312.877 243.58 312.077C242.19 308.467 240.86 304.827 239.51 301.207C239.36 300.797 239.2 300.387 239.09 299.967C238.98 299.557 239.18 299.197 239.55 299.027C239.87 298.877 240.32 299.017 240.53 299.387C240.74 299.767 240.91 300.177 241.07 300.577C242.44 303.907 243.8 307.237 245.18 310.557C245.41 311.107 245.72 311.617 245.98 312.147C246.07 312.337 246.23 312.537 246.23 312.727C246.23 313.517 246.59 314.207 246.87 314.907C249.35 321.367 251.8 327.847 254.34 334.287C255.48 337.177 256.8 339.997 258.1 342.817C258.48 343.647 259.03 344.427 259.62 345.137C262.26 348.337 264.86 351.567 267.61 354.667H267.62ZM201.07 405.177C201.36 403.527 201.48 401.887 202.33 400.477C201.17 399.627 201.11 399.597 199.93 399.327C199.76 399.637 199.57 399.957 199.42 400.297C199.05 401.087 198.69 401.877 198.35 402.677C198 403.487 197.4 403.787 196.53 403.737C193.65 403.587 190.76 403.457 187.88 403.347C186.86 403.307 185.83 403.347 184.63 403.347C184.78 403.677 184.82 403.847 184.91 403.957C185.88 405.177 187.17 405.827 188.71 405.907C192.42 406.097 196.12 405.887 199.8 405.497C200.22 405.447 200.63 405.297 201.07 405.177Z" fill="#617462"/>
<path d="M261.75 238.596C263.51 241.556 265.94 246.687 266.37 248.357C264.69 250.347 263.09 252.477 261.25 254.427C258.86 256.967 256.46 259.506 254.06 262.036C253.72 262.386 253.38 262.787 252.96 262.997C252.23 263.347 252.06 263.886 252.15 264.596C252.19 264.966 252.27 265.336 252.35 265.806C251.44 266.386 250.56 267.026 249.61 267.556C248.88 267.966 248.42 267.666 247.93 266.906C247.29 265.906 246.55 264.966 245.79 264.036C245.57 263.766 245.15 263.527 244.81 263.507C243.25 263.407 241.67 263.077 240.13 263.717C239.64 263.917 239.1 263.976 238.5 264.116C238.25 263.646 237.99 263.236 237.81 262.786C236.47 259.626 235.15 256.457 234.12 253.177C233.58 251.457 233.03 249.746 232.47 248.036C232.34 247.646 232.08 247.426 231.75 247.386C231.7 245.706 233.21 244.807 234.79 244.757C234.91 244.997 235.22 245.127 235.54 245.047C235.75 244.997 235.95 244.886 236.15 244.826C236.88 244.586 237.59 244.326 238.33 244.136C240.88 243.456 243.44 242.797 246 242.167C250.94 240.937 255.89 239.787 260.87 238.697C261.17 238.627 261.49 238.626 261.75 238.596Z" fill="#F7DDC0"/>
<path d="M264.1 202.567C264.35 202.837 264.34 203.177 264.16 203.477C264.06 203.657 263.89 203.827 263.72 203.957C263.67 203.997 263.62 204.037 263.56 204.067C263.46 203.857 263.37 203.647 263.3 203.427C263.19 203.047 262.6 203.217 262.71 203.597C262.8 203.877 262.91 204.157 263.05 204.427C260.98 205.817 258.74 206.687 256.15 206.497C256.1 206.187 256.04 205.877 255.95 205.577C255.91 205.447 255.82 205.377 255.71 205.367L255.8 204.907C256.27 204.987 256.76 205.007 257.28 204.967C259.12 204.837 260.75 204.097 262.26 203.077C262.58 202.867 262.88 202.637 263.2 202.427C263.53 202.217 263.84 202.317 264.08 202.577L264.1 202.567Z" fill="#617462"/>
<path d="M263.31 203.427C263.37 203.647 263.46 203.867 263.57 204.067C263.4 204.187 263.24 204.307 263.07 204.417C262.93 204.147 262.81 203.877 262.73 203.587C262.62 203.207 263.21 203.047 263.32 203.417L263.31 203.427Z" fill="#617462"/>
<path d="M260.48 210.247C259.85 210.247 259.6 210.297 259.37 210.247C257.45 209.817 255.69 210.347 254.02 211.207C252.17 212.147 250.8 213.597 249.73 215.367C248.42 217.537 247.61 219.907 246.97 222.337C246.05 225.817 245.42 229.357 244.94 232.927C244.76 234.277 244.57 235.627 244.44 236.987C244.38 237.637 244.41 238.287 244.46 238.937C244.5 239.347 244.88 239.577 245.29 239.527C245.27 239.557 245.27 239.597 245.27 239.647C245.27 240.077 245.29 240.497 245.38 240.907C244.64 241.087 243.9 241.267 243.15 241.447C243.41 240.527 243.48 239.467 243.08 238.577C243.03 238.477 242.95 238.427 242.87 238.417C242.86 237.997 242.84 237.587 242.82 237.167C242.61 232.617 243.07 228.117 244 223.677C244.54 221.107 245.46 218.647 246.76 216.357C247.35 215.317 248.04 214.317 248.81 213.417C250.8 211.107 253.27 210.017 256.04 209.757C256.89 209.677 257.77 209.687 258.68 209.757C259.16 209.797 259.62 210.007 260.47 210.257L260.48 210.247Z" fill="#F7DDC0"/>
<path d="M256.9 269.937C257.15 269.937 257.32 270.336 257.05 270.516C256.79 270.686 256.53 270.847 256.27 271.007C256.14 270.847 256.02 270.686 255.89 270.516C256.18 270.346 256.46 270.177 256.74 269.987C256.8 269.947 256.85 269.937 256.9 269.937Z" fill="#617462"/>
<path d="M256.28 208.357C256.28 208.477 256.28 208.597 256.28 208.717C256.28 208.887 256.14 209.027 255.97 209.027C255.12 209.027 254.26 209.007 253.44 208.857C254.17 208.637 254.9 208.486 255.64 208.406H255.66C255.86 208.386 256.06 208.366 256.27 208.346L256.28 208.357Z" fill="#617462"/>
<path d="M255.88 270.516C256 270.676 256.13 270.837 256.26 271.007C255.9 271.217 255.55 271.417 255.19 271.627C255.15 271.517 255.08 271.417 254.98 271.337C254.9 271.267 254.81 271.217 254.72 271.187C255.11 270.967 255.5 270.746 255.88 270.516Z" fill="white"/>
<path d="M256.16 206.487C256.25 207.107 256.27 207.726 256.27 208.346C256.06 208.356 255.86 208.377 255.66 208.397C255.66 207.737 255.64 207.067 255.53 206.417C255.68 206.437 255.83 206.457 255.98 206.477C256.04 206.477 256.1 206.487 256.16 206.487Z" fill="white"/>
<path d="M256.16 206.486C256.1 206.486 256.04 206.487 255.98 206.477C255.83 206.467 255.68 206.447 255.53 206.417C255.49 206.187 255.44 205.957 255.37 205.727C255.3 205.477 255.52 205.326 255.72 205.346C255.82 205.366 255.92 205.426 255.96 205.556C256.05 205.856 256.12 206.167 256.16 206.477V206.486Z" fill="#617462"/>
<path d="M255.97 209.016L256.04 209.747C253.27 209.997 250.8 211.096 248.81 213.406C248.03 214.306 247.35 215.306 246.76 216.346C245.45 218.626 244.54 221.097 244 223.667C243.07 228.107 242.61 232.606 242.82 237.156C242.84 237.576 242.86 237.986 242.87 238.406C242.67 238.386 242.44 238.616 242.55 238.866C242.74 239.286 242.78 239.777 242.74 240.257C242.62 240.417 242.44 240.556 242.29 240.576C242.09 240.596 241.75 240.397 241.67 240.207C241.52 239.867 241.48 239.476 241.46 239.096C241.19 233.506 241.63 227.987 242.89 222.527C242.94 222.317 243.12 222.037 242.78 221.877C242.69 221.967 242.6 222.037 242.55 222.127C242.4 222.417 242.25 222.707 242.11 223.007C239.54 228.577 238.51 234.526 237.82 240.556C237.78 240.926 237.82 241.317 237.82 241.697C237.83 242.037 237.86 242.387 237.88 242.687C239.43 242.317 240.97 241.946 242.51 241.576C242.6 241.806 243 241.856 243.09 241.556C243.1 241.516 243.11 241.477 243.13 241.427C243.87 241.247 244.61 241.066 245.36 240.886C245.41 241.136 245.49 241.376 245.6 241.616C245.66 241.756 245.78 241.796 245.89 241.766L245.98 242.147C243.42 242.787 240.86 243.446 238.31 244.116C237.57 244.316 236.86 244.576 236.13 244.806C235.92 244.876 235.73 244.977 235.52 245.027C235.2 245.107 234.89 244.977 234.77 244.737C235.07 244.737 235.38 244.747 235.68 244.797C236.07 244.867 236.23 244.277 235.85 244.207C235.49 244.147 235.12 244.117 234.77 244.127C234.83 243.997 234.93 243.887 235.08 243.797C235.31 243.657 235.57 243.547 235.82 243.457C236.22 243.297 236.63 243.157 237.09 242.997C236.9 242.717 236.67 242.497 236.58 242.227C236.48 241.927 236.43 241.576 236.46 241.266C236.56 239.966 236.62 238.646 236.85 237.366C237.33 234.626 237.79 231.877 238.47 229.187C239.58 224.777 241.24 220.577 243.98 216.877C244.56 216.087 245.17 215.317 245.72 214.497C247 212.597 248.75 211.206 250.68 210.056C251.59 209.516 252.52 209.106 253.47 208.826C254.3 208.976 255.15 208.997 256 208.997L255.97 209.016Z" fill="#617462"/>
<path d="M255.81 204.906L255.72 205.366C255.52 205.336 255.3 205.497 255.37 205.747C255.44 205.977 255.49 206.207 255.53 206.437C253.94 206.187 252.66 205.407 251.74 204.047C251.31 203.417 250.93 202.747 250.64 202.047C249.78 199.927 248.29 198.407 246.29 197.357C246 197.207 245.72 197.036 245.43 196.886C242.28 195.206 240.49 192.517 239.7 189.107C239.23 187.077 239.11 185.007 239.03 182.927C238.95 180.627 238.67 178.367 238.05 176.147C237.96 175.847 237.79 175.567 237.62 175.177C236.47 176.337 235.91 177.646 235.76 179.156C235.68 179.966 235.6 180.786 235.51 181.596C235.26 183.916 234.21 185.727 232.15 186.897C232.01 186.977 231.88 187.077 231.75 187.177C231.71 187.207 231.68 187.257 231.64 187.297C232.33 188.207 233.13 189.047 233.69 190.027C234.22 190.957 234.5 192.027 234.9 193.067C235.39 192.987 235.81 192.877 236.23 192.857C236.57 192.847 236.86 193.026 236.98 193.386C237.1 193.756 236.92 194.037 236.62 194.217C236.3 194.417 235.94 194.547 235.6 194.707C236.06 196.027 236.61 196.726 237.64 197.306C238.63 197.856 239.64 198.037 240.78 197.757C243.07 197.187 243.52 197.576 243.95 199.906C244.43 202.526 244.36 205.117 243.86 207.717C243.82 207.917 243.79 208.117 243.73 208.467C244.2 208.387 244.56 208.337 244.9 208.257C247.17 207.677 249.46 207.187 251.82 207.107C252.2 207.087 252.59 207.087 252.97 207.127C253.44 207.157 253.76 207.476 253.7 207.826C253.66 208.026 253.57 208.166 253.43 208.266C252.99 208.176 252.56 208.056 252.15 207.866C251.79 207.696 251.49 208.227 251.84 208.397C251.93 208.437 252.02 208.476 252.11 208.516C251.49 208.576 250.87 208.647 250.25 208.717C247.64 209.027 245.12 209.707 242.68 210.667C242.13 210.887 241.6 211.177 241.05 211.417C240.67 211.587 240.35 211.557 240.11 211.337C240.92 211.047 241.71 210.647 242.36 210.227C242.69 210.017 242.39 209.487 242.05 209.697C241.41 210.097 240.63 210.506 239.82 210.786C239.8 210.516 239.97 210.237 240.3 210.007C240.48 209.887 240.69 209.807 240.88 209.707C241.07 209.607 241.26 209.496 241.54 209.346C242.71 206.256 243.02 202.007 241.97 199.277C241.63 199.297 241.24 199.246 240.89 199.346C238.52 200.036 236.74 199.016 235.2 197.386C234.48 196.626 234.01 195.697 233.64 194.717C233.47 194.257 233.29 193.797 233.18 193.317C232.75 191.527 232 189.937 230.59 188.677C230.27 188.397 230.03 188.007 229.82 187.627C229.48 187.007 229.63 186.476 230.24 186.076C230.56 185.866 230.91 185.717 231.25 185.547C232.77 184.767 233.62 183.496 233.87 181.826C233.98 181.066 234.09 180.307 234.1 179.547C234.14 177.377 234.93 175.517 236.34 173.897C236.45 173.777 236.54 173.647 236.68 173.467C236.53 173.147 236.31 172.807 236.25 172.447C236.21 172.237 236.37 171.927 236.53 171.747C236.71 171.537 237.01 171.467 237.27 171.647C237.47 171.797 237.66 171.956 237.85 172.116C237.78 172.226 237.72 172.337 237.66 172.447C237.48 172.797 238 173.107 238.19 172.757C238.28 172.587 238.4 172.397 238.53 172.197C238.77 172.107 239 172.017 239.23 171.987C239.59 171.937 239.98 171.986 240.34 172.076C240.74 172.176 240.96 172.507 240.97 172.927C240.97 173.297 240.69 173.597 240.26 173.687C239.85 173.767 239.36 173.607 239.04 174.207C239.09 174.377 239.16 174.626 239.25 174.866C240.18 177.516 240.44 180.287 240.63 183.067C240.74 184.587 240.84 186.117 241.02 187.627C241.18 188.987 241.63 190.277 242.25 191.507C243.02 192.997 244.1 194.206 245.53 195.076C246.23 195.496 246.95 195.886 247.65 196.306C249.54 197.406 251 198.907 251.89 200.937C252.15 201.537 252.45 202.117 252.77 202.687C253.49 203.997 254.54 204.687 255.82 204.917L255.81 204.906Z" fill="#617462"/>
<path d="M255.67 208.406H255.65C254.91 208.406 254.16 208.377 253.43 208.237C253.56 208.147 253.66 207.997 253.7 207.797C253.77 207.447 253.45 207.136 252.97 207.096C252.59 207.066 252.2 207.066 251.82 207.076C249.47 207.166 247.18 207.657 244.9 208.227C244.55 208.317 244.19 208.357 243.73 208.437C243.79 208.087 243.82 207.887 243.86 207.687C244.36 205.087 244.43 202.497 243.95 199.877C243.52 197.547 243.07 197.157 240.78 197.727C239.64 198.007 238.62 197.827 237.64 197.277C236.61 196.697 236.07 195.997 235.6 194.677C235.94 194.517 236.3 194.387 236.62 194.187C236.91 194.007 237.09 193.727 236.98 193.357C236.87 192.997 236.57 192.816 236.23 192.826C235.8 192.836 235.38 192.946 234.9 193.036C234.5 191.996 234.22 190.927 233.69 189.997C233.13 189.017 232.33 188.166 231.64 187.266C231.67 187.226 231.7 187.177 231.75 187.147C231.88 187.057 232.01 186.946 232.15 186.866C234.21 185.696 235.27 183.897 235.51 181.567C235.6 180.757 235.68 179.937 235.76 179.127C235.91 177.617 236.47 176.307 237.62 175.147C237.79 175.527 237.97 175.806 238.05 176.116C238.67 178.336 238.96 180.607 239.03 182.897C239.1 184.977 239.23 187.046 239.7 189.076C240.49 192.486 242.28 195.177 245.43 196.857C245.72 197.007 246 197.176 246.29 197.326C248.3 198.376 249.78 199.896 250.64 202.016C250.93 202.716 251.32 203.386 251.74 204.016C252.66 205.386 253.94 206.156 255.53 206.406C255.64 207.056 255.66 207.726 255.66 208.386L255.67 208.406ZM237.19 183.806C237.19 183.346 236.81 182.947 236.4 182.967C236 182.987 235.66 183.406 235.67 183.886C235.67 184.286 236 184.617 236.38 184.627C236.84 184.627 237.2 184.287 237.2 183.817L237.19 183.806Z" fill="white"/>
<path d="M255.19 271.627C255.28 271.857 255.25 272.146 255.06 272.366C254.79 272.706 254.49 273.026 254.16 273.306C252.71 274.546 251.27 275.807 249.76 276.977C248.25 278.147 246.68 279.216 245.1 280.296C244.97 280.386 244.84 280.466 244.71 280.556C244.58 280.326 244.44 280.106 244.29 279.886C244.2 279.756 244.04 279.716 243.91 279.766L243.66 279.346C244.21 279.026 244.74 278.666 245.24 278.266C245.67 277.926 246.09 277.586 246.55 277.296C248.93 275.816 251.04 274.017 253.09 272.127C253.41 271.837 253.71 271.516 254.06 271.266C254.27 271.116 254.49 271.097 254.71 271.167C254.36 271.377 254.01 271.586 253.67 271.806C253.34 272.016 253.65 272.546 253.98 272.336C254.37 272.076 254.78 271.836 255.19 271.606V271.627Z" fill="#617462"/>
<path d="M254.98 271.337C255.07 271.417 255.15 271.507 255.19 271.627C254.78 271.857 254.38 272.097 253.98 272.357C253.65 272.577 253.34 272.046 253.67 271.826C254.01 271.606 254.36 271.397 254.71 271.187C254.8 271.217 254.89 271.267 254.97 271.337H254.98Z" fill="#617462"/>
<path d="M255.88 270.516C255.49 270.746 255.1 270.967 254.72 271.187C254.5 271.107 254.27 271.136 254.07 271.286C253.72 271.536 253.41 271.857 253.1 272.147C251.05 274.037 248.94 275.837 246.56 277.317C246.1 277.607 245.68 277.946 245.25 278.286C244.74 278.686 244.22 279.047 243.67 279.367C243.1 279.707 242.5 280.006 241.88 280.266C241.46 280.436 241.07 280.577 240.6 280.337C240.6 279.797 240.62 279.287 241.27 279.047C241.57 278.937 241.88 278.757 242.08 278.527C242.23 278.357 242.29 278.016 242.23 277.786C242.14 277.456 241.82 277.267 241.47 277.307C241.21 277.337 240.96 277.477 240.7 277.587C240.15 277.827 239.61 278.067 239.06 278.317C238.82 278.427 238.58 278.567 238.33 278.317C238.6 277.627 239.04 277.117 239.76 276.857C240.11 276.727 240.44 276.506 240.73 276.266C241 276.036 241.07 275.707 240.86 275.387C240.67 275.097 240.39 274.907 240.03 275.027C239.72 275.127 239.45 275.317 239.14 275.437C238.23 275.797 237.31 276.147 236.39 276.467C236.18 276.537 235.88 276.677 235.68 276.257C236.55 275.027 238.13 274.477 238.95 273.087C238.82 272.917 238.72 272.697 238.56 272.607C238.39 272.517 238.12 272.497 237.94 272.567C237.29 272.837 236.67 273.187 236.01 273.457C235.48 273.667 234.99 274.077 234.34 273.957C234.34 273.867 234.34 273.806 234.34 273.766C234.34 273.746 234.34 273.737 234.36 273.727C236.18 271.497 238.32 269.687 241.04 268.667C241.19 268.607 241.37 268.587 241.49 268.487C241.71 268.307 241.88 268.057 241.73 267.777C241.64 267.607 241.42 267.397 241.27 267.397C240.85 267.407 240.41 267.487 240.01 267.607C239.6 267.727 239.22 267.927 238.82 268.107C238.41 267.747 238.01 267.457 237.69 267.097C237.49 266.887 237.41 266.567 237.21 266.157C239.01 265.357 240.71 264.687 242.61 264.697C243.1 264.697 243.59 264.757 244.06 264.877C244.36 264.947 244.7 265.117 244.88 265.347C245.62 266.277 246.37 267.217 246.98 268.227C247.4 268.917 247.94 269.227 248.67 269.327C249.35 269.417 249.97 269.217 250.53 268.857C251.45 268.277 252.35 267.687 253.28 267.087C254.16 268.257 255.01 269.396 255.88 270.516Z" fill="white"/>
<path d="M253.43 208.247C254.16 208.387 254.91 208.407 255.65 208.417C254.91 208.497 254.17 208.646 253.45 208.866C253 208.786 252.55 208.667 252.12 208.497C252.42 208.467 252.72 208.436 253.02 208.406C253.19 208.386 253.33 208.346 253.44 208.266L253.43 208.247Z" fill="white"/>
<path d="M253.22 285.417C253.22 285.417 253.22 285.506 253.22 285.556C253.22 285.796 252.96 285.927 252.76 285.817C252.67 285.767 252.59 285.717 252.53 285.647H252.51C252.49 285.647 252.47 285.647 252.45 285.647C252.51 285.577 252.58 285.517 252.67 285.467C252.83 285.367 253.03 285.357 253.22 285.407V285.417Z" fill="#617462"/>
<path d="M253.43 208.247C253.32 208.327 253.18 208.376 253.01 208.386C252.71 208.416 252.41 208.447 252.11 208.477C252.02 208.437 251.93 208.397 251.84 208.357C251.48 208.187 251.79 207.666 252.15 207.826C252.56 208.016 252.99 208.147 253.43 208.227V208.247Z" fill="#617462"/>
<path d="M253.08 284.957C253.17 285.067 253.2 285.247 253.21 285.417C253.03 285.357 252.82 285.377 252.66 285.477C252.57 285.527 252.5 285.586 252.44 285.656C252.3 285.636 252.19 285.497 252.19 285.357C252.19 285.287 252.21 285.227 252.25 285.177C252.53 285.107 252.8 285.037 253.07 284.967L253.08 284.957Z" fill="#617462"/>
<path d="M252.8 284.837C252.93 284.837 253.03 284.877 253.09 284.957C252.82 285.027 252.54 285.097 252.27 285.167C252.27 285.167 252.28 285.147 252.29 285.147C252.04 284.857 252.46 284.437 252.73 284.727C252.76 284.757 252.79 284.797 252.81 284.837H252.8Z" fill="#617462"/>
<path d="M252.11 208.477C252.54 208.647 252.99 208.766 253.44 208.846C252.49 209.126 251.56 209.536 250.65 210.076C248.72 211.226 246.97 212.606 245.69 214.516C245.15 215.326 244.54 216.107 243.95 216.897C241.21 220.597 239.55 224.797 238.44 229.207C237.76 231.897 237.3 234.646 236.82 237.386C236.6 238.666 236.54 239.986 236.43 241.286C236.41 241.606 236.45 241.947 236.55 242.247C236.64 242.517 236.87 242.736 237.06 243.016C236.6 243.186 236.19 243.317 235.79 243.477C235.54 243.577 235.28 243.687 235.05 243.817C234.91 243.907 234.8 244.017 234.74 244.147C232.78 244.207 231 245.407 231.11 247.507C230.85 247.677 230.7 247.987 230.76 248.357C230.87 248.997 231.05 249.637 231.27 250.247C232.85 254.727 234.67 259.097 236.56 263.447C236.73 263.827 237.02 264.187 236.96 264.647C236.71 264.887 236.45 265.106 236.22 265.346C236.2 265.346 236.19 265.346 236.17 265.346C235.36 265.206 234.51 265.326 233.69 265.346C233.74 265.276 233.78 265.196 233.81 265.136C233.87 264.986 233.75 264.607 233.63 264.567C232.37 264.107 231.89 262.957 231.3 261.937C229.75 259.287 228.71 256.417 227.77 253.507C227.11 251.487 227.03 249.437 227.26 247.357C227.36 246.437 227.52 245.516 227.72 244.616C228.5 241.046 229.4 237.506 230.48 234.016C231.82 229.686 233.22 225.387 235.33 221.357C235.88 220.297 236.57 219.306 237.18 218.286C237.4 217.916 237.67 217.537 237.73 217.127C237.95 215.567 238.1 213.987 238.24 212.417C238.27 212.137 238.15 211.896 237.9 211.766C238.6 211.736 239.35 211.557 240.08 211.297C240.32 211.507 240.65 211.537 241.02 211.377C241.56 211.127 242.09 210.847 242.65 210.627C245.09 209.667 247.61 208.987 250.22 208.677C250.84 208.607 251.46 208.537 252.08 208.477H252.11Z" fill="white"/>
<path d="M246.13 241.317C246.23 241.537 246.07 241.737 245.89 241.777C245.78 241.797 245.66 241.757 245.6 241.627C245.49 241.387 245.41 241.137 245.36 240.897C245.56 240.847 245.75 240.807 245.94 240.757C245.98 240.947 246.04 241.136 246.12 241.326L246.13 241.317Z" fill="#617462"/>
<path d="M246.13 282.957C246.35 283.287 245.82 283.586 245.6 283.266C245.55 283.196 245.5 283.116 245.45 283.036C245.3 283.136 245.04 283.116 244.96 282.886C244.91 282.746 244.86 282.617 244.8 282.487C244.89 282.267 245.03 282.017 245.22 281.897C245.29 281.847 245.37 281.837 245.44 281.837C245.66 282.217 245.88 282.597 246.13 282.967V282.957Z" fill="#617462"/>
<path d="M245.95 240.747C245.75 240.797 245.56 240.836 245.37 240.886C245.28 240.476 245.26 240.067 245.26 239.627C245.26 239.577 245.26 239.537 245.28 239.507C245.44 239.487 245.57 239.436 245.66 239.346C245.77 239.386 245.85 239.477 245.85 239.627C245.85 240.007 245.85 240.377 245.93 240.737L245.95 240.747Z" fill="#F7DDC0"/>
<path d="M245.28 239.516C245.34 239.356 245.52 239.307 245.67 239.357C245.58 239.447 245.45 239.496 245.29 239.516H245.28Z" fill="#617462"/>
<path d="M245.45 281.826C245.37 281.826 245.3 281.846 245.23 281.886C245.04 282.006 244.91 282.257 244.81 282.477C244.61 281.987 244.36 281.517 244.13 281.047C244.11 281.017 244.08 280.977 244.06 280.947C244.28 280.827 244.5 280.697 244.71 280.567C244.96 280.987 245.2 281.406 245.44 281.826H245.45Z" fill="#617462"/>
<path d="M244.3 279.897C244.44 280.117 244.58 280.337 244.72 280.567C244.51 280.697 244.29 280.827 244.07 280.947C243.97 280.797 243.88 280.657 243.78 280.507C243.7 280.397 243.72 280.287 243.78 280.197C243.78 280.177 243.76 280.147 243.75 280.127C243.69 279.947 243.79 279.816 243.93 279.766C244.06 279.716 244.22 279.747 244.31 279.887L244.3 279.897Z" fill="#617462"/>
<path d="M243.77 280.507C243.87 280.657 243.96 280.797 244.06 280.947C243.37 281.327 242.64 281.617 241.86 281.797C241.45 281.887 241 281.916 240.58 281.866C239.76 281.766 239.14 281.397 239.01 280.467C238.99 280.317 238.89 280.186 238.84 280.076C238.36 280.076 237.92 280.106 237.49 280.076C236.49 279.996 236.15 279.487 236.37 278.417C236.39 278.317 236.39 278.206 236.39 278.016C235.83 278.016 235.4 278.056 234.97 278.016C234.57 277.966 234.28 277.857 234.09 277.667C234.23 277.167 234.38 276.656 234.52 276.156C234.61 275.826 234.13 275.607 233.96 275.917C233.93 275.987 233.89 276.046 233.86 276.116C233.86 276.076 233.83 276.027 233.8 275.917C233.52 275.857 233.2 275.827 232.91 275.717C232.24 275.467 231.98 274.897 232.31 274.277C232.59 273.747 232.91 273.217 233.32 272.797C233.49 272.627 233.66 272.456 233.84 272.286C233.76 272.696 233.69 273.117 233.63 273.527C233.57 273.907 234.15 274.077 234.21 273.707L234.34 273.737C234.34 273.737 234.34 273.837 234.34 273.927C234.98 274.047 235.48 273.637 236.01 273.427C236.67 273.167 237.28 272.806 237.94 272.536C238.12 272.466 238.39 272.486 238.56 272.576C238.73 272.666 238.82 272.886 238.95 273.056C238.13 274.446 236.55 274.997 235.68 276.227C235.88 276.637 236.18 276.507 236.39 276.437C237.31 276.117 238.23 275.766 239.14 275.406C239.44 275.286 239.72 275.097 240.03 274.997C240.39 274.877 240.67 275.057 240.86 275.357C241.07 275.677 241 276.017 240.73 276.237C240.44 276.477 240.11 276.696 239.76 276.826C239.03 277.086 238.59 277.586 238.33 278.286C238.57 278.546 238.82 278.406 239.06 278.286C239.61 278.046 240.15 277.796 240.7 277.556C240.95 277.446 241.2 277.317 241.47 277.277C241.82 277.237 242.14 277.427 242.23 277.757C242.29 277.977 242.23 278.327 242.08 278.497C241.88 278.737 241.57 278.906 241.27 279.016C240.62 279.256 240.6 279.766 240.6 280.306C241.07 280.546 241.47 280.407 241.88 280.237C242.5 279.977 243.1 279.687 243.67 279.337L243.92 279.757C243.78 279.807 243.68 279.936 243.74 280.116C243.74 280.136 243.76 280.167 243.77 280.187C243.71 280.277 243.7 280.377 243.77 280.497V280.507Z" fill="#617462"/>
<path d="M243.07 238.567C243.46 239.447 243.4 240.517 243.14 241.437C242.93 241.487 242.73 241.537 242.52 241.587C242.5 241.537 242.5 241.467 242.52 241.397C242.63 241.057 242.71 240.666 242.74 240.266C242.78 240.206 242.82 240.156 242.84 240.096C242.94 239.866 242.9 239.556 242.9 239.286C242.9 238.996 242.88 238.706 242.87 238.406C242.95 238.406 243.03 238.457 243.08 238.567H243.07Z" fill="#F7DDC0"/>
<path d="M243.14 241.427C243.14 241.427 243.12 241.506 243.1 241.556C243.01 241.856 242.6 241.816 242.52 241.576C242.73 241.526 242.94 241.477 243.14 241.427Z" fill="#617462"/>
<path d="M242.89 239.287C242.89 239.557 242.94 239.857 242.83 240.097C242.81 240.157 242.77 240.207 242.73 240.267C242.77 239.787 242.73 239.297 242.54 238.877C242.43 238.627 242.66 238.397 242.86 238.417C242.87 238.707 242.88 238.997 242.89 239.297V239.287Z" fill="#617462"/>
<path d="M242.78 221.877C243.12 222.047 242.93 222.317 242.89 222.527C241.63 227.987 241.2 233.506 241.46 239.096C241.48 239.476 241.52 239.867 241.67 240.207C241.75 240.397 242.09 240.596 242.29 240.576C242.44 240.556 242.62 240.417 242.74 240.257C242.71 240.647 242.63 241.046 242.52 241.386C242.5 241.456 242.5 241.526 242.52 241.576C240.98 241.946 239.44 242.317 237.89 242.687C237.87 242.387 237.84 242.037 237.83 241.697C237.82 241.317 237.78 240.926 237.83 240.556C238.52 234.526 239.54 228.577 242.12 223.007C242.26 222.717 242.4 222.417 242.56 222.127C242.61 222.037 242.7 221.967 242.79 221.877H242.78Z" fill="#DBDBDB"/>
<path d="M242.04 209.676C242.37 209.466 242.68 209.997 242.35 210.207C241.7 210.627 240.92 211.017 240.1 211.317C240.03 211.257 239.97 211.186 239.91 211.096C239.85 210.996 239.81 210.887 239.81 210.777C240.62 210.497 241.4 210.097 242.04 209.687V209.676Z" fill="#617462"/>
<path d="M241.74 267.757C241.88 268.037 241.72 268.287 241.5 268.467C241.38 268.557 241.2 268.587 241.05 268.647C238.32 269.677 236.18 271.477 234.37 273.707C234.37 273.707 234.36 273.727 234.35 273.747L234.22 273.717C234.22 273.717 234.22 273.717 234.22 273.697C234.32 272.977 234.46 272.266 234.6 271.556C235.28 270.916 235.96 270.286 236.65 269.656C236.93 269.396 237.24 269.187 237.64 268.877C237.33 268.617 237.03 268.416 236.8 268.156C236.48 267.796 236.17 267.407 235.94 266.987C235.81 266.747 235.75 266.506 235.77 266.266C235.77 266.476 236 266.677 236.22 266.527C236.39 266.427 236.6 266.296 236.71 266.116L237.2 266.136C237.41 266.546 237.49 266.866 237.68 267.076C238 267.436 238.4 267.727 238.81 268.087C239.21 267.917 239.59 267.707 240 267.587C240.41 267.467 240.84 267.387 241.26 267.377C241.42 267.377 241.64 267.587 241.72 267.757H241.74Z" fill="#617462"/>
<path d="M241.67 169.846C242.05 169.946 241.89 170.537 241.5 170.437C241.08 170.317 240.66 170.396 240.26 170.576C240.13 170.366 240.11 170.157 240.17 169.967C240.65 169.777 241.16 169.706 241.67 169.846Z" fill="#617462"/>
<path d="M240.17 169.957C240.11 170.147 240.13 170.357 240.26 170.567C239.57 170.887 238.94 171.557 238.51 172.177C238.38 172.227 238.24 172.276 238.1 172.326C238.01 172.256 237.92 172.176 237.83 172.096C238.35 171.256 239.2 170.347 240.16 169.957H240.17Z" fill="white"/>
<path d="M239.91 211.087C239.97 211.177 240.03 211.246 240.1 211.306C239.37 211.566 238.62 211.747 237.92 211.777C237.86 211.747 237.8 211.717 237.73 211.697C237.71 211.697 237.7 211.697 237.69 211.697C237.54 211.527 237.62 211.187 237.91 211.177C238.52 211.157 239.17 211.007 239.81 210.777C239.81 210.887 239.85 210.996 239.91 211.096V211.087Z" fill="white"/>
<path d="M237.92 211.776C238.16 211.906 238.29 212.146 238.26 212.426C238.12 213.996 237.97 215.576 237.75 217.136C237.69 217.536 237.42 217.927 237.2 218.297C236.59 219.327 235.91 220.316 235.35 221.366C233.24 225.396 231.84 229.696 230.5 234.026C229.42 237.516 228.52 241.057 227.74 244.627C227.54 245.527 227.38 246.446 227.28 247.366C227.06 249.446 227.14 251.496 227.79 253.516C228.73 256.426 229.77 259.296 231.32 261.946C231.91 262.966 232.39 264.116 233.65 264.576C233.77 264.616 233.89 264.997 233.83 265.147C233.8 265.217 233.76 265.287 233.71 265.357C233.68 265.357 233.65 265.357 233.62 265.357C233.42 265.357 233.32 265.517 233.32 265.667C232.96 265.717 232.56 265.667 232.21 265.547C231.91 265.457 231.65 265.216 231.33 265.016C231.01 265.226 230.69 265.417 230.39 265.627C226.81 268.127 223.25 270.637 219.67 273.147C218.24 274.147 216.77 275.096 215.36 276.116C214.71 276.586 214 276.986 213.39 277.526C213.34 277.346 213.15 277.206 212.96 277.346C212.51 277.666 212.01 277.986 211.48 278.196C211.19 277.866 211.15 277.397 211.43 277.087C211.76 276.727 212.12 276.387 212.52 276.107C214.51 274.667 216.5 273.236 218.51 271.826C222.3 269.166 226.11 266.517 229.91 263.857C230 263.797 230.05 263.696 230.19 263.526C228.07 260.326 226.76 256.716 225.5 253.036C225.28 253.166 225.11 253.227 225 253.337C218.64 259.557 212.29 265.777 205.94 271.997C205.79 272.147 205.7 272.336 205.53 272.576C206.71 274.106 207.69 275.747 208.96 277.167C209.21 277.447 209.5 277.726 209.67 278.056C209.72 278.146 209.75 278.277 209.74 278.417C209.59 278.387 209.44 278.336 209.29 278.276C208.93 278.116 208.62 278.646 208.98 278.806C209.17 278.886 209.36 278.947 209.55 278.997C209.37 279.187 209.09 279.217 208.82 279.127C208.53 279.027 208.26 278.836 207.98 278.676C206.21 279.536 204.67 280.637 203.31 281.997C203.3 282.007 203.29 282.016 203.28 282.026C203.41 281.716 203.52 281.396 203.6 281.076C203.69 280.726 203.22 280.567 203.06 280.817L202.68 280.667C202.88 280.467 203.08 280.277 203.29 280.087C203.82 279.617 204.36 279.156 204.93 278.736C205.54 278.276 206.19 277.876 206.9 277.386C206.3 276.216 205.55 275.206 204.66 274.176C204.63 274.206 204.59 274.236 204.56 274.256C204.01 274.096 203.45 274.016 202.88 273.986C202.93 273.906 202.98 273.827 203.03 273.747C203.31 273.357 203.57 272.976 203.7 272.466C203.81 272.026 204.15 271.607 204.48 271.247C205.44 270.197 206.41 269.167 207.42 268.167C210.61 265.027 213.84 261.926 217.01 258.766C218.86 256.916 220.6 254.957 222.42 253.067C223.25 252.197 224.13 251.386 225.01 250.526C225.16 249.016 225.24 247.436 225.49 245.886C226.04 242.436 227.09 239.096 228.09 235.756C228.75 233.566 229.49 231.396 230.18 229.216C231.16 226.146 232.42 223.186 233.86 220.306C234.3 219.436 234.78 218.566 235.36 217.786C235.83 217.146 236.16 216.496 236.24 215.716C236.33 214.956 236.41 214.196 236.51 213.446C236.57 213.016 236.64 212.586 236.77 212.176C236.89 211.806 237.28 211.636 237.66 211.716C237.71 211.776 237.79 211.806 237.88 211.806H237.89L237.92 211.776Z" fill="#617462"/>
<path d="M238.1 172.337C238.24 172.287 238.38 172.237 238.51 172.187C238.38 172.377 238.26 172.567 238.17 172.747C237.99 173.097 237.46 172.787 237.64 172.437C237.7 172.327 237.76 172.217 237.83 172.107C237.92 172.187 238.01 172.267 238.1 172.337Z" fill="#617462"/>
<path d="M237.92 211.777H237.91C237.81 211.777 237.74 211.747 237.69 211.687C237.71 211.687 237.72 211.687 237.73 211.687C237.8 211.707 237.86 211.736 237.92 211.766V211.777Z" fill="#617462"/>
<path d="M236.39 182.957C236.81 182.937 237.19 183.347 237.18 183.797C237.18 184.267 236.82 184.617 236.36 184.607C235.98 184.607 235.66 184.266 235.65 183.866C235.65 183.396 235.98 182.967 236.38 182.947L236.39 182.957Z" fill="#617462"/>
<path d="M236.81 268.156C237.04 268.416 237.33 268.617 237.65 268.877C237.26 269.187 236.94 269.396 236.66 269.656C235.97 270.286 235.29 270.916 234.61 271.556C234.99 269.696 235.42 267.857 235.47 265.957C235.47 265.937 235.47 265.926 235.47 265.906C235.6 265.906 235.74 265.907 235.87 265.917C235.84 265.997 235.81 266.087 235.81 266.167C235.81 266.187 235.81 266.207 235.81 266.227C235.81 266.237 235.81 266.247 235.81 266.257C235.79 266.497 235.85 266.737 235.98 266.977C236.21 267.397 236.53 267.787 236.84 268.147L236.81 268.156Z" fill="#617462"/>
<path d="M236.24 265.366C236.49 265.416 236.8 265.546 236.8 265.846C236.8 265.946 236.77 266.047 236.72 266.127C236.61 266.307 236.4 266.436 236.23 266.536C236 266.676 235.79 266.477 235.78 266.277C235.78 266.267 235.78 266.257 235.78 266.247C235.78 266.227 235.78 266.207 235.78 266.187C235.8 266.117 235.84 266.056 235.91 266.016C235.93 265.996 235.97 265.977 236 265.957C235.94 265.957 235.89 265.947 235.83 265.937C235.89 265.777 235.99 265.617 236.12 265.477C236.15 265.437 236.18 265.407 236.22 265.377L236.24 265.366Z" fill="#617462"/>
<path d="M236.24 265.366C236.24 265.366 236.17 265.437 236.14 265.467C236.01 265.607 235.91 265.767 235.85 265.927C235.72 265.927 235.58 265.917 235.45 265.917C235.45 265.937 235.45 265.947 235.45 265.967C235.4 267.867 234.97 269.707 234.59 271.567C234.33 271.807 234.08 272.047 233.83 272.297C234.22 270.197 234.78 268.117 234.83 265.967C234.83 265.947 234.83 265.947 234.83 265.927C234.42 265.947 234.01 265.957 233.6 265.967C233.4 265.967 233.3 265.817 233.3 265.667C233.43 265.647 233.58 265.507 233.69 265.357C234.51 265.347 235.36 265.227 236.17 265.357C236.19 265.357 236.2 265.357 236.22 265.357L236.24 265.366Z" fill="#617462"/>
<path d="M236.02 265.947C236.02 265.947 235.95 265.987 235.93 266.007C235.85 266.057 235.81 266.117 235.8 266.177C235.8 266.087 235.83 266.007 235.86 265.927C235.92 265.927 235.97 265.937 236.03 265.947H236.02Z" fill="#617462"/>
<path d="M235.85 244.237C236.24 244.307 236.07 244.896 235.68 244.826C235.38 244.776 235.08 244.756 234.77 244.766C234.75 244.736 234.74 244.707 234.73 244.667C234.68 244.477 234.69 244.306 234.76 244.156C235.12 244.146 235.48 244.177 235.84 244.237H235.85Z" fill="#617462"/>
<path d="M234.74 244.667C234.74 244.667 234.76 244.736 234.78 244.766C233.2 244.816 231.69 245.717 231.74 247.397C231.65 247.397 231.55 247.397 231.45 247.397C231.34 247.417 231.23 247.456 231.14 247.516C231.03 245.416 232.81 244.216 234.77 244.156C234.7 244.306 234.69 244.477 234.74 244.667Z" fill="#F7DDC0"/>
<path d="M233.97 275.917C234.13 275.607 234.62 275.827 234.53 276.157C234.39 276.657 234.24 277.167 234.1 277.667C233.85 277.417 233.76 277.017 233.81 276.447C233.81 276.337 233.87 276.237 233.88 276.127C233.91 276.057 233.94 275.987 233.98 275.917H233.97Z" fill="#617462"/>
<path d="M234.6 271.556C234.46 272.266 234.32 272.977 234.22 273.697C234.22 273.697 234.22 273.707 234.22 273.717C234.16 274.087 233.58 273.916 233.64 273.536C233.7 273.116 233.77 272.707 233.85 272.297C234.1 272.047 234.35 271.807 234.61 271.567L234.6 271.556Z" fill="#617462"/>
<path d="M234.03 277.927C234.21 278.007 234.33 278.247 234.15 278.437C234.01 278.587 233.88 278.737 233.75 278.897C233.59 279.467 233.42 280.037 233.26 280.607C233.18 280.997 233.09 281.377 232.97 281.757C232.62 281.717 232.28 281.837 232.06 282.107C231.98 280.907 232.34 279.837 233 278.877C233.2 277.937 233.44 277.006 233.87 276.116C233.86 276.226 233.81 276.337 233.8 276.437C233.75 277.017 233.84 277.406 234.09 277.656C234.07 277.746 234.04 277.827 234.02 277.917L234.03 277.927Z" fill="#617462"/>
<path d="M233.62 265.357C233.62 265.357 233.68 265.357 233.71 265.357C233.61 265.507 233.46 265.647 233.32 265.667C233.32 265.517 233.42 265.357 233.62 265.357Z" fill="#617462"/>
<path d="M233.33 281.837C233.63 281.957 233.84 282.427 233.61 282.647C232.65 283.567 232.63 284.807 232.47 285.967C231.73 291.327 230.46 296.567 228.96 301.757C227.3 307.467 225.63 313.167 223.94 318.857C221.75 326.227 219.57 333.597 217.31 340.937C216.53 343.487 215.57 345.987 214.65 348.497C213.82 350.747 213.05 352.997 212.59 355.377C211.6 360.517 210.12 365.547 208.74 370.587C206.59 378.427 203.8 386.036 200.78 393.576L199.21 392.947C200.27 390.187 201.35 387.426 202.31 384.636C205.55 375.186 208.22 365.586 210.43 355.846C210.81 352.616 211.99 349.617 213.17 346.627C214.93 342.157 216.2 337.527 217.59 332.937C220.75 322.557 223.94 312.196 227.07 301.806C228.75 296.216 230.15 290.557 231.19 284.817C231.33 284.017 231.56 283.217 231.85 282.467C231.91 282.327 231.98 282.207 232.06 282.107C232.06 282.237 232.08 282.357 232.09 282.487C232.08 282.567 232.09 282.627 232.13 282.677C232.25 282.887 232.62 282.827 232.69 282.587C232.8 282.317 232.89 282.037 232.97 281.757C233.09 281.767 233.21 281.796 233.33 281.846V281.837Z" fill="#617462"/>
<path d="M232.06 282.096C232.29 281.826 232.62 281.717 232.97 281.747C232.89 282.027 232.8 282.296 232.69 282.576C232.62 282.816 232.25 282.877 232.13 282.667C232.09 282.617 232.07 282.557 232.09 282.477C232.07 282.347 232.06 282.216 232.06 282.096Z" fill="#617462"/>
<path d="M231.78 247.817C231.85 248.207 231.26 248.366 231.19 247.986C231.16 247.826 231.14 247.676 231.14 247.526C231.23 247.466 231.34 247.426 231.45 247.406C231.55 247.386 231.65 247.386 231.74 247.406C231.74 247.546 231.76 247.687 231.78 247.837V247.817Z" fill="#617462"/>
<path d="M230.19 263.516C230.05 263.686 230 263.786 229.91 263.846C226.11 266.506 222.31 269.157 218.51 271.817C216.5 273.227 214.51 274.656 212.52 276.096C212.13 276.376 211.76 276.716 211.43 277.076C211.14 277.396 211.19 277.867 211.48 278.187C210.92 278.417 210.33 278.527 209.74 278.397C209.74 278.267 209.72 278.136 209.67 278.036C209.5 277.706 209.21 277.437 208.96 277.147C207.69 275.727 206.71 274.086 205.53 272.556C205.7 272.316 205.8 272.127 205.94 271.977C212.29 265.757 218.65 259.527 225 253.317C225.11 253.207 225.27 253.146 225.5 253.016C226.77 256.696 228.07 260.307 230.19 263.507V263.516Z" fill="#DBDBDB"/>
<path d="M213.39 277.516C213.42 277.636 213.39 277.767 213.27 277.857C213.1 277.977 212.94 278.097 212.76 278.197C212.95 277.937 213.16 277.717 213.39 277.507V277.516Z" fill="#DBDBDB"/>
<path d="M212.96 277.337C213.15 277.197 213.34 277.336 213.39 277.516C213.16 277.716 212.95 277.947 212.76 278.207C212.59 278.317 212.41 278.416 212.23 278.516C211.99 278.516 211.72 278.427 211.54 278.257C211.52 278.237 211.5 278.216 211.48 278.196C212.01 277.986 212.51 277.666 212.96 277.346V277.337Z" fill="#617462"/>
<path d="M212.76 278.207C212.76 278.207 212.73 278.246 212.71 278.266C212.6 278.426 212.42 278.497 212.22 278.507C212.4 278.417 212.58 278.307 212.75 278.197L212.76 278.207Z" fill="#617462"/>
<path d="M211.54 278.257C211.72 278.427 211.98 278.526 212.23 278.516C211.39 278.946 210.48 279.177 209.56 278.977C209.61 278.927 209.64 278.866 209.67 278.806C209.72 278.696 209.74 278.557 209.74 278.417C210.33 278.547 210.92 278.437 211.48 278.207C211.5 278.227 211.52 278.246 211.54 278.266V278.257Z" fill="#DBDBDB"/>
<path d="M209.74 278.397C209.74 278.537 209.72 278.676 209.67 278.786C209.64 278.856 209.61 278.917 209.56 278.957C209.37 278.917 209.18 278.856 208.99 278.766C208.63 278.606 208.94 278.087 209.3 278.237C209.45 278.297 209.6 278.347 209.75 278.377L209.74 278.397Z" fill="#617462"/>
<path d="M206.91 277.357C206.19 277.847 205.55 278.247 204.94 278.707C204.37 279.127 203.82 279.586 203.3 280.056C203.09 280.246 202.89 280.436 202.69 280.636C202.35 280.966 202 281.327 201.61 281.717C201.38 281.077 201.21 280.577 201.02 280.087C200.72 279.267 200.41 278.456 200.1 277.636C200.02 277.436 199.94 277.187 199.78 277.087C199.58 276.957 199.28 276.887 199.05 276.937C198.91 276.967 198.71 277.257 198.73 277.427C198.76 277.797 198.88 278.166 199.01 278.516C199.42 279.576 199.78 280.637 200.09 281.937C199.02 281.487 198.43 280.787 197.79 280.147C197.44 279.807 197.13 279.417 196.77 279.087C196.39 278.737 195.94 278.837 195.7 279.317C195.58 279.537 195.57 279.817 195.52 280.067C195.34 280.127 195.18 280.177 195.03 280.237C194.93 280.277 194.83 280.326 194.73 280.366C194.63 280.416 194.53 280.457 194.44 280.507C194.14 280.697 194.05 281.047 194.2 281.357C194.34 281.637 194.59 281.767 194.87 281.707C195.45 281.577 196.02 281.377 196.6 281.247C196.9 281.177 197.12 281.337 197.18 281.717C197.01 281.817 196.85 282.007 196.65 282.027C195.73 282.147 194.82 282.256 193.89 282.306C193.52 282.326 193.14 282.197 192.77 282.087C192.37 281.967 192.17 281.597 192.24 281.187C192.4 280.367 192.78 279.647 193.27 278.987C194.24 277.657 195.41 276.517 196.71 275.507C197.4 274.977 198.13 274.716 198.99 274.826C199.58 274.906 200.17 274.996 200.77 275.076C201.34 275.166 201.72 274.977 201.81 274.567C201.81 274.567 201.81 274.567 201.81 274.547C202.11 274.547 202.42 274.547 202.72 274.567C202.74 274.747 202.85 274.907 203.04 274.987C203.21 275.067 203.49 275.087 203.63 275.007C203.76 274.927 203.89 274.827 204.01 274.727C204.16 274.757 204.31 274.796 204.46 274.846C204.84 274.966 205 274.377 204.63 274.257C204.61 274.257 204.6 274.257 204.58 274.237C204.61 274.207 204.64 274.176 204.68 274.156C205.56 275.186 206.32 276.196 206.92 277.366L206.91 277.357Z" fill="white"/>
<path d="M204.62 274.247C205 274.357 204.83 274.947 204.45 274.837C204.3 274.787 204.15 274.757 204 274.717C204.18 274.567 204.36 274.407 204.56 274.227C204.58 274.227 204.59 274.227 204.61 274.247H204.62Z" fill="white"/>
<path d="M204.57 274.227C204.37 274.397 204.19 274.567 204.01 274.717C203.59 274.627 203.16 274.586 202.72 274.556C202.72 274.476 202.72 274.387 202.74 274.297C202.77 274.177 202.83 274.067 202.89 273.957C203.46 273.987 204.02 274.067 204.57 274.227Z" fill="#617462"/>
<path d="M204.01 274.717C203.88 274.817 203.76 274.917 203.63 274.997C203.49 275.087 203.21 275.057 203.04 274.977C202.85 274.887 202.74 274.736 202.72 274.556C203.15 274.576 203.59 274.617 204.01 274.717Z" fill="#617462"/>
<path d="M203.06 280.786C203.23 280.536 203.7 280.707 203.6 281.047C203.51 281.367 203.4 281.687 203.28 281.997C202.93 282.347 202.81 282.437 202.45 282.357C202.68 281.877 202.87 281.387 203.01 280.877C203.01 280.837 203.03 280.807 203.05 280.777L203.06 280.786Z" fill="#617462"/>
<path d="M202.68 280.636L203.06 280.786C203.06 280.786 203.03 280.846 203.02 280.886C202.88 281.396 202.68 281.886 202.46 282.366C202.31 282.336 202.13 282.277 201.87 282.207C201.58 282.577 201.35 283.066 200.97 283.286C200.58 283.506 200.03 283.456 199.5 283.536C199.36 283.766 199.2 284.046 199.03 284.326C198.81 284.436 198.59 284.546 198.37 284.656C197.69 284.716 197.08 284.917 196.48 285.507C197.26 285.42 197.927 285.177 198.48 284.777C198.75 284.757 199.02 284.736 199.1 284.406C199.26 284.416 199.43 284.407 199.59 284.447C200.3 284.657 200.44 285.127 199.95 285.627C199.76 285.817 199.53 285.966 199.34 286.156C199.3 286.196 199.39 286.347 199.43 286.507C199.95 286.527 200.29 286.197 200.62 285.857C200.92 285.547 201.13 285.227 201.19 284.747C201.28 284.937 201.59 285.026 201.74 284.786C201.92 284.516 202.1 284.237 202.27 283.957C202.36 283.997 202.45 284.046 202.54 284.116C202.68 284.226 202.83 284.517 202.78 284.667C202.25 286.307 201.3 287.567 199.52 287.997C198.56 288.227 197.78 288.087 197.38 286.997C196.2 287.027 194.96 287.126 194.82 285.516C194.33 285.276 193.83 285.146 193.48 284.826C193.18 284.556 193.07 284.096 192.83 283.616C192.66 283.546 192.41 283.466 192.17 283.346C190.99 282.766 190.6 282.107 190.88 280.857C191.05 280.127 191.34 279.387 191.73 278.757C192.93 276.827 194.54 275.287 196.4 273.997C197.18 273.457 198.07 273.217 199.04 273.397C199.52 273.487 200.01 273.537 200.5 273.607C200.66 273.627 200.82 273.657 200.98 273.697C201.19 273.747 201.36 273.827 201.49 273.917H201.46C201.07 273.917 201.07 274.527 201.46 274.527C201.57 274.527 201.68 274.527 201.79 274.527C201.79 274.527 201.79 274.527 201.79 274.547C201.69 274.957 201.32 275.146 200.75 275.056C200.16 274.966 199.57 274.886 198.97 274.806C198.11 274.686 197.37 274.947 196.69 275.487C195.39 276.497 194.22 277.637 193.25 278.967C192.77 279.627 192.38 280.347 192.22 281.167C192.14 281.577 192.35 281.947 192.75 282.067C193.11 282.177 193.5 282.306 193.87 282.286C194.79 282.236 195.71 282.127 196.63 282.007C196.82 281.987 196.99 281.797 197.16 281.697C197.1 281.317 196.88 281.157 196.58 281.227C196 281.357 195.43 281.557 194.85 281.687C194.56 281.747 194.32 281.617 194.18 281.337C194.02 281.037 194.12 280.677 194.42 280.487C194.51 280.427 194.62 280.386 194.71 280.346C194.81 280.296 194.91 280.257 195.01 280.217C195.16 280.157 195.32 280.107 195.5 280.047C195.56 279.797 195.56 279.517 195.68 279.297C195.93 278.817 196.37 278.717 196.75 279.067C197.11 279.397 197.42 279.787 197.77 280.127C198.41 280.757 199.01 281.457 200.07 281.917C199.76 280.617 199.4 279.557 198.99 278.497C198.86 278.147 198.74 277.776 198.71 277.406C198.69 277.246 198.89 276.947 199.03 276.917C199.26 276.867 199.56 276.947 199.76 277.067C199.92 277.167 200.01 277.416 200.08 277.616C200.4 278.426 200.7 279.247 201 280.067C201.18 280.567 201.36 281.067 201.59 281.697C201.98 281.307 202.33 280.946 202.67 280.616L202.68 280.636ZM196.78 283.627C196.78 283.627 196.73 283.537 196.7 283.497C196.68 283.527 196.67 283.557 196.65 283.587C196.69 283.597 196.74 283.607 196.78 283.627ZM195.88 283.777C195.527 283.69 195.18 283.737 194.84 283.917C195.227 283.977 195.573 283.93 195.88 283.777Z" fill="#617462"/>
<path d="M203.28 281.997C203.01 282.677 202.66 283.327 202.27 283.957C201.97 283.827 201.68 283.867 201.47 284.067C201.83 283.517 202.16 282.947 202.45 282.357C202.81 282.427 202.93 282.337 203.28 281.997Z" fill="white"/>
<path d="M202.89 273.957C202.83 274.067 202.78 274.177 202.74 274.297C202.71 274.387 202.71 274.476 202.72 274.556C202.42 274.536 202.11 274.536 201.81 274.536C201.86 274.306 201.75 274.087 201.51 273.917C201.97 273.917 202.43 273.917 202.9 273.947L202.89 273.957Z" fill="white"/>
<path d="M202.46 282.366C202.18 282.956 201.84 283.526 201.48 284.076C201.4 284.156 201.33 284.267 201.27 284.397C201.25 284.427 201.23 284.457 201.21 284.487C201.15 284.577 201.15 284.677 201.18 284.757C201.12 285.237 200.9 285.556 200.61 285.866C200.29 286.206 199.94 286.536 199.42 286.516C199.37 286.346 199.29 286.197 199.33 286.167C199.52 285.977 199.75 285.826 199.94 285.636C200.44 285.126 200.3 284.667 199.58 284.457C199.43 284.407 199.26 284.427 199.09 284.417C199 284.747 198.73 284.766 198.47 284.786C197.917 285.186 197.25 285.43 196.47 285.516C197.07 284.926 197.68 284.717 198.36 284.667C198.58 284.557 198.8 284.447 199.02 284.337C199.19 284.057 199.35 283.787 199.49 283.547C200.02 283.467 200.56 283.527 200.96 283.297C201.34 283.077 201.57 282.587 201.86 282.217C202.12 282.297 202.3 282.347 202.45 282.377L202.46 282.366Z" fill="white"/>
<path d="M202.27 283.967C202.1 284.247 201.92 284.527 201.74 284.797C201.59 285.037 201.28 284.947 201.19 284.757C201.19 284.757 201.19 284.747 201.19 284.737C201.21 284.607 201.23 284.497 201.27 284.397C201.34 284.297 201.41 284.186 201.48 284.076C201.69 283.876 201.98 283.827 202.28 283.967H202.27Z" fill="#617462"/>
<path d="M201.51 273.927C201.75 274.097 201.86 274.307 201.81 274.547C201.7 274.547 201.59 274.547 201.48 274.547C201.09 274.547 201.09 273.937 201.48 273.937H201.51V273.927Z" fill="#617462"/>
<path d="M202.34 400.477C201.49 401.887 201.37 403.527 201.08 405.177C200.63 405.297 200.23 405.447 199.81 405.497C196.12 405.887 192.42 406.086 188.72 405.906C187.18 405.826 185.89 405.177 184.92 403.957C184.83 403.837 184.79 403.676 184.64 403.346C185.85 403.346 186.87 403.316 187.89 403.346C190.77 403.456 193.66 403.587 196.54 403.737C197.41 403.787 198.01 403.487 198.36 402.677C198.71 401.877 199.07 401.087 199.43 400.297C199.59 399.957 199.78 399.636 199.94 399.326C201.12 399.596 201.18 399.627 202.34 400.477Z" fill="white"/>
<path d="M201.48 284.076C201.42 284.186 201.35 284.287 201.27 284.397C201.32 284.267 201.39 284.156 201.48 284.076Z" fill="#617462"/>
<path d="M201.22 284.487C201.22 284.487 201.26 284.427 201.28 284.397C201.24 284.497 201.21 284.607 201.2 284.737C201.2 284.737 201.2 284.747 201.2 284.757C201.16 284.677 201.16 284.587 201.23 284.487H201.22Z" fill="white"/>
<path d="M200.87 407.116C201.02 408.746 200.84 410.626 200.43 411.716C199.6 411.396 198.98 410.796 198.33 410.236C197.92 409.876 197.52 409.497 197.1 409.167C196.85 408.967 196.58 408.866 196.31 408.866L196.18 407.417C196.57 407.387 196.97 407.347 197.36 407.297C197.95 407.227 198.56 407.187 199.16 407.187C199.74 407.187 200.33 406.987 200.89 407.127L200.87 407.116Z" fill="#617462"/>
<path d="M196.16 407.417L196.29 408.866C196.05 408.866 195.81 408.947 195.57 409.107C193.48 410.517 191.09 410.807 188.68 410.687C183.4 410.417 178.7 408.577 174.6 405.217C174.05 404.767 173.52 404.307 173.2 403.697C173.24 403.537 173.27 403.437 173.3 403.337C173.32 403.287 173.36 403.237 173.38 403.197C173.45 402.947 173.44 402.706 173.38 402.516C173.84 402.516 174.32 402.516 174.79 402.536C174.92 402.676 175.09 402.797 175.29 402.837C175.71 402.927 176.15 402.927 176.59 402.947C176.64 402.947 176.68 402.947 176.73 402.947C176.81 402.977 176.88 402.977 176.94 402.957C178.77 403.047 180.61 403.147 182.44 403.237C182.78 403.747 183.07 404.196 183.39 404.636C184.66 406.366 186.39 407.377 188.51 407.467C191.06 407.577 193.61 407.636 196.16 407.406V407.417Z" fill="#617462"/>
<path d="M177.03 402.417C177.31 402.547 177.18 402.887 176.94 402.957C176.87 402.957 176.8 402.957 176.73 402.947C176.15 402.687 175.48 402.577 174.79 402.527C174.64 402.347 174.55 402.127 174.58 401.917C175.44 401.957 176.29 402.077 177.04 402.417H177.03Z" fill="#617462"/>
<path d="M176.72 402.947C176.79 402.947 176.86 402.947 176.93 402.957C176.87 402.977 176.79 402.977 176.72 402.947Z" fill="#617462"/>
<path d="M176.72 402.947C176.72 402.947 176.63 402.947 176.58 402.947C176.15 402.927 175.7 402.917 175.28 402.837C175.08 402.797 174.91 402.686 174.78 402.536C175.47 402.586 176.13 402.697 176.72 402.957V402.947Z" fill="#617462"/>
<path d="M174.56 401.927C174.54 402.137 174.62 402.357 174.77 402.537C174.3 402.507 173.83 402.507 173.36 402.517C173.23 402.137 172.85 401.927 172.37 402.007C172.23 402.027 172.1 402.077 171.98 402.137C172.01 402.017 172.11 401.917 172.26 401.917C172.99 401.917 173.77 401.887 174.55 401.917L174.56 401.927Z" fill="#617462"/>
<path d="M172.38 402.007C172.87 401.917 173.24 402.136 173.37 402.516C172.99 402.516 172.62 402.536 172.27 402.536C172.04 402.536 171.94 402.327 171.99 402.147C172.11 402.087 172.24 402.036 172.38 402.016V402.007Z" fill="#617462"/>
<path d="M116.89 224.987L111.35 230.527L105.81 224.987" stroke="white" stroke-width="0.96" stroke-linecap="round" stroke-linejoin="round"/>
<path d="M105.81 129.997L111.35 124.457L116.89 129.997" stroke="white" stroke-width="0.96" stroke-linecap="round" stroke-linejoin="round"/>
<path d="M111.35 124.457V230.527" stroke="white" stroke-width="0.96" stroke-linecap="round" stroke-linejoin="round"/>
<path d="M123.57 177.516C123.2 177.986 122.68 178.266 122.02 178.266C120.87 178.266 120.16 177.367 120.16 176.227C120.16 174.997 120.97 173.857 122.29 173.857C123.61 173.857 124.35 174.957 124.35 176.677C124.35 178.917 123.22 180.477 121.49 180.747C121.17 180.797 120.89 180.816 120.69 180.806V180.187C120.88 180.207 121.1 180.187 121.38 180.147C122.51 179.987 123.37 179.067 123.59 177.527H123.56L123.57 177.516ZM120.92 176.177C120.92 177.087 121.43 177.697 122.21 177.697C122.94 177.697 123.61 177.136 123.61 176.596C123.61 175.306 123.13 174.427 122.24 174.427C121.46 174.427 120.93 175.167 120.93 176.177H120.92Z" fill="white"/>
<path d="M125.07 177.357C125.07 174.997 125.99 173.857 127.25 173.857C128.51 173.857 129.31 175.066 129.31 177.266C129.31 179.606 128.49 180.817 127.15 180.817C125.93 180.817 125.07 179.607 125.07 177.357ZM128.55 177.306C128.55 175.626 128.14 174.457 127.2 174.457C126.4 174.457 125.83 175.526 125.83 177.306C125.83 179.086 126.33 180.207 127.17 180.207C128.17 180.207 128.55 178.906 128.55 177.306Z" fill="white"/>
<path d="M133.72 180.527C133.5 180.637 133.02 180.806 132.39 180.806C130.99 180.806 130.06 179.806 130.06 178.306C130.06 176.806 131.06 175.687 132.57 175.687C133.12 175.687 133.56 175.847 133.75 175.947L133.56 176.547C133.35 176.427 133.03 176.297 132.55 176.297C131.42 176.297 130.82 177.207 130.82 178.257C130.82 179.447 131.53 180.197 132.52 180.197C133.01 180.197 133.34 180.057 133.58 179.957L133.72 180.536V180.527Z" fill="white"/>
<path d="M141.44 180.707H140.7V177.866C140.7 176.916 140.36 176.297 139.62 176.297C139.02 176.297 138.47 176.867 138.47 177.607V180.697H137.73V177.677C137.73 176.897 137.4 176.297 136.7 176.297C136.06 176.297 135.49 176.927 135.49 177.697V180.707H134.75V177.056C134.75 176.556 134.73 176.196 134.71 175.786H135.37L135.41 176.576H135.44C135.71 176.096 136.16 175.677 136.93 175.677C137.57 175.677 138.06 176.076 138.27 176.656H138.29C138.61 176.066 139.11 175.677 139.87 175.677C140.47 175.677 141.43 176.067 141.43 177.747V180.697L141.44 180.707Z" fill="white"/>
<path d="M390.81 3.07642V555.386H2.21997V3.07642H390.81ZM391.81 2.07642H1.21997V556.386H391.81V2.07642Z" fill="#99A893"/>
<path d="M131.14 480.747C132.07 481.937 134.56 485.517 135.14 486.377L133.89 488.107C133.41 487.047 132.16 484.877 131.14 483.237V498.757H129.09V483.136C127.97 486.816 126.43 490.427 124.9 492.607C124.61 492.027 124.1 491.197 123.72 490.717C125.77 487.937 127.88 482.687 128.9 478.107H124.42V476.087H129.09V469.047L131.75 469.237C131.72 469.427 131.56 469.586 131.14 469.656V476.087H135.04V477.467H139.49V473.947H135.68V472.156H139.49V469.087L142.15 469.247C142.12 469.467 141.96 469.627 141.54 469.667V472.167H147.04V469.096L149.7 469.257C149.67 469.477 149.51 469.637 149.09 469.677V472.177H153.22V473.967H149.09V477.487H153.95V479.377H145.31V481.837H152.73V492.687H136.12V481.837H143.29V479.377H134.49V478.127H131.13V480.747H131.14ZM142.53 494.737C142.4 494.837 142.21 494.927 141.92 494.957C140.54 496.267 137.76 497.937 135.49 498.857C135.14 498.437 134.5 497.766 134.05 497.386C136.35 496.486 139.07 494.887 140.42 493.547L142.53 494.727V494.737ZM138.08 483.467V486.447H143.29V483.467H138.08ZM138.08 488.047V491.056H143.29V488.047H138.08ZM141.54 473.967V477.487H147.04V473.967H141.54ZM150.76 483.467H145.32V486.447H150.76V483.467ZM150.76 491.056V488.047H145.32V491.056H150.76ZM152.45 498.897C151.11 497.777 148.39 496.017 146.31 494.837L147.85 493.616C149.93 494.736 152.68 496.406 154.09 497.516L152.46 498.897H152.45Z" fill="#617462"/>
<path d="M211.39 479.987V481.967H207.93V498.826H205.91V481.967H201.11V483.346C201.11 488.656 200.53 494.607 196.53 498.897C196.15 498.607 195.31 498.126 194.77 497.906C195.57 497.076 196.24 496.147 196.75 495.187H184.97V497.717H183.05V470.427L185.58 470.587C185.55 470.807 185.39 470.967 184.97 471.007V493.277H196.97V494.817C198.83 491.237 199.11 487.037 199.11 483.357V472.346C199.78 472.376 200.29 472.407 200.65 472.447C203.72 471.547 206.98 470.337 208.87 469.187L211.01 470.817C210.91 470.917 210.69 470.977 210.34 470.917C208.13 472.037 204.45 473.287 201.09 474.147V480.007H211.36L211.39 479.987ZM190.5 492.467V484.177C189.35 486.737 187.88 489.237 186.37 490.707C186.18 490.167 185.73 489.397 185.41 488.947C187.23 487.187 189.22 483.897 190.34 480.857H185.89V478.967H190.5V469.177L192.96 469.337C192.93 469.557 192.77 469.687 192.35 469.757V478.967H196.99V480.857H192.35V482.357C193.34 483.187 196.19 485.817 196.89 486.487L195.64 488.056C195.03 487.226 193.53 485.557 192.35 484.317V492.477H190.49L190.5 492.467ZM187.75 471.346C188.55 473.106 189.19 475.447 189.32 476.977L187.78 477.516C187.65 475.946 187.04 473.617 186.31 471.817L187.75 471.337V471.346ZM197.38 471.987C197.28 472.177 197.06 472.277 196.74 472.277C196.2 473.817 195.24 476.087 194.44 477.587C194.15 477.457 193.38 477.107 193.13 477.007C193.87 475.467 194.79 472.907 195.27 471.217L197.38 471.987Z" fill="#617462"/>
<path d="M268.67 487.826H261.66C263.68 489.586 266.59 491.156 269.31 491.886C268.86 492.306 268.29 493.006 268 493.516C266.66 493.066 265.25 492.396 263.94 491.596V495.727C263.94 497.587 263.24 497.866 258.95 497.806C258.85 497.266 258.6 496.617 258.34 496.107C259.2 496.137 259.97 496.167 260.52 496.167C261.74 496.167 261.86 496.167 261.86 495.717V492.007H255.04V498.826H252.93V492.007H246.82V497.927H244.74V491.467C243.43 492.357 241.92 493.167 240.26 493.897C240 493.417 239.43 492.676 238.98 492.326C242.02 491.116 244.45 489.507 246.31 487.817H239.59V486.027H248.04C248.55 485.387 249 484.776 249.38 484.136H243.97V475.337H264.8V484.136H252.26C252.16 484.296 251.94 484.427 251.62 484.427C251.3 484.937 250.95 485.477 250.56 486.027H268.67V487.817V487.826ZM247.59 475.056V473.266H239.75V471.477H247.59V469.107L250.31 469.266C250.28 469.486 250.12 469.647 249.67 469.717V471.477H258.41V469.107L261.16 469.266C261.13 469.486 260.97 469.647 260.52 469.717V471.477H268.58V473.266H260.52V475.056H258.41V473.266H249.67V475.056H247.59ZM245.96 476.817V479.027H262.73V476.817H245.96ZM245.96 480.437V482.677H262.73V480.437H245.96ZM249.06 487.826C248.29 488.656 247.43 489.457 246.44 490.257H252.94V487.826H249.07H249.06ZM255.04 490.257H261.98C260.99 489.487 260.09 488.686 259.39 487.826H255.65C255.59 488.016 255.43 488.177 255.04 488.247V490.266V490.257Z" fill="#617462"/>
<path d="M353.37 2.07642H391.81V40.5164L353.37 2.07642Z" fill="#99A893"/>
</svg>
