<svg width="233" height="40" viewBox="0 0 233 40" fill="none" xmlns="http://www.w3.org/2000/svg">
<g clip-path="url(#clip0_48_2)">
<path d="M20.4091 26V14.3636H27.3864V15.6136H21.8182V19.5455H26.8636V20.7955H21.8182V26H20.4091ZM29.3039 26H27.8266L32.0993 14.3636H33.5539L37.8266 26H36.3493L32.872 16.2045H32.7811L29.3039 26ZM29.8493 21.4545H35.8039V22.7045H29.8493V21.4545ZM40.8009 14.3636L43.8009 19.2045H43.8918L46.8918 14.3636H48.5509L44.8918 20.1818L48.5509 26H46.8918L43.8918 21.25H43.8009L40.8009 26H39.1418L42.8918 20.1818L39.1418 14.3636H40.8009ZM56.9116 13.424L57.6796 12.528C58.117 12.7413 58.5756 12.9973 59.0556 13.296C59.5356 13.584 59.9836 13.8773 60.3996 14.176C60.8263 14.4747 61.1676 14.7573 61.4236 15.024L60.5756 16.048C60.3303 15.7707 60.005 15.4773 59.5996 15.168C59.1943 14.848 58.7516 14.5387 58.2716 14.24C57.8023 13.9307 57.349 13.6587 56.9116 13.424ZM55.4556 20.592H63.9196V21.76H55.4556V20.592ZM54.3196 25.648H64.8476V26.784H54.3196V25.648ZM54.8636 16.016H64.4956V17.168H54.8636V16.016ZM58.9596 16.416H60.1916V26.176H58.9596V16.416ZM50.9916 13.568L51.6476 12.688C52.0103 12.816 52.3836 12.976 52.7676 13.168C53.1623 13.36 53.5303 13.5627 53.8716 13.776C54.213 13.9787 54.4956 14.176 54.7196 14.368L54.0156 15.36C53.8023 15.168 53.525 14.9653 53.1836 14.752C52.853 14.528 52.4956 14.3147 52.1116 14.112C51.7276 13.8987 51.3543 13.7173 50.9916 13.568ZM50.0636 17.936L50.6876 17.008C51.0503 17.1253 51.429 17.2693 51.8236 17.44C52.229 17.6107 52.6076 17.7867 52.9596 17.968C53.3223 18.1493 53.6156 18.3307 53.8396 18.512L53.1836 19.536C52.9596 19.3547 52.6716 19.168 52.3196 18.976C51.9783 18.784 51.6103 18.5973 51.2156 18.416C50.821 18.224 50.437 18.064 50.0636 17.936ZM50.6716 26.256C50.9596 25.8507 51.2796 25.3653 51.6316 24.8C51.9836 24.224 52.341 23.616 52.7036 22.976C53.0663 22.3253 53.4023 21.7013 53.7116 21.104L54.5916 21.888C54.3143 22.4533 54.005 23.04 53.6636 23.648C53.333 24.256 52.997 24.8533 52.6556 25.44C52.325 26.0267 51.9996 26.5707 51.6796 27.072L50.6716 26.256ZM77.5356 15.872L78.7996 16.256C78.1276 18.208 77.2636 19.8933 76.2076 21.312C75.1623 22.7307 73.9036 23.9253 72.4316 24.896C70.9703 25.8667 69.269 26.6667 67.3276 27.296C67.285 27.1893 67.2156 27.0667 67.1196 26.928C67.0343 26.7893 66.9383 26.6453 66.8316 26.496C66.7356 26.3467 66.645 26.2293 66.5596 26.144C68.4583 25.5893 70.117 24.864 71.5356 23.968C72.9543 23.0613 74.1596 21.9467 75.1516 20.624C76.1436 19.2907 76.9383 17.7067 77.5356 15.872ZM70.2556 15.968C70.8423 17.6747 71.6316 19.2107 72.6236 20.576C73.6263 21.9307 74.853 23.0773 76.3036 24.016C77.7543 24.9547 79.445 25.6533 81.3756 26.112C81.2796 26.1973 81.173 26.3093 81.0556 26.448C80.949 26.5973 80.8423 26.7467 80.7356 26.896C80.6396 27.0453 80.5596 27.1733 80.4956 27.28C78.5223 26.768 76.7996 26.0107 75.3276 25.008C73.8663 23.9947 72.6236 22.7627 71.5996 21.312C70.5756 19.8507 69.733 18.1867 69.0716 16.32L70.2556 15.968ZM66.7356 15.28H81.1996V16.448H66.7356V15.28ZM73.2956 12.56H74.5276V15.984H73.2956V12.56ZM85.5516 13.68H95.9036V14.832H85.5516V13.68ZM85.5516 17.408H95.8716V18.544H85.5516V17.408ZM85.4556 21.232H95.9036V22.368H85.4556V21.232ZM84.8636 13.68H86.0476V19.488C86.0476 20.096 86.021 20.7467 85.9676 21.44C85.9143 22.1333 85.813 22.8373 85.6636 23.552C85.525 24.256 85.3063 24.9333 85.0076 25.584C84.7196 26.2347 84.3356 26.8267 83.8556 27.36C83.8023 27.2747 83.717 27.1787 83.5996 27.072C83.4823 26.976 83.365 26.88 83.2476 26.784C83.1303 26.688 83.0236 26.6187 82.9276 26.576C83.3756 26.0747 83.7276 25.5307 83.9836 24.944C84.2396 24.3573 84.4316 23.7547 84.5596 23.136C84.6876 22.5067 84.7676 21.8827 84.7996 21.264C84.8423 20.6453 84.8636 20.0533 84.8636 19.488V13.68ZM95.4236 13.68H96.6076V25.648C96.6076 26.032 96.549 26.3253 96.4316 26.528C96.325 26.7307 96.1383 26.8853 95.8716 26.992C95.605 27.088 95.2316 27.1467 94.7516 27.168C94.2716 27.1893 93.653 27.1947 92.8956 27.184C92.8636 27.0347 92.805 26.8427 92.7196 26.608C92.645 26.384 92.565 26.192 92.4796 26.032C92.853 26.0427 93.2103 26.048 93.5516 26.048C93.9036 26.0587 94.2076 26.0587 94.4636 26.048C94.7196 26.048 94.8956 26.048 94.9916 26.048C95.1516 26.0373 95.2636 26.0053 95.3276 25.952C95.3916 25.8987 95.4236 25.7973 95.4236 25.648V13.68ZM89.8876 14.112H91.1036V27.136H89.8876V14.112ZM106.512 13.84L107.664 14.224V26H106.512V13.84ZM105.28 25.888C105.962 25.76 106.784 25.5947 107.744 25.392C108.714 25.1893 109.701 24.9813 110.704 24.768L110.832 25.792C109.946 26.016 109.056 26.2347 108.16 26.448C107.264 26.6613 106.453 26.8533 105.728 27.024L105.28 25.888ZM112.752 12.544L113.696 13.472C113.13 13.7067 112.48 13.9253 111.744 14.128C111.018 14.3307 110.261 14.512 109.472 14.672C108.693 14.832 107.936 14.9707 107.2 15.088C107.178 14.9493 107.125 14.7893 107.04 14.608C106.965 14.4267 106.89 14.2667 106.816 14.128C107.52 14 108.24 13.856 108.976 13.696C109.722 13.5253 110.426 13.344 111.088 13.152C111.749 12.96 112.304 12.7573 112.752 12.544ZM107.12 18.624H114.288V19.776H107.12V18.624ZM110.032 14.112H111.184C111.194 15.328 111.221 16.5067 111.264 17.648C111.306 18.7787 111.37 19.84 111.456 20.832C111.541 21.8133 111.653 22.688 111.792 23.456C111.941 24.2133 112.117 24.8213 112.32 25.28C112.533 25.728 112.789 25.984 113.088 26.048C113.216 26.0907 113.328 25.888 113.424 25.44C113.52 24.992 113.594 24.3893 113.648 23.632C113.722 23.7173 113.813 23.8027 113.92 23.888C114.026 23.9627 114.133 24.0373 114.24 24.112C114.357 24.1867 114.458 24.2507 114.544 24.304C114.458 25.1467 114.32 25.8027 114.128 26.272C113.946 26.7413 113.722 27.04 113.456 27.168C113.2 27.296 112.912 27.28 112.592 27.12C112.165 26.992 111.808 26.6667 111.52 26.144C111.242 25.632 111.013 24.9707 110.832 24.16C110.65 23.3387 110.506 22.4 110.4 21.344C110.304 20.288 110.224 19.152 110.16 17.936C110.106 16.7093 110.064 15.4347 110.032 14.112ZM102.208 20.096H103.296V27.264H102.208V20.096ZM102.064 12.544L103.136 12.976C102.933 13.3707 102.714 13.7813 102.48 14.208C102.245 14.6347 102.01 15.0453 101.776 15.44C101.541 15.8347 101.317 16.1867 101.104 16.496L100.272 16.112C100.474 15.8027 100.688 15.44 100.912 15.024C101.136 14.5973 101.349 14.1707 101.552 13.744C101.754 13.3067 101.925 12.9067 102.064 12.544ZM104.032 14.4L105.056 14.88C104.672 15.4773 104.25 16.1173 103.792 16.8C103.333 17.4827 102.869 18.1387 102.4 18.768C101.93 19.3973 101.488 19.952 101.072 20.432L100.32 20C100.64 19.6373 100.965 19.2267 101.296 18.768C101.637 18.2987 101.973 17.8133 102.304 17.312C102.645 16.8 102.96 16.2933 103.248 15.792C103.546 15.2907 103.808 14.8267 104.032 14.4ZM99.5036 16L100.096 15.2C100.394 15.4347 100.688 15.7013 100.976 16C101.274 16.288 101.546 16.576 101.792 16.864C102.048 17.152 102.245 17.408 102.384 17.632L101.744 18.56C101.616 18.3147 101.424 18.0427 101.168 17.744C100.922 17.4347 100.656 17.1307 100.368 16.832C100.08 16.5227 99.7916 16.2453 99.5036 16ZM103.552 18.048L104.432 17.648C104.677 17.9893 104.917 18.352 105.152 18.736C105.386 19.12 105.594 19.4987 105.776 19.872C105.968 20.2453 106.112 20.5813 106.208 20.88L105.28 21.328C105.184 21.04 105.045 20.7093 104.864 20.336C104.682 19.952 104.474 19.5627 104.24 19.168C104.016 18.7627 103.786 18.3893 103.552 18.048ZM99.3596 19.744C100.106 19.7013 101.002 19.6427 102.048 19.568C103.093 19.4933 104.165 19.4187 105.264 19.344L105.28 20.304C104.245 20.4 103.226 20.496 102.224 20.592C101.221 20.688 100.32 20.768 99.5196 20.832L99.3596 19.744ZM103.888 21.936L104.816 21.632C105.04 22.1013 105.253 22.6133 105.456 23.168C105.658 23.712 105.797 24.1867 105.872 24.592L104.88 24.928C104.805 24.5227 104.672 24.0427 104.48 23.488C104.298 22.9227 104.101 22.4053 103.888 21.936ZM100.384 21.696L101.408 21.872C101.312 22.6293 101.168 23.376 100.976 24.112C100.794 24.8373 100.576 25.456 100.32 25.968C100.256 25.9253 100.165 25.8773 100.048 25.824C99.9303 25.76 99.8076 25.7013 99.6796 25.648C99.5623 25.584 99.461 25.536 99.3756 25.504C99.6316 25.0133 99.8396 24.432 99.9996 23.76C100.16 23.0773 100.288 22.3893 100.384 21.696ZM127.616 13.104C127.754 13.2853 127.904 13.5093 128.064 13.776C128.224 14.032 128.378 14.2933 128.528 14.56C128.677 14.8267 128.81 15.072 128.928 15.296L128.064 15.68C127.904 15.36 127.701 14.9867 127.456 14.56C127.21 14.1333 126.981 13.7707 126.768 13.472L127.616 13.104ZM129.376 12.464C129.514 12.656 129.664 12.8853 129.824 13.152C129.994 13.4187 130.16 13.6853 130.32 13.952C130.48 14.208 130.613 14.4373 130.72 14.64L129.856 15.024C129.685 14.672 129.477 14.2933 129.232 13.888C128.986 13.472 128.752 13.1147 128.528 12.816L129.376 12.464ZM121.504 19.04C122.026 19.3387 122.565 19.6693 123.12 20.032C123.685 20.3947 124.25 20.7733 124.816 21.168C125.381 21.5627 125.914 21.9467 126.416 22.32C126.928 22.6933 127.381 23.04 127.776 23.36L126.832 24.464C126.469 24.1333 126.037 23.7707 125.536 23.376C125.034 22.9707 124.496 22.5653 123.92 22.16C123.354 21.744 122.789 21.3493 122.224 20.976C121.658 20.592 121.13 20.2453 120.64 19.936L121.504 19.04ZM128.832 16.128C128.757 16.2347 128.688 16.3733 128.624 16.544C128.56 16.704 128.506 16.848 128.464 16.976C128.304 17.52 128.085 18.1067 127.808 18.736C127.541 19.3653 127.216 20 126.832 20.64C126.458 21.28 126.037 21.888 125.568 22.464C124.842 23.36 123.941 24.2133 122.864 25.024C121.797 25.8347 120.506 26.5227 118.992 27.088L117.84 26.08C118.842 25.7813 119.749 25.4027 120.56 24.944C121.37 24.4853 122.101 23.984 122.752 23.44C123.402 22.896 123.968 22.3413 124.448 21.776C124.864 21.2747 125.242 20.736 125.584 20.16C125.936 19.5733 126.24 18.9867 126.496 18.4C126.752 17.8133 126.938 17.2747 127.056 16.784H121.12L121.648 15.632H126.72C126.933 15.632 127.13 15.6213 127.312 15.6C127.493 15.568 127.648 15.5307 127.776 15.488L128.832 16.128ZM123.44 13.808C123.301 14.0213 123.168 14.2507 123.04 14.496C122.912 14.7307 122.805 14.9227 122.72 15.072C122.4 15.648 121.989 16.288 121.488 16.992C120.986 17.696 120.394 18.3947 119.712 19.088C119.029 19.7813 118.261 20.4213 117.408 21.008L116.336 20.192C117.253 19.616 118.048 18.992 118.72 18.32C119.402 17.6373 119.968 16.9707 120.416 16.32C120.874 15.6693 121.226 15.0987 121.472 14.608C121.557 14.4693 121.653 14.2773 121.76 14.032C121.866 13.7867 121.941 13.5573 121.984 13.344L123.44 13.808ZM140.512 13.184C140.48 13.4293 140.453 13.648 140.432 13.84C140.421 14.032 140.416 14.2133 140.416 14.384C140.416 14.512 140.416 14.7093 140.416 14.976C140.416 15.2427 140.416 15.52 140.416 15.808C140.416 16.096 140.416 16.336 140.416 16.528H139.056C139.056 16.3147 139.056 16.064 139.056 15.776C139.056 15.488 139.056 15.216 139.056 14.96C139.056 14.704 139.056 14.512 139.056 14.384C139.056 14.2133 139.05 14.032 139.04 13.84C139.04 13.648 139.018 13.4293 138.976 13.184H140.512ZM145.968 16.288C145.925 16.4053 145.882 16.56 145.84 16.752C145.797 16.9333 145.76 17.0987 145.728 17.248C145.685 17.568 145.616 17.9253 145.52 18.32C145.434 18.7147 145.328 19.1307 145.2 19.568C145.072 19.9947 144.922 20.4213 144.752 20.848C144.581 21.264 144.384 21.6693 144.16 22.064C143.765 22.7573 143.258 23.3973 142.64 23.984C142.021 24.5707 141.306 25.0827 140.496 25.52C139.696 25.9573 138.805 26.3147 137.824 26.592L136.784 25.392C137.05 25.3493 137.328 25.2907 137.616 25.216C137.914 25.1307 138.192 25.04 138.448 24.944C138.981 24.7733 139.52 24.5333 140.064 24.224C140.608 23.904 141.114 23.536 141.584 23.12C142.064 22.6933 142.464 22.2293 142.784 21.728C143.072 21.2693 143.317 20.768 143.52 20.224C143.733 19.68 143.904 19.1307 144.032 18.576C144.16 18.0213 144.25 17.5147 144.304 17.056H135.36C135.36 17.2267 135.36 17.4453 135.36 17.712C135.36 17.9787 135.36 18.2613 135.36 18.56C135.36 18.848 135.36 19.12 135.36 19.376C135.36 19.6213 135.36 19.8027 135.36 19.92C135.36 20.0693 135.365 20.2347 135.376 20.416C135.386 20.5973 135.402 20.752 135.424 20.88H134.032C134.053 20.7307 134.064 20.56 134.064 20.368C134.074 20.176 134.08 20.0053 134.08 19.856C134.08 19.728 134.08 19.536 134.08 19.28C134.08 19.024 134.08 18.752 134.08 18.464C134.08 18.1653 134.08 17.888 134.08 17.632C134.08 17.376 134.08 17.1787 134.08 17.04C134.08 16.8693 134.074 16.6667 134.064 16.432C134.064 16.1973 134.053 15.9893 134.032 15.808C134.266 15.8293 134.501 15.8453 134.736 15.856C134.981 15.8667 135.242 15.872 135.52 15.872H144C144.298 15.872 144.528 15.8613 144.688 15.84C144.858 15.808 144.997 15.776 145.104 15.744L145.968 16.288ZM151.968 14.272C152.256 14.464 152.586 14.704 152.96 14.992C153.333 15.2693 153.712 15.568 154.096 15.888C154.49 16.1973 154.858 16.5013 155.2 16.8C155.541 17.0987 155.824 17.36 156.048 17.584L155.04 18.592C154.837 18.3893 154.576 18.1387 154.256 17.84C153.936 17.5413 153.584 17.232 153.2 16.912C152.816 16.5813 152.437 16.272 152.064 15.984C151.69 15.6853 151.354 15.44 151.056 15.248L151.968 14.272ZM150.592 24.992C151.53 24.8533 152.384 24.6613 153.152 24.416C153.93 24.1707 154.64 23.8933 155.28 23.584C155.92 23.2747 156.49 22.9653 156.992 22.656C157.813 22.144 158.57 21.5573 159.264 20.896C159.957 20.224 160.565 19.5307 161.088 18.816C161.61 18.1013 162.026 17.4187 162.336 16.768L163.104 18.128C162.741 18.7893 162.293 19.4613 161.76 20.144C161.226 20.8267 160.624 21.4827 159.952 22.112C159.28 22.7413 158.538 23.312 157.728 23.824C157.194 24.1547 156.608 24.48 155.968 24.8C155.338 25.12 154.645 25.4133 153.888 25.68C153.141 25.936 152.325 26.144 151.44 26.304L150.592 24.992ZM167.152 15.04C167.472 15.0507 167.744 15.0613 167.968 15.072C168.192 15.072 168.394 15.072 168.576 15.072C168.704 15.072 168.938 15.072 169.28 15.072C169.621 15.072 170.032 15.072 170.512 15.072C171.002 15.072 171.525 15.072 172.08 15.072C172.634 15.072 173.184 15.072 173.728 15.072C174.282 15.072 174.8 15.072 175.28 15.072C175.76 15.072 176.165 15.072 176.496 15.072C176.826 15.072 177.05 15.072 177.168 15.072C177.338 15.072 177.552 15.072 177.808 15.072C178.074 15.0613 178.33 15.0507 178.576 15.04C178.565 15.232 178.554 15.44 178.544 15.664C178.544 15.8773 178.544 16.0853 178.544 16.288C178.544 16.3947 178.544 16.608 178.544 16.928C178.544 17.2373 178.544 17.616 178.544 18.064C178.544 18.512 178.544 18.9973 178.544 19.52C178.544 20.032 178.544 20.544 178.544 21.056C178.544 21.568 178.544 22.0427 178.544 22.48C178.544 22.9173 178.544 23.2907 178.544 23.6C178.544 23.8987 178.544 24.0907 178.544 24.176C178.544 24.2933 178.544 24.4533 178.544 24.656C178.544 24.8587 178.544 25.0613 178.544 25.264C178.554 25.4667 178.56 25.648 178.56 25.808C178.57 25.9573 178.576 26.0587 178.576 26.112H177.2C177.2 26.048 177.2 25.92 177.2 25.728C177.21 25.5253 177.216 25.3013 177.216 25.056C177.226 24.8 177.232 24.56 177.232 24.336C177.232 24.2613 177.232 24.0587 177.232 23.728C177.232 23.3973 177.232 22.992 177.232 22.512C177.232 22.0213 177.232 21.4987 177.232 20.944C177.232 20.3787 177.232 19.8293 177.232 19.296C177.232 18.752 177.232 18.256 177.232 17.808C177.232 17.36 177.232 17.0027 177.232 16.736C177.232 16.4693 177.232 16.336 177.232 16.336H168.48C168.48 16.336 168.48 16.4693 168.48 16.736C168.48 16.992 168.48 17.344 168.48 17.792C168.48 18.24 168.48 18.736 168.48 19.28C168.48 19.8133 168.48 20.3573 168.48 20.912C168.48 21.4667 168.48 21.9893 168.48 22.48C168.48 22.96 168.48 23.3653 168.48 23.696C168.48 24.0267 168.48 24.24 168.48 24.336C168.48 24.4747 168.48 24.6347 168.48 24.816C168.48 24.9973 168.48 25.1787 168.48 25.36C168.49 25.5307 168.496 25.6853 168.496 25.824C168.506 25.9627 168.512 26.0587 168.512 26.112H167.136C167.136 26.0587 167.136 25.9573 167.136 25.808C167.146 25.648 167.152 25.4667 167.152 25.264C167.162 25.0613 167.168 24.864 167.168 24.672C167.168 24.4693 167.168 24.2987 167.168 24.16C167.168 24.0747 167.168 23.8773 167.168 23.568C167.168 23.2587 167.168 22.88 167.168 22.432C167.168 21.984 167.168 21.504 167.168 20.992C167.168 20.4693 167.168 19.952 167.168 19.44C167.168 18.9173 167.168 18.4373 167.168 18C167.168 17.552 167.168 17.1787 167.168 16.88C167.168 16.5707 167.168 16.3733 167.168 16.288C167.168 16.096 167.168 15.888 167.168 15.664C167.168 15.44 167.162 15.232 167.152 15.04ZM177.744 23.936V25.184H167.856V23.936H177.744ZM182.928 19.072C183.088 19.0827 183.285 19.0987 183.52 19.12C183.754 19.1307 184.01 19.1413 184.288 19.152C184.576 19.152 184.864 19.152 185.152 19.152C185.322 19.152 185.584 19.152 185.936 19.152C186.298 19.152 186.72 19.152 187.2 19.152C187.68 19.152 188.186 19.152 188.72 19.152C189.264 19.152 189.802 19.152 190.336 19.152C190.88 19.152 191.392 19.152 191.872 19.152C192.362 19.152 192.784 19.152 193.136 19.152C193.488 19.152 193.749 19.152 193.92 19.152C194.325 19.152 194.672 19.1413 194.96 19.12C195.248 19.0987 195.477 19.0827 195.648 19.072V20.64C195.488 20.6293 195.248 20.6133 194.928 20.592C194.618 20.5707 194.288 20.56 193.936 20.56C193.765 20.56 193.498 20.56 193.136 20.56C192.773 20.56 192.352 20.56 191.872 20.56C191.402 20.56 190.896 20.56 190.352 20.56C189.808 20.56 189.264 20.56 188.72 20.56C188.186 20.56 187.68 20.56 187.2 20.56C186.73 20.56 186.314 20.56 185.952 20.56C185.589 20.56 185.322 20.56 185.152 20.56C184.714 20.56 184.298 20.5707 183.904 20.592C183.509 20.6027 183.184 20.6187 182.928 20.64V19.072ZM208.272 14.48C208.41 14.672 208.57 14.912 208.752 15.2C208.933 15.4773 209.109 15.7653 209.28 16.064C209.461 16.3627 209.61 16.64 209.728 16.896L208.816 17.312C208.688 17.0347 208.544 16.7573 208.384 16.48C208.234 16.192 208.074 15.9147 207.904 15.648C207.744 15.3707 207.573 15.1147 207.392 14.88L208.272 14.48ZM210.208 13.68C210.346 13.8613 210.506 14.0907 210.688 14.368C210.88 14.6453 211.066 14.9333 211.248 15.232C211.429 15.5307 211.584 15.8027 211.712 16.048L210.816 16.496C210.677 16.2187 210.528 15.9413 210.368 15.664C210.208 15.3867 210.037 15.1147 209.856 14.848C209.685 14.5813 209.509 14.3307 209.328 14.096L210.208 13.68ZM202.656 24.8C202.656 24.6507 202.656 24.352 202.656 23.904C202.656 23.456 202.656 22.9227 202.656 22.304C202.656 21.6747 202.656 21.0133 202.656 20.32C202.656 19.6267 202.656 18.9547 202.656 18.304C202.656 17.6533 202.656 17.0773 202.656 16.576C202.656 16.0747 202.656 15.712 202.656 15.488C202.656 15.264 202.645 14.992 202.624 14.672C202.613 14.352 202.581 14.0693 202.528 13.824H204.112C204.08 14.0693 204.053 14.352 204.032 14.672C204.01 14.9813 204 15.2533 204 15.488C204 15.904 204 16.4053 204 16.992C204 17.568 204 18.1867 204 18.848C204 19.4987 204 20.1493 204 20.8C204 21.44 204 22.0427 204 22.608C204 23.1627 204 23.6373 204 24.032C204 24.416 204 24.672 204 24.8C204 24.96 204 25.1573 204 25.392C204.01 25.6267 204.026 25.856 204.048 26.08C204.069 26.3147 204.085 26.5173 204.096 26.688H202.56C202.592 26.432 202.613 26.128 202.624 25.776C202.645 25.424 202.656 25.0987 202.656 24.8ZM203.712 18.016C204.234 18.176 204.816 18.368 205.456 18.592C206.096 18.8053 206.741 19.0347 207.392 19.28C208.053 19.5253 208.677 19.776 209.264 20.032C209.861 20.2773 210.384 20.512 210.832 20.736L210.272 22.096C209.813 21.8507 209.296 21.6 208.72 21.344C208.154 21.088 207.568 20.8373 206.96 20.592C206.352 20.3467 205.765 20.128 205.2 19.936C204.645 19.744 204.149 19.5787 203.712 19.44V18.016Z" fill="white"/>
<rect x="0.5" y="0.5" width="232" height="39" rx="7.5" stroke="white"/>
</g>
<defs>
<clipPath id="clip0_48_2">
<rect width="233" height="40" fill="white"/>
</clipPath>
</defs>
</svg>
