<svg width="214" height="35" viewBox="0 0 214 35" fill="none" xmlns="http://www.w3.org/2000/svg">
<path d="M205.81 32.6028C204.14 32.6028 202.79 31.243 202.79 29.583C202.79 27.923 204.15 26.563 205.81 26.563C207.47 26.563 208.83 27.923 208.83 29.583C208.83 31.243 207.47 32.6028 205.81 32.6028ZM205.81 26.9229C204.35 26.9229 203.15 28.113 203.15 29.583C203.15 31.053 204.34 32.2429 205.81 32.2429C207.28 32.2429 208.47 31.053 208.47 29.583C208.47 28.113 207.28 26.9229 205.81 26.9229Z" fill="white"/>
<path d="M206.27 29.6731C206.56 29.7631 206.73 30.0431 206.82 30.4531C206.94 30.9931 207.02 31.3231 207.09 31.4631H206.67C206.61 31.3531 206.53 31.0232 206.43 30.5632C206.32 30.0432 206.12 29.8132 205.67 29.8132H205.21V31.4631H204.8V27.7832C205.03 27.7332 205.35 27.7031 205.65 27.7031C206.14 27.7031 206.45 27.8032 206.68 28.0032C206.86 28.1632 206.96 28.4231 206.96 28.7031C206.96 29.2031 206.66 29.5131 206.26 29.6631L206.27 29.6731ZM205.7 29.4932C206.22 29.4932 206.55 29.2032 206.55 28.7432C206.55 28.1932 206.13 28.0132 205.68 28.0132C205.46 28.0132 205.3 28.0332 205.22 28.0532V29.4832H205.7V29.4932Z" fill="white"/>
<path d="M193.13 13.4567V13.0296C193.13 12.3639 193.41 12.0658 194.06 12.026H198.34C199.41 12.026 200.28 11.1617 200.28 10.0986C200.28 9.03549 199.41 8.17115 198.34 8.17115H194.24C193.26 8.17115 193.13 7.68429 193.13 7.1577V4.37569C193.13 3.31258 192.26 2.44824 191.19 2.44824C190.12 2.44824 189.25 3.31258 189.25 4.37569V7.1577C189.25 7.68429 189.11 8.17115 188.14 8.17115H184.03C182.96 8.17115 182.09 9.03549 182.09 10.0986C182.09 11.1617 182.96 12.026 184.03 12.026H188.29C188.97 12.0658 189.25 12.3539 189.25 13.0296V25.4292C189.25 27.764 189.87 29.5625 191.11 30.7547C192.64 32.2252 194.69 32.394 196.1 32.394C196.44 32.394 196.76 32.394 197.06 32.3741H197.1C197.31 32.3741 197.51 32.3542 197.7 32.3542C198.78 32.3542 199.64 31.4899 199.64 30.4268C199.64 29.3637 198.78 28.4993 197.7 28.4993C197.47 28.4993 197.21 28.4994 196.93 28.5192C196.66 28.5192 196.38 28.5292 196.1 28.5292C195.3 28.5292 194.32 28.4596 193.81 27.9727C193.36 27.5455 193.12 26.6612 193.12 25.4192V13.4468L193.13 13.4567Z" fill="white"/>
<path d="M184.53 20.7305C183.99 15.3851 179.5 11.689 174.08 11.689C168.29 11.689 163.58 16.3686 163.58 22.1214C163.58 27.8741 168.29 32.5538 174.08 32.5538C177.84 32.5538 181.34 30.5766 183.23 27.3873C183.65 26.6719 183.42 25.7481 182.7 25.3308C181.98 24.9135 181.05 25.1418 180.63 25.8671C179.28 28.1424 176.77 29.5534 174.08 29.5534C170.91 29.5534 168.2 27.3675 167.25 24.5061C166.69 22.6779 167.83 22.3996 168.7 22.3797H169.22C169.22 22.3797 169.3 22.3797 169.34 22.3797H183.1C183.97 22.3797 184.64 21.6644 184.53 20.7305ZM174.08 14.6995C176.65 14.6995 178.91 15.9812 180.26 17.9485C180.7 18.6738 180.79 19.7071 179.19 19.727H169C167.27 19.7071 167.69 18.2566 168.39 17.3226C169.76 15.723 171.8 14.7094 174.07 14.7094L174.08 14.6995Z" fill="white"/>
<path d="M159.28 3.53223C158.21 3.53223 157.34 4.39681 157.34 5.45992V22.4696C157.34 23.2743 156.49 24.1289 155.47 22.5491L142.45 4.45641C142.1 3.89008 141.47 3.53223 140.8 3.53223C140.62 3.53223 140.45 3.55217 140.27 3.60184C139.44 3.8403 138.86 4.59552 138.86 5.45992V30.6366C138.86 31.6997 139.73 32.564 140.8 32.564C141.87 32.564 142.74 31.6997 142.74 30.6366V13.617C142.74 12.8122 143.61 11.9379 144.65 13.5971L157.63 31.6401C157.98 32.2164 158.62 32.564 159.28 32.564C159.46 32.564 159.64 32.5344 159.81 32.4947C160.64 32.2562 161.22 31.501 161.22 30.6465V5.46986C161.22 4.40675 160.35 3.54217 159.28 3.54217V3.53223Z" fill="white"/>
<path d="M127.47 10.6469H112.56C111.34 10.6469 111.35 11.4218 111.35 11.8192V14.1738C111.35 14.5712 111.34 15.3365 112.56 15.3365H123.45C126.39 15.3365 128.78 17.7109 128.78 20.6419V27.3089C128.78 30.2399 126.38 32.6143 123.45 32.6143H109.29C108.16 32.6143 107.24 31.7002 107.24 30.5676C107.24 29.4349 108.16 28.531 109.29 28.531H123.45C124.12 28.531 124.67 27.9845 124.67 27.3188V20.6518C124.67 19.9862 124.12 19.4298 123.45 19.4298H109.29C108.16 19.4298 107.24 18.5258 107.24 17.3932V11.8292C107.24 11.4417 107.25 10.6668 106.03 10.6668H104.58C103.45 10.6668 102.53 9.76258 102.53 8.62992C102.53 7.49726 103.45 6.58313 104.58 6.58313H106.03C107.25 6.58313 107.24 5.81818 107.24 5.43069V3.21507C107.24 2.09235 108.16 1.17822 109.29 1.17822C110.42 1.17822 111.35 2.09235 111.35 3.21507V5.43069C111.35 5.81818 111.34 6.58313 112.56 6.58313H127.47C128.61 6.58313 129.53 7.5072 129.53 8.62992C129.53 9.75264 128.61 10.6668 127.47 10.6668V10.6469Z" fill="white"/>
<path d="M96.62 22.4894H89.2001C88.1101 22.4398 88.13 21.7145 88.13 21.337H88.12V18.227H88.13C88.13 17.8594 88.11 17.1541 89.14 17.0746H94.88C96.01 17.0746 96.9401 16.1604 96.9401 15.0278C96.9401 13.8951 96.02 12.9909 94.88 12.9909H89.27C88.11 12.9611 88.13 12.216 88.13 11.8285H88.12V10.6463H88.13C88.13 10.2786 88.11 9.56312 89.17 9.49357H96.62C97.75 9.49357 98.67 8.57968 98.67 7.45696C98.67 6.33423 97.75 5.41016 96.62 5.41016H89.33C88.11 5.41016 88.13 4.64495 88.13 4.24753H88.12V3.12492C88.12 1.99226 87.2001 1.07812 86.0701 1.07812C84.9401 1.07812 84.01 1.99226 84.01 3.12492V4.24753C84.01 4.63502 84.01 5.41016 82.8 5.41016H75.52C74.38 5.41016 73.47 6.33423 73.47 7.45696C73.47 8.57968 74.38 9.49357 75.52 9.49357H82.97C84.02 9.56312 84.01 10.2786 84.01 10.6463V11.8285C84.01 12.216 84.01 12.9611 82.86 12.9909H77.26C76.12 12.9909 75.2001 13.905 75.2001 15.0278C75.2001 16.1505 76.12 17.0746 77.26 17.0746H83C84.03 17.1541 84.02 17.8594 84.02 18.227V21.337C84.02 21.7145 84.0201 22.4398 82.9501 22.4894H78.35C75.57 22.4894 73.3101 24.7349 73.3101 27.507C73.3101 30.279 75.57 32.5245 78.35 32.5245H86.08C87.22 32.5245 88.13 31.6104 88.13 30.4777V27.7454H88.14C88.14 27.3579 88.12 26.583 89.34 26.583L96.63 26.5731C97.76 26.5731 98.6801 25.659 98.6801 24.5362C98.6801 23.4135 97.76 22.4795 96.63 22.4795L96.62 22.4894ZM84.01 28.1129C84.01 28.401 83.8101 28.4409 83.6801 28.4409H78.33C77.81 28.4409 77.4 28.0236 77.4 27.507C77.4 26.9903 77.81 26.5731 78.33 26.5731H83.6801C83.8101 26.5731 84.01 26.6127 84.01 26.9008V28.103V28.1129Z" fill="white"/>
<path d="M62.97 13.2198C60.03 13.2198 57.65 10.8553 57.65 7.93424C57.65 5.01318 60.03 2.64844 62.97 2.64844C65.91 2.64844 68.29 5.02311 68.29 7.93424C68.29 10.8454 65.9 13.2198 62.97 13.2198ZM62.97 5.96701C61.88 5.96701 61 6.85125 61 7.9243C61 8.99734 61.88 9.89153 62.97 9.89153C64.06 9.89153 64.9401 9.00728 64.9401 7.9243C64.9401 6.84132 64.05 5.96701 62.97 5.96701Z" fill="white"/>
<path d="M66.41 13.7258H59.9501C58.8101 13.7258 57.89 14.64 57.89 15.7726V26.7913C57.89 27.7451 57.12 28.5201 56.16 28.5201H46.67C45.71 28.5201 44.9301 27.7451 44.9301 26.7913V7.4467C44.9301 6.31404 44.01 5.3999 42.87 5.3999H36.41C35.27 5.3999 34.35 6.31404 34.35 7.4467C34.35 8.57936 35.27 9.49325 36.41 9.49325H39.77C40.82 9.5628 40.8101 10.2684 40.8101 10.6559V26.8013C40.8101 30.0105 43.44 32.6234 46.67 32.6234H56.16C59.39 32.6234 62.01 30.0204 62.01 26.8013V18.8329C62.01 18.4255 62.14 17.8492 63.15 17.8294H66.42C67.55 17.8294 68.48 16.9152 68.48 15.7925C68.48 14.6698 67.55 13.7457 66.42 13.7457L66.41 13.7258Z" fill="white"/>
<path d="M27.1801 14.1932C26.9901 14.1534 26.9301 13.9648 26.9501 13.8555C27.1301 13.0408 26.79 12.1563 26.04 11.6894C25.07 11.0833 23.8 11.3815 23.21 12.3453L22.54 13.4084C22.17 13.9946 21.9 14.1437 21.5 14.1437H17.42C16.22 14.1337 16.24 13.3785 16.24 12.981V10.6563C16.24 10.2787 16.23 9.56318 17.28 9.49363H27.77C28.91 9.49363 29.8201 8.64921 29.8201 7.61591C29.8201 6.58261 28.9 5.73794 27.77 5.73794H17.42C16.22 5.73794 16.24 4.96304 16.24 4.57556V3.17472C16.24 2.04206 15.3201 1.12793 14.1801 1.12793C13.0401 1.12793 12.12 2.052 12.12 3.17472V4.57556C12.12 4.96304 12.1301 5.72801 10.9301 5.73794H7.70996C6.56996 5.73794 5.65002 6.58261 5.65002 7.61591C5.65002 8.64921 6.56996 9.49363 7.70996 9.49363H11.08C12.13 9.56318 12.12 10.2688 12.12 10.6563V12.991C12.12 13.3785 12.13 14.1139 11 14.1536H9.33997C6.39997 14.1536 4.01001 16.538 4.01001 19.4591V27.3183C4.01001 30.2394 6.39997 32.6238 9.33997 32.6238H12.12V32.8523C12.12 33.9849 13.0401 34.899 14.1801 34.899C15.3201 34.899 16.24 33.9849 16.24 32.8523V31.5011C16.24 31.3223 16.32 31.0341 16.4 30.9049L24.25 18.4158C24.3 18.3462 24.35 18.2271 24.61 18.2271H26.49C27.17 18.2271 27.71 18.7735 27.71 19.4491V27.3083C27.71 27.974 27.17 28.5205 26.49 28.5205H20.6901C19.5601 28.5205 18.63 29.4344 18.63 30.567C18.63 31.6997 19.5501 32.6138 20.6901 32.6138H26.49C29.44 32.6138 31.83 30.2294 31.83 27.3083V19.4491C31.83 16.7566 29.8001 14.531 27.1801 14.1932ZM19.16 18.7736L16.71 22.6782C16.51 22.9961 16.24 22.7379 16.24 22.4795V19.3994C16.24 19.002 16.22 18.2569 17.41 18.237H18.9501C19.1501 18.237 19.57 18.2371 19.17 18.7835L19.16 18.7736ZM8.10999 27.3083V19.4491C8.10999 18.7834 8.65996 18.2271 9.32996 18.2271H10.9401C12.1301 18.2469 12.11 18.992 12.11 19.3895V27.3578C12.11 27.7553 12.12 28.5205 10.91 28.5205H9.32996C8.65996 28.5205 8.10999 27.974 8.10999 27.3083Z" fill="white"/>
</svg>
