<svg width="48" height="25" viewBox="0 0 48 25" fill="none" xmlns="http://www.w3.org/2000/svg">
<path d="M44.65 24.9487C43.04 24.9487 41.7301 23.6383 41.7301 22.0283C41.7301 20.4183 43.04 19.1084 44.65 19.1084C46.26 19.1084 47.5699 20.4183 47.5699 22.0283C47.5699 23.6383 46.26 24.9487 44.65 24.9487ZM44.65 19.4585C43.23 19.4585 42.08 20.6083 42.08 22.0283C42.08 23.4483 43.23 24.5986 44.65 24.5986C46.07 24.5986 47.2201 23.4483 47.2201 22.0283C47.2201 20.6083 46.07 19.4585 44.65 19.4585Z" fill="white"/>
<path d="M45.09 22.1187C45.37 22.2087 45.54 22.4787 45.62 22.8687C45.73 23.3887 45.81 23.7086 45.89 23.8486H45.4801C45.4201 23.7486 45.3401 23.4285 45.2501 22.9785C45.1501 22.4785 44.9499 22.2485 44.5199 22.2485H44.08V23.8486H43.6901V20.2886C43.9101 20.2386 44.2301 20.2085 44.5101 20.2085C44.9801 20.2085 45.2901 20.2985 45.5001 20.4985C45.6701 20.6585 45.7699 20.8985 45.7699 21.1685C45.7699 21.6485 45.48 21.9584 45.1 22.0884L45.09 22.1187ZM44.5399 21.9487C45.0399 21.9487 45.37 21.6685 45.37 21.2285C45.37 20.6885 44.9699 20.5283 44.5299 20.5283C44.3199 20.5283 44.16 20.5484 44.08 20.5684V21.9487H44.5399Z" fill="white"/>
<path d="M39.12 0.786621H0.480103V24.8804H39.12V0.786621Z" fill="white"/>
<path d="M10.2301 19.4956C7.6401 19.5254 5.52011 17.4589 5.49011 14.8955C5.49011 14.8558 5.49011 14.8159 5.49011 14.7762C5.49011 12.3122 8.0701 10.3149 10.2301 9.11269C12.3901 10.3149 14.9701 12.3122 14.9701 14.7762C15.0101 17.3495 12.94 19.4661 10.36 19.5058C10.32 19.5058 10.2801 19.5058 10.2401 19.5058M24.7899 14.6966C24.7899 12.2326 27.3699 10.2358 29.5299 9.03362C31.6899 10.2358 34.2699 12.2326 34.2699 14.6966C34.2699 17.2998 32.1499 19.4064 29.5399 19.4064C26.9299 19.4064 24.7999 17.3 24.7999 14.7068M39.13 4.51261C35.76 4.47287 32.43 5.20824 29.38 6.63897C26.41 5.19831 23.14 4.47287 19.84 4.51261C16.51 4.46294 13.2201 5.19831 10.2301 6.63897C7.1901 5.19831 3.8501 4.47287 0.480103 4.51261V6.63897C3.0001 6.6191 5.49999 7.07599 7.85999 7.97019C5.41999 9.50028 3.04993 11.8352 3.04993 14.7563C3.17993 18.5815 6.37009 21.602 10.2201 21.5424C14.0501 21.5921 17.1901 18.5517 17.2501 14.7563C17.2501 11.8253 15.02 9.50028 12.65 7.97019C14.93 7.06605 17.3699 6.6191 19.8199 6.63897C22.2699 6.6191 24.7101 7.07599 26.9901 7.97019C24.6201 9.50028 22.39 11.8352 22.39 14.7563C22.53 18.6312 25.8101 21.6713 29.7101 21.5322C33.4201 21.4031 36.3899 18.4424 36.5299 14.7563C36.5299 11.8253 34.2299 9.50028 31.7899 7.97019C34.1399 7.06605 36.64 6.6191 39.17 6.63897V4.51261H39.11H39.13Z" fill="#899284"/>
</svg>
