<svg width="58" height="52" viewBox="0 0 58 52" fill="none" xmlns="http://www.w3.org/2000/svg">
<path d="M29.0093 28.262C29.1793 28.262 37.3394 20.2638 40.2794 16.6175C43.0394 13.1996 43.6094 10.9343 43.7794 8.66899C43.9494 6.40367 42.4493 1.88296 36.9993 1.49548C31.5593 1.10799 29.8393 4.86365 28.9993 6.79116C28.1693 4.86365 26.4393 1.10799 20.9993 1.49548C15.5593 1.88296 14.0593 6.40367 14.2193 8.66899C14.3893 10.9343 14.9593 13.1996 17.7193 16.6175C20.6593 20.2638 28.8293 28.262 28.9993 28.262H29.0093Z" fill="#899284"/>
<path d="M4.521 39.473C4.50633 39.539 4.49533 39.616 4.488 39.704C4.48067 39.7846 4.47333 39.8726 4.466 39.968C4.45867 40.0633 4.45133 40.1513 4.444 40.232C4.43667 40.4006 4.42567 40.6206 4.411 40.892C4.40367 41.1633 4.39633 41.464 4.389 41.794C4.38167 42.1166 4.37433 42.4466 4.367 42.784C4.35967 43.114 4.356 43.422 4.356 43.708C4.356 43.994 4.356 44.3093 4.356 44.654C4.36333 44.9913 4.37067 45.3286 4.378 45.666C4.39267 45.996 4.4 46.304 4.4 46.59C4.40733 46.8686 4.411 47.0923 4.411 47.261C4.411 47.5983 4.37067 47.866 4.29 48.064C4.20933 48.262 4.09567 48.4013 3.949 48.482C3.80967 48.57 3.641 48.614 3.443 48.614C3.23033 48.614 2.992 48.5626 2.728 48.46C2.464 48.3646 2.211 48.2326 1.969 48.064C1.73433 47.8953 1.54 47.701 1.386 47.481C1.232 47.261 1.155 47.03 1.155 46.788C1.155 46.458 1.27967 46.1353 1.529 45.82C1.78567 45.5046 2.11567 45.2113 2.519 44.94C2.92967 44.6686 3.36233 44.4486 3.817 44.28C4.31567 44.082 4.82533 43.9353 5.346 43.84C5.86667 43.7373 6.34333 43.686 6.776 43.686C7.31133 43.686 7.78433 43.7776 8.195 43.961C8.613 44.1443 8.93933 44.401 9.174 44.731C9.416 45.0536 9.537 45.435 9.537 45.875C9.537 46.315 9.44533 46.7036 9.262 47.041C9.086 47.3783 8.822 47.6606 8.47 47.888C8.12533 48.1153 7.7 48.2913 7.194 48.416C6.952 48.4673 6.71 48.5003 6.468 48.515C6.23333 48.537 6.02067 48.5553 5.83 48.57L5.522 47.679C5.72733 47.6863 5.94 47.6863 6.16 47.679C6.38733 47.6716 6.60367 47.646 6.809 47.602C7.13167 47.5433 7.43233 47.4443 7.711 47.305C7.997 47.1583 8.22433 46.9676 8.393 46.733C8.569 46.4983 8.657 46.216 8.657 45.886C8.657 45.5706 8.57267 45.3066 8.404 45.094C8.23533 44.8813 8.008 44.72 7.722 44.61C7.436 44.5 7.117 44.445 6.765 44.445C6.281 44.445 5.808 44.4963 5.346 44.599C4.884 44.7016 4.41467 44.8483 3.938 45.039C3.586 45.171 3.26333 45.336 2.97 45.534C2.67667 45.7246 2.442 45.9263 2.266 46.139C2.09733 46.3516 2.013 46.5533 2.013 46.744C2.013 46.8686 2.05333 46.9896 2.134 47.107C2.222 47.217 2.32833 47.316 2.453 47.404C2.57767 47.492 2.70967 47.5616 2.849 47.613C2.98833 47.657 3.10933 47.679 3.212 47.679C3.33667 47.679 3.432 47.635 3.498 47.547C3.57133 47.459 3.608 47.3233 3.608 47.14C3.608 46.9273 3.60433 46.634 3.597 46.26C3.58967 45.8786 3.58233 45.468 3.575 45.028C3.56767 44.5806 3.564 44.1553 3.564 43.752C3.564 43.4366 3.564 43.0993 3.564 42.74C3.57133 42.3806 3.575 42.0323 3.575 41.695C3.58233 41.3576 3.586 41.0606 3.586 40.804C3.59333 40.5473 3.597 40.364 3.597 40.254C3.597 40.1806 3.59333 40.0963 3.586 40.001C3.586 39.8983 3.58233 39.7993 3.575 39.704C3.56767 39.6086 3.55667 39.5316 3.542 39.473H4.521ZM7.931 40.694C8.195 40.8333 8.48833 41.002 8.811 41.2C9.13367 41.3906 9.44167 41.585 9.735 41.783C10.0357 41.981 10.274 42.1533 10.45 42.3L9.999 43.004C9.867 42.872 9.69833 42.7326 9.493 42.586C9.28767 42.432 9.06767 42.2816 8.833 42.135C8.59833 41.981 8.36733 41.838 8.14 41.706C7.91267 41.5666 7.711 41.4493 7.535 41.354L7.931 40.694ZM1.331 41.453C1.63167 41.4896 1.88833 41.5153 2.101 41.53C2.321 41.5373 2.53367 41.541 2.739 41.541C3.01033 41.541 3.31467 41.5263 3.652 41.497C3.98933 41.4676 4.33767 41.431 4.697 41.387C5.05633 41.3356 5.40467 41.277 5.742 41.211C6.08667 41.1376 6.39467 41.0606 6.666 40.98L6.688 41.838C6.402 41.904 6.083 41.97 5.731 42.036C5.379 42.0946 5.01967 42.146 4.653 42.19C4.29367 42.234 3.949 42.2706 3.619 42.3C3.289 42.3293 3.003 42.344 2.761 42.344C2.44567 42.344 2.178 42.3403 1.958 42.333C1.74533 42.3256 1.54367 42.311 1.353 42.289L1.331 41.453ZM13.651 40.188H21.186V40.903H13.651V40.188ZM13.772 41.761H20.141V42.454H13.772V41.761ZM12.507 43.334H19.14V44.049H12.507V43.334ZM13.794 39L14.652 39.187C14.388 40.0376 14.0397 40.8296 13.607 41.563C13.1743 42.289 12.694 42.8976 12.166 43.389C12.1147 43.3376 12.0413 43.279 11.946 43.213C11.858 43.1396 11.7663 43.07 11.671 43.004C11.5757 42.938 11.4913 42.8866 11.418 42.85C11.9533 42.41 12.4263 41.8526 12.837 41.178C13.2477 40.496 13.5667 39.77 13.794 39ZM16.742 44.247L17.534 44.511C17.1453 45.2076 16.676 45.853 16.126 46.447C15.576 47.0336 14.9783 47.5616 14.333 48.031C13.695 48.493 13.024 48.8926 12.32 49.23C12.2833 49.1713 12.2283 49.1016 12.155 49.021C12.0817 48.9403 12.0047 48.8596 11.924 48.779C11.8433 48.7056 11.77 48.6433 11.704 48.592C12.408 48.2913 13.0753 47.9246 13.706 47.492C14.344 47.0593 14.9233 46.568 15.444 46.018C15.9647 45.468 16.3973 44.8776 16.742 44.247ZM18.832 43.334H19.668C19.6753 44.0526 19.69 44.7163 19.712 45.325C19.7413 45.9263 19.789 46.4543 19.855 46.909C19.9283 47.3563 20.031 47.7083 20.163 47.965C20.295 48.2143 20.4637 48.339 20.669 48.339C20.779 48.339 20.8523 48.196 20.889 47.91C20.9257 47.6166 20.9477 47.2353 20.955 46.766C21.043 46.854 21.1383 46.9456 21.241 47.041C21.351 47.129 21.45 47.2023 21.538 47.261C21.516 47.7156 21.4757 48.0823 21.417 48.361C21.3583 48.6396 21.2667 48.8376 21.142 48.955C21.0173 49.0796 20.8413 49.1456 20.614 49.153C20.2253 49.153 19.9137 49.01 19.679 48.724C19.4443 48.438 19.2647 48.0383 19.14 47.525C19.0227 47.0043 18.942 46.392 18.898 45.688C18.8613 44.9766 18.8393 44.192 18.832 43.334ZM12.771 45.226L13.365 44.698C13.7903 44.9253 14.2267 45.182 14.674 45.468C15.1287 45.7466 15.5687 46.04 15.994 46.348C16.4267 46.656 16.8263 46.9603 17.193 47.261C17.5597 47.5616 17.864 47.8476 18.106 48.119L17.457 48.746C17.2223 48.4746 16.9253 48.185 16.566 47.877C16.214 47.569 15.8253 47.2573 15.4 46.942C14.9747 46.6266 14.5383 46.3223 14.091 46.029C13.6437 45.7356 13.2037 45.468 12.771 45.226ZM27.016 40.837C27.3167 40.881 27.665 40.9176 28.061 40.947C28.4643 40.969 28.8787 40.98 29.304 40.98C29.7367 40.9726 30.1473 40.958 30.536 40.936C30.932 40.9066 31.2657 40.87 31.537 40.826V41.717C31.2437 41.7463 30.899 41.772 30.503 41.794C30.1143 41.8086 29.7073 41.816 29.282 41.816C28.864 41.816 28.457 41.8086 28.061 41.794C27.665 41.772 27.3167 41.7463 27.016 41.717V40.837ZM27.445 45.314C27.3937 45.512 27.3533 45.6916 27.324 45.853C27.2947 46.0143 27.28 46.172 27.28 46.326C27.28 46.4506 27.3057 46.5753 27.357 46.7C27.4157 46.8173 27.511 46.9236 27.643 47.019C27.7823 47.107 27.973 47.1803 28.215 47.239C28.457 47.2903 28.765 47.316 29.139 47.316C29.6377 47.316 30.107 47.294 30.547 47.25C30.987 47.1986 31.427 47.1253 31.867 47.03L31.889 47.954C31.5443 48.0273 31.141 48.086 30.679 48.13C30.2243 48.1666 29.711 48.185 29.139 48.185C28.215 48.185 27.5367 48.0383 27.104 47.745C26.6787 47.4516 26.466 47.0483 26.466 46.535C26.466 46.3516 26.4807 46.1573 26.51 45.952C26.5467 45.7393 26.5943 45.501 26.653 45.237L27.445 45.314ZM24.915 39.99C24.9003 40.0486 24.8783 40.1256 24.849 40.221C24.827 40.309 24.8013 40.4006 24.772 40.496C24.75 40.584 24.7317 40.661 24.717 40.727C24.6803 40.9323 24.6363 41.1706 24.585 41.442C24.5337 41.706 24.4823 41.992 24.431 42.3C24.387 42.6006 24.343 42.9086 24.299 43.224C24.2623 43.532 24.2293 43.8326 24.2 44.126C24.178 44.4193 24.167 44.6906 24.167 44.94C24.167 45.2113 24.1743 45.468 24.189 45.71C24.211 45.952 24.2367 46.2086 24.266 46.48C24.332 46.3113 24.4017 46.1316 24.475 45.941C24.5483 45.7503 24.6217 45.5633 24.695 45.38C24.7757 45.1893 24.8453 45.0206 24.904 44.874L25.366 45.226C25.2707 45.49 25.168 45.7796 25.058 46.095C24.948 46.4103 24.849 46.7146 24.761 47.008C24.6803 47.294 24.6217 47.5213 24.585 47.69C24.5703 47.7706 24.5557 47.8586 24.541 47.954C24.5263 48.0493 24.5227 48.1263 24.53 48.185C24.5373 48.2436 24.541 48.306 24.541 48.372C24.5483 48.4453 24.5557 48.5113 24.563 48.57L23.771 48.625C23.661 48.2363 23.5657 47.7376 23.485 47.129C23.4043 46.513 23.364 45.8346 23.364 45.094C23.364 44.6906 23.3823 44.28 23.419 43.862C23.4557 43.4366 23.5033 43.026 23.562 42.63C23.6207 42.2266 23.6757 41.86 23.727 41.53C23.7857 41.1926 23.8297 40.9103 23.859 40.683C23.881 40.551 23.8993 40.419 23.914 40.287C23.9287 40.1476 23.936 40.0193 23.936 39.902L24.915 39.99ZM35.508 39.693H38.621V40.529H35.508V39.693ZM38.203 39.693H39.039C39.039 40.0156 39.0537 40.397 39.083 40.837C39.1123 41.277 39.1747 41.75 39.27 42.256C39.3653 42.7546 39.512 43.2753 39.71 43.818C39.908 44.3606 40.1757 44.9033 40.513 45.446C40.8503 45.9813 41.272 46.502 41.778 47.008C42.2913 47.514 42.911 47.9796 43.637 48.405C43.5783 48.4563 43.5013 48.5223 43.406 48.603C43.318 48.691 43.2337 48.779 43.153 48.867C43.0797 48.9623 43.0173 49.043 42.966 49.109C42.2327 48.6616 41.602 48.1703 41.074 47.635C40.5533 47.0923 40.117 46.5276 39.765 45.941C39.4203 45.3543 39.1417 44.7676 38.929 44.181C38.7237 43.587 38.566 43.015 38.456 42.465C38.3533 41.9076 38.2837 41.3906 38.247 40.914C38.2177 40.4373 38.203 40.0303 38.203 39.693ZM37.884 41.849L38.819 42.014C38.555 43.1286 38.2103 44.1333 37.785 45.028C37.367 45.9226 36.8573 46.711 36.256 47.393C35.662 48.0676 34.958 48.6433 34.144 49.12C34.1 49.0613 34.0303 48.9916 33.935 48.911C33.847 48.8303 33.7517 48.746 33.649 48.658C33.5537 48.5773 33.4693 48.5113 33.396 48.46C34.6207 47.8146 35.5923 46.942 36.311 45.842C37.0297 44.7346 37.554 43.4036 37.884 41.849ZM47.729 39.583C47.6703 39.7883 47.6117 40.0266 47.553 40.298C47.5017 40.562 47.4503 40.8406 47.399 41.134C47.355 41.42 47.3147 41.695 47.278 41.959C47.2487 42.223 47.2267 42.4503 47.212 42.641C47.3293 42.3623 47.4833 42.0763 47.674 41.783C47.8647 41.4896 48.092 41.222 48.356 40.98C48.62 40.7306 48.906 40.529 49.214 40.375C49.5293 40.221 49.8593 40.144 50.204 40.144C50.6953 40.144 51.128 40.298 51.502 40.606C51.8833 40.914 52.1803 41.3503 52.393 41.915C52.6057 42.4796 52.712 43.147 52.712 43.917C52.712 44.6796 52.5983 45.3433 52.371 45.908C52.1437 46.4653 51.8247 46.9383 51.414 47.327C51.0033 47.7156 50.512 48.031 49.94 48.273C49.3753 48.515 48.752 48.6946 48.07 48.812L47.553 48.02C48.147 47.932 48.7007 47.8 49.214 47.624C49.7347 47.4406 50.1893 47.195 50.578 46.887C50.9667 46.5716 51.2673 46.172 51.48 45.688C51.7 45.204 51.81 44.6173 51.81 43.928C51.81 43.3486 51.744 42.8353 51.612 42.388C51.48 41.9333 51.2857 41.5776 51.029 41.321C50.7723 41.0643 50.4497 40.936 50.061 40.936C49.7163 40.936 49.3863 41.046 49.071 41.266C48.7557 41.486 48.466 41.772 48.202 42.124C47.9453 42.4686 47.7363 42.8426 47.575 43.246C47.4137 43.642 47.3147 44.0196 47.278 44.379C47.2487 44.5916 47.234 44.8006 47.234 45.006C47.2413 45.2113 47.2633 45.4533 47.3 45.732L46.453 45.798C46.4237 45.5926 46.3943 45.3396 46.365 45.039C46.343 44.7383 46.332 44.4083 46.332 44.049C46.332 43.7923 46.343 43.5063 46.365 43.191C46.3943 42.8683 46.4237 42.5456 46.453 42.223C46.4897 41.893 46.5263 41.5776 46.563 41.277C46.607 40.9763 46.6437 40.716 46.673 40.496C46.695 40.3273 46.7133 40.166 46.728 40.012C46.7427 39.8506 46.7537 39.6966 46.761 39.55L47.729 39.583Z" fill="#617462"/>
</svg>
