<svg width="58" height="63" viewBox="0 0 58 63" fill="none" xmlns="http://www.w3.org/2000/svg">
<path d="M29.01 17.6903C33.4007 17.6903 36.9602 14.1539 36.9602 9.79151C36.9602 5.42912 33.4007 1.8927 29.01 1.8927C24.6194 1.8927 21.0601 5.42912 21.0601 9.79151C21.0601 14.1539 24.6194 17.6903 29.01 17.6903Z" fill="#899284"/>
<path d="M37.78 39.8367H20.2202C19.8202 39.8367 19.4901 39.5386 19.4401 39.1412L18.4802 30.3681C18.3802 29.4341 18.3499 28.4803 18.4999 27.5463C19.3199 22.5289 23.7099 18.6937 28.9999 18.6937C34.2899 18.6937 38.6699 22.5289 39.4999 27.5463C39.6499 28.4803 39.62 29.4242 39.52 30.3681L38.56 39.1412C38.52 39.5386 38.18 39.8367 37.78 39.8367Z" fill="#899284"/>
<path d="M10.219 52.8628C10.1677 52.9215 10.1163 52.9801 10.065 53.0388C10.0137 53.0901 9.97333 53.1451 9.944 53.2038C9.73867 53.5411 9.48933 53.9078 9.196 54.3038C8.91 54.6998 8.58367 55.1068 8.217 55.5248C7.85033 55.9428 7.45067 56.3535 7.018 56.7568C6.59267 57.1601 6.13433 57.5378 5.643 57.8898L4.961 57.2848C5.40833 56.9768 5.82633 56.6431 6.215 56.2838C6.60367 55.9245 6.95933 55.5615 7.282 55.1948C7.612 54.8208 7.898 54.4651 8.14 54.1278C8.38933 53.7905 8.58367 53.4898 8.723 53.2258C8.58367 53.2258 8.37467 53.2258 8.096 53.2258C7.81733 53.2258 7.49467 53.2258 7.128 53.2258C6.76133 53.2258 6.37267 53.2258 5.962 53.2258C5.55867 53.2258 5.15533 53.2258 4.752 53.2258C4.356 53.2258 3.98567 53.2258 3.641 53.2258C3.29633 53.2258 2.99933 53.2258 2.75 53.2258C2.508 53.2258 2.343 53.2258 2.255 53.2258C2.11567 53.2258 1.97267 53.2295 1.826 53.2368C1.67933 53.2441 1.54367 53.2515 1.419 53.2588C1.30167 53.2661 1.20633 53.2771 1.133 53.2918V52.3018C1.23567 52.3165 1.34933 52.3311 1.474 52.3458C1.59867 52.3605 1.727 52.3715 1.859 52.3788C1.99833 52.3861 2.13033 52.3898 2.255 52.3898C2.33567 52.3898 2.49333 52.3898 2.728 52.3898C2.97 52.3898 3.26333 52.3898 3.608 52.3898C3.95267 52.3898 4.323 52.3898 4.719 52.3898C5.12233 52.3898 5.52933 52.3898 5.94 52.3898C6.358 52.3898 6.754 52.3898 7.128 52.3898C7.50933 52.3898 7.84667 52.3898 8.14 52.3898C8.43333 52.3898 8.657 52.3898 8.811 52.3898C9.12633 52.3898 9.36467 52.3605 9.526 52.3018L10.219 52.8628ZM5.038 58.0878C4.86933 57.9191 4.67133 57.7321 4.444 57.5268C4.224 57.3215 3.993 57.1161 3.751 56.9108C3.509 56.6981 3.28167 56.5075 3.069 56.3388C2.85633 56.1628 2.673 56.0235 2.519 55.9208L3.234 55.3378C3.35867 55.4331 3.52367 55.5651 3.729 55.7338C3.93433 55.8951 4.158 56.0785 4.4 56.2838C4.64933 56.4891 4.895 56.6981 5.137 56.9108C5.379 57.1235 5.599 57.3288 5.797 57.5268C6.03167 57.7468 6.27367 57.9888 6.523 58.2528C6.77967 58.5168 7.02167 58.7735 7.249 59.0228C7.47633 59.2721 7.667 59.4958 7.821 59.6938L7.018 60.3318C6.886 60.1411 6.70633 59.9175 6.479 59.6608C6.259 59.3968 6.02067 59.1291 5.764 58.8578C5.50733 58.5791 5.26533 58.3225 5.038 58.0878ZM11.946 55.8658C12.8993 55.6091 13.7867 55.2975 14.608 54.9308C15.4293 54.5641 16.1443 54.1901 16.753 53.8088C17.1343 53.5668 17.5047 53.3065 17.864 53.0278C18.2307 52.7418 18.5753 52.4448 18.898 52.1368C19.2207 51.8288 19.5067 51.5245 19.756 51.2238L20.493 51.9058C20.185 52.2358 19.8513 52.5585 19.492 52.8738C19.1327 53.1891 18.7513 53.4935 18.348 53.7868C17.952 54.0728 17.5377 54.3515 17.105 54.6228C16.7017 54.8648 16.247 55.1141 15.741 55.3708C15.235 55.6275 14.696 55.8695 14.124 56.0968C13.552 56.3241 12.9727 56.5331 12.386 56.7238L11.946 55.8658ZM16.577 54.2708L17.523 53.9848V59.0008C17.523 59.1401 17.523 59.2868 17.523 59.4408C17.5303 59.5948 17.5377 59.7378 17.545 59.8698C17.5597 60.0018 17.5743 60.1045 17.589 60.1778H16.511C16.5183 60.1045 16.5257 60.0018 16.533 59.8698C16.5477 59.7378 16.5587 59.5948 16.566 59.4408C16.5733 59.2868 16.577 59.1401 16.577 59.0008V54.2708ZM29.744 53.2368C29.744 53.4568 29.821 53.6475 29.975 53.8088C30.1363 53.9628 30.3307 54.0398 30.558 54.0398C30.778 54.0398 30.965 53.9628 31.119 53.8088C31.2803 53.6475 31.361 53.4568 31.361 53.2368C31.361 53.0095 31.2803 52.8188 31.119 52.6648C30.965 52.5108 30.778 52.4338 30.558 52.4338C30.3307 52.4338 30.1363 52.5108 29.975 52.6648C29.821 52.8188 29.744 53.0095 29.744 53.2368ZM29.216 53.2368C29.216 52.9875 29.2747 52.7638 29.392 52.5658C29.5167 52.3605 29.678 52.1991 29.876 52.0818C30.0813 51.9571 30.3087 51.8948 30.558 51.8948C30.8 51.8948 31.02 51.9571 31.218 52.0818C31.4233 52.1991 31.5847 52.3605 31.702 52.5658C31.8267 52.7638 31.889 52.9875 31.889 53.2368C31.889 53.4788 31.8267 53.7025 31.702 53.9078C31.5847 54.1058 31.4233 54.2671 31.218 54.3918C31.02 54.5091 30.8 54.5678 30.558 54.5678C30.3087 54.5678 30.0813 54.5091 29.876 54.3918C29.678 54.2671 29.5167 54.1058 29.392 53.9078C29.2747 53.7025 29.216 53.4788 29.216 53.2368ZM22.583 56.9438C22.7297 56.8191 22.858 56.7018 22.968 56.5918C23.0853 56.4818 23.2173 56.3535 23.364 56.2068C23.496 56.0748 23.6463 55.9061 23.815 55.7008C23.991 55.4955 24.178 55.2755 24.376 55.0408C24.5813 54.7988 24.783 54.5568 24.981 54.3148C25.179 54.0655 25.3623 53.8418 25.531 53.6438C25.8243 53.2991 26.114 53.1085 26.4 53.0718C26.686 53.0278 27.016 53.1818 27.39 53.5338C27.6173 53.7391 27.863 53.9811 28.127 54.2598C28.3983 54.5311 28.666 54.8061 28.93 55.0848C29.194 55.3635 29.4323 55.6165 29.645 55.8438C29.8943 56.1005 30.173 56.3975 30.481 56.7348C30.789 57.0648 31.1043 57.4058 31.427 57.7578C31.7497 58.1025 32.0503 58.4251 32.329 58.7258L31.57 59.5288C31.3133 59.2135 31.0383 58.8871 30.745 58.5498C30.459 58.2051 30.173 57.8715 29.887 57.5488C29.6083 57.2188 29.3517 56.9218 29.117 56.6578C28.9557 56.4745 28.776 56.2765 28.578 56.0638C28.38 55.8511 28.182 55.6385 27.984 55.4258C27.786 55.2131 27.599 55.0151 27.423 54.8318C27.2543 54.6485 27.1113 54.5018 26.994 54.3918C26.7813 54.1865 26.6053 54.0911 26.466 54.1058C26.334 54.1205 26.1727 54.2415 25.982 54.4688C25.85 54.6301 25.6997 54.8208 25.531 55.0408C25.3623 55.2535 25.1863 55.4771 25.003 55.7118C24.8197 55.9465 24.6437 56.1701 24.475 56.3828C24.3063 56.5955 24.1597 56.7788 24.035 56.9328C23.925 57.0721 23.8113 57.2188 23.694 57.3728C23.584 57.5268 23.4887 57.6625 23.408 57.7798L22.583 56.9438ZM34.122 55.0738C34.232 55.0811 34.3677 55.0921 34.529 55.1068C34.6903 55.1141 34.8663 55.1215 35.057 55.1288C35.255 55.1288 35.453 55.1288 35.651 55.1288C35.7683 55.1288 35.948 55.1288 36.19 55.1288C36.4393 55.1288 36.729 55.1288 37.059 55.1288C37.389 55.1288 37.7373 55.1288 38.104 55.1288C38.478 55.1288 38.8483 55.1288 39.215 55.1288C39.589 55.1288 39.941 55.1288 40.271 55.1288C40.6083 55.1288 40.898 55.1288 41.14 55.1288C41.382 55.1288 41.5617 55.1288 41.679 55.1288C41.9577 55.1288 42.196 55.1215 42.394 55.1068C42.592 55.0921 42.7497 55.0811 42.867 55.0738V56.1518C42.757 56.1445 42.592 56.1335 42.372 56.1188C42.1593 56.1041 41.932 56.0968 41.69 56.0968C41.5727 56.0968 41.3893 56.0968 41.14 56.0968C40.8907 56.0968 40.601 56.0968 40.271 56.0968C39.9483 56.0968 39.6 56.0968 39.226 56.0968C38.852 56.0968 38.478 56.0968 38.104 56.0968C37.7373 56.0968 37.389 56.0968 37.059 56.0968C36.7363 56.0968 36.4503 56.0968 36.201 56.0968C35.9517 56.0968 35.7683 56.0968 35.651 56.0968C35.3503 56.0968 35.0643 56.1041 34.793 56.1188C34.5217 56.1261 34.298 56.1371 34.122 56.1518V55.0738ZM51.6612 51.6308C51.7565 51.7555 51.8665 51.9205 51.9912 52.1258C52.1232 52.3311 52.2515 52.5401 52.3762 52.7528C52.5008 52.9655 52.6035 53.1598 52.6842 53.3358L52.0572 53.6218C51.9692 53.4311 51.8702 53.2368 51.7602 53.0388C51.6502 52.8335 51.5365 52.6318 51.4192 52.4338C51.3018 52.2358 51.1808 52.0525 51.0562 51.8838L51.6612 51.6308ZM53.1022 51.1028C53.2048 51.2275 53.3185 51.3888 53.4432 51.5868C53.5678 51.7848 53.6962 51.9901 53.8282 52.2028C53.9602 52.4155 54.0702 52.6098 54.1582 52.7858L53.5312 53.0718C53.4358 52.8738 53.3295 52.6758 53.2122 52.4778C53.0948 52.2798 52.9738 52.0855 52.8492 51.8948C52.7318 51.7041 52.6108 51.5281 52.4862 51.3668L53.1022 51.1028ZM46.9642 51.4658C47.1255 51.5538 47.3162 51.6711 47.5362 51.8178C47.7562 51.9571 47.9835 52.1038 48.2182 52.2578C48.4528 52.4045 48.6692 52.5475 48.8672 52.6868C49.0725 52.8188 49.2338 52.9288 49.3512 53.0168L48.8342 53.7758C48.7022 53.6731 48.5335 53.5521 48.3282 53.4128C48.1302 53.2735 47.9175 53.1305 47.6902 52.9838C47.4702 52.8298 47.2502 52.6868 47.0302 52.5548C46.8175 52.4155 46.6305 52.2981 46.4692 52.2028L46.9642 51.4658ZM45.3142 59.3308C45.7175 59.2575 46.1318 59.1621 46.5572 59.0448C46.9825 58.9275 47.4042 58.7845 47.8222 58.6158C48.2402 58.4471 48.6325 58.2601 48.9992 58.0548C49.6078 57.7028 50.1725 57.3141 50.6932 56.8888C51.2138 56.4561 51.6832 55.9978 52.1012 55.5138C52.5192 55.0298 52.8748 54.5311 53.1682 54.0178L53.6962 54.9308C53.2195 55.6641 52.6145 56.3755 51.8812 57.0648C51.1478 57.7468 50.3412 58.3445 49.4612 58.8578C49.0945 59.0705 48.6912 59.2685 48.2512 59.4518C47.8185 59.6278 47.3895 59.7818 46.9642 59.9138C46.5462 60.0531 46.1648 60.1558 45.8202 60.2218L45.3142 59.3308ZM45.3032 53.9408C45.4645 54.0288 45.6588 54.1388 45.8862 54.2708C46.1135 54.4028 46.3445 54.5421 46.5792 54.6888C46.8138 54.8355 47.0302 54.9748 47.2282 55.1068C47.4335 55.2315 47.5948 55.3378 47.7122 55.4258L47.2172 56.1958C47.0778 56.0931 46.9055 55.9758 46.7002 55.8438C46.5022 55.7118 46.2895 55.5725 46.0622 55.4258C45.8348 55.2791 45.6112 55.1435 45.3912 55.0188C45.1712 54.8868 44.9768 54.7768 44.8082 54.6888L45.3032 53.9408Z" fill="#617462"/>
</svg>
