<svg width="58" height="66" viewBox="0 0 58 66" fill="none" xmlns="http://www.w3.org/2000/svg">
<path d="M46.4949 10.876C46.3549 10.6872 46.135 10.578 45.905 10.578H18.155L17.0149 3.3647C16.8849 2.56985 16.195 1.98364 15.395 1.98364H7.01489C6.10489 1.98364 5.375 2.70895 5.375 3.61309C5.375 4.51723 6.10489 5.24253 7.01489 5.24253H13.9849L17.9849 30.5783H41.1851L46.605 11.5119C46.665 11.2933 46.6249 11.0549 46.4849 10.8661L46.4949 10.876Z" fill="#899284"/>
<path d="M21.3049 32.8138C18.5449 32.8138 16.3149 35.0295 16.3149 37.7717C16.3149 40.5139 18.5449 42.7296 21.3049 42.7296C24.0649 42.7296 26.2949 40.5139 26.2949 37.7717C26.2949 35.0295 24.0649 32.8138 21.3049 32.8138ZM21.3049 39.4608C20.3649 39.4608 19.595 38.7056 19.595 37.7618C19.595 36.8278 20.3549 36.0628 21.3049 36.0628C22.2449 36.0628 23.0149 36.8179 23.0149 37.7618C23.0149 38.6957 22.2449 39.4608 21.3049 39.4608Z" fill="#899284"/>
<path d="M37.4949 32.8138C34.7349 32.8138 32.5049 35.0295 32.5049 37.7717C32.5049 40.5139 34.7349 42.7296 37.4949 42.7296C40.2549 42.7296 42.4849 40.5139 42.4849 37.7717C42.4849 35.0295 40.2549 32.8138 37.4949 32.8138ZM37.4949 39.4608C36.5549 39.4608 35.7849 38.7056 35.7849 37.7618C35.7849 36.8278 36.5549 36.0628 37.4949 36.0628C38.4349 36.0628 39.2048 36.8179 39.2048 37.7618C39.2048 38.6957 38.4449 39.4608 37.4949 39.4608Z" fill="#899284"/>
<path d="M43.2949 19.5398C48.4477 19.5398 52.625 15.3895 52.625 10.2699C52.625 5.15028 48.4477 1 43.2949 1C38.1421 1 33.9648 5.15028 33.9648 10.2699C33.9648 15.3895 38.1421 19.5398 43.2949 19.5398Z" fill="#EC4800"/>
<path d="M44.7949 10.6972C44.3849 11.2139 43.805 11.5219 43.075 11.5219C41.795 11.5219 41.0049 10.5283 41.0049 9.26651C41.0049 7.90533 41.905 6.65344 43.375 6.65344C44.845 6.65344 45.665 7.86559 45.665 9.76329C45.665 12.2373 44.4049 13.9561 42.4849 14.2542C42.1349 14.3138 41.815 14.3337 41.595 14.3237V13.6382C41.805 13.6581 42.045 13.6282 42.365 13.5885C43.625 13.4097 44.575 12.3962 44.825 10.6972H44.7949ZM41.845 9.21683C41.845 10.2203 42.4149 10.8959 43.2749 10.8959C44.0849 10.8959 44.825 10.2799 44.825 9.6838C44.825 8.25307 44.2949 7.28932 43.3049 7.28932C42.4349 7.28932 41.845 8.10404 41.845 9.21683Z" fill="white"/>
<path d="M18.088 54.0726C18.0733 54.1973 18.0587 54.3476 18.044 54.5236C18.0367 54.6923 18.0293 54.8426 18.022 54.9746C17.9927 56.0966 17.8937 57.0793 17.725 57.9226C17.5563 58.7586 17.3217 59.4919 17.021 60.1226C16.7277 60.7459 16.3683 61.2923 15.943 61.7616C15.525 62.2309 15.0447 62.6526 14.502 63.0266L13.699 62.3776C13.875 62.2823 14.0657 62.1613 14.271 62.0146C14.4763 61.8679 14.6633 61.7176 14.832 61.5636C15.1767 61.2556 15.4847 60.8999 15.756 60.4966C16.0347 60.0933 16.273 59.6313 16.471 59.1106C16.6763 58.5899 16.834 57.9923 16.944 57.3176C17.0613 56.6356 17.1237 55.8583 17.131 54.9856C17.131 54.9049 17.1273 54.8096 17.12 54.6996C17.1127 54.5896 17.1017 54.4796 17.087 54.3696C17.0797 54.2596 17.0687 54.1606 17.054 54.0726H18.088ZM21.905 56.3606C21.8903 56.4559 21.8757 56.5513 21.861 56.6466C21.8537 56.7419 21.85 56.8263 21.85 56.8996C21.8427 57.1049 21.828 57.3873 21.806 57.7466C21.7913 58.1059 21.7657 58.4983 21.729 58.9236C21.6997 59.3416 21.6593 59.7633 21.608 60.1886C21.564 60.6139 21.5053 61.0063 21.432 61.3656C21.3587 61.7176 21.2743 61.9999 21.179 62.2126C21.069 62.4399 20.9187 62.6086 20.728 62.7186C20.5447 62.8286 20.3027 62.8836 20.002 62.8836C19.7233 62.8836 19.43 62.8726 19.122 62.8506C18.814 62.8359 18.517 62.8213 18.231 62.8066L18.121 61.8936C18.4217 61.9303 18.7113 61.9596 18.99 61.9816C19.276 62.0036 19.5327 62.0146 19.76 62.0146C19.9213 62.0146 20.0533 61.9889 20.156 61.9376C20.2587 61.8863 20.3393 61.7909 20.398 61.6516C20.486 61.4829 20.5593 61.2519 20.618 60.9586C20.6767 60.6653 20.728 60.3353 20.772 59.9686C20.816 59.6019 20.8527 59.2316 20.882 58.8576C20.9113 58.4836 20.9297 58.1279 20.937 57.7906C20.9517 57.4533 20.959 57.1673 20.959 56.9326H15.162C14.942 56.9326 14.7257 56.9363 14.513 56.9436C14.3003 56.9436 14.095 56.9546 13.897 56.9766V56.0416C14.0877 56.0636 14.293 56.0819 14.513 56.0966C14.733 56.1039 14.9457 56.1076 15.151 56.1076H20.585C20.7317 56.1076 20.86 56.1039 20.97 56.0966C21.0873 56.0819 21.1937 56.0673 21.289 56.0526L21.905 56.3606ZM24.622 57.9666C24.732 57.9739 24.8677 57.9849 25.029 57.9996C25.1903 58.0069 25.3663 58.0143 25.557 58.0216C25.755 58.0216 25.953 58.0216 26.151 58.0216C26.2683 58.0216 26.448 58.0216 26.69 58.0216C26.9393 58.0216 27.229 58.0216 27.559 58.0216C27.889 58.0216 28.2373 58.0216 28.604 58.0216C28.978 58.0216 29.3483 58.0216 29.715 58.0216C30.089 58.0216 30.441 58.0216 30.771 58.0216C31.1083 58.0216 31.398 58.0216 31.64 58.0216C31.882 58.0216 32.0617 58.0216 32.179 58.0216C32.4577 58.0216 32.696 58.0143 32.894 57.9996C33.092 57.9849 33.2497 57.9739 33.367 57.9666V59.0446C33.257 59.0373 33.092 59.0263 32.872 59.0116C32.6593 58.9969 32.432 58.9896 32.19 58.9896C32.0727 58.9896 31.8893 58.9896 31.64 58.9896C31.3907 58.9896 31.101 58.9896 30.771 58.9896C30.4483 58.9896 30.1 58.9896 29.726 58.9896C29.352 58.9896 28.978 58.9896 28.604 58.9896C28.2373 58.9896 27.889 58.9896 27.559 58.9896C27.2363 58.9896 26.9503 58.9896 26.701 58.9896C26.4517 58.9896 26.2683 58.9896 26.151 58.9896C25.8503 58.9896 25.5643 58.9969 25.293 59.0116C25.0217 59.0189 24.798 59.0299 24.622 59.0446V57.9666ZM38.207 61.7616C38.207 61.6589 38.207 61.4536 38.207 61.1456C38.207 60.8303 38.207 60.4599 38.207 60.0346C38.207 59.6019 38.207 59.1509 38.207 58.6816C38.207 58.2049 38.207 57.7429 38.207 57.2956C38.207 56.8483 38.207 56.4523 38.207 56.1076C38.207 55.7629 38.207 55.5136 38.207 55.3596C38.207 55.2056 38.1997 55.0186 38.185 54.7986C38.1703 54.5786 38.1483 54.3843 38.119 54.2156H39.197C39.1823 54.3769 39.164 54.5676 39.142 54.7876C39.1273 55.0076 39.12 55.1983 39.12 55.3596C39.12 55.6456 39.12 55.9903 39.12 56.3936C39.12 56.7896 39.12 57.2149 39.12 57.6696C39.12 58.1169 39.12 58.5643 39.12 59.0116C39.1273 59.4516 39.131 59.8659 39.131 60.2546C39.131 60.6359 39.131 60.9623 39.131 61.2336C39.131 61.4976 39.131 61.6736 39.131 61.7616C39.131 61.8789 39.131 62.0146 39.131 62.1686C39.1383 62.3226 39.1493 62.4803 39.164 62.6416C39.1787 62.7956 39.1897 62.9349 39.197 63.0596H38.13C38.1593 62.8836 38.1777 62.6746 38.185 62.4326C38.1997 62.1906 38.207 61.9669 38.207 61.7616ZM38.933 57.0976C39.2923 57.2076 39.6883 57.3396 40.121 57.4936C40.561 57.6403 41.0083 57.7979 41.463 57.9666C41.9177 58.1353 42.3467 58.3076 42.75 58.4836C43.1607 58.6523 43.5163 58.8136 43.817 58.9676L43.443 59.9026C43.1277 59.7266 42.772 59.5543 42.376 59.3856C41.98 59.2096 41.573 59.0373 41.155 58.8686C40.7443 58.6999 40.3447 58.5496 39.956 58.4176C39.5747 58.2783 39.2337 58.1646 38.933 58.0766V57.0976Z" fill="#617462"/>
</svg>
