<svg width="417" height="124" viewBox="0 0 417 124" fill="none" xmlns="http://www.w3.org/2000/svg">
<g clip-path="url(#clip0_64_2028)">
<path d="M51.54 48.8101H31.9102C37.1702 53.1701 45.4301 56.7897 52.9001 58.4297C52.0501 59.2197 50.9201 60.75 50.3501 61.77C42.4901 59.56 33.77 55.0397 28.23 49.6597V62.6196H24.4402V49.9497C18.9002 55.0997 10.18 59.3999 2.48999 61.6099C1.97999 60.6499 0.85 59.1799 0 58.3799C7.36 56.6799 15.5 53.0598 20.76 48.8198H1.46997V45.54H24.4402V40.96H6.90015V37.8999H24.4402V33.3696H4.01001V30.1997H16.9102C16.3402 28.4497 15.16 26.0097 13.97 24.1997L16.1802 23.75H1.69995V20.4097H11.21C10.36 18.0297 8.31996 14.4701 6.45996 11.8101L9.68018 10.6797C11.7202 13.2797 13.87 16.8998 14.72 19.2798L11.72 20.4097H19.1301V10L23.9402 10.2798C23.8802 10.8498 23.43 11.1297 22.7 11.2397V20.4097H30.0601V10L34.98 10.2798C34.92 10.8498 34.4102 11.1297 33.6802 11.2397V20.4097H40.8101C40.0701 20.1297 39.23 19.7896 38.72 19.6196C40.36 17.1896 42.3401 13.4 43.3601 10.79L47.8301 12.3198C47.7201 12.6598 47.2601 12.8301 46.6401 12.8301C45.4501 15.0401 43.6401 18.1497 42.0601 20.4097H51.3401V23.75H38.55L40.1902 24.2598C40.0202 24.6598 39.57 24.83 39 24.77C38.21 26.3 36.9601 28.4997 35.8301 30.1997H49.24V33.3696H28.25V37.8999H46.47V40.96H28.25V45.54H51.5601V48.8198L51.54 48.8101ZM32.1301 29.8599C33.1501 28.2199 34.45 25.73 35.3 23.75H17.7C19 25.62 20.2501 28.1098 20.8101 29.7998L19.0601 30.1997H33.03L32.1201 29.8599H32.1301Z" fill="#617462"/>
<path d="M75.1301 33.8696C76.8301 35.4496 81.5801 40.7199 82.6501 42.1299L80.3301 45.0698C79.4201 43.3698 77.0501 40.15 75.1201 37.71V62.6099H71.4402V37.04C69.4002 42.92 66.6901 48.7498 64.0801 52.3198C63.6801 51.2998 62.72 49.7697 62.04 48.9297C65.32 44.6897 68.9401 36.9297 70.8701 30.1997H62.6702V26.6299H71.4402V16.8999C68.8402 17.6899 66.1801 18.3699 63.6301 18.9399C63.4601 18.1499 62.8901 16.8999 62.3901 16.1699C68.6101 14.6399 75.69 12.38 79.53 10L82.8701 12.8301C82.4701 13.0601 82.36 13.0601 81.74 13.0601C79.99 14.0201 77.6701 14.9298 75.1201 15.7798V26.6396H82.53V30.21H75.1201V33.8896L75.1301 33.8696ZM99.74 58.1499H115.02V61.3696H80.3901V58.1499H96.0601V53.23H83.3901V50.1196H96.0601V46.0996H84.5701V27.8799H96.0601V23.9199H82.0801V20.75H96.0601V15.8799C92.0401 16.3899 87.9101 16.7898 84.0601 17.0698C83.9501 16.2798 83.4901 14.9797 83.1001 14.2397C92.4401 13.4497 103.58 11.9798 109.35 10.0498L112.52 12.8799C112.35 13.0499 112.18 13.1099 111.9 13.1099C111.79 13.1099 111.62 13.1098 111.45 13.0498C108.39 13.9598 104.26 14.7496 99.74 15.3696V20.75H114.45V23.9199H99.74V27.8799H111.73V46.0996H99.74V50.1196H112.81V53.23H99.74V58.1499ZM88.02 30.8198V35.52H96.0601V30.8198H88.02ZM88.02 43.1499H96.0601V38.3398H88.02V43.1499ZM108.11 30.8198H99.74V35.52H108.11V30.8198ZM108.11 43.1499V38.3398H99.74V43.1499H108.11Z" fill="#617462"/>
<path d="M147.65 38.0601L148.44 38L150.42 38.23C150.42 38.63 150.36 39.0197 150.36 39.4697C149.68 54.0697 149.06 59.2197 147.59 60.9697C146.35 62.3797 145.38 62.5498 141.31 62.5498C139.95 62.5498 138.42 62.5499 136.84 62.4399C136.73 61.3599 136.33 59.9498 135.82 59.0498C138.71 59.3298 141.53 59.3301 142.5 59.3301C143.52 59.3301 144.03 59.22 144.48 58.71C145.56 57.58 146.18 53.1698 146.69 41.5098H136.79C135.49 49.2598 132.94 57.35 127.17 62.5C126.6 61.71 125.42 60.6298 124.51 60.0098C131.98 53.5598 133.62 40.89 134.24 31.27H127.79V12.6597H150.31V31.27H138.03C137.8 33.36 137.63 35.6801 137.29 38.0601H147.64H147.65ZM131.3 16.1597V27.8198H146.63V16.1597H131.3ZM156.42 16.96L161.23 17.2397C161.17 17.6397 160.89 17.9198 160.15 18.0298V48.5801H156.42V16.9497V16.96ZM170.63 11.1299L175.5 11.4097C175.44 11.8597 175.16 12.0897 174.42 12.1997V57.4097C174.42 60.1297 173.63 61.3099 171.93 61.9399C170.12 62.6199 167.01 62.6797 161.75 62.6797C161.52 61.6597 160.9 59.9101 160.28 58.8301C162.37 58.8901 164.3 58.8896 165.88 58.8896C170.41 58.8896 170.63 58.8899 170.63 57.4199V11.1396V11.1299Z" fill="#617462"/>
<path d="M208.75 12.77C208.64 13.45 207.96 13.73 206.88 13.79C206.26 16.96 205.24 22.4498 204.56 25.8398C207.11 25.5598 209.43 25.3301 210.84 25.3301C219.44 25.2201 222.38 30.9299 222.38 39.4199C222.38 43.6599 221.59 48.6998 220.46 52.0898C218.71 57.8598 215.08 60.6299 210.39 60.6299C208.07 60.6299 205.01 59.67 200.15 55.71C200.77 54.69 201.23 53.4498 201.68 52.2598C206.21 55.7698 208.58 56.5601 210.34 56.5601C213.56 56.5601 215.49 54.5199 216.62 50.8999C217.81 47.3899 218.43 42.1898 218.43 39.2998C218.37 32.8498 216.28 29.0001 210.62 29.0601C208.92 29.0601 206.6 29.2899 203.72 29.6299C200.89 41.1699 197.55 51.0697 192.12 60.1797L188.39 58.3696C193.88 49.5996 196.99 40.8301 199.65 30.0801C196.76 30.4201 192.63 30.9299 189.58 31.4399L189.24 27.48C192.01 27.14 196.65 26.6297 200.44 26.1797C201.29 22.0497 202.19 16.96 202.87 11.98L208.75 12.77ZM234.95 39.98C233.14 31.72 227.76 24.6999 222.22 20.6299L225.27 18.25C231.27 22.49 237.21 30.2996 239.02 38.3896L234.95 39.9697V39.98Z" fill="#617462"/>
<path d="M260.52 22.2197C260.29 22.7897 259.84 23.0697 259.05 23.1797C258.6 31.5497 257.52 38.6796 256.73 39.8696H256.79C262.33 35.7396 270.99 32.9097 277.61 32.9097C286.32 32.9097 291.75 37.3798 291.64 45.2998C291.47 55.7098 282.87 60.3498 260.97 61.2598C260.69 60.1798 260.18 58.5998 259.56 57.5298C279.31 56.6798 287.23 53.4596 287.4 45.3696C287.46 39.9396 283.67 36.6597 277.05 36.6597C266.58 36.6597 257.13 42.94 255.55 45.71L251.7 43.8398C252.83 42.7698 254.81 32.6398 254.93 21.5498L260.53 22.23L260.52 22.2197ZM261.48 11.2397C269.17 12.1497 277.89 13.8997 283.43 16.2197L282.02 20.1196C276.19 17.6296 267.76 15.9897 260.29 14.9697L261.48 11.2397Z" fill="#617462"/>
<path d="M321.9 38.8496L315.28 41V58.0298C315.28 62.2198 313.41 62.7299 306.28 62.6099C306.17 61.6999 305.66 60.1198 305.15 59.0498C306.68 59.1098 308.09 59.1597 309.11 59.1597C311.43 59.1597 311.71 59.1598 311.71 58.0298V42.1299L305.83 43.9399C305.77 44.3899 305.43 44.6796 305.04 44.8496L303.68 40.4897C305.89 39.9197 308.66 39.1898 311.71 38.3398V25.4399H304.24V21.8799H311.71V10.0498L316.41 10.3301C316.35 10.7801 316.07 11.0096 315.28 11.1196V21.8696H322.13V25.4297H315.28V37.3696L321.45 35.6196L321.9 38.8398V38.8496ZM355.9 43.0898H342.89C346.34 48.6298 352 54.0698 357.26 56.7798C356.35 57.4598 355.17 58.7597 354.6 59.7197C349.45 56.6097 343.91 50.8899 340.23 44.8999V62.6099H336.5V45.1299C332.88 51.4099 327.28 56.9598 321.56 60.0098C320.99 59.0998 319.86 57.7498 319.01 57.0698C324.78 54.4098 330.44 49.0398 333.89 43.0898H322.06V39.5801H336.49V33.2397L341.36 33.52C341.3 33.92 340.96 34.2001 340.23 34.3101V39.5698H355.9V43.0801V43.0898ZM336.78 18.3101C336.67 18.7101 336.38 18.9898 335.7 19.0498C334.91 27.0298 332.81 32.5198 323.65 35.5698C323.25 34.7198 322.35 33.4198 321.61 32.7998C329.81 30.3098 331.68 25.6699 332.25 17.9199L336.78 18.3198V18.3101ZM326.77 16.0498V22.8398H323.43V12.71H355.11V23.1797H351.66V16.0498H326.77ZM341.42 17.5801L345.95 17.9199C345.89 18.3199 345.61 18.5397 344.88 18.6597V28.8398C344.88 30.0898 345.16 30.25 346.69 30.25H351.73C352.98 30.25 353.26 29.6799 353.37 25.6699C354.11 26.2399 355.46 26.7497 356.43 26.9697C356.09 32.1197 355.13 33.3599 352.19 33.3599H346.25C342.29 33.3599 341.44 32.3996 341.44 28.8896V17.5698L341.42 17.5801Z" fill="#617462"/>
<path d="M394.15 19.3896C394.09 18.1496 393.92 11.9801 393.81 10.5601L399.64 10.79C399.58 11.24 399.19 11.81 398.17 11.98C398.17 12.66 398.17 13.3398 398.28 19.2798C405.24 19.0498 412.54 18.8801 416.78 18.8301V22.73C411.97 22.62 405.12 22.73 398.39 22.96C398.5 27.37 398.62 31.4501 398.79 34.5601C399.36 36.4301 399.47 38.12 399.47 40.5C399.47 42.31 399.3 44.3997 398.9 45.9897C397.43 52.6097 392.56 58.4399 382.61 62.3999C381.87 61.4399 380.63 60.0197 379.72 59.1797C388.38 56.0697 393.02 51.37 394.43 46H394.37C393.18 47.7 391.09 49 388.54 49C383.5 49 379.04 44.8696 379.04 39.0996C378.98 33.0996 383.85 28.52 389.22 28.52C391.26 28.52 393.35 29.26 394.48 30.27C394.48 29.31 394.37 25.5201 394.25 23.0801C388.37 23.1901 370.49 23.8197 368.17 23.9297L368.06 20.1997L380.96 19.8599L394.14 19.4097L394.15 19.3896ZM395.22 39.25C395.22 37.04 395.22 31.8896 389.45 31.8896C385.55 31.9496 382.77 34.9401 382.72 39.0801C382.72 43.0401 385.72 45.6396 389 45.6396C393.02 45.6396 395.22 42.53 395.22 39.25Z" fill="#617462"/>
<path d="M54.9099 107.854C60.6316 107.854 65.27 103.216 65.27 97.4946C65.27 91.773 60.6316 87.1348 54.9099 87.1348C49.1882 87.1348 44.55 91.773 44.55 97.4946C44.55 103.216 49.1882 107.854 54.9099 107.854Z" stroke="#617462" stroke-width="2.05" stroke-linecap="round" stroke-linejoin="round"/>
<path d="M48.53 95.9048C48.81 94.7848 49.38 93.7247 50.26 92.8447" stroke="#617462" stroke-width="1.74" stroke-linecap="round" stroke-linejoin="round"/>
<path d="M62.24 104.815L69.9099 112.495" stroke="#617462" stroke-width="2.05" stroke-linecap="round" stroke-linejoin="round"/>
<path d="M93.6799 85.6895C98.8499 85.6895 101.32 87.6494 101.32 91.3394C101.32 93.6494 99.8099 95.7693 97.6599 96.2793C100.45 96.7893 102.03 98.6595 102.03 101.479C102.03 104.689 100.07 107.839 94.3901 107.839H86.9099V85.6895H93.6799ZM89.6699 95.0996H94.1599C97.2699 95.0996 98.5601 93.5294 98.5601 91.3394C98.5601 89.3794 97.5599 88.1597 93.6799 88.1597H89.6699V95.0894V95.0996ZM89.6699 105.339H94.3901C97.7301 105.339 99.27 103.889 99.27 101.489C99.27 98.8193 97.5401 97.6094 93.8801 97.6094H89.6699V105.35V105.339Z" fill="#617462"/>
<path d="M115.7 95.2593C115.03 94.3293 114.19 93.9097 113 93.9097C111.04 93.9097 109.56 95.3896 109.56 97.7896V107.839H106.99V91.7896H109.56V93.3594C110.23 92.2394 111.33 91.5293 113.28 91.5293C115.46 91.5293 116.84 92.2695 117.87 93.7095L115.69 95.2495L115.7 95.2593Z" fill="#617462"/>
<path d="M133.81 100.839C133.81 105.009 131.76 108.1 127.13 108.1C122.86 108.1 120.45 105.269 120.45 100.839V98.7192C120.45 94.1592 122.92 91.5293 127.13 91.5293C131.34 91.5293 133.81 94.1292 133.81 98.7192V100.839ZM131.24 100.839V98.7192C131.24 95.6692 129.76 93.8394 127.13 93.8394C124.5 93.8394 123.02 95.6992 123.02 98.7192V100.839C123.02 103.599 124.18 105.779 127.13 105.779C129.86 105.779 131.24 103.569 131.24 100.839Z" fill="#617462"/>
<path d="M143.92 107.839H141.67L137.01 91.7896H139.74L142.95 103.06L146.99 91.7896H149.14L153.41 103.16L156.62 91.7896H159.35L154.69 107.839H152.44L148.17 95.8296L143.9 107.839H143.92Z" fill="#617462"/>
<path d="M172.39 95.5396C171.52 94.4196 170.62 93.8994 168.41 93.8994C166.52 93.8994 165.3 94.6393 165.3 96.0493C165.3 97.8793 166.91 98.4294 169.02 98.5894C172.04 98.8094 174.8 99.6796 174.8 103.37C174.8 106.16 172.91 108.089 168.76 108.089C165.49 108.089 163.78 107.089 162.56 105.419L164.45 104.069C165.32 105.229 166.47 105.709 168.78 105.709C170.93 105.709 172.21 104.88 172.21 103.43C172.21 101.7 171.18 101.089 168.07 100.859C165.37 100.669 162.71 99.5796 162.71 96.0796C162.71 93.4096 164.64 91.5195 168.46 91.5195C171.06 91.5195 173.05 92.1897 174.3 94.1797L172.37 95.5293L172.39 95.5396Z" fill="#617462"/>
<path d="M191.62 105.399C190.5 107.359 188.79 108.1 186 108.1C181.7 108.1 179.13 105.309 179.13 100.839V98.7192C179.13 94.1592 181.28 91.5293 185.49 91.5293C189.7 91.5293 191.85 94.1292 191.85 98.7192V100.39H181.7V100.839C181.7 103.599 183.02 105.779 185.81 105.779C187.9 105.779 188.96 105.169 189.63 103.979L191.62 105.39V105.399ZM181.7 98.1494H189.24C189.11 95.4494 187.92 93.8496 185.48 93.8496C183.04 93.8496 181.85 95.4894 181.69 98.1494H181.7Z" fill="#617462"/>
<path d="M209.41 93.3896C210.28 92.1996 211.66 91.5293 213.78 91.5293C217.76 91.5293 220.2 94.1292 220.2 98.7192V100.839C220.2 105.009 218.15 108.1 213.78 108.1C211.63 108.1 210.28 107.55 209.41 106.43V107.839H206.84V85.6895H209.41V93.3994V93.3896ZM217.63 100.839V98.7192C217.63 95.6692 216.15 93.8394 213.52 93.8394C210.89 93.8394 209.41 95.6095 209.41 98.4995V100.839C209.41 103.599 210.57 105.779 213.52 105.779C216.25 105.779 217.63 103.569 217.63 100.839Z" fill="#617462"/>
<path d="M229.54 108L223.25 91.7896H226.01L230.79 104.25L235 91.7896H237.73L232.08 108.359C230.76 112.209 229.9 113.949 225.4 113.949V111.449C227.52 111.449 228.51 111.099 229.48 108.239L229.54 108.02V108Z" fill="#617462"/>
<path d="M255.09 107.839H252.33V85.6895H255.09V107.839Z" fill="#617462"/>
<path d="M261.83 91.7896H264.4V93.3594C265.2 92.1394 266.33 91.5293 268.7 91.5293C272.14 91.5293 274.54 93.3293 274.54 97.8193V107.839H271.97V97.8594C271.97 94.6194 270.2 93.9097 268.31 93.9097C265.9 93.9097 264.39 95.6096 264.39 97.8296V107.85H261.82V91.7993L261.83 91.7896Z" fill="#617462"/>
<path d="M290.3 85.6895H292.87V107.839H290.3V106.43C289.43 107.55 288.05 108.1 285.93 108.1C281.56 108.1 279.51 105.019 279.51 100.839V98.7192C279.51 94.1292 281.95 91.5293 285.93 91.5293C288.05 91.5293 289.43 92.1996 290.3 93.3896V85.6797V85.6895ZM290.3 101.069V98.7295C290.3 95.7095 288.82 93.8496 286.19 93.8496C283.56 93.8496 282.08 95.6795 282.08 98.7295V100.85C282.08 103.58 283.46 105.79 286.19 105.79C288.92 105.79 290.3 103.739 290.3 101.069Z" fill="#617462"/>
<path d="M311.36 107.839H308.79V106.27C307.99 107.49 306.86 108.1 304.49 108.1C301.05 108.1 298.65 106.3 298.65 101.81V91.7896H301.22V101.779C301.22 105.019 302.99 105.729 304.88 105.729C307.29 105.729 308.8 104.03 308.8 101.81V91.7896H311.37V107.839H311.36Z" fill="#617462"/>
<path d="M326.16 95.5396C325.29 94.4196 324.39 93.8994 322.18 93.8994C320.29 93.8994 319.07 94.6393 319.07 96.0493C319.07 97.8793 320.68 98.4294 322.79 98.5894C325.81 98.8094 328.57 99.6796 328.57 103.37C328.57 106.16 326.68 108.089 322.53 108.089C319.26 108.089 317.55 107.089 316.33 105.419L318.22 104.069C319.09 105.229 320.24 105.709 322.55 105.709C324.7 105.709 325.98 104.88 325.98 103.43C325.98 101.7 324.95 101.089 321.84 100.859C319.14 100.669 316.48 99.5796 316.48 96.0796C316.48 93.4096 318.41 91.5195 322.23 91.5195C324.83 91.5195 326.82 92.1897 328.07 94.1797L326.14 95.5293L326.16 95.5396Z" fill="#617462"/>
<path d="M332.29 91.7896H334.34V88.2593H336.91V91.7896H340.6V94.0996H336.91V102.25C336.91 104.46 337.17 105.399 339.32 105.399H340.6V107.839H339.22C335.43 107.839 334.34 106.229 334.34 102.899V94.0996H332.29V91.7896Z" fill="#617462"/>
<path d="M354.12 95.2593C353.45 94.3293 352.61 93.9097 351.42 93.9097C349.46 93.9097 347.98 95.3896 347.98 97.7896V107.839H345.41V91.7896H347.98V93.3594C348.65 92.2394 349.75 91.5293 351.7 91.5293C353.88 91.5293 355.26 92.2695 356.29 93.7095L354.11 95.2495L354.12 95.2593Z" fill="#617462"/>
<path d="M364.04 108L357.75 91.7896H360.51L365.29 104.25L369.5 91.7896H372.23L366.58 108.359C365.26 112.209 364.4 113.949 359.9 113.949V111.449C362.02 111.449 363.01 111.099 363.98 108.239L364.04 108.02V108Z" fill="#617462"/>
</g>
<defs>
<clipPath id="clip0_64_2028">
<rect width="416.78" height="123.949" fill="white"/>
</clipPath>
</defs>
</svg>
