<svg width="294" height="48" viewBox="0 0 294 48" fill="none" xmlns="http://www.w3.org/2000/svg">
<g clip-path="url(#clip0_33_14230)">
<path d="M289.74 44.5074C291.988 44.5074 293.81 42.6969 293.81 40.4636C293.81 38.2303 291.988 36.4198 289.74 36.4198C287.492 36.4198 285.67 38.2303 285.67 40.4636C285.67 42.6969 287.492 44.5074 289.74 44.5074Z" stroke="#231815" stroke-width="0.52" stroke-miterlimit="10"/>
<path d="M290.4 40.6298C290.82 40.7598 291.06 41.1598 291.19 41.7498C291.36 42.5198 291.48 42.9898 291.58 43.1998H290.98C290.9 43.0498 290.78 42.5698 290.64 41.9098C290.48 41.1698 290.19 40.8398 289.56 40.8398H288.91V43.2098H288.33V37.9298C288.66 37.8598 289.12 37.8198 289.55 37.8198C290.25 37.8198 290.7 37.9598 291.02 38.2598C291.27 38.4898 291.42 38.8598 291.42 39.2598C291.42 39.9698 290.99 40.4298 290.42 40.6298V40.6498L290.4 40.6298ZM289.58 40.3698C290.32 40.3698 290.8 39.9498 290.8 39.2998C290.8 38.5098 290.2 38.2598 289.55 38.2598C289.23 38.2598 289.01 38.2898 288.89 38.3198V40.3698H289.58Z" fill="#231815"/>
<path d="M271.58 17.4032V16.7971C271.58 15.8433 271.98 15.426 272.92 15.3664H279.05C280.59 15.3664 281.83 14.1244 281.83 12.6043C281.83 11.0841 280.59 9.84215 279.05 9.84215H273.17C271.77 9.84215 271.58 9.14666 271.58 8.39155V4.40737C271.58 2.88722 270.33 1.64526 268.8 1.64526C267.27 1.64526 266.03 2.87728 266.03 4.40737V8.39155C266.03 9.14666 265.83 9.84215 264.44 9.84215H258.55C257.01 9.84215 255.77 11.0742 255.77 12.6043C255.77 14.1343 257.02 15.3664 258.55 15.3664H264.65C265.62 15.426 266.03 15.8433 266.03 16.7971V34.552C266.03 37.9003 266.92 40.4637 268.7 42.1727C270.9 44.279 273.82 44.5175 275.85 44.5175C276.34 44.5175 276.8 44.5075 277.23 44.4976H277.29C277.59 44.4877 277.88 44.4678 278.14 44.4678C279.68 44.4678 280.92 43.2258 280.92 41.7057C280.92 40.1855 279.68 38.9436 278.14 38.9436C277.8 38.9436 277.44 38.9535 277.04 38.9734C276.66 38.9833 276.26 38.9933 275.85 38.9933C274.7 38.9933 273.3 38.9039 272.57 38.1984C271.92 37.5824 271.58 36.3206 271.58 34.552V17.4032Z" fill="#EC6C00"/>
<path d="M223.09 3.20532C221.56 3.20532 220.31 4.43734 220.31 5.96742V30.3395C220.31 31.492 219.09 32.7141 217.63 30.4488L198.98 4.52676C198.48 3.71204 197.57 3.20532 196.61 3.20532C196.36 3.20532 196.11 3.24507 195.85 3.31461C194.66 3.65243 193.82 4.73541 193.82 5.96742V42.0238C193.82 43.5439 195.07 44.7759 196.6 44.7759C198.13 44.7759 199.37 43.5439 199.37 42.0238V17.6418C199.37 16.4793 200.61 15.2373 202.11 17.612L220.71 43.4545C221.21 44.2692 222.12 44.7759 223.07 44.7759C223.33 44.7759 223.59 44.7362 223.83 44.6766C225.02 44.3388 225.85 43.2458 225.85 42.0238V5.96742C225.85 4.44727 224.6 3.20532 223.07 3.20532H223.09Z" fill="#EC6C00"/>
<path d="M259.26 27.8256C258.49 20.1653 252.06 14.8795 244.29 14.8795C236 14.8795 229.25 21.5861 229.25 29.8227C229.25 38.0593 236 44.7658 244.29 44.7658C249.67 44.7658 254.7 41.9342 257.4 37.3737C258.01 36.3504 257.67 35.0289 256.64 34.4229C255.6 33.8267 254.27 34.1546 253.67 35.1879C251.74 38.4368 248.14 40.4637 244.29 40.4637C239.75 40.4637 235.87 37.334 234.51 33.2306C233.71 30.6076 235.34 30.2201 236.59 30.1804H237.33C237.38 30.1804 237.45 30.1804 237.5 30.1804H257.2C258.45 30.1804 259.4 29.157 259.25 27.8157L259.26 27.8256ZM244.29 19.1816C247.97 19.1816 251.21 21.0098 253.14 23.8315C253.77 24.8747 253.9 26.3551 251.61 26.375H237.02C234.54 26.3452 235.15 24.2687 236.15 22.9274C238.11 20.6422 241.03 19.1816 244.29 19.1816Z" fill="#EC6C00"/>
<path d="M177.52 13.3796H156.16C154.41 13.3796 154.43 14.4924 154.43 15.0587V18.4269C154.43 19.0032 154.41 20.0961 156.16 20.0961H171.76C175.97 20.0961 179.4 23.504 179.4 27.6869V37.2449C179.4 41.4377 175.97 44.8357 171.76 44.8357H151.47C149.85 44.8357 148.54 43.5242 148.54 41.9047C148.54 40.2852 149.86 38.9837 151.47 38.9837H171.76C172.72 38.9837 173.51 38.1987 173.51 37.2449V27.6869C173.51 26.7331 172.72 25.9382 171.76 25.9382H151.47C149.85 25.9382 148.54 24.6367 148.54 23.0172V15.0488C148.54 14.4924 148.56 13.3796 146.81 13.3796H144.73C143.11 13.3796 141.79 12.0781 141.79 10.4586C141.79 8.83907 143.11 7.51763 144.73 7.51763H146.81C148.56 7.51763 148.54 6.42472 148.54 5.85839V2.679C148.54 1.06943 149.86 -0.242065 151.47 -0.242065C153.08 -0.242065 154.42 1.06943 154.42 2.679V5.85839C154.42 6.42472 154.4 7.51763 156.15 7.51763H177.51C179.14 7.51763 180.46 8.83907 180.46 10.4586C180.46 12.0781 179.14 13.3796 177.51 13.3796H177.52Z" fill="#4C4948"/>
<path d="M133.34 30.3492H122.71C121.15 30.2797 121.18 29.2365 121.18 28.69H121.16V24.2388H121.18C121.18 23.7023 121.15 22.6988 122.63 22.5895H130.85C132.47 22.5895 133.8 21.278 133.8 19.6585C133.8 18.039 132.48 16.7374 130.85 16.7374H122.81C121.15 16.6977 121.18 15.6346 121.18 15.0683H121.16V13.3792H121.18C121.18 12.8427 121.15 11.8292 122.66 11.7299H133.33C134.95 11.7299 136.27 10.4184 136.27 8.80882C136.27 7.19925 134.96 5.86787 133.33 5.86787H122.89C121.14 5.86787 121.17 4.76502 121.17 4.20862H121.15V2.60899C121.15 0.989481 119.84 -0.322021 118.21 -0.322021C116.58 -0.322021 115.26 0.989481 115.26 2.60899V4.20862C115.26 4.77495 115.27 5.86787 113.52 5.86787H103.09C101.46 5.86787 100.15 7.18931 100.15 8.80882C100.15 10.4283 101.46 11.7299 103.09 11.7299H113.76C115.27 11.8292 115.25 12.8526 115.25 13.3792V15.0683C115.25 15.6247 115.26 16.6878 113.6 16.7374H105.58C103.95 16.7374 102.63 18.0489 102.63 19.6585C102.63 21.2681 103.95 22.5895 105.58 22.5895H113.8C115.27 22.6988 115.26 23.7123 115.26 24.2388V28.69C115.26 29.2365 115.26 30.2797 113.72 30.3492H107.13C103.15 30.3492 99.91 33.5684 99.91 37.5327C99.91 41.497 103.15 44.7261 107.13 44.7261H118.21C119.84 44.7261 121.15 43.4146 121.15 41.7951V37.8805H121.17C121.17 37.3241 121.14 36.2212 122.89 36.2212L133.33 36.2113C134.95 36.2113 136.27 34.8998 136.27 33.3001C136.27 31.7005 134.96 30.3592 133.33 30.3592L133.34 30.3492ZM115.28 38.3971C115.28 38.8144 114.99 38.8641 114.81 38.8641H107.15C106.41 38.8641 105.82 38.2679 105.82 37.5327C105.82 36.7975 106.41 36.2013 107.15 36.2013H114.81C114.99 36.2013 115.28 36.251 115.28 36.6782V38.3971Z" fill="#4C4948"/>
<path d="M85.14 17.0554C80.93 17.0554 77.51 13.6673 77.51 9.4745C77.51 5.28167 80.93 1.90356 85.14 1.90356C89.35 1.90356 92.76 5.30154 92.76 9.4745C92.76 13.6475 89.34 17.0554 85.14 17.0554ZM85.14 6.67266C83.58 6.67266 82.3101 7.93448 82.3101 9.4745C82.3101 11.0145 83.57 12.2962 85.14 12.2962C86.71 12.2962 87.97 11.0344 87.97 9.4745C87.97 7.91461 86.69 6.67266 85.14 6.67266Z" fill="#EC6C00"/>
<path d="M90.0701 17.8005H80.8101C79.1801 17.8005 77.86 19.112 77.86 20.7315V36.5093C77.86 37.8705 76.75 38.9833 75.37 38.9833H61.77C60.39 38.9833 59.28 37.8705 59.28 36.5093V8.80881C59.28 7.18931 57.96 5.87781 56.33 5.87781H47.0701C45.4401 5.87781 44.12 7.18931 44.12 8.80881C44.12 10.4283 45.4401 11.7398 47.0701 11.7398H51.89C53.4 11.8392 53.38 12.8526 53.38 13.3991V36.5192C53.38 41.1194 57.14 44.8552 61.77 44.8552H75.37C79.99 44.8552 83.75 41.1194 83.75 36.5192V25.1032C83.76 24.517 83.93 23.6924 85.38 23.6625H90.0601C91.6801 23.6625 93.01 22.351 93.01 20.7415C93.01 19.1319 91.6901 17.8105 90.0601 17.8105L90.0701 17.8005Z" fill="#4C4948"/>
<path d="M33.89 18.4567C33.62 18.4071 33.5401 18.1289 33.5701 17.9798C33.8201 16.8074 33.35 15.5456 32.26 14.87C30.87 14.0056 29.0501 14.4328 28.2001 15.8039L27.24 17.3241C26.71 18.1686 26.32 18.3772 25.75 18.3772H19.9C18.18 18.3574 18.21 17.2744 18.21 16.7081V13.3697C18.21 12.8232 18.1901 11.8098 19.7001 11.7105H34.72C36.35 11.7105 37.66 10.5082 37.66 9.02783C37.66 7.54743 36.34 6.34522 34.72 6.34522H19.9C18.18 6.34522 18.21 5.24237 18.21 4.68597V2.67898C18.21 1.05947 16.89 -0.261963 15.25 -0.261963C13.61 -0.261963 12.3 1.05947 12.3 2.67898V4.68597C12.3 5.24237 12.32 6.33529 10.59 6.34522H5.97998C4.34998 6.34522 3.03003 7.54743 3.03003 9.02783C3.03003 10.5082 4.34998 11.7105 5.97998 11.7105H10.8101C12.3201 11.8098 12.3 12.8232 12.3 13.3697V16.7081C12.3 17.2645 12.3201 18.3176 10.7001 18.3673H8.32007C4.11007 18.3673 0.680054 21.7752 0.680054 25.9681V37.2251C0.680054 41.408 4.11007 44.8259 8.32007 44.8259H12.3V45.1637C12.3 46.7832 13.62 48.0947 15.25 48.0947C16.88 48.0947 18.21 46.7832 18.21 45.1637V43.2362C18.21 42.9778 18.3201 42.5705 18.4401 42.3817L29.6801 24.4976C29.7501 24.3982 29.8201 24.2293 30.2001 24.2293H32.9C33.87 24.2293 34.65 25.0142 34.65 25.978V37.235C34.65 38.1988 33.87 38.9738 32.9 38.9738H24.59C22.96 38.9738 21.64 40.2853 21.64 41.9048C21.64 43.5243 22.96 44.8358 24.59 44.8358H32.9C37.12 44.8358 40.55 41.4279 40.55 37.235V25.978C40.55 22.123 37.64 18.9336 33.89 18.4567ZM22.4 25.0242L18.88 30.6179C18.59 31.0849 18.2001 30.6974 18.2001 30.3298V25.9084C18.2001 25.3421 18.18 24.2691 19.87 24.2393H22.08C22.36 24.2393 22.96 24.2393 22.39 25.0242H22.4ZM6.57007 37.245V25.9879C6.57007 25.0242 7.35007 24.2393 8.32007 24.2393H10.62C12.32 24.2691 12.3 25.3421 12.3 25.9084V37.3145C12.3 37.8809 12.32 38.9738 10.58 38.9738H8.32007C7.36007 38.9738 6.57007 38.1988 6.57007 37.235V37.245Z" fill="#4C4948"/>
</g>
<defs>
<clipPath id="clip0_33_14230">
<rect width="294" height="48" fill="white"/>
</clipPath>
</defs>
</svg>
