<svg width="393" height="558" viewBox="0 0 393 558" fill="none" xmlns="http://www.w3.org/2000/svg">
<path d="M391.297 1.75342H1.70679V555.063H391.297V1.75342Z" fill="white"/>
<path d="M390.797 2.25342V554.563H2.20679V2.25342H390.797ZM391.797 1.25342H1.20679V555.563H391.797V1.25342Z" fill="#99A893"/>
<path d="M196.267 194.613C212.537 194.613 225.727 181.424 225.727 165.153C225.727 148.883 212.537 135.693 196.267 135.693C179.997 135.693 166.807 148.883 166.807 165.153C166.807 181.424 179.997 194.613 196.267 194.613Z" fill="#E62318"/>
<path d="M208.167 160.874C208.167 160.874 221.017 186.863 245.087 211.983C245.687 212.603 243.897 218.493 242.947 220.293C236.827 231.873 218.247 240.283 196.267 240.283C174.287 240.283 155.707 231.863 149.587 220.293C148.637 218.493 146.847 212.613 147.447 211.983C171.517 186.863 184.367 160.874 184.367 160.874H208.157H208.167Z" fill="#4FBCBC"/>
<path d="M243.457 275.313L233.087 261.333L227.307 275.313H212.467L208.257 260.233H206.897V264.083H181.947V254.703L176.867 266.963H173.406L169.957 275.313H156.697L153.687 264.083H148.497L138.587 275.313H122.627L128.467 261.213H109.137V240.223L116.747 237.124L109.137 234.023V219.543H121.977L112.477 213.104V198.933H148.897L153.917 205.823V203.433H177.177L178.347 207.003L179.257 203.593H193.077L193.837 213.593V201.783H208.477V198.933H220.177L222.817 192.624C223.987 189.834 226.567 187.803 229.587 187.593C229.777 187.583 229.977 187.573 230.167 187.573C234.657 187.573 238.297 191.223 238.297 195.713C238.297 196.733 238.097 197.753 237.727 198.703L236.037 201.793H238.297V203.023L241.187 198.943H259.667V210.963L267.607 204.363H283.387L271.057 234.173L268.017 235.593L279.307 240.383L275.807 256.874L282.567 261.273L279.587 275.313H243.447H243.457Z" fill="#040000"/>
<path d="M204.727 251.073H184.117V261.923H204.727V251.073Z" fill="white"/>
<path d="M243.247 247.223H236.587L238.867 241.693H227.127L224.847 247.223H207.887V258.063H220.357L214.127 273.144H225.857L232.097 258.063H243.247V247.223Z" fill="white"/>
<path d="M128.656 241.693H111.307V249.283H128.656V241.693Z" fill="white"/>
<path d="M128.656 251.453H111.307V259.043H128.656V251.453Z" fill="white"/>
<path d="M146.667 241.693H140.156V248.203H146.667V241.693Z" fill="white"/>
<path d="M138.027 241.693H131.517V248.203H138.027V241.693Z" fill="white"/>
<path d="M125.877 273.144H137.617L146.667 251.303H134.927L125.877 273.144Z" fill="white"/>
<path d="M175.427 264.793L181.107 251.073H172.627H162.597L161.337 246.354H151.187L152.457 251.073H150.587V261.923H155.357L158.367 273.144H168.507L165.507 261.923H168.127L166.937 264.793H175.427Z" fill="white"/>
<path d="M251.227 241.693L244.557 273.144H255.637L262.317 241.693H251.227Z" fill="white"/>
<path d="M272.457 262.283L276.827 241.693H265.737L259.067 273.144H262.317H270.156H277.847L280.147 262.283H272.457Z" fill="white"/>
<path d="M147.787 201.124H114.647V211.973H147.787V201.124Z" fill="white"/>
<path d="M151.127 221.733H111.307V232.583H151.127V221.733Z" fill="white"/>
<path d="M230.177 194.104C231.077 194.104 231.807 194.833 231.807 195.733C231.807 196.633 231.077 197.363 230.177 197.363C229.277 197.363 228.547 196.633 228.547 195.733C228.547 194.833 229.277 194.104 230.177 194.104ZM230.177 189.763C226.887 189.763 224.207 192.433 224.207 195.733C224.207 199.033 226.877 201.703 230.177 201.703C233.477 201.703 236.147 199.033 236.147 195.733C236.147 192.433 233.477 189.763 230.177 189.763Z" fill="white"/>
<path d="M236.147 214.823V203.983H221.507V201.124H210.656V203.983H196.017V214.823H210.656V232.583H221.507V214.823H236.147Z" fill="white"/>
<path d="M196.017 232.583H207.577L208.827 217.443H197.267L196.017 232.583Z" fill="white"/>
<path d="M234.887 217.443H223.327L224.577 232.583H236.147L234.887 217.443Z" fill="white"/>
<path d="M164.767 205.624H156.087V217.553H164.767V205.624Z" fill="white"/>
<path d="M175.607 205.624H166.927V217.553H175.607V205.624Z" fill="white"/>
<path d="M180.927 205.783H191.077L183.897 232.583H173.747L180.927 205.783Z" fill="white"/>
<path d="M257.517 201.124H242.327V211.973H257.517V201.124Z" fill="white"/>
<path d="M268.397 206.543L262.127 221.733H246.807L242.327 232.583H257.647H269.387L280.147 206.543H268.397Z" fill="white"/>
<path d="M120.667 280.753H109.137V292.283H120.667V280.753Z" fill="#E62318"/>
<path d="M118.037 290.053H116.327L113.467 285.713V290.053H111.757V282.993H113.467L116.327 287.363V282.993H118.037V290.053Z" fill="white"/>
<path d="M133.847 280.753H122.317V292.283H133.847V280.753Z" fill="#040000"/>
<path d="M128.937 282.983V290.043H127.227V282.983H128.937Z" fill="white"/>
<path d="M147.037 280.753H135.507V292.283H147.037V280.753Z" fill="#040000"/>
<path d="M140.307 287.573V290.053H138.597V282.993H141.367C142.207 282.993 142.847 283.203 143.287 283.613C143.727 284.033 143.947 284.593 143.947 285.293C143.947 285.733 143.846 286.123 143.656 286.463C143.456 286.803 143.167 287.073 142.787 287.273C142.397 287.473 141.927 287.573 141.377 287.573H140.317H140.307ZM142.197 285.293C142.197 284.673 141.857 284.363 141.167 284.363H140.297V286.203H141.167C141.857 286.203 142.197 285.903 142.197 285.293Z" fill="white"/>
<path d="M160.217 280.753H148.687V292.283H160.217V280.753Z" fill="#040000"/>
<path d="M153.487 287.573V290.053H151.777V282.993H154.547C155.387 282.993 156.027 283.203 156.467 283.613C156.907 284.033 157.127 284.593 157.127 285.293C157.127 285.733 157.027 286.123 156.827 286.463C156.627 286.803 156.337 287.073 155.957 287.273C155.567 287.473 155.097 287.573 154.547 287.573H153.487ZM155.387 285.293C155.387 284.673 155.047 284.363 154.357 284.363H153.487V286.203H154.357C155.047 286.203 155.387 285.903 155.387 285.293Z" fill="white"/>
<path d="M173.397 280.753H161.867V292.283H173.397V280.753Z" fill="#040000"/>
<path d="M169.447 283.363C169.987 283.673 170.417 284.103 170.727 284.653C171.037 285.203 171.197 285.823 171.197 286.513C171.197 287.203 171.037 287.823 170.727 288.383C170.407 288.933 169.977 289.363 169.437 289.673C168.897 289.983 168.297 290.133 167.637 290.133C166.977 290.133 166.377 289.983 165.837 289.673C165.297 289.363 164.867 288.933 164.547 288.383C164.227 287.833 164.077 287.213 164.077 286.513C164.077 285.813 164.237 285.203 164.547 284.653C164.867 284.103 165.297 283.673 165.837 283.363C166.377 283.053 166.977 282.903 167.637 282.903C168.297 282.903 168.907 283.053 169.447 283.363ZM166.297 285.033C165.967 285.393 165.807 285.893 165.807 286.513C165.807 287.133 165.977 287.623 166.297 287.993C166.627 288.363 167.067 288.543 167.627 288.543C168.187 288.543 168.627 288.363 168.957 287.993C169.287 287.623 169.457 287.133 169.457 286.513C169.457 285.893 169.287 285.403 168.967 285.033C168.637 284.663 168.197 284.483 167.637 284.483C167.077 284.483 166.637 284.663 166.307 285.023L166.297 285.033Z" fill="white"/>
<path d="M186.577 280.753H175.047V292.283H186.577V280.753Z" fill="#040000"/>
<path d="M183.947 290.053H182.237L179.377 285.713V290.053H177.667V282.993H179.377L182.237 287.363V282.993H183.947V290.053Z" fill="white"/>
<path d="M211.427 292.283V280.753H199.897V292.283H211.427Z" fill="#E62318"/>
<path d="M208.057 282.953V287.773C208.057 288.513 207.857 289.083 207.447 289.483C207.047 289.883 206.487 290.083 205.777 290.083C205.007 290.083 204.387 289.863 203.937 289.433C203.487 288.993 203.257 288.373 203.257 287.553H204.947C204.947 288.213 205.197 288.543 205.697 288.543C206.127 288.543 206.347 288.293 206.347 287.783V282.963H208.057V282.953Z" fill="white"/>
<path d="M224.607 292.283V280.753H213.077V292.283H224.607Z" fill="#040000"/>
<path d="M220.656 283.363C221.196 283.673 221.627 284.103 221.937 284.653C222.247 285.203 222.406 285.823 222.406 286.513C222.406 287.203 222.247 287.823 221.937 288.383C221.617 288.933 221.187 289.363 220.647 289.673C220.107 289.983 219.507 290.133 218.847 290.133C218.187 290.133 217.587 289.983 217.047 289.673C216.507 289.363 216.077 288.933 215.757 288.383C215.437 287.833 215.287 287.213 215.287 286.513C215.287 285.813 215.447 285.203 215.757 284.653C216.077 284.103 216.507 283.673 217.047 283.363C217.587 283.053 218.187 282.903 218.847 282.903C219.507 282.903 220.116 283.053 220.656 283.363ZM217.507 285.033C217.177 285.393 217.017 285.893 217.017 286.513C217.017 287.133 217.187 287.623 217.507 287.993C217.837 288.363 218.277 288.543 218.837 288.543C219.397 288.543 219.837 288.363 220.167 287.993C220.497 287.623 220.667 287.133 220.667 286.513C220.667 285.893 220.497 285.403 220.177 285.033C219.847 284.663 219.407 284.483 218.847 284.483C218.287 284.483 217.847 284.663 217.517 285.023L217.507 285.033Z" fill="white"/>
<path d="M237.787 292.284V280.753H226.257V292.284H237.787Z" fill="#040000"/>
<path d="M230.787 282.953V287.033C230.787 287.503 230.887 287.854 231.097 288.104C231.307 288.354 231.607 288.473 232.007 288.473C232.407 288.473 232.707 288.354 232.917 288.104C233.127 287.854 233.227 287.503 233.227 287.033V282.953H234.937V287.033C234.937 287.703 234.807 288.263 234.547 288.713C234.287 289.173 233.937 289.513 233.487 289.743C233.037 289.973 232.527 290.083 231.967 290.083C231.407 290.083 230.897 289.973 230.467 289.743C230.037 289.513 229.697 289.173 229.447 288.713C229.197 288.253 229.077 287.693 229.077 287.023V282.943H230.777L230.787 282.953Z" fill="white"/>
<path d="M250.967 292.283V280.753H239.437V292.283H250.967Z" fill="#040000"/>
<path d="M246.077 290.053L244.547 287.383H244.156V290.053H242.447V282.993H245.367C245.927 282.993 246.397 283.093 246.787 283.283C247.177 283.473 247.466 283.743 247.656 284.073C247.846 284.413 247.947 284.793 247.947 285.223C247.947 285.733 247.807 286.173 247.527 286.533C247.247 286.893 246.827 287.143 246.297 287.273L247.977 290.053H246.087H246.077ZM244.156 286.213H245.217C245.557 286.213 245.807 286.143 245.967 285.983C246.127 285.833 246.207 285.613 246.207 285.323C246.207 285.033 246.127 284.824 245.957 284.664C245.797 284.504 245.547 284.423 245.217 284.423H244.156V286.213Z" fill="white"/>
<path d="M264.156 292.283V280.753H252.627V292.283H264.156Z" fill="#040000"/>
<path d="M261.527 290.053H259.817L256.957 285.713V290.053H255.247V282.993H256.957L259.817 287.363V282.993H261.527V290.053Z" fill="white"/>
<path d="M277.337 292.283V280.753H265.807V292.283H277.337Z" fill="#040000"/>
<path d="M272.887 288.733H270.237L269.797 290.023H267.997L270.587 283.013H272.557L275.147 290.023H273.327L272.887 288.733ZM272.447 287.433L271.567 284.833L270.677 287.433H272.447Z" fill="white"/>
<path d="M290.517 292.284V280.753H278.987V292.284H290.517Z" fill="#040000"/>
<path d="M284.467 288.743H286.747V290.053H282.757V282.993H284.467V288.743Z" fill="white"/>
<path d="M176.417 188.203C178.377 188.973 181.547 185.943 183.747 186.473C185.807 186.973 187.327 191.153 189.547 191.403C191.657 191.643 194.037 187.923 196.267 187.923C198.497 187.923 200.877 191.653 202.987 191.403C205.207 191.153 206.737 186.963 208.787 186.473C210.977 185.943 214.157 188.973 216.117 188.203C218.237 187.363 218.597 182.923 220.387 181.833C220.487 181.773 220.587 181.733 220.697 181.683C212.457 169.533 208.167 160.874 208.167 160.874H184.377C184.377 160.874 180.087 169.533 171.847 181.683C171.957 181.733 172.056 181.773 172.156 181.833C173.946 182.923 174.307 187.363 176.427 188.203H176.417Z" fill="white"/>
<path d="M150.177 328.713V338.604C150.177 339.264 149.997 339.563 149.527 339.713C149.057 339.863 148.197 339.883 146.817 339.863C146.757 339.623 146.587 339.213 146.447 338.963C147.057 338.993 147.647 339.003 148.107 339.003C149.217 339.003 149.287 339.003 149.287 338.613V335.773H142.977C142.647 337.263 141.987 338.763 140.637 339.903C140.507 339.713 140.187 339.393 139.997 339.263C142.187 337.403 142.406 334.763 142.406 332.653V328.733H150.177V328.713ZM143.267 332.633C143.267 333.283 143.237 334.083 143.127 334.923H149.277V332.633H143.267ZM149.287 329.553H143.277V331.823H149.287V329.553Z" fill="black"/>
<path d="M164.757 338.693V339.383H158.727V339.903H157.937V335.333C157.657 335.693 157.367 336.013 157.067 336.293C156.977 336.173 156.816 335.983 156.656 335.843V337.383H154.137V338.443H153.377V328.874H156.667V335.613C157.537 334.763 158.327 333.533 158.757 332.463H157.217V331.813H159.707V330.773H157.477V330.153H159.707V329.183H157.247V328.533H160.457V332.473H159.427L159.807 332.583C159.777 332.673 159.697 332.723 159.557 332.713C159.417 333.033 159.237 333.363 159.047 333.723H160.827C161.017 333.333 161.217 332.843 161.347 332.473H161.007V331.823H163.557V330.783H161.247V330.164H163.557V329.193H161.037V328.543H164.337V332.483H161.647L162.357 332.683C162.317 332.763 162.227 332.813 162.087 332.813C161.957 333.073 161.797 333.413 161.617 333.733H164.437V334.423H161.547V335.403H164.097V336.023H161.547V337.043H164.097V337.664H161.547V338.703H164.767L164.757 338.693ZM155.877 329.633H154.147V332.653H155.877V329.633ZM154.147 336.604H155.877V333.414H154.147V336.604ZM160.767 335.374V334.394H158.727V335.374H160.767ZM160.767 337.023V336.003H158.727V337.023H160.767ZM158.727 337.644V338.683H160.767V337.644H158.727Z" fill="black"/>
<path d="M178.047 333.403C177.247 334.843 176.077 335.613 174.737 335.613C173.587 335.613 172.787 335.143 171.897 334.273C171.197 333.593 170.627 333.193 169.677 333.193C168.647 333.193 167.737 333.894 167.207 334.914L166.377 334.483C167.177 333.043 168.347 332.283 169.687 332.283C170.837 332.283 171.637 332.754 172.527 333.624C173.227 334.294 173.817 334.703 174.747 334.703C175.777 334.703 176.687 334.003 177.217 332.983L178.047 333.414V333.403Z" fill="black"/>
<path d="M185.987 335.403V338.664H191.137V339.423H180.077V338.664H185.097V335.403H180.647V334.633H185.097V332.854H182.357V332.124C181.667 332.664 180.927 333.153 180.187 333.573C180.057 333.383 179.827 333.074 179.647 332.894C181.877 331.704 184.067 329.673 185.077 327.953L186.327 328.033C186.297 328.133 186.197 328.203 186.077 328.223C187.317 329.933 189.607 331.773 191.577 332.733C191.377 332.953 191.157 333.233 191.007 333.483C189.017 332.383 186.737 330.523 185.537 328.843C184.867 329.873 183.727 331.033 182.417 332.063H188.827V332.843H185.987V334.624H190.537V335.394H185.987V335.403ZM182.987 338.443C182.817 337.793 182.307 336.783 181.787 336.033L182.487 335.763C183.027 336.473 183.557 337.474 183.737 338.124L182.987 338.443ZM189.537 336.153C189.497 336.233 189.397 336.273 189.257 336.253C188.887 336.913 188.277 337.863 187.787 338.473L187.147 338.153C187.617 337.513 188.247 336.473 188.577 335.733L189.537 336.153Z" fill="black"/>
<path d="M204.906 338.693V339.383H198.877V339.903H198.087V335.333C197.807 335.693 197.517 336.013 197.217 336.293C197.127 336.173 196.967 335.983 196.807 335.843V337.383H194.287V338.443H193.527V328.874H196.817V335.613C197.687 334.763 198.476 333.533 198.906 332.463H197.367V331.813H199.857V330.773H197.627V330.153H199.857V329.183H197.397V328.533H200.607V332.473H199.577L199.957 332.583C199.927 332.673 199.847 332.723 199.707 332.713C199.567 333.033 199.387 333.363 199.197 333.723H200.977C201.167 333.333 201.367 332.843 201.497 332.473H201.156V331.823H203.707V330.783H201.397V330.164H203.707V329.193H201.187V328.543H204.487V332.483H201.797L202.507 332.683C202.467 332.763 202.377 332.813 202.237 332.813C202.107 333.073 201.947 333.413 201.767 333.733H204.587V334.423H201.697V335.403H204.247V336.023H201.697V337.043H204.247V337.664H201.697V338.703H204.917L204.906 338.693ZM196.027 329.633H194.297V332.653H196.027V329.633ZM194.287 336.604H196.017V333.414H194.287V336.604ZM200.917 335.374V334.394H198.877V335.374H200.917ZM200.917 337.023V336.003H198.877V337.023H200.917ZM198.877 337.644V338.683H200.917V337.644H198.877Z" fill="black"/>
<path d="M216.397 338.604H221.747V339.443H210.227V338.604H215.517V335.193H211.627V334.363H215.517V331.423H212.397C211.947 332.343 211.427 333.163 210.867 333.783C210.697 333.633 210.366 333.383 210.156 333.263C211.196 332.153 212.107 330.223 212.627 328.273L213.737 328.573C213.697 328.663 213.607 328.713 213.447 328.713C213.257 329.333 213.037 329.973 212.787 330.583H215.527V328.033L216.677 328.093C216.667 328.183 216.586 328.243 216.406 328.273V330.583H221.156V331.423H216.406V334.363H220.687V335.193H216.406V338.604H216.397Z" fill="black"/>
<path d="M223.437 329.363V328.613H229.677V329.363H227.597V331.313H229.237V339.533H228.497V338.914H224.597V339.703H223.867V331.323H225.397V329.374H223.427L223.437 329.363ZM225.517 332.063H224.617V336.104H228.517V334.463C228.427 334.843 228.267 334.973 227.977 334.973H227.567C227.097 334.973 226.957 334.833 226.957 334.223V332.073H226.047V332.903C226.047 333.703 225.877 334.823 225.127 335.613C225.037 335.493 224.807 335.333 224.677 335.273C225.377 334.543 225.507 333.614 225.507 332.894V332.073L225.517 332.063ZM224.607 338.183H228.507V336.803H224.607V338.183ZM226.957 331.313V329.363H226.067V331.313H226.957ZM227.887 334.403C228.027 334.403 228.067 334.323 228.077 333.583C228.177 333.673 228.357 333.733 228.507 333.793V332.063H227.497V334.203C227.497 334.383 227.507 334.414 227.607 334.414H227.877L227.887 334.403ZM231.057 338.283C231.057 338.733 231.167 338.823 231.757 338.823H233.787C234.377 338.823 234.457 338.493 234.527 336.593C234.717 336.743 235.077 336.883 235.307 336.953C235.207 339.073 234.947 339.633 233.847 339.633H231.697C230.577 339.633 230.237 339.363 230.237 338.283V333.183H234.037V329.523H230.117V328.723H234.887V334.583H234.047V333.983H231.087V338.293L231.057 338.283Z" fill="black"/>
<path d="M238.537 332.523C238.057 333.323 237.517 334.043 236.987 334.653C236.897 334.443 236.677 334.054 236.537 333.854C237.757 332.524 238.987 330.324 239.717 328.124L240.737 328.463C240.687 328.553 240.597 328.593 240.447 328.583C240.117 329.473 239.717 330.363 239.277 331.223L239.617 331.313C239.587 331.393 239.527 331.453 239.367 331.463V339.914H238.537V332.533V332.523ZM240.247 330.433H248.656V331.164H240.247V330.433ZM241.187 339.863V335.773H247.777V339.823H246.906V339.223H242.017V339.863H241.187ZM247.667 332.213V332.923H241.317V332.213H247.667ZM241.317 334.713V334.003H247.647V334.713H241.317ZM247.437 328.644V329.354H241.457V328.644H247.437ZM246.906 336.483H242.017V338.513H246.906V336.483Z" fill="black"/>
<path d="M250.587 338.144C250.587 337.674 250.907 337.333 251.337 337.333C251.767 337.333 252.077 337.674 252.077 338.144C252.077 338.594 251.787 338.933 251.327 338.933C250.867 338.933 250.587 338.564 250.587 338.144ZM251.747 336.073H250.906L250.727 329.083H251.927L251.747 336.073Z" fill="black"/>
<path d="M152.567 317.733V318.683H141.087V317.733H152.567ZM151.197 310.093V311.053H142.557V310.093H151.197Z" fill="black"/>
<path d="M164.847 318.323V319.133H155.357V318.323H161.017C161.237 316.913 161.617 314.153 161.757 312.733H156.457V311.923H162.037L162.207 311.863L162.887 312.193C162.877 312.253 162.807 312.303 162.717 312.313C162.537 313.773 162.087 316.823 161.857 318.313H164.847V318.323Z" fill="black"/>
<path d="M167.587 313.423H179.207V314.414H168.117C168.037 314.554 167.857 314.653 167.667 314.673L167.587 313.423Z" fill="black"/>
<path d="M191.147 309.523C191.117 309.593 191.047 309.643 190.967 309.673C190.217 311.443 189.327 312.973 188.187 314.463C189.707 315.673 191.987 317.753 193.277 319.183L192.427 319.923C191.207 318.503 188.967 316.393 187.547 315.243C186.327 316.733 184.207 318.763 182.187 319.923C182.037 319.713 181.697 319.363 181.467 319.173C185.317 317.053 188.367 313.103 189.617 310.083H182.787V309.133H190.167L190.347 309.063L191.156 309.523H191.147Z" fill="black"/>
<path d="M201.137 311.293V319.583C201.137 320.623 200.557 320.624 198.787 320.624C198.747 320.404 198.607 320.043 198.477 319.813C198.927 319.823 199.327 319.843 199.617 319.843C200.257 319.843 200.327 319.843 200.327 319.563V316.874H196.947C196.837 318.194 196.527 319.614 195.867 320.664C195.727 320.544 195.367 320.313 195.187 320.233C196.147 318.733 196.247 316.633 196.247 315.043V312.213C196.107 312.393 195.967 312.573 195.827 312.733C195.677 312.593 195.366 312.343 195.156 312.213C196.086 311.193 196.897 309.443 197.367 307.693L198.437 307.983C198.407 308.083 198.326 308.124 198.156 308.124C198.076 308.404 197.987 308.663 197.897 308.943H199.677L199.817 308.903L200.457 309.323C200.427 309.383 200.347 309.403 200.277 309.433C200.057 309.973 199.697 310.683 199.357 311.283H201.137V311.293ZM198.497 311.293C198.757 310.843 199.027 310.263 199.237 309.723H197.607C197.367 310.283 197.117 310.813 196.837 311.293H198.497ZM197.037 314.423V315.053C197.037 315.383 197.037 315.763 197.007 316.133H198.297V314.423H197.027H197.037ZM197.037 312.043V313.683H198.307V312.043H197.037ZM199.007 312.043V313.683H200.327V312.043H199.007ZM199.007 316.133H200.327V314.423H199.007V316.133ZM207.857 308.453C207.857 308.553 207.847 308.653 207.827 308.743C207.697 311.113 207.587 311.983 207.287 312.323C207.107 312.543 206.887 312.653 206.247 312.653C205.927 312.653 205.497 312.644 205.067 312.624C205.057 312.384 204.967 312.053 204.847 311.833C205.427 311.903 205.977 311.903 206.167 311.903C206.377 311.903 206.497 311.893 206.587 311.783C206.757 311.593 206.867 310.923 206.967 309.233H204.577C204.287 310.773 203.677 312.283 201.817 313.133C201.707 312.943 201.467 312.633 201.277 312.483C202.837 311.833 203.437 310.613 203.697 309.243H201.717V308.433H207.377L207.867 308.463L207.857 308.453ZM208.207 317.203V318.043H205.367V320.644H204.467V318.043H201.517V317.203H204.467V315.383H202.867C202.667 315.893 202.416 316.353 202.156 316.723C202.006 316.603 201.707 316.393 201.517 316.273C202.057 315.563 202.447 314.324 202.677 313.104L203.707 313.354C203.677 313.434 203.597 313.493 203.447 313.493C203.367 313.843 203.277 314.203 203.167 314.563H204.477V312.863L205.647 312.933C205.637 313.033 205.567 313.104 205.387 313.124V314.553H207.707V315.374H205.387V317.193H208.227L208.207 317.203Z" fill="black"/>
<path d="M214.957 310.083V310.874H209.847V310.083H214.957ZM214.507 315.874V319.963H211.307V320.613H210.487V315.863H214.507V315.874ZM214.467 312.033V312.793H210.497V312.033H214.467ZM210.507 314.713V313.943H214.477V314.713H210.507ZM214.427 308.203V308.973H210.587V308.203H214.427ZM213.677 316.664H211.307V319.173H213.677V316.664ZM218.267 315.483C218.257 315.583 218.157 315.634 217.987 315.664C217.767 317.714 217.276 319.574 215.156 320.624C215.046 320.404 214.777 320.063 214.557 319.903C216.467 319.023 216.907 317.383 217.057 315.363L218.257 315.493L218.267 315.483ZM220.337 319.183C220.337 319.543 220.397 319.604 220.717 319.604H221.707C222.057 319.604 222.126 319.324 222.156 317.394C222.356 317.544 222.727 317.683 222.967 317.773C222.897 319.933 222.677 320.463 221.807 320.463H220.597C219.677 320.463 219.457 320.173 219.457 319.193V315.003H215.617V310.374H222.267V315.003H220.457C220.457 315.003 220.387 315.033 220.347 315.033V319.193L220.337 319.183ZM216.767 307.753C217.237 308.453 217.687 309.383 217.867 310.003C217.407 310.203 217.197 310.273 216.987 310.333C216.817 309.713 216.377 308.733 215.927 308.023L216.757 307.743L216.767 307.753ZM216.517 311.193V314.173H221.317V311.193H216.517ZM222.147 308.073C222.117 308.153 222.007 308.193 221.867 308.183C221.577 308.823 221.117 309.743 220.727 310.343C220.557 310.273 220.157 310.093 219.977 310.023C220.327 309.393 220.787 308.363 221.017 307.673L222.147 308.073Z" fill="black"/>
<path d="M237.147 312.463H232.397C233.707 313.623 235.737 314.664 237.507 315.164C237.287 315.354 237.017 315.723 236.867 315.953C236.437 315.803 235.977 315.624 235.517 315.414V320.593H234.587V320.144H227.477V320.644H226.577V315.383C226.047 315.663 225.517 315.893 225.017 316.083C224.877 315.873 224.616 315.523 224.406 315.343C226.136 314.783 228.127 313.673 229.417 312.463H224.767V311.653H227.917C227.707 311.123 227.277 310.373 226.857 309.833L227.667 309.523C228.137 310.103 228.627 310.903 228.807 311.443L228.277 311.653H230.447V309.303C228.887 309.423 227.257 309.523 225.757 309.583C225.727 309.383 225.627 309.043 225.547 308.863C228.897 308.713 232.977 308.364 235.177 307.894L235.857 308.644C235.857 308.644 235.787 308.673 235.737 308.673C235.697 308.673 235.637 308.674 235.587 308.664C234.487 308.884 232.997 309.083 231.387 309.233V311.673H233.367C233.217 311.603 233.057 311.553 232.967 311.503C233.397 310.903 233.937 309.943 234.217 309.273L235.347 309.693C235.307 309.773 235.207 309.823 235.057 309.823C234.747 310.353 234.277 311.113 233.857 311.673H237.167V312.483L237.147 312.463ZM230.437 312.604C229.507 313.574 228.207 314.513 226.887 315.223H235.107C233.717 314.523 232.327 313.563 231.367 312.563V314.953H230.437V312.604ZM230.467 317.293V315.973H227.477V317.293H230.467ZM227.477 317.983V319.374H230.467V317.983H227.477ZM234.587 317.293V315.973H231.357V317.293H234.587ZM231.357 319.383H234.587V317.993H231.357V319.383Z" fill="black"/>
<path d="M244.187 315.343C244.107 315.123 243.997 314.873 243.867 314.593L242.307 314.673V320.633H241.457V314.723C240.667 314.753 239.937 314.793 239.367 314.803C239.357 314.913 239.267 314.953 239.167 314.983L238.917 313.943H239.977C240.287 313.583 240.606 313.163 240.906 312.733C240.486 312.103 239.727 311.283 239.057 310.703L239.527 310.093C239.667 310.203 239.807 310.333 239.947 310.473C240.437 309.653 241.007 308.523 241.327 307.723L242.347 308.153C242.287 308.233 242.207 308.263 242.057 308.263C241.677 309.073 241.037 310.213 240.497 310.993C240.857 311.353 241.177 311.733 241.417 312.033C242.047 311.103 242.637 310.113 243.077 309.303L244.067 309.773C244.027 309.843 243.917 309.883 243.757 309.883C243.037 311.083 241.887 312.723 240.887 313.933L243.487 313.894C243.207 313.424 242.907 312.933 242.597 312.513L243.297 312.183C243.947 313.043 244.657 314.213 244.927 314.983L244.187 315.363V315.343ZM240.867 315.983C240.837 316.063 240.757 316.124 240.607 316.124C240.407 317.304 240.096 318.643 239.656 319.463C239.476 319.343 239.167 319.204 238.957 319.104C239.357 318.324 239.667 316.983 239.847 315.723L240.867 315.983ZM243.677 315.673C244.097 316.523 244.487 317.623 244.637 318.343C244.467 318.413 244.307 318.464 243.857 318.624C243.737 317.884 243.357 316.754 242.957 315.914L243.677 315.673ZM250.977 319.354H252.037V320.213H243.867V319.354H245.317V308.374H250.977V319.354ZM250.037 309.233H246.227V312.003H250.037V309.233ZM250.037 315.633V312.863H246.227V315.633H250.037ZM246.217 316.493V319.343H250.027V316.493H246.217Z" fill="black"/>
<path d="M89.8469 445.583V447.763H63.4465V445.583H89.8469ZM86.7068 428.023V430.233H66.8367V428.023H86.7068Z" fill="#617462"/>
<path d="M97.4968 431.983C98.4568 433.933 99.5167 437.003 99.8967 438.863L98.1067 439.343C97.7267 437.483 96.7268 434.573 95.7668 432.523L97.4968 431.983ZM116.597 432.213C116.537 432.503 116.217 432.563 115.927 432.533C113.427 441.873 108.727 447.603 100.987 450.743C100.727 450.363 100.157 449.623 99.7366 449.273C107.387 446.263 111.767 441.013 114.107 431.483L116.607 432.223L116.597 432.213ZM105.267 430.453C105.937 432.593 106.547 435.663 106.767 437.713L104.877 438.063C104.687 436.013 104.077 433.073 103.377 430.863L105.267 430.443V430.453Z" fill="#617462"/>
<path d="M129.687 437.583C128.247 441.323 126.137 444.623 123.667 447.023L121.807 445.803C124.207 443.563 126.287 440.523 127.597 436.783L129.677 437.583H129.687ZM136.527 432.653V447.664C136.527 451.154 134.026 451.153 128.906 451.153C128.776 450.573 128.527 449.683 128.237 449.013C129.167 449.043 130.187 449.043 131.057 449.043H132.917C133.817 449.043 134.227 448.463 134.227 447.703V432.664H123.347V430.483H134.227V423.733L137.267 423.894C137.237 424.214 137.007 424.433 136.527 424.503V430.483H147.347V432.664H136.527V432.653ZM142.257 436.563C144.597 439.153 147.277 442.934 149.007 445.874L146.957 447.053C145.387 444.143 142.577 440.013 140.427 437.583L142.247 436.563H142.257ZM146.417 421.813C148.367 421.813 149.967 423.414 149.967 425.394C149.967 427.374 148.367 428.973 146.417 428.973C144.467 428.973 142.797 427.374 142.797 425.394C142.797 423.414 144.457 421.813 146.417 421.813ZM148.917 425.394C148.917 423.984 147.797 422.833 146.417 422.833C145.037 422.833 143.857 423.984 143.857 425.394C143.857 426.804 145.007 427.923 146.417 427.923C147.827 427.923 148.917 426.714 148.917 425.394Z" fill="#617462"/>
<path d="M154.737 426.003C158.067 427.063 161.907 428.724 164.277 430.354L163.057 432.374C160.757 430.744 156.977 429.043 153.717 427.923L154.737 426.003ZM154.617 448.173C165.977 444.653 173.527 438.283 177.367 429.423C178.037 429.963 178.777 430.383 179.447 430.733C175.447 439.503 167.637 446.313 156.797 449.933C156.767 450.223 156.577 450.543 156.347 450.673L154.617 448.173Z" fill="#617462"/>
<path d="M183.927 432.723C186.807 433.363 190.387 434.584 192.537 435.604L191.577 437.624C189.467 436.604 185.787 435.323 182.967 434.683L183.927 432.733V432.723ZM185.847 448.374C196.117 444.914 203.377 439.283 207.607 429.753C208.087 430.173 209.047 430.873 209.557 431.193C205.267 440.633 197.687 446.653 188.027 450.073C188.127 450.363 187.927 450.744 187.677 450.874L185.857 448.374H185.847ZM187.447 424.783C190.327 425.553 193.847 426.834 196.027 427.914L194.967 429.863C192.697 428.713 189.367 427.433 186.487 426.633L187.447 424.773V424.783ZM202.417 423.733C203.727 424.853 205.557 426.834 206.547 428.374L205.297 429.303C204.397 427.923 202.547 425.783 201.237 424.633L202.417 423.733ZM206.867 421.783C208.177 422.903 210.007 424.914 211.027 426.394L209.777 427.323C208.817 425.913 207.027 423.863 205.717 422.713L206.867 421.783Z" fill="#617462"/>
<path d="M235.507 434.193C235.407 434.293 235.286 434.384 235.156 434.414C233.876 437.704 231.697 440.913 229.397 443.273C229.017 442.923 228.307 442.473 227.797 442.183C229.657 440.483 231.697 437.514 232.597 435.374L223.637 437.354L226.577 451.013L224.687 451.433L221.747 437.773L214.457 439.433L214.037 437.644L221.397 436.013L219.957 429.363L222.617 429.104C222.617 429.364 222.457 429.553 222.037 429.743L223.257 435.563L233.787 433.293L234.007 433.133L235.507 434.183V434.193Z" fill="#617462"/>
<path d="M240.887 435.664H267.607V437.933H242.107C241.917 438.253 241.497 438.473 241.087 438.543L240.897 435.664H240.887Z" fill="#617462"/>
<path d="M298.487 434.164H286.906C286.296 442.384 284.217 447.374 277.247 451.374C276.797 450.864 276.027 450.253 275.427 449.803C282.047 446.123 284.007 441.743 284.607 434.153H271.777V431.943H284.707C284.807 429.443 284.837 426.563 284.837 423.333L287.977 423.523C287.947 423.843 287.657 424.034 287.207 424.104C287.177 427.014 287.177 429.603 287.047 431.943H298.507V434.153L298.487 434.164Z" fill="#617462"/>
<path d="M309.977 428.433C309.947 428.723 309.657 428.913 309.237 428.973C309.047 437.583 308.337 445.424 303.417 451.144C302.907 450.764 302.137 450.283 301.497 449.933C306.267 444.753 306.837 436.754 306.937 428.144L309.977 428.433ZM318.257 446.863C323.597 444.273 327.057 439.603 328.917 434.003C329.397 434.423 330.357 434.963 330.897 435.253C328.627 441.713 324.657 446.483 317.847 449.713C317.747 449.973 317.527 450.224 317.307 450.354L315.647 448.243L315.997 447.763V424.273L318.977 424.433C318.947 424.723 318.717 424.973 318.277 425.043V446.863H318.257Z" fill="#617462"/>
<path d="M119.247 478.463H108.337C111.347 481.113 116.017 483.513 120.077 484.673C119.567 485.123 118.957 485.953 118.607 486.493C117.617 486.143 116.557 485.723 115.507 485.243V497.144H113.367V496.124H97.0168V497.273H94.9368V485.173C93.7168 485.813 92.5067 486.353 91.3567 486.773C91.0367 486.293 90.4265 485.493 89.9465 485.073C93.9165 483.793 98.4866 481.233 101.467 478.453H90.7766V476.593H98.0066C97.5266 475.383 96.5369 473.653 95.5769 472.403L97.4368 471.703C98.5268 473.043 99.6469 474.874 100.057 476.124L98.8367 476.604H103.827V471.193C100.247 471.483 96.4966 471.703 93.0466 471.833C92.9866 471.383 92.7567 470.583 92.5667 470.173C100.277 469.823 109.657 469.023 114.707 467.933L116.277 469.664C116.217 469.724 116.117 469.723 115.987 469.723C115.887 469.723 115.767 469.723 115.637 469.693C113.107 470.203 109.687 470.653 105.977 471.003V476.604H110.517C110.167 476.444 109.817 476.313 109.587 476.223C110.577 474.843 111.827 472.644 112.467 471.104L115.057 472.063C114.957 472.253 114.737 472.354 114.387 472.354C113.687 473.574 112.597 475.333 111.637 476.613H119.257V478.473L119.247 478.463ZM103.827 478.773C101.687 481.013 98.7067 483.153 95.6667 484.793H114.577C111.377 483.193 108.177 480.983 105.967 478.683V484.183H103.827V478.773ZM103.897 489.563V486.523H97.0168V489.563H103.897ZM97.0168 491.164V494.363H103.897V491.164H97.0168ZM113.367 489.563V486.523H105.947V489.563H113.367ZM105.937 494.363H113.357V491.164H105.937V494.363Z" fill="#617462"/>
<path d="M133.847 485.083C133.657 484.573 133.397 483.994 133.107 483.354L129.527 483.543V497.243H127.577V483.644C125.757 483.704 124.087 483.803 122.777 483.833C122.747 484.093 122.557 484.183 122.327 484.253L121.747 481.854H124.177C124.877 481.024 125.617 480.063 126.317 479.073C125.357 477.633 123.597 475.743 122.057 474.403L123.147 472.993C123.467 473.253 123.787 473.534 124.107 473.854C125.227 471.964 126.537 469.373 127.277 467.523L129.607 468.513C129.477 468.703 129.287 468.773 128.937 468.773C128.077 470.633 126.607 473.253 125.357 475.043C126.187 475.873 126.927 476.743 127.467 477.443C128.907 475.303 130.287 473.033 131.277 471.173L133.547 472.263C133.447 472.423 133.197 472.523 132.847 472.523C131.187 475.273 128.557 479.053 126.257 481.833L132.237 481.733C131.597 480.643 130.897 479.523 130.187 478.563L131.787 477.793C133.287 479.773 134.927 482.463 135.527 484.223L133.827 485.093L133.847 485.083ZM126.197 486.553C126.137 486.743 125.937 486.874 125.587 486.874C125.137 489.594 124.406 492.663 123.406 494.553C122.986 494.263 122.287 493.943 121.807 493.723C122.737 491.933 123.437 488.863 123.857 485.943L126.197 486.553ZM132.656 485.854C133.616 487.804 134.517 490.333 134.867 491.993C134.487 492.153 134.097 492.283 133.077 492.633C132.787 490.933 131.927 488.344 130.997 486.394L132.656 485.854ZM149.457 494.293H151.887V496.273H133.107V494.293H136.437V469.043H149.457V494.293ZM147.287 471.033H138.517V477.403H147.287V471.033ZM147.287 485.753V479.383H138.517V485.753H147.287ZM138.517 487.733V494.293H147.287V487.733H138.517Z" fill="#617462"/>
<path d="M166.007 469.433C165.907 469.653 165.657 469.753 165.267 469.753C163.157 474.583 159.797 479.453 156.367 482.553C155.917 482.103 155.057 481.403 154.477 481.083C157.897 478.233 161.197 473.373 163.177 468.473L165.997 469.433H166.007ZM169.397 480.053C169.297 480.313 169.017 480.473 168.597 480.473C167.097 484.283 164.727 489.403 162.577 493.273C167.087 493.143 172.437 492.953 177.587 492.763C176.047 490.583 174.256 488.253 172.656 486.363L174.677 485.403C177.657 488.793 181.047 493.303 182.677 496.213L180.537 497.394C180.117 496.594 179.547 495.664 178.877 494.644C170.847 495.124 162.307 495.473 156.987 495.703C156.927 495.963 156.697 496.123 156.477 496.153L155.577 493.463L160.156 493.333C162.396 489.363 164.957 483.513 166.427 479.253L169.406 480.053H169.397ZM174.487 468.473C176.697 472.793 180.827 478.013 183.827 480.733C183.247 481.183 182.447 481.983 182.037 482.553C179.027 479.483 174.896 473.913 172.406 469.333L174.487 468.473Z" fill="#617462"/>
<path d="M215.447 475.773H205.817C206.617 486.143 209.147 495.033 212.597 495.033C213.527 495.033 213.937 493.173 214.137 488.823C214.647 489.303 215.447 489.813 216.057 490.033C215.637 495.663 214.776 497.293 212.406 497.293C207.186 497.293 204.467 487.343 203.577 475.753H186.587V473.644H203.417C203.317 471.664 203.257 469.644 203.227 467.624L206.237 467.783C206.237 468.073 206.047 468.233 205.567 468.293C205.567 470.083 205.597 471.873 205.697 473.633H215.457V475.743L215.447 475.773ZM195.827 482.874V492.414C198.167 491.904 200.597 491.363 202.967 490.813L203.127 492.703C197.657 494.083 191.767 495.453 188.087 496.253C188.057 496.513 187.867 496.703 187.637 496.763L186.737 494.263C188.627 493.913 191.027 493.434 193.677 492.854V482.874H187.697V480.823H202.027V482.874H195.817H195.827ZM209.297 467.673C211.027 468.823 213.107 470.484 214.097 471.644L212.597 473.053C211.607 471.873 209.587 470.074 207.857 468.894L209.297 467.683V467.673Z" fill="#617462"/>
<path d="M241.747 474.783C241.617 474.973 241.457 475.133 241.267 475.263C237.877 485.853 232.627 492.253 223.957 496.673C223.607 496.133 222.967 495.394 222.327 494.914C230.547 490.914 235.707 484.773 238.417 476.063H227.127C225.267 478.943 222.907 481.634 220.057 483.874C219.637 483.424 218.877 482.823 218.267 482.433C222.617 479.173 226.236 474.114 228.406 468.414L231.417 469.243C231.317 469.563 230.937 469.694 230.517 469.664C229.877 471.104 229.136 472.643 228.406 473.923H239.547L239.927 473.733L241.747 474.793V474.783ZM237.777 467.423C239.277 468.633 241.037 470.593 241.967 471.963L240.787 472.983C239.827 471.513 238.096 469.623 236.656 468.443L237.777 467.423ZM242.417 466.493C243.917 467.713 245.677 469.633 246.607 471.033L245.427 472.023C244.467 470.583 242.807 468.723 241.297 467.513L242.417 466.483V466.493Z" fill="#617462"/>
<path d="M251.417 476.983C252.377 478.933 253.437 482.003 253.817 483.863L252.027 484.343C251.647 482.483 250.647 479.573 249.687 477.523L251.417 476.983ZM270.517 477.213C270.457 477.503 270.137 477.563 269.847 477.533C267.347 486.873 262.646 492.603 254.906 495.743C254.646 495.363 254.076 494.623 253.656 494.273C261.306 491.263 265.687 486.013 268.027 476.483L270.527 477.223L270.517 477.213ZM259.187 475.453C259.857 477.593 260.467 480.663 260.687 482.713L258.797 483.063C258.607 481.013 257.997 478.073 257.297 475.863L259.187 475.443V475.453Z" fill="#617462"/>
<path d="M296.147 472.414C296.087 472.514 295.957 472.603 295.797 472.633C294.357 476.123 292.117 480.124 289.617 483.414C293.077 486.164 298.417 490.993 301.427 494.323L299.377 495.923C296.497 492.593 291.477 487.863 288.177 485.233C285.397 488.653 280.597 493.293 275.957 495.953C275.577 495.473 274.867 494.703 274.297 494.223C283.157 489.363 289.907 480.463 292.757 473.493H276.987V471.313H293.947L294.367 471.153L296.156 472.403L296.147 472.414ZM296.307 468.124C297.647 469.464 299.157 471.513 299.987 473.113L298.677 473.914C297.937 472.474 296.437 470.333 295.097 468.953L296.317 468.124H296.307ZM300.247 466.583C301.367 467.733 303.067 469.974 303.827 471.414L302.517 472.213C301.847 470.803 300.117 468.503 299.027 467.383L300.247 466.583Z" fill="#617462"/>
<path d="M353.357 1.25342H391.797V39.6934L353.357 1.25342Z" fill="#99A893"/>
</svg>
