<svg width="150" height="181" viewBox="0 0 150 181" fill="none" xmlns="http://www.w3.org/2000/svg">
<g clip-path="url(#clip0_88_8090)">
<path d="M8.47974 4.71525H15.7898V6.39443H8.47974V7.15937H14.4897V13.1307H8.47974V13.9355H14.7798V15.5053H8.47974V16.2902H15.9298V18.0389H-0.990234V16.2902H6.31982V15.5053H0.129761V13.9355H6.31982V13.1307H0.40979V7.15937H6.31982V6.39443H-0.8302V4.71525H6.31982V3.96014C5.43982 3.99988 4.62974 4.02975 3.10974 4.02975C2.40974 4.02975 1.84974 4.00984 0.479736 3.98997L0.0797119 2.27113C1.19971 2.291 1.96979 2.31079 3.02979 2.31079C6.66979 2.31079 10.2998 2.11211 13.8898 1.59546L14.6598 3.25475C12.5898 3.57269 10.9697 3.70184 8.46973 3.8608V4.70531L8.47974 4.71525ZM6.31982 8.60011H2.60974V9.49433H6.31982V8.60011ZM6.31982 10.7958H2.60974V11.6901H6.31982V10.7958ZM12.2798 8.60011H8.47974V9.49433H12.2798V8.60011ZM12.2798 10.7958H8.47974V11.6901H12.2798V10.7958Z" fill="#617462"/>
<path d="M23.71 11.0583C23.96 10.6311 24.11 10.3827 24.34 9.93562H19.6V5.15666H24.01V4.12332H18.88V2.22559H35.63V4.12332H30.37V5.15666H34.9401V9.93562H26.87C26.74 10.2238 26.64 10.4523 26.29 11.0583H35.65V12.9858H32.5701C32.3001 13.5621 31.94 14.3272 31.04 15.271C32.5 15.6983 33.76 16.1652 35.15 16.7216L33.4 18.6691C32.43 18.2021 30.88 17.4668 29.02 16.8111C26.97 17.9338 23.33 18.4206 19.89 18.4703L19.12 16.3639C21.44 16.3838 23.6601 16.2745 26.0701 15.8771C25.1201 15.6287 23.69 15.271 20.72 14.7842C21.21 14.2974 21.69 13.8006 22.34 12.976H18.79V11.0484H23.6901L23.71 11.0583ZM21.75 8.35589H24.02V6.72644H21.75V8.35589ZM25.02 12.9858C24.7 13.3932 24.66 13.4529 24.34 13.8404C25.73 14.0589 27.33 14.3272 28.75 14.665C29.56 13.9894 29.87 13.4528 30.14 12.9858H25.03H25.02ZM26.03 5.14672H28.33V4.11337H26.03V5.14672ZM26.03 8.35589H28.33V6.72644H26.03V8.35589ZM30.37 8.35589H32.78V6.72644H30.37V8.35589Z" fill="#617462"/>
<path d="M48.0295 4.47169V6.7072H44.2996C43.4196 10.9497 42.3195 13.7019 41.4695 15.7784L39.0195 14.8643C39.5195 13.9304 40.9295 11.3372 41.8795 6.7072H39.2996V4.47169H42.2896C42.3996 3.61723 42.4695 3.1105 42.5195 2.34546L45.0195 2.43485C44.8795 3.55757 44.8395 3.7762 44.7095 4.47169H47.9995H48.0295ZM51.6295 11.7347C52.9095 12.3408 54.2795 13.3641 55.0995 14.1887L53.7295 16.4044C52.8495 15.3711 52.1595 14.8346 51.4595 14.3477V14.7451C51.4595 16.5335 50.0395 17.7158 47.7095 17.7158C45.0395 17.7158 43.5095 16.2851 43.5095 14.3874C43.5095 12.8474 44.6796 10.8801 47.8096 10.8801C48.4596 10.8801 48.9295 10.9497 49.2295 11.0093L49.1595 7.54176H51.5396L51.6095 11.7445L51.6295 11.7347ZM49.3196 13.1256C48.9996 13.0163 48.5796 12.8375 47.8196 12.8375C46.5096 12.8375 45.6595 13.4436 45.6595 14.3279C45.6595 14.5564 45.7496 15.689 47.6796 15.689C48.7596 15.689 49.3196 15.2816 49.3196 14.1291V13.1256ZM53.9496 8.00883C52.0996 6.91591 50.7095 6.27006 48.8495 5.61431L49.8595 3.6073C51.7295 4.21337 53.0695 4.80956 55.0095 5.89254L53.9496 7.99888V8.00883Z" fill="#617462"/>
<path d="M69.8497 4.45276V6.63867H65.8297V8.29784C66.2297 8.24816 66.8397 8.13895 67.8597 8.13895C69.8797 8.13895 71.3697 8.56613 72.3397 9.32123C73.4897 10.2154 74.0498 11.5567 74.0498 12.9179C74.0498 14.4579 73.3097 16.2662 70.9897 17.1604C69.9497 17.5579 68.6998 17.6771 67.4998 17.6771L67.1398 15.5807C68.8298 15.541 71.5198 15.3819 71.5198 12.9179C71.5198 11.666 70.6898 10.1956 68.0098 10.1956C67.2898 10.1956 66.4997 10.2849 65.8297 10.3942V15.0243C65.8297 16.8325 64.4997 17.3294 63.0797 17.3294C60.1997 17.3294 59.0698 15.4317 59.0698 13.7128C59.0698 10.6526 62.0598 9.40069 63.5298 8.79462V6.62872H59.4398V4.44282H63.5298V2.47559H65.8297V4.44282H69.8497V4.45276ZM63.5398 11.0003C62.7298 11.4077 61.2898 12.1132 61.2898 13.5638C61.2898 14.5076 62.0798 15.064 62.8698 15.064C63.5398 15.064 63.5398 14.7957 63.5398 14.4778V11.0102V11.0003ZM71.3198 2.48553C73.0098 3.82684 74.0697 5.50599 74.8497 7.11556L72.8198 8.34756C71.4898 5.7345 70.5897 4.61178 69.4897 3.6381L71.3297 2.47559L71.3198 2.48553Z" fill="#617462"/>
<path d="M85.2898 17.4227C84.0998 16.0119 83.5098 15.1177 82.8898 13.9353C81.6798 16.7272 79.9597 18.0189 79.2197 18.5554L77.7297 16.6378C78.9197 15.8728 80.8298 14.4718 81.5298 11.0241H77.8397V8.89791H81.7698V5.8179H81.0298C80.5298 6.78165 80.1998 7.31823 79.5698 8.23231L77.7197 6.93068C79.2897 4.9833 79.9298 3.10545 80.2598 1.56543L82.4697 1.88344C82.1597 2.9068 82.0898 3.13527 81.8898 3.69166H86.4797V5.8179H83.9198V8.89791H86.7097V11.0241H83.7397C83.7197 11.0738 83.6898 11.2726 83.6898 11.3322C84.4098 12.8722 85.1798 13.9055 86.8798 15.6641L85.2998 17.4327L85.2898 17.4227ZM94.3397 18.1381H87.1598V2.58883H94.3397V18.1381ZM92.1298 4.71506H89.2898V15.982H92.1298V4.71506Z" fill="#617462"/>
<path d="M101.72 5.43476C101.4 6.63697 101.29 7.49145 101.23 9.67728C102.96 8.51482 104.76 7.90872 106.83 7.90872C110.97 7.90872 111.82 10.7205 111.82 12.2903C111.82 16.2944 108.38 17.6258 103.43 17.6258C101.77 17.6258 100.71 17.5165 100.08 17.447L99.7898 15.1419C100.62 15.2512 101.86 15.4101 103.37 15.4101C108.03 15.4101 109.31 14.0192 109.31 12.2109C109.31 10.9193 108.3 10.025 106.56 10.025C104.49 10.025 102.35 10.8795 101.23 12.2209C101.21 12.4394 101.19 12.5089 101.18 12.6679L98.8198 12.5785C98.8698 8.39563 98.9098 7.46164 99.2898 5.20626L101.72 5.43476ZM109.01 5.83221C108.51 5.6335 106.17 4.68959 101.41 4.4412L101.82 2.22559C105.49 2.35475 107.62 2.76211 109.6 3.34831L109.01 5.83221Z" fill="#617462"/>
<path d="M126.65 5.8133C126.65 5.34633 126.63 3.80628 126.54 2.43517L129.01 2.39551C129.03 3.091 129.06 4.79 129.06 5.75375L131.89 5.70403L131.91 7.91965L129.08 7.96938C129.13 11.8741 128.92 13.5532 125.98 13.5532C125.22 13.5532 124.45 13.4638 123.69 13.3346V11.1885C124.27 11.2978 124.93 11.4071 125.63 11.4071C126.6 11.4071 126.66 10.96 126.66 8.49599V8.02893L121.13 8.15809L121.09 12.4006C121.07 15.0832 121.61 15.2223 125.16 15.2223C128.45 15.2223 129.57 15.133 130.33 15.0634L130.35 17.3684C129.13 17.438 128.12 17.4777 126.52 17.4777C121.46 17.4777 118.78 17.4778 118.78 12.4305V8.20782L116.26 8.25755L116.22 6.02203L118.78 5.97231V2.66379H121.16L121.14 5.93253L126.65 5.80336V5.8133Z" fill="#617462"/>
<path d="M25.8098 55.8476C24.9798 55.7979 21.7597 55.6092 19.0797 54.7547C16.9297 55.4999 14.6698 55.8178 12.4098 55.8476L12.0498 54.6057C13.9398 54.6057 15.3597 54.4368 17.2397 54.0294C16.9697 53.9102 16.1598 53.5029 15.0198 52.6683C14.4198 52.9564 13.8997 53.1948 12.7297 53.5028L12.0897 52.2212C13.6297 51.9728 15.2198 51.1878 16.0198 50.5221H13.5698V44.233H17.9797C18.0897 44.0342 18.1898 43.8156 18.2698 43.5772H12.1698V42.375H26.1198V43.5772H19.8297C19.7297 43.8653 19.6798 43.9647 19.5598 44.233H24.6998V50.5221H17.9398C17.7598 50.7507 17.6498 50.8798 17.3698 51.1481H23.7498V52.1317C23.2998 52.549 22.5697 53.2147 20.9797 53.9996C22.6597 54.3275 24.6197 54.4566 26.2397 54.4765L25.8297 55.8476H25.8098ZM23.1798 45.2563H15.1097V46.0115H23.1798V45.2563ZM23.1798 46.9553H15.1097V47.76H23.1798V46.9553ZM23.1798 48.6344H15.1097V49.4491H23.1798V48.6344ZM16.3098 52.1814C16.8598 52.559 17.5698 53.006 19.0598 53.5028C20.5598 52.9663 21.1798 52.5093 21.6198 52.1814H16.3098Z" fill="#617462"/>
<path d="M29.5797 48.4813C28.6197 48.9085 28.1398 49.0972 27.6198 49.286L26.9897 47.7658C29.7497 47.0207 31.0998 46.0768 31.4398 45.8284H27.1398V44.4573H33.3898V43.7221C32.6698 43.742 29.1397 43.8015 28.3397 43.8015L28.0398 42.4007C32.5798 42.4901 36.9297 42.3609 39.5897 41.7151L40.1998 43.0962C38.2998 43.5035 36.1198 43.6326 34.8798 43.6724V44.4474H41.0997V45.8185H36.5598C37.9998 46.8915 39.3898 47.438 41.2998 47.8355L40.6097 49.296C40.1097 49.1171 39.5298 48.9184 38.5598 48.4614V49.4848C37.6398 50.0809 36.4797 50.6671 34.9797 51.3328H41.1097V52.7436H34.8898V54.4327C34.8898 55.0288 34.6398 55.8932 33.3098 55.8932H31.2397L30.9897 54.3234H32.9098C33.2698 54.3234 33.3198 54.1446 33.3198 53.926V52.7436H27.1498V51.3328H33.3198V50.4684H33.9897C34.5397 50.2598 35.6898 49.7531 36.1298 49.4848H29.5897V48.4713L29.5797 48.4813ZM33.3898 48.1533V45.8881C32.1798 47.1003 30.8997 47.8155 30.2397 48.1533H33.3898ZM37.8998 48.1533C37.5998 48.0043 36.0998 47.2393 34.8698 45.9775V48.1533H37.8998Z" fill="#617462"/>
<path d="M43.6399 48.6014C43.1299 49.287 42.8599 49.5354 42.5599 49.8434L41.8999 47.9954C43.8999 45.7897 44.3799 43.2859 44.5699 41.8849L46.2098 42.0936C46.0998 42.8089 45.9099 44.031 45.1699 45.8194V55.8742H43.6399V48.6014ZM45.5099 52.4167C47.3499 50.7276 48.7199 48.6014 49.6199 46.2566H46.0798V44.7663H50.2V41.875H51.7999V44.7663H56.1199V46.2566H52.3699C52.7699 47.5781 53.9098 50.211 56.3398 52.3472L55.3499 53.9567C54.7099 53.3308 53.0599 51.7509 51.7999 48.2635V55.8643H50.2V48.0848C48.85 51.5523 47.2399 53.1916 46.5499 53.8971L45.4999 52.4067L45.5099 52.4167Z" fill="#617462"/>
<path d="M61.1299 54.6846H57.3799V42.4936H61.1299V54.6846ZM59.8099 43.9541H58.7198V47.7197H59.8099V43.9541ZM59.8099 49.1404H58.7198V53.224H59.8099V49.1404ZM65.9999 47.1434H63.2499V48.7033H65.9999V50.1539H63.2499V51.7039H65.9999V53.1346H63.2499V55.8768H61.8999V42.2551H65.9899V47.1434H65.9999ZM64.7098 43.7057H63.2499V45.6829H64.7098V43.7057ZM65.2098 54.615C65.8198 54.297 66.7399 53.8301 67.6099 52.9458C67.2299 52.31 66.8699 51.6641 66.5199 50.1937L67.8398 49.8658C68.0798 50.7402 68.2499 51.1773 68.5599 51.8032C69.0799 50.9686 69.2799 50.144 69.3999 49.5976H66.3899V48.1966H70.8398V49.5976C70.4498 51.4555 69.7299 52.5583 69.3799 53.0352C70.0699 53.8698 70.8998 54.3865 71.3298 54.6547L70.4799 55.8768C69.3799 55.1714 68.9 54.6547 68.45 54.1182C67.82 54.7541 67.3399 55.1614 66.1599 55.8768L65.2198 54.615H65.2098ZM70.8298 47.1434H66.6199V45.6829H69.4899V43.7057H66.6199V42.2551H70.8298V47.1434Z" fill="#617462"/>
<path d="M79.0596 53.467C80.6496 53.3179 83.9895 52.7813 83.9895 48.7872C83.9895 47.128 83.2996 44.6739 79.9396 44.515C79.4796 51.142 77.4795 53.9041 75.4095 53.9041C73.6695 53.9041 72.5596 51.9268 72.5596 49.6317C72.5596 45.4488 75.6795 42.9451 79.5295 42.9451C84.1995 42.9451 85.7495 46.045 85.7495 48.8469C85.7495 54.4804 80.6695 54.987 79.5995 55.0963L79.0496 53.4867L79.0596 53.467ZM74.1896 49.6715C74.1896 50.5359 74.5095 52.1156 75.4795 52.1156C76.0495 52.1156 76.4695 51.609 76.8295 50.9532C77.8495 49.1052 78.1396 46.8299 78.3196 44.5944C75.6196 45.0912 74.1996 47.2174 74.1996 49.6715H74.1896Z" fill="#617462"/>
<path d="M96.7699 44.3036V45.8337H93.3099V47.4532C93.6399 47.3936 94.2399 47.3042 95.1499 47.3042C99.4399 47.3042 100.27 49.6688 100.27 51.2386C100.27 52.2719 99.88 53.9114 97.7 54.6764C96.77 55.0043 95.8699 55.0837 94.8699 55.0936L94.6099 53.6033C95.8099 53.5834 98.4799 53.5239 98.4799 51.2288C98.4799 50.1458 97.7699 48.7449 95.2699 48.7449C94.7499 48.7449 94.1299 48.7945 93.3099 48.9137V53.1165C93.3099 54.2789 92.5999 54.8255 91.2299 54.8255C89.0199 54.8255 87.8999 53.4543 87.8999 51.8646C87.8999 49.331 90.3299 48.3474 91.6899 47.8109V45.8238H88.1799V44.2937H91.6899V42.5352H93.3099V44.2937H96.7699V44.3036ZM91.7 49.351C90.87 49.7285 89.4598 50.3643 89.4598 51.7652C89.4598 52.5998 90.1298 53.2456 91.0898 53.2456C91.6898 53.2456 91.6899 52.9973 91.6899 52.7787V49.351H91.7ZM97.9399 42.5748C99.3599 43.6876 100.27 45.0786 100.93 46.4696L99.4598 47.344C98.8898 46.1815 98.0899 44.6613 96.6499 43.4293L97.9399 42.5748Z" fill="#617462"/>
<path d="M108.09 54.7613C106.97 53.3305 106.68 52.9132 106.1 51.8998C105.42 53.6187 104.49 54.7613 102.99 55.8045L101.9 54.483C103.79 53.3106 104.87 51.6813 105.23 49.4656H102V47.9952H105.35V45.1634H104.57C104.25 45.7397 104.02 46.1967 103.27 47.2698L101.92 46.4054C102.4 45.839 103.65 44.3388 104.2 41.8052L105.78 42.0735C105.51 42.9379 105.42 43.2061 105.24 43.683H109.18V45.1734H106.85V48.005H109.37V49.4756H106.75C106.72 49.724 106.71 49.7736 106.69 49.9127C107.44 51.5024 107.93 52.1284 109.33 53.7081L108.1 54.7811L108.09 54.7613ZM115.68 55.5164H109.79V42.6696H115.68V55.5164ZM114.1 44.1302H111.25V54.0559H114.1V44.1302Z" fill="#617462"/>
<path d="M120.06 44.9088C119.81 45.8229 119.64 46.6078 119.63 48.7539C121.13 47.6808 122.69 47.1146 124.53 47.1146C128.03 47.1146 128.67 49.4395 128.67 50.6715C128.67 53.8609 125.97 55.083 121.85 55.083C120.45 55.083 119.59 54.9637 119 54.8942L118.82 53.2846C119.45 53.374 120.4 53.523 121.74 53.523C125.61 53.523 126.91 52.3605 126.91 50.6218C126.91 49.658 126.24 48.6149 124.38 48.6149C122.52 48.6149 120.63 49.3998 119.65 50.602C119.62 50.7511 119.62 50.8106 119.61 50.91L117.94 50.8702C118 46.8562 118.03 46.3297 118.36 44.7201L120.06 44.9287V44.9088ZM126.33 45.0778C124.82 44.4618 122.79 44.0842 120.15 43.9451L120.47 42.3853C124.04 42.5144 125.78 43.0211 126.78 43.3191L126.33 45.0778Z" fill="#617462"/>
<path d="M139.74 45.4458C139.71 43.6376 139.7 43.4289 139.65 42.4751H141.37C141.39 42.9222 141.4 44.9788 141.41 45.416L143.87 45.3564L143.89 46.9063L141.43 46.966C141.47 50.2448 141.49 51.6755 139.01 51.6755C138.83 51.6755 138.09 51.6754 137.09 51.4966V49.9765C137.75 50.0958 138.17 50.1752 138.83 50.1752C139.75 50.1752 139.75 49.9069 139.73 47.0156L134.72 47.125V50.9403C134.69 53.295 135.46 53.3844 138.29 53.3844C140.87 53.3844 141.81 53.3049 142.58 53.2353L142.6 54.8548C141.18 54.9343 140.48 54.9443 139.21 54.9443C135.33 54.9443 133.06 54.9443 133.08 50.8509V47.1647L130.86 47.2045V45.6544L133.1 45.5949V42.654H134.77V45.5651L139.75 45.4458H139.74Z" fill="#617462"/>
<path d="M18.9299 72.4757V73.4991H12.1699C12.9199 72.7639 14.2098 71.522 15.4698 70.0714C16.9098 68.4121 17.3899 67.6271 17.3899 66.6634C17.3899 65.5307 16.5399 64.9445 15.6099 64.9445C14.1199 64.9445 13.4298 66.1865 13.2098 66.5641L12.7499 65.3718C13.4599 64.4379 14.4399 63.9211 15.5999 63.9211C16.7599 63.9211 18.4999 64.5968 18.4999 66.6534C18.4999 67.5576 18.2199 68.3127 17.2599 69.5348C16.7599 70.1806 15.9899 71.0946 14.6499 72.4757H18.9199H18.9299Z" fill="#617462"/>
<path d="M20.23 68.8095C20.23 67.8656 20.23 63.9211 23.5 63.9211C26.77 63.9211 26.77 67.8656 26.77 68.8095C26.77 69.7534 26.77 73.6979 23.5 73.6979C20.23 73.6979 20.23 69.7633 20.23 68.8095ZM25.65 68.8095C25.65 67.2496 25.41 64.9445 23.5 64.9445C21.59 64.9445 21.35 67.1801 21.35 68.8095C21.35 70.4389 21.64 72.6745 23.5 72.6745C25.36 72.6745 25.65 70.4191 25.65 68.8095Z" fill="#617462"/>
<path d="M34.7698 72.4757V73.4991H28.0098C28.7598 72.7639 30.0498 71.522 31.3098 70.0714C32.7498 68.4121 33.2297 67.6271 33.2297 66.6634C33.2297 65.5307 32.3798 64.9445 31.4498 64.9445C29.9598 64.9445 29.2698 66.1865 29.0498 66.5641L28.5897 65.3718C29.2997 64.4379 30.2798 63.9211 31.4398 63.9211C32.5998 63.9211 34.3397 64.5968 34.3397 66.6534C34.3397 67.5576 34.0597 68.3127 33.0997 69.5348C32.5997 70.1806 31.8297 71.0946 30.4897 72.4757H34.7598H34.7698Z" fill="#617462"/>
<path d="M41.78 65.1347H37.73V67.9465C38.04 67.8272 38.4101 67.6682 39.1901 67.6682C41.4001 67.6682 42.5601 69.1387 42.5601 70.6489C42.5601 72.1591 41.46 73.6893 38.89 73.6893C37.85 73.6893 36.9601 73.4608 36.0601 72.9541L36.41 71.9307C37.13 72.4274 37.99 72.6659 38.88 72.6659C40.93 72.6659 41.42 71.4239 41.42 70.629C41.42 69.397 40.44 68.6519 39.14 68.6519C38.34 68.6519 37.89 68.95 37.71 69.0692H36.6801V64.1113H41.78V65.1347Z" fill="#617462"/>
<path d="M45.6802 71.9492V73.5092H44.1602V71.9492H45.6802Z" fill="#617462"/>
<path d="M47.2197 68.8095C47.2197 67.8656 47.2197 63.9211 50.4897 63.9211C53.7597 63.9211 53.7598 67.8656 53.7598 68.8095C53.7598 69.7534 53.7597 73.6979 50.4897 73.6979C47.2197 73.6979 47.2197 69.7633 47.2197 68.8095ZM52.6398 68.8095C52.6398 67.2496 52.3997 64.9445 50.4897 64.9445C48.5797 64.9445 48.3397 67.1801 48.3397 68.8095C48.3397 70.4389 48.6297 72.6745 50.4897 72.6745C52.3497 72.6745 52.6398 70.4191 52.6398 68.8095Z" fill="#617462"/>
<path d="M61.7598 64.1113V65.1943L56.8798 73.5004H55.5997L60.5598 65.1347H55.0698V64.1113H61.7598Z" fill="#617462"/>
<path d="M64.75 71.9492V73.5092H63.23V71.9492H64.75Z" fill="#617462"/>
<path d="M66.2798 68.8095C66.2798 67.8656 66.2798 63.9211 69.5498 63.9211C72.8198 63.9211 72.8198 67.8656 72.8198 68.8095C72.8198 69.7534 72.8198 73.6979 69.5498 73.6979C66.2798 73.6979 66.2798 69.7633 66.2798 68.8095ZM71.7097 68.8095C71.7097 67.2496 71.4698 64.9445 69.5598 64.9445C67.6498 64.9445 67.4098 67.1801 67.4098 68.8095C67.4098 70.4389 67.6998 72.6745 69.5598 72.6745C71.4198 72.6745 71.7097 70.4191 71.7097 68.8095Z" fill="#617462"/>
<path d="M78.4801 73.5004V71.404H74.0801V70.4304L78.4102 64.1113H79.6101V70.4005H80.9001V71.404H79.6101V73.5004H78.4801ZM75.2301 70.4005H78.4801V65.6216L75.2301 70.4005Z" fill="#617462"/>
<path d="M2.26001 40.7712H-0.25V75.3571H2.26001V40.7712Z" fill="#899284"/>
<path d="M25.8098 109.589C24.9798 109.54 21.7597 109.351 19.0797 108.496C16.9297 109.242 14.6698 109.55 12.4098 109.589L12.0498 108.347C13.9398 108.347 15.3597 108.179 17.2397 107.771C16.9697 107.652 16.1598 107.254 15.0198 106.41C14.4198 106.698 13.8997 106.937 12.7297 107.245L12.0897 105.963C13.6297 105.715 15.2198 104.93 16.0198 104.264H13.5698V97.9747H17.9797C18.0897 97.7759 18.1898 97.5573 18.2698 97.3189H12.1698V96.1167H26.1198V97.3189H19.8297C19.7297 97.607 19.6798 97.7064 19.5598 97.9747H24.6998V104.264H17.9398C17.7598 104.492 17.6498 104.622 17.3698 104.89H23.7498V105.874C23.2998 106.291 22.5697 106.957 20.9797 107.731C22.6597 108.059 24.6197 108.198 26.2397 108.208L25.8297 109.579L25.8098 109.589ZM23.1798 98.998H15.1097V99.7532H23.1798V98.998ZM23.1798 100.697H15.1097V101.502H23.1798V100.697ZM23.1798 102.376H15.1097V103.191H23.1798V102.376ZM16.3098 105.923C16.8598 106.301 17.5698 106.738 19.0598 107.245C20.5598 106.708 21.1798 106.251 21.6198 105.923H16.3098Z" fill="#617462"/>
<path d="M29.5797 102.223C28.6197 102.66 28.1398 102.839 27.6198 103.028L26.9897 101.507C29.7497 100.762 31.0998 99.8283 31.4398 99.57H27.1398V98.1988H33.3898V97.4736C32.6698 97.4934 29.1397 97.5531 28.3397 97.5531L28.0398 96.1522C32.5798 96.2416 36.9297 96.1124 39.5897 95.4666L40.1998 96.8576C38.2998 97.255 36.1198 97.394 34.8798 97.4338V98.2088H41.0997V99.5799H36.5598C37.9998 100.653 39.3898 101.199 41.2998 101.587L40.6097 103.047C40.1097 102.869 39.5298 102.67 38.5598 102.213V103.236C37.6398 103.832 36.4797 104.419 34.9797 105.084H41.1097V106.505H34.8898V108.184C34.8898 108.78 34.6398 109.645 33.3098 109.645H31.2397L30.9897 108.085H32.9098C33.2698 108.085 33.3198 107.906 33.3198 107.687V106.505H27.1498V105.084H33.3198V104.22H33.9897C34.5397 104.011 35.6898 103.505 36.1298 103.236H29.5897V102.223H29.5797ZM33.3898 101.895V99.6296C32.1798 100.842 30.8997 101.557 30.2397 101.895H33.3898ZM37.8998 101.895C37.5998 101.746 36.0998 100.981 34.8698 99.719V101.895H37.8998Z" fill="#617462"/>
<path d="M43.6399 102.343C43.1299 103.028 42.8599 103.277 42.5599 103.585L41.8999 101.737C43.8999 99.5312 44.3799 97.0274 44.5699 95.6265L46.2098 95.8351C46.0998 96.5504 45.9099 97.7725 45.1699 99.5609V109.616H43.6399V102.343ZM45.5099 106.158C47.3499 104.479 48.7199 102.343 49.6199 100.008H46.0798V98.5178H50.2V95.6265H51.7999V98.5178H56.1199V100.008H52.3699C52.7699 101.33 53.9098 103.962 56.3398 106.099L55.3499 107.708C54.7099 107.082 53.0599 105.503 51.7999 102.015V109.616H50.2V101.836C48.85 105.304 47.2399 106.943 46.5499 107.649L45.4999 106.158H45.5099Z" fill="#617462"/>
<path d="M61.1299 108.426H57.3799V96.235H61.1299V108.426ZM59.8099 97.6955H58.7198V101.461H59.8099V97.6955ZM59.8099 102.882H58.7198V106.966H59.8099V102.882ZM65.9999 100.885H63.2499V102.445H65.9999V103.895H63.2499V105.445H65.9999V106.876H63.2499V109.618H61.8999V95.9966H65.9899V100.885H65.9999ZM64.7098 97.4471H63.2499V99.4243H64.7098V97.4471ZM65.2098 108.357C65.8198 108.049 66.7399 107.572 67.6099 106.687C67.2299 106.041 66.8699 105.406 66.5199 103.935L67.8398 103.607C68.0798 104.482 68.2499 104.919 68.5599 105.545C69.0799 104.71 69.2799 103.885 69.3999 103.339H66.3899V101.938H70.8398V103.339C70.4498 105.197 69.7299 106.3 69.3799 106.777C70.0699 107.611 70.8998 108.128 71.3298 108.396L70.4799 109.618C69.3799 108.913 68.9 108.396 68.45 107.86C67.82 108.506 67.3399 108.903 66.1599 109.618L65.2198 108.357H65.2098ZM70.8298 100.885H66.6199V99.4243H69.4899V97.4471H66.6199V95.9966H70.8298V100.885Z" fill="#617462"/>
<path d="M79.0596 107.208C80.6496 107.059 83.9895 106.523 83.9895 102.529C83.9895 100.869 83.2996 98.4153 79.9396 98.2563C79.4796 104.883 77.4795 107.645 75.4095 107.645C73.6695 107.645 72.5596 105.668 72.5596 103.373C72.5596 99.1903 75.6795 96.6865 79.5295 96.6865C84.1995 96.6865 85.7495 99.7864 85.7495 102.588C85.7495 108.222 80.6695 108.728 79.5995 108.828L79.0496 107.218L79.0596 107.208ZM74.1896 103.413C74.1896 104.277 74.5095 105.857 75.4795 105.857C76.0495 105.857 76.4695 105.35 76.8295 104.695C77.8495 102.847 78.1396 100.571 78.3196 98.3357C75.6196 98.8325 74.1996 100.959 74.1996 103.413H74.1896Z" fill="#617462"/>
<path d="M96.7699 98.0453V99.5753H93.3099V101.195C93.6399 101.135 94.2399 101.046 95.1499 101.046C99.4399 101.046 100.27 103.411 100.27 104.98C100.27 106.014 99.88 107.653 97.7 108.418C96.77 108.746 95.8699 108.825 94.8699 108.835L94.6099 107.345C95.8099 107.325 98.4799 107.266 98.4799 104.97C98.4799 103.887 97.7699 102.486 95.2699 102.486C94.7499 102.486 94.1299 102.536 93.3099 102.655V106.858C93.3099 108.021 92.5999 108.577 91.2299 108.577C89.0199 108.577 87.8999 107.206 87.8999 105.616C87.8999 103.083 90.3299 102.099 91.6899 101.562V99.5852H88.1799V98.0553H91.6899V96.2966H93.3099V98.0553H96.7699V98.0453ZM91.7 103.093C90.87 103.47 89.4598 104.106 89.4598 105.507C89.4598 106.342 90.1298 106.977 91.0898 106.977C91.6898 106.977 91.6899 106.729 91.6899 106.51V103.083L91.7 103.093ZM97.9399 96.3165C99.3599 97.4293 100.27 98.8202 100.93 100.211L99.4598 101.086C98.8898 99.9231 98.0899 98.403 96.6499 97.171L97.9399 96.3263V96.3165Z" fill="#617462"/>
<path d="M108.09 108.503C106.97 107.072 106.68 106.655 106.1 105.641C105.42 107.36 104.49 108.503 102.99 109.546L101.9 108.224C103.79 107.052 104.87 105.423 105.23 103.207H102V101.736H105.35V98.9049H104.57C104.25 99.4811 104.02 99.9382 103.27 101.011L101.92 100.147C102.4 99.5805 103.65 98.0802 104.2 95.5466L105.78 95.8149C105.51 96.6793 105.42 96.9476 105.24 97.4245H109.18V98.9148H106.85V101.746H109.37V103.217H106.75C106.72 103.465 106.71 103.515 106.69 103.654C107.44 105.244 107.93 105.87 109.33 107.449L108.1 108.522L108.09 108.503ZM115.68 109.258H109.79V96.411H115.68V109.258ZM114.1 97.8715H111.25V107.797H114.1V97.8715Z" fill="#617462"/>
<path d="M120.06 98.6501C119.81 99.5642 119.64 100.349 119.63 102.495C121.13 101.422 122.69 100.856 124.53 100.856C128.03 100.856 128.67 103.181 128.67 104.413C128.67 107.602 125.97 108.824 121.85 108.824C120.45 108.824 119.59 108.705 119 108.635L118.82 107.026C119.45 107.115 120.4 107.264 121.74 107.264C125.61 107.264 126.91 106.102 126.91 104.363C126.91 103.399 126.24 102.356 124.38 102.356C122.52 102.356 120.63 103.141 119.65 104.343C119.62 104.492 119.62 104.552 119.61 104.651L117.94 104.612C118 100.598 118.03 100.071 118.36 98.4613L120.06 98.67V98.6501ZM126.33 98.819C124.82 98.203 122.79 97.8254 120.15 97.6863L120.47 96.1265C124.04 96.2556 125.78 96.7723 126.78 97.0605L126.33 98.819Z" fill="#617462"/>
<path d="M139.74 99.1872C139.71 97.3889 139.7 97.1803 139.65 96.2264L141.37 96.2065C141.39 96.6636 141.4 98.7303 141.41 99.1575L143.87 99.0978L143.89 100.648L141.43 100.707C141.47 103.986 141.49 105.417 139.01 105.417C138.83 105.417 138.09 105.417 137.09 105.238V103.718C137.75 103.837 138.17 103.917 138.83 103.917C139.75 103.917 139.75 103.648 139.73 100.757L134.72 100.856V104.672C134.69 107.026 135.46 107.116 138.29 107.116C140.87 107.116 141.81 107.046 142.58 106.967L142.6 108.586C141.18 108.666 140.48 108.676 139.21 108.676C135.33 108.676 133.06 108.676 133.08 104.582V100.906L130.86 100.946V99.396L133.1 99.3363V96.3954H134.77V99.3064L139.75 99.1872H139.74Z" fill="#617462"/>
<path d="M18.9299 126.218V127.241H12.1699C12.9199 126.506 14.2098 125.264 15.4698 123.813C16.9098 122.154 17.3899 121.369 17.3899 120.405C17.3899 119.273 16.5399 118.686 15.6099 118.686C14.1199 118.686 13.4298 119.928 13.2098 120.306L12.7499 119.114C13.4599 118.18 14.4399 117.663 15.5999 117.663C16.7599 117.663 18.4999 118.339 18.4999 120.395C18.4999 121.3 18.2199 122.055 17.2599 123.277C16.7599 123.922 15.9899 124.837 14.6499 126.218H18.9199H18.9299Z" fill="#617462"/>
<path d="M20.23 122.551C20.23 121.607 20.23 117.663 23.5 117.663C26.77 117.663 26.77 121.607 26.77 122.551C26.77 123.495 26.77 127.44 23.5 127.44C20.23 127.44 20.23 123.505 20.23 122.551ZM25.65 122.551C25.65 120.991 25.41 118.686 23.5 118.686C21.59 118.686 21.35 120.922 21.35 122.551C21.35 124.181 21.64 126.416 23.5 126.416C25.36 126.416 25.65 124.161 25.65 122.551Z" fill="#617462"/>
<path d="M34.7698 126.218V127.241H28.0098C28.7598 126.506 30.0498 125.264 31.3098 123.813C32.7498 122.154 33.2297 121.369 33.2297 120.405C33.2297 119.273 32.3798 118.686 31.4498 118.686C29.9598 118.686 29.2698 119.928 29.0498 120.306L28.5897 119.114C29.2997 118.18 30.2798 117.663 31.4398 117.663C32.5998 117.663 34.3397 118.339 34.3397 120.395C34.3397 121.3 34.0597 122.055 33.0997 123.277C32.5997 123.922 31.8297 124.837 30.4897 126.218H34.7598H34.7698Z" fill="#617462"/>
<path d="M41.78 118.876H37.73V121.688C38.04 121.569 38.4101 121.41 39.1901 121.41C41.4001 121.41 42.5601 122.88 42.5601 124.391C42.5601 125.901 41.46 127.431 38.89 127.431C37.85 127.431 36.9601 127.202 36.0601 126.696L36.41 125.672C37.13 126.169 37.99 126.408 38.88 126.408C40.93 126.408 41.42 125.166 41.42 124.371C41.42 123.139 40.44 122.394 39.14 122.394C38.34 122.394 37.89 122.692 37.71 122.811H36.6801V117.853H41.78V118.876Z" fill="#617462"/>
<path d="M45.6802 125.691V127.251H44.1602V125.691H45.6802Z" fill="#617462"/>
<path d="M47.2197 122.551C47.2197 121.607 47.2197 117.663 50.4897 117.663C53.7597 117.663 53.7598 121.607 53.7598 122.551C53.7598 123.495 53.7597 127.44 50.4897 127.44C47.2197 127.44 47.2197 123.505 47.2197 122.551ZM52.6398 122.551C52.6398 120.991 52.3997 118.686 50.4897 118.686C48.5797 118.686 48.3397 120.922 48.3397 122.551C48.3397 124.181 48.6297 126.416 50.4897 126.416C52.3497 126.416 52.6398 124.161 52.6398 122.551Z" fill="#617462"/>
<path d="M61.7598 117.853V118.936L56.8798 127.242H55.5997L60.5598 118.876H55.0698V117.853H61.7598Z" fill="#617462"/>
<path d="M64.75 125.691V127.251H63.23V125.691H64.75Z" fill="#617462"/>
<path d="M66.2798 122.551C66.2798 121.607 66.2798 117.663 69.5498 117.663C72.8198 117.663 72.8198 121.607 72.8198 122.551C72.8198 123.495 72.8198 127.44 69.5498 127.44C66.2798 127.44 66.2798 123.505 66.2798 122.551ZM71.7097 122.551C71.7097 120.991 71.4698 118.686 69.5598 118.686C67.6498 118.686 67.4098 120.922 67.4098 122.551C67.4098 124.181 67.6998 126.416 69.5598 126.416C71.4198 126.416 71.7097 124.161 71.7097 122.551Z" fill="#617462"/>
<path d="M78.4801 127.242V125.146H74.0801V124.172L78.4102 117.853H79.6101V124.142H80.9001V125.146H79.6101V127.242H78.4801ZM75.2301 124.142H78.4801V119.363L75.2301 124.142Z" fill="#617462"/>
<path d="M2.26001 94.5129H-0.25V129.099H2.26001V94.5129Z" fill="#899284"/>
<path d="M25.8098 163.331C24.9798 163.292 21.7597 163.093 19.0797 162.248C16.9297 162.994 14.6698 163.302 12.4098 163.331L12.0498 162.089C13.9398 162.089 15.3597 161.921 17.2397 161.513C16.9697 161.394 16.1598 160.997 15.0198 160.152C14.4198 160.44 13.8997 160.679 12.7297 160.987L12.0897 159.705C13.6297 159.456 15.2198 158.672 16.0198 158.006H13.5698V151.717H17.9797C18.0897 151.518 18.1898 151.299 18.2698 151.061H12.1698V149.859H26.1198V151.061H19.8297C19.7297 151.349 19.6798 151.448 19.5598 151.717H24.6998V158.006H17.9398C17.7598 158.224 17.6498 158.364 17.3698 158.632H23.7498V159.615C23.2998 160.033 22.5697 160.698 20.9797 161.473C22.6597 161.801 24.6197 161.94 26.2397 161.95L25.8297 163.321L25.8098 163.331ZM23.1798 152.74H15.1097V153.495H23.1798V152.74ZM23.1798 154.439H15.1097V155.244H23.1798V154.439ZM23.1798 156.118H15.1097V156.943H23.1798V156.118ZM16.3098 159.665C16.8598 160.043 17.5698 160.48 19.0598 160.987C20.5598 160.45 21.1798 159.993 21.6198 159.665H16.3098Z" fill="#617462"/>
<path d="M29.5797 155.965C28.6197 156.402 28.1398 156.581 27.6198 156.77L26.9897 155.25C29.7497 154.504 31.0998 153.57 31.4398 153.312H27.1398V151.941H33.3898V151.216C32.6698 151.226 29.1397 151.295 28.3397 151.295L28.0398 149.894C32.5798 149.984 36.9297 149.855 39.5897 149.209L40.1998 150.6C38.2998 150.997 36.1198 151.136 34.8798 151.176V151.951H41.0997V153.322H36.5598C37.9998 154.395 39.3898 154.942 41.2998 155.329L40.6097 156.79C40.1097 156.611 39.5298 156.412 38.5598 155.955V156.988C37.6398 157.584 36.4797 158.161 34.9797 158.836H41.1097V160.257H34.8898V161.936C34.8898 162.532 34.6398 163.397 33.3098 163.397H31.2397L30.9897 161.837H32.9098C33.2698 161.837 33.3198 161.658 33.3198 161.429V160.257H27.1498V158.836H33.3198V157.972H33.9897C34.5397 157.763 35.6898 157.257 36.1298 156.988H29.5897V155.975L29.5797 155.965ZM33.3898 155.637V153.372C32.1798 154.574 30.8997 155.289 30.2397 155.637H33.3898ZM37.8998 155.637C37.5998 155.488 36.0998 154.723 34.8698 153.461V155.637H37.8998Z" fill="#617462"/>
<path d="M43.6399 156.085C43.1299 156.771 42.8599 157.029 42.5599 157.327L41.8999 155.479C43.8999 153.273 44.3799 150.77 44.5699 149.369L46.2098 149.577C46.0998 150.293 45.9099 151.515 45.1699 153.303V163.358H43.6399V156.085ZM45.5099 159.9C47.3499 158.221 48.7199 156.085 49.6199 153.75H46.0798V152.26H50.2V149.369H51.7999V152.26H56.1199V153.75H52.3699C52.7699 155.072 53.9098 157.695 56.3398 159.841L55.3499 161.45C54.7099 160.824 53.0599 159.245 51.7999 155.757V163.358H50.2V155.578C48.85 159.056 47.2399 160.685 46.5499 161.391L45.4999 159.9H45.5099Z" fill="#617462"/>
<path d="M61.1299 162.168H57.3799V149.977H61.1299V162.168ZM59.8099 151.438H58.7198V155.203H59.8099V151.438ZM59.8099 156.624H58.7198V160.707H59.8099V156.624ZM65.9999 154.627H63.2499V156.197H65.9999V157.647H63.2499V159.197H65.9999V160.628H63.2499V163.37H61.8999V149.748H65.9899V154.637L65.9999 154.627ZM64.7098 151.189H63.2499V153.176H64.7098V151.189ZM65.2098 162.098C65.8198 161.79 66.7399 161.313 67.6099 160.429C67.2299 159.783 66.8699 159.148 66.5199 157.667L67.8398 157.339C68.0798 158.214 68.2499 158.651 68.5599 159.277C69.0799 158.442 69.2799 157.617 69.3999 157.071H66.3899V155.67H70.8398V157.071C70.4498 158.939 69.7299 160.042 69.3799 160.509C70.0699 161.343 70.8998 161.87 71.3298 162.128L70.4799 163.35C69.3799 162.645 68.9 162.128 68.45 161.592C67.82 162.238 67.3399 162.635 66.1599 163.35L65.2198 162.079L65.2098 162.098ZM70.8298 154.627H66.6199V153.166H69.4899V151.179H66.6199V149.729H70.8298V154.617V154.627Z" fill="#617462"/>
<path d="M79.0596 160.95C80.6496 160.801 83.9895 160.265 83.9895 156.271C83.9895 154.612 83.2996 152.157 79.9396 151.998C79.4796 158.625 77.4795 161.388 75.4095 161.388C73.6695 161.388 72.5596 159.4 72.5596 157.115C72.5596 152.932 75.6795 150.419 79.5295 150.419C84.1995 150.419 85.7495 153.519 85.7495 156.32C85.7495 161.954 80.6695 162.461 79.5995 162.56L79.0496 160.95H79.0596ZM74.1896 157.155C74.1896 158.019 74.5095 159.599 75.4795 159.599C76.0495 159.599 76.4695 159.092 76.8295 158.437C77.8495 156.589 78.1396 154.304 78.3196 152.068C75.6196 152.565 74.1996 154.691 74.1996 157.155H74.1896Z" fill="#617462"/>
<path d="M96.7699 151.787V153.317H93.3099V154.937C93.6399 154.877 94.2399 154.788 95.1499 154.788C99.4399 154.788 100.27 157.152 100.27 158.722C100.27 159.756 99.88 161.385 97.7 162.16C96.77 162.488 95.8699 162.567 94.8699 162.577L94.6099 161.087C95.8099 161.077 98.4799 161.007 98.4799 158.722C98.4799 157.639 97.7699 156.238 95.2699 156.238C94.7499 156.238 94.1299 156.278 93.3099 156.407V160.61C93.3099 161.773 92.5999 162.329 91.2299 162.329C89.0199 162.329 87.8999 160.958 87.8999 159.358C87.8999 156.825 90.3299 155.841 91.6899 155.304V153.327H88.1799V151.797H91.6899V150.039H93.3099V151.797H96.7699V151.787ZM91.7 156.834C90.87 157.212 89.4598 157.848 89.4598 159.249C89.4598 160.083 90.1298 160.719 91.0898 160.719C91.6898 160.719 91.6899 160.471 91.6899 160.262V156.834H91.7ZM97.9399 150.058C99.3599 151.171 100.27 152.562 100.93 153.953L99.4598 154.827C98.8898 153.665 98.0899 152.145 96.6499 150.903L97.9399 150.058Z" fill="#617462"/>
<path d="M108.09 162.245C106.97 160.814 106.68 160.397 106.1 159.383C105.42 161.092 104.49 162.245 102.99 163.288L101.9 161.967C103.79 160.794 104.87 159.165 105.23 156.949H102V155.469H105.35V152.637H104.57C104.25 153.213 104.02 153.67 103.27 154.743L101.92 153.879C102.4 153.313 103.65 151.812 104.2 149.279L105.78 149.547C105.51 150.411 105.42 150.68 105.24 151.157H109.18V152.647H106.85V155.479H109.37V156.959H106.75C106.72 157.207 106.71 157.257 106.69 157.386C107.44 158.986 107.93 159.612 109.33 161.192L108.1 162.265L108.09 162.245ZM115.68 163H109.79V150.153H115.68V163ZM114.1 151.614H111.25V161.539H114.1V151.614Z" fill="#617462"/>
<path d="M120.06 152.392C119.81 153.306 119.64 154.091 119.63 156.237C121.13 155.164 122.69 154.598 124.53 154.598C128.03 154.598 128.67 156.923 128.67 158.155C128.67 161.344 125.97 162.566 121.85 162.566C120.45 162.566 119.59 162.447 119 162.368L118.82 160.758C119.45 160.848 120.4 160.997 121.74 160.997C125.61 160.997 126.91 159.834 126.91 158.095C126.91 157.132 126.24 156.078 124.38 156.078C122.52 156.078 120.63 156.863 119.65 158.065C119.62 158.214 119.62 158.274 119.61 158.383L117.94 158.344C118 154.33 118.03 153.793 118.36 152.184L120.06 152.392ZM126.33 152.561C124.82 151.945 122.79 151.568 120.15 151.429L120.47 149.859C124.04 149.988 125.78 150.505 126.78 150.803L126.33 152.561Z" fill="#617462"/>
<path d="M139.74 152.929C139.71 151.131 139.7 150.922 139.65 149.969L141.37 149.949C141.39 150.406 141.4 152.472 141.41 152.9L143.87 152.84L143.89 154.39L141.43 154.449C141.47 157.728 141.49 159.159 139.01 159.159C138.83 159.159 138.09 159.159 137.09 158.98V157.46C137.75 157.579 138.17 157.659 138.83 157.659C139.75 157.659 139.75 157.39 139.73 154.499L134.72 154.599V158.414C134.69 160.769 135.46 160.858 138.29 160.858C140.87 160.858 141.81 160.788 142.58 160.709L142.6 162.328C141.18 162.408 140.48 162.418 139.21 162.418C135.33 162.418 133.06 162.418 133.08 158.324V154.648L130.86 154.688V153.138L133.1 153.078V150.137H134.77V153.039L139.75 152.919L139.74 152.929Z" fill="#617462"/>
<path d="M18.9299 179.959V180.983H12.1699C12.9199 180.248 14.2098 179.005 15.4698 177.555C16.9098 175.896 17.3899 175.111 17.3899 174.147C17.3899 173.014 16.5399 172.428 15.6099 172.428C14.1199 172.428 13.4298 173.67 13.2098 174.048L12.7499 172.855C13.4599 171.921 14.4399 171.405 15.5999 171.405C16.7599 171.405 18.4999 172.08 18.4999 174.137C18.4999 175.041 18.2199 175.796 17.2599 177.018C16.7599 177.664 15.9899 178.578 14.6499 179.959H18.9199H18.9299Z" fill="#617462"/>
<path d="M20.23 176.293C20.23 175.349 20.23 171.405 23.5 171.405C26.77 171.405 26.77 175.349 26.77 176.293C26.77 177.237 26.77 181.181 23.5 181.181C20.23 181.181 20.23 177.247 20.23 176.293ZM25.65 176.293C25.65 174.733 25.41 172.428 23.5 172.428C21.59 172.428 21.35 174.664 21.35 176.293C21.35 177.923 21.64 180.158 23.5 180.158C25.36 180.158 25.65 177.903 25.65 176.293Z" fill="#617462"/>
<path d="M34.7698 179.959V180.983H28.0098C28.7598 180.248 30.0498 179.005 31.3098 177.555C32.7498 175.896 33.2297 175.111 33.2297 174.147C33.2297 173.014 32.3798 172.428 31.4498 172.428C29.9598 172.428 29.2698 173.67 29.0498 174.048L28.5897 172.855C29.2997 171.921 30.2798 171.405 31.4398 171.405C32.5998 171.405 34.3397 172.08 34.3397 174.137C34.3397 175.041 34.0597 175.796 33.0997 177.018C32.5997 177.664 31.8297 178.578 30.4897 179.959H34.7598H34.7698Z" fill="#617462"/>
<path d="M41.78 172.618H37.73V175.43C38.04 175.311 38.4101 175.152 39.1901 175.152C41.4001 175.152 42.5601 176.612 42.5601 178.132C42.5601 179.653 41.46 181.173 38.89 181.173C37.85 181.173 36.9601 180.944 36.0601 180.437L36.41 179.414C37.13 179.911 37.99 180.149 38.88 180.149C40.93 180.149 41.42 178.907 41.42 178.113C41.42 176.881 40.44 176.135 39.14 176.135C38.34 176.135 37.89 176.433 37.71 176.553H36.6801V171.595H41.78V172.618Z" fill="#617462"/>
<path d="M45.6802 179.432V180.992H44.1602V179.432H45.6802Z" fill="#617462"/>
<path d="M47.2197 176.293C47.2197 175.349 47.2197 171.405 50.4897 171.405C53.7597 171.405 53.7598 175.349 53.7598 176.293C53.7598 177.237 53.7597 181.181 50.4897 181.181C47.2197 181.181 47.2197 177.247 47.2197 176.293ZM52.6398 176.293C52.6398 174.733 52.3997 172.428 50.4897 172.428C48.5797 172.428 48.3397 174.664 48.3397 176.293C48.3397 177.923 48.6297 180.158 50.4897 180.158C52.3497 180.158 52.6398 177.903 52.6398 176.293Z" fill="#617462"/>
<path d="M61.7598 171.595V172.678L56.8798 180.984H55.5997L60.5598 172.618H55.0698V171.595H61.7598Z" fill="#617462"/>
<path d="M64.75 179.432V180.992H63.23V179.432H64.75Z" fill="#617462"/>
<path d="M66.2798 176.293C66.2798 175.349 66.2798 171.405 69.5498 171.405C72.8198 171.405 72.8198 175.349 72.8198 176.293C72.8198 177.237 72.8198 181.181 69.5498 181.181C66.2798 181.181 66.2798 177.247 66.2798 176.293ZM71.7097 176.293C71.7097 174.733 71.4698 172.428 69.5598 172.428C67.6498 172.428 67.4098 174.664 67.4098 176.293C67.4098 177.923 67.6998 180.158 69.5598 180.158C71.4198 180.158 71.7097 177.903 71.7097 176.293Z" fill="#617462"/>
<path d="M78.4801 180.984V178.888H74.0801V177.914L78.4102 171.595H79.6101V177.884H80.9001V178.888H79.6101V180.984H78.4801ZM75.2301 177.884H78.4801V173.105L75.2301 177.884Z" fill="#617462"/>
<path d="M2.26001 148.254H-0.25V182.84H2.26001V148.254Z" fill="#899284"/>
</g>
<defs>
<clipPath id="clip0_88_8090">
<rect width="150" height="181" fill="white"/>
</clipPath>
</defs>
</svg>
