<svg width="394" height="557" viewBox="0 0 394 557" fill="none" xmlns="http://www.w3.org/2000/svg">
<path d="M391.423 1.75342H1.83325V555.063H391.423V1.75342Z" fill="white"/>
<path d="M390.923 2.25342V554.563H2.33325V2.25342H390.923ZM391.923 1.25342H1.33325V555.563H391.923V1.25342Z" fill="#99A893"/>
<path d="M196.534 157.097L76.3263 277.305C71.5112 282.12 71.5097 289.926 76.3229 294.739C81.1361 299.552 88.9413 299.551 93.7565 294.735L213.965 174.527C218.78 169.712 218.781 161.907 213.968 157.094C209.155 152.281 201.35 152.282 196.534 157.097Z" fill="#F5EFED"/>
<path d="M182.299 202.926L62.091 323.134C57.2758 327.95 57.2743 335.755 62.0875 340.568C66.9008 345.381 74.7059 345.38 79.5211 340.564L199.729 220.356C204.544 215.541 204.546 207.736 199.733 202.923C194.92 198.11 187.114 198.111 182.299 202.926Z" fill="#F5EFED"/>
<path d="M97.3584 194.024L30.6074 260.775C25.7923 265.59 25.7909 273.396 30.6041 278.209C35.4174 283.022 43.2224 283.02 48.0375 278.205L114.789 211.454C119.604 206.639 119.605 198.834 114.792 194.021C109.979 189.208 102.174 189.209 97.3584 194.024Z" fill="#F5EFED"/>
<path d="M269.755 292.14L203.004 358.891C198.189 363.706 198.188 371.512 203.001 376.325C207.814 381.138 215.619 381.136 220.434 376.321L287.185 309.57C292 304.755 292.002 296.95 287.189 292.137C282.376 287.324 274.57 287.325 269.755 292.14Z" fill="#F5EFED"/>
<path d="M279.188 252.447L212.437 319.198C207.622 324.013 207.621 331.819 212.434 336.632C217.247 341.445 225.052 341.443 229.867 336.628L296.618 269.877C301.433 265.062 301.435 257.257 296.622 252.444C291.809 247.63 284.003 247.632 279.188 252.447Z" fill="#F5EFED"/>
<path d="M312.202 304.071L273.714 342.559C268.899 347.374 268.898 355.18 273.711 359.993C278.524 364.806 286.33 364.805 291.145 359.99L329.633 321.502C334.448 316.687 334.449 308.881 329.636 304.068C324.823 299.255 317.017 299.256 312.202 304.071Z" fill="#F5EFED"/>
<path d="M135.963 237.354C140.373 246.184 253.773 333.743 277.703 351.563C279.493 352.893 281.923 352.604 283.433 350.894C285.083 349.034 285.023 346.134 283.283 344.394C262.073 323.054 158.423 223.193 149.313 220.323L144.503 226.433L135.963 237.343V237.354Z" fill="#617462"/>
<path d="M131.123 218.463L136.253 223.023L127.753 232.583C113.863 223.023 101.613 223.953 101.613 223.953C95.2633 205.743 83.9031 183.083 79.4531 174.453L105.553 197.653C104.063 200.313 104.553 203.733 106.933 205.843C109.543 208.163 113.503 208.054 115.983 205.624L130.733 218.894L131.123 218.463Z" fill="#B3A361"/>
<path d="M133.123 188.513C133.123 188.513 133.633 200.783 144.743 213.473L136.253 223.023L131.123 218.463L131.563 217.973L116.803 204.713C118.923 201.963 118.373 198.243 115.763 195.923C113.383 193.813 109.933 193.723 107.453 195.533L81.3333 172.323C90.4133 175.713 114.263 184.343 133.113 188.523L133.123 188.513Z" fill="#B3A361"/>
<path d="M146.683 214.418L129.531 233.717L136.049 239.51L153.201 220.211L146.683 214.418Z" fill="#B3A361"/>
<path d="M286.003 159.803C285.743 160.863 285.453 161.854 285.123 162.854C278.623 183.254 262.023 187.354 262.023 187.354L244.593 178.683C244.593 178.683 242.213 170.793 244.393 159.793C245.073 156.353 246.193 152.653 247.963 148.743C255.423 132.413 277.913 137.634 278.053 121.664C278.053 121.664 291.723 136.753 286.003 159.803Z" fill="white"/>
<path d="M262.483 186.943C262.483 186.943 248.653 214.143 246.783 217.973C244.913 221.803 234.703 214.233 234.703 214.233L252.063 181.693" fill="#96AA99"/>
<path d="M245.133 178.313C245.133 178.313 230.493 204.453 228.343 208.133C226.203 211.813 238.173 216.083 238.173 216.083L255.533 183.543" fill="#96AA99"/>
<path d="M247.453 216.644C246.723 224.254 190.533 311.813 177.893 331.823C176.943 333.323 175.053 333.864 173.443 333.124C171.683 332.314 170.893 330.243 171.683 328.473C181.283 306.823 223.133 211.653 229.073 206.813L236.463 210.743L247.453 216.644Z" fill="#899284"/>
<path d="M286.003 159.803C285.743 160.863 285.453 161.854 285.123 162.854C283.573 164.834 281.843 166.643 279.873 168.253C277.053 170.583 273.653 172.373 270.093 173.093C266.483 173.823 262.943 171.543 261.923 168.003C260.933 164.563 259.923 161.133 258.923 157.703C258.473 156.123 257.863 154.403 256.343 153.843C255.073 153.343 253.653 153.933 252.493 154.613C249.723 156.203 247.253 158.473 244.393 159.793C245.073 156.353 246.193 152.653 247.963 148.743C255.423 132.413 277.913 137.634 278.053 121.664C278.053 121.664 291.723 136.753 286.003 159.803Z" fill="#B3793A"/>
<path d="M351.883 139.783L303.553 134.624L351.633 127.444C355.033 126.934 358.203 129.283 358.713 132.683C359.223 136.083 356.873 139.253 353.473 139.763C352.953 139.843 352.393 139.844 351.893 139.794L351.883 139.783Z" fill="#B3793A"/>
<path d="M347.313 106.443L297.583 122.894L342.073 95.2631C344.993 93.4531 348.823 94.3431 350.633 97.2631C352.443 100.183 351.553 104.013 348.633 105.823C348.213 106.083 347.753 106.293 347.303 106.443H347.313Z" fill="#B3793A"/>
<path d="M327.383 78.9331L290.133 112.933L318.013 70.9033C319.913 68.0433 323.773 67.2633 326.633 69.1533C329.493 71.0533 330.273 74.9134 328.383 77.7734C328.103 78.2034 327.753 78.6031 327.393 78.9331H327.383Z" fill="#B3793A"/>
<path d="M86.7131 106.443H170.183C174.413 106.443 177.833 109.873 177.833 114.093V119.983C177.833 121.723 179.243 123.133 180.983 123.133H195.813C200.043 123.133 203.463 126.563 203.463 130.783V152.023C203.463 156.253 200.033 159.673 195.813 159.673H152.513C148.283 159.673 144.863 156.243 144.863 152.023V146.133C144.863 144.393 143.453 142.983 141.713 142.983H86.7031C82.4731 142.983 79.0532 139.553 79.0532 135.333V114.093C79.0532 109.863 82.4831 106.443 86.7031 106.443H86.7131Z" fill="#B3793A"/>
<path d="M103.713 123.874H98.6333L98.8933 123.953C98.8833 124.043 98.7533 124.123 98.5833 124.133C98.1833 126.913 96.9233 129.683 93.8333 131.243C93.6633 131.043 93.2632 130.693 93.0032 130.493C96.0332 128.983 97.0931 126.653 97.4531 123.883H91.5732V122.854H103.713V123.883V123.874ZM101.453 119.673H92.9133V118.644H101.453V119.673ZM101.653 117.414C102.283 118.074 102.993 119.123 103.343 119.843L102.723 120.263C102.403 119.553 101.663 118.463 101.043 117.833L101.643 117.414H101.653ZM103.463 116.894C104.093 117.554 104.833 118.603 105.203 119.313L104.573 119.693C104.253 119.013 103.483 117.923 102.883 117.293L103.463 116.894Z" fill="white"/>
<path d="M119.623 122.473H116.333V123.503C116.333 126.443 115.423 129.423 111.393 131.243C111.193 130.993 110.873 130.693 110.613 130.473C114.523 128.783 115.243 126.043 115.243 123.523V122.483H110.353V126.283H109.263V122.483H106.253V121.433H109.263V118.063L110.743 118.153C110.723 118.303 110.593 118.443 110.363 118.473V121.423H115.253V117.874L116.713 117.963C116.693 118.083 116.573 118.223 116.343 118.253V121.423H119.633V122.473H119.623ZM117.253 118.414C117.913 119.014 118.673 119.903 119.083 120.593L118.533 121.013C118.103 120.323 117.353 119.403 116.733 118.843L117.253 118.414ZM118.773 117.133C119.463 117.753 120.203 118.623 120.623 119.333L120.083 119.753C119.633 119.063 118.883 118.133 118.253 117.573L118.773 117.144V117.133Z" fill="white"/>
<path d="M133.963 118.813C133.903 118.893 133.813 118.933 133.673 118.933C133.623 118.933 133.583 118.934 133.523 118.914C132.343 120.114 130.633 121.513 129.143 122.593C129.263 122.643 129.453 122.733 129.513 122.763C129.483 122.853 129.343 122.943 129.173 122.963V131.223H128.053V123.313C126.423 124.463 124.303 125.713 122.193 126.743C122.043 126.493 121.763 126.114 121.543 125.894C125.743 123.954 130.343 120.663 132.813 117.943L133.963 118.803V118.813Z" fill="white"/>
<path d="M136.583 119.073C138.183 119.583 140.033 120.384 141.163 121.164L140.583 122.133C139.473 121.353 137.663 120.533 136.093 119.993L136.583 119.073ZM136.523 129.733C141.983 128.043 145.613 124.983 147.463 120.723C147.783 120.983 148.143 121.184 148.463 121.354C146.543 125.564 142.783 128.843 137.573 130.583C137.553 130.723 137.463 130.873 137.363 130.933L136.533 129.733H136.523Z" fill="white"/>
<path d="M155.783 130.133C155.703 130.223 155.643 130.223 155.443 130.223C154.213 130.773 152.303 131.363 150.763 131.703C150.613 131.513 150.283 131.163 150.073 130.983C151.613 130.693 153.533 130.153 154.673 129.583L155.783 130.133ZM152.033 129.383V124.403C151.603 124.543 151.123 124.663 150.583 124.773C150.493 124.543 150.273 124.143 150.093 123.963C152.183 123.543 153.343 122.993 153.983 122.343H151.733L151.643 122.573L150.673 122.513C150.993 121.823 151.333 120.833 151.583 120.023H154.733V119.104H150.753V118.383H154.733V117.414L155.983 117.493C155.973 117.603 155.893 117.673 155.693 117.703V118.383H158.243V117.414L159.533 117.493C159.513 117.603 159.423 117.673 159.223 117.703V118.383H162.743V120.753H159.223V121.644H163.193L163.763 121.723C163.763 121.813 163.733 121.893 163.713 122.003C163.533 123.663 163.343 123.914 162.133 123.914V129.403H152.033V129.383ZM151.993 121.624H154.473C154.593 121.344 154.673 121.043 154.703 120.733H152.323L152.003 121.624H151.993ZM161.083 125.243V124.213H153.043V125.243H161.083ZM161.083 126.933V125.923H153.043V126.933H161.083ZM161.083 128.673V127.613H153.043V128.673H161.083ZM158.243 122.333H155.213C154.963 122.763 154.593 123.163 154.043 123.513H161.103C161.073 123.373 161.013 123.233 160.963 123.133C161.453 123.183 161.913 123.193 162.083 123.193C162.463 123.193 162.563 123.193 162.683 122.333H159.223V123.453H158.243V122.333ZM158.243 121.624V120.733H155.673C155.643 121.043 155.593 121.334 155.523 121.624H158.243ZM155.693 119.093V120.013H158.243V119.093H155.693ZM162.813 131.703C161.803 131.243 160.073 130.653 158.303 130.153L159.133 129.604C160.873 130.064 162.763 130.684 163.913 131.144L162.803 131.713L162.813 131.703ZM161.793 119.093H159.223V120.013H161.793V119.093Z" fill="white"/>
<path d="M160.823 141.233V146.263C162.023 148.093 164.223 148.093 166.993 148.093C168.653 148.093 170.603 148.043 171.803 147.973C171.683 148.223 171.493 148.713 171.463 149.023C170.403 149.073 168.713 149.104 167.183 149.104C164.013 149.104 161.903 149.103 160.353 147.193C159.603 147.873 158.783 148.563 158.123 149.083C158.143 149.223 158.093 149.283 157.983 149.333L157.383 148.193C158.123 147.703 159.033 146.993 159.813 146.313V142.223H157.553V141.243H160.813L160.823 141.233ZM158.533 135.463C159.563 136.123 160.743 137.144 161.283 137.894L160.463 138.583C159.953 137.813 158.783 136.763 157.753 136.073L158.523 135.453L158.533 135.463ZM163.123 135.894H166.863C167.283 140.734 168.543 144.443 171.643 146.063C171.393 146.233 171.023 146.583 170.833 146.833C168.573 145.543 167.283 143.223 166.553 140.203C165.783 143.113 164.383 145.433 162.263 146.833C162.113 146.613 161.773 146.283 161.523 146.113C163.753 144.713 165.153 142.133 165.803 138.863L166.313 138.973C166.193 138.293 166.103 137.603 166.023 136.883H163.133V135.903L163.123 135.894Z" fill="white"/>
<path d="M185.643 139.523C185.593 139.693 185.433 139.803 185.193 139.803C185.023 140.863 184.773 141.983 184.513 142.943C185.343 143.293 186.223 143.694 187.093 144.144L186.603 145.173C185.773 144.753 184.973 144.353 184.183 144.023C183.443 146.233 182.383 147.853 180.753 148.933C180.533 148.713 180.153 148.453 179.873 148.283C181.493 147.223 182.483 145.773 183.193 143.573C181.643 142.953 180.223 142.523 179.083 142.433C178.023 146.313 177.063 147.323 175.223 147.323C173.383 147.323 173.023 145.843 173.023 144.903C173.023 142.523 175.503 141.414 178.253 141.394C178.573 140.164 178.873 138.653 179.083 137.053C178.363 137.113 175.903 137.283 174.733 137.363C174.673 137.473 174.553 137.543 174.413 137.573L174.273 136.323C175.593 136.273 178.453 136.093 179.383 136.003C179.553 135.983 179.613 135.913 179.723 135.833L180.673 136.403C180.593 136.523 180.473 136.583 180.293 136.653C180.043 138.363 179.673 140.133 179.343 141.453C180.523 141.543 181.943 141.963 183.483 142.543C183.743 141.623 183.973 140.433 184.143 139.193L185.633 139.513L185.643 139.523ZM178.033 142.374C175.823 142.404 174.053 143.284 174.053 144.914C174.053 145.774 174.473 146.363 175.193 146.363C176.313 146.363 177.053 145.983 178.043 142.383L178.033 142.374Z" fill="white"/>
<path d="M188.693 147.293C188.693 146.723 189.073 146.313 189.603 146.313C190.133 146.313 190.493 146.733 190.493 147.293C190.493 147.833 190.143 148.243 189.583 148.243C189.023 148.243 188.693 147.793 188.693 147.293ZM190.093 144.803H189.083L188.863 136.363H190.313L190.093 144.803Z" fill="white"/>
<path d="M260.623 385.083C267.251 385.083 272.623 379.711 272.623 373.083C272.623 366.456 267.251 361.083 260.623 361.083C253.996 361.083 248.623 366.456 248.623 373.083C248.623 379.711 253.996 385.083 260.623 385.083Z" fill="#F5EFED"/>
<path d="M230.823 152.233C237.451 152.233 242.823 146.861 242.823 140.233C242.823 133.606 237.451 128.233 230.823 128.233C224.196 128.233 218.823 133.606 218.823 140.233C218.823 146.861 224.196 152.233 230.823 152.233Z" fill="#F5EFED"/>
<path d="M252.913 252.783H333.353C337.583 252.783 341.003 256.213 341.003 260.433V266.323C341.003 268.063 342.413 269.473 344.153 269.473H353.983C358.213 269.473 361.633 272.904 361.633 277.124V298.363C361.633 302.593 358.203 306.013 353.983 306.013H315.693C311.463 306.013 308.043 302.583 308.043 298.363V292.473C308.043 290.733 306.633 289.323 304.893 289.323H252.923C248.693 289.323 245.273 285.893 245.273 281.673V260.433C245.273 256.203 248.703 252.783 252.923 252.783H252.913Z" fill="#7B783E"/>
<path d="M269.193 270.203H264.113L264.373 270.283C264.363 270.373 264.233 270.453 264.063 270.473C263.663 273.253 262.403 276.023 259.313 277.583C259.143 277.383 258.743 277.033 258.483 276.833C261.513 275.323 262.573 272.993 262.933 270.223H257.053V269.193H269.183V270.223L269.193 270.203ZM266.933 266.003H258.393V264.973H266.933V266.003ZM267.133 263.743C267.763 264.403 268.473 265.453 268.823 266.173L268.203 266.593C267.883 265.883 267.143 264.794 266.523 264.164L267.123 263.743H267.133ZM268.943 263.223C269.573 263.883 270.313 264.934 270.683 265.644L270.053 266.023C269.733 265.343 268.963 264.254 268.363 263.624L268.943 263.223Z" fill="white"/>
<path d="M271.783 270.053H284.623V271.144H272.363C272.273 271.294 272.073 271.403 271.873 271.433L271.783 270.053Z" fill="white"/>
<path d="M297.843 266.763C297.823 266.843 297.753 266.903 297.663 266.933C297.093 268.843 296.323 270.593 295.403 272.023C296.063 272.403 296.823 272.883 297.383 273.303L296.733 274.313C296.183 273.883 295.393 273.373 294.753 272.973C293.343 274.943 291.523 276.523 289.203 277.653C289.033 277.393 288.633 277.024 288.353 276.854C290.603 275.804 292.403 274.253 293.803 272.423C292.663 271.793 291.543 271.253 290.403 270.823L290.983 269.963C292.103 270.363 293.263 270.883 294.443 271.513C295.243 270.253 295.873 268.913 296.303 267.433H291.093C290.153 269.003 288.893 270.554 287.543 271.664C287.343 271.484 286.923 271.143 286.663 270.973C288.673 269.433 290.583 266.663 291.503 264.033L292.963 264.374C292.903 264.544 292.743 264.593 292.543 264.573C292.333 265.083 291.973 265.833 291.683 266.403H296.793L297.013 266.343L297.843 266.763Z" fill="white"/>
<path d="M307.003 264.683H308.053C308.053 267.433 308.403 273.403 314.623 277.093C314.393 277.273 313.973 277.713 313.793 277.973C309.793 275.543 308.133 272.023 307.453 269.023C306.343 273.133 304.343 276.203 301.113 277.993C300.913 277.783 300.513 277.393 300.253 277.213C303.653 275.443 305.633 272.173 306.603 267.693L307.233 267.843C307.113 267.073 307.053 266.363 307.033 265.753H303.113V264.703H307.003V264.683Z" fill="white"/>
<path d="M319.083 269.203V270.203C319.543 270.633 320.833 272.063 321.123 272.453L320.493 273.253C320.243 272.793 319.603 271.913 319.073 271.253V278.023H318.073V271.073C317.523 272.673 316.783 274.253 316.073 275.223C315.963 274.943 315.703 274.533 315.523 274.303C316.413 273.153 317.403 271.043 317.923 269.213H315.693V268.243H318.073V265.593C317.363 265.803 316.643 265.994 315.953 266.144C315.903 265.924 315.753 265.594 315.613 265.394C317.303 264.974 319.223 264.363 320.273 263.713L321.183 264.483C321.073 264.543 321.043 264.543 320.873 264.543C320.393 264.803 319.763 265.053 319.073 265.283V268.233H321.083V269.203H319.073H319.083ZM325.873 265.394H329.903V266.243H321.123V265.394H324.873V263.743L326.183 263.823C326.163 263.933 326.073 264.003 325.873 264.033V265.383V265.394ZM329.463 271.333V276.973C329.463 278.003 328.953 278.023 327.183 278.023C327.153 277.773 327.013 277.423 326.893 277.193C327.233 277.193 327.523 277.213 327.773 277.213C328.423 277.213 328.493 277.213 328.493 276.983V272.203H322.293V278.033H321.353V271.343H329.463V271.333ZM322.463 267.193H328.373V270.343H322.463V267.193ZM327.443 269.563V267.983H323.333V269.563H327.443ZM327.343 276.263H324.193V277.043H323.423V273.133H327.343V276.253V276.263ZM326.573 273.883H324.193V275.543H326.573V273.883Z" fill="white"/>
<path d="M331.183 289.343C331.183 293.463 328.873 295.493 326.103 295.493C323.193 295.493 321.133 293.203 321.133 289.543C321.133 285.883 323.303 283.403 326.243 283.403C329.183 283.403 331.183 285.803 331.183 289.343ZM322.473 289.513C322.473 292.003 323.763 294.433 326.153 294.433C328.543 294.433 329.843 292.083 329.843 289.403C329.843 287.053 328.693 284.463 326.183 284.463C323.673 284.463 322.473 287.013 322.473 289.503V289.513Z" fill="white"/>
<path d="M340.823 295.313H339.313L335.483 289.433L334.393 290.713V295.313H333.113V283.593H334.393V289.313H334.453C334.743 288.863 335.073 288.433 335.363 288.053L338.933 283.593H340.503L336.383 288.573L340.833 295.313H340.823Z" fill="white"/>
<path d="M341.733 294.543C341.733 293.973 342.113 293.563 342.643 293.563C343.173 293.563 343.533 293.983 343.533 294.543C343.533 295.083 343.183 295.493 342.623 295.493C342.063 295.493 341.733 295.043 341.733 294.543ZM343.133 292.053H342.113L341.903 283.613H343.353L343.143 292.053H343.133Z" fill="white"/>
<path d="M104.513 353.313H191.733C195.963 353.313 199.383 356.743 199.383 360.963V366.854C199.383 368.594 200.793 370.003 202.533 370.003H215.633C219.863 370.003 223.283 373.433 223.283 377.653V398.894C223.283 403.124 219.853 406.543 215.633 406.543H174.073C169.843 406.543 166.423 403.114 166.423 398.894V393.003C166.423 391.263 165.013 389.854 163.273 389.854H104.513C100.283 389.854 96.8633 386.423 96.8633 382.203V360.963C96.8633 356.733 100.293 353.313 104.513 353.313Z" fill="#736357"/>
<path d="M110.233 369.833C109.723 370.743 109.183 371.583 108.613 372.293C108.503 372.043 108.263 371.523 108.103 371.293C109.423 369.693 110.703 367.014 111.483 364.354L112.703 364.733C112.653 364.843 112.553 364.903 112.353 364.903C112.013 365.933 111.613 366.963 111.173 367.943L111.523 368.053C111.493 368.163 111.413 368.223 111.233 368.253V378.553H110.233V369.813V369.833ZM112.613 366.083L113.823 366.164C113.813 366.254 113.733 366.333 113.533 366.363V375.943H112.613V366.083ZM122.553 366.863H121.273C120.763 367.973 120.023 368.913 119.123 369.673C120.233 370.353 121.573 370.883 123.173 371.193C122.973 371.373 122.723 371.763 122.593 372.023C120.913 371.643 119.533 371.003 118.413 370.253C117.263 371.063 115.893 371.683 114.403 372.133C114.283 371.903 114.003 371.533 113.823 371.333C115.243 370.963 116.543 370.423 117.653 369.683C116.883 369.053 116.283 368.373 115.853 367.683C115.403 368.303 114.933 368.833 114.453 369.283C114.283 369.113 113.943 368.823 113.733 368.683C114.873 367.673 116.013 365.973 116.653 364.233L117.833 364.593C117.773 364.713 117.633 364.743 117.493 364.733C117.323 365.153 117.123 365.583 116.913 365.993H122.573V366.854L122.553 366.863ZM122.813 374.973C122.753 375.063 122.643 375.093 122.503 375.083C121.023 376.763 118.093 377.913 114.763 378.503C114.653 378.243 114.423 377.883 114.223 377.653C117.403 377.173 120.283 376.143 121.693 374.543L122.803 374.973H122.813ZM119.673 371.713C119.623 371.793 119.553 371.833 119.413 371.833C118.523 372.663 116.903 373.513 115.433 373.983C115.293 373.783 115.033 373.524 114.833 373.354C116.253 372.924 117.833 372.173 118.683 371.343L119.683 371.713H119.673ZM121.163 373.203C121.113 373.283 121.023 373.323 120.883 373.323C119.773 374.433 117.703 375.443 115.623 376.013C115.483 375.803 115.273 375.503 115.053 375.303C117.053 374.843 119.103 373.933 120.173 372.823L121.153 373.193L121.163 373.203ZM116.383 366.863L116.323 366.953C116.783 367.723 117.443 368.473 118.333 369.153C119.103 368.503 119.753 367.753 120.213 366.863H116.383Z" fill="white"/>
<path d="M131.693 376.833H137.973V377.854H124.003V376.833H126.173V369.394L127.553 369.483C127.533 369.593 127.443 369.663 127.243 369.693V376.833H130.593V366.433H124.593V365.433H137.423V366.433H131.683V370.753H136.693V371.763H131.683V376.823L131.693 376.833Z" fill="white"/>
<path d="M141.263 369.793C140.683 370.713 140.053 371.563 139.403 372.273C139.313 372.023 139.033 371.553 138.863 371.303C140.373 369.703 141.873 367.043 142.803 364.383L144.013 364.803C143.963 364.913 143.863 364.953 143.663 364.943C143.243 366.063 142.743 367.173 142.183 368.233L142.563 368.343C142.543 368.453 142.473 368.513 142.273 368.543V378.604H141.253V369.803L141.263 369.793ZM153.543 365.803V366.803H152.363V377.043C152.363 377.833 152.163 378.153 151.613 378.323C151.063 378.513 150.043 378.523 148.493 378.523C148.443 378.213 148.273 377.773 148.113 377.443C148.823 377.473 149.493 377.473 150.023 377.473C151.303 377.473 151.363 377.473 151.363 377.043V366.803H143.843V365.803H153.563H153.543ZM149.153 374.453H145.273V375.563H144.323V369.113H149.153V374.453ZM148.203 370.033H145.283V373.523H148.203V370.033Z" fill="white"/>
<path d="M168.773 366.803H156.853V370.374C156.853 372.774 156.673 376.263 155.313 378.613C155.143 378.423 154.713 378.133 154.463 378.023C155.743 375.793 155.843 372.623 155.843 370.363V365.843H161.643V364.263L163.013 364.354C162.993 364.464 162.923 364.533 162.703 364.563V365.843H168.763V366.803H168.773ZM166.713 373.124L167.403 373.463C167.373 373.543 167.313 373.583 167.253 373.613C166.543 374.893 165.453 375.873 164.113 376.613C165.533 377.153 167.163 377.503 168.913 377.673C168.683 377.903 168.433 378.303 168.293 378.583C166.353 378.323 164.553 377.863 163.013 377.153C161.353 377.873 159.413 378.303 157.433 378.553C157.353 378.293 157.153 377.903 156.983 377.673C158.723 377.493 160.463 377.153 161.983 376.593C160.923 375.963 160.063 375.193 159.413 374.273L160.063 374.023H157.613V373.164H166.523L166.703 373.113L166.713 373.124ZM165.893 372.053H160.003V369.503H157.493V368.644H160.003V367.223L161.293 367.313C161.273 367.423 161.183 367.493 160.983 367.513V368.633H164.873V367.213L166.193 367.303C166.183 367.413 166.083 367.483 165.883 367.503V368.624H168.663V369.483H165.883V372.033L165.893 372.053ZM160.373 374.033C161.003 374.893 161.923 375.583 163.053 376.153C164.173 375.603 165.133 374.903 165.803 374.033H160.373ZM164.883 369.493H160.993V371.213H164.883V369.493Z" fill="white"/>
<path d="M169.963 370.073C170.723 370.043 176.953 369.603 178.273 369.593V370.354C178.153 370.354 178.033 370.354 177.913 370.354C177.323 370.354 176.833 370.454 176.183 370.874C174.663 371.784 173.203 373.413 173.203 374.713C173.203 376.133 174.193 376.973 176.703 377.293L176.373 378.003C173.503 377.593 172.423 376.513 172.423 374.713C172.423 373.283 173.833 371.554 175.683 370.394C174.573 370.474 171.583 370.693 170.283 370.813C170.253 370.893 170.143 370.963 170.063 370.973L169.983 370.083L169.963 370.073ZM176.523 372.073C177.013 372.433 177.583 373.033 177.903 373.473L177.523 373.783C177.243 373.333 176.623 372.714 176.193 372.374L176.533 372.073H176.523ZM177.613 371.183C178.113 371.543 178.693 372.133 178.993 372.583L178.613 372.883C178.343 372.483 177.753 371.853 177.283 371.483L177.623 371.183H177.613Z" fill="white"/>
<path d="M185.263 374.253C184.613 374.323 183.693 374.374 182.843 374.374C182.813 374.724 182.783 375.123 182.783 375.313C182.783 376.933 183.853 377.063 184.793 377.063C186.383 377.063 187.173 376.603 187.173 375.673C187.173 375.143 186.893 374.493 186.343 373.813C186.533 373.753 186.833 373.643 186.993 373.563C187.613 374.363 187.923 375.133 187.923 375.793C187.923 377.493 186.023 377.743 184.793 377.743C183.823 377.743 182.083 377.673 182.083 375.313C182.083 374.853 182.123 374.524 182.143 374.354C181.293 374.324 179.923 374.273 179.923 373.233C179.923 372.773 180.183 372.353 180.783 371.933L181.323 372.243C180.873 372.513 180.613 372.854 180.613 373.124C180.613 373.664 181.423 373.683 182.193 373.703C182.263 373.023 182.353 372.223 182.443 371.433C181.713 371.353 180.873 371.153 180.323 370.883L180.503 370.223C181.063 370.483 181.763 370.683 182.523 370.773C182.603 370.133 182.673 369.483 182.743 368.953L183.793 369.083C183.763 369.203 183.653 369.273 183.473 369.283C183.403 369.713 183.323 370.263 183.243 370.843C183.533 370.863 183.853 370.874 184.173 370.874C184.553 370.874 184.953 370.873 185.313 370.833L185.283 371.503C184.983 371.523 184.633 371.533 184.293 371.533C183.893 371.533 183.503 371.533 183.153 371.503C183.053 372.263 182.963 373.043 182.893 373.723C183.693 373.723 184.583 373.673 185.253 373.583V374.263L185.263 374.253Z" fill="white"/>
<path d="M189.563 389.883C189.563 394.003 187.253 396.033 184.483 396.033C181.573 396.033 179.513 393.743 179.513 390.083C179.513 386.423 181.683 383.943 184.623 383.943C187.563 383.943 189.563 386.343 189.563 389.883ZM180.853 390.053C180.853 392.543 182.143 394.973 184.533 394.973C186.923 394.973 188.223 392.623 188.223 389.943C188.223 387.593 187.073 385.003 184.563 385.003C182.053 385.003 180.853 387.553 180.853 390.043V390.053Z" fill="white"/>
<path d="M199.213 395.854H197.703L193.873 389.973L192.783 391.253V395.854H191.503V384.133H192.783V389.854H192.843C193.133 389.404 193.463 388.973 193.753 388.593L197.323 384.133H198.893L194.773 389.113L199.213 395.854Z" fill="white"/>
<path d="M200.123 395.083C200.123 394.513 200.503 394.104 201.033 394.104C201.563 394.104 201.923 394.513 201.923 395.083C201.923 395.623 201.573 396.033 201.013 396.033C200.453 396.033 200.123 395.583 200.123 395.083ZM201.523 392.593H200.513L200.293 384.144H201.743L201.523 392.593Z" fill="white"/>
<path d="M90.3533 477.493H80.7832L80.9133 493.043C80.9733 496.273 78.8033 496.373 72.9133 496.303C72.8133 495.723 72.5933 494.833 72.3333 494.223C74.4433 494.253 76.9732 494.253 77.5532 494.193C78.3232 494.093 78.7033 493.583 78.6733 493.013L78.5432 479.193C75.2832 483.993 69.9632 488.983 64.7532 492.053C64.3732 491.473 63.7633 490.803 63.1833 490.323C68.4033 487.443 73.9033 482.423 77.1633 477.493H64.4333V475.313H78.4832L78.4233 468.403L81.4932 468.533C81.4632 468.883 81.1431 469.074 80.6931 469.144L80.7532 475.323H90.3533V477.503V477.493Z" fill="#617462"/>
<path d="M96.8833 486.104V470.553L99.9233 470.743C99.8933 471.033 99.6633 471.253 99.1533 471.323V486.104H96.8833ZM114.713 469.303C114.683 469.623 114.453 469.783 113.943 469.843V480.013C113.943 486.733 111.643 492.873 102.453 496.433C102.133 495.953 101.333 495.123 100.793 494.703C109.653 491.403 111.643 485.933 111.643 480.013V469.104L114.713 469.293V469.303Z" fill="#617462"/>
<path d="M121.433 477.723C124.313 478.363 127.893 479.584 130.043 480.604L129.083 482.624C126.973 481.604 123.293 480.323 120.473 479.683L121.433 477.733V477.723ZM123.353 493.363C133.623 489.903 140.883 484.273 145.113 474.743C145.593 475.163 146.553 475.863 147.063 476.183C142.773 485.623 135.193 491.643 125.533 495.063C125.633 495.353 125.433 495.733 125.183 495.863L123.363 493.363H123.353ZM124.953 469.783C127.833 470.553 131.353 471.833 133.533 472.923L132.473 474.874C130.203 473.724 126.873 472.444 123.993 471.644L124.953 469.783ZM139.923 468.733C141.233 469.853 143.063 471.834 144.053 473.374L142.803 474.303C141.903 472.923 140.053 470.783 138.743 469.633L139.923 468.733ZM144.373 466.773C145.683 467.893 147.513 469.913 148.533 471.383L147.283 472.313C146.323 470.903 144.533 468.853 143.223 467.703L144.373 466.773Z" fill="#617462"/>
<path d="M177.753 479.164H166.173C165.563 487.384 163.483 492.384 156.513 496.374C156.063 495.864 155.293 495.253 154.693 494.803C161.313 491.123 163.273 486.743 163.873 479.153H151.043V476.943H163.973C164.073 474.443 164.103 471.563 164.103 468.333L167.243 468.523C167.213 468.843 166.923 469.034 166.473 469.104C166.443 472.014 166.443 474.603 166.313 476.943H177.773V479.153L177.753 479.164Z" fill="#617462"/>
<path d="M189.233 473.433C189.203 473.723 188.913 473.913 188.493 473.973C188.303 482.583 187.593 490.424 182.673 496.144C182.163 495.764 181.393 495.283 180.753 494.923C185.523 489.743 186.093 481.743 186.193 473.133L189.233 473.423V473.433ZM197.523 491.863C202.863 489.273 206.323 484.603 208.183 479.003C208.663 479.423 209.623 479.963 210.163 480.253C207.893 486.713 203.923 491.483 197.103 494.713C197.003 494.973 196.783 495.224 196.563 495.354L194.903 493.243L195.253 492.763V469.273L198.233 469.433C198.203 469.723 197.973 469.973 197.533 470.043V491.863H197.523Z" fill="#617462"/>
<path d="M239.793 477.493H230.223L230.353 493.043C230.413 496.273 228.243 496.373 222.353 496.303C222.253 495.723 222.033 494.833 221.773 494.223C223.883 494.253 226.413 494.253 226.993 494.193C227.763 494.093 228.143 493.583 228.113 493.013L227.983 479.193C224.723 483.993 219.403 488.983 214.193 492.053C213.813 491.473 213.203 490.803 212.623 490.323C217.843 487.443 223.343 482.423 226.603 477.493H213.863V475.313H227.913L227.853 468.403L230.923 468.533C230.893 468.883 230.573 469.074 230.123 469.144L230.183 475.323H239.783V477.503L239.793 477.493Z" fill="#617462"/>
<path d="M243.993 480.664H270.713V482.933H245.213C245.023 483.253 244.603 483.473 244.193 483.543L244.003 480.664H243.993Z" fill="#617462"/>
<path d="M298.033 473.973C298.003 474.163 297.843 474.233 297.653 474.323C296.503 478.193 294.963 481.813 293.013 484.883C294.393 485.683 296.083 486.673 297.273 487.503L295.933 489.583C294.783 488.683 293.023 487.633 291.673 486.833C288.733 490.893 285.053 494.163 280.183 496.433C279.863 495.893 279.033 495.123 278.453 494.733C283.123 492.623 286.773 489.523 289.683 485.683C287.313 484.373 284.853 483.183 282.513 482.323L283.763 480.563C286.103 481.423 288.593 482.543 291.023 483.823C292.653 481.323 294.003 478.253 294.863 475.343H284.303C282.253 478.803 279.723 481.933 277.103 484.083C276.723 483.703 275.823 482.994 275.313 482.644C279.473 479.444 283.153 473.844 285.073 468.374L288.053 469.233C287.923 469.583 287.543 469.683 287.153 469.653C286.703 470.803 286.133 472.053 285.523 473.203H295.893L296.183 473.104L298.043 473.963L298.033 473.973ZM295.093 467.613C296.593 468.793 298.393 470.713 299.353 472.093L298.133 473.083C297.233 471.803 295.353 469.724 293.943 468.604L295.093 467.613ZM299.193 466.423C300.693 467.603 302.583 469.493 303.543 470.843L302.293 471.803C301.433 470.493 299.443 468.513 298.073 467.423L299.193 466.433V466.423Z" fill="#617462"/>
<path d="M305.753 480.664H332.473V482.933H306.973C306.783 483.253 306.363 483.473 305.953 483.543L305.763 480.664H305.753Z" fill="#617462"/>
<path d="M353.483 1.25342H391.923V39.6934L353.483 1.25342Z" fill="#99A893"/>
</svg>
