<svg width="27" height="27" viewBox="0 0 27 27" fill="none" xmlns="http://www.w3.org/2000/svg">
<path d="M20.7402 19.1144L25.8501 24.1915C25.9901 24.3207 26.0902 24.4796 26.1702 24.6485C26.2402 24.8174 26.28 25.0062 26.29 25.195C26.29 25.3838 26.2602 25.5726 26.1802 25.7415C26.1102 25.9203 26.0001 26.0693 25.8701 26.2084C25.7401 26.3376 25.5801 26.4469 25.4001 26.5164C25.2201 26.586 25.0401 26.6257 24.8501 26.6257C24.6601 26.6257 24.47 26.586 24.3 26.5065C24.13 26.427 23.9701 26.3277 23.8401 26.1886L18.7302 21.1115C16.4402 22.88 13.5501 23.7146 10.6601 23.4463C7.77015 23.1781 5.09016 21.8169 3.17016 19.6609C1.25016 17.4949 0.230062 14.6931 0.320062 11.8018C0.410062 8.92047 1.60015 6.17825 3.66015 4.14145C5.71015 2.10465 8.47011 0.912377 11.3701 0.822957C14.2701 0.733536 17.1 1.74697 19.28 3.6546C21.46 5.56224 22.8201 8.22498 23.0901 11.0964C23.3601 13.9678 22.5202 16.8392 20.7402 19.1144ZM11.7202 20.6644C12.8402 20.6644 13.9602 20.4458 15.0002 20.0186C16.0402 19.5913 16.98 18.9654 17.78 18.1705C18.57 17.3856 19.2101 16.4417 19.6401 15.4084C20.0701 14.3751 20.29 13.2723 20.29 12.1496C20.29 11.0268 20.0701 9.92397 19.6401 8.89067C19.2101 7.85736 18.58 6.92342 17.78 6.12857C16.99 5.34365 16.0402 4.70778 15.0002 4.28054C13.9602 3.85331 12.8502 3.63474 11.7202 3.63474C9.45021 3.63474 7.27016 4.52894 5.67016 6.12857C4.06016 7.7282 3.16015 9.88423 3.16015 12.1396C3.16015 14.395 4.06016 16.561 5.67016 18.1507C7.28016 19.7404 9.45021 20.6445 11.7202 20.6445V20.6644Z" fill="#899284"/>
</svg>
