<svg width="183" height="42" viewBox="0 0 183 42" fill="none" xmlns="http://www.w3.org/2000/svg">
<path d="M25.78 25.3405C25.78 25.9069 25.67 26.4629 25.45 26.9895C25.23 27.5161 24.91 27.9832 24.51 28.3906C24.11 28.788 23.6301 29.1059 23.1001 29.3245C22.5701 29.5431 22.0099 29.6524 21.4399 29.6524H12.55C11.4 29.6524 10.3 29.1954 9.47998 28.3906C8.66998 27.5858 8.20996 26.4831 8.20996 25.3405V16.5076C8.20996 15.365 8.66998 14.2723 9.47998 13.4576C10.29 12.6429 11.4 12.1957 12.55 12.1957H21.4399C22.5899 12.1957 23.69 12.6528 24.51 13.4576C25.33 14.2624 25.78 15.365 25.78 16.5076V25.3405ZM21.4399 10H12.55C10.81 10 9.14992 10.6855 7.91992 11.9076C6.68992 13.1296 6 14.7788 6 16.5076V25.3405C6 27.0693 6.68992 28.7185 7.91992 29.9406C9.14992 31.1627 10.81 31.8482 12.55 31.8482H21.4399C23.1799 31.8482 24.8401 31.1627 26.0701 29.9406C27.3001 28.7185 27.99 27.0693 27.99 25.3405V16.5076C27.99 14.7788 27.3001 13.1296 26.0701 11.9076C24.8401 10.6855 23.1799 10 21.4399 10Z" fill="white"/>
<path d="M17 24.3776C16.08 24.3776 15.19 24.0099 14.54 23.3641C13.89 22.7183 13.52 21.8341 13.52 20.92C13.52 20.0059 13.89 19.1217 14.54 18.4759C15.19 17.83 16.08 17.4624 17 17.4624C17.92 17.4624 18.81 17.83 19.46 18.4759C20.11 19.1217 20.48 20.0059 20.48 20.92C20.48 21.8341 20.11 22.7183 19.46 23.3641C18.81 24.0099 17.92 24.3776 17 24.3776ZM17 15.2764C15.49 15.2764 14.05 15.8729 12.98 16.936C11.91 17.9991 11.3101 19.4299 11.3101 20.9302C11.3101 22.4304 11.91 23.8612 12.98 24.9243C14.05 25.9874 15.49 26.5835 17 26.5835C18.51 26.5835 19.95 25.9874 21.02 24.9243C22.09 23.8612 22.6899 22.4304 22.6899 20.9302C22.6899 19.4299 22.09 17.9991 21.02 16.936C19.95 15.8729 18.51 15.2764 17 15.2764Z" fill="white"/>
<path d="M22.7 16.6851C23.45 16.6851 24.0601 16.0747 24.0601 15.3247C24.0601 14.5747 23.45 13.9648 22.7 13.9648C21.95 13.9648 21.3401 14.5747 21.3401 15.3247C21.3401 16.0747 21.95 16.6851 22.7 16.6851Z" fill="white"/>
<path d="M62.3101 24.5172L61.52 26.7629C61.24 27.5677 61.1101 27.9151 60.3301 27.9151C59.8701 27.9151 58.99 27.6866 58.99 26.9613C58.99 26.703 59.11 26.4248 59.25 26.0274L63.0801 15.9128C63.3901 15.108 63.69 14.2837 65.05 14.2837C66.41 14.2837 66.69 15.1378 66.98 15.9128L70.8101 26.0274C71.0101 26.5341 71.0701 26.7328 71.0701 26.9613C71.0701 27.6866 70.23 27.9151 69.71 27.9151C68.95 27.9151 68.82 27.5577 68.54 26.7629L67.75 24.5172H62.29H62.3101ZM67.0601 22.5301L65.04 16.8467L63.02 22.5301H67.05H67.0601Z" fill="white"/>
<path d="M74.77 18.9425C75.07 18.5153 75.7801 17.6108 77.3501 17.6108C78.0901 17.6108 79.1401 17.8097 79.8801 19.0517C80.4701 18.3264 81.3201 17.6108 82.8701 17.6108C86.2401 17.6108 86.24 20.403 86.24 21.8635V26.891C86.24 27.6461 85.8101 27.9045 85.1301 27.9045C84.3001 27.9045 84.04 27.4772 84.04 26.891V22.0324C84.04 21.1481 84.04 19.598 82.45 19.598C81.16 19.598 80.53 20.5721 80.53 22.0426V26.891C80.53 27.6461 80.1199 27.9045 79.4199 27.9045C78.6099 27.9045 78.3501 27.4971 78.3501 26.891V22.0324C78.3501 21.1282 78.35 19.598 76.8 19.598C76.65 19.598 74.8701 19.5983 74.8701 21.9829V26.891C74.8701 27.7256 74.36 27.9045 73.76 27.9045C72.95 27.9045 72.6899 27.4772 72.6899 26.891V18.5845C72.6899 17.7499 73.24 17.621 73.75 17.621C74.51 17.621 74.77 17.9983 74.77 18.5845V18.9425Z" fill="white"/>
<path d="M90.3801 23.4335C90.4501 24.1588 90.6101 26.0266 93.3501 26.0266C94.2601 26.0266 94.75 25.8777 95.3 25.7287C95.4 25.6989 95.5001 25.6588 95.6501 25.6588C96.1101 25.6588 96.51 26.0364 96.51 26.6325C96.51 27.1591 96.2301 27.3582 95.9001 27.4873C95.8301 27.5072 94.81 27.9142 93.26 27.9142C88.91 27.9142 88.2 24.5462 88.2 22.8373C88.2 19.8963 89.95 17.6211 92.73 17.6211C96 17.6211 97.1101 20.5718 97.1101 22.2013C97.1101 23.4333 95.9201 23.4335 95.0801 23.4335H90.3901H90.3801ZM94.6602 21.8534C94.8202 21.8534 94.97 21.8537 94.97 21.655C94.97 21.2079 94.52 19.4889 92.72 19.4889C92.32 19.4889 90.7002 19.5682 90.4102 21.8534H94.6602Z" fill="white"/>
<path d="M101.25 18.9014C101.93 18.2655 102.61 17.6197 104.16 17.6197C106.74 17.6197 108.47 19.7756 108.47 22.7563C108.47 25.737 106.78 27.9128 104.14 27.9128C102.45 27.9128 101.56 26.9889 101.18 26.502V26.9295C101.18 27.7044 100.73 27.9128 100.11 27.9128C99.5801 27.9128 99.0701 27.7342 99.0701 26.9295V14.947C99.0701 14.1919 99.4799 13.9336 100.18 13.9336C100.88 13.9336 101.25 14.2416 101.25 14.947V18.9014ZM103.75 25.9257C104.99 25.9257 106.29 25.0912 106.29 22.7563C106.29 20.6201 105.12 19.6068 103.75 19.6068C102.92 19.6068 101.24 20.0637 101.24 22.7563C101.24 25.4488 102.87 25.9257 103.75 25.9257Z" fill="white"/>
<path d="M118.31 25.3212C118.31 25.6193 118.31 25.8478 118.38 26.3744C118.4 26.4241 118.48 27.0003 118.48 27.0599C118.48 27.7951 117.65 27.9142 117.36 27.9142C116.52 27.9142 116.42 27.3679 116.39 26.5035C116.08 26.8611 115.15 27.9142 113.28 27.9142C111.41 27.9142 109.99 26.7517 109.99 24.8938C109.99 22.231 112.5 21.8535 113.94 21.6448C115.9 21.3467 116.17 21.2971 116.17 20.6711C116.17 19.9955 115.53 19.5388 114.22 19.5388C113.64 19.5388 112.92 19.6381 112.19 19.9163C111.96 20.0156 111.78 20.0948 111.56 20.0948C111.05 20.0948 110.68 19.5881 110.68 19.0814C110.68 18.5746 110.98 18.3564 111.44 18.1577C112.3 17.8 113.21 17.6211 114.12 17.6211C114.8 17.6211 116.61 17.7205 117.64 18.9625C117.99 19.4096 118.32 20.0453 118.32 21.5556V25.311L118.31 25.3212ZM116.19 22.7679C115.73 23.0262 115.56 23.0658 114.02 23.2943C113.08 23.4234 112 23.5725 112 24.8045C112 25.2814 112.21 26.0959 113.44 26.0959C115.08 26.0959 115.82 24.894 116.18 24.3276V22.7679H116.19Z" fill="white"/>
<path d="M173.43 12.4438H152.4C150.787 12.4438 149.48 13.7432 149.48 15.3454V26.5031C149.48 28.1054 150.787 29.4042 152.4 29.4042H173.43C175.043 29.4042 176.35 28.1054 176.35 26.5031V15.3454C176.35 13.7432 175.043 12.4438 173.43 12.4438Z" fill="white"/>
<path d="M160.15 16.6763L167 20.9285L160.15 25.171V16.6763Z" fill="#899284"/>
</svg>
